<svg height="64" viewBox="0 0 64 64" width="64" xmlns="http://www.w3.org/2000/svg"><path d="m4.043 31.828a28 28 0 0 0 -.043 1.172 28 28 0 0 0 28 28 28 28 0 0 0 28-28 28 28 0 0 0 -.042-.828 28 28 0 0 1 -27.958 26.828 28 28 0 0 1 -27.956-27.172z" opacity=".2"/><path d="m32 4a28 28 0 0 0 -28 28 28 28 0 0 0 28 28 28 28 0 0 0 28-28 28 28 0 0 0 -28-28z" fill="#c88937"/><path d="m31.998047 4a28 28 0 0 0 -27.998047 28 28 28 0 0 0 .0214844.40625 28 28 0 0 1 27.9765626-27.40625h.001953a28 28 0 0 1 27.976562 27.585938 28 28 0 0 0 .021485-.585938 28 28 0 0 0 -27.998047-28z" fill="#fff" opacity=".2"/><path d="m34 11.10118v19.8984h19.8906a22 22 0 0 0 -19.89-19.8988zm-4 .0078a22 22 0 0 0 -19.8984 19.891h19.8984v-19.8906zm-19.8906 23.892a22 22 0 0 0 19.8906 19.89802v-19.8984h-19.8906zm23.89 0v19.8906a22 22 0 0 0 19.8984-19.8906z" opacity=".2"/><path d="m34 10.1016v19.8984h19.89a22 22 0 0 0 -19.89-19.8984zm-4 .0078a22 22 0 0 0 -19.8984 19.8906h19.8984zm-19.8906 23.89a22 22 0 0 0 19.8906 19.898v-19.898zm23.89 0v19.89a22 22 0 0 0 19.898-19.89z" fill="#ddc450"/></svg>