<svg height="64" width="64" xmlns="http://www.w3.org/2000/svg" xmlns:xlink="http://www.w3.org/1999/xlink"><filter id="a" color-interpolation-filters="sRGB" height="1.3727" width="1.4988" x="-.2494" y="-.18634"><feGaussianBlur stdDeviation=".77642176"/></filter><filter id="b" color-interpolation-filters="sRGB" height="1.3727" width="1.4794" x="-.23972" y="-.18634"><feGaussianBlur stdDeviation=".77642176"/></filter><filter id="c" color-interpolation-filters="sRGB" height="1.3727" width="1.4468" x="-.22342" y="-.18634"><feGaussianBlur stdDeviation=".77642176"/></filter><linearGradient id="d" gradientUnits="userSpaceOnUse" x1="-47.6236" x2="-31.7496" y1="-6.87901" y2="8.99569"><stop offset="0" stop-color="#cfdef0"/><stop offset="1" stop-color="#f5faff"/></linearGradient><linearGradient id="e" gradientTransform="matrix(1.0774 0 0 1 3.5957 -1.75)" gradientUnits="userSpaceOnUse" x1="-67.422" x2="-39.366" y1="18.739" y2="18.739"><stop offset="0" stop-color="#f5501e"/><stop offset="1" stop-color="#ff640a"/></linearGradient><linearGradient id="f" gradientTransform="matrix(1.0774 0 0 1 3.5957 -1.75)" gradientUnits="userSpaceOnUse" x1="-67.422" x2="-39.366" y1="50.685" y2="50.685"><stop offset="0" stop-color="#64c82d"/><stop offset="1" stop-color="#87eb32"/></linearGradient><linearGradient id="g" gradientTransform="matrix(-1.0774 0 0 1 -78.565 -1.75)" gradientUnits="userSpaceOnUse" x1="-67.422" x2="-39.366" y1="50.685" y2="50.685"><stop offset="0" stop-color="#1973d2"/><stop offset="1" stop-color="#1e87e6"/></linearGradient><g fill="#5e4aa6"><circle cx="-1469.1" cy="-1265.6" r="0"/><circle cx="-1400.2" cy="-1257.6" r="0"/><circle cx="-1377.2" cy="-1283.4" r="0"/><circle cx="-1387.8" cy="-1256.7" r="0"/></g><g fill="#5e4aa6" stroke-width=".95051624295"><circle cx="-1328.8078808786" cy="-1203.15805784248" r="0"/><circle cx="-1263.27981272756" cy="-1195.505931463" r="0"/><circle cx="-1241.40119786792" cy="-1220.00710606772" r="0"/><circle cx="-1251.53218208864" cy="-1194.64372003996" r="0"/></g><rect fill="url(#d)" height="15.875" ry=".79373" transform="matrix(3.592547596 0 0 3.592547596 174.63361376 29.028972712)" width="15.875" x="-47.624" y="-6.879"/><g transform="matrix(.95051 0 0 .95051 67.629 -.16233)"><path d="m-64.424 4.7109c-1.662 0-3 1.338-3 3v54.002c0 1.662 1.338 3 3 3h54.002c1.662 0 3-1.338 3-3v-54.002c-.0000928 7.856-.00977 21.233-.00977 27.311h-28.451v-30.311zm53.898 0c.78358 0 1.4882.27529 2.0332.7168-.52209-.44121-1.1895-.7168-1.9297-.7168z" fill="#969696" opacity=".3" stroke-width="3.7796"/><path d="m-65.943 2.9613h27.124c0 4.0564-.000598 28.147-.000598 28.939h-30.217c0-6.1064-.0099-18.197-.0099-26.059 0-1.5958 1.3842-2.8805 3.1035-2.8805z" fill="url(#e)"/><path d="m-66.166 64.712h25.175c0-4.0458-.000555-27.263-.000555-28.055h-28.046c0 6.1064-.0092 17.313-.0092 25.175 0 1.5958 1.2847 2.8805 2.8805 2.8805z" fill="#cbd2da"/><path d="m-65.943 62.962h27.124c0-4.0458-.000598-28.014-.000598-28.807h-30.217c0 6.1064-.0099 18.064-.0099 25.926 0 1.5958 1.3842 2.8805 3.1035 2.8805z" fill="url(#f)"/><path d="m-8.8031 64.712h-25.175c0-4.0454.000555-27.263.000555-28.055h28.046c0 6.1064.0092 17.313.0092 25.175 0 1.5958-1.2847 2.8805-2.8805 2.8805z" fill="#cbd2da"/><path d="m-9.0261 62.962h-27.124c0-4.0458.000597-28.014.000597-28.807h30.217c0 6.1064.0099 18.064.0099 25.926 0 1.5958-1.3842 2.8805-3.1035 2.8805z" fill="url(#g)"/></g><g transform="matrix(1.394683323 0 0 1.394683323 84.23536021 -14.7146381)"><path d="m21.69 23.869c1.9319-1.3779 3.0398-2.9688 3.0398-4.7016 0-1.9887-1.4205-3.1677-3.8068-3.1677-1.2074 0-2.3722.2983-3.395.85229l.55398 1.8608c.93751-.42614 1.6478-.61082 2.3296-.61082 1.1222 0 1.7614.49718 1.7614 1.3921 0 1.1364-.99435 2.4006-4.2755 4.9573v1.5483h7.1023v-2.1307z" filter="url(#a)" opacity=".15" stroke-width=".38045" transform="matrix(.99299 0 0 .99299 -69.779 1.4617)"/><path d="m-48.241 25.163c1.9183-1.3682 3.0185-2.948 3.0185-4.6686 0-1.9747-1.4105-3.1455-3.7801-3.1455-1.1989 0-2.3556.29621-3.3712.84632l.5501 1.8478c.93094-.42315 1.6362-.60654 2.3133-.60654 1.1144 0 1.749.4937 1.749 1.3824 0 1.1284-.98738 2.3837-4.2456 4.9226v1.5374h7.0526v-2.1158z" fill="#fff" stroke-width=".37778"/></g><g transform="matrix(1.394683323 0 0 1.394683323 85.55847013 -15.59481036)"><path d="m44.938 42.608c.9804-.50419 1.5126-1.2605 1.5126-2.1568 0-1.4706-1.4146-2.451-3.5014-2.451-2.2129 0-3.6835 1.1905-3.6835 2.9692 0 1.0784.54621 1.7227 1.2885 2.1709-.9944.42017-1.5546 1.1765-1.5546 2.1289 0 1.6387 1.5406 2.7311 3.8517 2.7311 2.353 0 3.9215-1.2045 3.9215-3.0252 0-1.2745-.84034-1.9328-1.8347-2.3669zm-2.0728-2.535c.65825 0 1.0925.32213 1.0925.82634 0 .50419-.36414.91037-.92436 1.0504-.72829-.2661-1.2745-.54621-1.2745-1.0644 0-.4902.43416-.81231 1.1064-.81231zm.11204 5.8544c-.89634 0-1.4846-.43416-1.4846-1.0784 0-.46218.29412-.82634.79832-.9944 1.0504.33613 1.9888.58822 1.9888 1.2465 0 .4902-.53221.82634-1.3025.82634z" filter="url(#b)" opacity=".15" stroke-width=".37512" transform="matrix(.99299 0 0 .99299 -69.779 1.4617)"/><path d="m-25.156 43.771c.97353-.50066 1.502-1.2517 1.502-2.1417 0-1.4603-1.4046-2.4338-3.4768-2.4338-2.1974 0-3.6577 1.1822-3.6577 2.9484 0 1.0708.54238 1.7106 1.2795 2.1557-.98743.41722-1.5437 1.1682-1.5437 2.1139 0 1.6272 1.5298 2.712 3.8247 2.712 2.3365 0 3.894-1.1961 3.894-3.004 0-1.2656-.83445-1.9192-1.8218-2.3503zm-2.0583-2.5173c.65364 0 1.0848.31987 1.0848.82055 0 .50066-.36159.90398-.91788 1.043-.72319-.26424-1.2656-.54238-1.2656-1.0569 0-.48676.43111-.80662 1.0986-.80662zm.11125 5.8134c-.89005 0-1.4742-.43111-1.4742-1.0708 0-.45894.29206-.82055.79272-.98743 1.043.33377 1.9749.5841 1.9749 1.2377 0 .48676-.52848.82055-1.2934.82055z" fill="#fff" stroke-width=".37249"/></g><g transform="matrix(1.394683323 0 0 1.394683323 84.83703304 -15.59481036)"><path d="m25 43.908h-1.3448v-5.9084h-2.3748l-4.621 5.9084v2.1459h4.5064v1.9456h2.4893v-1.9456h1.3448zm-6.0801-.02862 2.2461-2.9328v2.9471z" filter="url(#c)" opacity=".15" stroke-width=".38317" transform="matrix(.99299 0 0 .99299 -69.779 1.4617)"/><path d="m-44.954 45.062h-1.3354v-5.867h-2.3582l-4.5887 5.867v2.1309h4.4749v1.932h2.4719v-1.932h1.3354zm-6.0375-.02842 2.2303-2.9123v2.9264z" fill="#fff" stroke-width=".38048"/></g></svg>