<svg height="64" viewBox="0 0 16.933 16.933" width="64" xmlns="http://www.w3.org/2000/svg" xmlns:xlink="http://www.w3.org/1999/xlink"><filter id="a" color-interpolation-filters="sRGB" height="1.168" width="1.168" x="-.083994" y="-.084006"><feGaussianBlur stdDeviation=".22223482"/></filter><linearGradient id="b" gradientUnits="userSpaceOnUse" x1=".7039478267" x2="16.35236836" y1="16.30216912" y2=".6535085939"><stop offset="0" stop-color="#00a0ff"/><stop offset="1" stop-color="#37beff"/></linearGradient><path d="m16.404 8.4664c0 .95152-.16749 1.8638-.47463 2.7094-.2135.58767-.49437 1.1433-.8339 1.6572-.14222.21608-.29513.42474-.45745.62527-.51964.64178-1.1372 1.2006-1.8304 1.6542-.25529.16717-.52063.32009-.79534.45711-1.0668.53388-2.271.83419-3.5455.83419s-2.4787-.30031-3.5455-.83421c-.27473-.13705-.54039-.28996-.79568-.45711-.70205-.45972-1.327-1.0274-1.8508-1.6798-.16262-.20216-.31523-.41274-.45745-.63076-.33046-.50538-.6042-1.0507-.81347-1.627-.3071-.84526-.47429-1.7572-.47429-2.7084 0-4.3837 3.5536-7.9373 7.9373-7.9373 2.2005 0 4.1916.89545 5.6294 2.3416.41434.4166.78272.87927 1.0962 1.3794.29644.47106.54426.97579.73702 1.5068.30718.84557.47465 1.7579.47465 2.7094z" fill="url(#b)" stroke-width=".031006"/><path d="m5.2915 11.239c-.004-1.524 2.2-5.925 3.226-5.947.513-.013 1.282.962 1.928 2.222.647 1.259 1.17 2.804 1.196 3.932 0 0-2.483-4.849-3.102-4.863-.63-.017-2.342 3.416-2.138 3.798.2.373 3.888-.83 3.888-.83-.08.123-2.487 1.715-4.293 2.09-.273-.012-.682 0-.705-.402" fill="#157ce0" fill-rule="evenodd" filter="url(#a)" transform="matrix(1.1772 0 0 1.1772 -1.5003 -1.5002)"/><path d="m4.7289 11.73c-.00471-1.7941 2.5898-6.9749 3.7977-7.0008.6039-.015304 1.5092 1.1325 2.2696 2.6157.76165 1.4821 1.3773 3.3009 1.4079 4.6288 0 0-2.923-5.7083-3.6517-5.7247-.74164-.020012-2.757 4.0213-2.5169 4.471.23544.4391 4.577-.97708 4.577-.97708-.09418.1448-2.9277 2.0189-5.0537 2.4604-.32138-.01413-.80285 0-.82993-.47324" fill="#fff" fill-rule="evenodd" stroke-width="1.1772"/><g fill="#5e4aa6" stroke-width=".26458"><circle cx="-371.417" cy="-334.8706" r="0"/><circle cx="-353.177" cy="-332.7406" r="0"/><circle cx="-347.087" cy="-339.5606" r="0"/><circle cx="-349.907" cy="-332.5006" r="0"/></g></svg>