<svg height="64" width="64" xmlns="http://www.w3.org/2000/svg" xmlns:xlink="http://www.w3.org/1999/xlink"><linearGradient id="a" gradientUnits="userSpaceOnUse" x1="32" x2="32" y1="2" y2="62"><stop offset="0" stop-color="#323c41"/><stop offset="1" stop-color="#0f4d3e"/></linearGradient><linearGradient id="b" gradientUnits="userSpaceOnUse" x1="33.2079" x2="33.5639" y1="53.1619" y2="13.6279"><stop offset="0" stop-color="#14cd46"/><stop offset="1" stop-color="#5adc19"/></linearGradient><linearGradient id="c"><stop offset="0" stop-color="#323232"/><stop offset="1" stop-color="#3c503c"/></linearGradient><linearGradient id="d" gradientUnits="userSpaceOnUse" x1="39.5029" x2="39.5029" xlink:href="#c" y1="43.2229" y2="33.2229"/><linearGradient id="e" gradientUnits="userSpaceOnUse" x1="26.5029" x2="26.5029" xlink:href="#c" y1="43.2229" y2="33.2229"/><filter id="f" color-interpolation-filters="sRGB" height="1.108" width="1.135" x="-.0675" y="-.054"><feGaussianBlur stdDeviation=".89999995"/></filter><circle cx="32" cy="32" fill="url(#a)" r="30"/><g transform="translate(-.50294 -1.2229)"><g filter="url(#f)" opacity=".5"><path d="m16.503 28.701c0 10.29 8.4961 24.521 16 24.521 7.0642 0 16-14.232 16-24.521 0-10.29-7.1634-15.479-16-15.479s-16 5.1888-16 15.479z"/><path d="m36.885 35.605c2.0206-2.0206 4.8396-2.7554 7.4415-2.2055.54985 2.6018-.18496 5.4209-2.2055 7.4414-2.0206 2.0206-4.8396 2.7554-7.4414 2.2055-.54992-2.6019.18495-5.4209 2.2055-7.4414z"/><path d="m20.679 33.536c2.6018-.54222 5.4209.18239 7.4414 2.1749 2.0206 1.9925 2.7554 4.7724 2.2055 7.3381-2.6018.54222-5.4209-.18238-7.4415-2.1749-2.0206-1.9926-2.7554-4.7724-2.2055-7.3381z"/></g><g><path d="m16.503 28.701c0 10.29 8.4961 24.521 16 24.521 7.0642 0 16-14.232 16-24.521 0-10.29-7.1634-15.479-16-15.479s-16 5.1888-16 15.479z" fill="url(#b)"/><path d="m36.885 35.605c2.0206-2.0206 4.8396-2.7554 7.4415-2.2055.54985 2.6018-.18496 5.4209-2.2055 7.4414-2.0206 2.0206-4.8396 2.7554-7.4414 2.2055-.54992-2.6019.18495-5.4209 2.2055-7.4414z" fill="url(#d)"/><path d="m20.679 33.536c2.6018-.54222 5.4209.18239 7.4414 2.1749 2.0206 1.9925 2.7554 4.7724 2.2055 7.3381-2.6018.54222-5.4209-.18238-7.4415-2.1749-2.0206-1.9926-2.7554-4.7724-2.2055-7.3381z" fill="url(#e)"/></g></g></svg>