<svg height="64" width="64" xmlns="http://www.w3.org/2000/svg" xmlns:xlink="http://www.w3.org/1999/xlink"><linearGradient id="a" gradientTransform="translate(-384.57 504.56)" gradientUnits="userSpaceOnUse" x2="0" y1="505.8" y2="541.8"><stop offset="0" stop-color="#fffcde"/><stop offset="1" stop-color="#fafac5"/></linearGradient><linearGradient id="b" gradientTransform="translate(-384.57 504.56)" gradientUnits="userSpaceOnUse" x2="0" y1="542.8" y2="503.8"><stop offset="0" stop-color="#f39c12"/><stop offset="1" stop-color="#f5ab35"/></linearGradient><radialGradient id="c" cx="24" cy="1028.4" gradientTransform="matrix(1.231 .00334 -.00334 1.2313 -2.11 -237.92)" gradientUnits="userSpaceOnUse" r="16"><stop offset="0" stop-color="#f47750"/><stop offset="1" stop-color="#fdbc4b"/></radialGradient><filter id="d" color-interpolation-filters="sRGB" height="1.072" width="1.072" x="-.036" y="-.036"><feGaussianBlur stdDeviation=".54"/></filter><linearGradient id="e"><stop offset="0" stop-color="#d3d3d3"/><stop offset="1" stop-color="#fcf9f9"/></linearGradient><linearGradient id="f" gradientUnits="userSpaceOnUse" x1="-110.61552" x2="-110.61552" xlink:href="#e" y1="189.382444" y2="144.968844"/><linearGradient id="g"><stop offset="0" stop-color="#8d3aff"/><stop offset="1" stop-color="#ff3680"/></linearGradient><linearGradient id="h" gradientUnits="userSpaceOnUse" x1="-164.44472" x2="-164.44472" xlink:href="#g" y1="212.234684" y2="166.365084"/><linearGradient id="i"><stop offset="0" stop-color="#8f62bc"/><stop offset="1" stop-color="#f7904e"/></linearGradient><linearGradient id="j" gradientUnits="userSpaceOnUse" x1="-100.5279368" x2="-77.93850128" xlink:href="#i" y1="41.02261536" y2="71.7287952"/><linearGradient id="k" gradientUnits="userSpaceOnUse" x1="-68.87552" x2="-68.87552" xlink:href="#e" y1="82.142444" y2="37.728844"/><linearGradient id="l" gradientUnits="userSpaceOnUse" x1="-122.68472" x2="-122.68472" xlink:href="#g" y1="105.004684" y2="59.135084"/><linearGradient id="m" gradientUnits="userSpaceOnUse" x1="-68.7768096" x2="-104.3023008" xlink:href="#i" y1="72.89433792" y2="34.3646832"/><linearGradient id="n" gradientUnits="userSpaceOnUse" x1="-138.27552" x2="-138.27552" xlink:href="#e" y1="212.842444" y2="168.428844"/><linearGradient id="o" gradientUnits="userSpaceOnUse" x1="-192.10472" x2="-192.10472" xlink:href="#g" y1="235.694684" y2="189.825084"/><linearGradient id="p" gradientUnits="userSpaceOnUse" x1="-71.6227044" x2="-101.3677212" y1="69.66259238" y2="37.4022298"><stop offset="0" stop-color="#232223"/><stop offset="1" stop-color="#49484d"/></linearGradient><g stroke-linejoin="round" transform="matrix(1.5 0 0 1.5 83.058 -1510.5)"><circle cx="24" cy="1028.4" fill="url(#b)" r="20" stroke-width=".33333"/><g stroke-width="1.3333"><circle cx="24" cy="1028.4" filter="url(#d)" opacity=".15" r="18" stroke-linecap="round"/><circle cx="24" cy="1028.4" fill="url(#a)" r="18" stroke-linecap="round"/><path d="m24 1012.4c-3 0-5 2-5 2s1.193 4.052 2 6c.856 2.066 3 6 3 6s2.144-3.934 3-6c.807-1.948 2-6 2-6s-2-2-5-2m-6.363 2.564s-2.83 0-4.951 2.121-2.121 4.951-2.121 4.951 3.71 2.02 5.658 2.828c2.066.856 6.363 2.121 6.363 2.121s-1.265-4.297-2.121-6.363c-.807-1.948-2.828-5.658-2.828-5.658m12.727 0s-2.02 3.71-2.828 5.658c-.856 2.066-2.121 6.363-2.121 6.363s4.297-1.265 6.363-2.121c1.948-.807 5.658-2.828 5.658-2.828s0-2.83-2.121-4.951-4.951-2.121-4.951-2.121m-20.363 8.436s-2 2-2 5 2 5 2 5 4.052-1.193 6-2c2.066-.856 6-3 6-3s-3.934-2.144-6-3c-1.948-.807-6-2-6-2m28 0s-4.052 1.193-6 2c-2.066.856-6 3-6 3s3.934 2.144 6 3c1.948.807 6 2 6 2s2-2 2-5-2-5-2-5m-15.414 6.414s-4.297 1.265-6.363 2.121c-1.948.807-5.658 2.828-5.658 2.828s0 2.83 2.121 4.951 4.951 2.121 4.951 2.121 2.02-3.71 2.828-5.658c.856-2.066 2.121-6.363 2.121-6.363m2.828 0s1.265 4.297 2.121 6.363c.807 1.948 2.828 5.658 2.828 5.658s2.83 0 4.951-2.121 2.121-4.951 2.121-4.951-3.71-2.02-5.658-2.828c-2.066-.856-6.363-2.121-6.363-2.121m-1.414.586s-2.144 3.934-3 6c-.807 1.948-2 6-2 6s2 2 5 2 5-2 5-2-1.193-4.052-2-6c-.856-2.066-3-6-3-6" fill="url(#c)"/></g></g><g fill="#5e4aa6" stroke-width="1.000006568"><circle cx="-1421.69086" cy="-1240.198048" r="0"/><circle cx="-1352.750956" cy="-1232.1475" r="0"/><circle cx="-1329.733192" cy="-1257.924372" r="0"/><circle cx="-1340.391664" cy="-1231.240396" r="0"/></g><g image-rendering="optimizeSpeed"><circle cx="-110.36" cy="167.47" fill="url(#f)" r="0"/><circle cx="-164.15" cy="189.63" fill="none" r="0" stroke="url(#h)" stroke-width="2.1297"/><circle cx="-68.598" cy="60.222" fill="url(#k)" r="0"/><circle cx="-122.39" cy="82.378" fill="none" r="0" stroke="url(#l)" stroke-width="2.1297"/><g fill="#5e4aa6"><circle cx="-1449.4" cy="-1216.7" r="0"/><circle cx="-1380.4" cy="-1208.7" r="0"/><circle cx="-1357.4" cy="-1234.5" r="0"/><circle cx="-1368.1" cy="-1207.8" r="0"/></g><circle cx="-138.02" cy="190.93" fill="url(#n)" r="0"/><circle cx="-191.81" cy="213.09" fill="none" r="0" stroke="url(#o)" stroke-width="2.1297"/></g><g transform="translate(118.24 -21.017)"><path d="m-56.238 53.016c0 3.5964-.63304 7.0444-1.7939 10.24-.80694 2.2212-1.8686 4.3212-3.1519 6.2636-.53754.8167-1.1155 1.6054-1.729 2.3633-1.9641 2.4257-4.2982 4.5382-6.9182 6.2526-.96493.63184-1.9678 1.2098-3.0061 1.7277-4.0321 2.0179-8.5838 3.1529-13.401 3.1529-4.8171 0-9.3689-1.1351-13.401-3.153-1.0384-.51799-2.0425-1.0959-3.0074-1.7277-2.6535-1.7376-5.0155-3.8832-6.9953-6.349-.61464-.76408-1.1914-1.56-1.729-2.3841-1.249-1.9102-2.2836-3.9712-3.0746-6.1494-1.1607-3.1948-1.7927-6.6415-1.7927-10.237 0-16.569 13.432-30 30-30 8.317 0 15.843 3.3845 21.277 8.8503 1.5661 1.5746 2.9584 3.3233 4.1436 5.214 1.1205 1.7805 2.0571 3.6881 2.7857 5.6951 1.161 3.196 1.794 6.6442 1.794 10.24z" fill="url(#m)" image-rendering="optimizeSpeed" stroke-width=".11719"/><path d="m-86.237 27.902c-13.873 0-25.119 11.246-25.119 25.119 0 3.0101.53009 5.8953 1.502 8.5704.66229 1.8238 1.5284 3.5491 2.5742 5.1484.45008.68994.93263 1.3563 1.4473 1.9961 1.6578 2.0646 3.6357 3.8616 5.8574 5.3164.80792.52897 1.6481 1.0136 2.5176 1.4473 3.376 1.6896 7.1873 2.6387 11.221 2.6387 4.0334 0 7.8448-.94915 11.221-2.6387.86937-.43362 1.7097-.91823 2.5176-1.4473 2.194-1.4355 4.1465-3.2034 5.791-5.2344.51367-.63461.99915-1.2947 1.4492-1.9785 1.0745-1.6264 1.963-3.3863 2.6387-5.2461.97201-2.6759 1.502-5.563 1.502-8.5743 0-3.0111-.52985-5.8983-1.502-8.5743-.56324-1.5515-1.3081-3.011-2.1523-4.4024l-6.002 4.1348-2.5977-3.7676 5.8164-4.0078 4.0039-2.7578c-.491-.57438-.87571-1.238-1.4082-1.7734-.82782-.83264-1.7907-1.5166-2.7109-2.248l-4.1328 2.8477c-4.0846-2.8742-9.0594-4.5684-14.434-4.5684z" fill="url(#p)" image-rendering="optimizeSpeed" stroke-width=".098123"/><path d="m-77.379 40.444c-.0645-.0053-.13103-.0015-.19889.01298l-14.744 3.1493c-.54288.11596-1.0737.6614-1.0737 1.2165v2.5766l-.0615 15.338c-1.2812.98632-4.1812.61209-5.7738 2.0251-1.491 1.7106-1.5157 4.4887.4128 5.62 2.5044 1.4153 7.2282.26045 6.9971-4.3016l.1736-15.587 13.245-2.239.0226 11.178c-1.3208.90868-4.1275.58255-5.6856 1.9649-1.491 1.7106-1.5157 4.488.41281 5.6193 2.5043 1.4153 7.2282.26045 6.9971-4.3016l.03-15.314c.0297-.08974.0499-.18477.0499-.2891v-5.6542c0-.48574-.35147-.97727-.80304-1.0149z" fill="url(#j)"/></g></svg>