<svg height="64" width="64" xmlns="http://www.w3.org/2000/svg" xmlns:xlink="http://www.w3.org/1999/xlink"><linearGradient id="a" gradientUnits="userSpaceOnUse" x1="-23.56836868" x2="30.9833592" y1="-173.01069232" y2="-122.1836632"><stop offset="0" stop-color="#55c3f8"/><stop offset="1" stop-color="#1484f4"/></linearGradient><linearGradient id="b" gradientTransform="matrix(-.67771 0 0 .67771 62.57 24.331)" gradientUnits="userSpaceOnUse" x1="5.6964" x2="50.126" y1="9.9047" y2="50.57"><stop offset="0" stop-color="#f4f4f4"/><stop offset="1" stop-color="#dce3ec"/></linearGradient><path d="m51.463 11.516c-5.2054-4.5241-12.116-7.0158-19.462-7.0158-7.3447 0-14.256 2.4916-19.462 7.0158-5.2505 4.5634-8.1421 10.645-8.1421 17.125 0 6.1848 2.6359 12.006 7.4407 16.49-.08664.20809-.15541.42705-.1993.65727l-1.5787 8.2939c-.18773.98569.06456 1.5735.309 1.8931.28264.36928.70152.57275 1.1797.57275.36101 0 .749-.11375 1.1533-.33819l9.1831-5.095c3.1794 1.0929 6.5976 1.666 10.115 1.666 7.3447 0 14.256-2.4916 19.462-7.0158 5.2505-4.5633 8.1421-10.645 8.1421-17.125 0-6.4803-2.8916-12.562-8.1421-17.126z" fill="url(#a)" image-rendering="optimizeSpeed" stroke-width="1.2092"/><path d="m26.592 13.475 2.7039.64378q-.38626 1.03-.90129 1.9313h13.004v10.172h-19.313v1.6738h22.79v2.0601h-22.79v1.6738h23.047q-.38626 8.3691-1.2876 10.043-.77253 1.8026-2.9614 1.8026-1.03 0-3.2189-.38626l-.51503-2.5751q2.4463.38626 3.4764.38626.77253 0 1.03-.77252.38626-.90129.64377-6.309h-22.79v-17.768h6.0515q.64377-1.2875 1.03-2.5751zm-4.5064 4.6352v2.0601h16.738v-2.0601zm0 3.9914v2.0601h16.738v-2.0601zm5.5365 12.489h2.5751v3.4764h6.309v-3.2189h2.4464v5.279h-17.511v2.1888h-2.5751v-7.3391h2.5751v3.0901h6.1803z" fill="#fff" stroke-width="1.35"/><path d="m32.98 34.261c2.9173-2.5356 6.7909-3.932 10.907-3.932 4.1164 0 7.9902 1.3964 10.907 3.932 2.9427 2.5576 4.5633 5.9663 4.5633 9.5977 0 3.4663-1.4773 6.7287-4.1702 9.242.04856.11663.0871.23935.11169.36837l.88483 4.6484c.10521.55244-.03618.88188-.17318 1.061-.1584.20697-.39317.32101-.66115.32101-.20234 0-.41979-.06375-.64638-.18954l-5.1467-2.8555c-1.7819.61253-3.6977.93372-5.6692.93372-4.1164 0-7.9902-1.3964-10.907-3.932-2.9426-2.5575-4.5633-5.966-4.5633-9.5977 0-3.632 1.6206-7.0403 4.5633-9.5985z" fill="url(#b)" image-rendering="optimizeSpeed" stroke-width="1.2092"/><path d="m39.131 37.445c-.23394 0-.42227.19059-.42227.42476v.58125h-3.3012c-.23394 0-.42227.18822-.42227.42227v1.1302c-.0001.23342.18831.42227.42227.42227h6.3192c-.17806 1.1409-.78405 2.3575-1.8009 3.6166-.64809-1.0382-1.0639-2.047-1.3016-2.7174-.06002-.16918-.22057-.28069-.39992-.28069h-1.0383c-.13509 0-.26296.06486-.34278.17388-.07974.10912-.10292.24856-.0621.37756.24634.7757.81398 2.2977 1.863 3.8452-1.2391 1.2046-2.4734 2.0747-2.9509 2.3945-.19003.1274-.2456.3823-.12419.57628l.52412.83461c.06041.0965.15688.16431.26826.18878.02991.0067.05929.0099.08942.0099.08217 0 .16392-.02389.2335-.06955.49174-.3232 1.7665-1.2066 3.1025-2.4864.49429.51514 1.6563 1.4193 2.3449 1.9201.10505.07642.23978.09996.36514.06458.12527-.03568.22883-.12826.27821-.2484l.3875-.95135c.07822-.1912.0062-.41045-.1689-.51915-.44868-.2783-1.2927-.84943-1.9822-1.5922 1.5137-1.7715 2.3759-3.5 2.5659-5.1368h.33533c.23396 0 .42227-.18821.42227-.42227v-1.1302c0-.23395-.18821-.42227-.42227-.42227h-3.3012v-.58125c0-.23406-.18821-.42476-.42227-.42476zm8.0306 1.3339c-.18628 0-.35038.12251-.40488.30056l-2.8118 9.1981c-.03945.12846-.01556.26681.06458.37508.07986.10784.20585.17139.34031.17139h1.4606c.19013 0 .35639-.12741.40736-.3105l.63094-2.2678h2.8764l.68309 2.2778c.05367.17934.22036.30056.40738.30056h1.55c.13489 0 .26306-.06334.34278-.17139.08-.10848.10217-.24899.0621-.37756l-2.8491-9.1956c-.0552-.17741-.21914-.30056-.40489-.30056zm1.0731 1.7015h.0273l1.1352 4.0687h-2.2231z" fill="#222" stroke-width=".10688"/></svg>