<svg height="64" width="64" xmlns="http://www.w3.org/2000/svg"><path d="m20 11c-2.700778.0033-5.158777 1.559897-6.316406 4h-2.683594c-3.8658331.000387-6.9996135 3.134167-7 7v18c.0003865 3.865833 3.1341669 6.999613 7 7h3.257812c1.308363 1.878784 3.452725 2.999104 5.742188 3h2.080078c.49693 3.440744 3.443482 5.995586 6.919922 6h6c3.477182-.0034 6.424838-2.558524 6.921875-6h2.078125c2.286701-.0034 4.427592-1.123479 5.734375-3h3.265625c3.865833-.000387 6.999613-3.134167 7-7v-18c-.000387-3.865833-3.134167-6.999613-7-7h-2.685547c-1.157326-2.439467-3.614381-3.995931-6.314453-4h-6c-2.460278.0034-4.738165 1.298107-6 3.410156-1.261835-2.112049-3.539722-3.406708-6-3.410156z" fill="#030303" opacity=".2" stroke-linecap="round" stroke-linejoin="round" stroke-width="14"/><path d="m20 10c-2.700778.0033-5.158777 1.559897-6.316406 4h-2.683594c-3.8658331.000387-6.9996135 3.134167-7 7v18c.0003865 3.865833 3.1341669 6.999613 7 7h3.257812c1.308363 1.878784 3.452725 2.999104 5.742188 3h2.080078c.49693 3.440744 3.443482 5.995586 6.919922 6h6c3.477182-.0034 6.424838-2.558524 6.921875-6h2.078125c2.286701-.0034 4.427592-1.123479 5.734375-3h3.265625c3.865833-.000387 6.999613-3.134167 7-7v-18c-.000387-3.865833-3.134167-6.999613-7-7h-2.685547c-1.157326-2.439467-3.614381-3.995931-6.314453-4h-6c-2.460278.0034-4.738165 1.298107-6 3.410156-1.261835-2.112049-3.539722-3.406708-6-3.410156z" fill="#f85b79" stroke-linecap="round" stroke-linejoin="round" stroke-width="14"/><path d="m11 22v4h6c0-1.333348 0-2.666652 0-4-2 0-3.999999 0-6 0z" opacity=".2"/><path d="m11 29v4h6c0-1.333348 0-2.666652 0-4-2 0-3.999999 0-6 0z" opacity=".2"/><path d="m11 36v4h6c0-1.333348 0-2.666652 0-4-2 0-3.999999 0-6 0z" opacity=".2"/><path d="m20 18v4h6c0-1.333348 0-2.666652 0-4-2 0-3.999998 0-6 0z" opacity=".2"/><path d="m20 25v4h6c0-1.333348 0-2.666652 0-4-2 0-3.999998 0-6 0z" opacity=".2"/><path d="m20 32v4h6c0-1.333348 0-2.666652 0-4-2 0-3.999998 0-6 0z" opacity=".2"/><path d="m20 39v4h6c0-1.333348 0-2.666652 0-4-2 0-3.999998 0-6 0z" opacity=".2"/><path d="m29 24v4h6c0-1.333348 0-2.666652 0-4-2 0-3.999998 0-6 0z" opacity=".2"/><path d="m29 31v4h6c0-1.333348 0-2.666652 0-4-2 0-3.999998 0-6 0z" opacity=".2"/><path d="m29 38v4h6c0-1.333348 0-2.666652 0-4-2 0-3.999998 0-6 0z" opacity=".2"/><path d="m29 45v4h6c0-1.333348 0-2.666652 0-4-2 0-3.999998 0-6 0z" opacity=".2"/><path d="m53 22v4c-2.000001 0-4 0-6 0 0-1.333348 0-2.666652 0-4z" opacity=".2"/><path d="m53 29v4c-2.000001 0-4 0-6 0 0-1.333348 0-2.666652 0-4z" opacity=".2"/><path d="m53 36v4c-2.000001 0-4 0-6 0 0-1.333348 0-2.666652 0-4z" opacity=".2"/><path d="m44 18v4c-2.000002 0-4 0-6 0 0-1.333348 0-2.666652 0-4z" opacity=".2"/><path d="m44 25v4c-2.000002 0-4 0-6 0 0-1.333348 0-2.666652 0-4z" opacity=".2"/><path d="m44 32v4c-2.000002 0-4 0-6 0 0-1.333348 0-2.666652 0-4z" opacity=".2"/><path d="m44 39v4c-2.000002 0-4 0-6 0 0-1.333348 0-2.666652 0-4z" opacity=".2"/><g fill="#fff"><path d="m20 17v4h6v-4zm18 0v4h6v-4zm-27 4v4h6v-4zm36 0v4h6v-4zm-18 2v4h6v-4zm-9 1v4h6v-4zm18 0v4h6v-4zm-27 4v4h6v-4zm36 0v4h6v-4zm-18 2v4h6v-4zm-9 1v4h6v-4zm18 0v4h6v-4zm-27 4v4h6v-4zm36 0v4h6v-4zm-18 2v4h6v-4zm-9 1v4h6v-4zm18 0v4h6v-4zm-9 6v4h6v-4z"/><path d="m20 10c-2.700778.0033-5.158777 1.559897-6.316406 4h-2.683594c-3.8658331.000387-6.9996135 3.134167-7 7v1c.0003865-3.865833 3.1341669-6.999613 7-7h2.683594c1.157629-2.440103 3.615628-3.9967 6.316406-4h6c2.460278.003448 4.738165 1.298107 6 3.410156 1.261835-2.112049 3.539722-3.406756 6-3.410156h6c2.700072.004069 5.157127 1.560533 6.314453 4h2.685547c3.865833.000387 6.999613 3.134167 7 7v-1c-.000387-3.865833-3.134167-6.999613-7-7h-2.685547c-1.157326-2.439467-3.614381-3.995931-6.314453-4h-6c-2.460278.0034-4.738165 1.298107-6 3.410156-1.261835-2.112049-3.539722-3.406708-6-3.410156z" opacity=".2" stroke-linecap="round" stroke-linejoin="round" stroke-width="14"/></g></svg>