<svg height="64" viewBox="0 0 64 64" width="64" xmlns="http://www.w3.org/2000/svg"><path d="m13 4c-1.662 0-3 1.338-3 3v50c0 1.662 1.338 3 3 3h38c1.662 0 3-1.338 3-3v-50c0-1.662-1.338-3-3-3z" opacity=".2"/><path d="m13 3c-1.662 0-3 1.338-3 3v50c0 1.662 1.338 3 3 3h38c1.662 0 3-1.338 3-3v-50c0-1.662-1.338-3-3-3z" fill="#3d65c2"/><path d="m13 3c-1.662 0-3 1.338-3 3v50c0 1.662 1.338 3 3 3h5v-56z" opacity=".2"/><path d="m32 12v10h-10v8h10v22h8v-22h10v-8h-10v-10z" opacity=".2"/><path d="m32 11h8v40h-8z" fill="#ffd972"/><path d="m21-50h8v28h-8z" fill="#ffd972" transform="rotate(90)"/><path d="m13 3c-1.662 0-3 1.338-3 3v1c0-1.662 1.338-3 3-3h38c1.662 0 3 1.338 3 3v-1c0-1.662-1.338-3-3-3z" fill="#fff" opacity=".1"/><path d="m63.958 45.848a16 16 0 0 1 -15.958 15.152 16 16 0 0 1 -15.958-14.848 16 16 0 0 0 -.042.848 16 16 0 0 0 16 16 16 16 0 0 0 16-16 16 16 0 0 0 -.042-1.152z" fill-rule="evenodd" opacity=".2"/><circle cx="48" cy="46" fill="#ff982d" fill-rule="evenodd" r="16"/><path d="m48 36c-5.522847 0-10 4.477153-10 10s4.477153 10 10 10 10-4.477153 10-10-4.477153-10-10-10zm0 2c4.418278 0 8 3.581722 8 8s-3.581722 8-8 8-8-3.581722-8-8 3.581722-8 8-8zm-1 2v5 2h2 5v-2h-5v-5z" fill="#fff"/></svg>