<svg enable-background="new 0 0 1024 1024" height="64" image-rendering="optimizeSpeed" viewBox="0 0 64 64" width="64" xmlns="http://www.w3.org/2000/svg" xmlns:xlink="http://www.w3.org/1999/xlink"><linearGradient id="a" gradientUnits="userSpaceOnUse" x1="32.50903" x2="32.5109368" y1="2.25418" y2="62.118166"><stop offset="0" stop-color="#212427"/><stop offset="1" stop-color="#333132"/></linearGradient><linearGradient id="b" gradientUnits="userSpaceOnUse" x1="29.565" x2="29.728" y1="11.048" y2="53.559"><stop offset="0" stop-color="#e7e7e7"/><stop offset="1" stop-color="#fff"/></linearGradient><filter id="c" color-interpolation-filters="sRGB" height="1.0962" width="1.1593" x="-.07966" y="-.048123"><feGaussianBlur stdDeviation=".79660366"/></filter><path d="m61.091 24.373c-.06992-.27648-.14936-.57204-.23199-.86441-.1589-.55615-.34004-1.1186-.53708-1.6748-.40996-1.16-.89937-2.2913-1.4714-3.41-.24153-.47034-.5053-.95022-.78178-1.4237h-.0016q-1.945-3.3057-4.8512-6.2129c-5.857-5.857-12.931-8.7871-21.216-8.7871s-15.356 2.9301-21.213 8.7871-8.7871 12.928-8.7871 21.213 2.9301 15.359 8.7871 21.216c4.3252 4.3252 9.3115 7.0519 14.93 8.1769 2.0307.40678 4.1155.60699 6.2829.60699 8.285 0 15.359-2.9269 21.216-8.7839 3.089-3.089 5.3644-6.5148 6.8231-10.284 1.0805-2.7934 1.7161-5.7712 1.9036-8.946.03814-.64831.0572-1.3125.0572-1.9862 0-2.6536-.29873-5.1865-.9089-7.6271z" fill="url(#a)" stroke-width=".9961"/><g stroke-width=".12778"><path d="m30.675 12.148c-.34202-.03921-.6934.01697-1.0162.17186-.64542.30976-1.056.96273-1.056 1.6787v13.37l-5.5716-4.5031c-.79941-.64624-1.9713-.52327-2.6177.27646-.6464.79957-.52062 1.9738.27896 2.6202l7.7211 6.2416-7.7211 6.2416c-.79957.6464-.92536 1.8181-.27896 2.6177.36793.45511.9068.68992 1.4496.68992.41111 0 .82366-.13498 1.1681-.41345l5.5716-4.5031v13.367c0 .71598.41062 1.369 1.056 1.6787.25631.12286.53074.18182.80449.18182.41567 0 .82883-.13847 1.1656-.40847l11.674-9.3599c.44077-.35343.69739-.88713.69739-1.4521 0-.56493-.25662-1.0988-.69739-1.4521l-8.9689-7.1906 8.9689-7.1906c.44077-.35343.69739-.88729.69739-1.4521 0-.56477-.25662-1.1013-.69739-1.4546l-11.674-9.3574c-.27929-.22389-.6119-.3593-.95393-.39851zm1.6488 5.7285 6.8394 5.482-6.8394 5.4795zm0 17.285 6.8394 5.482-6.8394 5.4795z" filter="url(#c)" opacity=".35"/><path d="m30.675 12.148c-.34202-.03921-.6934.01697-1.0162.17186-.64542.30976-1.056.96273-1.056 1.6787v13.37l-5.5716-4.5031c-.79941-.64624-1.9713-.52327-2.6177.27646-.6464.79957-.52062 1.9738.27896 2.6202l7.7211 6.2416-7.7211 6.2416c-.79957.6464-.92536 1.8181-.27896 2.6177.36793.45511.9068.68992 1.4496.68992.41111 0 .82366-.13498 1.1681-.41345l5.5716-4.5031v13.367c0 .71598.41062 1.369 1.056 1.6787.25631.12286.53074.18182.80449.18182.41567 0 .82883-.13847 1.1656-.40847l11.674-9.3599c.44077-.35343.69739-.88713.69739-1.4521 0-.56493-.25662-1.0988-.69739-1.4521l-8.9689-7.1906 8.9689-7.1906c.44077-.35343.69739-.88729.69739-1.4521 0-.56477-.25662-1.1013-.69739-1.4546l-11.674-9.3574c-.27929-.22389-.6119-.3593-.95393-.39851zm1.6488 5.7285 6.8394 5.482-6.8394 5.4795zm0 17.285 6.8394 5.482-6.8394 5.4795z" fill="url(#b)"/></g></svg>