<svg height="64" width="64" xmlns="http://www.w3.org/2000/svg"><path d="m12.400552 10.99681c-1.439401.525132 3.464318 9.601113 2.280994 10.263622-2.0614.822282-4.68109 1.73729-4.68109 1.73729v14.001063s9.124725 1.183722 16.001215 2.000152c1.378479.164232-22.0016705 14.001063-22.0016705 14.001063 6.9290795.001748 77.4355225-18.592662 49.4728615-31.762456-4.803359-2.55691-11.854389-4.230625-19.712761-4.230625-3.948492 0-7.577088.465879-10.793186 1.195685-1.54746.351154-9.220557-7.696735-10.56619-7.205794z" opacity=".2"/><path d="m12.400552 9.9966579c-1.439401.5251331 3.464318 9.6011141 2.280994 10.2636221-2.0614.822282-4.68109 1.73729-4.68109 1.73729v14.001063s9.124725 1.183722 16.001215 2.000152c1.378479.164232-22.0016705 14.001063-22.0016705 14.001063 6.9290795.001748 77.4355225-18.592662 49.4728615-31.762456-4.803359-2.55691-11.854389-4.230625-19.712761-4.230625-3.948492 0-7.577088.465878-10.793186 1.195685-1.54746.351154-9.220557-7.6967346-10.56619-7.2057941z" fill="#43c4c4"/><path d="m10.000456 22.997722v-2.000152h-6.0004555v18.001367h6.0004555v-2.000152c12.014923-2.022642 18.142538-4.557652 18.001367-7.087158-.137896-2.47076-6.265508-4.936267-18.001367-6.913905z" opacity=".2"/><path d="m10.000456 21.99757v-2.000152h-6.0004555v18.001367h6.0004555v-2.000152c12.014923-2.022642 18.142538-4.557652 18.001367-7.087158-.137896-2.47076-6.265508-4.936267-18.001367-6.913905z" fill="#a9dde4"/><path d="m46.085229 18.49738c-.03958.318592-.08057.649191-.08205.898506.003 4.580624 6.08355 7.177303 13.856521 7.590421-.51414-1.978103-2.495867-3.917706-6.3872-5.750437-.543756-.289452-1.123514-.562521-1.722787-.828189-.424456-.186374-.869658-.361943-1.320412-.535197-.154132-.06-.303908-.121289-.460973-.179693-.594478-.218257-1.206446-.425923-1.839976-.621149-.66174-.203918-1.343626-.396459-2.043123-.574262z" opacity=".2"/><path d="m46.085229 17.497228c-.03958.318593-.08056.649191-.08204.898506.003 4.580624 6.08355 7.177303 13.856521 7.590421-.514143-1.978103-2.49587-3.917706-6.387203-5.750437-.543756-.289452-1.123514-.562521-1.722787-.828189-.424456-.186374-.869658-.361943-1.320412-.535197-.154132-.06-.303908-.121289-.460973-.179693-.594486-.218257-1.206454-.425923-1.839984-.621149-.66174-.203919-1.343626-.396459-2.043122-.574262z" fill="#a9dde4"/><g fill="#fff"><path d="m12.400391 9.9960938c-.285108.1040152-.315237.5521752-.199219 1.1953122.043442-.095482.109256-.162491.199219-.195312 1.345633-.490941 9.018946 7.558185 10.566406 7.207031 3.216098-.729807 6.844477-1.195313 10.792969-1.195313 7.858372.000001 14.909531 1.673559 19.71289 4.230469 4.264446 2.00846 6.229413 4.142771 6.488282 6.31836.290906-2.520421-1.571729-5.002772-6.488282-7.31836-4.803359-2.55691-11.854518-4.232422-19.71289-4.232422-3.948492 0-7.576871.467459-10.792969 1.197266-1.54746.351154-9.220773-7.6979718-10.566406-7.2070312zm2.390625 10.1425782c-.028509.051352-.06265.094934-.109375.121094-2.0614.822282-4.681641 1.738281-4.681641 1.738281v1s2.620241-.915999 4.681641-1.738281c.218121-.12212.227045-.53349.109375-1.121094zm10.316406 18.75c-4.060116 3.018324-21.107422 13.111328-21.107422 13.111328.438522.000111 1.138187-.075984 2.0449219-.21875 4.8368711-2.879248 21.1414211-12.642095 19.9570311-12.783203-.290662-.03451-.596694-.07367-.894531-.109375z" opacity=".1"/><path d="m4 19.998047v1h6v-1zm6 2v1c11.061215 1.863952 17.136223 4.161627 17.914062 6.488281.061271-.19172.0986-.382336.087891-.574219-.137896-2.47076-6.266094-4.936424-18.001953-6.914062z" opacity=".1"/></g></svg>