<svg height="64" width="64" xmlns="http://www.w3.org/2000/svg"><path d="m4 56v2c0 1.662 1.338 3 3 3h50c1.662 0 3-1.338 3-3v-2c0 1.662-1.338 3-3 3h-50c-1.662 0-3-1.338-3-3z" opacity=".2"/><rect fill="#e75177" height="56" rx="3" transform="matrix(0 -1 -1 0 0 0)" width="56" x="-60" y="-60"/><path d="m7 4c-1.662 0-3 1.338-3 3v1c0-1.662 1.338-3 3-3h50c1.662 0 3 1.338 3 3v-1c0-1.662-1.338-3-3-3z" fill="#fff" opacity=".1"/><path d="m32 14.9992a18 18 0 0 0 -6 1.0508v22.95c0 1.108-.892 2-2 2s-2-.892-2-2v-20.95a18 18 0 0 0 -8 14.95 18 18 0 0 0 18 18 18 18 0 0 0 18-18 18 18 0 0 0 -18-18zm-1.114 10a.87504.90146 0 0 1 .418.118l6.126 3.546 6.124 3.55a.87504.90146 0 0 1 0 1.572l-6.124 3.55-6.126 3.546a.87504.90146 0 0 1 -1.304-.784v-14.196a.87504.90146 0 0 1 .886-.902z" opacity=".2"/><path d="m32 14a18 18 0 0 0 -6 1.0508v22.95c0 1.108-.892 2-2 2s-2-.892-2-2v-20.95a18 18 0 0 0 -8 14.95 18 18 0 0 0 18 18 18 18 0 0 0 18-18 18 18 0 0 0 -18-18zm-1.114 10a.87504.90146 0 0 1 .418.118l6.126 3.546 6.124 3.55a.87504.90146 0 0 1 0 1.572l-6.124 3.55-6.126 3.546a.87504.90146 0 0 1 -1.304-.784v-14.196a.87504.90146 0 0 1 .886-.902z" fill="#fff"/></svg>