<svg height="64" width="64" xmlns="http://www.w3.org/2000/svg"><path d="m61.96 31.828a30 30 0 0 1 -29.96 29.172 30 30 0 0 1 -29.96-28.828 30 30 0 0 0 -.04.828 30 30 0 0 0 30 30 30 30 0 0 0 30-30 30 30 0 0 0 -.04-1.172z" opacity=".2"/><path d="m62 32a30 30 0 0 1 -30 30 30 30 0 0 1 -30-30 30 30 0 0 1 30-30 30 30 0 0 1 30 30z" fill="#4f4f4f"/><path d="m31.8 13.000129c-1.43382.0046-2.8706.1591-4.2762.471-5.0598 1.12264-9.437 4.22-12.5674 8.893-1.32948 1.9846-2.5346 4.742-2.5346 5.7994 0 .90414 1.0471 1.37136 1.74914.7804.16186-.13626.32518-.3899.36302-.56366.35598-1.63502 1.61136-4.092 3.0666-6.0016 1.21396-1.5931 3.4412-3.6048 5.1594-4.6598 5.3674-3.296 12.6962-3.363 18.0976-.16528 3.3838 2.0032 6.1504 5.328 7.7726 9.3402.35228.87128.9303 2.7806.9303 3.0732 0 .08416-.51812-.35848-1.1514-.98366-1.37812-1.3605-1.51544-1.45802-2.0536-1.45802-.59498 0-1.00972.3829-1.07882.99622-.0279.2479-.012.51982.03522.60426.10062.17984 4.4758 4.6066 4.823 4.8798.35004.27546 1.0022.24806 1.36514-.05748.48094-.40484.54606-.69588.47892-2.1402-.25-5.388-3.622-11.4958-8.27-14.9824-3.332-2.5004-7.608-3.8388-11.908-3.8256zm-19.7988 19.7292.05894 1.39248c.10046 2.374.7694 4.8158 2.0196 7.3722 2.5212 5.1556 6.6558 8.8838 11.674 10.5262 1.45408.47588 2.5198.6979 4.4534.92792.83178.09894 3.492.04862 4.527-.08562 5.8778-.7624 11.0712-4.1562 14.5148-9.485 1.11474-1.725 2.2034-4.2246 2.339-5.3702.05296-.44776.03546-.49772-.29-.82328-.29158-.29168-.4138-.34616-.7726-.34432-.66888.003-.83164.19772-1.27158 1.51776-1.50558 4.5174-5.1508 8.659-9.4542 10.7418-3.4864 1.6874-7.4662 2.1582-11.4544 1.35464-4.5276-.9122-8.448-3.667-11.147-7.8326-1.01616-1.5684-2.0764-3.924-2.4706-5.4896-.089-.35-.1858-.726-.216-.834-.03-.108.544.394 1.2756 1.116l1.33038 1.3116.50206-.04822c.6844-.066.9846-.368 1.0508-1.056l.0486-.508-2.5388-2.54-2.5386-2.54s-.4824-.32244-1.07758-.05686c-.59518.26556-.56362.75196-.56362.75196z" opacity=".2"/><path d="m31.998047 2a30 30 0 0 0 -29.998047 30 30 30 0 0 0 .0175781.511719 30 30 0 0 1 29.9804689-29.511719h.001953a30 30 0 0 1 29.974609 29.511719 30 30 0 0 0 .023438-.511719 30 30 0 0 0 -29.998047-30z" fill="#fff" opacity=".1"/><path d="m31.8 12.0002c-1.43382.0046-2.8706.1591-4.2762.471-5.0598 1.12264-9.437 4.22-12.5674 8.893-1.32948 1.9846-2.5346 4.742-2.5346 5.7994 0 .90414 1.0471 1.37136 1.74914.7804.16186-.13626.32518-.3899.36302-.56366.35598-1.63502 1.61136-4.092 3.0666-6.0016 1.21396-1.5931 3.4412-3.6048 5.1594-4.6598 5.3674-3.296 12.6962-3.363 18.0976-.16528 3.3838 2.0032 6.1504 5.328 7.7726 9.3402.35228.87128.9303 2.7806.9303 3.0732 0 .08416-.51812-.35848-1.1514-.98366-1.37812-1.3605-1.51544-1.45802-2.0536-1.45802-.59498 0-1.00972.3829-1.07882.99622-.0279.2479-.012.51982.03522.60426.10062.17984 4.4758 4.6066 4.823 4.8798.35004.27546 1.0022.24806 1.36514-.05748.48094-.40484.54606-.69588.47892-2.1402-.25-5.388-3.622-11.4958-8.27-14.9824-3.332-2.5004-7.608-3.8388-11.908-3.8256zm-19.7988 19.7292.05894 1.39248c.10046 2.374.7694 4.8158 2.0196 7.3722 2.5212 5.1556 6.6558 8.8838 11.674 10.5262 1.45408.47588 2.5198.6979 4.4534.92792.83178.09894 3.492.04862 4.527-.08562 5.8778-.7624 11.0712-4.1562 14.5148-9.485 1.11474-1.725 2.2034-4.2246 2.339-5.3702.05296-.44776.03546-.49772-.29-.82328-.29158-.29168-.4138-.34616-.7726-.34432-.66888.003-.83164.19772-1.27158 1.51776-1.50558 4.5174-5.1508 8.659-9.4542 10.7418-3.4864 1.6874-7.4662 2.1582-11.4544 1.35464-4.5276-.9122-8.448-3.667-11.147-7.8326-1.01616-1.5684-2.0764-3.924-2.4706-5.4896-.089-.35-.1858-.726-.216-.834-.03-.108.544.394 1.2756 1.116l1.33038 1.3116.50206-.04822c.6844-.066.9846-.368 1.0508-1.056l.0486-.508-2.5388-2.54-2.5386-2.54s-.4824-.32244-1.07758-.05686c-.59518.26556-.56362.75196-.56362.75196z" fill="#5cd1ff"/></svg>