<svg enable-background="new 0 0 1024 1024" height="64" image-rendering="optimizeSpeed" viewBox="0 0 64 64" width="64" xmlns="http://www.w3.org/2000/svg" xmlns:xlink="http://www.w3.org/1999/xlink"><linearGradient id="a" gradientTransform="matrix(3.7796 0 0 3.4646 185.86 28.542)" gradientUnits="userSpaceOnUse" x1="-48.646" x2="-32.772" y1="-3.0915" y2="9.574"><stop offset="0" stop-color="#26b4eb"/><stop offset="1" stop-color="#017adc"/></linearGradient><filter id="b" color-interpolation-filters="sRGB" height="1.1654" width="1.3658" x="-.18292" y="-.08269"><feGaussianBlur stdDeviation=".12760554"/></filter><path d="m62 17.831h-60.001v41.13c0 1.5234 1.2266 2.75 2.75 2.75h54.502c1.5235 0 2.75-1.2266 2.75-2.75z" fill="url(#a)" stroke-width="3.6187"/><path d="m4.7489 6.7121c-1.5234 0-2.75 1.2266-2.75 2.75v8.3692h60.001v-8.3692c0-1.5234-1.2266-2.75-2.75-2.75z" fill="#056abe" stroke-width="3.6187"/><g fill="#fff" stroke-width="3.7796"><path d="m10.447 47.503h6.9998v6.9998h-6.9998z"/><path d="m22.561 47.503h6.9998v6.9998h-6.9998z"/><path d="m34.675 47.503h6.9998v6.9998h-6.9998z"/></g><rect filter="url(#b)" height="3.7036" opacity=".3" ry=".83713" transform="matrix(3.8764 0 0 2.8581 60.152 -95.865)" width="1.6743" x="-13.08" y="35.909"/><rect fill="#2ecef2" height="13.998" ry="3.164" stroke-width="3.7796" width="6.3282" x="9.5138" y="2.2891"/><rect filter="url(#b)" height="3.7036" opacity=".3" ry=".83713" transform="matrix(3.8764 0 0 2.8581 98.761 -95.865)" width="1.6743" x="-13.08" y="35.909"/><rect fill="#2ecef2" height="13.998" ry="3.164" stroke-width="3.7796" width="6.3282" x="48.159" y="2.2891"/><text style="fill:#fff;font-family:Hack;font-size:19.331;font-weight:bold;image-rendering:optimizeSpeed;letter-spacing:0;stroke-width:.48326;word-spacing:0" x="8.993059" y="43.38129"><tspan fill="#fff" font-family="Hack" font-size="19.331" font-weight="bold" stroke-width=".48326" x="8.993059" y="43.38129">15</tspan></text></svg>