<svg height="64" width="64" xmlns="http://www.w3.org/2000/svg" xmlns:xlink="http://www.w3.org/1999/xlink"><filter id="a" color-interpolation-filters="sRGB" height="1.0831" width="1.216" x="-.10802" y="-.041536"><feGaussianBlur stdDeviation=".36005859"/></filter><filter id="b" color-interpolation-filters="sRGB" height="1.156" width="1.0975" x="-.048751" y="-.077997"><feGaussianBlur stdDeviation=".65001616"/></filter><linearGradient id="c" gradientUnits="userSpaceOnUse" x1="31.7108" x2="31.7108" y1="5.4915" y2="61.9515"><stop offset="0" stop-color="#ff4b00"/><stop offset="1" stop-color="#f50f2d"/></linearGradient><circle cx="32" cy="32" fill="url(#c)" r="30"/><circle cx="-1248.7" cy="-1241.6" fill="#5e4aa6" r="0"/><g transform="translate(-92.271 .49523)"><path d="m107.86 6.6367a30 30 0 0 0 -8 7.4238v13.381l4-3.4648 4 3.4648v-20.805z" filter="url(#a)" opacity=".15" stroke-width=".8165"/><path d="m107.86 6.3833c-3.0982 1.9646-5.8097 4.7343-8 7.6772v13.381l4-3.4648 4 3.4648v-21.058z" fill="#fff" stroke-width=".8165"/><g stroke-width="3.1999"><path d="m123.86 22c-3.1016.0304-6.2239.73887-8.9256 2.27-1.0768.70139-2.3695 1.6073-3.3436 2.52-1.5328 1.5008-2.8447 3.2511-3.7311 5.2127 2.4298 5.3602 7.7717 9.2888 13.648 9.8692 3.8546.43634 7.8888-.22972 11.277-2.1371 1.0768-.70139 2.3695-1.6073 3.3436-2.52 1.5328-1.504 2.8447-3.2543 3.7311-5.2127-2.4288-5.3599-7.7726-9.2894-13.648-9.8686-.78078-.0928-1.568-.1344-2.352-.1344zm0 4.0009c3.214-.0712 6.0604 2.8042 5.9999 6.0012.10301 3.5334-3.4179 6.5829-6.8984 5.9231-3.5151-.41273-5.9842-4.3564-4.8281-7.6968.73918-2.4576 3.1519-4.2559 5.7279-4.2271zm0 4.0009a2 2.0004 0 0 0 -2 2.0032 2 2.0004 0 0 0 2 2 2 2.0004 0 0 0 2-2 2 2.0004 0 0 0 -2-2z" filter="url(#b)" opacity=".15"/><path d="m123.86 22c-3.1016.0304-6.2239.73887-8.9256 2.27-1.0768.70139-2.3695 1.6073-3.3436 2.52-1.5328 1.5008-2.8447 3.2511-3.7311 5.2127 2.4298 5.3602 7.7717 9.2888 13.648 9.8692 3.8546.43634 7.8888-.22972 11.277-2.1371 1.0768-.70139 2.3695-1.6073 3.3436-2.52 1.5328-1.504 2.8447-3.2543 3.7311-5.2127-2.4288-5.3599-7.7726-9.2894-13.648-9.8686-.78078-.0928-1.568-.1344-2.352-.1344zm0 4.0009c3.214-.0712 6.0604 2.8042 5.9999 6.0012.10301 3.5334-3.4179 6.5829-6.8984 5.9231-3.5151-.41273-5.9842-4.3564-4.8281-7.6968.73918-2.4576 3.1519-4.2559 5.7279-4.2271zm0 4.0009a2 2.0004 0 0 0 -2 2.0032 2 2.0004 0 0 0 2 2 2 2.0004 0 0 0 2-2 2 2.0004 0 0 0 -2-2z" fill="#fff"/></g></g><g fill="#5e4aa6" stroke-width="1.000006568"><circle cx="-1349.414248" cy="-1228.332396" r="0"/><circle cx="-1241.053116" cy="-1288.503628" r="0"/><circle cx="-1079.664196" cy="-1302.979496" r="0"/><circle cx="19.8063256" cy="-37.5013832" fill-rule="evenodd" r="0"/><circle cx="-1073.163284" cy="-1312.01274" r="0"/><circle cx="26.3261356" cy="-46.5119496" fill-rule="evenodd" r="0"/></g></svg>