<svg height="64" width="64" xmlns="http://www.w3.org/2000/svg" xmlns:xlink="http://www.w3.org/1999/xlink"><linearGradient id="a" gradientUnits="userSpaceOnUse" x1="505.072027" x2="505.072027" y1="372.39052102" y2="709.588204"><stop offset="0" stop-color="#8db6ff"/><stop offset="1" stop-color="#59f"/></linearGradient><linearGradient id="b" gradientUnits="userSpaceOnUse" x1="587.225" x2="587.225" y1="291.0731" y2="965.543"><stop offset="0" stop-color="#76a7f6"/><stop offset="1" stop-color="#a2c2f8"/></linearGradient><linearGradient id="c" gradientUnits="userSpaceOnUse" x1="519.963533" x2="519.963533" y1="313.25327523" y2="771.45435"><stop offset="0" stop-color="#fff"/><stop offset="1" stop-color="#d7d7d7"/></linearGradient><filter id="d" color-interpolation-filters="sRGB" height="1.072" width="1.072" x="-.036" y="-.036"><feGaussianBlur stdDeviation="6.5097789"/></filter><linearGradient id="e" gradientUnits="userSpaceOnUse" x1="41" x2="982" y1="540.86" y2="540.86"><stop offset="0" stop-color="#649af5"/><stop offset="1" stop-color="#4b8af5"/></linearGradient><linearGradient id="f" gradientUnits="userSpaceOnUse" x1="117.05" x2="926.95" y1="326.33" y2="326.33"><stop offset="0" stop-color="#3b6bd4"/><stop offset="1" stop-color="#668bde"/></linearGradient><g stroke-width="15.683" transform="matrix(.063762 0 0 .063762 -.61424 -2.48)"><circle cx="511.5" cy="540.86" fill="url(#e)" r="470.5"/><path d="m813.41 151.74c-96.726 23.032-554.17 136.45-300.14 163.91 283.05 30.6 175.31 317.47 175.31 317.47l-207.26 348.37a470.5 470.5 0 0 0 30.168 1.5098 470.5 470.5 0 0 0 470.5-470.5 470.5 470.5 0 0 0 -168.59-360.76z" fill="url(#b)" transform="translate(0 28.362)"/><path d="m511.5 42a470.5 470.5 0 0 0 -394.45 214.82l210.35 353.84s-5.6338-170.45 8.4531-187.36c14.087-16.904 83.113-81.703 83.113-81.703l94.381-28.174-5.1055-18.312 418.71-2.7539a470.5 470.5 0 0 0 -415.46-250.36z" fill="url(#f)" transform="translate(0 28.362)"/><circle cx="512" cy="550.36" fill="#111" filter="url(#d)" opacity=".2" r="216.99"/><circle cx="512" cy="540.36" fill="url(#c)" r="216.99"/><circle cx="512" cy="540.36" fill="url(#a)" r="171.91"/></g></svg>