<svg height="64" width="64" xmlns="http://www.w3.org/2000/svg"><ellipse cx="32" cy="32.001" fill="#ccc" rx="23.999" ry="19.999"/><path d="m20.09 5.4805-6.09 3.2187v1l7-3.6992zm-6.09 1.1191c-4.6392 0-8.5 3.7614-8.5 8.4004 0 .165.018.326.0273.488.2726-4.399 4.0062-7.8884 8.4727-7.8884zm9.086 1.25c-.148.6809-.029 1.416.6 1.875 1.613 1.4364 2.654 3.4894 2.787 5.7874.01-.17.027-.339.027-.512 0-2.495-1.087-4.737-2.814-6.2754-.32-.2335-.507-.5412-.6-.875zm-21.059 7.6114c-.0082.18-.0273.357-.0273.539 0 3.95 1.926 7.451 4.8887 9.615 1.1135.722 2.3926-1.086 2.0312-2.447-.2416 1.072-1.1817 1.998-2.0312 1.447-2.8457-2.079-4.7166-5.395-4.8614-9.154zm27.946.078c-.289 6.32-5.583 11.361-11.973 11.361v1c6.572 0 12-5.328 12-11.9 0-.156-.021-.306-.027-.461zm-18.063 9.981-.91.48 7 4v-1z" opacity=".2" transform="matrix(1.9999785702 0 0 1.9999785702 .0006418553 1.0006428553)"/><path d="m22.143 4v3c-9.389 0-17.143 7.611-17.143 17 0 5.6431 2.75 10.644 6.9824 13.736 1.9893 1.2887 4.3615-3.0761 2.0391-4.7715-2.468-2.197-4.022-5.399-4.022-8.964 0-6.627 5.515-12 12.143-12v3l10-5.2857z" fill="#9ccd44" transform="matrix(1.399957 0 0 1.399957 -2.999326 -1.598048)"/><path d="m37.264 10.029c-1.7552-.0047-3.3173 3.5224-1.2852 5.0059 2.467 2.198 4.021 5.4 4.021 8.965 0 6.627-5.515 12-12.143 12v-3l-10 5.2857 10 5.7143v-3c9.389 0 17.143-7.611 17.143-17 0-5.643-2.75-10.644-6.982-13.736-.249-.161-.504-.234-.754-.235z" fill="#5db43e" transform="matrix(1.399957 0 0 1.399957 -2.999324 -1.598047)"/><path d="m28 4.0019531v1l13.089844 7.4804689.910156-.480469zm0 4.1992188c-13.144258 0-24 10.6553701-24 23.7988281 0 .101791.0110319.200782.0175781.300781.378233-12.818828 11.0729729-23.0996091 23.9824219-23.0996091zm21.167969 4.2421871c-1.782406-.004619-3.410423 2.589248-3.087891 4.808594.184552-1.929632 1.569649-3.812581 3.087891-3.808594.351995.001.70669.102534 1.054687.328125 5.768537 4.213779 9.559845 10.963059 9.757813 18.605469.00672-.124876.019531-.248384.019531-.375 0-7.899914-3.851407-14.901715-9.777344-19.230469-.347997-.225596-.702692-.327125-1.054687-.328125z" fill="#fff" opacity=".1" transform="matrix(.99999999477 0 0 .99999999477 -.00000072496 .00000011559)"/></svg>