<svg height="64" width="64" xmlns="http://www.w3.org/2000/svg"><path d="m5.9768 27.704c-.2086 5.4059 1.288 9.4519 4.3437 12.386.0468.48999.1168.98199.1678 1.472.0106-.074.0278-.148.0352-.222.002-.032.0098-.062.0118-.094.088-1.052-.1142-2.104-.2148-3.156-2.6667-2.56-4.1428-5.97-4.3432-10.386zm52.073.59199c-.196 3.9319-1.656 7.0779-4.3539 9.5199-.092 1.272-.39999 2.542-.188 3.8119.064-.60399.144-1.208.188-1.812 3.142-2.842 4.6219-6.6319 4.3539-11.52zm-8.6559 19.138c-.054.46799-.024 1.064.204 1.972.046.186.114.354.18.51999.40799.52999.86799 1.096 1.472 1.742 3.4999 3.7339 8.7499 0 8.7499-1.868 0-.54999-.172-.76999-.47599-.90999-1.328 1.848-5.3779 3.8659-8.2739.77799-.79199-.84399-1.382-1.582-1.856-2.234zm-34.783.004c-.2336.322-.49519.65799-.80079 1.026-.309.37599-.65759.77599-1.0586 1.204-.2188.234-.44499.43599-.67579.61399-.46139.354-.94099.59999-1.4296.75799-2.503.80599-5.1583-.72399-6.1835-2.154-.3022.142-.46099.366-.46099.91399 0 1.518 3.4675 4.2639 6.6445 3.24.48859-.158.96819-.40399 1.4296-.75799.2308-.178.45699-.38.67579-.61399.40099-.42799.74959-.82799 1.0586-1.204.16-.192.2804-.35999.41799-.53799.066-.166.129-.334.1758-.51999.2276-.90599.2604-1.5.207-1.968zm17.39 2.23c0 5.5999-5.2499 9.3319-10.5 9.3319-.72799 0-1.18-.088-1.492-.226-.734 1.412-.935 2.226 1.492 2.226 5.25 0 10.5-3.732 10.5-9.332 0 5.6 5.25 9.332 10.5 9.332 2.426 0 2.228-.81399 1.496-2.226-.312.138-.76599.226-1.496.226-5.2499 0-10.5-3.7319-10.5-9.3319zm-10.968 5.0819c-2.9398 2.576-8.2545 2.504-10.032.51999-.0362-.04-.0376-.066-.0704-.106-.62179.53399-.83179 1.098.0704 2.106 1.5188 1.694 5.6105 1.978 8.6053.42199.2264-.72199.88259-1.712 1.4266-2.942zm21.94 0c.54399 1.23 1.196 2.22 1.422 2.942 2.996 1.556 7.0879 1.272 8.6059-.42199.90399-1.01.69599-1.576.07-2.11-.034.04-.032.068-.07.11-1.778 1.984-7.0879 2.056-10.028-.51999z" opacity=".2"/><path d="m31.88 4.0008c-10.728 0-22.876 8.9247-25.516 18.804-1.2425 7.4361.2046 12.683 3.9577 16.286.1006 1.0518.30142 2.1036.21328 3.1554-.002.031-.008.062-.01.093-.02.1978-.05.39553-.0958.59335-.02.0808-.0498.1626-.0738.24336-.044.1504-.0872.30072-.1504.45115-.0528.125-.1292.24954-.1968.37462-.062799.1166-.1146.23332-.1914.35-.1578.23888-.34206.47751-.56601.71639-.87499.93331-1.6406 1.5157-2.2968 1.8949-1.9687 1.1372-2.9532.43749-2.9532 1.8375 0 1.5166 3.4647 4.2649 6.6417 3.2402.48875-.1576.97137-.40287 1.4328-.75741.23072-.1772.45665-.38189.67539-.61523.40103-.42777.74925-.82757 1.0582-1.2031.3056-.36816.56489-.70627.79843-1.0281.0534.46897.0226 1.0627-.20508 1.9687-.90585 3.6061-5.6953 3.3026-3.4016 5.8623 1.7774 1.9835 7.0905 2.0602 10.029-.51679-1.1715 2.6564-2.9524 4.2491.47031 4.2491 5.2499 0 10.5-3.7323 10.5-9.3323 0 5.5999 5.2499 9.3323 10.5 9.3323 3.4228 0 1.6418-1.5928.47031-4.2491 2.939 2.577 8.2521 2.5004 10.029.51679 2.294-2.5598-2.4956-2.2564-3.4016-5.8623-.22798-.90755-.25894-1.5021-.20508-1.9715.47399.65333 1.0651 1.3897 1.8566 2.234 3.502 3.734 8.752 0 8.752-1.867 0-1.8667-1.75.0009-5.2499-3.7323-1.9533-2.0836-1.2066-4.1671-1.0554-6.2507 4.0493-3.6621 5.3715-8.8701 3.7005-16.012-3.727-10.589-14.788-18.804-25.515-18.804z" fill="#fecd38"/><ellipse cx="22" cy="22" opacity=".2" rx="4" ry="5"/><ellipse cx="22" cy="21.001" fill="#fff" rx="4" ry="5"/><ellipse cx="42" cy="22" opacity=".2" rx="4" ry="5"/><ellipse cx="24" cy="21.001" fill="#3f3f3f" rx="2" ry="3"/><ellipse cx="43.9" cy="20.801" fill="#3f3f3f" rx="2.1" ry="2.8"/><ellipse cx="42" cy="21.001" fill="#fff" rx="4" ry="5"/><ellipse cx="44" cy="21.001" fill="#3f3f3f" rx="2" ry="3"/><path d="m31.879 4c-10.728 0-22.876 8.926-25.516 18.805-.3285 1.967-.4643 3.778-.4235 5.449.0245-1.39.1594-2.867.4238-4.449 2.6399-9.879 14.788-18.803 25.516-18.803v-.002c10.728 0 21.789 8.216 25.516 18.805.433 1.851.661 3.57.697 5.168.057-1.874-.173-3.925-.697-6.168-3.727-10.589-14.788-18.805-25.516-18.805zm21.572 38.113c-.091 1.319.063 2.637 1.299 3.955 3.043 3.246 4.761 2.261 5.158 3.174.055-.154.092-.303.092-.441 0-1.867-1.75.001-5.25-3.733-.923-.984-1.234-1.97-1.299-2.955zm-42.916.094c-.001.013.001.026 0 .039-.002.031-.008.061-.01.092-.02.198-.05.396-.095.594-.02.08-.051.163-.075.244-.044.15-.087.301-.15.451-.053.125-.13.25-.197.375-.063.117-.1148.233-.1916.35-.1578.238-.3405.477-.5644.716-.875.934-1.6408 1.516-2.2969 1.895-1.9687 1.137-2.9531.438-2.9531 1.838 0 .142.0395.297.0976.457.281-.656 1.2262-.354 2.8555-1.295.6561-.379 1.4219-.961 2.2969-1.895.2239-.239.4066-.478.5644-.716.0768-.117.1286-.233.1916-.35.067-.125.144-.25.197-.375.063-.15.106-.301.15-.451.024-.081.055-.164.075-.244.045-.198.075-.394.095-.592.002-.031.008-.063.01-.094.029-.346.02-.693 0-1.039zm38.858 7.227c-.054.469-.023 1.065.205 1.972.642 2.557 3.226 3.15 3.865 4.19.91-1.861-3.048-1.94-3.865-5.192-.092-.363-.131-.645-.166-.92-.012-.016-.028-.035-.039-.05zm-34.786.004c-.011.015-.026.033-.037.048-.035.275-.077.556-.168.918-.817 3.254-4.7783 3.331-3.865 5.194.636-1.041 3.223-1.633 3.865-4.192.228-.906.259-1.5.205-1.968zm6.424 7.312c-.248.218-.52.411-.799.592-.545 1.019-.943 1.783-.578 2.22.26-.71.866-1.652 1.377-2.812zm21.94 0c.511 1.16 1.117 2.102 1.377 2.812.364-.438-.032-1.202-.577-2.22-.279-.181-.551-.373-.8-.592z" fill="#fff" opacity=".2"/></svg>