<svg height="64" width="64" xmlns="http://www.w3.org/2000/svg" xmlns:xlink="http://www.w3.org/1999/xlink"><linearGradient id="a" gradientUnits="userSpaceOnUse" x1="28.74" x2="44.000126" y1="42.2756" y2="42.2756"><stop offset="0" stop-color="#ff8a14"/><stop offset="1" stop-color="#ffb814"/></linearGradient><linearGradient id="b" gradientUnits="userSpaceOnUse" x1="29.495581" x2="29.495581" y1="58.722183" y2="44.837208"><stop offset="0" stop-color="#14d571"/><stop offset="1" stop-color="#14a844"/></linearGradient><linearGradient id="c" gradientUnits="userSpaceOnUse" x1="12.632504" x2="21.859585" y1="56.577194" y2="47.89909"><stop offset="0" stop-color="#32a8ff"/><stop offset="1" stop-color="#328dff"/></linearGradient><linearGradient id="d" gradientUnits="userSpaceOnUse" x1="16.181816" x2="17.670984" y1="22.688011" y2="35.054314"><stop offset="0" stop-color="#ff4051"/><stop offset="1" stop-color="#ff4436"/></linearGradient><linearGradient id="e" gradientUnits="userSpaceOnUse" x1="3.999474" x2="16.113785" y1="37.7144" y2="42.378883"><stop offset="0" stop-color="#bf43f4"/><stop offset="1" stop-color="#8b35be"/></linearGradient><linearGradient id="f" gradientUnits="userSpaceOnUse" x1="24.173315" x2="41.6446" y1="31.893959" y2="27.121"><stop offset="0" stop-color="#ff685a"/><stop offset="1" stop-color="#ff7f1c"/></linearGradient><g stroke-width=".74074" transform="matrix(1.3749776 0 0 1.3749776 -.999187 -22.999104)"><circle cx="24" cy="40" fill="#33393e" r="19.259001"/><g stroke-width=".74074"><g><path d="m27.64 20.379-4.7684 13.484 18.773-3.1379c-2.7815-5.306-7.9062-9.2044-14.009-10.346" fill="url(#f)"/><path d="m42.879 33.664-14.139 2.6401 12.125 14.584c3.2355-5.0452 4.0725-11.403 2.0145-17.225" fill="url(#a)"/><path d="m39.04 53.102-9.3709-10.844-6.6526 17.723c6.016.25977 11.978-2.1986 16.025-6.8794" fill="url(#b)"/><path d="m20.237 59.631 4.7684-13.484-18.773 3.1379c2.7815 5.306 7.9062 9.2044 14.009 10.346" fill="url(#c)"/><path d="m5.1206 46.326 14.139-2.6401-12.125-14.584c-3.2355 5.0452-4.0725 11.403-2.0145 17.225" fill="url(#e)"/></g><circle cx="24" cy="40" fill="#fff" r="2.963"/><path d="m8.9154 26.898 9.3709 10.844 6.6526-17.723c-6.016-.25977-11.978 2.1986-16.025 6.8794" fill="url(#d)"/></g></g></svg>