<svg height="64" width="64" xmlns="http://www.w3.org/2000/svg"><path d="m6.2143847 32.006802c-.3951371.94385-.2079669 2.06967.5623103 2.839547l23.390272 23.390273c1.017838 1.017837 2.661576 1.017837 3.679414 0l23.390272-23.390273c.769877-.769877.957847-1.895697.56191-2.839547-.12598.303952-.31395.591906-.56191.839866l-23.390272 23.390272c-1.017838 1.017838-2.661576 1.017838-3.679414 0l-23.390272-23.390272c-.2489603-.24796-.4359305-.535914-.5631102-.839866z" opacity=".2"/><rect fill="#ffc35a" height="38.284" rx="2.6" transform="matrix(.70710678 .70710678 -.70710678 .70710678 0 0)" width="38.284" x="26.11" y="-19.14"/><path d="m32.005859 6.0078125.001953.0019531c-.663893 0-1.329924.2565062-1.839843.765625l-23.3906252 23.3886714c-.634791.634132-.8672342 1.509662-.7109376 2.326172.0975637-.484905.3332866-.948913.7109376-1.326172l23.3906252-23.3906245c.509422-.5086225 1.17464-.7651257 1.83789-.765625h.001953c.663251.0004993 1.328469.2566029 1.837891.765625l23.390625 23.3906245c.377259.377259.613374.841267.710938 1.326172.156872-.816731-.076606-1.691839-.710938-2.326172l-23.390625-23.3906245c-.509919-.5095188-1.17595-.765625-1.839844-.765625z" fill="#fff" opacity=".2"/><path d="m31.999044 18.999899v8.003325l-5.999044 5.980647.0182.0182h-.0182v12.997929h3.999363v-11.940097l1.999681-2.057672v13.997769h3.999363v-26.999899z" fill="#2e2e2e" stroke-opacity=".55" stroke-width="2.8"/></svg>