<svg height="64" viewBox="0 0 64 64" width="64" xmlns="http://www.w3.org/2000/svg" xmlns:xlink="http://www.w3.org/1999/xlink"><filter id="a" color-interpolation-filters="sRGB" height="1.024" width="1.024" x="-.012" y="-.012"><feGaussianBlur stdDeviation=".28"/></filter><filter id="b" color-interpolation-filters="sRGB" height="1.024" width="1.024" x="-.012" y="-.012"><feGaussianBlur stdDeviation=".16750215"/></filter><circle cx="32" cy="33" filter="url(#a)" opacity=".2" r="28"/><circle cx="32" cy="32" fill="#448aff" r="28"/><path d="m32 4a28 28 0 0 0 -28 28 28 28 0 0 0 .0215.586 28 28 0 0 1 27.9785-27.586 28 28 0 0 1 27.979 27.414 28 28 0 0 0 .021-.414 28 28 0 0 0 -28-28z" fill="#fff" opacity=".2"/><g stroke-width=".050604"><g filter="url(#b)" opacity=".2" transform="translate(0 1)"><path d="m38.732422 33.333984-.002.002h-1.650344c-.500981 1.771101-1.892914 3.163034-3.664062 3.664016v11.740234c2.872012-.238149 5.531183-1.211546 7.810546-2.71289l1.246094 1.246094 5.09961-5.09961-1.310547-1.310547c1.383111-2.219224 2.276454-4.775655 2.49414-7.527343h-10.021484z"/><path d="m26.853489 33.335952h-11.59849c.647734 8.213066 7.200982 14.766314 15.414048 15.414048v-11.704758c-1.841994-.465559-3.299395-1.887538-3.815558-3.70929z"/><path d="m30.669047 26.7321v-11.4821c-8.187764.647734-14.72583 7.160499-15.408988 15.338142h11.552946c.47568-1.892598 1.963444-3.380362 3.856042-3.856042z"/><path d="m37.121087 30.588142h11.623791c-.673036-8.152341-7.175679-14.654985-15.328021-15.333082v11.517523c1.821752.516163 3.243731 1.973565 3.70423 3.815559z"/></g><path d="m38.732422 33.333984-.001953.001954h-1.650391c-.500981 1.771147-1.892914 3.16308-3.664062 3.664062v11.740234c2.872012-.238149 5.531183-1.211546 7.810546-2.71289l1.246094 1.246094 5.09961-5.09961-1.310547-1.310547c1.383111-2.219224 2.276454-4.775655 2.49414-7.527343h-10.021484z" fill="#fafafa"/><path d="m26.853489 33.335952h-11.59849c.647734 8.213066 7.200982 14.766314 15.414048 15.414048v-11.704758c-1.841994-.465559-3.299395-1.887538-3.815558-3.70929z" fill="#fafafa"/><path d="m30.669047 26.7321v-11.4821c-8.187764.647734-14.72583 7.160499-15.408988 15.338142h11.552946c.47568-1.892598 1.963444-3.380362 3.856042-3.856042z" fill="#fafafa"/><path d="m37.121087 30.588142h11.623791c-.673036-8.152341-7.175679-14.654985-15.328021-15.333082v11.517523c1.821752.516163 3.243731 1.973565 3.70423 3.815559z" fill="#fafafa"/></g></svg>