<svg height="64" width="64" xmlns="http://www.w3.org/2000/svg"><path d="m4.0507997 32.000415c-.0118.333995-.050799.66199-.050799.999985-.0000003 15.511779 12.4878213 27.9996 27.9995993 27.9996s27.9996-12.487821 27.9996-27.9996c0-.337675-.03904-.66527-.05078-.999985-.527992 15.041785-12.775817 26.999614-27.9496 26.999614-15.174183 0-27.4216078-11.957829-27.9496003-26.999614z" opacity=".2" stroke-opacity=".55" stroke-width="2.8"/><rect fill="#4f4f4f" height="55.999" rx="28" stroke-opacity=".55" stroke-width="2.8" width="55.999" x="4" y="4"/><path d="m30.009628 51c12.251825-3.155555 30.689562-15.434179 12.061028-31.999542 8.279282 10.505849 10.050856 13.999799-8.040685 13.999799 17.593748 3.53455 2.041371 10.584649-6.030514 11.999829z" opacity=".2"/><path d="m34.10157 15.011315c-12.251825 3.155555-30.6915612 15.434979-12.061828 31.999542-8.279281-10.50585-10.050856-13.9998 8.040685-13.9998-17.593748-3.534549-2.04137-10.584648 6.030514-11.999828z" opacity=".2"/><path d="m30.009628 49.990172c12.251825-3.155555 30.689562-15.43418 12.061028-31.999543 8.279282 10.50585 10.050856 13.9998-8.040685 13.9998 17.593748 3.53455 2.041371 10.584649-6.030514 11.999829z" fill="#df574d"/><path d="m34.10157 14.000686c-12.251825 3.155755-30.6915612 15.43378-12.061828 31.999543-8.278881-10.50585-10.050656-13.9998 8.041885-13.9998-17.594748-3.533949-2.04197-10.583849 6.029914-11.999828z" fill="#79de7d"/><path d="m32 4c-15.511778 0-28 12.488222-28 28 0 .113554.0112846.224034.0175781.335938.3515382-15.20154 12.6933679-27.335938 27.9824219-27.335938s27.630884 12.134398 27.982422 27.335938c.006375-.111904.017578-.222384.017578-.335938 0-15.511778-12.488222-28-28-28z" fill="#fff" opacity=".1" stroke-opacity=".55" stroke-width="2.8"/></svg>