<svg height="64" viewBox="0 0 16.933 16.933" width="64" xmlns="http://www.w3.org/2000/svg"><circle cx="296.65" cy="5.7567" fill="#d5d3cf" r="0" stroke-width=".87152"/><g stroke-width=".18455" transform="matrix(1.1111 0 0 1.1111 -.94047 -.68191)"><path d="m15.093 5.809c-.31078-.74779-.94116-1.5551-1.4349-1.8104a7.431 7.431 0 0 1 .72435 2.1711l.0013.012027c-.80869-2.0162-2.1801-2.8291-3.3001-4.5993-.05666-.089506-.11332-.17919-.16849-.27387-.03156-.054034-.05684-.1028-.0788-.14764a1.3016 1.3016 0 0 1 -.10667-.28328.018455.018455 0 0 0 -.01624-.018476.025468.025468 0 0 0 -.01347 0c-.000959 0-.0024.001743-.0035.001743-.0011.00036604-.0035.001743-.0051.002615l.0028-.005229c-1.7966 1.0519-2.4062 2.9993-2.4623 3.9734a3.5779 3.5779 0 0 0 -1.9684.75868 2.1384 2.1384 0 0 0 -.18455-.13989 3.316 3.316 0 0 1 -.020116-1.7483 5.2975 5.2975 0 0 0 -1.7217 1.3306h-.00332c-.28355-.35847-.26362-1.5433-.24738-1.7907a1.2785 1.2785 0 0 0 -.23881.12678 5.2089 5.2089 0 0 0 -.69907.59887 6.246 6.246 0 0 0 -.66862.80223v.0008715-.0008715a6.0408 6.0408 0 0 0 -.95964 2.1671l-.0096.047237c-.013472.062924-.062008.37814-.070313.4466 0 .00523-.00111.010371-.00166.015688a6.8167 6.8167 0 0 0 -.11608.98604v.036865a7.1529 7.1529 0 0 0 14.201 1.2095c.01199-.092277.02178-.18363.03248-.27682a7.3556 7.3556 0 0 0 -.46395-3.5929zm-8.2438 5.5988c.033403.01604.064777.03338.099101.04872l.00499.0035q-.052048-.02494-.10409-.05187zm7.5352-5.22457v-.00697l.0013.00784z" fill="#209af9"/><path d="m11.618 6.6457c.0155.010894.02989.021788.04447.032682a3.894 3.894 0 0 0 -.66438-.86645c-2.2231-2.2234-.58262-4.821-.30598-4.953l.0028-.004358c-1.7966 1.0519-2.4062 2.9993-2.4622 3.9734.083416-.0061.1661-.012724.25136-.012724a3.6098 3.6098 0 0 1 3.134 1.8302z" fill="#3bbfff"/><path d="m8.4881 7.0901c-.011811.1779-.64039.79153-.86019.79153-2.0339 0-2.3641 1.2304-2.3641 1.2304.090063 1.0361.81202 1.8894 1.6847 2.3408.039863.02065.080279.03931.1207.05761q.10501.04654.21002.08602a3.1807 3.1807 0 0 0 .9307.17957c3.565.1672 4.2555-4.2631 1.6829-5.5486a2.4693 2.4693 0 0 1 1.7246.41874 3.6098 3.6098 0 0 0 -3.134-1.8302c-.084893 0-.16794.00697-.25136.012724a3.5779 3.5779 0 0 0 -1.9684.75868c.10907.092268.23217.21555.49145.47115.48536.47816 1.7301.97349 1.7329 1.0316z" fill="#2a55c4"/><path d="m5.9303 5.3471c.057949.036865.10575.069025.14764.097994a3.316 3.316 0 0 1 -.020116-1.7483 5.2975 5.2975 0 0 0 -1.7217 1.3306c.03488-.0008715 1.0724-.019522 1.5941.31964z" fill="#1d97f8"/><path d="m1.3883 8.6327c.55199 3.2617 3.5081 5.7521 6.8641 5.8471 3.1059.08784 5.0902-1.7152 5.91-3.4742a6.4777 6.4777 0 0 0 .22257-4.8275v-.00697c0-.00523-.0011-.00872 0-.00697l.0013.012027c.25375 1.6567-.5889 3.2617-1.9062 4.3471l-.0041.0092c-2.5667 2.0904-5.023 1.2612-5.5202.92277q-.052031-.024892-.10407-.051822c-1.4965-.71531-2.1148-2.0788-1.9823-3.2481a1.8368 1.8368 0 0 1 -1.6943-1.0658 2.6977 2.6977 0 0 1 2.6296-.10557 3.5618 3.5618 0 0 0 2.6855.10557c-.0027715-.058131-1.2476-.55364-1.7329-1.0316-.25929-.2556-.38238-.37869-.49145-.47115a2.1384 2.1384 0 0 0 -.18455-.13989c-.042447-.028935-.090246-.06031-.14764-.097994-.52172-.3392-1.5592-.32056-1.5936-.31963h-.00332c-.28345-.35907-.26351-1.5439-.24728-1.7913a1.2785 1.2785 0 0 0 -.23881.12678 5.2089 5.2089 0 0 0 -.69907.59886 6.246 6.246 0 0 0 -.67139.80039v.0008715-.0008715a6.0408 6.0408 0 0 0 -.95964 2.1671c-.00351.014554-.25763 1.1256-.13232 1.7017z" fill="#3bbfff"/><path d="m10.998 5.8177a3.894 3.894 0 0 1 .66438.86738c.0393.029719.07603.059264.10722.087841 1.6216 1.4948.77197 3.6079.70867 3.7584 1.3173-1.0853 2.1592-2.6904 1.9062-4.3471-.80906-2.0171-2.1805-2.83-3.3005-4.6003-.05666-.089506-.11332-.17919-.16849-.27387-.03156-.054034-.05684-.1028-.0788-.14764a1.3016 1.3016 0 0 1 -.10667-.28328.018455.018455 0 0 0 -.01624-.018476.025468.025468 0 0 0 -.01347 0c-.000959 0-.0024.001743-.0035.001743-.0011.00036604-.0035.001743-.0051.002615-.27664.13121-1.9171 2.7287.30635 4.9522z" fill="#097cf4"/><g fill="#1d97f8"><path d="m11.768 6.7677c-.03119-.028586-.06791-.058131-.10722-.08785-.01458-.010894-.02898-.021788-.04447-.032682a2.4693 2.4693 0 0 0 -1.7246-.41874c2.5727 1.2863 1.8824 5.7158-1.6829 5.5486a3.1807 3.1807 0 0 1 -.9307-.17955q-.10501-.039306-.21002-.08602c-.040416-.01848-.080832-.03687-.1207-.05761l.00499.0035c.49718.33938 2.9528 1.1685 5.5202-.92277l.0041-.0092c.06404-.14948.91371-2.2631-.70867-3.7574z"/><path d="m5.2638 9.1121s.33016-1.2304 2.3641-1.2304c.2198 0 .84893-.61362.86019-.79153a3.5618 3.5618 0 0 1 -2.6855-.10556 2.6977 2.6977 0 0 0 -2.6296.10556 1.8368 1.8368 0 0 0 1.6943 1.0658c-.13251 1.1695.48574 2.5329 1.9823 3.2481.033403.01604.064777.03338.099101.04872-.87344-.45122-1.5947-1.3046-1.6847-2.3407z"/></g></g><circle cx="-15.774" cy="13.461" fill="#d5d3cf" r="0" stroke-width=".87152"/></svg>