<svg height="64" width="64" xmlns="http://www.w3.org/2000/svg"><path d="m4.0000004 56.200069v1.999971c0 1.549978 1.2495821 2.79996 2.80076 2.79996h50.3992796c1.549977 0 2.79996-1.249982 2.79996-2.79996v-1.999971c0 1.549977-1.249983 2.79996-2.79996 2.79996h-50.3992796c-1.5503779 0-2.79996-1.249983-2.79996-2.79996z" opacity=".2"/><rect fill="#4f4f4f" height="55.999" rx="2.8" transform="matrix(0 -1 -1 0 0 0)" width="55.999" x="-60" y="-60"/><path d="m15.999829 18.000629v31.999543h31.999542v-31.999543zm5.999914 5.999914h19.999714v19.999714h-19.999714z" fill="#848484"/><path d="m12 35h20v20h-20z" opacity=".2"/><path d="m12 34h20v20h-20z" fill="#64b5ff"/><path d="m12 15h20v14h-20z" opacity=".2"/><path d="m12 14h20v14h-20z" fill="#e47cff"/><circle cx="44.999" cy="22" opacity=".2" r="7"/><circle cx="44.999" cy="21.001" fill="#ff6363" r="7"/><path d="m36 39h16v14h-16z" opacity=".2"/><path d="m36 38h16v14h-16z" fill="#3bff80"/><path d="m6.8007812 4c-1.5511778 0-2.8007812 1.2496034-2.8007812 2.8007812v1.0019532c0-1.5511778 1.2496034-2.8007813 2.8007812-2.8007813h50.3984378c1.549977 0 2.800781 1.2496035 2.800781 2.8007813v-1.0019532c0-1.5511777-1.250804-2.8007812-2.800781-2.8007812z" fill="#fff" opacity=".1"/></svg>