<svg height="64" width="64" xmlns="http://www.w3.org/2000/svg"><path d="m44.00209 2a23.769881 23.665606 0 0 1 -18.765906 15.219346 23.769881 23.665606 0 0 1 .315698 3.759338 23.769881 23.665606 0 0 1 -23.551882 23.653606c5.203174 10.309827 15.884521 17.36771 28.305858 17.36771 17.557913 0 31.693842-14.073766 31.693842-31.553474 0-12.58479-7.343963-23.3716106-17.99791-28.445526z" fill="#dfbe57"/><path d="m44 2a23.769881 23.665882 0 0 1 -18.765625 15.21875 23.769881 23.665882 0 0 1 .113281.978516 23.769881 23.665882 0 0 0 18.652344-15.197266c10.488035 4.9949585 17.754248 15.530389 17.978516 27.863281.009671-.138286.021484-.276955.021484-.417969 0-12.584937-7.346053-23.3713374-18-28.445312zm-18.488281 19.765625a23.769881 23.665882 0 0 1 -23.511719 22.867187c.1695132.336608.3616265.657591.5429688.986329a23.769881 23.665882 0 0 0 22.9687502-22.853516 23.769881 23.665882 0 0 1 .023437.746094 23.769881 23.665882 0 0 0 .015625-.53125 23.769881 23.665882 0 0 0 -.039062-1.214844z" fill="#fff" opacity=".2"/><path d="m25.347656 18.199219a23.769881 23.665882 0 0 1 -.111328.02148 23.769881 23.665882 0 0 1 .277344 2.544922 23.769881 23.665882 0 0 0 .03906-.785156 23.769881 23.665882 0 0 0 -.02539-.488281 23.769881 23.665882 0 0 1 -.01367.273437 23.769881 23.665882 0 0 0 -.166016-1.566406zm36.636719 12.841797c-.318034 17.2018-14.320461 30.958984-31.679687 30.958984-12.01881 0-22.3937706-6.61908-27.7675786-16.388672a23.769881 23.665882 0 0 1 -.5371094.021484c5.203174 10.309948 15.884551 17.367188 28.304688 17.367188 17.559913 0 31.695312-14.074776 31.695312-31.554688 0-.136145-.01059-.269273-.01563-.404296z" opacity=".2"/></svg>