<svg height="64" width="64" xmlns="http://www.w3.org/2000/svg"><path d="m49.871584 12.642562-1.579993 2.738187a23.999891 23.999891 0 0 1 .695997.792997l1.117995-1.937592c.309998-.537197.185999-1.177594-.233999-1.593592zm-42.8258055 20.265907a23.999891 23.999891 0 0 0 11.9531455 21.875901 23.999891 23.999891 0 0 0 32.785851-8.78596 23.999891 23.999891 0 0 0 3.159986-12.889942 23.999891 23.999891 0 0 1 -3.159986 10.889951 23.999891 23.999891 0 0 1 -32.785851 8.78596 23.999891 23.999891 0 0 1 -11.9531455-19.87591z" opacity=".2"/><path d="m40.381627 6.084796c-.639997-.3693984-1.451994-.1515993-1.821992.4879977l-1.812492 3.1393858a23.999891 23.999891 0 0 0 -26.531879 11.2879485 23.999891 23.999891 0 0 0 8.78396 32.783851 23.999891 23.999891 0 0 0 32.783851-8.78396 23.999891 23.999891 0 0 0 -3.491984-28.61587l1.815092-3.143786c.369338-.639697.151659-1.452033-.488038-1.821351l-9.237558-5.333376z" fill="#4f4f4f"/><path d="m39.876953 5.9140625c-.513998-.0646-1.04036.1803585-1.318359.6601563l-1.8125 3.1367187a23.999891 23.999891 0 0 0 -26.533203 11.2890625 23.999891 23.999891 0 0 0 -3.1718754 12.326172 23.999891 23.999891 0 0 1 3.1718754-11.326172 23.999891 23.999891 0 0 1 26.533203-11.289062l1.8125-3.1367192c.277999-.4797979.804361-.7247563 1.318359-.6601563h.001953c.171999.0215999.343908.079475.503906.171875l9.236329 5.3320315c.271556.15723.448112.401865.554687.671875.259113-.611975.03506-1.330414-.554687-1.671875l-9.236329-5.3320315c-.159998-.0924-.331907-.1502751-.503906-.171875zm9.111328 11.2617185-.697265 1.207031a23.999891 23.999891 0 0 1 .347656.400391l.349609-.607422a23.999891 23.999891 0 0 1 5.951172 15.826172 23.999891 23.999891 0 0 1 .005859.107422 23.999891 23.999891 0 0 0 -5.957031-16.933594z" fill="#fff" opacity=".1"/><path d="m54.053565 8.8731833c-.503998-.3447985-1.097995-.5821974-1.701993-.7479966-1.205994-.3311985-2.567988-.4183981-3.873982-.4143981-2.609388.008-5.037377.1407533-5.037377.1407533l3.303785 1.9074513c.553977-.037392 1.140395-.047222 1.743132-.04907 1.200315-.00368 2.423589.096769 3.335785.3472385.912256.250459 1.397553.612997 1.544653.972995.411958 1.008136.179259 1.701773-.604417 2.663988-.783697.962316-2.160191 1.992391-3.679384 3.044786-1.519253 1.052396-3.174985 2.137591-4.558779 3.380585-1.383834 1.242814-2.545588 2.677788-2.819987 4.47018-.298719 1.951391.763136 3.952982 1.748252 5.628174.985115 1.675193 2.021191 2.975587 2.021191 2.975587.821056 1.106015 2.456789-.19266 1.565673-1.243075 0 0-.961656-1.209214-1.865272-2.745787-.903616-1.536593-1.621473-3.448985-1.489573-4.310581.167899-1.096915.953915-2.19239 2.17319-3.287385 1.219214-1.094955 2.819587-2.15479 4.36578-3.225785 1.546093-1.070975 3.043586-2.14259 4.088981-3.426184 1.045436-1.283715 1.599213-2.980187.905556-4.677779-.243999-.6039971-.659997-1.059395-1.163994-1.4041934z" fill="#bbb673" fill-rule="evenodd"/><path d="m54.926529 29.980749-2.357771 5.589618 5.431242 2.87513-5.875052 1.575392 1.201882 5.998834-4.968355-3.625059-3.932468 4.605336-.320405-6.095781-6.105602-.256065 4.568866-3.976188-3.681049-4.924617 6.017755 1.137513 1.515369-5.884862 2.93514 5.394724z" opacity=".2"/><path d="m54.926529 28.980749-2.357771 5.589618 5.431242 2.87513-5.875052 1.575392 1.201882 5.998834-4.968355-3.625059-3.932468 4.605336-.320405-6.095781-6.105602-.256065 4.568866-3.976188-3.681049-4.924617 6.017755 1.137513 1.515369-5.884862 2.93514 5.394724z" fill="#ff6363"/><path d="m46.421875 26-1.515625 5.884766-6.017578-1.136719.871094 1.164062 5.146484.972657 1.515625-5.884766 2.933594 5.394531 5.054687-2.189453.515625-1.224609-5.570312 2.414062zm6.492187 8.751953-.345703.818359 4.177735 2.210938 1.253906-.335938zm-10.798828 1.314453-4.115234 3.582032 1.095703.046874 3.472656-3.023437zm10.199219 3.904297-.189453.050781.966797 4.826172.234375.171875z" fill="#fff" opacity=".1"/></svg>