<svg height="64" viewBox="0 0 64 64" width="64" xmlns="http://www.w3.org/2000/svg"><path d="m6.0004002 54.398035v1.999985c0 1.439989 1.1611911 2.60198 2.60158 2.60198h46.7956398c1.439989 0 2.60198-1.161991 2.60198-2.60198v-1.999985c0 1.439989-1.161991 2.60198-2.60198 2.60198h-46.7956398c-1.4407889 0-2.60198-1.161991-2.60198-2.60198z" opacity=".2"/><rect fill="#de554c" height="52" rx="2.6" transform="matrix(0 -1 -1 0 0 0)" width="52" x="-58" y="-58"/><path d="m16.000323 17.001923c-3.313574 0-5.999954 2.68638-5.999954 5.999954 0 3.313575 2.68638 5.999954 5.999954 5.999954 1.418069 0 2.722979-.489956 3.749971-1.31249l4.632765 2.874978a7.9999384 7.9999384 0 0 0 -.381997 2.435981 7.9999384 7.9999384 0 0 0 .389997 2.433981l-4.639965 2.877978c-1.025992-.821993-2.330982-1.31199-3.749171-1.31199-3.313574 0-5.999954 2.68638-5.999954 5.999954 0 3.313575 2.68638 5.999954 5.999954 5.999954 3.313575 0 5.999954-2.685979 5.999954-5.999954 0-.461996-.088-.879993-.187999-1.31199l4.675764-2.906177a7.9999384 7.9999384 0 0 0 5.511958 2.217983 7.9999384 7.9999384 0 0 0 5.519957-2.213983l4.667965 2.901977c-.1.431997-.187999.849994-.187999 1.31199 0 3.313575 2.686379 5.999954 5.999954 5.999954 3.313574 0 5.999954-2.686379 5.999954-5.999954 0-3.313574-2.68638-5.999954-5.999954-5.999954-1.418069 0-2.722979.489957-3.749971 1.31249l-4.631965-2.877978a7.9999384 7.9999384 0 0 0 .381997-2.433981 7.9999384 7.9999384 0 0 0 -.385997-2.429981l4.635965-2.881978c1.025992.821994 2.331982 1.31199 3.749971 1.31199 3.313574 0 5.999954-2.686379 5.999954-5.999954 0-3.313574-2.68638-5.999954-5.999954-5.999954-3.313575 0-5.999954 2.68638-5.999954 5.999954 0 .462537.0887.880013.187499 1.31249l-4.675764 2.906178a7.9999384 7.9999384 0 0 0 -5.511958-2.217983 7.9999384 7.9999384 0 0 0 -5.519958 2.213983l-4.667964-2.901978c.1-.431997.187999-.849993.187999-1.31199 0-3.313574-2.686379-5.999954-5.999954-5.999954z" opacity=".2"/><path d="m8.6015625 6c-1.4403889 0-2.6015625 1.1611736-2.6015625 2.6015625v1c0-1.4403889 1.1611736-2.6015625 2.6015625-2.6015625h46.7968755c1.439988 0 2.601562 1.1611736 2.601562 2.6015625v-1c0-1.4403889-1.161574-2.6015625-2.601562-2.6015625z" fill="#fff" opacity=".2"/><path d="m16.000323 16.000339c-3.313574 0-5.999954 2.686379-5.999954 5.999954 0 3.313574 2.68638 5.999953 5.999954 5.999953 1.418069 0 2.722979-.489956 3.749971-1.312489l4.632765 2.874977a7.9999384 7.9999384 0 0 0 -.381997 2.435982 7.9999384 7.9999384 0 0 0 .389997 2.433981l-4.639965 2.877978c-1.026792-.821994-2.331782-1.31199-3.749971-1.31199-3.313574 0-5.999954 2.686379-5.999954 5.999954 0 3.313574 2.68638 5.999953 5.999954 5.999953 3.313575 0 5.999954-2.685979 5.999954-5.999953 0-.461997-.088-.879994-.187999-1.31199l4.675764-2.906178a7.9999384 7.9999384 0 0 0 5.511958 2.217983 7.9999384 7.9999384 0 0 0 5.519957-2.213983l4.667965 2.901978c-.1.431996-.187999.849993-.187999 1.31199 0 3.313574 2.686379 5.999953 5.999954 5.999953 3.313574 0 5.999954-2.686379 5.999954-5.999953 0-3.313575-2.68638-5.999954-5.999954-5.999954-1.418069 0-2.722979.489956-3.749971 1.31249l-4.631965-2.877978a7.9999384 7.9999384 0 0 0 .381997-2.433981 7.9999384 7.9999384 0 0 0 -.385997-2.429982l4.635965-2.881977c1.025992.821993 2.331982 1.311989 3.749971 1.311989 3.313574 0 5.999954-2.686379 5.999954-5.999953 0-3.313575-2.68638-5.999954-5.999954-5.999954-3.313575 0-5.999954 2.686379-5.999954 5.999954 0 .462536.0887.880013.187499 1.31249l-4.675764 2.906177a7.9999384 7.9999384 0 0 0 -5.511958-2.217983 7.9999384 7.9999384 0 0 0 -5.519957 2.213983l-4.667965-2.901977c.1-.431997.187999-.849994.187999-1.31199 0-3.313575-2.686379-5.999954-5.999954-5.999954z" fill="#ffb668"/></svg>