<svg height="64" width="64" xmlns="http://www.w3.org/2000/svg"><g transform="matrix(.49998301 -.86603521 .86603521 .49998301 0 0)"><circle cx="-12.518" cy="30.32" opacity=".2" r="14"/><circle cx="-11.776" cy="57.605" opacity=".2" r="14"/><circle cx="-11.652" cy="29.82" fill="#4f4f4f" r="14"/></g><circle cx="43.775" cy="-2.179" opacity=".2" r="14" transform="matrix(.8660254 .5 -.5 .8660254 0 0)"/><path d="m19.339844 11.015625a13.999753 13.999753 0 0 0 -11.464844 6.984375 13.999753 13.999753 0 0 0 -1.8574219 7.6875 13.999753 13.999753 0 0 1 1.8574219-6.6875 13.999753 13.999753 0 0 1 19.125-5.125 13.999753 13.999753 0 0 1 6.982422 11.4375 13.999753 13.999753 0 0 0 -6.982422-12.4375 13.999753 13.999753 0 0 0 -7.660156-1.859375z" fill="#fff" opacity=".1"/><circle cx="43.275" cy="-3.045" fill="#ccc" r="14" transform="matrix(.8660254 .5 -.5 .8660254 0 0)"/><circle cx="-10.91" cy="57.105" fill="#4f4f4f" r="14" transform="matrix(.49998301 -.86603521 .86603521 .49998301 0 0)"/><path d="m43.339844 24.015625a13.999753 13.999753 0 0 0 -11.464844 6.984375 13.999753 13.999753 0 0 0 -1.857422 7.6875 13.999753 13.999753 0 0 1 1.857422-6.6875 13.999753 13.999753 0 0 1 19.125-5.125 13.999753 13.999753 0 0 1 6.982422 11.4375 13.999753 13.999753 0 0 0 -6.982422-12.4375 13.999753 13.999753 0 0 0 -7.660156-1.859375z" fill="#fff" opacity=".1"/><circle cx="43.651" cy="25.605" opacity=".2" r="14" transform="matrix(.8660254 .5 -.5 .8660254 0 0)"/><circle cx="43.151" cy="24.739" fill="#ccc" r="14" transform="matrix(.8660254 .5 -.5 .8660254 0 0)"/><path d="m38.339844 5.015625a13.999838 13.999838 0 0 0 -11.464844 6.984375 13.999838 13.999838 0 0 0 -1.857422 7.6875 13.999838 13.999838 0 0 1 1.857422-6.6875 13.999838 13.999838 0 0 1 19.125-5.125 13.999838 13.999838 0 0 1 6.982422 11.4375 13.999838 13.999838 0 0 0 -6.982422-12.4375 13.999838 13.999838 0 0 0 -7.660156-1.859375z" fill="#fff" opacity=".2"/><path d="m24.339844 29.015625a13.999838 13.999838 0 0 0 -11.462891 6.984375 13.999838 13.999838 0 0 0 -1.859375 7.6875 13.999838 13.999838 0 0 1 1.859375-6.6875 13.999838 13.999838 0 0 1 19.123047-5.125 13.999838 13.999838 0 0 1 6.982422 11.4375 13.999838 13.999838 0 0 0 -6.982422-12.4375 13.999838 13.999838 0 0 0 -7.660156-1.859375z" fill="#fff" opacity=".2"/></svg>