<svg height="64" width="64" xmlns="http://www.w3.org/2000/svg"><rect fill="#4f4f4f" height="56" rx="3" transform="matrix(0 -1 -1 0 0 0)" width="56" x="-60" y="-60"/><path d="m7 4c-1.662 0-3 1.338-3 3v1c0-1.662 1.338-3 3-3h50c1.662 0 3 1.338 3 3v-1c0-1.662-1.338-3-3-3z" fill="#fff" opacity=".1"/><path d="m4 56v2c0 1.662 1.338 3 3 3h50c1.662 0 3-1.338 3-3v-2c0 1.662-1.338 3-3 3h-50c-1.662 0-3-1.338-3-3z" opacity=".2"/><path d="m31.708984 13.001953c-.954 0-2.424211.08687-3.414211.263672-.988.1768-1.965688.421116-2.929688.728516-.96.3094-1.885297.662746-2.779296 1.060547-.892.395999-1.718563.815812-2.476563 1.257812l2.701172 5.355586c1.5008-.74184 2.954409-1.369673 4.355469-1.882813 1.4048-.51122 3.418354-.765625 4.634914-.765625 1.39526 0 2.432941.325076 3.113281.978516.678441.65156 1.021485 1.485127 1.021485 2.492187 0 .65152-.07264 1.724746-.214844 2.220587-.1403.49392-.3704.966295-.6875 1.416015-.31904.45164-.731001.905881-1.244141 1.363281-.51122.46124-1.139019.982134-1.880859 1.564454-.84752.67074-1.771507 1.320725-2.373047 1.947265-.59962.62652-1.09013 1.272474-1.46875 1.933594-.38052.66312-.663256 1.35959-.847656 2.09375-.18648.73224-.21875 1.547859-.21875 2.449219v2.521484h6.931641v-2.152344c0-.56504.05028-1.05555.146484-1.46875.09802-.41512.277749-.816891.542969-1.207031.2633-.3863.630636-.798049 1.097656-1.230469.46894-.43242 1.074566-.941117 1.816406-1.523437.97046-.77636 1.52362-1.515251 2.25586-2.212891.73224-.6958 1.341938-1.418462 1.830078-2.169922.4824-.7496.851656-1.56304 1.097656-2.4375.24592-.8744.371094-1.867708.371094-2.980468 0-1.5184-.270507-2.868855-.810547-4.052735-.53816-1.18196-1.307426-2.191244-2.316406-3.021484-1.0052-.83024-1.933713-1.460158-3.382813-1.892578-1.4472-.43244-3.070294-.648438-4.871094-.648438zm-1.169922 30.998047c-.632613 0-1.226783.08082-1.78125.238281-.556324.159377-1.039874.414274-1.449218.767578-.411183.353324-.732167.816464-.962891 1.388672-.230685.574145-.345703 1.273999-.345703 2.103516v.002c0 .79329.115288 1.475566.345703 2.039062.230414.563496.550469 1.032629.962891 1.404297.408549.36767.893514.636839 1.449218.804688.555706.167798 1.148096.251906 1.78125.251906.598303 0 1.1668-.0841 1.705079-.251953.537717-.168988 1.012626-.437971 1.423828-.806641.409344-.370588.732638-.839748.972656-1.402344.240018-.564495.359375-1.246067.359375-2.041015 0-.829537-.119357-1.529391-.359375-2.103516-.240018-.572208-.563312-1.035348-.972656-1.388672-.411202-.353304-.886111-.608121-1.423828-.767578-.537717-.157377-1.105963-.238281-1.705079-.238281z" opacity=".2"/><path d="m31.708984 12.001953c-.954 0-2.424211.08687-3.414211.263672-.988.1768-1.965688.421116-2.929688.728516-.96.3094-1.885297.662746-2.779296 1.060547-.892.395999-1.718563.815812-2.476563 1.257812l2.701172 5.355586c1.5008-.74184 2.954409-1.369673 4.355469-1.882813 1.4048-.51122 3.418354-.765625 4.634914-.765625 1.39526 0 2.432941.325076 3.113281.978516.678441.65156 1.021485 1.485127 1.021485 2.492187 0 .65152-.07264 1.724746-.214844 2.220587-.1403.49392-.3704.966295-.6875 1.416015-.31904.45164-.731001.905881-1.244141 1.363281-.51122.46124-1.139019.982134-1.880859 1.564454-.84752.67074-1.771507 1.320725-2.373047 1.947265-.59962.62652-1.09013 1.272474-1.46875 1.933594-.38052.66312-.663256 1.35959-.847656 2.09375-.18648.73224-.21875 1.547859-.21875 2.449219v2.521484h6.931641v-2.152344c0-.56504.05028-1.05555.146484-1.46875.09802-.41512.277749-.816891.542969-1.207031.2633-.3863.630636-.798049 1.097656-1.230469.46894-.43242 1.074566-.941117 1.816406-1.523437.97046-.77636 1.52362-1.515251 2.25586-2.212891.73224-.6958 1.341938-1.418462 1.830078-2.169922.4824-.7496.851656-1.56304 1.097656-2.4375.24592-.8744.371094-1.867708.371094-2.980468 0-1.5184-.270507-2.868855-.810547-4.052735-.53816-1.18196-1.307426-2.191244-2.316406-3.021484-1.0052-.83024-1.933713-1.460158-3.382813-1.892578-1.4472-.43244-3.070294-.648438-4.871094-.648438zm-1.169922 30.998047c-.632613 0-1.226783.08082-1.78125.238281-.556324.159377-1.039874.414274-1.449218.767578-.411183.353324-.732167.816464-.962891 1.388672-.230685.574145-.345703 1.273999-.345703 2.103516v.002c0 .79329.115288 1.475566.345703 2.039062.230414.563496.550469 1.032629.962891 1.404297.408549.36767.893514.636839 1.449218.804688.555706.167798 1.148096.251906 1.78125.251906.598303 0 1.1668-.0841 1.705079-.251953.537717-.168988 1.012626-.437971 1.423828-.806641.409344-.370588.732638-.839748.972656-1.402344.240018-.564495.359375-1.246067.359375-2.041015 0-.829537-.119357-1.529391-.359375-2.103516-.240018-.572208-.563312-1.035348-.972656-1.388672-.411202-.353304-.886111-.608121-1.423828-.767578-.537717-.157377-1.105963-.238281-1.705079-.238281z" fill="#b7b7b7"/></svg>