<svg height="64" width="64" xmlns="http://www.w3.org/2000/svg"><path d="m4.050798 32.000828c-.0118.33399-.050799.661981-.050799.999971.0000004 15.511558 12.487644 27.999201 27.999201 27.999201s27.999201-12.487643 27.999201-27.999201c0-.33767-.03904-.665261-.05078-.999971-.527985 15.041571-12.775635 26.999229-27.949202 26.999229-15.173967 0-27.4212171-11.957658-27.949202-26.999229z" opacity=".2"/><rect fill="#5db43e" height="55.998" rx="27.999" transform="matrix(0 -1 -1 0 0 0)" width="55.998" x="-60" y="-60"/><g opacity=".2" transform="matrix(1.9999429 0 0 1.9999429 .000114 1.001713)"><path d="m15 6v1h1v7h1v-8z"/><path d="m10 15v1h12v-1z"/><path d="m14 17v5h3v3h1v-8h-1v4h-2v-4z"/></g><g fill="#fff"><path d="m32 4.0019531c-15.511557 0-28 12.4864899-28 27.9980469 0 .113553.0112846.224036.0175781.335938.3515332-15.201323 12.6935859-27.335938 27.9824219-27.335938s27.630889 12.134615 27.982422 27.335938c.006271-.111822.017578-.222493.017578-.335938 0-15.511557-12.488443-27.9980469-28-27.9980469z" opacity=".1"/><g transform="matrix(1.9999429 0 0 1.9999429 .000114 .00177)"><path d="m15 6v1h1v7h1v-8z"/><path d="m10 15v1h12v-1z"/><path d="m14 17v5h3v3h1v-8h-1v4h-2v-4z"/></g></g></svg>