<svg height="64" width="64" xmlns="http://www.w3.org/2000/svg" xmlns:xlink="http://www.w3.org/1999/xlink"><linearGradient id="a" gradientUnits="userSpaceOnUse" x1="-64.1078" x2="-19.6638" y1="-4.98095" y2="-4.98095"><stop offset="0" stop-color="#50e6ff"/><stop offset="1" stop-color="#50e6ff"/></linearGradient><linearGradient id="b" gradientUnits="userSpaceOnUse" x1="-67.3218" x2="-22.8778" y1="19.76152" y2="19.76152"><stop offset="0" stop-color="#2fc3fe"/><stop offset="1" stop-color="#23aef5"/></linearGradient><linearGradient id="c" gradientUnits="userSpaceOnUse" x1="-67.3218" x2="-22.8778" y1="39.76132" y2="39.76132"><stop offset="0" stop-color="#1ea7f1"/><stop offset="1" stop-color="#148dd0"/></linearGradient><linearGradient id="d" gradientUnits="userSpaceOnUse" x1="-67.3218" x2="-22.8778" y1="54.76117" y2="54.76117"><stop offset="0" stop-color="#0978e8"/><stop offset="1" stop-color="#0467cd"/></linearGradient><linearGradient id="e" gradientUnits="userSpaceOnUse" x1="-99.671" x2="-59.671" y1="35" y2="35"><stop offset="0" stop-color="#184f85"/><stop offset="1" stop-color="#184f85"/></linearGradient><g transform="matrix(.92308 0 0 .92308 85.538 2.9231)"><path d="m-75-1c-1.662 0-3 1.338-3 3v59c0 1.662 1.338 3 3 3h34c1.662 0 3-1.338 3-3v-59c0-1.662-1.338-3-3-3z" fill="url(#e)"/><path d="m-38 56h-40v5c0 1.662 1.338 3 3 3h34c1.662 0 3-1.338 3-3z" fill="url(#e)"/><path d="m-78 44v12h40v-12z" fill="url(#d)"/><path d="m-78 29v15h40v-15z" fill="url(#c)"/><path d="m-78 8v21h40v-21z" fill="url(#b)"/><path d="m-75-1c-1.662 0-3 1.338-3 3v6h40v-6c0-1.662-1.338-3-3-3z" fill="url(#a)"/><g fill="#0c63ad"><rect height="2" ry="1" width="9" x="-60.5" y="2.5"/><circle cx="-63.5" cy="3.5" r="1"/></g></g></svg>