<svg height="64" width="64" xmlns="http://www.w3.org/2000/svg"><path d="m26.269 4.0008c-.59201.064601-1.118.54961-1.226 1.1368l-1.18 5.9961c-2.12.82942-4.1141 1.9672-5.8629 3.3673l-5.8205-1.9688c-.60441-.2084-1.3354.0624-1.6602.61341l-5.6015 9.7116c-.31561.55801-.178 1.332.30861 1.75l4.6367 4.0701c-.1632 1.09-.2616 2.188-.2616 3.3241 0 1.136.098402 2.234.2616 3.3241l-4.6367 4.0701c-.48641.41801-.62421 1.192-.30861 1.75l5.6015 9.7122c.32481.55001 1.0558.82202 1.6602.61201l5.8205-1.968c1.7488 1.4 3.7429 2.542 5.8629 3.3721l1.18 5.9921c.12.62601.71601 1.128 1.356 1.136h11.198c.64001-.008 1.24-.51001 1.36-1.136l1.18-5.9921c2.12-.83002 4.1141-1.972 5.8641-3.3721l5.8161 1.968c.60401.21 1.338-.062 1.664-.61201l5.6021-9.7122c.31401-.55801.178-1.332-.31-1.75l-4.6361-4.0701c.164-1.09.262-2.188.262-3.3241 0-1.136-.1-2.234-.262-3.3241l4.6361-4.0701c.48601-.41801.62401-1.192.31-1.75l-5.6021-9.7116c-.32601-.55081-1.06-.82182-1.664-.61341l-5.8161 1.9688c-1.75-1.4-3.7441-2.5378-5.8641-3.3673l-1.18-5.9964c-.12-.6274-.72-1.1282-1.36-1.1368h-11.198c-.044-.00102-.086-.00102-.13 0z" fill="#6eaa36"/><path d="m29 20v9.0002l8.0001-9.0002 8.0001 1-12 13 12 12-8 1-8.0001-8.0001v7.0001l-6 1v-26l6-1z" opacity=".2"/><path d="m29 19v9.0002l8.0001-9.0002 8.0001 1-12 13 12 12-8 1-8.0001-8.0001v7.0001l-6 1v-26l6-1z" fill="#fff"/><path d="m26.27 4c-.592.0646-1.119.5495-1.227 1.1367l-1.18 5.9963c-2.12.829-4.114 1.967-5.863 3.367l-5.82-1.969c-.605-.208-1.336.064-1.66.615l-5.602 9.711c-.2012.356-.2007.793-.0606 1.176.0223-.058.0297-.121.0606-.176l5.602-9.711c.324-.551 1.055-.821 1.66-.613l5.82 1.969c1.749-1.4 3.743-2.538 5.863-3.367l1.18-5.9963c.108-.5872.635-1.0721 1.227-1.1367.044-.0011.084-.0011.128 0h11.2c.64.0086 1.239.5093 1.359 1.1367l1.18 5.9963c2.12.829 4.115 1.967 5.865 3.367l5.814-1.969c.604-.208 1.338.063 1.664.613l5.604 9.711c.03.054.037.115.059.172.138-.382.14-.817-.059-1.172l-5.604-9.711c-.326-.55-1.06-.823-1.664-.615l-5.814 1.969c-1.75-1.4-3.745-2.538-5.865-3.367l-1.18-5.9963c-.12-.6274-.719-1.1281-1.359-1.1367h-11.2c-.044-.001-.084-.001-.128 0zm-16.514 25.584c-.0905.794-.1543 1.595-.1543 2.418 0 .169.0152.332.0195.5.0243-.958.1033-1.896.2422-2.824zm44.486.002-.105.092c.138.929.216 1.87.24 2.83.004-.17.021-.335.021-.506 0-.822-.065-1.622-.156-2.416zm-44.486 5.834-4.5293 3.975c-.4388.377-.5748 1.037-.3692 1.574.0798-.217.1933-.421.3692-.573l4.6367-4.07c-.045-.3-.073-.604-.1074-.906zm44.488 0c-.034.302-.062.606-.107.906l4.636 4.07c.177.152.29.357.37.575.205-.537.071-1.199-.37-1.576z" fill="#fff" opacity=".2"/><path d="m59.143 24.029c-.07963.21938-.19191.42569-.36914.57812l-4.6367 4.0703c.04473.30098.07099.60538.10547.9082l4.5312-3.9785c.4395-.378.57572-1.0409.36914-1.5781zm-54.285.0039c-.2056.5366-.069851 1.1971.36914 1.5742l4.5293 3.9766c.034428-.30221.062449-.60588.10742-.90625l-4.6372-4.071c-.1765-.151-.2895-.356-.3692-.574zm4.7631 8.469c-.00425.16749-.019531.33093-.019531.5 0 .82334.063713 1.6231.1543 2.418l.10742-.09375c-.1389-.928-.2179-1.866-.2422-2.824zm44.756.0078c-.02453.95511-.10102 1.8912-.24023 2.8164l.10742.09375c.09077-.79484.1543-1.5946.1543-2.418 0-.16645-.01731-.32727-.02148-.49219zm-49.52 8.461c-.14015.38308-.14064.81812.060547 1.1738l5.6016 9.7129c.32481.55001 1.0557.82133 1.6602.61133l5.82-1.967c1.7488 1.4 3.7432 2.5411 5.8633 3.3711l1.1797 5.9922c.12.62601.71546 1.1287 1.3555 1.1367h11.199c.64001-.008 1.2394-.51071 1.3594-1.1367l1.1797-5.9922c2.12-.83002 4.1152-1.9711 5.8652-3.3711l5.8145 1.9668c.60401.21 1.3381-.06132 1.6641-.61133l5.6035-9.7129c.19986-.35516.19807-.78919.05859-1.1719-.02198.05723-.02835.12009-.05859.17383l-5.6035 9.7109c-.32601.55001-1.0601.82328-1.6641.61328l-5.814-1.969c-1.75 1.4-3.7452 2.5411-5.8652 3.3711l-1.1797 5.9922c-.12.626-.719 1.129-1.359 1.137h-11.2c-.64-.008-1.235-.511-1.355-1.137l-1.18-5.992c-2.12-.83-4.114-1.971-5.863-3.371l-5.8203 1.9688c-.60441.21-1.3354-.06327-1.6602-.61328l-5.602-9.711c-.030764-.05439-.038302-.11781-.060547-.17578z" opacity=".2"/></svg>