<svg height="64" width="64" xmlns="http://www.w3.org/2000/svg"><path d="m4 56v2c0 1.662 1.338 3 3 3h50c1.662 0 3-1.338 3-3v-2c0 1.662-1.338 3-3 3h-50c-1.662 0-3-1.338-3-3z" opacity=".2"/><rect fill="#69c276" height="56" rx="3" transform="matrix(0 -1 -1 0 0 0)" width="56" x="-60" y="-60"/><path d="m7 4c-1.662 0-3 1.338-3 3v1c0-1.662 1.338-3 3-3h50c1.662 0 3 1.338 3 3v-1c0-1.662-1.338-3-3-3z" fill="#fff" opacity=".1"/><path d="m32.003906 21-.003906.003906c-4.1948 0-7.778872 1.553442-9.263672 3.75-.12464.184409-.234065.371452-.328125.564453-.0894.183419-.166382.36836-.226562.558594a10 5.997852 0 0 0 -.04297.175781c-.03428.128922-.07144.259094-.0918.390625a10 5.997852 0 0 0 -.046871.558594c.00055.19489.01874.388783.05078.582031a10 5.997852 0 0 0 .136719.5625 10 5.997852 0 0 0 .230469.560547 10 5.997852 0 0 0 .318359.544922 10 5.997852 0 0 0 9.263673 3.748047 10 5.997852 0 0 0 9.263672-3.748047 10 5.997852 0 0 0 .002-.0059 10 5.997852 0 0 0 .271484-.462891c.0158-.03041.03572-.06128.05078-.0918a10 5.997852 0 0 0 .164062-.398437c.02332-.06275.05233-.124344.07227-.1875a10 5.997852 0 0 0 .08203-.333985c.0192-.08794.03997-.173259.05273-.261718a10 5.997852 0 0 0 .040972-.507769 10 5.997852 0 0 0 -.052734-.597656c-.092-.584783-.329688-1.136988-.679688-1.654297-1.486-2.197435-5.069672-3.75-9.263672-3.75zm-9.267578 11a10 5.09051 0 0 0 -.736328 1.910156 10 5.09051 0 0 0 10 5.089844 10 5.09051 0 0 0 10-5.091797 10 5.09051 0 0 0 -.736328-1.908203 10 5.09051 0 0 1 -9.263672 3.181641 10 5.09051 0 0 1 -9.263672-3.181641zm0 6a10 5.09051 0 0 0 -.736328 1.908203 10 5.09051 0 0 0 10 5.091797 10 5.09051 0 0 0 10-5.089844 10 5.09051 0 0 0 -.736328-1.910156 10 5.09051 0 0 1 -9.263672 3.183594 10 5.09051 0 0 1 -9.263672-3.183594z" opacity=".1"/><path d="m32.003906 20-.003906.003906c-4.1948 0-7.778872 1.553442-9.263672 3.75-.12464.184409-.234065.371452-.328125.564453-.0894.183419-.166382.36836-.226562.558594a10 5.997852 0 0 0 -.04297.175781c-.03428.128922-.07144.259094-.0918.390625a10 5.997852 0 0 0 -.046871.558594c.00055.19489.01874.388783.05078.582031a10 5.997852 0 0 0 .136719.5625 10 5.997852 0 0 0 .230469.560547 10 5.997852 0 0 0 .318359.544922 10 5.997852 0 0 0 9.263673 3.748047 10 5.997852 0 0 0 9.263672-3.748047 10 5.997852 0 0 0 .002-.0059 10 5.997852 0 0 0 .271484-.462891c.0158-.03041.03572-.06128.05078-.0918a10 5.997852 0 0 0 .164062-.398437c.02332-.06275.05233-.124344.07227-.1875a10 5.997852 0 0 0 .08203-.333985c.0192-.08794.03997-.173259.05273-.261718a10 5.997852 0 0 0 .040972-.507769 10 5.997852 0 0 0 -.052734-.597656c-.092-.584783-.329688-1.136988-.679688-1.654297-1.486-2.197435-5.069672-3.75-9.263672-3.75zm-9.267578 11a10 5.09051 0 0 0 -.736328 1.910156 10 5.09051 0 0 0 10 5.089844 10 5.09051 0 0 0 10-5.091797 10 5.09051 0 0 0 -.736328-1.908203 10 5.09051 0 0 1 -9.263672 3.181641 10 5.09051 0 0 1 -9.263672-3.181641zm0 6a10 5.09051 0 0 0 -.736328 1.908203 10 5.09051 0 0 0 10 5.091797 10 5.09051 0 0 0 10-5.089844 10 5.09051 0 0 0 -.736328-1.910156 10 5.09051 0 0 1 -9.263672 3.183594 10 5.09051 0 0 1 -9.263672-3.183594z" fill="#fff"/></svg>