<svg height="64" width="64" xmlns="http://www.w3.org/2000/svg"><path d="m4.0507997 32.000415c-.0118.333995-.050799.66199-.050799.999985-.0000003 15.511779 12.4878213 27.9996 27.9995993 27.9996s27.9996-12.487821 27.9996-27.9996c0-.337995-.04-.66599-.05-.999985-.527992 15.041785-12.775817 26.999614-27.9496 26.999614-15.174183 0-27.4216079-11.957829-27.9496003-26.999614z" opacity=".2"/><rect fill="#2095f2" height="55.999" ry="28" width="55.999" x="4" y="4"/><g fill="#fff"><path d="m31.9996 4.0008294c-3.531549 0-6.893101.6736904-9.999457 1.8566135-.225997.207677-.519553.3670547-.751949.347255-.0316-.002-.0636-.0238-.0956-.0356-1.531258.6406708-2.983757 1.4256396-4.361338 2.3159669.178998.2904958.232197.6139512-.136798.7710689-.0618.0268-.840788.1049985-1.112864.098399-3.916744 2.8459592-7.0586987 6.6739042-9.06707 11.1424412.032-.004.059999-.02.092999-.0218.3048156-.004.7435494.0834 1.0363052.144998.2701761.0556.488073.236696.7218696.254296.6634706.0504.8230683-.465573 1.3644205-.754669.559292.079.930427-.0948 1.43554-.0382.344315.038.593011.405955.861307.426554.225717.023.424174-.211157.642571-.177797.212177.0326.577992.495373.612491.754689.0436.322755-.237436.613431-.144998.967946.338075.344355.952427.414114 1.43552.612491.314635-.259236.0416-.740329 0-1.115604-.004-.165197.023-.312615 0-.464833-.0306-.257996-.141398-.493993-.143398-.71599-.004-1.021585.824188-1.499578 1.509378-1.902972.296596-.175798.530193-.483794.787589-.612592.363395-.182197.634191-.224596.935187-.393794.543792-.305396 1.010185-.550592 1.435379-.896787.196597-.463214.02-1.084365.0356-1.542158.196797-.120598.365674.052.574211.0356.328216-.0682.355435-.531472.541393-.716389.108398-.105999.404354-.181998.538672-.287116.327015-.256597.433494-.644111.71913-.75467.102398-.0414.338915-.0302.500392-.0738.212577-.0562.515073-.307896.861308-.426574.225737-.079.74237-.0942.828508-.180398.105999-.108398-.002-.412094.0356-.574212.173997-.810428 1.39482-.982206 2.11637-1.255062.505772-.191797 1.024765-.542492 1.580457-.434753-.108798.385154-.626431.248696-.538672.716389.120998.649071.990285-.185997 1.219522-.281636.438014-.184597 1.188983-.297355 1.763635-.505852.503913-.184598 1.4074-.4653938.932427-1.0417855-.396115-.023-.587132.4648733-.932427.6124912-.238397.037999-.192997-.1995971-.396474-.2187369-.193398-.023-.301676.1783975-.500373.144998-.197397-.0326-.474953-.3432351-.505853-.5742118-.079-.5993115.506453-.8463679.754669-1.2933415-.164197-.5421123-.914007-.1103984-1.36716-.3226554.0436-.3227354.377674-.5453122.754669-.6070313.309076-.052399 1.002666-.0256 1.186703.139398.106199.090799.006.3170554.180397.4675733.182798.1651976.407875.1481979.645291.1093984.0856-.4090741-.531892-.3064756-.464833-.5769517.484953-.3172355 1.273842-.056799 1.867553-.144998.341795-.050399.70063-.2916758 1.003506-.4620933.288056-.1641977.66235-.4489336.967946-.1803975.0828.2931958-.266116.3902145-.429274.5359324-.549332.488653-1.115204 1.048445-1.542178 1.6159969.261976.2554963.73803.1273981 1.181243.1803974.173198.023.390995.074199.574212.1065985.213957.037999.442134.0274.609751.071199.301556.073999.382275.3964744.680851.3964744.491153-.00088.496993-.5321524.218736-.8640477.088-.3388351.225617-.5145726.106599-.7519492-.219997-.4423937-1.031985-.0228-1.073985-.5741918-.026-.3577949.299996-.3417951.429994-.6095913-.06-.6917901.565992-.7417894.499993-1.3617805-.03-.2591963-.247996-.2627963-.429994-.5057928-.09-.1195983-.137998-.348395-.243996-.4511935-.8359873-.074798-1.6839753-.1203973-2.5419633-.1203973zm-14.448193 5.6491192h.002c.167197.0242.369014.2033771.571471.2187369.191798.004.349635-.1055985.467574-.073799.300195.078999.426794.5324725.144998.7546695-.234597.0294-.326196-.101799-.502993-.071-.487593.0828-.674791 1.037785-1.039185 1.006185-.343595-.0294-.529593-.866387-.180398-1.115584.023-.217597-.158797-.252596-.147598-.467593.103199-.1321981.397995-.2743961.683591-.2515964zm-1.615977.1121984c.1.002.175197.0274.213277.070999-.0474.382595-.346995.357595-.642391.535992-.510593.307996-.805589.777389-.967986 1.43538-.047.191797-.550192.69899-.792989.648191-.569392-.120199.156998-1.169384.286996-1.328981.143598-.176798.336595-.331796.505993-.535993.164197-.197597.270996-.464393.429194-.574192.173397-.1201979.66799-.2629958.967986-.251596zm4.249139 1.290622c.182397.002.346275.0328.421094.106598-.117198.474093-1.138564.348915-1.512078.177797.024-.178797.303655-.227996.538652-.251556.165197-.004.370315-.0382.552332-.0328zm-2.324167.874987c.120998-.002.244417.0236.371875.0574-.329595.276396-.68679.432994-1.254182.612591-.272796.086-.74399.192998-.790189-.112198-.0562-.373395.398794-.286596.647991-.319995.313595-.0436.65799-.225997 1.025385-.237797zm35.65549 2.12737c-.0422.101598-.0734.202317-.0684.300775.023.173198.211917.339875.254297.574212.023.123998-.0584.392574 0 .505853.172797.335255.625211.094.948806.112198-.365995-.506192-.733989-1.013185-1.133984-1.492778zm1.834734 2.469164c-.0512.247357-.219597.569972-.355455.776549-.312935.475953-.737969.498153-1.186703.751949-.374235.212137-.535312.566152-.754689.935127-.237677.398574-.384995.639351-.287096 1.216783-.320795.636331-.806508 1.026185-1.471079 1.328901-.196597.0886-.464953.121198-.645291.251556-.143598.103199-.225256.380495-.429294.609751-.251796.280176-.515692.398415-.64805.612492-.102399.165197-.138798.494393-.251557.716389-.153198.301516-.479633.449214-.68085.75469-.0916.141198-.152798.427493-.254296.612491-.227377.413314-.615952.71109-.574192 1.074584.0414.351295.440334.412895.467553.71913.004.173198-.114398.278896-.106598.467573.004.275457.191597.468874.213277.680851.0534.532992-.181398.745689-.281636 1.110144-.0474.173997-.0274.369895-.0738.505853-.088.266816-.460214.507592-.467554.823028-.002.224177.229917.404454.248817.71913.004.216936-.106599.448573-.0684.64805.0764.390635.773689.844908 1.077324 1.148404.406135.406154.937827.72053 1.112885 1.148423.147397.363415.146197.836269.429273 1.110145.209417.202237.557552.328315.825769.538672.250176.196397.522792.365855.790228.574212.436934.341815 1.097585 1.023205 1.793735.970686.363514-.0266.736069-.323256 1.148423-.396475.424194-.076.974726-.115198 1.4027-.071.327815.0326.665471.228937 1.006246.213277.359795-.023.772369-.288975 1.181223-.467573.328955-.143198.732629-.301836 1.175763-.418354.203177-1.36576.311716-2.76496.311716-4.18894 0-5.733118-1.714356-11.047242-4.648334-15.476379zm-46.3093377 9.408866c-.5963515.0326-.9871459.0598-1.326141.213277-.7768289.353495-.6266711 1.40318-1.40272 1.651536-.2684161.0856-.6369309.09-.9324066.144998-.2550364.0466-.5656919.185997-.8285082.180397-.073599-.001-.1763975-.0558-.2679561-.0848-.069199.492253-.1261982.989925-.1695976 1.490218.7383094.141398 1.119304 1.119984 1.7718546 1.44374.1787975.0886.4124141.0932.6425708.144998.1857974.0414.3268554.120198.5058528.180397.3796946.128998.8447279.113398 1.1484236.248816.4576534.203098.7931487 1.063125 1.186703 1.293342.023.231997-.045199.543432.0356.71641.1857974.252096.4483936.196597.7546689.360935.366415.197597.478533.708049.825769.864047.119998.0532.420374.0464.609771.103799.475853.143998.631191.69455 1.039045.574212.267536-.079.246516-.354035.289836-.609752.176797-.191797.369695-.495013.645311-.500393.446033-.023.485753.460914.64803.894128.0914.244796.331196.458173.393735.716409.111398.446074.0558 1.781355-.0382 2.047971-.112198.327095-.555452.465833-.828508.828508-.128998.169998-.190197.419134-.287116.538653-.175797.213976-.437174.270056-.568732.467573-.074.111198-.146198.350015-.218757.500393-.215596.456773-.503972.780449-.322635 1.328881.076.225736.428394.376914.429274.642571.00098.312555-.664831.592431-.71639.935146-.038.254936.206237.71001.287116 1.041785.0592.250717.533052.407414.68085.574212.251997.282916.453354.68369.683571 1.039045.455213.69893.811868 1.551318 1.255062 2.228568.234236.354675.563072.673591.719129 1.041765.0796.185798.0688.407255.142198.574212.256577.579072 1.3895 1.183643 1.974192 1.471079.273696.132798.577332.180798.828488.319916.380455.212177 1.134104.781988 1.326161 1.115604.170998.299875.277716 1.029785.360935 1.506618.111198.630151.0012 1.113984.0356 1.796474.023.369035.140998.74015.144997 1.110125.0014.129598-.068.225976-.0738.358194-.0002.0218.006.0462.006.0684 3.52615 1.595778 7.433694 2.504565 11.569035 2.504565.747149 0 1.485499-.0388 2.217568-.0958.0318-.0552.0616-.112398.101199-.163998.168397-.221197.318135-.414954.429294-.609771.105998-.655451-.261397-1.113324-.106599-1.687076.171398-.644511 1.062485-1.038105 1.687076-1.328881.214857-.0998.434774-.261916.609751-.322655.432274-.150398.971946-.0692 1.367181-.213277.67261-.246157.742869-.967646 1.074584-1.580458.156398-.290215.363075-.580791.393755-.787488.0266-.185798-.068-.360595-.0382-.579672.0326-.216937.226937-.404314.287096-.642571.079-.310955.112199-.766489.112199-1.112884 0-.284276-.132998-.533752-.144998-.790209-.0466-.931166.336315-1.035385.68085-1.542178.172998-.251736.237557-.538712.358195-.719129.578372-.862908 1.581937-1.279502 1.509358-2.583963-.024-.431634-.294955-1.40712-.612491-1.544898-.181797-.079-.598511-.004-.861328-.106599-.848527-.316535-1.34656-1.36836-2.225768-1.435519-.187797-.023-.360155.077-.571472.0738-.348015-.023-.872507-.243757-1.257782-.287116-.244796-.0266-.572171.073-.719149 0-.224137-.108999-.246957-.522133-.429274-.645291-.144398-.0996-.426034-.133798-.645311-.218757-.353535-.135798-.633851-.294236-1.041785-.322655-.125998-.004-.282716.0606-.429294.0382-.225717-.038-.404214-.305275-.612491-.432014-.260836-.158797-.501893-.235616-.609751-.462113.235736-.773249-.415695-.988766-.574212-1.435519-.076-.209357-.0408-.461274-.106599-.648031-.0936-.267536-.358095-.422134-.64803-.645311-.519473-.399814-.980246-.775209-1.722636-.866788-.326395-.0414-.650211.0978-1.044505.0738-.417894-.0266-.942486-.391954-1.255062-.749209-.303856-.348755-.451673-.66177-.71641-.828508-.250756-.161198-.583431-.156598-.754669-.319915-.0764-.071-.0632-.193198-.144998-.360935-.126198-.261117-.337735-.406254-.180397-.71913-.286036-.146998-.293976.273016-.607012.218757-.279056-.396074-.514752-.583732-1.148423-.467573-.290176.0534-.452094.420174-.790229.429293-.277276.023-.495093-.308915-.861308-.360934-.276416-.038-.590731.0752-.787488.0382-.306396-.0614-.400975-.316335-.680851-.500393-.205217-.134998-.604011-.364595-.719129-.360935-.360835.023-.617991.766829-1.115604.503133-.241837-.306455.393914-.467953.106598-.754689-.217577-.217577-.400254.0984-.574192.218757-.199397.137798-.386714.273916-.607031.355455-.493133.184597-.801308.088-1.186703.287116-.356835.184797-.372015.494073-.574212.861307-.165197.300856-.541832.73925-.790228.75741-.300196.026-.587792-.417995-.860588-.535993-.822188-.355995-1.220583.315996-1.903173.323996-.633591.024-1.538378-1.021986-1.506578-1.617977.004-.363475.209017-.914827.251556-1.364441.038-.357615.282976-.573172.287096-.899587.004-.436054-.578412-.771309-.861308-.823048-.6707302-.123398-1.6019769.269836-2.3707659-.0382-.1469979-.243276.1717976-.411374.2542964-.64803.046599-.134598.02-.314116.068399-.462094.085199-.228636.3247954-.405814.4320138-.64805.079999-.184798.099999-.451494.1803975-.680851.093599-.261136.2669161-.429334.2870959-.612491.0266-.241817-.064799-.521373-.2542964-.68085zm9.5974627 7.598691c.243337.023.273796.525573.0246.566012-.268436.0416-.404894-.420994-.144998-.541392.0436-.023.0862-.0244.120398-.0218v-.002z" opacity=".5"/><path d="m32 4c-15.511778 0-28 12.488222-28 28 0 .113554.0112846.224034.0175781.335938.3515382-15.20154 12.6933679-27.335938 27.9824219-27.335938s27.630884 12.134398 27.982422 27.335938c.006375-.111904.017578-.222384.017578-.335938 0-15.511778-12.488222-28-28-28z" opacity=".2"/></g></svg>