<svg height="64" width="64" xmlns="http://www.w3.org/2000/svg"><path d="m4.0004 52.000037v1.999993s0 3.01199 2.9999899 2.99999l50.1998321-.199219c1.549995-.006 2.79999-1.247996 2.79999-2.799991v-1.999993c0 1.551195-1.249575 2.79479-2.80079 2.80079l-50.199832.2 50.187832-.188c.775597-.003 1.493895-.307159 1.999993-.812497-.547798.599558-1.307615.999997-2.187593.999997h-49.9998321c-2.9999899.012-2.9999899-2.99999-2.9999899-2.99999zm2.9999899 4.999983h49.9998321c.879878 0 1.639695-.400439 2.187593-.999997-.506098.505339-1.224396.809498-1.999993.812498l-50.187832.187999z" opacity=".2"/><path d="m7.0003899 8.0001876c-1.6619944 0-2.9999899 1.3379955-2.9999899 2.9999904v32.999889h55.999812v-32.999889c0-1.6619949-1.337995-2.9999904-2.99999-2.9999904zm52.7498231 46.0618454c-.141399.334739-.309439.684818-.562498.937497.254119-.278119.427239-.577738.562498-.937497zm-.562498.937497c-.506098.505338-1.224396.809497-1.999993.812497l-50.187832.188h49.999832c.879878 0 1.639695-.400439 2.187593-.999997z" fill="#ff766a"/><path d="m7 8c-1.6619944 0-3 1.3380051-3 3v1c0-1.661995 1.3380056-3 3-3h50c1.661995 0 3 1.338005 3 3v-1c0-1.6619949-1.338005-3-3-3z" fill="#fff" opacity=".2"/><path d="m44.000066 19.000053c4.418185 0 7.999973 3.581788 7.999973 7.999974 0 4.418185-3.581788 7.999973-7.999973 7.999973s-7.999973-3.581788-7.999973-7.999973c0-4.418186 3.581788-7.999974 7.999973-7.999974z" fill-rule="evenodd" opacity=".2"/><path d="m44.000066 18.000154c4.418185 0 7.999973 3.581788 7.999973 7.999973s-3.581788 7.999974-7.999973 7.999974-7.999973-3.581789-7.999973-7.999974 3.581788-7.999973 7.999973-7.999973z" fill="#fffee4" fill-rule="evenodd"/><path d="m4.0004 44.000067v8.99997s0 3.01199 2.9999899 2.99999l50.1998321-.2c1.551195-.006 2.79999-1.248795 2.79999-2.79999v-8.99997z" fill="#d22f7a"/><path d="m4.0004 44.000067v-1.599995s4.0383865-2.666591 5.1735827-2.89919c1.1353563-.232639 2.4761913-.0434 3.8541873.216799 1.377975.259199 3.435188.609758 4.077186.631678.642078.0224 1.803954-.056 3.15399-.137599 1.349995-.08 3.585188-.1536 4.282385-.1456.697218 0 2.437792.096 4.292986.209259 1.855334.1136 4.403585.303379 4.981783.356479.578198.0528 1.257816.1504 2.029193.256819.771258.1056 2.106593.2651 2.578792.308959.472338.043 1.567434.1938 2.83799.310719 1.270596.1168 3.303989.1568 3.891187.1136.587218-.0434 1.818054-.478078 3.189789-.878877 1.371636-.400639 2.884191-.767518 4.034587-.676798 1.150456.091 7.622174 2.333592 7.622174 2.333592v1.599995h-49.199835z"/><path d="m63.957999 46.894054a14.99995 14.99995 0 0 1 -14.95795 14.105953 14.99995 14.99995 0 0 1 -14.95795-13.893954 14.99995 14.99995 0 0 0 -.042.893997 14.99995 14.99995 0 0 0 14.99995 14.99995 14.99995 14.99995 0 0 0 14.99995-14.99995 14.99995 14.99995 0 0 0 -.042-1.105996z" opacity=".2"/><circle cx="49" cy="47" fill="#9d75da" fill-rule="evenodd" r="15"/><path d="m48.96598 56.000027-5.96598-7.999973h3.999986v-7.999974h3.999987v7.999974h3.999986z" fill="#fff"/></svg>