<svg height="64" width="64" xmlns="http://www.w3.org/2000/svg"><path d="m4.0004 52.000036v1.999994s0 3.01199 2.9999899 2.99999l50.1998321-.19922c1.549995-.006 2.79999-1.247995 2.79999-2.79999v-1.999994c0 1.551195-1.249575 2.794791-2.80079 2.800791l-50.199832.199999 50.187832-.187999c.775597-.003 1.493895-.307159 1.999993-.812497-.547798.599558-1.307615.999996-2.187593.999996h-49.9998321c-2.9999899.012-2.9999899-2.99999-2.9999899-2.99999zm2.9999899 4.999984h49.9998321c.879878 0 1.639695-.400439 2.187593-.999997-.506098.505338-1.224396.809497-1.999993.812497l-50.187832.188z" opacity=".2"/><path d="m7.0003899 8.0001862c-1.6619944 0-2.9999899 1.3379955-2.9999899 2.9999898v32.99989h55.999812v-32.99989c0-1.6619943-1.337995-2.9999898-2.99999-2.9999898zm52.7498231 46.0618458c-.141399.334739-.309439.684818-.562498.937497.254119-.278119.427239-.577738.562498-.937497zm-.562498.937497c-.506098.505338-1.224396.809497-1.999993.812497l-50.187832.187999h49.999832c.879878 0 1.639695-.400438 2.187593-.999996z" fill="#ff766a"/><path d="m7 8c-1.6619944 0-3 1.3380057-3 3v1c0-1.661994 1.3380056-3 3-3h50c1.661995 0 3 1.338006 3 3v-1c0-1.6619943-1.338005-3-3-3z" fill="#fff" opacity=".2"/><path d="m44.000066 19.000054c4.418185 0 7.999973 3.581788 7.999973 7.999973s-3.581788 7.999973-7.999973 7.999973-7.999973-3.581788-7.999973-7.999973 3.581788-7.999973 7.999973-7.999973z" fill-rule="evenodd" opacity=".2"/><path d="m44.000066 18.000153c4.418185 0 7.999973 3.581788 7.999973 7.999973s-3.581788 7.999973-7.999973 7.999973-7.999973-3.581788-7.999973-7.999973 3.581788-7.999973 7.999973-7.999973z" fill="#fffee4" fill-rule="evenodd"/><path d="m4.0004 44.000066v8.999969s0 3.01199 2.9999899 2.99999l50.1998321-.199999c1.551195-.006 2.79999-1.248796 2.79999-2.799991v-8.999969z" fill="#d22f7a"/><path d="m4.0004 44.000066v-1.599995s4.0383865-2.666591 5.1735827-2.89919c1.1353563-.23264 2.4761913-.0434 3.8541873.216799 1.377975.259199 3.435188.609758 4.077186.631678.642078.0224 1.803954-.056 3.15399-.1376 1.349995-.08 3.585188-.153599 4.282385-.145599.697218 0 2.437792.096 4.292986.209259 1.855334.1136 4.403585.303379 4.981783.356479.578198.0528 1.257816.150399 2.029193.256819.771258.1056 2.106593.265099 2.578792.308959.472338.043 1.567434.193799 2.83799.310719 1.270596.1168 3.303989.156799 3.891187.1136.587218-.0434 1.818054-.478079 3.189789-.878877 1.371636-.400639 2.884191-.767518 4.034587-.676798 1.150456.091 7.622174 2.333592 7.622174 2.333592v1.599995h-49.199835z"/><path d="m63.957999 45.848057a15.999946 15.999946 0 0 1 -15.957946 15.151949 15.999946 15.999946 0 0 1 -15.957947-14.84795 15.999946 15.999946 0 0 0 -.042.847997 15.999946 15.999946 0 0 0 15.999947 15.999947 15.999946 15.999946 0 0 0 15.999946-15.999947 15.999946 15.999946 0 0 0 -.04296-1.152336z" fill-rule="evenodd" opacity=".2"/><circle cx="48" cy="46" fill="#42cd4f" fill-rule="evenodd" r="16"/><path d="m48 37a9 9 0 0 0 -9 9 9 9 0 0 0 9 9 9 9 0 0 0 8.474609-6h-3.285156a6 6 0 0 1 -5.189453 3 6 6 0 0 1 -6-6 6 6 0 0 1 6-6 6 6 0 0 1 4.710938 2.289062l-2.710938 2.710938h3.5.414062 3.025391.060547v-3.5-3.5l-2.160156 2.160156a9 9 0 0 0 -6.839844-3.160156z" fill="#fff"/></svg>