<svg height="64" width="64" xmlns="http://www.w3.org/2000/svg"><path d="m4 56v2c0 1.662 1.338 3 3 3h50c1.662 0 3-1.338 3-3v-2c0 1.662-1.338 3-3 3h-50c-1.662 0-3-1.338-3-3z" opacity=".2"/><rect fill="#ccc" height="56" rx="3" transform="matrix(0 -1 -1 0 0 0)" width="56" x="-60" y="-60"/><path d="m7 4c-1.662 0-3 1.338-3 3v1c0-1.662 1.338-3 3-3h50c1.662 0 3 1.338 3 3v-1c0-1.662-1.338-3-3-3z" fill="#fff" opacity=".1"/><g fill="#4d4d4d"><circle cx="32" cy="32" r="6"/><circle cx="46" cy="48" r="6"/><circle cx="16" cy="16" r="6"/><circle cx="46" cy="-16" r="6" transform="scale(1 -1)"/><circle cx="16" cy="-48" r="6" transform="scale(1 -1)"/></g></svg>