<svg height="64" width="64" xmlns="http://www.w3.org/2000/svg"><path d="m4.0000004 56.200069v1.999971c0 1.549978 1.2495821 2.79996 2.80076 2.79996h50.3992796c1.549977 0 2.79996-1.249982 2.79996-2.79996v-1.999971c0 1.549977-1.249983 2.79996-2.79996 2.79996h-50.3992796c-1.5503779 0-2.79996-1.249983-2.79996-2.79996z" opacity=".2"/><rect fill="#4e91d9" height="55.999" rx="2.8" transform="matrix(0 -1 -1 0 0 0)" width="55.999" x="-60" y="-60"/><path d="m6.8007812 4c-1.5511778 0-2.8007812 1.2496034-2.8007812 2.8007812v1.0019532c0-1.5511778 1.2496034-2.8007813 2.8007812-2.8007813h50.3984378c1.549977 0 2.800781 1.2496035 2.800781 2.8007813v-1.0019532c0-1.5511777-1.250804-2.8007812-2.800781-2.8007812z" fill="#fff" opacity=".2"/><g opacity=".2" transform="matrix(1.9999714 0 0 -1.9999714 .000058 1.000744)"><circle cx="16" cy="-16" r="3"/><circle cx="9" cy="-16" r="3"/><circle cx="23" cy="-16" r="3"/><circle cx="16" cy="-9" r="3"/><circle cx="9" cy="-9" r="3"/><circle cx="23" cy="-9" r="3"/><circle cx="16" cy="-23" r="3"/><circle cx="9" cy="-23" r="3"/><circle cx="23" cy="-23" r="3"/></g><g fill="#ffd060" transform="scale(1 -1)"><circle cx="32" cy="-32" r="6"/><circle cx="45.999" cy="-18.001" r="6"/><circle cx="18" cy="-46" r="6"/></g><g fill="#aff" transform="matrix(1.9999714 0 0 -1.9999714 .000058 .000887)"><circle cx="9" cy="-16" r="3"/><circle cx="23" cy="-16" r="3"/><circle cx="16" cy="-9" r="3"/><circle cx="9" cy="-9" r="3"/><circle cx="16" cy="-23" r="3"/><circle cx="23" cy="-23" r="3"/></g></svg>