<svg height="64" width="64" xmlns="http://www.w3.org/2000/svg"><path d="m4.0000005 56.000177v1.999929c0 1.661941 1.3379527 2.999894 2.9998938 2.999894h49.9982297c1.661942 0 2.999894-1.337953 2.999894-2.999894v-1.999929c0 1.661941-1.337952 2.999894-2.999894 2.999894h-49.9982297c-1.6619411 0-2.9998938-1.337953-2.9998938-2.999894z" opacity=".2"/><rect fill="#dcdcbe" height="55.998" rx="3" transform="matrix(0 -1 -1 0 0 0)" width="55.998" x="-60" y="-60"/><path d="m6.9998943 4.0020532c-1.6619411 0-2.9998938 1.3379526-2.9998938 2.9998938v49.99823c0 1.661941 1.3379527 2.999894 2.9998938 2.999894h49.9982297c1.661942 0 2.999894-1.337953 2.999894-2.999894v-49.99823c0-1.6619412-1.337952-2.9998938-2.999894-2.9998938zm-.9999646 1.9999292h3.9998584v3.9998586h-3.9998584zm5.9997873 0h3.999859v3.9998586h-3.999859zm5.999788 0h3.999858v3.9998586h-3.999858zm5.999788 0h3.999858v3.9998586h-3.999858zm5.999787 0h3.999859v3.9998586h-3.999859zm5.999788 0h3.999858v3.9998586h-3.999858zm5.999787 0h3.999859v3.9998586h-3.999859zm5.999788 0h3.999858v3.9998586h-3.999858zm5.999788 0h3.999858v3.9998586h-3.999858zm-47.9983013 5.9997876h3.9998584v3.999858h-3.9998584zm5.9997873 0h3.999859v3.999858h-3.999859zm5.999788 0h3.999858v3.999858h-3.999858zm5.999788 0h3.999858v3.999858h-3.999858zm5.999787 0h3.999859v3.999858h-3.999859zm5.999788 0h3.999858v3.999858h-3.999858zm5.999787 0h3.999859v3.999858h-3.999859zm5.999788 0h3.999858v3.999858h-3.999858zm5.999788 0h3.999858v3.999858h-3.999858zm-47.9983013 5.999788h3.9998584v3.999858h-3.9998584zm5.9997873 0h3.999859v3.999858h-3.999859zm5.999788 0h3.999858v3.999858h-3.999858zm5.999788 0h3.999858v3.999858h-3.999858zm5.999787 0h3.999859v3.999858h-3.999859zm5.999788 0h3.999858v3.999858h-3.999858zm5.999787 0h3.999859v3.999858h-3.999859zm5.999788 0h3.999858v3.999858h-3.999858zm5.999788 0h3.999858v3.999858h-3.999858zm-47.9983013 5.999787h3.9998584v3.999859h-3.9998584zm5.9997873 0h3.999859v3.999859h-3.999859zm5.999788 0h3.999858v3.999859h-3.999858zm5.999788 0h3.999858v3.999859h-3.999858zm5.999787 0h3.999859v3.999859h-3.999859zm5.999788 0h3.999858v3.999859h-3.999858zm5.999787 0h3.999859v3.999859h-3.999859zm5.999788 0h3.999858v3.999859h-3.999858zm5.999788 0h3.999858v3.999859h-3.999858zm-47.9983013 5.999788h3.9998584v3.999858h-3.9998584zm5.9997873 0h3.999859v3.999858h-3.999859zm5.999788 0h3.999858v3.999858h-3.999858zm5.999788 0h3.999858v3.999858h-3.999858zm5.999787 0h3.999859v3.999858h-3.999859zm5.999788 0h3.999858v3.999858h-3.999858zm5.999787 0h3.999859v3.999858h-3.999859zm5.999788 0h3.999858v3.999858h-3.999858zm5.999788 0h3.999858v3.999858h-3.999858zm-47.9983013 5.999787h3.9998584v3.999859h-3.9998584zm5.9997873 0h3.999859v3.999859h-3.999859zm5.999788 0h3.999858v3.999859h-3.999858zm5.999788 0h3.999858v3.999859h-3.999858zm5.999787 0h3.999859v3.999859h-3.999859zm5.999788 0h3.999858v3.999859h-3.999858zm5.999787 0h3.999859v3.999859h-3.999859zm5.999788 0h3.999858v3.999859h-3.999858zm5.999788 0h3.999858v3.999859h-3.999858zm-47.9983013 5.999788h3.9998584v3.999858h-3.9998584zm5.9997873 0h3.999859v3.999858h-3.999859zm5.999788 0h3.999858v3.999858h-3.999858zm5.999788 0h3.999858v3.999858h-3.999858zm5.999787 0h3.999859v3.999858h-3.999859zm5.999788 0h3.999858v3.999858h-3.999858zm5.999787 0h3.999859v3.999858h-3.999859zm5.999788 0h3.999858v3.999858h-3.999858zm5.999788 0h3.999858v3.999858h-3.999858zm-47.9983013 5.999788h3.9998584v3.999858h-3.9998584zm5.9997873 0h3.999859v3.999858h-3.999859zm5.999788 0h3.999858v3.999858h-3.999858zm5.999788 0h3.999858v3.999858h-3.999858zm5.999787 0h3.999859v3.999858h-3.999859zm5.999788 0h3.999858v3.999858h-3.999858zm5.999787 0h3.999859v3.999858h-3.999859zm5.999788 0h3.999858v3.999858h-3.999858zm5.999788 0h3.999858v3.999858h-3.999858zm-47.9983013 5.999787h3.9998584v3.999859h-3.9998584zm5.9997873 0h3.999859v3.999859h-3.999859zm5.999788 0h3.999858v3.999859h-3.999858zm5.999788 0h3.999858v3.999859h-3.999858zm5.999787 0h3.999859v3.999859h-3.999859zm5.999788 0h3.999858v3.999859h-3.999858zm5.999787 0h3.999859v3.999859h-3.999859zm5.999788 0h3.999858v3.999859h-3.999858zm5.999788 0h3.999858v3.999859h-3.999858z" fill="#00008b" opacity=".1"/><path d="m7 4.0019531c-1.6619411 0-3 1.3380588-3 3v1c0-1.6619412 1.3380589-3 3-3h49.998047c1.661942 0 3 1.3380588 3 3v-1c0-1.6619412-1.338058-3-3-3z" fill="#fff" opacity=".1"/><g fill="#ff2f2f" stroke-width="1.9999292"><path d="m4.001980976 31.995472572h7.9997168v1.9999292h-7.9997168z"/><path d="m16.001556176 31.995472572h7.9997168v1.9999292h-7.9997168z"/><path d="m28.001131376 31.995472572h7.9997168v1.9999292h-7.9997168z"/><path d="m40.000706576 31.995472572h7.9997168v1.9999292h-7.9997168z"/><path d="m52.000281776 31.995472572h7.9997168v1.9999292h-7.9997168z"/></g><path d="m10.999753 41.000743s14.414889 8.001917 19.999292 3.999859c10.815817-7.751126-10.615224-27.765017 1.999929-31.998867 8.328305-2.794701 17.999363 15.999433 17.999363 15.999433" fill="none" stroke="#2e2e2e" stroke-linecap="round" stroke-linejoin="round" stroke-width="1.999929"/></svg>