<svg height="64" viewBox="0 0 16.933 16.933" width="64" xmlns="http://www.w3.org/2000/svg" xmlns:xlink="http://www.w3.org/1999/xlink"><linearGradient id="a" gradientUnits="userSpaceOnUse" x1="2.2989" x2="2.2989" y1="6.3922" y2="5.419"><stop offset="0" stop-color="#afd2f5"/><stop offset="1" stop-color="#fff"/></linearGradient><filter id="b" color-interpolation-filters="sRGB" height="1.072" width="1.072" x="-.036" y="-.036"><feGaussianBlur stdDeviation=".014529375"/></filter><linearGradient id="c" gradientUnits="userSpaceOnUse" x1="6.75058266" x2="16.8943941" y1="6.38853538" y2="16.40391988"><stop offset="0" stop-color="#0578d2"/><stop offset="1" stop-color="#0a5091"/></linearGradient><linearGradient id="d" gradientTransform="matrix(-.88682 0 0 .88682 37.812 -8.5646)" gradientUnits="userSpaceOnUse" x1="31.796" x2="40.362" y1="12.285" y2="22.221"><stop offset="0" stop-color="#28bef0"/><stop offset="1" stop-color="#28b4f5"/></linearGradient><filter id="e" color-interpolation-filters="sRGB" height="1.168" width="1.168" x="-.084" y="-.084"><feGaussianBlur stdDeviation=".39816695"/></filter><g fill="#5e4aa6" stroke-width=".26458"><circle cx="-266.953" cy="-348.827" r="0"/><circle cx="23.951" cy="-14.006" fill-rule="evenodd" r="0"/><circle cx="-251.243" cy="-331.877" r="0"/><g image-rendering="optimizeSpeed"><g><circle cx="-283.173" cy="-344.375" r="0"/><circle cx="-264.933" cy="-342.245" r="0"/><circle cx="-258.843" cy="-349.065" r="0"/><circle cx="-261.663" cy="-342.005" r="0"/></g><g><circle cx="-283.173" cy="-344.375" r="0"/><circle cx="-264.933" cy="-342.245" r="0"/><circle cx="-258.843" cy="-349.065" r="0"/><circle cx="-261.663" cy="-342.005" r="0"/></g></g></g><g transform="translate(-.7517 -.50161)"><path d="m6.8523 1.1893a5.0446 5.0446 0 0 1 3.6409 1.477 5.0446 5.0446 0 0 1 0 7.1343 5.0446 5.0446 0 0 1 -5.6523 1.0201l-2.86.862c-.39953.12042-.62451-.10456-.50409-.50409l.86062-2.855a5.0446 5.0446 0 0 1 1.0215-5.6573 5.0446 5.0446 0 0 1 3.4934-1.477z" fill="url(#d)"/><path d="m11.05 5.0283a5.4518 5.4518 0 0 0 -3.9349 1.5962 5.4518 5.4518 0 0 0 0 7.7102 5.4518 5.4518 0 0 0 6.1086 1.1025l3.0909.93159c.43178.13014.67492-.113.54479-.54479l-.9301-3.0855a5.4518 5.4518 0 0 0 -1.1039-6.114 5.4518 5.4518 0 0 0 -3.7754-1.5962z" filter="url(#e)" opacity=".6" transform="matrix(.93579 0 0 .92698 .28834 .6556)"/><path d="m11.05 5.0283a5.4518 5.4518 0 0 0 -3.9349 1.5962 5.4518 5.4518 0 0 0 0 7.7102 5.4518 5.4518 0 0 0 6.1086 1.1025l3.0909.93159c.43178.13014.67492-.113.54479-.54479l-.9301-3.0855a5.4518 5.4518 0 0 0 -1.1039-6.114 5.4518 5.4518 0 0 0 -3.7754-1.5962z" fill="url(#c)"/></g><g transform="matrix(1.4844 0 0 1.4844 9.01932 1.34415)"><circle cx="2.3168" cy="5.9078" filter="url(#b)" opacity=".4" r=".48431" transform="matrix(1.0299 0 0 1.0505 -.069238 -.27255)"/><circle cx="2.3168" cy="5.9078" fill="url(#a)" r=".48431"/></g><g transform="matrix(1.4844 0 0 1.4844 6.83772 1.34415)"><circle cx="2.3168" cy="5.9078" filter="url(#b)" opacity=".4" r=".48431" transform="matrix(1.0299 0 0 1.0505 -.069238 -.27255)"/><circle cx="2.3168" cy="5.9078" fill="url(#a)" r=".48431"/></g><g transform="matrix(1.4844 0 0 1.4844 4.65612 1.34415)"><circle cx="2.3168" cy="5.9078" filter="url(#b)" opacity=".4" r=".48431" transform="matrix(1.0299 0 0 1.0505 -.069238 -.27255)"/><circle cx="2.3168" cy="5.9078" fill="url(#a)" r=".48431"/></g></svg>