<svg height="64" viewBox="0 0 16.933 16.933" width="64" xmlns="http://www.w3.org/2000/svg" xmlns:xlink="http://www.w3.org/1999/xlink"><linearGradient id="a" gradientUnits="userSpaceOnUse" x1="-86.517" x2="-86.517" y1="3.4395" y2="17.991"><stop offset="0" stop-color="#50d2ff"/><stop offset="1" stop-color="#19a0e6"/></linearGradient><linearGradient id="b" gradientUnits="userSpaceOnUse" x1="-86.411" x2="-86.411" y1="3.4395" y2="17.991"><stop offset="0" stop-color="#28a0f5"/><stop offset="1" stop-color="#057ddc"/></linearGradient><linearGradient id="c" gradientUnits="userSpaceOnUse" x1="-86.411" x2="-86.411" y1="3.4395" y2="17.991"><stop offset="0" stop-color="#2864b4"/><stop offset="1" stop-color="#0a4682"/></linearGradient><filter id="d" color-interpolation-filters="sRGB" height="1.1544" width="1.1843" x="-.092129" y="-.077189"><feGaussianBlur stdDeviation=".31484797"/></filter><g fill="#5e4aa6" stroke-width=".26458"><circle cx="-337.339" cy="-345.67" r="0"/><circle cx="-46.435" cy="-10.849" fill-rule="evenodd" r="0"/><circle cx="-321.629" cy="-328.72" r="0"/></g><g fill="url(#b)" transform="matrix(.7884355752 0 0 .7884355752 71.87088064 .432743168)"><path d="m-90.486 12.303v5.1593c0 .14658.05886.279.15451.37465s.22807.15451.37465.15451h7.1436c.14658 0 .279-.05886.37465-.15451s.15451-.22807.15451-.37465v-5.1593c0-2.2719-1.829-4.101-4.101-4.101s-4.101 1.829-4.101 4.101z"/><circle cx="-86.385" cy="5.5561" r="2.1166"/></g><g fill="url(#c)" transform="matrix(.7884355752 0 0 .7884355752 81.279047352 .432743168)"><path d="m-90.486 12.303v5.1593c0 .14658.05886.279.15451.37465s.22807.15451.37465.15451h7.1436c.14658 0 .279-.05886.37465-.15451s.15451-.22807.15451-.37465v-5.1593c0-2.2719-1.829-4.101-4.101-4.101s-4.101 1.829-4.101 4.101z"/><circle cx="-86.385" cy="5.5561" r="2.1166"/></g><g transform="matrix(.86728 0 0 .86728 83.385930656 -.98578)"><path d="m-90.486 12.303v5.1593c0 .14658.05886.279.15451.37465s.22807.15451.37465.15451h7.1436c.14658 0 .279-.05886.37465-.15451s.15451-.22807.15451-.37465v-5.1593c0-2.2719-1.829-4.101-4.101-4.101s-4.101 1.829-4.101 4.101z" filter="url(#d)" opacity=".6" transform="matrix(1.0027 0 0 .89743 .23423 1.534)"/><g fill="url(#a)"><path d="m-90.486 12.303v5.1593c0 .14658.05886.279.15451.37465s.22807.15451.37465.15451h7.1436c.14658 0 .279-.05886.37465-.15451s.15451-.22807.15451-.37465v-5.1593c0-2.2719-1.829-4.101-4.101-4.101s-4.101 1.829-4.101 4.101z"/><circle cx="-86.385" cy="5.5561" r="2.1166"/></g></g></svg>