<svg height="64" viewBox="0 0 16.933 16.933" width="64" xmlns="http://www.w3.org/2000/svg" xmlns:xlink="http://www.w3.org/1999/xlink"><linearGradient id="a" gradientTransform="matrix(1 0 0 .91665 49.175 7.5514)" gradientUnits="userSpaceOnUse" x1="-48.646" x2="-32.772" y1="-3.0915" y2="9.574"><stop offset="0" stop-color="#26b4eb"/><stop offset="1" stop-color="#017adc"/></linearGradient><filter id="b" color-interpolation-filters="sRGB" height="1.1654" width="1.3658" x="-.18292" y="-.08269"><feGaussianBlur stdDeviation=".12760554"/></filter><path d="m16.404 4.7176h-15.875v10.882c0 .40307.32452.72759.72759.72759h14.42c.40308 0 .72759-.32452.72759-.72759z" fill="url(#a)" stroke-width=".95742"/><path d="m1.2565 1.7757c-.40307 0-.72759.32452-.72759.72759v2.2143h15.875v-2.2143c0-.40307-.32452-.72759-.72759-.72759z" fill="#056abe" stroke-width=".95742"/><g fill="#fff"><path d="m5.9693 6.828h1.852v1.852h-1.852z"/><path d="m9.1742 6.828h1.852v1.852h-1.852z"/><path d="m12.379 6.828h1.852v1.852h-1.852z"/><path d="m2.764 12.568h1.852v1.852h-1.852z"/><path d="m5.9693 12.568h1.852v1.852h-1.852z"/><path d="m9.1742 12.568h1.852v1.852h-1.852z"/><path d="m2.764 9.698h1.852v1.852h-1.852z"/><path d="m5.9693 9.698h1.852v1.852h-1.852z"/><path d="m9.1742 9.698h1.852v1.852h-1.852z"/><path d="m12.379 9.698h1.852v1.852h-1.852z"/></g><rect filter="url(#b)" height="3.7036" opacity=".3" ry=".83713" transform="matrix(1.0256 0 0 .7562 15.915 -25.364)" width="1.6743" x="-13.08" y="35.909"/><rect fill="#2ecef2" height="3.7036" ry=".83713" width="1.6743" x="2.5172" y=".60547"/><rect filter="url(#b)" height="3.7036" opacity=".3" ry=".83713" transform="matrix(1.0256 0 0 .7562 26.13 -25.364)" width="1.6743" x="-13.08" y="35.909"/><rect fill="#2ecef2" height="3.7036" ry=".83713" width="1.6743" x="12.742" y=".60547"/></svg>