<svg height="64" viewBox="0 0 16.933 16.933" width="64" xmlns="http://www.w3.org/2000/svg" xmlns:xlink="http://www.w3.org/1999/xlink"><linearGradient id="a"><stop offset="0" stop-color="#aa4664"/><stop offset="1" stop-color="#b44b64"/></linearGradient><linearGradient id="b" gradientTransform="matrix(.83334 0 0 .77657 -10.613 17.118)" gradientUnits="userSpaceOnUse" x1="18.821" x2="31.3" y1="-81.858" y2="-72.986"><stop offset="0" stop-color="#464b4b"/><stop offset="1" stop-color="#1e1e1e"/></linearGradient><linearGradient id="c" gradientUnits="userSpaceOnUse" x1="8.7997" x2="14.091" y1="-42.63342" y2="-42.63342"><stop offset="0" stop-color="#ebebeb"/><stop offset="1" stop-color="#fff"/></linearGradient><filter id="d" color-interpolation-filters="sRGB" height="1.1436" width="1.2024" x="-.10118" y="-.071806"><feGaussianBlur stdDeviation=".22308744"/></filter><linearGradient id="e" gradientUnits="userSpaceOnUse" x1="15.08106" x2="15.08106" xlink:href="#a" y1="-50.53516" y2="-47.3443252"/><linearGradient id="f" gradientUnits="userSpaceOnUse" x1="5.29166" x2="5.29166" xlink:href="#a" y1="-50.53516" y2="-47.3443252"/><linearGradient id="g" gradientUnits="userSpaceOnUse" x1="8.554752" x2="8.554752" xlink:href="#a" y1="-50.53516" y2="-47.3443252"/><linearGradient id="h" gradientUnits="userSpaceOnUse" x1="11.81786" x2="11.81786" xlink:href="#a" y1="-50.53516" y2="-47.3443252"/><linearGradient id="i" gradientTransform="matrix(1 0 0 1.1304 -14.852 43.321)" gradientUnits="userSpaceOnUse" x1="18.821" x2="31.3" y1="-81.858" y2="-72.986"><stop offset="0" stop-color="#fa904f"/><stop offset="1" stop-color="#8c62c2"/></linearGradient><circle cx="-340.54" cy="-381.0405" fill="#5e4aa6" r="0" stroke-width=".26458"/><g transform="translate(-2.1165 52.1215)"><rect fill="url(#i)" height="13.758" ry=".89723" stroke-width="1.0632" width="15.875" x="2.6455" y="-50.534"/><rect fill="url(#i)" height="13.758" ry=".79373" stroke-width="1.0632" width="15.875" x="2.6455" y="-50.534"/><rect fill="url(#b)" height="9.4516" ry=".26458" stroke-width=".80445" width="13.229" x="3.9684" y="-47.359"/><path d="m13.493-43.218-4.3699-3.3114a.46291.42023 0 0 0 -.75917.32778v6.606a.46291.42023 0 0 0 .75917.32778l4.3699-3.3114a.46291.42023 0 0 0 .05554-.58832z" filter="url(#d)" opacity=".5" stroke-width=".004927" transform="matrix(1 0 0 .97742 0 -.61993)"/><path d="m13.929-42.953-4.3699-3.3114a.46291.42023 0 0 0 -.75917.32778v6.606a.46291.42023 0 0 0 .75917.32778l4.3699-3.3114a.46291.42023 0 0 0 .05554-.58832z" fill="url(#c)" stroke-width=".004927"/><path d="m14.023-50.534 1.0583 1.5875-1.0583 1.5875h1.852l1.0583-1.5875-1.0583-1.5875z" fill="url(#e)"/><path d="m4.2333-50.534 1.0583 1.5875-1.0583 1.5875h1.852l1.0583-1.5875-1.0583-1.5875z" fill="url(#f)"/><path d="m7.4964-50.534 1.0583 1.5875-1.0583 1.5875h1.852l1.0583-1.5875-1.0583-1.5875z" fill="url(#g)"/><path d="m10.76-50.534 1.0583 1.5875-1.0583 1.5875h1.852l1.0583-1.5875-1.0583-1.5875z" fill="url(#h)"/></g></svg>