<svg height="64" width="64" xmlns="http://www.w3.org/2000/svg"><path d="m24.851234 5.7080371c-1.26971.2901337-2.505428.665248-3.699155 1.1403394-2.608803 2.5508165-4.24063 6.1571925-4.24063 10.1616775 0 .280536.03379.552474.05459.828011.358318-4.46178 2.736975-8.329696 6.193584-10.6187733.513883-.5544733 1.079754-1.0593579 1.691614-1.5112546zm-4.792905 10.8763139c-.02399.338923-.04999.676246-.04999 1.027166 0 7.728633 6.564499 12.097635 12.853062 13.9972 5.924646 1.789591 13.630885 7.254342 14.182759 14.566671.03199-.385912.05599-.775822.05599-1.171732 0-7.730233-8.092151-13.536906-14.238746-15.394482-6.016626-1.817584-12.273196-5.90465-12.803075-13.024823zm-15.999543 15.410278c-.011397.337923-.046789.669847-.046789 1.011769-.0000003 15.458467 11.842693 27.993602 26.447955 27.993602 3.313243 0 6.346549-.957781 8.700012-2.695384-1.373686.313928-2.777366.541876-4.221036.621858 2.161506-.227948 4.171047-.979776 5.912649-2.133512 1.965551-2.123515 3.15128-4.976863 3.15128-8.392082 0-.331925-.02599-.651851-.04999-.971778-.517881 7.126371-6.352548 11.571355-13.492916 11.571355-14.290134 0-25.9060791-12.007256-26.4019658-27.005828zm55.895225.02399c-.39191 11.543361-7.372315 21.279136-17.094093 25.146253-2.113517 2.065527-4.864888 3.441213-7.92019 3.76114 13.95681-.767825 25.060273-12.955039 25.060273-27.919619 0-.333924-.03599-.65785-.04599-.987774z" opacity=".2"/><path d="m33.545247 60.000457c14.604662 0 26.445956-12.535135 26.445956-27.993602 0-15.459267-11.841294-27.993602-26.445956-27.993602-7.48229 0-13.545304 4.8674875-13.545304 12.597121 0 7.729633 6.566499 12.097435 12.854262 13.996801 6.147995 1.857095 14.236346 7.666848 14.236346 15.396481s-6.064014 13.996801-13.545304 13.996801z" fill="#f65e5e"/><circle cx="-34.005" cy="-19.008" opacity=".2" r="5.999" transform="scale(-1)"/><circle cx="-34.005" cy="-18.01" fill="#fff" r="5.999" transform="scale(-1)"/><path d="m30.445955 4.013253c-14.604262 0-26.4459555 12.534335-26.4459555 27.993602s11.8412935 27.993602 26.4459555 27.993602c7.48129 0 13.545304-4.867488 13.545304-12.597121s-6.566499-12.097435-12.854262-13.996801c-6.146595-1.857575-14.235146-7.666248-14.235146-15.396481 0-7.729633 6.064014-13.996801 13.545304-13.996801z" fill="#8d62ad"/><circle cx="30.006" cy="47.001" opacity=".2" r="5.999"/><g fill="#fff"><circle cx="30.006" cy="46.004" r="5.999"/><path d="m33.544922 4.0136719c-7.48229 0-13.544922 4.8680227-13.544922 12.5976561 0 .164152.019533.317388.025391.478516.269649-7.4226933 6.209047-12.0761721 13.519531-12.0761721 14.446749 0 26.181344 12.2657071 26.433594 27.4941401.002779-.167099.011718-.332199.011718-.5 0-15.459267-11.84065-27.9941401-26.445312-27.9941401zm13.517578 42.5644531c-.293558 7.461438-6.22383 13.421875-13.517578 13.421875 2.388595 0 4.701295-.340203 6.902344-.96875 3.972828-2.439794 6.642578-6.905749 6.642578-12.027344 0-.144071-.021789-.283057-.027344-.425781z" opacity=".2"/><path d="m30.445312 4.0136719c-14.604262 0-26.445312 12.5348741-26.445312 27.9941401 0 .167804.00894.332899.0117188.5.2105465-12.710764 8.4217472-23.3526575 19.5332032-26.5253901 2.022532-1.2420778 4.376887-1.9683783 6.90039-1.96875zm-13.515624 14.4296871c-.007345.189263-.027344.375283-.027344.566407 0 7.730233 8.08778 13.538909 14.234375 15.396484 6.154416 1.859085 12.560482 6.091044 12.830078 13.517578.006338-.174443.025391-.342045.025391-.519531 0-7.729633-6.567706-12.098681-12.855469-13.998047-6.029778-1.822271-13.908979-7.451943-14.207031-14.962891z" opacity=".2"/></g></svg>