<svg height="64" width="64" xmlns="http://www.w3.org/2000/svg"><rect height="16.8" opacity=".2" rx="2.8" transform="matrix(.70710678 -.70710678 .70710678 .70710678 0 0)" width="16.8" x="-9.07" y="11.67"/><rect height="57.999" opacity=".2" rx="29" transform="matrix(0 -1 -1 0 0 0)" width="57.999" x="-62" y="-61"/><rect fill="#597123" height="16.8" rx="2.8" transform="matrix(.70710678 -.70710678 .70710678 .70710678 0 0)" width="16.8" x="-8.38" y="10.98"/><path d="m13.722656 2.9589844c-.715588 0-1.432078.2719217-1.980468.8203125l-7.9179692 7.9199221c-.6743473.674347-.9252784 1.60012-.7695313 2.46875.0988564-.536496.3523724-1.049638.7695313-1.466797l7.9179692-7.9218751c.54839-.5483908 1.26488-.8203125 1.980468-.8203125.715788 0 1.431879.2719217 1.980469.8203125l7.917969 7.9218751c.415551.416169.670298.927778.769531 1.46289.153906-.867472-.097216-1.791529-.769531-2.464843l-7.917969-7.9199221c-.54859-.5483908-1.264681-.8203125-1.980469-.8203125z" fill="#fff" opacity=".1"/><rect fill="#96ba42" height="57.999" rx="29" transform="matrix(0 -1 -1 0 0 0)" width="57.999" x="-61" y="-61"/><circle cx="32" cy="33" opacity=".2" r="21"/><circle cx="32" cy="32.001" fill="#ccc" r="21"/><g opacity=".1" transform="matrix(1.9999662 0 0 1.9999662 -.999752 2.000845)"><circle cx="16.5" cy="23.5" opacity="1" r="1.5"/><circle cx="16.5" cy="7.5" opacity="1" r="1.5"/><g transform="rotate(90)"><circle cx="15.5" cy="-8.5" opacity="1" r="1.5"/><circle cx="15.5" cy="-24.5" opacity="1" r="1.5"/></g></g><rect fill="#f45246" height="18" rx="3" ry="2.572" transform="matrix(.8660254 .50000001 -.50000001 .8660254 0 0)" width="6" x="40.77" y="-3.39"/><circle cx="32" cy="33" opacity=".1" r="5"/><circle cx="32" cy="32.001" fill="#4d4d4d" r="5"/><g fill="#4d4d4d" transform="matrix(1.9999662 0 0 1.9999662 -.999752 1.001048)"><circle cx="16.5" cy="23.5" r="1.5"/><circle cx="16.5" cy="7.5" r="1.5"/><g transform="rotate(90)"><circle cx="15.5" cy="-8.5" r="1.5"/><circle cx="15.5" cy="-24.5" r="1.5"/></g></g><path d="m32 3.0019531c-16.065728 0-29 12.9323179-29 28.9980469 0 .11092.0114739.218793.0175781.328125.3565955-15.751173 13.1425269-28.3261719 28.9824219-28.3261719 15.839896 0 28.625825 12.5749989 28.982422 28.3261719.006142-.109332.017578-.217205.017578-.328125-.000001-16.065729-12.934271-28.9980469-29-28.9980469z" fill="#fff" opacity=".2"/></svg>