<svg height="64" width="64" xmlns="http://www.w3.org/2000/svg"><rect height="56" opacity=".2" rx="2.813" ry="2.8" transform="matrix(0 -1 -1 0 0 0)" width="45" x="-55" y="-60"/><rect fill="#e2d144" height="56" rx="2.813" ry="2.8" transform="matrix(0 -1 -1 0 0 0)" width="45" x="-54" y="-60"/><path d="m12 9h3v22h-3z" opacity=".5"/><path d="m18 9h3v11h-3z" opacity=".5"/><path d="m42 9h3v17h-3z" opacity=".5"/><path d="m8 34v17h11v-17zm3 3h5v11h-5z" opacity=".5"/><path d="m24 9h3v11h-3z" opacity=".5"/><path d="m30 9h3v11h-3z" opacity=".5"/><path d="m36 9h3v11h-3z" opacity=".5"/><path d="m48 9h3v11h-3z" opacity=".5"/><path d="m54 9h3v11h-3z" opacity=".5"/><path d="m6.8007812 9c-1.5511999 0-2.8007812 1.254375-2.8007812 2.8125v1c0-1.558125 1.2495813-2.8125 2.8007812-2.8125h50.3984378c1.5512 0 2.800781 1.254375 2.800781 2.8125v-1c0-1.558125-1.249581-2.8125-2.800781-2.8125z" fill="#fff" opacity=".2"/></svg>