<svg height="64" width="64" xmlns="http://www.w3.org/2000/svg"><path d="m4.0504612 31.925991c-.1470056 3.92215.5036192 7.934303 2.1132806 11.808451 5.9482272 14.314546 22.2608492 21.050803 36.5753952 15.102576 11.098424-4.612176 17.602672-15.45259 17.212657-26.763021-.396015 10.568403-6.772259 20.424779-17.212657 24.762945-14.314546 5.948226-30.627168-.78403-36.5753952-15.098576-1.336651-3.216123-1.9996762-6.53425-2.1132806-9.812375z" opacity=".2"/><path d="m57.837713 21.261546c-5.948227-14.3143458-22.258849-21.04880275-36.573395-15.1011759-14.3147462 5.9482269-21.04880308 22.2588489-15.1015762 36.5733949 5.9482272 14.314546 22.2608492 21.048803 36.5733952 15.100576 14.314546-5.948226 21.048803-22.258849 15.100576-36.573395z" fill="#d2d2d2"/><path d="m32.180734 3.9968876c-3.372128-.0172006-6.798259.5900225-10.134386 1.8632711l7.110271 18.6655123a8.0003052 8.0003052 0 0 1 2.844108-.52802 8.0003052 8.0003052 0 0 1 2.844109.53202l7.114271-18.6773126c-3.102118-1.1810451-6.406244-1.8382701-9.778373-1.8554708zm-26.3130035 18.0426884c-1.2732485 3.336127-1.8806717 6.762258-1.863271 10.134387.017201 3.372128.6784258 6.680254 1.8592709 9.782373l18.6655116-7.110272a8.0003052 8.0003052 0 0 1 -.52802-2.848108 8.0003052 8.0003052 0 0 1 .536021-2.848109zm52.2699945 0-18.664712 7.110271a8.0003052 8.0003052 0 0 1 .52802 2.848109 8.0003052 8.0003052 0 0 1 -.532021 2.840108l18.672713 7.118272c1.182045-3.102119 1.83807-6.410245 1.856071-9.782373.018-3.372129-.586023-6.79826-1.860071-10.134387zm-28.981106 17.426665-7.110271 18.668712c3.336127 1.274049 6.762258 1.882072 10.134386 1.864071 3.372129-.018 6.676255-.674026 9.778373-1.856071l-7.110271-18.672712a8.0003052 8.0003052 0 0 1 -2.848109.52802 8.0003052 8.0003052 0 0 1 -2.844108-.53202z" fill="#e74c3c"/><path d="m32.181641 3.9960938c-3.636138-.0186007-7.341786.6770056-10.919922 2.1640624-11.097624 4.6115758-17.6027526 15.4532408-17.2109378 26.7636718.0004891-.013059.0014458-.026006.0019532-.039062.0290302-10.929625 6.4523906-21.254748 17.2089846-25.7246098 3.578136-1.4870568 7.283784-2.1826632 10.919922-2.1640624 10.904416.0558021 21.19408 6.5317692 25.65625 17.2675782 1.377205 3.313846 2.046096 6.728468 2.121093 10.101562.047003-3.696455-.607527-7.459604-2.121093-11.101562-4.46217-10.735809-14.751834-17.2117762-25.65625-17.2675782z" fill="#fff" opacity=".2"/></svg>