<svg height="64" width="64" xmlns="http://www.w3.org/2000/svg"><path d="m4 56v2c0 1.662 1.338 3 3 3h50c1.662 0 3-1.338 3-3v-2c0 1.662-1.338 3-3 3h-50c-1.662 0-3-1.338-3-3z" opacity=".2"/><rect fill="#ccc" height="56" rx="3" transform="matrix(0 -1 -1 0 0 0)" width="56" x="-60" y="-60"/><path d="m7 4c-1.662 0-3 1.338-3 3v1c0-1.662 1.338-3 3-3h50c1.662 0 3 1.338 3 3v-1c0-1.662-1.338-3-3-3z" fill="#fff" opacity=".1"/><path d="m26.51778 10.3618c-.3282.28948-.41024.72368-.41024 1.23026 0 .9408.32818 2.0986.49228 2.5328 0 0 .64611 4.86565.72815 5.44465-.73844.07236-1.65093.14474-2.14313.28946h-.65638c-1.39482.07238-2.7076.14474-3.282.65132l-.24614.2171.24614.28948c.41024.4342.57434 1.66448.73844 2.9672.41024 2.6776.9025 6.20675 3.364 7.50935l.49228.2171v-.50658s.0822-.2171.0822-.50658c0-.2171-.0822-.57896-.164-1.08552.65638.07236 1.65093.2171 2.14313.2171.08198.57894 2.61547 24.172 2.61547 24.172h.82048s1.20254-23.302 1.20254-24.026c.57432 0 2.8178.07236 3.5562.14474-.164.43422-.82046 2.2434-.82046 2.2434l1.14866-.9408c.3282-.2171 7.4664-6.13435 6.4818-9.89755-.3282-1.23026-1.47686-2.0986-3.364-2.5328h-.1644c-1.06662 0-4.0486.07236-6.51.2171.0822-1.88158.0822-2.69465.0822-3.20125v-.6513c0-.36184.11024-.86842.43844-1.23026.3282-.4342.73844-.79606.73844-1.23026 0-.14474-.0822-.28948-.164-.4342-.49228-.65132-4.90262-2.3158-6.46142-2.4606-.49228.07236-.82048.14474-.98458.36184zm.48215 11.66825h.41024c0 .65132.24614 5.41075.32818 6.06195-.65638-.07238-1.81493-.2171-2.30733-.2171-.24614-.9408-.3282-1.95396-.41024-2.9672-.082-.86842-.164-1.93699-.3282-2.73295.73844 0 2.30733-.14474 2.30733-.14474zm5.70527 2.44355s.082-1.93699.082-2.51595c1.0666.14474 2.1614.2171 3.4742.2171h1.47686c0 .28948-.0822.65132-.0822.65132-.164 1.5921-.41024 3.67375-1.14868 5.55535-.49226 0-3.228-.14474-3.8844-.2171 0-.50658.0822-3.6908.0822-3.6908z" fill="#4d4d4d"/></svg>