<svg height="64" width="64" xmlns="http://www.w3.org/2000/svg" xmlns:xlink="http://www.w3.org/1999/xlink"><clipPath id="a"><circle cx="286" cy="26" r="10"/></clipPath><path d="m57.958 31.84a26 26 0 0 1 -25.958 25.16 26 26 0 0 1 -25.956-24.84 26 26 0 0 0 -.044.84 26 26 0 0 0 26 26 26 26 0 0 0 26-26 26 26 0 0 0 -.042-1.16z" opacity=".2"/><circle cx="32" cy="32" fill="#f29237" r="26"/><path d="m29.544 6.1396a26 26 0 0 0 -9.4098 2.7294c.13084.41604-.02176.88548-.5002 1.3-.3237.2805-.58906.71744-.58906.97246 0 .77958.70498 1.97668 1.267 2.1506.74814.2315.49638 1.0291-.46464 1.47012-.4442.2044-.991.791-1.2154 1.3052s-.5554 1.0218-.7338 1.1274c-.17845.105546-.325.50756-.325.89376 0 .53928.24618.80072 1.05624 1.1248.58012.23208 1.27414.40116 1.54376.37578 1.54768-.145664 1.65616.7559.30214 2.5188-.71884.93592-1.06444 1.17134-1.5539 1.05372-.45684-.1098-.70652.0194-.91406.47226-.2194.4787-.57784.64174-1.54122.7084-.94694.06554-1.37136.2579-1.72656.77696-.25894.3784-.63342.68554-.83282.68554-.199402 0-.66776.25374-1.04102.56368-.75982.63096-1.0565.69446-1.32286.28184-.352-.546-1.1116-.27-2.242.812-.9996.958-1.1208 1.214-.97 2.044.2683 1.47824 1.07006 2.79 1.98554 3.2474.79886.39922.8144.44228.33008.95468-.27864.29482-.75662.61072-1.06132.70332-.88006.26744-.38472.60288 1.18574.80234 1.60726.20412 2.1068.78736 1.35586 1.58184-.41878.44306-.3952.52552.27676.94708 1.3132.826 2.3572.32 1.125-.542-.7922-.554-.2384-.78.9242-.378.92636.32072 1.10962.30248 1.658-.17266 1.12392-.97388 2.3456.46652 1.31778 1.5539-.65414.69206-.45588 1.52738.39102 1.64278.37418.051 1.15166.39924 1.7291.77442.57742.37518 1.20656.683 1.39648.683s.72564.3806 1.19082.84552c.94388.94328 1.4679 1.06306 1.73418.39864.32018-.7989.19138-1.21054-.67032-2.1506-.68604-.74846-1.8002-2.738-1.8002-3.2144 0-.29464 1.13306-.04482 1.76718.38848.39686.2712 1.039.62088 1.42696.7795.41414.16926.84278.6944 1.03848 1.26952.30672.9013.42758.98008 1.5082.98008h1.17558l.17774 2.1124c.2139 2.541.41762 3.0556 1.28984 3.2652.64252.1544 1.32792 1.14924 1.32792 1.92716 0 .20678-.46226.71326-1.02578 1.1248-.69964.51094-1.00124.94528-.95468 1.3711.05808.53166-.06226.61452-.81504.5586-.48556-.03612-1.32698.13408-1.86876.37832-.6402.28858-1.33472.38098-1.98554.26406-.7489-.13456-1.00292-.0823-1.00292.21074 0 .21546-.26156.6191-.58144.89628-.7911.6855-.46422 1.0482.74902.83028.75408-.13544 1.04826-.07524 1.17812.24884.27684.69076-.42486 1.679-1.07656 1.51582-.4125-.10322-.61088.03738-.73886.52558-.04532.1729-.12626.31936-.22344.44434a26 26 0 0 0 4.1132 1.2162c-.12978-.2493-.27728-.4744-.42148-.57636-.67004-.47378-.22182-1.7029.70078-1.9246.93916-.22568.79122-.83542-.23106-.95214-.89472-.10216-1.84852-1.0084-1.54882-1.47266.20094-.3113 1.05786-.26592 2.7904.14472.78238.18546 1.31788-.18656 3.1306-2.1708 1.04966-1.149 1.85622-1.62754 2.7422-1.62754.3374 0 1.54226-.31044 2.6788-.69062 2.1456-.71776 2.9838-.69184 2.9046.0914-.1644 1.62976.8856 1.57596 2.595-.13204.71242-.71188 1.36274-1.22604 1.44726-1.14512.327.31308-.2611 1.83824-.94708 2.4552-.86934.78196-.91246 1.27604-.14726 1.66816.41924.21482.59706.65126.6627 1.63008l.08886 1.33554h1.08672c.38122 0 .6967.05228.95214.1498a26 26 0 0 0 12.5962-21.458c-.39776-.8499-.36916-1.36374 0-1.94238a26 26 0 0 0 -.1168-1.45742c-.23708-.0108-.47844-.02172-.75664-.0102-1.30984.05454-2.4324-.46188-2.4324-1.11972 0-.13864-.46464-.71134-1.0334-1.27208-.64424-.63512-.97536-1.19576-.87852-1.48788.08782-.26496-.10186-.69244-.43672-.98262-.326-.28248-.59414-.73774-.59414-1.01054 0-.43558-.27724-.4903-2.28-.4418l-2.28.05586.03808 2.247c.06768 3.9364.65384 4.9582 2.4628 4.2986.82804-.30186 2.8624-.0733 3.4404.38594.20918.16626.51218.76932.67286 1.34062.1607.5713.75656 1.56 1.3254 2.1962 1.15252 1.2892 1.242 1.79216.58144 3.3058-.5763 1.3206-1.1968 1.16836-1.07402-.26406l.0914-1.0664-.975.18282c-.53946.10164-1.21564.50068-1.51836.89376-.43152.56032-.63376.64296-.95722.38594-.22536-.1791-.4088-.55736-.4088-.83788s-.27852-.59284-.617-.6957-.80246-.61412-1.03086-1.1375c-.36536-.8372-.35626-1.0932.06854-2.11.43104-1.03144.43528-1.2016.03808-1.58184-.36424-.34874-.552-.36-1.03086-.07364-.48142.28786-.70788.26662-1.27968-.1168-.38218-.2563-1.04806-.46718-1.48028-.46718-.87752 0-1.14258-.42694-1.14258-1.83828 0-1.30366-.77766-1.77746-2.628-1.60722-1.28496.11822-1.56816.03358-2.605-.76426-.63994-.49242-1.65126-1.67864-2.2496-2.6382-.59838-.95946-1.24214-1.96188-1.4295-2.2268-.27088-.383-.20502-.7506.325-1.79512l.66778-1.3127-1.41172.19043c-2.5122.33974-3.0202.66532-1.93984 1.24414.42074.22544.43912.34126.11426.71602-.2128.24548-.31292.63364-.2209.86328.0921.22964-.02424.77002-.25898 1.20098-.23478.43096-.43142 1.03576-.43926 1.3457-.02462.96944-1.68394 1.73968-3.5318 1.6377-2.8004-.15454-3.0274-.11036-4.0218.8125-1.24304 1.15354-1.40368 1.69144-.8252 2.7624.5613 1.03926 1.55608 1.45402 3.2804 1.36856 1.54208-.0765 1.71648.05962 1.36348 1.0791-.29966.86536-1.30674 1.19902-1.98808.65762-.52532-.41744-2.3364-.09484-2.892.51544-.23292.25584-.57854.92592-.7668 1.48788-.325.97012-.41974 1.02908-1.87636 1.1705-1.45318.14112-1.59278.09456-2.638-.86836-1.16682-1.07488-1.36446-1.89538-.80234-3.311.24884-.62664.43446-.72854 1.09942-.60684 1.31824.24128 1.83828-.21702 1.83828-1.625 0-.68276-.13268-1.32102-.29454-1.4168-.1618-.09578-.29454-.4576-.29454-.80488s-.165822-.79384-.36816-.99024c-.29488-.28624-.25226-.43938.21836-.77188.32292-.22814.85362-.38174 1.17812-.34278.32452.03898 1.21944-.10116 1.99062-.30976 1.11428-.3014 1.44148-.52888 1.592-1.11464.28596-1.11288.98402-2.0058 1.56914-2.0058.9246 0 .94352-2.1738.0457-5.3346-.134-.4672-.498-.7646-1.144-.9246-.522-.1296-1.09-.4858-1.262-.7922-.17-.3064-.484-.556-.696-.556s-.62618-.25374-.91914-.56368c-.29488-.31198-.90504-.56368-1.36856-.56368-1.0984 0-1.11662-.7564-.02792-1.15528 1.15088-.42164 2.9414.131044 3.3744 1.04102.58712 1.23378 1.23778.71894 1.44726-1.14512.2591-2.3056 1.05396-2.9682 3.5624-2.9682h1.80274l-.78964-.78964c-.246-.2464-.45-.5476-.592-.843zm9.3462.81758c-.05006.045784-.0994.083098-.1498.13457-.60284.61558-.88546.70334-1.81796.56114-1.62754-.2482-1.41808.40714.3834 1.19844.9742.42792 1.59994.91568 1.81288 1.40918 1.02742 2.381 1.73428 3.6628 2.0896 3.7934.71816.26386 1.14572-.26612 1.30508-1.61992.18288-1.5533.70884-1.8826 1.65292-1.0334.36636.32954.87792.59922 1.1375.59922.80642 0 1.4041.324 1.4041.76172 0 .2307.27212.78644.60684 1.23652.49214.66174.82672.82012 1.74688.82012 1.12928 0 1.82256.21128 3.2374.99278.02196.0121.04398.01632.06602.02792a26 26 0 0 0 -13.472-8.882zm-32.884 24.93a26 26 0 0 0 -.005.112 26 26 0 0 0 .5078 4.994c.94194.38376 1.2022.23168 1.3-.64492.05048-.45296.28738-.96744.52812-1.14512.3718-.274.3048-.414-.457-.934-.4932-.336-.9794-.924-1.0792-1.306-.0968-.368-.4238-.772-.7948-1.076zm8.1834 8.5948c-.24252-.0255-.53576.10528-.86074.4164-.68758.65832-.58376 1.98094.195508 2.5036.8925.59856 1.238.42422 1.35078-.68046.139248-1.36302-.15197-2.1834-.68554-2.2394zm4.4128 3.9304c-.26554.0088-.55804.1993-.85058.59922-.31046.42438-.39574.97166-.27676 1.80274.146274 1.02136.08245 1.23944-.45196 1.51328-.6866.35182-.83348 1.39686-.27168 1.93476.55956.53576 1.09248.39578 1.28476-.3377.27386-1.04468 1.80294-1.16794 2.8488-.22852.44508.3998.80996.60298.80996.44942 0-.1535-.46436-.71082-1.03086-1.23652-.86768-.80522-1.02832-1.14896-1.02832-2.1862 0-1.4646-.44922-2.329-1.0334-2.3106zm-7.2464 3.3566a26 26 0 0 0 .60176.75918c-.1772-.272-.3796-.536-.6018-.758zm8.7624 3.9914c-.132328.04538-.18789.21032-.18789.5002 0 .29336-.187622.6015-.4164.68554-.30378.11154-.37424.46412-.25644 1.30508.02207.15756.02786.2837.03554.41386a26 26 0 0 0 1.08164.55606c-.0178-.4497.06432-.9792.2996-1.64278.399-1.12528.41326-1.4078.08886-1.60468-.30524-.18526-.5126-.25866-.64492-.21328z" opacity=".2"/><circle clip-path="url(#a)" cx="286" cy="26" opacity="0" r="10" stroke-width=".455" transform="matrix(2.6 0 0 2.6 -711.6 -35.6)"/><circle clip-path="url(#a)" cx="286" cy="26" opacity="0" r="10" stroke-width=".909" transform="matrix(2.6 0 0 2.6 -711.6 -35.6)"/><path d="m31.998047 6a26 26 0 0 0 -25.998047 26 26 26 0 0 0 .0175781.486328 26 26 0 0 1 25.9804689-25.486328h.001953a26 26 0 0 1 25.972656 25.503906 26 26 0 0 0 .025391-.503906 26 26 0 0 0 -25.998047-26z" fill="#fff" opacity=".2"/></svg>