<svg height="64" width="64" xmlns="http://www.w3.org/2000/svg"><path d="m4.0000004 53.222068v1.999972c0 1.539978 1.2495821 2.77796 2.80076 2.77796h50.3992796c1.549977 0 2.79996-1.237982 2.79996-2.77796v-1.999972c0 1.539978-1.249983 2.777961-2.79996 2.777961h-50.3992796c-1.5503779 0-2.79996-1.237983-2.79996-2.777961z" opacity=".2"/><path d="m59.9992 54.222068v-44.4433641c0-1.539178-1.247983-2.7779603-2.79996-2.7779603h-50.3992796c-1.5511779 0-2.79996 1.2387823-2.79996 2.7777603v44.4433641c0 1.539978 1.2487821 2.777961 2.79996 2.777961h50.3992796c1.551177 0 2.79996-1.238863 2.79996-2.777761z" fill="#498fb7"/><path d="m15.002643 39.000951 4.000543-19.999714 1.999971 29.999571 1.999972-27.9996 1.999971 25.999628 1.999971-21.999685 1.999972 13.9998 3.999943-17.999743v23.999657l3.999942-25.999628 3.999943 29.999571 1.999972-21.999686 3.999342 9.999857" style="opacity:.2;fill:none;stroke:#000;stroke-width:1.999971;stroke-linecap:round;stroke-linejoin:round"/><path d="m15.002643 38.0003 4.000543-19.999714 1.999971 29.999571 1.999972-27.999599 1.999971 25.999628 1.999971-21.999686 1.999972 13.9998 3.999943-17.999742v23.999656l3.999942-25.999628 3.999943 29.999571 1.999972-21.999685 3.999342 9.999857" fill="none" stroke="#a5bedc" stroke-linecap="round" stroke-linejoin="round" stroke-width="1.999971"/><path d="m6.8007812 7c-1.5511778 0-2.8007812 1.2383657-2.8007812 2.7773438v1.0000002c0-1.5389783 1.2496034-2.777344 2.8007812-2.777344h50.3984378c1.551977 0 2.800781 1.2381656 2.800781 2.777344v-1.0000002c0-1.539178-1.248804-2.7773438-2.800781-2.7773438z" fill="#fff" opacity=".2"/></svg>