<svg height="64" width="64" xmlns="http://www.w3.org/2000/svg"><path d="m12.754 5.9992c-1.5256 0-2.754 1.1604-2.754 2.6008v46.8c0 1.44 1.2284 2.6 2.754 2.6h38.496c1.524 0 2.75-1.16 2.75-2.6v-46.8c0-1.4396-1.226-2.6-2.75-2.6h-38.496z" opacity=".2"/><path d="m12.754 5c-1.5256 0-2.754 1.1604-2.754 2.6008v46.8c0 1.44 1.2284 2.6 2.754 2.6h38.496c1.524 0 2.75-1.16 2.75-2.6v-46.8c0-1.4396-1.226-2.6-2.75-2.6h-38.496z" fill="#ccc"/><path d="m12.753906 5c-1.5256 0-2.753906 1.1611625-2.753906 2.6015625v1c0-1.4404 1.228306-2.6015625 2.753906-2.6015625h38.496094c1.524 0 2.75 1.1611625 2.75 2.6015625v-1c0-1.4404-1.226-2.6015625-2.75-2.6015625z" fill="#fff" opacity=".2"/><path d="m12 13v2h16v-2zm0 4v2h8v-2zm0 4v2h10v-2zm0 4v2h4v-2zm0 4v2h10v-2z" opacity=".5"/></svg>