<svg height="64" width="64" xmlns="http://www.w3.org/2000/svg"><path d="m12 54.398v2c0 1.44 1.1906 2.602 2.668 2.602h34.664c1.478 0 2.668-1.162 2.668-2.602v-2c0 1.44-1.19 2.602-2.668 2.602h-34.664c-1.4774 0-2.668-1.162-2.668-2.602z" opacity=".2"/><rect fill="#ccc" height="40" rx="2.6" ry="2.666" transform="matrix(0 -1 -1 0 0 0)" width="52" x="-58" y="-52"/><path d="m14.667969 6c-1.4774 0-2.667969 1.1611625-2.667969 2.6015625v1c0-1.4404 1.190569-2.6015625 2.667969-2.6015625h34.664062c1.478 0 2.667969 1.1611625 2.667969 2.6015625v-1c0-1.4404-1.189969-2.6015625-2.667969-2.6015625z" fill="#fff" opacity=".2"/><g fill="#e74c3c"><path d="m39.7-11.52h12.806v12.806h-12.806z" transform="matrix(.62469749 .78086686 -.62469749 .78086686 0 0)"/><path d="m25.94-2.88h6.404v6.404h-6.404z" transform="matrix(.62469749 .78086686 -.62469749 .78086686 0 0)"/><path d="m-66.28 7.36h6.404v6.404h-6.404z" transform="matrix(-.62469749 -.78086686 .62469749 -.78086686 0 0)"/><path d="m19.5 17h-3l-.5 1h-2l2.9632-8h2.0368l3.0857 8h-2.0857zm-2.403-1.9999h1.8913l-.9883-3.0001-.9028 2.9999z"/><path d="m47.5 47h-3l-.5-1h-2l2.9632 8h2.0368l3.0857-8h-2.0857zm-2.403 1.9999h1.8913l-.9883 3.0001-.9028-2.9999z"/></g></svg>