<svg height="64" width="64" xmlns="http://www.w3.org/2000/svg"><path d="m4.0545892 32.005868c-.0117376.334652-.0507717.662186-.0507717.999798 0 15.508861 12.4854735 27.994334 27.9943345 27.994334s27.994334-12.485473 27.994334-27.994334c0-.337612-.03903-.665146-.05077-.999798-.527893 15.038956-12.773415 26.994537-27.944344 26.994537-15.17133 0-27.4164513-11.955581-27.9443445-26.994537z" opacity=".2"/><rect fill="#37a0f2" height="55.989" rx="27.994" transform="matrix(0 -1 -1 0 0 0)" width="55.989" x="-60" y="-59.99"/><path d="m31.122511 4.0547276c-1.419713.043591-2.811431.1839628-4.169156.4295131l1.159765-.14837.971803.8358308-2.557482 1.3669234 3.257341.7732435.417915-1.0935787h1.423712l.499899-.9528071-1.003797-.2539486zm-5.302927.6560672c-10.438487 2.3375269-18.6192314 10.4644822-21.0497395 20.8657772l.089382.133973-.2383518.439911c-.043191.205958-.074385.413916-.1131771.621874l1.0583858 1.63167 2.9290072.729852v-.475904l1.1717629.167966-.1093779.83983.9178145.167966 1.421512.389921 2.011393 2.305534 2.56968.189961.24615 2.109573-1.753645 1.229751-.08198 1.883619-.253749 1.147768 2.542285 3.203351.191362 1.08778s.922213.253949 1.03499.253949c.111378 0 2.065382 1.489698 2.065382 1.489698v5.778831l.699859.19596-.471905 2.663461 1.167764 1.569682-.215957 2.643465.024.04399c1.455705.573883 2.9614 1.051787 4.527083 1.377721l.05799-.167966.05799-.769845-.995799-.02999-.503898-.629873.827833-.799838.113977-.601878-.921814-.265946.05399-.557888 1.313734-.197959 1.995597-.965805.667864-1.23375 2.091577-2.691456-.471904-2.107573.63987-1.121773 1.921611.06199 1.297738-1.03379.421914-4.067177 1.43571-1.835629.249949-1.177761-1.311735-.421915-.861825-1.425711-2.957402-.03199-2.347524-.897818-.107979-1.67966-.781841-1.373722-2.12557-.03199-1.221753-1.937608-1.089779-.529892-.05799.585881-1.979599.119976-.727853-1.015795-2.061382-.421914-1.702856 1.9776-2.679058-.453909-.19536-3.037385-1.956604-.335932.785041-1.489698-.222555-.857827-2.56988 1.72965-1.6168725-.199959-.577883-1.267744.3515288-1.309735.894219-1.647666 2.0543847-1.045788h3.959998l-.0116 1.213754 1.421513.663865-.113177-2.07358 1.026992-1.041789 2.069981-1.363924.144571-.960805 2.066781-2.163563 2.193556-1.222552-.189961-.159968 1.483699-1.409914.541891.14457.253948.320136.561887-.632672.137972-.06239-.617875-.08598-.627873-.210958v-.605277l.335932-.273345h.729852l.335932.14837.287942.589681.359927-.05459v-.05079l.09798.03119 1.035791-.156169.14397-.503898.585882.14837v.54689l-.54389.374924.08198.601478 1.859624.577883s.004.0082.008.0234l.429913-.03499.02599-.812435-1.475701-.679463-.08598-.386721 1.225752-.421715.05599-1.179561-1.281741-.785041-.08598-1.9915973-1.757645.8668245h-.63987l.163967-1.5152933-2.389517-.5662854-.9878.7538474v2.2925361l-1.781639.566285-.715855 1.495698-.771844.128974v-1.917612l-1.675861-.230354-.835831-.5468891-.335932-1.2419486 2.991595-1.7612435 1.463703-.4453099.14997.988.815835-.038992.06199-.4998988.855827-.1249747.012-.1717652-.363927-.1523692-.08598-.5272933 1.049787-.085783.633872-.6678649.03199-.04699.01.004.105978-.1093778zm-11.161541 5.9909872.79284.191362-.273545 1.070183-.859026.277144-.54289-1.120773zm35.946725.39452-.391921.06639-1.209755 1.726251-1.737648.277144-.253949 1.495897.733852.171765-.211957.960806-1.725651-.34753-1.577681.34753-.339931.882621.273944 1.859024.929812.437311 1.557685-.0078 1.049788-.09378.321934-.84343 1.643668-2.148165 1.08578.222755 1.061785-.968604.19996.753848 2.619469 1.780839-.319935.433512-1.179761-.06259.453908.64447.725853.160167.855827-.355528-.02399-1.030991.383922-.191361-.309937-.324135-1.749646-.980201-.451909-1.300537h.959806c-1.017799-1.289338-2.14757-2.475298-3.373322-3.565678zm-33.771165 2.147966h1.316134v.402318h.29294v.69506h-2.011393l-.749848-.210958.187362-.484102zm1.968202.29674.68746.628872-.68746.171766zm1.519092.968604.507897.324134-.409917.339731-.405918-.339731zm-3.862218.105378h1.109175l-1.425511 1.999596-.585882-.316336.124975-.83963zm1.780839 0h1.128572v.671864l-.503698.324135-.624874.120975zm1.398117.738251h.08598l1.277141.378723v.652268h-1.070183l-.292941-.425714v-.605277zm-.523294.605277v.656068l-.480303.484302h-1.066184l.167766-.734252.503898-.04299.10158-.24995.773243-.113177zm33.191283 2.780638-3.765238.29694-1.167764.628672h-1.495697l-.733852-.07418-1.815632 1.015795v1.909613l-3.713249 2.691455.307938 1.147768h.749848l-.191961 1.093779-.533892.193961-.02799 2.86342 3.20935 3.675256h1.395718l.08998-.221955h2.505492l.723854-.675863h1.425711l.779843.78784 2.125569.223955-.281943 2.833427 2.351525 4.179154-1.23775 2.383517.08198 1.123773.975803.979802v2.699453l.273944.367926c3.535285-4.687052 5.654856-10.507873 5.654856-16.856589 0-4.037182-.859826-7.860409-2.385517-11.321708l-1.191759.115976v1.051788h-.54389l-.585881-.421915-2.979397-.753847v-1.937208z" fill="#fff" opacity=".3"/><path d="m51.776331 12.229073-39.553995 39.551995c10.956383 10.956383 28.598212 10.956383 39.553995 0 10.956382-10.956382 10.956382-28.598212 0-39.553994z" opacity=".1"/><path d="m12.222536 51.782068 17.304898-22.249497 2.341726 2.341726 2.602473 2.602473z" fill="#f2f2f2"/><path d="m51.776331 12.229073-22.249497 17.304898 4.944199 4.944199z" fill="#f34235"/><g fill="#fff"><path d="m32.000333 4.0117363c-15.509661 0-27.9943339 12.4854727-27.9943339 27.9943337 0 .146971-.011798.292641 0 .437412.2989395-15.245714 12.6740349-27.4324479 27.9943339-27.4324479 15.3195 0 27.694395 12.1867339 27.994334 27.4324479.012-.144771 0-.290361 0-.437412 0-15.508861-12.485473-27.9943337-27.994334-27.9943337z" opacity=".4"/><path d="m51.776331 12.229073-39.553995 39.551995c-10.9563824-10.956382-10.9563824-28.598212 0-39.553994 10.956383-10.9563829 28.598212-10.9563829 39.553995 0z" opacity=".2"/></g></svg>