<svg height="64" viewBox="0 0 64 64" width="64" xmlns="http://www.w3.org/2000/svg"><path d="m32 5a28 28 0 0 0 -28 28 28 28 0 0 0 28 28 28 28 0 0 0 28-28 28 28 0 0 0 -28-28z" opacity=".2"/><path d="m32 4a28 28 0 0 0 -28 28 28 28 0 0 0 28 28 28 28 0 0 0 28-28 28 28 0 0 0 -28-28z" fill="#234780"/><g stroke-linecap="round" stroke-linejoin="round"><path d="m32 12 14 22-14 8-14-8z" opacity=".2" stroke-width="2.640336"/><path d="m32 54 14-18-14 8-14-8z" opacity=".2" stroke-width="2.469808"/><path d="m32 11 14 22-14 8-14-8z" fill="#63bfd7" stroke-width="2.640336"/><path d="m32 53 14-18-14 8-14-8z" fill="#63bfd7" stroke-width="2.469808"/></g><path d="m32 4a28 28 0 0 0 -28 28 28 28 0 0 0 .0214844.40625 28 28 0 0 1 27.9785156-27.40625 28 28 0 0 1 27.978516 27.578125 28 28 0 0 0 .021484-.578125 28 28 0 0 0 -28-28z" fill="#fff" opacity=".1"/></svg>