<svg height="64" width="64" xmlns="http://www.w3.org/2000/svg" xmlns:xlink="http://www.w3.org/1999/xlink"><linearGradient id="a" gradientUnits="userSpaceOnUse" x1="32.237821" x2="32.237821" y1="-27.99576" y2="-35.99596"><stop offset="0" stop-color="#2a2c2f"/><stop offset="1" stop-color="#424649"/></linearGradient><path d="m61.96 31.828a30 30 0 0 1 -29.96 29.172 30 30 0 0 1 -29.96-28.828 30 30 0 0 0 -.04.828 30 30 0 0 0 30 30 30 30 0 0 0 30-30 30 30 0 0 0 -.04-1.172z" opacity=".2"/><path d="m62 32a30 30 0 0 1 -30 30 30 30 0 0 1 -30-30 30 30 0 0 1 30-30 30 30 0 0 1 30 30z" fill="#4f4f4f"/><g fill="#fff"><path d="m31.998047 2a30 30 0 0 0 -29.998047 30 30 30 0 0 0 .0175781.511719 30 30 0 0 1 29.9804689-29.511719h.001953a30 30 0 0 1 29.974609 29.511719 30 30 0 0 0 .023438-.511719 30 30 0 0 0 -29.998047-30z" opacity=".1"/><path d="m15.3722 7.0636c-8.051 5.369-13.3388 14.5284-13.3388 24.972h24c0-2.4314 1.454-4.5126 3.5332-5.455l-14.1986-19.5152z" opacity=".1"/><path d="m48.628 56.936c8.0512-5.369 13.3388-14.5284 13.3388-24.972h-24c0 2.4314-1.454 4.5126-3.5332 5.455l14.1944 19.5176z" opacity=".1"/></g><rect fill="#fe9473" height="24" ry="12" width="24" x="20" y="20"/><rect fill="url(#a)" height="8" ry="4" transform="scale(1 -1)" width="8" x="28" y="-36"/></svg>