<svg height="64" viewBox="0 0 16.933 16.933" width="64" xmlns="http://www.w3.org/2000/svg" xmlns:xlink="http://www.w3.org/1999/xlink"><linearGradient id="a" gradientTransform="matrix(.26029 0 0 .26894 -45.527 -9.2917)" gradientUnits="userSpaceOnUse" x1="164.52" x2="91.329" y1="16.533" y2="99.167"><stop offset=".17" stop-color="#fff44f" stop-opacity=".8"/><stop offset=".6" stop-color="#fff44f" stop-opacity="0"/></linearGradient><radialGradient id="b" cx="144.54" cy="31.934" gradientTransform="matrix(.2797 0 0 .25027 -45.527 -9.2917)" gradientUnits="userSpaceOnUse" r="127.95"><stop offset=".09" stop-color="#fff44f"/><stop offset=".63" stop-color="#ff980e"/></radialGradient><radialGradient id="c" cx="122.52" cy="23.951" gradientTransform="matrix(.26691 0 0 .26227 -45.527 -9.2917)" gradientUnits="userSpaceOnUse" r="111.56"><stop offset=".14" stop-color="#fff44f"/><stop offset=".48" stop-color="#ff980e"/><stop offset=".66" stop-color="#ff3647"/><stop offset=".9" stop-color="#e31587"/></radialGradient><radialGradient id="d" cx="209.6" cy="-10.062" gradientTransform="matrix(.18208 0 0 .38445 -45.527 -9.2917)" gradientUnits="userSpaceOnUse" r="188.69"><stop offset="0" stop-color="#fff44f"/><stop offset=".3" stop-color="#ff980e"/><stop offset=".57" stop-color="#ff3647"/><stop offset=".74" stop-color="#e31587"/></radialGradient><radialGradient id="e" cx="147.21" cy="-19.75" gradientTransform="matrix(.28877 0 0 .24241 -45.527 -9.2917)" gradientUnits="userSpaceOnUse" r="179.59"><stop offset=".11" stop-color="#fff44f"/><stop offset=".46" stop-color="#ff980e"/><stop offset=".72" stop-color="#ff3647"/><stop offset=".9" stop-color="#e31587"/></radialGradient><radialGradient id="f" cx="123.41" cy="8.906" gradientTransform="matrix(.26407 0 0 .26508 -45.527 -9.2917)" gradientUnits="userSpaceOnUse" r="41.128"><stop offset=".1" stop-color="#ffe226"/><stop offset=".79" stop-color="#ff7139"/></radialGradient><radialGradient id="g" cx="133.84" cy="48.602" gradientTransform="matrix(.2527 0 0 .27701 -45.527 -9.2917)" gradientUnits="userSpaceOnUse" r="31.901"><stop offset=".21" stop-color="#9059ff" stop-opacity="0"/><stop offset=".97" stop-color="#6e008b" stop-opacity=".6"/></radialGradient><radialGradient id="h" cx="118.03" cy="90.295" gradientTransform="matrix(.2527 0 0 .27701 -45.527 -9.2917)" gradientUnits="userSpaceOnUse" r="54.069"><stop offset=".35" stop-color="#3a8ee6"/><stop offset=".67" stop-color="#9059ff"/><stop offset="1" stop-color="#c139e6"/></radialGradient><radialGradient id="i" cx="180.47" cy="-4.3479" gradientTransform="matrix(.20303 0 0 .34478 -45.527 -9.2917)" gradientUnits="userSpaceOnUse" r="50.851"><stop offset=".13" stop-color="#fff44f"/><stop offset=".53" stop-color="#ff980e"/></radialGradient><radialGradient id="j" cx="113.51" cy="70.206" gradientTransform="matrix(.29335 0 0 .23863 -45.527 -9.2917)" gradientUnits="userSpaceOnUse" r="134.07"><stop offset=".3" stop-color="#960e18"/><stop offset=".35" stop-color="#b11927" stop-opacity=".74"/><stop offset=".43" stop-color="#db293d" stop-opacity=".34"/><stop offset=".5" stop-color="#f5334b" stop-opacity=".09"/><stop offset=".53" stop-color="#ff3750" stop-opacity="0"/></radialGradient><radialGradient id="k" cx="153.73" cy="14.797" gradientTransform="matrix(.29335 0 0 .23863 -45.527 -9.2917)" gradientUnits="userSpaceOnUse" r="134.07"><stop offset=".13" stop-color="#ffbd4f"/><stop offset=".28" stop-color="#ff980e"/><stop offset=".47" stop-color="#ff3750"/><stop offset=".78" stop-color="#eb0878"/><stop offset=".86" stop-color="#e50080"/></radialGradient><linearGradient id="l" gradientTransform="matrix(.26029 0 0 .26894 -45.527 -9.2917)" gradientUnits="userSpaceOnUse" x1="173.08" x2="81.177" y1="18.304" y2="109.91"><stop offset=".05" stop-color="#fff44f"/><stop offset=".37" stop-color="#ff980e"/><stop offset=".53" stop-color="#ff3647"/><stop offset=".7" stop-color="#e31587"/></linearGradient><g stroke-width=".26458" transform="matrix(.49999 0 0 .49999 14.428 5.175)"><path d="m2.3282 1.3567c-.66859-1.6084-2.0224-3.3445-3.0858-3.8933a15.956 15.956 0 0 1 1.5581 4.6687c0 .0024 0 .0087.0032.02646-1.7394-4.3354-4.6886-6.0837-7.0971-9.8905a18.883 18.883 0 0 1 -.36221-.58895 4.9116 4.9116 0 0 1 -.16933-.31749 2.7998 2.7998 0 0 1 -.22939-.60853.040216.040216 0 0 0 -.03492-.041274.052916.052916 0 0 0 -.0291 0c-.0021 0-.0053.00317-.0077.00423l-.01111.00609.0064-.00873c-3.8629 2.2632-5.1747 6.4499-5.295 8.5446a7.695 7.695 0 0 0 -4.2332 1.6314 4.6328 4.6328 0 0 0 -.39846-.30083 7.1275 7.1275 0 0 1 -.04313-3.7594 11.396 11.396 0 0 0 -3.703 2.8598h-.0071c-.60985-.7723-.56673-3.3205-.5318-3.8523a2.7516 2.7516 0 0 0 -.51355.27225 11.203 11.203 0 0 0 -1.5033 1.288 13.469 13.469 0 0 0 -1.4364 1.7227v.00238-.00238a12.982 12.982 0 0 0 -2.0637 4.6603c-.0074.03334-.01376.068-.0209.1016-.02884.13546-.13229.81305-.15134.96042 0 .01138-.0021.02222-.0034.0336a14.639 14.639 0 0 0 -.24923 2.1222c0 .026458-.0016.052916-.0016.079374a15.382 15.382 0 0 0 30.542 2.6013c.02646-.19685.04709-.39475.07011-.59318a15.818 15.818 0 0 0 -.99772-7.7286zm-17.727 12.04c.07197.03439.13943.07197.21325.10583l.01058.0066a7.7588 7.7588 0 0 1 -.22516-.11245zm16.2031-11.2348-.0019-.01508.0026.01667z" fill="url(#l)"/><path d="m2.3282 1.3567c-.66859-1.6084-2.0224-3.3445-3.0858-3.8933a15.956 15.956 0 0 1 1.5581 4.6687c0-.0037 0 .0029.0024.01429l.0026.01667c1.4512 3.9348.66145 7.9373-.47889 10.381-1.7624 3.7835-6.0297 7.6601-12.709 7.4712-7.2161-.20346-13.575-5.5598-14.762-12.574-.21616-1.1059 0-1.6668.10874-2.5664a11.448 11.448 0 0 0 -.24923 2.1222c0 .026458-.0016.052916-.0016.079374a15.382 15.382 0 0 0 30.542 2.6021c.02646-.19685.04709-.39475.07011-.59318a15.818 15.818 0 0 0 -.99772-7.7286z" fill="url(#k)"/><path d="m2.3282 1.3567c-.66859-1.6084-2.0224-3.3445-3.0858-3.8933a15.956 15.956 0 0 1 1.5581 4.6687c0-.0037 0 .0029.0024.01429l.0026.01667c1.4512 3.9348.66145 7.9373-.47889 10.381-1.7624 3.7835-6.0297 7.6601-12.709 7.4712-7.2161-.20346-13.575-5.5598-14.762-12.574-.21616-1.1059 0-1.6668.10874-2.5664a11.448 11.448 0 0 0 -.24923 2.1222c0 .026458-.0016.052916-.0016.079374a15.382 15.382 0 0 0 30.542 2.6021c.02646-.19685.04709-.39475.07011-.59318a15.818 15.818 0 0 0 -.99772-7.7286z" fill="url(#j)"/><path d="m-5.1464 3.1646c.03334.02355.06403.0471.09551.07064a8.3638 8.3638 0 0 0 -1.4287-1.8637c-4.7804-4.7812-1.253-10.367-.65721-10.651l.0064-.00873c-3.8629 2.2632-5.1747 6.4499-5.2951 8.5446.17912-.012435.35771-.026458.54027-.026458a7.7627 7.7627 0 0 1 6.7388 3.9345z" fill="url(#i)"/><path d="m-11.876 4.1195c-.02514.38258-1.3758 1.7023-1.8497 1.7023-4.374 0-5.0839 2.6458-5.0839 2.6458.19367 2.2283 1.7446 4.0631 3.6231 5.0341a6.0964 6.0964 0 0 0 .25929.12382 8.8687 8.8687 0 0 0 .45164.1852 6.8243 6.8243 0 0 0 2.0015.38602c7.6662.35983 9.1512-9.1658 3.6189-11.932 1.4168-.24659 2.8876.32331 3.7089.89957a7.7627 7.7627 0 0 0 -6.7396-3.9348c-.18256 0-.36115.015081-.54027.026458a7.695 7.695 0 0 0 -4.2332 1.6314c.23442.1987.49926.46381 1.057 1.0131 1.0435 1.0295 3.7205 2.0947 3.7263 2.2195z" fill="url(#h)"/><path d="m-11.876 4.1195c-.02514.38258-1.3758 1.7023-1.8497 1.7023-4.374 0-5.0839 2.6458-5.0839 2.6458.19367 2.2283 1.7446 4.0631 3.6231 5.0341a6.0964 6.0964 0 0 0 .25929.12382 8.8687 8.8687 0 0 0 .45164.1852 6.8243 6.8243 0 0 0 2.0015.38602c7.6662.35983 9.1512-9.1658 3.6189-11.932 1.4168-.24659 2.8876.32331 3.7089.89957a7.7627 7.7627 0 0 0 -6.7396-3.9348c-.18256 0-.36115.015081-.54027.026458a7.695 7.695 0 0 0 -4.2332 1.6314c.23442.1987.49926.46381 1.057 1.0131 1.0435 1.0295 3.7205 2.0947 3.7263 2.2195z" fill="url(#g)"/><path d="m-17.376.37622a11.338 11.338 0 0 1 .31749.21166 7.1275 7.1275 0 0 1 -.04313-3.7594 11.396 11.396 0 0 0 -3.702 2.8606c.07382-.00185 2.305-.042068 3.4276.68711z" fill="url(#f)"/><path d="m-27.144 7.4413c1.1869 7.0142 7.5455 12.371 14.761 12.574 6.6793.18891 10.947-3.6885 12.709-7.4712 1.1393-2.445 1.9314-6.4462.47889-10.381v-.0016l-.0019-.01508c-.0016-.01138-.0026-.01799-.0024-.01429.000265.0037 0 .0087.0032.02646.54529 3.5631-1.2668 7.0148-4.101 9.3483l-.0085.02011c-5.5196 4.4952-10.802 2.7122-11.871 1.9822a8.8091 8.8091 0 0 1 -.22376-.11164c-3.2183-1.538-4.5476-4.4714-4.2626-6.9849a3.9509 3.9509 0 0 1 -3.644-2.292s2.4399-1.7399 5.6551-.22674a7.6587 7.6587 0 0 0 5.7752.22674c-.0058-.12488-2.6828-1.1906-3.7263-2.2185-.55773-.54926-.82257-.81437-1.057-1.0131a4.6328 4.6328 0 0 0 -.39846-.30082c-.09128-.062176-.1942-.12991-.31749-.21166-1.1218-.72918-3.353-.6879-3.4268-.6879h-.0071c-.60986-.7723-.56673-3.3205-.5318-3.8523a2.7516 2.7516 0 0 0 -.51355.27225 11.203 11.203 0 0 0 -1.5033 1.288 13.469 13.469 0 0 0 -1.4364 1.7227v.00238-.00238a12.982 12.982 0 0 0 -2.0637 4.6603c-.0082.0336-.55456 2.4225-.28522 3.6615z" fill="url(#e)"/><path d="m-6.4788 1.3708a8.3638 8.3638 0 0 1 1.4287 1.8637 3.018 3.018 0 0 1 .23098.18891c3.4869 3.2133 1.66 7.7582 1.5234 8.0818 2.8328-2.3336 4.6449-5.7853 4.101-9.3483-1.7393-4.3354-4.6886-6.0837-7.097-9.8905a18.883 18.883 0 0 1 -.36221-.58895 4.9116 4.9116 0 0 1 -.16933-.31749 2.7998 2.7998 0 0 1 -.22939-.60853.040216.040216 0 0 0 -.03493-.041274.052916.052916 0 0 0 -.0291 0c-.0021 0-.0053.00318-.0077.00423l-.01111.00609c-.59713.28389-4.1245 5.8699.65671 10.65z" fill="url(#d)"/><path d="m-4.8199 3.4242a3.018 3.018 0 0 0 -.23098-.18891c-.03148-.02355-.06218-.0471-.09551-.07064-.82019-.57704-2.292-1.1469-3.7089-.89956 5.5323 2.7662 4.048 12.292-3.6189 11.932a6.8243 6.8243 0 0 1 -2.0015-.38602 7.995 7.995 0 0 1 -.45164-.1852c-.08678-.03969-.17356-.07937-.25929-.12382l.01058.0066c1.0694.72997 6.3515 2.5135 11.871-1.9822l.0085-.02011c.13652-.32437 1.9634-4.8693-1.5234-8.0826z" fill="url(#c)"/><path d="m-18.81 8.4676s.70986-2.6458 5.0839-2.6458c.4728 0 1.8256-1.3197 1.8497-1.7023a7.6587 7.6587 0 0 1 -5.7752-.22674c-3.2152-1.5131-5.6551.22674-5.6551.22674a3.9509 3.9509 0 0 0 3.644 2.292c-.28495 2.5148 1.0443 5.4471 4.2626 6.9849.07197.0344.13943.07197.21325.10583-1.8785-.97153-3.4295-2.8064-3.6231-5.0347z" fill="url(#b)"/><path d="m2.3282 1.3567c-.66859-1.6084-2.0224-3.3445-3.0858-3.8933a15.956 15.956 0 0 1 1.5581 4.6687c0 .0024 0 .0087.0032.02646-1.7394-4.3354-4.6886-6.0837-7.0971-9.8905a18.883 18.883 0 0 1 -.36221-.58895 4.9116 4.9116 0 0 1 -.16933-.31749 2.7998 2.7998 0 0 1 -.22939-.60853.040216.040216 0 0 0 -.03492-.041274.052916.052916 0 0 0 -.0291 0c-.0021 0-.0053.00317-.0077.00423l-.01111.00609.0064-.00873c-3.8629 2.2632-5.1747 6.4499-5.295 8.5446.17912-.012435.35771-.026458.54027-.026458a7.7627 7.7627 0 0 1 6.7391 3.933c-.82019-.57704-2.292-1.1469-3.7089-.89956 5.5323 2.7662 4.048 12.292-3.6189 11.932a6.8243 6.8243 0 0 1 -2.0015-.38602 7.995 7.995 0 0 1 -.45164-.1852c-.08678-.03969-.17356-.07937-.25929-.12382l.01058.0066a8.8091 8.8091 0 0 1 -.22383-.11164c.07197.03439.13943.07196.21325.10583-1.8785-.971-3.4295-2.8059-3.6231-5.0341 0 0 .70986-2.6458 5.0839-2.6458.4728 0 1.8256-1.3197 1.8497-1.7023-.0058-.12488-2.6828-1.1906-3.7263-2.2185-.55773-.54926-.82257-.81437-1.057-1.0131a4.6328 4.6328 0 0 0 -.39846-.30083 7.1275 7.1275 0 0 1 -.04313-3.7594 11.396 11.396 0 0 0 -3.7025 2.8598h-.0071c-.60985-.7723-.56673-3.3205-.5318-3.8523a2.7516 2.7516 0 0 0 -.51355.27225 11.203 11.203 0 0 0 -1.5033 1.288 13.469 13.469 0 0 0 -1.4364 1.7227v.00238-.00238a12.982 12.982 0 0 0 -2.0637 4.6603c-.0074.03334-.01376.068-.0209.1016-.02884.13546-.15875.82257-.17727.96994a17.905 17.905 0 0 0 -.22674 2.1463c0 .026458-.0016.052916-.0016.079374a15.382 15.382 0 0 0 30.542 2.6013c.02646-.19685.04709-.39475.07011-.59318a15.818 15.818 0 0 0 -.99772-7.7286zm-1.5258.78977.0026.01667v-.0016z" fill="url(#a)"/></g></svg>