<svg height="64" viewBox="0 0 16.933 16.933" width="64" xmlns="http://www.w3.org/2000/svg" xmlns:xlink="http://www.w3.org/1999/xlink"><linearGradient id="a" gradientUnits="userSpaceOnUse" x1="1.3514051815" x2="15.6959602" y1="15.6496184" y2="1.3048433855"><stop offset="0" stop-color="#00a0ff"/><stop offset="1" stop-color="#37beff"/></linearGradient><linearGradient id="b" gradientTransform="matrix(4.2812 0 0 3.5908 41 42)" gradientUnits="userSpaceOnUse" x1="123.64" x2="146.53" y1="131.03" y2="174.71"><stop offset="0" stop-color="#fafafa"/><stop offset="1" stop-color="#fff"/></linearGradient><filter id="c" color-interpolation-filters="sRGB" height="1.1313" width="1.1105" x="-.055255" y="-.065641"><feGaussianBlur stdDeviation="2.9934784"/></filter><g fill="#5e4aa6" stroke-width=".26458"><circle cx="-352.183" cy="-327.48278" r="0"/><circle cx="-333.943" cy="-325.35278" r="0"/><circle cx="-327.853" cy="-332.17278" r="0"/><circle cx="-330.673" cy="-325.11278" r="0"/></g><g transform="matrix(1.0909 0 0 1.0909 -.77037 -.77001)"><path d="m15.743 8.4667c0 .87223-.15353 1.7085-.43508 2.4836-.19571.5387-.45318 1.048-.76442 1.5191-.13037.19807-.27054.38935-.41933.57317-.47634.5883-1.0424 1.1006-1.6779 1.5164-.23402.15324-.47725.29342-.72907.41902-.97788.48939-2.0818.76468-3.2501.76468s-2.2722-.27529-3.2501-.7647c-.25184-.12563-.49536-.2658-.72938-.41902-.64355-.42141-1.2164-.94176-1.6966-1.5398-.14907-.18531-.28896-.37835-.41933-.5782-.30292-.46327-.55385-.96312-.74569-1.4914-.28151-.77483-.43477-1.6108-.43477-2.4827 0-4.0184 3.2575-7.2759 7.2759-7.2759 2.0171 0 3.8423.82084 5.1603 2.1465.37982.38189.7175.806 1.0049 1.2645.27174.43181.49891.89448.67561 1.3812.28158.77511.4351 1.6114.4351 2.4836z" fill="url(#a)" stroke-width=".028422"/><g image-rendering="optimizeSpeed"><g fill="#000096" filter="url(#c)" opacity=".3" stroke-width="15.683" transform="matrix(.058131 0 0 .058088 1.6143 1.7407)"><path d="m98 175c-3.8876 0-3.227-1.4679-4.5678-5.1695l-11.432-37.625 88-52.206"/><path d="m98 175c3 0 4.3255-1.372 6-3l16-15.558-19.958-12.035"/><path d="m100.04 144.41 48.36 35.729c5.5185 3.0449 9.5014 1.4684 10.876-5.1235l19.685-92.763c2.0154-8.0802-3.0801-11.745-8.3594-9.3482l-115.59 44.571c-7.8901 3.1647-6.9241 9.4078-.51824 11.369l29.663 9.2583 67.753-45.166c3.2419-1.9659 6.2173-.90899 3.7752 1.2584"/></g><g stroke-width="61.492" transform="matrix(.014453 0 0 .014453 1.1972 1.2476)"><path d="m425.24 728.15c-15.243 0-12.653-5.7554-17.91-20.269l-44.824-147.52 345.03-204.69" fill="#cdf2fd"/><path d="m425.24 728.15c11.762 0 16.96-5.3794 23.525-11.762l62.733-61-78.252-47.187" fill="#ace6fb"/><path d="m433.24 608.21 189.61 140.09c21.637 11.939 37.253 5.7574 42.643-20.088l77.182-363.71c7.902-31.681-12.077-46.05-32.776-36.653l-453.21 174.76c-30.936 12.408-30.755 29.667-5.6389 37.358l116.3 36.3 269.26-169.87c12.711-7.708 24.377-3.564 14.802 4.934" fill="url(#b)"/></g></g></g></svg>