<svg height="64" viewBox="0 0 16.933 16.933" width="64" xmlns="http://www.w3.org/2000/svg" xmlns:xlink="http://www.w3.org/1999/xlink"><linearGradient id="a" gradientUnits="userSpaceOnUse" x1="-47.6236" x2="-31.7496" y1="-6.87901" y2="8.99569"><stop offset="0" stop-color="#28afea"/><stop offset="1" stop-color="#838be4"/></linearGradient><g transform="translate(48.153 7.4082)"><rect fill="url(#a)" height="15.875" ry=".79373" width="15.875" x="-47.624" y="-6.879"/><path d="m-138.37 1.3379c-1.446 0-2.892.55411-4 1.6621l-31 31h50.373c1.662 0 3-1.338 3-3v-13.627l-14.373-14.373c-1.108-1.108-2.554-1.6621-4-1.6621z" fill="#406ccd" transform="scale(.26458)"/><path d="m-158-4.3535c-1.0181 0-2.0363.38982-2.8164 1.1699l-19.184 19.184v15c0 1.662 1.338 3 3 3h54c1.3602 0 2.491-.90221 2.8613-2.1387l-35.045-35.045c-.7801-.7801-1.7983-1.1699-2.8164-1.1699z" fill="#13427e" transform="scale(.26458)"/><circle cx="-37.041" cy="-2.9104" fill="#fff" r="1.3229"/></g></svg>