<svg height="64" width="64" xmlns="http://www.w3.org/2000/svg"><rect fill="#fecd38" height="56" rx="28" transform="matrix(0 -1 -1 0 0 0)" width="56" x="-60" y="-60"/><path d="m32 4c-15.511557 0-28 12.488-28 28 0 .113556.0112848.224032.0175781.335938.3515331-15.201757 12.6935859-27.335938 27.9824219-27.335938 15.288835 0 27.630889 12.134181 27.982422 27.335938.006271-.111825.017578-.22249.017578-.335938 0-15.512-12.488444-28-28-28z" fill="#fff" opacity=".1"/><g fill="#3f3f3f" transform="matrix(1.4 0 0 1.4 -75.874 4.5156)"><circle cx="69.91" cy="12.489" r="2.857"/><circle cx="84.196" cy="12.489" r="2.857"/><path d="m69.444 24.355a8.7947 10.554 0 0 0 7.6094 5.2768 8.7947 10.554 0 0 0 7.6026-5.2768h-1.0684a8.7947 10.554 0 0 1 -6.5342 3.5179 8.7947 10.554 0 0 1 -6.5376-3.5179z"/></g><path d="m4.0488281 33c.0002078.005918.0017418.011661.0019531.017578.0002233-.005852-.0002068-.011722 0-.017578zm.0019531.017578c-.0125101.327942-.0507812.650348-.0507812.982422 0 .224037.0123968.445222.0175781.667969.0120984-.216663.0249213-.433291.0332031-.650391-.0002113-.005917-.0017453-.01166-.0019531-.017578h.0019531c-.0002068.005856.0002233.011726 0 .017578.5370097 15.033654 12.7807888 26.982422 27.9492188 26.982422 15.174 0 27.421219-11.958 27.949219-27 .007796.222266.020756.443039.033203.664062.005121-.221452.017578-.441334.017578-.664062 0-.33768-.039041-.66528-.050781-1-.528 15.042-12.775219 27-27.949219 27-15.16843 0-27.4122091-11.948768-27.9492188-26.982422z" opacity=".2"/></svg>