<svg height="64" viewBox="0 0 16.933333 16.933334" width="64" xmlns="http://www.w3.org/2000/svg" xmlns:xlink="http://www.w3.org/1999/xlink"><filter id="a" color-interpolation-filters="sRGB" height="1.0252" width="1.022909" x="-.011455" y="-.0126"><feGaussianBlur stdDeviation=".069453127"/></filter><filter id="b" color-interpolation-filters="sRGB" height="1.023888" width="1.024113" x="-.012057" y="-.011944"><feGaussianBlur stdDeviation=".046085787"/></filter><g transform="translate(0 -280.06665)"><path d="m1.190625 282.18332h14.552084v13.229167h-14.552084z" filter="url(#a)" opacity=".2"/><g transform="matrix(1.1458334 0 0 1.1363637 .281119 -37.541477)"><path d="m.79375 281.12497h12.7v11.641666h-12.7z" fill="#3689e6"/><path d="m1.058333 281.38956h12.170834v11.1125h-12.170834z" fill="#fafafa"/><path d="m.79375 281.12497h12.7v2.116667h-12.7z" fill="#3689e6"/></g><g stroke-width=".661367"><path d="m7.3105722 285.22602-.102046 1.21938a3.6375168 3.6375168 0 0 0 -1.063094.61487l-1.108307-.52185-1.157392 2.00477 1.006261.69883a3.6375168 3.6375168 0 0 0 -.05554.61356 3.6375168 3.6375168 0 0 0 .05297.61617l-1.003676.69622 1.157392 2.00478 1.105722-.52058a3.6375168 3.6375168 0 0 0 1.065678.61099l.09946 1.22328h2.314784l.102046-1.21941a3.6375168 3.6375168 0 0 0 1.0630938-.61486l1.108307.52188 1.157391-2.00478-1.006259-.69882a3.6375168 3.6375168 0 0 0 .05555-.61357 3.6375168 3.6375168 0 0 0 -.05296-.61616l1.003675-.69626-1.157391-2.00474-1.105723.52055a3.6375168 3.6375168 0 0 0 -1.0656788-.61099l-.09946-1.22326zm1.157392 3.30682a1.3227334 1.3227334 0 0 1 1.322733 1.32274 1.3227334 1.3227334 0 0 1 -1.322733 1.32274 1.3227334 1.3227334 0 0 1 -1.322734-1.32274 1.3227334 1.3227334 0 0 1 1.322734-1.32274z" filter="url(#b)" opacity=".2"/><path d="m7.3105723 284.96144-.102046 1.21938a3.6375167 3.6375167 0 0 0 -1.063094.61487l-1.108307-.52185-1.1573919 2.00477 1.0062609.69883a3.6375167 3.6375167 0 0 0 -.05554.61356 3.6375167 3.6375167 0 0 0 .05297.61617l-1.0036759.69622 1.1573919 2.00478 1.105722-.52058a3.6375167 3.6375167 0 0 0 1.065678.61099l.09946 1.22328h2.314783l.102046-1.21941a3.6375167 3.6375167 0 0 0 1.0630947-.61486l1.108307.52188 1.157391-2.00478-1.006259-.69882a3.6375167 3.6375167 0 0 0 .05555-.61357 3.6375167 3.6375167 0 0 0 -.05296-.61616l1.003675-.69626-1.157391-2.00474-1.105723.52055a3.6375167 3.6375167 0 0 0 -1.0656787-.61099l-.09946-1.22326zm1.157392 3.30682a1.3227334 1.3227334 0 0 1 1.322733 1.32274 1.3227334 1.3227334 0 0 1 -1.322733 1.32274 1.3227334 1.3227334 0 0 1 -1.322734-1.32274 1.3227334 1.3227334 0 0 1 1.322734-1.32274z" fill="#7e8087"/></g></g></svg>