<svg height="64" viewBox="0 0 64 64" width="64" xmlns="http://www.w3.org/2000/svg" xmlns:xlink="http://www.w3.org/1999/xlink"><filter id="a" color-interpolation-filters="sRGB" height="1.024" width="1.024" x="-.012" y="-.012"><feGaussianBlur stdDeviation=".28"/></filter><filter id="b" color-interpolation-filters="sRGB" height="1.023996" width="1.024004" x="-.012002" y="-.011998"><feGaussianBlur stdDeviation=".1674747"/></filter><circle cx="32" cy="33" filter="url(#a)" opacity=".2" r="28"/><circle cx="32" cy="32" fill="#448aff" r="28"/><path d="m32 4a28 28 0 0 0 -28 28 28 28 0 0 0 .0215.586 28 28 0 0 1 27.9785-27.586 28 28 0 0 1 27.979 27.414 28 28 0 0 0 .021-.414 28 28 0 0 0 -28-28z" fill="#fff" opacity=".2"/><g stroke-width=".050604"><g filter="url(#b)" opacity=".2" transform="translate(0 1)"><path d="m26.853489 33.335952h-11.59849c.647734 8.213066 7.200982 14.766314 15.414048 15.414048v-11.704758c-1.841994-.465559-3.299395-1.887538-3.815558-3.70929z"/><path d="m30.669047 26.7321v-11.4821c-8.187764.647734-14.72583 7.160499-15.408988 15.338142h11.552946c.47568-1.892598 1.963444-3.380362 3.856042-3.856042z"/><path d="m37.121087 30.588142h11.623791c-.673036-8.152341-7.175679-14.654985-15.328021-15.333082v11.517523c1.821752.516163 3.243731 1.973565 3.70423 3.815559z"/><path d="m-3.393923 50.297688h7.211032v13.162032h-7.211032z" transform="matrix(.70710678 -.70710678 .70710678 .70710678 0 0)"/></g><g fill="#fafafa"><path d="m26.853489 33.335952h-11.59849c.647734 8.213066 7.200982 14.766314 15.414048 15.414048v-11.704758c-1.841994-.465559-3.299395-1.887538-3.815558-3.70929z"/><path d="m30.669047 26.7321v-11.4821c-8.187764.647734-14.72583 7.160499-15.408988 15.338142h11.552946c.47568-1.892598 1.963444-3.380362 3.856042-3.856042z"/><path d="m37.121087 30.588142h11.623791c-.673036-8.152341-7.175679-14.654985-15.328021-15.333082v11.517523c1.821752.516163 3.243731 1.973565 3.70423 3.815559z"/><path d="m-3.393923 50.297688h7.211032v13.162032h-7.211032z" transform="matrix(.70710678 -.70710678 .70710678 .70710678 0 0)"/></g></g></svg>