<svg height="64" width="64" xmlns="http://www.w3.org/2000/svg" xmlns:xlink="http://www.w3.org/1999/xlink"><clipPath id="a"><path d="m91.5 254c-.831 0-1.5.669-1.5 1.5v25c0 .831.669 1.5 1.5 1.5h16.5l10-10v-16.5c0-.831-.669-1.5-1.5-1.5z"/></clipPath><path d="m4 39 20 20h33c1.662 0 3-1.338 3-3v2c0 1.662-1.338 3-3 3h-33l-20-20z" opacity=".2"/><path d="m56 4s4 0 4 4v48c0 4-4 4-4 4h-32l-20-20v-32c0-4 4-4 4-4z" fill="#303d75"/><path clip-path="url(#a)" d="m118 272h-8.5c-.82843 0-1.5.67158-1.5 1.5v8.5z" opacity=".2" transform="matrix(-2 0 0 2 240 -504)"/><path d="m4 40h17c1.656 0 3 1.344 3 3v17z" fill="#44559e"/><path d="m4 40 1 1h16c1.656 0 3 1.344 3 3v-1c0-1.656-1.344-3-3-3z" fill="#fff" opacity=".1"/><path d="m32 16a10 10 0 0 0 -.875.04297 9.3333346 9.3333346 0 0 0 -.195312.02344 10 10 0 0 0 -8.929688 9.93359 10 10 0 0 0 .0039.07422 7 7 0 0 0 -6.0039 6.92578 7 7 0 0 0 .003906.171875 6.6666676 6.6666676 0 0 0 -.003906.160156 6.6666676 6.6666676 0 0 0 6.667969 6.667969h.332031 17a8.000001 8.000001 0 0 0 8-8 8.000001 8.000001 0 0 0 -6.160156-7.765625 10 10 0 0 0 -8.480469-8.128906 9.3333346 9.3333346 0 0 0 -.128906-.019531 10 10 0 0 0 -.609375-.054688 9.3333346 9.3333346 0 0 0 -.621094-.03125zm-.01953 3.001953c.130237.0029.260806.0087.390625.01953a3.0003 3.0003 0 0 0 .07422.0039c.137299.0081.273577.02094.410157.03711.0052.000618.0104.0013.01563.002.006.000937.01156.003.01758.0039a3.0003 3.0003 0 0 0 .0625.0098c3.013418.413721 5.394687 2.696241 5.935547 5.689453a3.0003 3.0003 0 0 0 2.263672 2.386719c2.26608.535371 3.842006 2.521419 3.849599 4.849541-.00211 2.795048-2.204383 4.996094-5 4.996094h-17-.332031c-2.059838.000402-3.666279-1.604817-3.667969-3.664062v-.0039c.000382-.01697.0013-.03382.002-.05078a3.0003 3.0003 0 0 0 0-.214844c-.000756-.02161-.0015-.04284-.002-.06445v-.0039c.0028-2.009048 1.442573-3.669153 3.431641-3.955078a3.0003 3.0003 0 0 0 2.568359-3.041033v-.0039c.0052-3.596831 2.673366-6.564194 6.25-6.949219a3.0003 3.0003 0 0 0 .06836-.0078c.03637-.0048.07293-.0096.109375-.01367.183564-.01643.36845-.0235.552735-.02539z" opacity=".2"/><path d="m32 15a10 10 0 0 0 -.875.042969 9.3333346 9.3333346 0 0 0 -.195312.023437 10 10 0 0 0 -8.929688 9.933594 10 10 0 0 0 .003906.074219 7 7 0 0 0 -6.003906 6.925781 7 7 0 0 0 .003906.171875 6.6666676 6.6666676 0 0 0 -.003906.160156 6.6666676 6.6666676 0 0 0 6.667969 6.667969h.332031 17a8.000001 8.000001 0 0 0 8-8 8.000001 8.000001 0 0 0 -6.160156-7.765625 10 10 0 0 0 -8.480469-8.128906 9.3333346 9.3333346 0 0 0 -.128906-.019531 10 10 0 0 0 -.609375-.054688 9.3333346 9.3333346 0 0 0 -.621094-.03125zm-.019531 3.001953c.130237.0029.260806.008701.390625.019531a3.0003 3.0003 0 0 0 .074218.003907c.137299.0081.273577.020939.410157.037109.0052.000618.010405.001253.015625.001953.006.000937.011558.003006.017578.003906a3.0003 3.0003 0 0 0 .0625.009766c3.013418.413721 5.394687 2.696241 5.935547 5.689453a3.0003 3.0003 0 0 0 2.263672 2.386719c2.26609.535439 3.842016 2.521487 3.849609 4.849609-.00211 2.795048-2.204383 4.996094-5 4.996094h-17-.332031c-2.059838.000402-3.666279-1.604817-3.667969-3.664062v-.003907c.000382-.01697.001253-.033821.001953-.050781a3.0003 3.0003 0 0 0 0-.214844c-.000756-.02161-.001453-.042843-.001953-.064453v-.003906c.0028-2.009048 1.442573-3.669153 3.431641-3.955078a3.0003 3.0003 0 0 0 2.568359-3.041016v-.003906c.0052-3.596831 2.673366-6.564194 6.25-6.949219a3.0003 3.0003 0 0 0 .068359-.007812c.03637-.0048.07293-.009602.109375-.013672.183564-.01643.36845-.023501.552735-.025391z" fill="#5d8cb9"/><path d="m8 4s-4 0-4 4v1c0-4 4-4 4-4h48s4 0 4 4v-1c0-4-4-4-4-4z" fill="#fff" opacity=".1"/></svg>