<svg height="64" width="64" xmlns="http://www.w3.org/2000/svg"><path d="m52.860895 19.80002c-.139517 2.062017-.727437 4.128643-1.83279 6.045807.259446.150003.500345.321644.746405.485231.90431-2.115912 1.254114-4.350633 1.086385-6.531058zm-46.8291704 5.247005c-.3287145 4.858323 1.9083212 9.685793 6.1861334 12.529783.219289-.513081.460488-1.022414.746405-1.518284-4.1480986-2.398208-6.5928994-6.581546-6.9324383-11.011319zm51.9272574 13.813235c-.139517 2.062017-.727438 4.124836-1.83279 6.0418-3.85938 6.693542-12.346654 8.971138-19.031191 5.106558-3.859379 6.693544-12.346654 8.971139-19.03119 5.106559-4.147098-2.397606-6.591899-6.579944-6.932438-11.007512-.347623 5.137614 2.162485 10.253389 6.932438 13.011027 6.684536 3.86458 15.172011 1.586924 19.03119-5.106558 6.684537 3.864579 15.172012 1.586923 19.031191-5.10656 1.464279-2.539656 2.040436-5.337565 1.83279-8.045314z" opacity=".2"/><path d="m45.925986 7.8776175c-6.679994-3.8577967-15.165987-1.5841986-19.023984 5.0975965-6.681994-3.8577976-15.166187-1.584199-19.0239837 5.097595-3.8577967 6.680795-1.5841986 15.166787 5.0975957 19.024784-3.8577967 6.681794-1.584219 15.166587 5.097596 19.024384 6.681814 3.857797 15.166587 1.584219 19.024383-5.097596 6.681795 3.857797 15.166588 1.584219 19.024384-5.097595 3.857797-6.681815 1.584219-15.166588-5.097595-19.024384 3.857796-6.681795 1.584218-15.166587-5.097596-19.0243845z" fill="#c36591"/><path d="m39.330078 6.0039062c-4.936541-.1333447-9.775361 2.376969-12.427734 6.9707028-6.681994-3.8577972-15.165641-1.584137-19.0234378 5.097657-1.3467929 2.332328-1.9318656 4.884182-1.8574218 7.382812.0922086-2.174049.6899985-4.36111 1.8574218-6.382812 3.8577968-6.681794 12.3414438-8.955455 19.0234378-5.097657 3.857997-6.6817951 12.343443-8.9554526 19.023437-5.0976559l.001953.0019531c4.349131 2.5110048 6.814334 6.9821938 6.953125 11.6406248.212387-5.010049-2.293416-9.950306-6.953125-12.6406248l-.001953-.0019531c-2.087498-1.2055614-4.351821-1.8124356-6.595703-1.8730469zm12.078125 21.1464848c-.125866.251434-.242251.505115-.384765.751953 4.348774 2.510798 6.815915 6.982605 6.955078 11.640625.206292-4.866277-2.164305-9.655766-6.570313-12.392578zm-38.816406 10.699218c-1.063599 2.124685-1.539221 4.396673-1.472656 6.63086.092166-2.174138.689943-4.360713 1.857421-6.382813-.133719-.077208-.254591-.167183-.384765-.248047z" fill="#fff" opacity=".2"/><path d="m16.676763 20.2c-.06049.747682-.05061 1.508227.03126 2.273834.113608-.03393.220805-.07851.3361-.109401-.193692-.722139-.306746-1.444876-.367375-2.163613zm39.280739 8.65085c-.408794 4.992154-3.869445 9.400995-9.000293 10.775458.169041.630721.268868 1.262281.3361 1.89098 5.610277-1.674979 9.13736-7.002737 8.664333-12.666418zm-47.9148585 6.289201c-.1118014 1.365341-.00864 2.769729.3673553 4.172596 1.7508352 6.532248 8.4222182 10.384784 14.9563352 8.634449 1.750836 6.532247 8.418216 10.380982 14.952533 8.630648 5.811574-1.556777 9.491329-7.005937 9.004297-12.787641-.404253 4.997153-3.869246 9.411797-9.004297 10.787258-6.534117 1.750335-13.201697-2.0982-14.952533-8.630646-6.535117 1.750333-13.206501-2.100402-14.9573357-8.633649-.1942928-.724138-.3069465-1.450277-.3673753-2.172414z" opacity=".2"/><path d="m16 4c-3.324 0-6 2.676-6 6-3.324 0-6 2.676-6 6s2.676 6 6 6c0 3.324 2.676 6 6 6s6-2.676 6-6c3.324 0 6-2.676 6-6s-2.676-6-6-6c0-3.324-2.676-6-6-6z" fill="#cf87a8" transform="matrix(.52647955 1.9648183 -1.9648183 .52647955 55.013351 -7.860697)"/><path d="m12.047 15.811a2.7922 2.7922 0 0 0 .47852 2.1211 2.7922 2.7922 0 0 0 1.3809 2.6953 2.7922 2.7922 0 0 0 3.0254-.15234 2.7922 2.7922 0 0 0 2.6953-1.3809 2.7922 2.7922 0 0 0 .32617-1.9043 2.7922 2.7922 0 0 1 -.32617.9043 2.7922 2.7922 0 0 1 -2.6953 1.3809 2.7922 2.7922 0 0 1 -3.0254.15234 2.7922 2.7922 0 0 1 -1.3809-2.6953 2.7922 2.7922 0 0 1 -.479-1.121z" opacity=".2" transform="matrix(2.00065355976 .00000017648 -.00000014457 1.98470180565 -.01354444631 -.68012198867)"/><path d="m16 11.5a3 3 0 0 0 -2.732 1.768 3 3 0 0 0 -1.768 2.732 3 3 0 0 0 1.768 2.732 3 3 0 0 0 2.732 1.768 3 3 0 0 0 2.732-1.768 3 3 0 0 0 1.768-2.732 3 3 0 0 0 -1.768-2.732 3 3 0 0 0 -2.732-1.768z" fill="#e2b7cb" transform="matrix(1.6121979 .93080811 -.93080811 1.6121979 21.097763165 -8.68787285)"/><g fill="#fff"><path d="m29.335938 8.0097656c-1.200808-.0463242-2.429724.083981-3.654297.4121094-5.605866 1.5021103-9.223962 6.627857-9.033203 12.179687.247683-5.157449 3.765587-9.768212 9.033203-11.179687 6.531056-1.750018 13.1992 2.099803 14.949218 8.630859 6.531056-1.750018 13.197248 2.097851 14.947266 8.628907.248084.925849.370987 1.854576.402344 2.771484.059638-1.23764-.063621-2.507374-.402344-3.771484-1.750018-6.531056-8.41621-10.378925-14.947266-8.628907-1.421889-5.306483-6.091423-8.84223-11.294921-9.0429684zm-12.484376 15.4238284c-5.488281 1.570806-9.0195389 6.632264-8.8320308 12.115234.2484089-5.15673 3.7661938-9.768375 9.0332028-11.179687-.083553-.311822-.142827-.623657-.201172-.935547zm30.296876 18.132812c-.068173.019512-.132402.046026-.201172.064453.247907.92519.372814 1.851307.404296 2.767579.044746-.931717-.025068-1.880204-.203124-2.832032z" opacity=".2" transform="matrix(1.00000000442 .00000000232 -.00000000232 1.00000000442 -.00000001249 .00000009741)"/><path d="m33.527344 24.001953a5.5848252 5.5848252 0 0 0 -3.388672 1.050781 5.5848252 5.5848252 0 0 0 -5.394531 2.759766 5.5848252 5.5848252 0 0 0 -.716797 3.296875 5.5848252 5.5848252 0 0 1 .716797-2.298828 5.5848252 5.5848252 0 0 1 5.394531-2.757813 5.5848252 5.5848252 0 0 1 6.050781-.308593 5.5848252 5.5848252 0 0 1 2.761719 4.33789 5.5848252 5.5848252 0 0 0 -2.761719-5.335937 5.5848252 5.5848252 0 0 0 -2.662109-.744141zm5.425781 6.146485a5.5848252 5.5848252 0 0 1 -.0059.990234 5.5848252 5.5848252 0 0 1 1.02539 2.751953 5.5848252 5.5848252 0 0 0 -1.019531-3.742187zm-13.90625 4.703124a5.5848252 5.5848252 0 0 0 .002.06836 5.5848252 5.5848252 0 0 1 .0039-.05859 5.5848252 5.5848252 0 0 1 -.0059-.0098z" opacity=".2"/></g></svg>