<svg height="64" width="64" xmlns="http://www.w3.org/2000/svg"><path d="m4.0545956 32.001976c-.011739.334698-.050778.662275-.050778.999932-.0000005 15.510943 12.4871484 27.998092 27.9980914 27.998092s27.998092-12.487149 27.998092-27.998092c0-.337657-.03904-.665234-.05078-.999932-.527964 15.040975-12.775129 26.99816-27.948095 26.99816-15.173366 0-27.4201313-11.957185-27.9480953-26.99816z" opacity=".2"/><rect fill="#e74c3c" height="55.996" rx="27.998" transform="matrix(0 -1 -1 0 0 0)" width="55.996" x="-60" y="-60"/><path d="m7.9997267 33.734113c0-12.125573 6.2705723-18.735994 9.9393223-18.735994 3.66895 0 4.060951 1.86938 4.060951 4.845637 0 5.777206-7 3.704852-7 14.546713 0 3.590955 1.980555 7.60765 6.075836 7.60765 3.285776 0 4.494293-3.493731 6.16018-10.503253 2.763811-10.537882 5.561621-18.49274 15.002977-18.49274 9.173375 0 13.757063 7.718474 13.757063 19.844648 0 12.125774-7.102116 20.144293-10.771066 20.144293-3.66875 0-5.22499-1.463539-5.22499-4.439897 0-5.777205 8.324178-4.848492 8.324178-15.690153 0-3.590955-1.573732-8.879795-5.668813-8.879795-3.285776 0-4.447097.230225-6.46256 7.914461-1.095925 8.209441-3.703747 21.104317-13.681067 21.104317-9.172775 0-14.5130112-7.139513-14.5130112-19.264687z" opacity=".2"/><g fill="#fff"><path d="m7.9997267 32.735994c0-12.125573 6.2705723-18.735994 9.9393223-18.735994 3.66895 0 4.060951 1.86938 4.060951 4.845637 0 5.777206-7 3.704852-7 14.546713 0 3.590955 1.980555 7.60765 6.075836 7.60765 3.285776 0 4.494293-3.493731 6.16018-10.503253 2.763811-10.537882 5.561621-18.49274 15.002977-18.49274 9.173375 0 13.757063 7.718474 13.757063 19.844648 0 12.125774-7.102116 20.144293-10.771066 20.144293-3.66875 0-5.22499-1.463539-5.22499-4.439897 0-5.777205 8.324178-4.848492 8.324178-15.690153 0-3.590955-1.573732-8.879795-5.668813-8.879795-3.285776 0-4.447097.230225-6.46256 7.914461-1.095925 8.209441-3.703747 21.104317-13.681067 21.104317-9.172775 0-14.5130112-7.139513-14.5130112-19.264687z"/><path d="m31.998047 4.0039062c-15.510943 0-27.998047 12.4871048-27.998047 27.9980468 0 .113548.0112849.22404.0175781.335938.3515192-15.20072 12.6922379-27.3339848 27.9804689-27.3339848 15.28693 0 27.628891 12.1311738 27.982422 27.3300778.006256-.11059.015625-.219822.015625-.332031 0-15.510942-12.487104-27.9980468-27.998047-27.9980468z" opacity=".2"/></g></svg>