<svg height="64" width="64" xmlns="http://www.w3.org/2000/svg"><path d="m4.0000004 56.200069v1.999971c0 1.549978 1.2495821 2.79996 2.80076 2.79996h50.3992796c1.549977 0 2.79996-1.249982 2.79996-2.79996v-1.999971c0 1.549977-1.249983 2.79996-2.79996 2.79996h-50.3992796c-1.5503779 0-2.79996-1.249983-2.79996-2.79996z" opacity=".2"/><rect fill="#63c4ad" height="55.999" rx="2.8" transform="matrix(0 -1 -1 0 0 0)" width="55.999" x="-60" y="-60"/><path d="m21.999743 21.000572v1.999971h3.109956l-4.777932 10.187855a4.9999285 4.9999285 0 0 0 -1.331981-.187998 4.9999285 4.9999285 0 0 0 -4.999929 4.999929 4.9999285 4.9999285 0 0 0 4.999929 4.999928 4.9999285 4.9999285 0 0 0 4.999928-4.999928 4.9999285 4.9999285 0 0 0 -1.885973-3.905944l5.201926-11.093842h6.683904v12.109827a4.9999285 4.9999285 0 0 0 -3.999942 4.88993 4.9999285 4.9999285 0 0 0 4.999928 4.999929 4.9999285 4.9999285 0 0 0 4.999929-4.999929 4.9999285 4.9999285 0 0 0 -3.999943-4.89793v-12.101827h7.999885v12.109827a4.9999285 4.9999285 0 0 0 -3.999942 4.88993 4.9999285 4.9999285 0 0 0 4.999928 4.999929 4.9999285 4.9999285 0 0 0 4.999929-4.999929 4.9999285 4.9999285 0 0 0 -3.999943-4.89793v-12.101827h3.999943v-1.999971z" opacity=".2"/><g fill="#fff"><path d="m6.8007812 4c-1.5511778 0-2.8007812 1.2496034-2.8007812 2.8007812v1.0019532c0-1.5511778 1.2496034-2.8007813 2.8007812-2.8007813h50.3984378c1.549977 0 2.800781 1.2496035 2.800781 2.8007813v-1.0019532c0-1.5511777-1.250804-2.8007812-2.800781-2.8007812z" opacity=".2"/><path d="m21.999743 20.000601v1.999971h3.109956l-4.777932 10.187854a4.9999285 4.9999285 0 0 0 -1.331981-.187997 4.9999285 4.9999285 0 0 0 -4.999929 4.999928 4.9999285 4.9999285 0 0 0 4.999929 4.999929 4.9999285 4.9999285 0 0 0 4.999928-4.999929 4.9999285 4.9999285 0 0 0 -1.885973-3.905944l5.201926-11.093841h6.683904v12.109827a4.9999285 4.9999285 0 0 0 -3.999942 4.88993 4.9999285 4.9999285 0 0 0 4.999928 4.999928 4.9999285 4.9999285 0 0 0 4.999929-4.999928 4.9999285 4.9999285 0 0 0 -3.999943-4.89793v-12.101827h7.999885v12.109827a4.9999285 4.9999285 0 0 0 -3.999942 4.88993 4.9999285 4.9999285 0 0 0 4.999928 4.999928 4.9999285 4.9999285 0 0 0 4.999929-4.999928 4.9999285 4.9999285 0 0 0 -3.999943-4.89793v-12.101827h3.999943v-1.999971z"/></g></svg>