<svg height="64" viewBox="0 0 16.93 16.93" width="64" xmlns="http://www.w3.org/2000/svg"><path d="m8.4874713 1.3231371c-.051375-.00146-.1010048.01732-.1365724.051654-.5131703.4955232-1.0347293 1.0515167-1.5061034 1.5807318-.000548.0006642-.00109.00133-.00162.002-1.1615849 1.3404886-2.044488 2.7178299-2.6843261 4.1925561-.5960304 1.3737566-.9445124 2.5621796-1.2616795 4.293351-.069456.379099-.139641.83847-.1880614 1.208117-.02421.184824-.04301.346974-.053655.466897-.00532.05996-.00842.109161-.00922.148941-.0003936.0198-.000456.03648.00162.05716.00104.0104.00202.02138.00758.04012.00558.0188.00102.05678.082377.103301.0439.0251.049807.02014.060699.02256.01088.0024.01932.0042.028182.0056.01772.0026.036518.0044.057989.0066.042947.0042.096125.0082.1522902.011.445362.02256 1.1021118.12728 1.5375365.245234.2939607.07962.4874955.1455.7744589.263286.066297.02722.1270965.0521.1723419.0702.022626.009.041197.0162.055281.02156.00662.0026.0125.0044.01786.0064.0003382.00013.0007458.00038.00108.000502.0000866.000032.0004474-.000048.0005407 0 .0001908.000066.000352.000432.0005412.0005.00202.00097.00412.0018.00758.0034-.0002064-.00044-.0009416-.0013-.00162-.0015.00102.00035.00143.000584.00272.001.00228.000756.00478.002.0103.0034.00218.000602.00384.0017.0065.003-.00128-.000274-.00608-.000204-.00704-.000498.01272.0062.027814.0142.048235.02458.048573.02472.1153106.05896.1880597.0968.7027593.365469 1.2283149.742347 2.0675724 1.486451.1105727.09802.2136059.186962.2915736.252758.038984.0329.071359.05996.097011.08024.01282.01.023666.0184.035225.02658.00578.004.01138.0082.021136.014.0049.0028.01088.0062.021678.011.0108.0048.021562.0142.071537.0166.059873.0026.072297-.0094.084545-.0146.01226-.005.01854-.0086.023846-.0114.0106-.006.01658-.0102.022762-.0146.01236-.0086.023528-.0172.037396-.02808.027736-.02158.063157-.05084.1056808-.08626.085025-.07076.1975336-.166978.3186524-.273245.6942496-.609173 1.0303092-.866684 1.5136922-1.16348 1.055624-.648162 1.996296-.935856 3.440353-1.048641l.117065-.009c.0941-.0072.166464-.08012.166382-.167502v-.06366c.000001-.13278-.03414-.407022-.0802-.746736-.04602-.33956-.104935-.72622-.158201-1.0199-.316793-1.7467761-.676958-2.9770199-1.280649-4.3681138-.543842-1.2531825-1.322426-2.5190837-2.252922-3.6649704-.0021-.00258-.0043-.00506-.0065-.00754-.6263359-.6860534-1.2321834-1.4061355-1.8930656-2.07369-.0330696-.0335377-.0794048-.0532581-.1284441-.0546637z" opacity=".2" stroke-width=".016683"/><path d="m8.4874713 1.0585928c-.051375-.00146-.1010048.01732-.1365724.051654-.5131703.4955233-1.0347293 1.0515167-1.5061034 1.5807319-.000548.0006642-.00109.00133-.00162.002-1.1615849 1.3404885-2.044488 2.7178299-2.6843261 4.1925561-.5960304 1.3737566-.9445124 2.5621796-1.2616795 4.2933512-.069456.379098-.139641.83847-.1880614 1.208117-.024209.184823-.043009.346974-.053655.466897-.00532.05996-.00842.109161-.00922.14894-.0003936.0198-.000456.03648.00162.05716.00104.0104.00202.02138.00758.04012.00558.0188.00102.05678.082377.103301.0439.0251.049807.02014.060699.02256.01088.0024.01932.0042.028182.0056.01772.0026.036518.0044.057989.0066.042948.0042.096125.0082.1522902.011.445362.02256 1.1021118.127281 1.5375365.245234.2939607.07962.4874955.145501.7744589.263286.066297.02722.1270965.0521.1723419.0702.022626.009.041197.0162.055281.02156.00662.0026.0125.0044.01786.0064.0003382.00013.0007458.00038.00108.000503.0000866.000032.0004474-.000048.0005407 0 .0001908.000066.000352.000432.0005412.0005.00202.00097.00412.0018.00758.0034-.0002064-.00044-.0009416-.0013-.00162-.0015.00102.00035.00143.000583.00272.001.00228.000756.00478.002.0103.0034.00218.000602.00384.0017.0065.003-.00128-.000274-.00608-.000204-.00704-.000498.01272.0062.027814.0142.048236.02458.048573.02472.1153106.05896.1880597.0968.7027593.365469 1.2283149.742346 2.0675724 1.48645.1105727.09802.2136059.186962.2915736.252759.038984.0329.071359.05996.097011.08024.01282.01.023666.0184.035225.02658.00578.004.01138.0082.021136.014.0049.0028.01088.0062.021678.011.0108.0048.021562.0142.071537.0166.059873.0026.072297-.0094.084545-.0146.01226-.005.01854-.0086.023846-.0114.0106-.006.01658-.0102.022762-.0146.01236-.0086.023528-.0172.037396-.02808.027736-.02158.063157-.05084.1056808-.08626.085025-.07076.1975336-.166978.3186524-.273246.6942488-.609173 1.0303082-.866683 1.5136912-1.16348 1.055625-.648161 1.996296-.935856 3.440353-1.048641l.117065-.009c.0941-.0072.166464-.08012.166382-.167502v-.06366c.000001-.13278-.03414-.407023-.0802-.746736-.04602-.33956-.104935-.72622-.158201-1.019901-.316793-1.7467744-.676958-2.9770181-1.280649-4.3681121-.543842-1.2531824-1.322426-2.5190837-2.252922-3.6649704-.0021-.00258-.0043-.00506-.0065-.00754-.6263359-.6860534-1.2321834-1.4061355-1.8930656-2.07369-.0330696-.0335377-.0794048-.0532581-.1284441-.0546637z" fill="#0278dc" stroke-width=".016683"/><path d="m8.4873655 1.0621277c-.051375-.00146-.1008568.01776-.1364224.05209-.4345718.4196263-.8693633.8814357-1.2803946 1.3348068l1.4004746 8.1115735 1.3862637-8.098551c-.4044653-.455271-.8110331-.9103107-1.2413138-1.3449354-.0330694-.0335377-.0795684-.0535784-.1286075-.0549839zm-.0163424 9.4984703 4.2596869-3.7512047c-.292171-.6589182-.652717-1.3185491-1.062257-1.9635044zm0 0 5.2707859-.7574756c-.129667-.5359381-.276285-1.036782-.441956-1.5236329zm0 0 5.6345819 2.670337.01562-.0014c.0941-.0072.166348-.08046.166266-.167842v-.05498c.000001-.13236-.03423-.405099-.08029-.743729-.0232-.170508-.05223-.335788-.07958-.512219l-.102303-.376206zm0 0 2.0648289 3.716478.111555-.03906c.391973-.234831.772118-.420372 1.168837-.565755zm0 0-.8739643 4.6418c.1058748.09022.2051936.171462.3218748.27492.1105707.09802.2133535.186702.2913214.25249.038984.0329.071695.06004.097343.0803.01282.01.023258.0186.034818.02676.00578.004.01156.008.021316.0138.00124.000704.00422.002.00568.0028l.1016088.018.2884794-.172902c.081761-.06846.1803359-.151381.2906106-.24815.1064787-.09344.165054-.135861.2565052-.214148zm0 0-3.3139585 3.127573c.062997.02394.1202206.04368.1918458.07308.066297.02722.1274145.05206.1726619.07018.022626.009.04063.0162.054711.0217.00662.0026.01308.0046.01846.0066 0 0 .0007104.000724.0007104.000724h.0007107.0007102c.00202.00097.00362.0019.00712.0036-.0002062-.000442-.0007402-.0012-.00142-.0014.00102.00035.00156.000306.00286.000724.00228.000754.00442.002.00994.0036.00218.0006.00446.0016.00712.0028-.00128-.000276-.00614.000294-.00712 0 .01272.0062.027896.0142.048318.0246.048575.02472.1148346.05838.1875837.09622.1870298.09726.3617234.196822.532905.302413zm0 0-5.5891074.734325c-.063799.35816-.1281665.768306-.172662 1.106912-.02421.184234-.043354.345653-.054001.465195-.00522.0586-.00838.10616-.00924.14542-.0000172.000778.0000152.0022 0 .0028-.0002134.0162.0003682.03092.00214.04848.00104.0104.00154.02104.00712.03978.00556.0188.00107.05692.082423.103461.043902.0251.050215.02.061105.02242.01088.0024.01886.0044.027712.0058.01772.0026.036792.0044.058265.0066.042947.0042.095891.008.1520562.0108.081397.0042.175706.0132.2685841.02242zm0 0-4.8345141-2.2811085c-.1590476.4661677-.3001579.9464843-.4256134 1.459244zm0 0-3.1874824-5.7472654c-.387006.6058459-.722391 1.225721-1.0132298 1.8622183z" fill="#48a0f8" fill-rule="evenodd"/><path d="m32.078125 4c-.194178-.0055-.381197.0655439-.515625.1953125-1.939541 1.872844-3.909835 3.976379-5.691406 5.9765625-.002.00252-.00581.0014-.007813.003906-4.39026 5.066426-7.726246 10.273888-10.144531 15.847657-2.252713 5.192151-3.570789 9.683551-4.769531 16.226562-.262511 1.432815-.527932 3.169315-.710938 4.566406-.091498.698544-.162888 1.312373-.203125 1.765625-.020107.226621-.032132.412151-.035156.5625-.0014876.074835-.0000538.136683.007812.214844.003931.039307.00633.081515.027344.152344.000833.002804.004892.010611.00586.013672.040868-.448614.108698-1.032821.197265-1.708985.183006-1.397091.448427-3.133591.710938-4.566406 1.198742-6.54301 2.516818-11.034411 4.769531-16.226562 2.418285-5.573769 5.754271-10.781231 10.144531-15.847657.002003-.002506.005813-.001386.007813-.003906 1.781571-2.0001835 3.751865-4.1037185 5.691406-5.9765625.134428-.1297686.321447-.2008125.515625-.1953125.185346.0053125.359388.080275.484375.2070312 2.497823 2.5230411 4.789 5.2429858 7.15625 7.8359378.008315.009373.0155.021499.023438.03125 3.516835 4.33091 6.460159 9.115124 8.515624 13.851562 2.281667 5.257678 3.642494 9.905933 4.839844 16.507813.201324 1.109975.423723 2.572092.597656 3.855468.129879.957915.214478 1.692151.259766 2.25586.027865-.059428.044979-.124175.044922-.19336v-.238281c.000008-.501849-.130602-1.54026-.304688-2.824219-.173933-1.283376-.396332-2.745493-.597656-3.855468-1.19735-6.60188-2.558177-11.250135-4.839844-16.507813-2.055465-4.736438-4.998789-9.520652-8.515624-13.851562-.007938-.009751-.015123-.021877-.023438-.03125-2.36725-2.5929516-4.658427-5.3128967-7.15625-7.8359378-.124987-.1267562-.299029-.2017187-.484375-.2070312z" fill="#fff" opacity=".2" stroke-width=".063053" transform="scale(.26458333)"/></svg>