<svg height="64" viewBox="0 0 64 64" width="64" xmlns="http://www.w3.org/2000/svg"><path d="m32 5a28 28 0 0 0 -28 28 28 28 0 0 0 28 28 28 28 0 0 0 28-28 28 28 0 0 0 -28-28z" opacity=".2"/><path d="m32 4a28 28 0 0 0 -28 28 28 28 0 0 0 28 28 28 28 0 0 0 28-28 28 28 0 0 0 -28-28z" fill="#48aeff"/><path d="m23.09375 19a1.995938 1.4854551 0 0 0 -.19922.004 1.995938 1.4854551 0 0 0 -1.621094.738282l-7.003905 9.02725a1.995938 1.4854551 0 0 0 1.726563 2.230468h4.003906v13.109376c0 1.600444 1.29018 2.890624 2.890624 2.890624h.218752c1.600444 0 2.890624-1.29018 2.890624-2.890624v-13.109376h4.003906a1.995938 1.4854551 0 0 0 1.726562-2.230468l-7.003906-9.027344a1.995938 1.4854551 0 0 0 -1.632812-.742188zm17.796874 0c-1.600444 0-2.890624 1.29018-2.890624 2.890624v13.109376h-4.003906a1.995938 1.4854551 0 0 0 -1.726562 2.230468l7.003906 9.027344a1.995938 1.4854551 0 0 0 1.621094.738282 1.995938 1.4854551 0 0 0 1.83203-.738282l7.003906-9.027344a1.995938 1.4854551 0 0 0 -1.726562-2.230468h-4.003906v-13.109376c0-1.600444-1.29018-2.890624-2.890624-2.890624z" opacity=".2"/><g fill="#fff"><g transform="scale(2)"><rect height="13" ry="1.444" width="3" x="10" y="10"/><path d="m11.44642 9.0010645a.99796898.74272755 0 0 0 -.810534.3703185l-3.5020518 4.514356a.99796898.74272755 0 0 0 .8641132 1.114261h7.0041046a.99796898.74272755 0 0 0 .864114-1.114261l-3.502052-4.514356a.99796898.74272755 0 0 0 -.917694-.3703185z"/></g><g transform="matrix(2 0 0 -2 18 64)"><rect height="13" ry="1.444" width="3" x="10" y="10"/><path d="m11.44642 9.0010645a.99796898.74272755 0 0 0 -.810534.3703185l-3.5020518 4.514356a.99796898.74272755 0 0 0 .8641132 1.114261h7.0041046a.99796898.74272755 0 0 0 .864114-1.114261l-3.502052-4.514356a.99796898.74272755 0 0 0 -.917694-.3703185z"/></g><path d="m32 4a28 28 0 0 0 -28 28 28 28 0 0 0 .0214844.40625 28 28 0 0 1 27.9785156-27.40625 28 28 0 0 1 27.978516 27.578125 28 28 0 0 0 .021484-.578125 28 28 0 0 0 -28-28z" opacity=".2"/></g></svg>