<svg height="64" viewBox="0 0 64 64" width="64" xmlns="http://www.w3.org/2000/svg" xmlns:xlink="http://www.w3.org/1999/xlink"><filter id="a" color-interpolation-filters="sRGB" height="1.024" width="1.024" x="-.012" y="-.012"><feGaussianBlur stdDeviation=".27500001"/></filter><filter id="b" color-interpolation-filters="sRGB" height="1.024" width="1.024" x="-.012" y="-.012"><feGaussianBlur stdDeviation=".215"/></filter><ellipse cx="32" cy="33" filter="url(#a)" opacity=".2" rx="27.5" ry="27.500002" stroke-width="1.341463"/><ellipse cx="32" cy="32.000023" fill="#3a9104" rx="27.5" ry="27.500002" stroke-width="1.341463"/><path d="m32.000072 4.4999757a27.499896 27.499896 0 0 0 -27.4998962 27.4999233 27.499896 27.499896 0 0 0 .0208034.575721 27.499896 27.499896 0 0 1 27.4787848-27.0932153 27.499896 27.499896 0 0 1 27.479274 26.9242953 27.499896 27.499896 0 0 0 .020805-.40671 27.499896 27.499896 0 0 0 -27.499897-27.4999259z" fill="#fff" opacity=".2" stroke-width=".982139"/><g stroke-width="2.687735"><path d="m32.314991 11.502228a21.503246 21.500507 0 0 0 -15.51846 6.298979 21.503246 21.500507 0 0 0 0 30.403062 21.503246 21.500507 0 0 0 30.406938 0 21.503246 21.500507 0 0 0 0-30.403062 21.503246 21.500507 0 0 0 -14.888478-6.298979zm-.587979 2.687564a18.815342 18.812946 0 0 1 12.578557 4.608752l-3.774614 3.774137a21.501877 13.438673 44.991678 0 0 -14.578742-7.369804 18.815342 18.812946 0 0 1 5.774799-1.013085zm-8.137215 3.511681a18.814143 10.750938 44.992816 0 1 15.035473 6.776646l-6.625268 6.624426-12.232072-12.230512a18.814143 10.750938 44.992816 0 1 3.821867-1.17056zm22.631956 2.981515a18.815342 18.812946 0 0 1 3.590877 18.303777 21.501877 13.438673 44.991678 0 0 -7.391742-14.503395zm-28.359505.084 12.237321 12.235763-6.630518 6.629673a18.814143 10.750938 44.992816 0 1 -5.606803-18.865446zm22.668707 5.606085a18.814143 10.750938 44.992816 0 1 5.606802 18.865436l-12.237321-12.23576zm-26.34358.645648a21.501877 13.438673 44.991678 0 0 7.391743 14.503393l-3.800867 3.800383a18.815342 18.812946 0 0 1 -3.590876-18.303776zm17.812627 7.884217 12.232073 12.230515a18.814143 10.750938 44.992816 0 1 -18.857339-5.606093zm-8.530951 8.529866a21.501877 13.438673 44.991678 0 0 14.578742 7.369805 18.815342 18.812946 0 0 1 -18.353361-3.595669z" filter="url(#b)" opacity=".2"/><path d="m32.31499 10.502228a21.503246 21.500507 0 0 0 -15.518459 6.298979 21.503246 21.500507 0 0 0 0 30.403062 21.503246 21.500507 0 0 0 30.406937 0 21.503246 21.500507 0 0 0 0-30.403062 21.503246 21.500507 0 0 0 -14.888478-6.298979zm-.587979 2.687564a18.815342 18.812946 0 0 1 12.578557 4.608752l-3.774614 3.774137a21.501877 13.438673 44.991678 0 0 -14.578742-7.369804 18.815342 18.812946 0 0 1 5.774799-1.013085zm-8.137215 3.511681a18.814143 10.750938 44.992816 0 1 15.035473 6.776646l-6.625268 6.624426-12.232071-12.230512a18.814143 10.750938 44.992816 0 1 3.821866-1.17056zm22.631956 2.981515a18.815342 18.812946 0 0 1 3.590877 18.303777 21.501877 13.438673 44.991678 0 0 -7.391742-14.503395zm-28.359504.084 12.23732 12.235763-6.630518 6.629673a18.814143 10.750938 44.992816 0 1 -5.606802-18.865446zm22.668706 5.606085a18.814143 10.750938 44.992816 0 1 5.606802 18.865436l-12.237321-12.23576zm-26.343579.645648a21.501877 13.438673 44.991678 0 0 7.391742 14.503393l-3.800866 3.800383a18.815342 18.812946 0 0 1 -3.590876-18.303776zm17.812626 7.884217 12.232073 12.230515a18.814143 10.750938 44.992816 0 1 -18.857339-5.606093zm-8.530951 8.529866a21.501877 13.438673 44.991678 0 0 14.578742 7.369805 18.815342 18.812946 0 0 1 -18.35336-3.595669z" fill="#fafafa"/></g></svg>