<svg height="64" width="64" xmlns="http://www.w3.org/2000/svg" xmlns:xlink="http://www.w3.org/1999/xlink"><linearGradient id="a" gradientUnits="userSpaceOnUse" x1="29.878553" x2="29.878553" y1="62.09482" y2="2.09362"><stop offset="0" stop-color="#3889e9"/><stop offset="1" stop-color="#5ea5fb"/></linearGradient><linearGradient id="b" gradientUnits="userSpaceOnUse" x1="12.692" x2="51.5" y1="9.5" y2="59.5"><stop offset="0" stop-color="#50d2ff"/><stop offset="1" stop-color="#19a0e6"/></linearGradient><filter id="c" color-interpolation-filters="sRGB" height="1.1509" width="1.1895" x="-.094769" y="-.075429"><feGaussianBlur stdDeviation="1.5399996"/></filter><circle cx="32.02" cy="32.044" fill="url(#a)" r="0" stroke-width="1.5715"/><g fill="#5e4aa6" stroke-width="1.000006568"><circle cx="-1299.393348" cy="-1221.920332" r="0"/><circle cx="-199.8925896" cy="43.5691196" fill-rule="evenodd" r="0"/><circle cx="-1240.015832" cy="-1157.856112" r="0"/></g><g filter="url(#c)" opacity=".2" transform="matrix(1.1224 0 0 1.1224 -3.9183 -7.2857)"><path d="m12.5 54v3.5c0 .554.22248 1.0545.58398 1.416s.86202.58398 1.416.58398h35c.554 0 1.0545-.22248 1.416-.58398s.58398-.86202.58398-1.416v-3.5c0-10.803-8.697-19.5-19.5-19.5s-19.5 8.697-19.5 19.5z"/><circle cx="32" cy="21.5" r="11"/></g><g fill="url(#b)" transform="matrix(1.1224 0 0 1.1224 -3.9183 -7.2857)"><path d="m12.5 54v3.5c0 .554.22248 1.0545.58398 1.416s.86202.58398 1.416.58398h35c.554 0 1.0545-.22248 1.416-.58398s.58398-.86202.58398-1.416v-3.5c0-10.803-8.697-19.5-19.5-19.5s-19.5 8.697-19.5 19.5z"/><circle cx="32" cy="21.5" r="11"/></g></svg>