<svg height="64" width="64" xmlns="http://www.w3.org/2000/svg"><path d="m8.0002 61 8.9998-7.999842h34.763887c2.347951 0 4.235912-1.874 4.235912-4.200001v-39.6001571c0-2.3268-1.887961-4.1999999-4.235912-4.1999999h-39.527175c-2.3469514 0-4.235912 1.8731999-4.235912 4.1999999v51.8000001z" opacity=".2"/><path d="m8.0002 60.000842 8.9998-7.999842h34.763887c2.347951 0 4.235912-1.874 4.235912-4.200001v-39.6001571c0-2.3268-1.887961-4.1999999-4.235912-4.1999999h-39.527175c-2.3469514 0-4.235912 1.8731999-4.235912 4.1999999v51.8000001z" fill="#7d529d"/><path d="m34.747039 13.0033c-.702771 0-1.285941.561241-1.292641 1.24135-.0042.683209.579209 1.257728 1.28696 1.261248 3.05445.02294 5.56589.988176 7.590922 2.891696 2.001232 1.885862 3.044449 4.498728 3.071049 7.90837v.003c.0072.678269.59087 1.23845 1.295481 1.23845.000074 0 .0134-.0028.0142-.003.706191-.0064 1.29266-.575798 1.28694-1.258407v-.003c-.016-1.989792-.340006-3.8176-.972016-5.425431-.64001-1.624829-1.612025-3.062278-2.880046-4.258153-2.50604-2.355953-5.706091-3.573026-9.39015-3.599022h-.0114zm-13.11941 2.940091c-.492808-.08376-1.026636.0079-1.559685.264173h-.04262l-.05968.03409c-.987615.561541-1.91363 1.314263-2.781044 2.258363l-.06817.07385v.06816c-.60001.748122-.996816 1.501243-1.088018 2.255564-.02912.127846-.02841.243094-.02841.366441 0 .343184.05044.691948.156253 1.033992l.02841.09659.05966.0341c.342586 1.175277 1.120018 3.004286 2.821045 6.10176 1.132999 2.052985 2.290636 3.767805 3.440455 5.212653.60567.75936 1.29178 1.549978 2.088034 2.346354.0094.0096.04304.04376.07956.07669.0126.0126.03036.03888.07386.08239l.07954.07953h.0058c.02802.02804.04694.04838.05114.05398l.0142.017.0142.0144c.796294.787517 1.581686 1.477685 2.349438 2.079381 1.442763 1.149719 3.15745 2.316357 5.210284 3.451438 3.101249 1.710701 4.947478 2.483939 6.116497 2.820704l.04262.05114.07104.02558c.331206.110409.675851.161383 1.017057.156244.138402.0074.260943-.002.377846-.0284.800712-.09361 1.593545-.472691 2.377837-1.130561l.0086-.0114.0086-.0056c.0122-.012.005-.0062.0114-.0144.007-.0062.01-.0136.0172-.02.928375-.847212 1.677687-1.768634 2.241436-2.755311l.03692-.06249v-.05965c.517808-1.078148.312705-2.178772-.528408-2.880498-.0206-.0176-.424748-.355463-.926156-.76412-.512754-.417797-1.120885-.908905-1.531471-1.210153-.776853-.57462-1.977552-1.317901-2.662043-1.698702h-.0028c-1.314581-.736123-2.688243-.308328-3.292652.474391l-1.059678 1.32658c-.427366.538424-1.28132.487069-1.304001.485749-7.187514-1.848946-9.119945-9.075448-9.133745-9.126843-.0013-.02262-.05294-.877988.485808-1.312382l1.321041-1.056709c.784672-.600897 1.22582-1.974212.485807-3.292255-.386046-.681428-1.132617-1.891061-1.698887-2.66172h-.0028c-.306005-.41216-.796013-1.023696-1.214019-1.537042-.208004-.256573-.398007-.491349-.536009-.658931-.07-.08379-.126001-.151384-.166003-.198779-.02-.02369-.03662-.04036-.0483-.05398-.0058-.0068-.009-.01134-.0142-.01704-.366007-.434754-.832014-.699526-1.346022-.786918zm13.196212 2.880498c-.693152-.04887-1.315962.470452-1.366503 1.139101-.05058.66939.489468 1.266407 1.181839 1.315202 1.712188.120988 2.867646.624314 3.73586 1.542458v.003c.886234.935181 1.289481 2.00319 1.2557 3.462637v.0056c-.015.67161.548389 1.24079 1.244339 1.255508h.0312c.68579 0 1.25748-.541303 1.27274-1.204433.0469-2.00619-.60659-3.796202-1.923331-5.184056-1.326021-1.394654-3.200051-2.175972-5.434087-2.334756z" opacity=".2"/><g fill="#fff"><path d="m34.748333 12.0033c-.702771 0-1.285941.561242-1.292641 1.24135-.0042.683208.579209 1.257727 1.28696 1.261247 3.05445.02294 5.56589.988177 7.590922 2.891696 2.001232 1.885862 3.044449 4.498726 3.071049 7.908367v.003c.0072.678269.59087 1.238449 1.295481 1.238449.000074 0 .0134-.0028.0142-.003.706191-.0064 1.29266-.5758 1.28694-1.258408v-.003c-.016-1.98979-.340006-3.817598-.972016-5.425428-.64001-1.624829-1.612025-3.062278-2.880046-4.258152-2.50604-2.35595-5.706091-3.573023-9.39015-3.59902h-.0114zm-13.11941 2.940091c-.492808-.08376-1.026636.0079-1.559685.264173h-.04262l-.05968.03409c-.987615.56154-1.91363 1.314261-2.781044 2.258362l-.06817.07385v.06817c-.60001.748121-.996816 1.501242-1.088018 2.255563-.02912.127842-.02841.243094-.02841.366441 0 .343184.05044.691947.156253 1.033992l.02841.09659.05966.0341c.342586 1.175275 1.120018 3.004283 2.821045 6.101757 1.132999 2.052984 2.290636 3.767803 3.440455 5.212651.60567.75936 1.29178 1.549978 2.088034 2.346353.0094.0096.04304.04376.07956.07669.0126.0126.03036.03888.07386.08239l.07954.07953h.0058c.02802.02804.04694.04838.05114.05398l.0142.017.0142.0144c.796294.787517 1.581686 1.477684 2.349438 2.079381 1.442763 1.149719 3.15745 2.316357 5.210284 3.451437 3.101249 1.7107 4.947478 2.483938 6.116497 2.820703l.04262.05114.07104.02558c.331206.110409.675851.161384 1.017057.156244.138402.0074.260943-.002.377846-.0284.800712-.09361 1.593545-.47269 2.377837-1.130562l.0086-.0114.0086-.0056c.0122-.012.005-.0062.0114-.0144.007-.0062.01-.0136.0172-.02.928375-.84721 1.677687-1.768633 2.241436-2.755309l.03692-.06249v-.05965c.517808-1.078146.312705-2.17877-.528408-2.880496-.0206-.0176-.424748-.355463-.926156-.76412-.512754-.417799-1.120885-.908907-1.531471-1.210155-.776853-.574619-1.977552-1.317902-2.662043-1.698701h-.0028c-1.314581-.736123-2.688243-.308327-3.292652.47439l-1.059678 1.326581c-.427366.538422-1.28132.487067-1.304001.485748-7.187514-1.848945-9.119945-9.075444-9.133745-9.126839-.0013-.02262-.05294-.877988.485808-1.312382l1.321041-1.056709c.784672-.600896 1.22582-1.974212.485807-3.292253-.386046-.681429-1.132617-1.891061-1.698887-2.66172h-.0028c-.306005-.412157-.796013-1.023692-1.214019-1.537039-.208004-.256572-.398007-.491347-.536009-.65893-.07-.08379-.126001-.151384-.166003-.198779-.02-.02369-.03662-.04036-.0483-.05398-.0058-.0068-.009-.01134-.0142-.01704-.366007-.434754-.832014-.699527-1.346022-.786918zm13.196212 2.880497c-.693152-.04887-1.315962.47045-1.366503 1.1391-.05058.669389.489468 1.266407 1.181839 1.315202 1.712188.120986 2.867646.624314 3.73586 1.542457v.003c.886234.935181 1.289481 2.003189 1.2557 3.462635v.0056c-.015.67161.548389 1.24079 1.244339 1.255508h.0312c.68579 0 1.25748-.541303 1.27274-1.204433.0469-2.006189-.60659-3.7962-1.923331-5.184054-1.326021-1.394654-3.200051-2.175971-5.434087-2.334754z"/><path d="m12.234375 4c-2.3463808 0-4.234375 1.8724-4.234375 4.1998497v1.0001503c0-2.3274499 1.8879942-4.1998497 4.234375-4.1998497h39.53125c2.34598 0 4.234375 1.8723999 4.234375 4.1998497v-1.0001503c0-2.3274498-1.888395-4.1998497-4.234375-4.1998497z" opacity=".2"/></g></svg>