<svg height="64" viewBox="0 0 64 64" width="64" xmlns="http://www.w3.org/2000/svg"><path d="m32 5a28 28 0 0 0 -28 28 28 28 0 0 0 28 28 28 28 0 0 0 28-28 28 28 0 0 0 -28-28z" opacity=".2"/><path d="m32 4a28 28 0 0 0 -28 28 28 28 0 0 0 28 28 28 28 0 0 0 28-28 28 28 0 0 0 -28-28z" fill="#f3b616"/><path d="m53.347196 5c.98584.0000572 1.53678.7765034 1.652804 2.3293678l-1.245214 7.3131042h.304466l.652416-.541716h.17398v.162516c-.898942.686218-1.768842 2.56414-2.609698 5.633796-.319 2.636368-.855444 5.074066-1.60932 7.313118-.666952 2.311326-1.00042 4.44205-1.000378 6.3922l-1.261358 3.846148c-.000028.325044.478412.650076 1.435332.975076-.174.758418-.434982 1.137618-.782904 1.137604v.216686h.304466v.1625c-.000042.397276-.492976.595906-1.47883.59589l.17398.216686v.75839h-.304464c.202948.758418.63789 1.137606 1.304854 1.137606v.379186h-1.304854v.216688c.434914.000014.652398.325044.652426.97509l-1.826778.75839.17396.216686v.16252c-.000026.252802-.217512.3792-.652426.3792v.216672c.550898.000014.826374.12638.826402.379204-.782932.325028-1.812312 1.932108-3.088136 4.821236-1.304872 2.564106-2.43574 3.846156-3.392592 3.846156h-.347962c-.724942-.577832-1.319378-2.491882-1.783296-5.742154-1.85581-4.947624-2.783698-7.854808-2.783672-8.721554-.000026-2.239054-.594464-4.223-1.783296-6.750998-.318988-1.119518-.536458-3.077196-.652428-4.774588h-.782904c-1.971794 3.719772-3.001172 6.559918-3.088152 8.654514-.55094 1.227894-.985896 2.70857-1.304842 4.442036 1.188844.397274 1.783282.77646 1.783296 1.13759v.216688c-.927918-.14444-1.580332-.415304-1.957282-.812562-.405956.97509-.9424 3.083668-1.60931 7.525686-.52195 2.058508-1.174378 2.825342-1.95727 2.825342-2.203756-.902848-4.045043-2.121108-5.52386-4.179618-.231979.000016-.608944-1.029246-1.130867-3.087756-.318974.000014-.536445-1.029248-.652428-3.087758-1.101879-2.925228-1.855782-5.665806-2.261736-9.421682v-5.633812h-.173988l-.782906.216688v-.216688c0-.252756.260969-.37916.782906-.379188l-.173976-3.250272v-2.546052l-1.261357-8.125668v-3.067058c.550939-2.1667958 1.507832-3.2502148 2.870665-3.250272l.521965.541717-.521937-.162516c2.116751 2.88917 3.363614 4.926968 3.740565 6.913205h1.47883v.379201h-1.130866v.433374c.434942 1.66128.753901 2.491912.956893 2.49187h.347963l.782904-.216687.17398.216687.17398-.216687.17398.216687v.162514c-.579946.433403-.97139 1.02929-1.174368 1.787651h-.13046v.379188h.304466c.40594 6.031098 1.159856 11.400282 2.261736 14.50608l.652426.596852h.347948c.434946.00003 1.348342-2.368286 2.74019-6.59366.898888-1.914008 1.551304-3.315518 1.95727-4.760112l-.17398-.595888c.898874-1.408422 1.826764-2.050296 2.78367-2.05034h.304468c.608918.000044 1.04386.334948 1.304856 1.129436.811878 1.191792 1.464308 2.701646 1.957268 5.08514l2.435724 5.03352c.318934.397286.478412.848704.47844 1.35429.898874 2.13074 1.710768 4.711452 2.435724 5.397614h.521936c.608904.000014 1.420798-3.808578 2.43571-9.081258.17396.000028.6524-1.40842 1.435332-4.225348v-.216686l-.827494-.379202-.652428.216686h-.826402v-.433372l1.652804-.16252h1.305948c1.24683-4.658674 2.392192-8.27009 3.436106-10.834231.347924-5.2726096.826376-7.908936 1.435334-7.908979l2.376096-.97509" opacity=".2"/><g fill="#fff"><path d="m53.347196 4c.98584.0000572 1.53678.7765034 1.652804 2.3293678l-1.245214 7.3131042h.304466l.652416-.541716h.17398v.162516c-.898942.686218-1.768842 2.56414-2.609698 5.633795-.319 2.636369-.855444 5.074067-1.60932 7.313119-.666952 2.311326-1.00042 4.44205-1.000378 6.3922l-1.261358 3.846148c-.000028.325044.478412.650076 1.435332.975076-.174.758418-.434982 1.137618-.782904 1.137604v.216686h.304466v.1625c-.000042.397276-.492976.595906-1.47883.59589l.17398.216686v.75839h-.304464c.202948.758418.63789 1.137606 1.304854 1.137606v.379186h-1.304854v.216688c.434914.000014.652398.325044.652426.97509l-1.826778.75839.17396.216686v.16252c-.000026.252802-.217512.3792-.652426.3792v.216672c.550898.000014.826374.12638.826402.379204-.782932.325028-1.812312 1.932108-3.088136 4.821236-1.304872 2.564106-2.43574 3.846156-3.392592 3.846156h-.347962c-.724942-.577832-1.319378-2.491882-1.783296-5.742154-1.85581-4.947624-2.783698-7.854808-2.783672-8.721554-.000026-2.239054-.594464-4.223-1.783296-6.750998-.318988-1.119518-.536458-3.077196-.652428-4.774588h-.782904c-1.971794 3.719772-3.001172 6.559918-3.088152 8.654514-.55094 1.227894-.985896 2.70857-1.304842 4.442036 1.188844.397274 1.783282.77646 1.783296 1.13759v.216688c-.927918-.14444-1.580332-.415304-1.957282-.812562-.405956.97509-.9424 3.083668-1.60931 7.525686-.52195 2.058508-1.174378 2.825342-1.95727 2.825342-2.203756-.902848-4.045043-2.121108-5.52386-4.179618-.231979.000016-.608944-1.029246-1.130867-3.087756-.318974.000014-.536445-1.029248-.652428-3.087758-1.101879-2.925228-1.855782-5.665806-2.261736-9.421682v-5.633812h-.173988l-.782906.216688v-.216688c0-.252756.260969-.37916.782906-.379188l-.173976-3.250272v-2.546052l-1.261357-8.125668v-3.0670578c.550939-2.166796 1.507832-3.250215 2.870665-3.2502722l.521965.541717-.521937-.162516c2.116751 2.8891704 3.363614 4.926968 3.740565 6.913205h1.47883v.379201h-1.130866v.433374c.434942 1.66128.753901 2.491912.956893 2.49187h.347963l.782904-.216687.17398.216687.17398-.216687.17398.216687v.162514c-.579946.433403-.97139 1.02929-1.174368 1.787652h-.13046v.379187h.304466c.40594 6.031098 1.159856 11.400282 2.261736 14.50608l.652426.596852h.347948c.434946.00003 1.348342-2.368286 2.74019-6.59366.898888-1.914008 1.551304-3.315518 1.95727-4.760112l-.17398-.595888c.898874-1.408422 1.826764-2.050296 2.78367-2.05034h.304468c.608918.000044 1.04386.334948 1.304856 1.129436.811878 1.191792 1.464308 2.701646 1.957268 5.08514l2.435724 5.03352c.318934.397286.478412.848704.47844 1.35429.898874 2.13074 1.710768 4.711452 2.435724 5.397614h.521936c.608904.000014 1.420798-3.808578 2.43571-9.081258.17396.000028.6524-1.40842 1.435332-4.225348v-.216686l-.827494-.379202-.652428.216686h-.826402v-.433372l1.652804-.16252h1.305948c1.24683-4.658674 2.392192-8.27009 3.436106-10.834231.347924-5.2726096.826376-7.908936 1.435334-7.908979l2.376096-.97509"/><path d="m32 4a28 28 0 0 0 -28 28 28 28 0 0 0 .0214844.40625 28 28 0 0 1 27.9785156-27.40625 28 28 0 0 1 27.978516 27.578125 28 28 0 0 0 .021484-.578125 28 28 0 0 0 -28-28z" opacity=".2"/></g></svg>