<svg height="64" width="64" xmlns="http://www.w3.org/2000/svg" xmlns:xlink="http://www.w3.org/1999/xlink"><filter id="a" color-interpolation-filters="sRGB" height="1.024" width="1.024" x="-.012" y="-.012"><feGaussianBlur stdDeviation=".29000002"/></filter><filter id="b" color-interpolation-filters="sRGB" height="1.023996" width="1.024004" x="-.012002" y="-.011998"><feGaussianBlur stdDeviation=".1674747"/></filter><rect filter="url(#a)" height="58.000004" opacity=".2" ry="5.272728" width="58.000004" x="2.999998" y="3.999996"/><rect fill="#303f9f" height="58.000004" ry="5.272728" width="58.000004" x="2.999999" y="2.999999"/><path d="m8.2727262 2.9999987c-2.921091 0-5.2727275 2.3516365-5.2727275 5.2727275v1.0545455c0-2.921091 2.3516365-5.2727275 5.2727275-5.2727275h47.4545478c2.921091 0 5.272727 2.3516365 5.272727 5.2727275v-1.0545455c0-2.921091-2.351636-5.2727275-5.272727-5.2727275z" fill="#fafafa" opacity=".2"/><rect fill="#fafafa" height="55" ry="5" width="55" x="4.5" y="4.5"/><g filter="url(#b)" opacity=".2" stroke-width=".050604" transform="matrix(1.1940299 0 0 1.1940299 -6.208883 -5.208958)"><path d="m26.853489 33.335952h-11.59849c.647734 8.213066 7.200982 14.766314 15.414048 15.414048v-11.704758c-1.841994-.465559-3.299395-1.887538-3.815558-3.70929z"/><path d="m30.669047 26.7321v-11.4821c-8.187764.647734-14.72583 7.160499-15.408988 15.338142h11.552946c.47568-1.892598 1.963444-3.380362 3.856042-3.856042z"/><path d="m37.121087 30.588142h11.623791c-.673036-8.152341-7.175679-14.654985-15.328021-15.333082v11.517523c1.821752.516163 3.243731 1.973565 3.70423 3.815559z"/><path d="m-3.393923 50.297688h7.211032v13.162032h-7.211032z" transform="matrix(.70710678 -.70710678 .70710678 .70710678 0 0)"/></g><g stroke-width=".060423"><path d="m25.854985 33.595167h-13.848943c.773413 9.806646 8.598187 17.63142 18.404834 18.404834v-13.975831c-2.199396-.555892-3.939577-2.253777-4.555891-4.429003z" fill="#303f9f"/><path d="m30.410876 25.70997v-13.709971c-9.776435.773414-17.583082 8.54985-18.398793 18.3142h13.794563c.567976-2.259818 2.344411-4.036253 4.60423-4.604229z" fill="#3f51b5"/><path d="m38.114804 30.314199h13.879154c-.803625-9.734139-8.567975-17.49849-18.302115-18.308158v13.752267c2.175226.616314 3.873112 2.356495 4.422961 4.555891z" fill="#448aff"/></g><path d="m-4.052394 51.276203h8.610189v15.71586h-8.610189z" fill="#ff5722" stroke-width=".060422" transform="matrix(.70710678 -.70710678 .70710678 .70710678 0 0)"/></svg>