<svg height="64" width="64" xmlns="http://www.w3.org/2000/svg"><path d="m32 4c-15.512 0-28 12.488-28 28s12.488 28 28 28 28-12.488 28-28-12.488-28-28-28z" fill="#ccc"/><path d="m32 4c-15.511557 0-28 12.488-28 28 0 .113556.0112848.224032.0175781.335938.3515331-15.201757 12.6935859-27.335938 27.9824219-27.335938 15.288835 0 27.630889 12.134181 27.982422 27.335938.006271-.111825.017578-.22249.017578-.335938 0-15.512-12.488444-28-28-28z" fill="#fff" opacity=".2"/><g fill="#fa5e5e"><path d="m28 30h8v24h-8z"/><path d="m44.97 15.3726 5.658 5.6574-16.972 16.97-5.656-5.656z"/><path d="m19.0568 15.3726-5.6568 5.6574 16.97 16.97 5.658-5.656z"/></g><path d="m59.982422 32.664062c-.351543 15.201757-12.69315 27.335938-27.982422 27.335938-15.287963 0-27.6288539-12.132102-27.9824219-27.332031-.0061769.110619-.0175781.219792-.0175781.332031 0 15.512 12.488 28 28 28s28-12.488 28-28c0-.113448-.01128-.224113-.01758-.335938z" opacity=".2"/></svg>