<svg height="64" width="64" xmlns="http://www.w3.org/2000/svg" xmlns:xlink="http://www.w3.org/1999/xlink"><filter id="a"><feGaussianBlur stdDeviation=".15038113"/></filter><linearGradient id="b" gradientUnits="userSpaceOnUse" x1="2227.1" x2="2231.8" y1="-1248.2" y2="-1249"><stop offset="0" stop-color="#fff"/><stop offset="1" stop-color="#fff" stop-opacity="0"/></linearGradient><linearGradient id="c" gradientUnits="userSpaceOnUse" x1="-190.3029246" x2="-196.4414352" y1="785.69347534" y2="828.1006364"><stop offset="0" stop-color="#32d2ff"/><stop offset="1" stop-color="#32b4ff"/></linearGradient><linearGradient id="d" gradientUnits="userSpaceOnUse" x1="-403.0329868" x2="-407.0685942" y1="707.705082" y2="753.90427678"><stop offset="0" stop-color="#0073d2"/><stop offset="1" stop-color="#143c73"/></linearGradient><filter id="e" color-interpolation-filters="sRGB" height="1.1452" width="1.1992" x="-.0996" y="-.072625"><feGaussianBlur stdDeviation=".38429972"/></filter><g transform="translate(0 -796.36)"><path d="m2227.5-1257.6c-.084-.015-.4583.434-.4746.2226 1.0455 15.272 1.2007 23.261 1.0957 27.426-.052 2.0825-.1707 3.2102-.2734 3.8086-.021.1236-.034.1464-.053.2285-.27-.8615-.4818-2.2889-.623-4.1211-.1659-2.1532-.2504-4.8233-.2891-7.6777-.077-5.7089.029-12.157.037-16.705a.15089.15089 0 0 0 -.2539-.1094c-.065.061-.094.132-.125.2207-.031.089-.058.1958-.082.3242-.049.257-.089.5988-.123 1.0157-.068.8338-.1108 1.9702-.1309 3.3164-.04 2.6924.01 6.2187.123 9.7969.1139 3.5781.2913 7.2076.5098 10.104.1093 1.4479.229 2.7123.3555 3.6972.1265.985.2522 1.6777.4062 2.0371l.031-.166s.1693.2449.1933.2364c.024-.01.059-.019.1-.035.082-.032.1901-.079.3028-.1367.1127-.057.2297-.1245.3281-.2071.098-.082.1869-.182.207-.3222.7795-5.4137 1.158-13.558 1.0118-20.385-.073-3.4135-.2765-6.4964-.629-8.748-.1762-1.1258-.3886-2.044-.6464-2.6992-.1289-.3277-.2689-.5902-.4297-.7832-.1604-.1925-.351-.32-.5664-.3379z" fill="url(#b)" fill-rule="evenodd" filter="url(#a)" transform="translate(.99619 -.63314)"/><g fill="#5e4aa6"><g stroke-width="1.000006568"><circle cx="-1331.11286" cy="-441.395048" r="0"/><circle cx="-1262.172956" cy="-433.3445" r="0"/><circle cx="-1239.155192" cy="-459.121372" r="0"/><circle cx="-1249.813664" cy="-432.437396" r="0"/></g><g stroke-width="1.000006568"><circle cx="-1137.514348" cy="-526.404332" r="0"/><circle cx="-38.0135896" cy="739.0851196" fill-rule="evenodd" r="0"/><circle cx="-1078.136832" cy="-462.340112" r="0"/></g><circle cx="-1331.1" cy="-441.39" r="0"/><circle cx="-1262.2" cy="-433.34" r="0"/><circle cx="-1239.2" cy="-459.12" r="0"/><circle cx="-1249.8" cy="-432.43" r="0"/><circle cx="-1137.5" cy="-526.4" r="0"/><circle cx="-38.014" cy="739.09" fill-rule="evenodd" r="0"/><circle cx="-1078.1" cy="-462.34" r="0"/></g><rect fill="url(#d)" height="48.035" ry="2.0014" stroke-width="3.7822" transform="matrix(.8660254 -.5 .5 .8660254 5.4412 1.9106)" width="35.024" x="-410.51" y="706.5"/><rect filter="url(#e)" height="12.7" opacity=".35" ry=".52916" transform="matrix(3.3797 -.9056 .91623 3.4194 265.2812 737.8006)" width="9.2602" x="-74.876" y="1.0583"/><rect fill="url(#c)" height="48.035" ry="2.0014" stroke-width="3.7822" transform="matrix(.96592583 -.25881905 .25881905 .96592583 5.4412 1.9106)" width="35.024" x="-201.21" y="780.05"/><path d="m27.02 831.09 5.6124 4.8267 13.021-16.613" fill="none" stroke="#fff" stroke-linecap="round" stroke-linejoin="round" stroke-width="4.3667"/></g></svg>