<?xml version="1.0" encoding="UTF-8"?>
<svg id="svg16" width="64" height="64" version="1" xmlns="http://www.w3.org/2000/svg" xmlns:cc="http://creativecommons.org/ns#" xmlns:dc="http://purl.org/dc/elements/1.1/" xmlns:rdf="http://www.w3.org/1999/02/22-rdf-syntax-ns#">
 <metadata id="metadata22">
  <rdf:RDF>
   <cc:Work rdf:about="">
    <dc:format>image/svg+xml</dc:format>
    <dc:type rdf:resource="http://purl.org/dc/dcmitype/StillImage"/>
    <dc:title/>
   </cc:Work>
  </rdf:RDF>
 </metadata>
 <path id="path39797" d="m29.846 4c-14.187 0-25.846 11.659-25.846 25.846s11.659 25.846 25.846 25.846c1.1563 0 2.2869-0.10525 3.4046-0.25521a15.795 15.795 0 0 1-3.4046-9.7961 15.795 15.795 0 0 1 2.7989-8.9688c-0.86468 0.35793-1.8099 0.55809-2.7989 0.55809-4.0566 0-7.3842-3.3277-7.3842-7.3842 0-4.0566 3.3277-7.3842 7.3842-7.3842 4.0566 0 7.3842 3.3277 7.3842 7.3842 0 0.99733-0.2028 1.9507-0.56651 2.8213a15.795 15.795 0 0 1 8.9772-2.8213 15.795 15.795 0 0 1 9.7933 3.4243c0.1517-1.1241 0.25801-2.2612 0.25801-3.4243 0-14.187-11.659-25.846-25.846-25.846z" color="#bebebe" fill="#555" filter="url(#filter7554)" style="text-decoration-line:none;text-indent:0;text-transform:none"/>
 <ellipse id="circle12-6" cx="45.641" cy="45.641" rx="14.359" ry="14.359" fill="#ff5722" stroke-width=".89744"/>
 <path id="path14-7" d="m47.305 38.462c-4.4046 1.7949-7.0485 6.0021-7.0485 8.9744 0 2.9389 2.3125 5.3236 5.1848 5.3794-1.4353-0.0287-2.5916-1.2182-2.5916-2.6871 0-1.4869 1.3216-3.5897 3.5242-4.4872 0 3.141 2.3649 3.5951 1.7621 5.3846-0.3418 1.0147-1.1755 1.7848-2.6209 1.7931 0.0085 4.5e-5 0.01821 9.87e-4 0.02745 9.87e-4 2.9195 0 4.599-1.5493 5.2863-3.5897 1.2056-3.5792-3.5242-4.4872-3.5242-10.769z" fill="#fff" stroke-width=".89744"/>
</svg>
