<?xml version="1.0" encoding="UTF-8"?>
<svg id="svg12" width="64" height="64" version="1" xmlns="http://www.w3.org/2000/svg" xmlns:cc="http://creativecommons.org/ns#" xmlns:dc="http://purl.org/dc/elements/1.1/" xmlns:rdf="http://www.w3.org/1999/02/22-rdf-syntax-ns#">
 <metadata id="metadata18">
  <rdf:RDF>
   <cc:Work rdf:about="">
    <dc:format>image/svg+xml</dc:format>
    <dc:type rdf:resource="http://purl.org/dc/dcmitype/StillImage"/>
    <dc:title/>
   </cc:Work>
  </rdf:RDF>
 </metadata>
 <path id="path10" d="m18.188 49.067c-1.1204-0.15077-3.1135-0.7995-4.4429-1.4394-8.6618-4.1504-12.204-14.604-7.9378-23.409 4.8739-10.068 18.172-12.634 26.175-5.051 2.3141 2.1894 3.3419 4.0576 6.826 12.341 3.6371 8.6627 4.3093 10.025 5.4879 11.18 1.2626 1.2283 2.4326 1.6421 4.6713 1.6421 3.678 0 6.3046-2.2734 6.3046-5.4455 0-2.685-0.94374-3.5448-5.7573-5.2536-7.3302-2.6441-9.7046-5.0337-9.7132-9.8329 0-2.5601 0.64855-4.2668 2.2969-6.0359 2.3658-2.5254 6.4468-3.3593 10.058-2.1054 1.5406 0.5475 4.764 3.4005 4.764 4.2172 0 0.39652-1.8681 1.6076-2.9045 1.8943-0.54729 0.14215-1.0192-0.04308-1.6505-0.64874-1.2799-1.2283-2.146-1.6076-3.678-1.6076-2.6438 0-4.2835 1.5904-4.2835 4.1591 0 2.5601 1.0429 3.4263 6.2528 5.1847 7.1794 2.4244 9.2995 4.6137 9.3426 9.68 0.04309 4.3766-1.9284 7.5335-5.8499 9.4017-1.7841 0.84258-2.3895 0.95049-5.3026 0.95049-4.1585 0-6.0266-0.77366-8.358-3.4005-1.5664-1.767-3.1566-5.0835-8.2481-17.19-2.1116-5.0167-4.8221-7.4755-9.3426-8.443-2.2904-0.48914-5.4793-0.03447-7.5586 1.0603-2.0275 1.0601-4.2921 3.4522-5.3608 5.6394-0.88341 1.7756-0.96745 2.2734-0.96745 5.3613 0 2.9458 0.1185 3.6441 0.85756 5.2601 1.1204 2.4674 3.3247 4.7473 5.7487 5.9756 1.7517 0.8835 2.2969 0.99357 5.0915 0.99357 2.6847 0 3.3742-0.12708 4.9751-0.89212 1.8272-0.89234 4.2835-3.0817 5.2854-4.7214l0.52143-0.8512 1.0278 2.3488c0.57314 1.2973 1.0342 2.517 1.0342 2.7367 0 0.64874-2.3227 2.7692-4.4515 4.0901-3.232 1.9955-6.9445 2.7431-10.909 2.2045" fill="#555" stroke-width="2.1538"/>
</svg>
