<?xml version="1.0" encoding="UTF-8"?>
<!-- Created with Inkscape (http://www.inkscape.org/) -->
<svg id="svg7384" width="64" height="64" enable-background="new" version="1.1" xmlns="http://www.w3.org/2000/svg" xmlns:cc="http://creativecommons.org/ns#" xmlns:dc="http://purl.org/dc/elements/1.1/" xmlns:rdf="http://www.w3.org/1999/02/22-rdf-syntax-ns#">
 <metadata id="metadata90">
  <rdf:RDF>
   <cc:Work rdf:about="">
    <dc:format>image/svg+xml</dc:format>
    <dc:type rdf:resource="http://purl.org/dc/dcmitype/StillImage"/>
    <dc:title>Paper Symbolic Icon Theme</dc:title>
   </cc:Work>
  </rdf:RDF>
 </metadata>
 <title id="title8473">Paper Symbolic Icon Theme</title>
 <path id="rect828" d="m18 4c-3.878 0-7 3.122-7 7v42c0 3.878 3.122 7 7 7h28c3.878 0 7-3.122 7-7v-42c0-3.878-3.122-7-7-7zm1.4 9.8h25.2v25.2h-25.2zm12.6 30.8a4.2 4.2 0 0 1 4.2 4.2 4.2 4.2 0 0 1-4.2 4.2 4.2 4.2 0 0 1-4.2-4.2 4.2 4.2 0 0 1 4.2-4.2z" fill="#555" fill-opacity=".94118" style="paint-order:markers stroke fill"/>
</svg>
