<?xml version="1.0" encoding="UTF-8"?>
<!-- Created with Inkscape (http://www.inkscape.org/) -->
<svg id="svg7384" width="64" height="64" enable-background="new" version="1.1" xmlns="http://www.w3.org/2000/svg" xmlns:cc="http://creativecommons.org/ns#" xmlns:dc="http://purl.org/dc/elements/1.1/" xmlns:rdf="http://www.w3.org/1999/02/22-rdf-syntax-ns#">
 <metadata id="metadata90">
  <rdf:RDF>
   <cc:Work rdf:about="">
    <dc:format>image/svg+xml</dc:format>
    <dc:type rdf:resource="http://purl.org/dc/dcmitype/StillImage"/>
    <dc:title>Paper Symbolic Icon Theme</dc:title>
   </cc:Work>
  </rdf:RDF>
 </metadata>
 <title id="title8473">Paper Symbolic Icon Theme</title>
 <defs id="defs7386">
  <filter id="filter7554" color-interpolation-filters="sRGB">
   <feBlend id="feBlend7556" in2="BackgroundImage" mode="darken"/>
  </filter>
 </defs>
 <g id="layer12" transform="translate(-425 87.016)">
  <path id="path8675" d="m487-54.873h-7.5c0-10.524-6.9951-19.367-16.523-22.024-0.11843-0.0343-0.23287-0.08763-0.35137-0.11886-0.95693-0.24953-1.928-0.35581-2.9297-0.4762-0.8748-0.10514-1.7927-0.2381-2.6953-0.2381-2.3111 0.0024-4.6083 0.36229-6.7968 1.0714v0.11886c-3.156 1.0174-6.051 2.6451-8.4375 4.881l4.4531 6.0715c1.8825-1.9552 4.3429-3.2243 7.0312-3.9286v-0.11886c1.4255-0.34019 2.9611-0.4637 4.4531-0.35696 0.68176 0.04876 1.3098 0.10894 1.9922 0.2381 7.0015 1.2869 12.305 7.3975 12.305 14.881h-7.5l11.25 15.238 11.25-15.238zm-14.766 16.786-4.4531-6.0715c-1.8825 1.9552-4.3428 3.2243-7.0312 3.9286v0.11886c-1.4255 0.3402-2.9611 0.4637-4.4531 0.35696-0.68176-0.04876-1.3098-0.10894-1.9922-0.2381-7.0015-1.2869-12.305-7.3975-12.305-14.881h7.5l-11.25-15.238-11.25 15.238h7.5c0 10.524 6.9951 19.367 16.523 22.024 0.12071 0.0343 0.22987 0.08723 0.35137 0.11886 0.95694 0.24953 1.928 0.35581 2.9297 0.4762 0.8748 0.10514 1.7927 0.2381 2.6953 0.2381 2.3111-0.0024 4.6083-0.36229 6.7969-1.0714v-0.11886c3.156-1.0174 6.051-2.6451 8.4375-4.881z" enable-background="new" fill="#555"/>
 </g>
</svg>
