<?xml version="1.0" encoding="UTF-8"?>
<!-- Created with Inkscape (http://www.inkscape.org/) -->
<svg id="svg7384" width="64" height="64" enable-background="new" version="1.1" xmlns="http://www.w3.org/2000/svg" xmlns:cc="http://creativecommons.org/ns#" xmlns:dc="http://purl.org/dc/elements/1.1/" xmlns:rdf="http://www.w3.org/1999/02/22-rdf-syntax-ns#">
 <metadata id="metadata90">
  <rdf:RDF>
   <cc:Work rdf:about="">
    <dc:format>image/svg+xml</dc:format>
    <dc:type rdf:resource="http://purl.org/dc/dcmitype/StillImage"/>
    <dc:title>Paper Symbolic Icon Theme</dc:title>
   </cc:Work>
  </rdf:RDF>
 </metadata>
 <title id="title8473">Paper Symbolic Icon Theme</title>
 <g id="layer12" transform="matrix(4.036 0 0 4 -1957.5 -402.88)" fill="#555">
  <path id="path10500" d="m491.19 101.72-0.1543 1.8438c-0.58462 0.21656-1.1282 0.53093-1.6074 0.92969l-1.6758-0.78906-1.75 3.0312 1.5215 1.0566c-0.0542 0.30631-0.0823 0.61667-0.084 0.92773 2.1e-4 0.31226 0.027 0.62393 0.0801 0.93164l-1.5176 1.0527 1.75 3.0312 1.6719-0.7871c0.48084 0.39706 1.0257 0.70945 1.6113 0.92382l0.1543 1.8477h3.5l0.1543-1.8438c0.58462-0.21656 1.1282-0.53093 1.6074-0.92969l1.6758 0.78906 1.75-3.0312-1.5215-1.0566c0.0542-0.30631 0.0823-0.61667 0.084-0.92773-2.1e-4 -0.31226-0.027-0.62393-0.0801-0.93164l1.5176-1.0527-1.75-3.0312-1.6719 0.7871c-0.48084-0.39706-1.0257-0.70945-1.6113-0.92382l-0.1543-1.8477z" enable-background="new" fill="#555"/>
 </g>
 <path id="path5938" d="m32 18c1.0493 0 1.9 0.83574 1.9 1.8667-5.51e-4 0.06216-0.0038 0.12414-0.01134 0.18592 4.3516 0.85648 7.6115 4.613 7.6111 9.1474l-2.65e-4 3.7333v4.6667l3.8 3.7333v0.93333h-26.6v-0.93333l3.8-3.7333 2.68e-4 -8.4c1.52e-4 -4.5344 3.2598-8.2909 7.6111-9.1474-0.0076-0.06178-0.01134-0.12376-0.01134-0.18592 0-1.0309 0.85067-1.8667 1.9-1.8667zm3.2839 26.133c-0.6776 1.1531-1.929 1.8643-3.2842 1.8667-1.3565-1e-3 -2.6096-0.71249-3.2879-1.8667z" enable-background="new" fill="#fff"/>
</svg>
