<?xml version="1.0" encoding="UTF-8"?>
<svg id="svg12" width="64" height="64" version="1" xmlns="http://www.w3.org/2000/svg" xmlns:cc="http://creativecommons.org/ns#" xmlns:dc="http://purl.org/dc/elements/1.1/" xmlns:rdf="http://www.w3.org/1999/02/22-rdf-syntax-ns#">
 <metadata id="metadata18">
  <rdf:RDF>
   <cc:Work rdf:about="">
    <dc:format>image/svg+xml</dc:format>
    <dc:type rdf:resource="http://purl.org/dc/dcmitype/StillImage"/>
    <dc:title/>
   </cc:Work>
  </rdf:RDF>
 </metadata>
 <rect id="rect2" x="4" y="6" width="56" height="56" rx="28" ry="28" fill="#555" stroke-width="1.4"/>
 <path id="path10" d="m23.022 45.094c-0.72829-0.098-2.0238-0.51968-2.888-0.93562-5.6303-2.6978-7.9328-9.4926-5.1597-15.216 3.1681-6.544 11.812-8.2123 17.014-3.2831 1.5042 1.4231 2.1723 2.6375 4.437 8.0217 2.3641 5.6308 2.8011 6.5162 3.5672 7.2668 0.82073 0.79842 1.5812 1.0674 3.0364 1.0674 2.3908 0 4.098-1.4777 4.098-3.5396 0-1.7452-0.61345-2.3041-3.7423-3.4149-4.7647-1.7186-6.3081-3.2719-6.3137-6.3914 0-1.664 0.42157-2.7734 1.493-3.9234 1.5378-1.6415 4.1905-2.1836 6.5378-1.3685 1.0014 0.35588 3.0966 2.2103 3.0966 2.7412 0 0.25774-1.2143 1.045-1.888 1.2313-0.35574 0.0924-0.66247-0.028-1.0728-0.42168-0.83193-0.79842-1.395-1.045-2.3908-1.045-1.7185 0-2.7843 1.0338-2.7843 2.7034 0 1.664 0.67787 2.2271 4.0644 3.3701 4.6667 1.5758 6.0448 2.9989 6.0728 6.292 0.02801 2.8448-1.2535 4.8968-3.8025 6.1111-1.1597 0.54768-1.5532 0.61782-3.4468 0.61782-2.7031 0-3.9174-0.50288-5.4328-2.2103-1.0182-1.1486-2.0518-3.3043-5.3613-11.173-1.3725-3.2609-3.1345-4.8591-6.0728-5.488-1.4888-0.31794-3.5616-0.0224-4.9132 0.68922-1.3179 0.68908-2.7899 2.2439-3.4846 3.6656-0.57423 1.1542-0.62885 1.4777-0.62885 3.4849 0 1.9148 0.07703 2.3687 0.55742 3.4191 0.72829 1.6038 2.1611 3.0857 3.7367 3.8842 1.1387 0.57428 1.493 0.64582 3.3095 0.64582 1.7451 0 2.1933-0.0826 3.2339-0.57988 1.1877-0.58002 2.7843-2.0031 3.4356-3.0689l0.33894-0.55328 0.66807 1.5267c0.37255 0.84322 0.67227 1.636 0.67227 1.7788 0 0.42168-1.5098 1.8-2.8936 2.6586-2.1008 1.2971-4.514 1.783-7.091 1.4329" fill="#fff" stroke-width="1.4"/>
</svg>
