<svg enable-background="new" height="64" width="64" xmlns="http://www.w3.org/2000/svg" xmlns:xlink="http://www.w3.org/1999/xlink"><filter id="a" color-interpolation-filters="sRGB" height="1.018982" width="1.032625" x="-.016313" y="-.009491"><feGaussianBlur stdDeviation=".2175"/></filter><filter id="b" color-interpolation-filters="sRGB" height="1.017891" width="1.036444" x="-.018222" y="-.008945"><feGaussianBlur stdDeviation=".205"/></filter><filter id="c" color-interpolation-filters="sRGB" height="1.024" width="1.024" x="-.012" y="-.012"><feGaussianBlur stdDeviation=".175"/></filter><g opacity=".5"><path d="m10.766992 5v3.9285715h-9.6v3.9285715 43.214286c0 2.176428 1.4272 3.928571 3.2 3.928571h25.6c1.7728 0 3.2-1.752143 3.2-3.928571v-43.214286-3.9285715h-9.6v-3.9285715z" filter="url(#a)" opacity=".2" stroke-width="3.545621"/><rect filter="url(#b)" height="55" opacity=".2" ry="1.933141" width="27" x="36.166992" y="5"/><path d="m10.766992 3.9999999v3.9285715h-9.6v3.9285716 43.214286c0 2.176428 1.4272 3.928571 3.2 3.928571h25.6c1.7728 0 3.2-1.752143 3.2-3.928571v-43.214286-3.9285716h-9.6v-3.9285715z" fill="#f9ce1d" opacity="1" stroke-width="3.545621"/><path d="m1.166992 23.642857v31.428572c0 2.176428 1.4272 3.928571 3.2 3.928571h25.6c1.7728 0 3.2-1.752143 3.2-3.928571v-31.428572z" fill="#263238" stroke-width="3.545621"/><rect fill="#fff" height="54.000164" opacity="1" ry="1.897999" stroke="#000" stroke-width=".999836" width="26.000164" x="36.666912" y="4.499918"/></g><circle cx="32" cy="33" filter="url(#c)" opacity=".2" r="17.5"/><circle cx="32" cy="32" fill="#d50000" r="17.5"/><path d="m22 29.5h20v5h-20z" fill="#fafafa"/></svg>