<svg enable-background="new" height="64" width="64" xmlns="http://www.w3.org/2000/svg" xmlns:xlink="http://www.w3.org/1999/xlink"><filter id="a" color-interpolation-filters="sRGB" height="1.024" width="1.024" x="-.012" y="-.012"><feGaussianBlur stdDeviation=".2"/></filter><filter id="b" color-interpolation-filters="sRGB" height="1.018982" width="1.032625" x="-.016313" y="-.009491"><feGaussianBlur stdDeviation=".2175"/></filter><g stroke-width="3.545621"><path d="m10.6 5v3.9285715h-9.6v3.9285715 43.214286c0 2.176428 1.4272 3.928571 3.2 3.928571h25.6c1.7728 0 3.2-1.752143 3.2-3.928571v-43.214286-3.9285715h-9.6v-3.9285715z" filter="url(#b)" opacity=".2"/><path d="m10.6 3.9999999v3.9285715h-9.6v3.9285716 43.214286c0 2.176428 1.4272 3.928571 3.2 3.928571h25.6c1.7728 0 3.2-1.752143 3.2-3.928571v-43.214286-3.9285716h-9.6v-3.9285715z" fill="#8bc34a"/><path d="m1 23.642857v31.428572c0 2.176428 1.4272 3.928571 3.2 3.928571h25.6c1.7728 0 3.2-1.752143 3.2-3.928571v-31.428572z" fill="#263238"/></g><path d="m17 15v12.375h10l-10 20.625v-12.375h-10z" fill="#f9ce1d" stroke-width="3.7081"/><path d="m63 36v8h-40v-8zm-24-16h8v40h-8z" filter="url(#a)" opacity=".2"/><path d="m63 35v8h-40v-8zm-24-16h8v40h-8z" fill="#1b5e20"/></svg>