<svg enable-background="new" height="64" width="64" xmlns="http://www.w3.org/2000/svg" xmlns:xlink="http://www.w3.org/1999/xlink"><filter id="a" color-interpolation-filters="sRGB" height="1.026229" width="1.02212" x="-.01106" y="-.013115"><feGaussianBlur stdDeviation=".25136363"/></filter><g filter="url(#a)" opacity=".2" transform="translate(73.933565 10.786674)"><rect height="30" rx="2" ry="1.363636" transform="matrix(0 -1 -1 0 0 0)" width="4" x="-45.213058" y="26.933561"/><rect height="40" rx="2.727273" ry="2.857143" width="54.545452" x="-69.206291" y="-.786942"/><rect height="6" rx=".5" ry=".428571" width="10" x="-46.933563" y="36.213058"/></g><g fill="#1a1a1a" transform="translate(0 -.000268)"><rect height="30" rx="2" ry="1.363636" stroke-width=".825723" transform="matrix(0 -1 -1 0 0 0)" width="4" x="-55" y="-47"/><rect height="40" rx="2.727273" ry="2.857143" width="54.545452" x="4.727274" y="9"/><rect height="6" rx=".5" ry=".428571" width="10" x="27" y="46"/></g><path d="m8.818184 13.285447h46.363636v31.428574h-46.363636z" fill="#fafafa" stroke-width="1.395726"/><path d="m10 15h35v3h-35z" fill="#263238"/><g fill="#b71c1c"><path d="m10 19h20v3h-20z"/><path d="m10 23.42387h20v3h-20z"/><path d="m10.000001 28h20v3h-20z"/></g><g transform="rotate(90)"><path d="m19-53h25v3h-25z" fill="#01579b"/><path d="m29-49h15v3h-15z" fill="#0277bd"/><path d="m24-44.57613h20v3h-20z" fill="#01579b"/><path d="m34-40h10v3h-10z" fill="#0277bd"/></g><circle cx="11" cy="35" fill="#263238" r=".557671" stroke="#263238" stroke-linecap="round" stroke-linejoin="round" stroke-width=".884657"/><circle cx="11" cy="38" fill="#263238" r=".557671" stroke="#263238" stroke-linecap="round" stroke-linejoin="round" stroke-width=".884657"/><circle cx="11" cy="41" fill="#263238" r=".557671" stroke="#263238" stroke-linecap="round" stroke-linejoin="round" stroke-width=".884657"/><path d="m13 34h15v2h-15z" fill="#b71c1c"/><path d="m13 37h15v2h-15z" fill="#b71c1c"/><path d="m13 40h15v2h-15z" fill="#b71c1c"/></svg>