<svg enable-background="new" height="64" width="64" xmlns="http://www.w3.org/2000/svg" xmlns:xlink="http://www.w3.org/1999/xlink"><filter id="a" color-interpolation-filters="sRGB" height="1.023912" width="1.024088" x="-.012044" y="-.011956"><feGaussianBlur stdDeviation=".32151811"/></filter><g enable-background="new" filter="url(#a)" opacity=".2" transform="matrix(-.55098319 -.55269184 .54696066 -.54865683 -38.533049 530.81661)"><path d="m364.35 501.82c.6494 11.831 10.444 21.219 22.438 21.219 11.993 0 21.819-9.3879 22.469-21.219h-44.906z"/><path d="m374.42 485.66c1.3991 0 2.5254 1.1263 2.5254 2.5254v14.142c0 1.3991-1.1263 2.5254-2.5254 2.5254s-2.5254-1.1263-2.5254-2.5254v-14.142c0-1.3991 1.1263-2.5254 2.5254-2.5254z"/><path d="m398.42 485.66c1.3991 0 2.5254 1.1263 2.5254 2.5254v14.142c0 1.3991-1.1263 2.5254-2.5254 2.5254s-2.5254-1.1263-2.5254-2.5254v-14.142c0-1.3991 1.1263-2.5254 2.5254-2.5254z"/><path d="m397.41 514.08-7.6786 17.5 12.857-3.3929-16.25 35.536.71429-23.036-16.786 6.9643 13.393-35.714 13.75 2.1429z"/></g><g stroke-width=".777561"><path d="m20.804739 56.417055c-.77088-.773271-.775411-2.01372-.01016-2.781346l7.735117-7.759105c.765253-.767625 2.001867-.763081 2.772748.01019.77088.773272.775411 2.013721.01016 2.781346l-7.735117 7.759105c-.765253.767626-2.001867.763081-2.772748-.01019z" fill="#ff9800"/><path d="m7.5811426 43.152451c-.7708806-.773271-.7754112-2.01372-.0101585-2.781346l7.7351179-7.759105c.765252-.767626 2.001867-.763081 2.772747.01019.770881.773271.775411 2.01372.01016 2.781346l-7.735118 7.759105c-.7652527.767626-2.0018668.763081-2.7727484-.01019z" fill="#ff9800"/><path d="m23.682258 28.117843 13.802591-5.357595-8.939774-5.244421 28.390271-10.5158272-12.993348 12.2440762 13.058002 5.456475-26.913471 12.192528-6.403937-8.77523z"/><path d="m35.192024 53.116368c6.113283-6.850077 5.85149-17.414263-.757002-24.043249-6.607942-6.628433-17.156715-6.908448-23.986-.776484l24.742451 24.81918z" fill="#1a1a1a"/></g></svg>