<svg enable-background="new" height="64" width="64" xmlns="http://www.w3.org/2000/svg" xmlns:xlink="http://www.w3.org/1999/xlink"><filter id="a" color-interpolation-filters="sRGB" height="1.023997" width="1.024003" x="-.012002" y="-.011998"><feGaussianBlur stdDeviation=".24512777"/></filter><filter id="b" color-interpolation-filters="sRGB" height="1.024" width="1.024" x="-.012" y="-.012"><feGaussianBlur stdDeviation=".28"/></filter><circle cx="31.999998" cy="32.163998" filter="url(#b)" opacity=".2" r="28"/><circle cx="31.999998" cy="31.164" fill="#206b00" r="28"/><path d="m31.999999 3.1639986a28 28 0 0 0 -28.0000004 28.0000004 28 28 0 0 0 .0215.586 28 28 0 0 1 27.9785004-27.5860004 28 28 0 0 1 27.979 27.4140004 28 28 0 0 0 .021-.414 28 28 0 0 0 -28-28.0000004z" fill="#fff" opacity=".2"/><g stroke-width=".974203"><g filter="url(#a)" opacity=".2" stroke="#000"><path d="m17.238212 8.4842584c2.713421.023166 5.398595 1.0753913 7.477278 3.1276286 3.132149 3.09268 3.868245 7.572791 2.336233 11.382979.117976.09237.305739.199353.415405.307478l6.697977 6.615241c1.497118 1.47669 1.497118 3.905024 0 5.383353l-.623106.615288c-1.495452 1.476689-3.95465 1.476689-5.451764 0l-6.74949-6.615569c-.109667-.10665-.166162-.292057-.260874-.410191-3.858275 1.514427-8.39449.785926-11.5266392-2.306917-.4237125-.416755-.8141923-.867966-1.1431929-1.332303-.1096665-.155872-.2110253-.3019-.3107225-.462695-1.2478741-2.596021-.5915357-2.44146 2.1285316-1.742494 2.751639 0 4.984853-2.20519 4.984853-4.922298s-2.233214-4.922298-4.984853-4.922298c-1.661617 0 .987001-3.115322 3.010851-3.9480112.09637-.037048.1645-.1197591.260874-.1539039.03489-.010465.06813.010126.103021 0 1.166455-.3995596 2.414329-.6257058 3.635618-.6152875z"/><path d="m55.438345 47.577372c1.429188 1.411254 1.428924 3.742792.000255 5.153537l-3.774683 3.727314c-1.428678 1.410747-3.789842 1.411001-5.21903-.000253l-20.47681-20.219851c-1.428675-1.410746-1.428675-3.742537 0-5.153283l3.77468-3.727314c1.428675-1.410746 3.790099-1.410746 5.218774 0z"/></g><path d="m17.238212 7.4843204c2.713421.023166 5.398595 1.0753913 7.477278 3.1276286 3.132149 3.09268 3.868245 7.572791 2.336233 11.382979.117976.09237.305739.199353.415405.307478l6.697977 6.615241c1.497118 1.47669 1.497118 3.905024 0 5.383353l-.623106.615288c-1.495452 1.476689-3.95465 1.476689-5.451764 0l-6.74949-6.615569c-.109667-.10665-.166162-.292057-.260874-.410191-3.858275 1.514427-8.39449.785926-11.5266392-2.306917-.4237125-.416755-.8141923-.867966-1.1431929-1.332303-.1096665-.155872-.2110253-.3019-.3107225-.462695-1.2478741-2.596021-.5915357-2.44146 2.1285316-1.742494 2.751639 0 4.984853-2.20519 4.984853-4.922298s-2.233214-4.922298-4.984853-4.922298c-1.661617 0 .987001-3.1153221 3.010851-3.9480112.09637-.037048.1645-.1197591.260874-.1539039.03489-.010465.06813.010126.103021 0 1.166455-.3995596 2.414329-.6257058 3.635618-.6152875z" fill="#abacae" stroke="#7e8087"/><path d="m55.438345 46.577434c1.429188 1.411254 1.428924 3.742792.000255 5.153537l-3.774683 3.727314c-1.428678 1.410747-3.789842 1.411001-5.21903-.000253l-20.47681-20.219851c-1.428675-1.410746-1.428675-3.742537 0-5.153283l3.77468-3.727314c1.428675-1.410746 3.790099-1.410746 5.218774 0z" fill="#cc3b02" stroke="#a62100"/></g></svg>