<svg height="48" width="48" xmlns="http://www.w3.org/2000/svg"><path d="m24 4c-11.08 0-20 8.92-20 20h20z" fill="#e7a73c"/><path d="m24 4c11.08 0 20 8.92 20 20h-20z" fill="#e74c3c"/><path d="m24 44c11.08 0 20-8.92 20-20h-20z" fill="#5dc15c"/><path d="m24 44c-11.08 0-20-8.92-20-20h20z" fill="#3c88e7"/><path d="m24 4c-11.08 0-20 8.92-20 20 0 .168.008.333.0117.5.2647-10.846 9.0763-19.5 19.988-19.5s19.724 8.6539 19.988 19.5c.004-.16686.0117-.33213.0117-.5 0-11.08-8.92-20-20-20z" fill="#fff" opacity=".2"/><path d="m4.0117 24.5c-.0041.167-.0117.332-.0117.5 0 11.08 8.92 20 20 20s20-8.92 20-20c0-.168-.008-.333-.012-.5-.264 10.846-9.076 19.5-19.988 19.5s-19.724-8.654-19.988-19.5z" opacity=".2"/><circle cx="24" cy="24" fill="#2e2e2e" r="9"/></svg>