<svg height="48" width="48" xmlns="http://www.w3.org/2000/svg"><rect fill="#e75177" height="40" rx="2" transform="matrix(0 -1 -1 0 0 0)" width="40" x="-44" y="-44"/><path d="m6 4c-1.108 0-2 .892-2 2v1c0-1.108.892-2 2-2h36c1.108 0 2 .892 2 2v-1c0-1.108-.892-2-2-2z" fill="#fff" opacity=".2"/><path d="m6 45c-1.108 0-2-.892-2-2v-1c0 1.108.892 2 2 2h36c1.108 0 2-.892 2-2v1c0 1.108-.892 2-2 2z" opacity=".2"/><path d="m24 13a12 12 0 0 0 -2 .16992v16.83c0 .554-.446 1-1 1h-1c-.554 0-1-.446-1-1v-15.893a12 12 0 0 0 -7 10.893 12 12 0 0 0 12 12 12 12 0 0 0 12-12 12 12 0 0 0 -12-12zm-.49609 6a.50005.54551 0 0 1 .23828.06836l9 5.4551a.50005.54551 0 0 1 0 .95312l-9 5.4551a.50005.54551 0 0 1 -.742-.476v-10.91a.50005.54551 0 0 1 .504-.545z" opacity=".2"/><path d="m24 12a12 12 0 0 0 -2 .16992v16.83c0 .554-.446 1-1 1h-1c-.554 0-1-.446-1-1v-15.893a12 12 0 0 0 -7 10.893 12 12 0 0 0 12 12 12 12 0 0 0 12-12 12 12 0 0 0 -12-12zm-.49609 6a.50005.54551 0 0 1 .23828.06836l9 5.4551a.50005.54551 0 0 1 0 .95312l-9 5.4551a.50005.54551 0 0 1 -.742-.476v-10.91a.50005.54551 0 0 1 .504-.545z" fill="#fff"/></svg>