<svg height="48" width="48" xmlns="http://www.w3.org/2000/svg"><path d="m23.846 4-.002.0039c-11.007.0839-19.844 8.9681-19.844 19.996 0 11.08 8.92 20 20 20 10.68 0 19.351-8.289 19.963-18.811l.037-.035v-17.154c0-2.216-1.784-4-4-4h-16.154z" fill="#2298e2"/><circle cx="24" cy="25" opacity=".2" r="15"/><circle cx="24" cy="24" fill="#353535" r="15"/><path d="m26.199 18.183c-.07673.88667-.67958.5103-1.3323.9941-.17608-.02648-.37691-.02648-.6527-.02648-.04985-.59126.15133-.69868.25069-.80608.40201-.32267.67958-.16115.67958-.16115.30089-.05444.57633.02647 1.0547-.000426zm1.5062-1.4515h-.87828v-.24172h-.47662v.13391c-.05162.02648-.10148.08094-.15133.10743h-.04985c-.83094-.69868-.88039.72592-1.4337.40325-.04985-.29582-.02477-.56478-.02477-.91395.955-.02727.60286-.29581.32742-.64496-.09935-.13467-.15133-.34954-.17608-.48382-.22594-.88667-1.1562-1.4242-2.5111-.85983-.88039.34916-.65271 1.6126-.5781 2.4724-.04985.0802-.15133.05373-.22594.05373-.955.05374-1.3818 1.128-1.583 1.9883.04985.7796-.04985 1.6394-.17608 2.3915-.12623.7524-.37691 1.3437-.40202 2.0692-.04985.64497.17608 1.3974.12623 1.9886-.52825 1.6664-.90555 2.7679-1.181 4.5417-.20083.40287-.90337 1.2627-1.181 1.4511-.0746.13391.04985.43011-.0746.61774-.22594.34915-.5781.53753-.77894.91395.04985.0802-.30231.16115-.27544.29581.02476.13391.20083.48307.27544.56402.02476.05374.27544-.08094.27544 0 .10148.32192.32742.9941.5781 1.1553 1.1063.13391 1.1063.13391 1.5579 0 .25069-.7796-.85356-.4301-.75421-1.4783 1.5084-.32192 1.9846-.77924 2.5875-2.4721.27544-1.2362.65271-2.4452 1.2305-3.6277.09935-.0802.07461-.29544.25068-.37639.67745 1.209 1.91 2.0695 2.5111 3.3326.15133 1.6391.45364 2.5258.9798 2.8216.12622.05373 0 .56402.10148.67145 0 .16115.04985.34915-.02476.53753-.05162.13467-.02475.29581-.02475.43011v.16115c.02475.24285.07461.24285.30054.43011.65271.45658 1.5332 1.1825 2.4114.64497.40202-.69944-.45152-1.5854-1.0543-2.0423-.20083-.16115-.553-.56402-.5035-.83299.32742-.34954.553-1.8812.42677-3.0637-.04985-.2682-.09935-.53753-.20083-.7524-.30054-.61773-.97798-1.478-1.5558-2.0956.07461-.0802.17608-.18838.30054-.2421 0-.59088-.22594-.77924-.52612-1.209-.25281-.43011-.82876-1.2627-1.2577-1.5316 0 0 0-.02727-.42677-.02727-.02476-.29543.05162-.53753.12622-.85983 0-.24172.17608-.10706.22594-.64497.12623-.45658.07461-.188.17609-.64459.09935-.21486.15133-.4301.15133-.7796.37515.13468 1.129.10743 1.4564 0l.07461.05374c.10148.02727.12623-.13391.20083-.16077.5781-.32305.77894-.88704 1.2556-.94079 0 0 .25281-.13467.6276 0 .15133 0 .27756.02648.27756-.13467.02476-.24171.02476-.42934.15133-.59125.09935.64497.37515 1.3709.87828 2.0695l.50179-.37547c-.47662-.61773-.77683-1.3164-.82876-2.1229.02474.05373.05163.10743.10148.16116.17608 0 .27544-.40325.47663-.3764.02475-.05373.07672-.29581.12623-.48382h1.8832l.67778-.16133v-.37639l-.50138-.05373v-.43011h-.12622v-.48382h-.30054v.45696l-.77894-.05373v-.29581h-.30054v.26858l-.80366-.0802v-.40324h-.30231v.37638l-1.181-.0802v-.13353h.000903z" fill-rule="evenodd" opacity=".2"/><path d="m26.199 17.183c-.07673.88667-.67958.5103-1.3323.9941-.17608-.02648-.37691-.02648-.6527-.02648-.04985-.59126.15133-.69868.25069-.80608.40201-.32267.67958-.16115.67958-.16115.30089-.05444.57633.02647 1.0547-.000426zm1.5062-1.4515h-.87828v-.24172h-.47662v.13391c-.05162.02648-.10148.08094-.15133.10743h-.04985c-.83094-.69868-.88039.72592-1.4337.40325-.04985-.29582-.02477-.56478-.02477-.91395.955-.02727.60286-.29581.32742-.64496-.09935-.13467-.15133-.34954-.17608-.48382-.22594-.88667-1.1562-1.4242-2.5111-.85983-.88039.34916-.65271 1.6126-.5781 2.4724-.04985.0802-.15133.05373-.22594.05373-.955.05374-1.3818 1.128-1.583 1.9883.04985.7796-.04985 1.6394-.17608 2.3915-.12623.7524-.37691 1.3437-.40202 2.0692-.04985.64497.17608 1.3974.12623 1.9886-.52825 1.6664-.90555 2.7679-1.181 4.5417-.20083.40287-.90337 1.2627-1.181 1.4511-.0746.13391.04985.43011-.0746.61774-.22594.34915-.5781.53753-.77894.91395.04985.0802-.30231.16115-.27544.29581.02476.13391.20083.48307.27544.56402.02476.05374.27544-.08094.27544 0 .10148.32192.32742.9941.5781 1.1553 1.1063.13391 1.1063.13391 1.5579 0 .25069-.7796-.85356-.4301-.75421-1.4783 1.5084-.32192 1.9846-.77924 2.5875-2.4721.27544-1.2362.65271-2.4452 1.2305-3.6277.09935-.0802.07461-.29544.25068-.37639.67745 1.209 1.91 2.0695 2.5111 3.3326.15133 1.6391.45364 2.5258.9798 2.8216.12622.05373 0 .56402.10148.67145 0 .16115.04985.34915-.02476.53753-.05162.13467-.02475.29581-.02475.43011v.16115c.02475.24285.07461.24285.30054.43011.65271.45658 1.5332 1.1825 2.4114.64497.40202-.69944-.45152-1.5854-1.0543-2.0423-.20083-.16115-.553-.56402-.5035-.83299.32742-.34954.553-1.8812.42677-3.0637-.04985-.2682-.09935-.53753-.20083-.7524-.30054-.61773-.97798-1.478-1.5558-2.0956.07461-.0802.17608-.18838.30054-.2421 0-.59088-.22594-.77924-.52612-1.209-.25281-.43011-.82876-1.2627-1.2577-1.5316 0 0 0-.02727-.42677-.02727-.02476-.29543.05162-.53753.12622-.85983 0-.24172.17608-.10706.22594-.64497.12623-.45658.07461-.188.17609-.64459.09935-.21486.15133-.4301.15133-.7796.37515.13468 1.129.10743 1.4564 0l.07461.05374c.10148.02727.12623-.13391.20083-.16077.5781-.32305.77894-.88704 1.2556-.94079 0 0 .25281-.13467.6276 0 .15133 0 .27756.02648.27756-.13467.02476-.24171.02476-.42934.15133-.59125.09935.64497.37515 1.3709.87828 2.0695l.50179-.37547c-.47662-.61773-.77683-1.3164-.82876-2.1229.02474.05373.05163.10743.10148.16116.17608 0 .27544-.40325.47663-.3764.02475-.05373.07672-.29581.12623-.48382h1.8832l.67778-.16133v-.37639l-.50138-.05373v-.43011h-.12622v-.48382h-.30054v.45696l-.77894-.05373v-.29581h-.30054v.26858l-.80366-.0802v-.40324h-.30231v.37638l-1.181-.0802v-.13353h.000903z" fill="#2298e2" fill-rule="evenodd"/><path d="m23.846 4-.002.0039c-11.007.0839-19.844 8.9681-19.844 19.996 0 .168.0076.333.0117.5.2632-10.794 8.9923-19.414 19.832-19.496l.002-.004h16.154c2.216 0 4 1.784 4 4v-1c0-2.216-1.784-4-4-4h-16.154z" fill="#fff" opacity=".2"/><path d="m4.0117 24.5c-.004.167-.0117.332-.0117.5 0 11.08 8.92 20 20 20 10.68 0 19.351-8.289 19.963-18.811l.037-.035v-1l-.03711.03516c-.612 10.522-9.283 18.811-19.963 18.811-10.912 0-19.724-8.654-19.988-19.5z" opacity=".2"/></svg>