<svg height="48" width="48" xmlns="http://www.w3.org/2000/svg"><rect fill="#ffc35a" height="29.453" rx="2" transform="matrix(.70710678 .70710678 -.70710678 .70710678 0 0)" width="29.453" x="19.21" y="-14.73"/><path d="m24 13v6.986l-4 4 .014.014h-.014v10h2v-9.186l2-2v11.186h2v-21z" fill="#2e2e2e" stroke-opacity=".55" stroke-width="2.8"/><path d="m4.0723 24.5c-.1722.663-.0056 1.393.5156 1.914l17.998 17.998c.783.784 2.045.784 2.828 0l17.998-17.998c.521-.521.688-1.251.516-1.914-.087.334-.254.652-.516.914l-17.998 17.998c-.783.784-2.045.784-2.828 0l-17.998-17.998c-.2627-.262-.4293-.58-.5159-.914z" opacity=".2"/><path d="m24 4c-.511 0-1.022.1961-1.414.5879l-17.998 17.998c-.5213.521-.6879 1.251-.5157 1.914.0866-.334.2532-.652.5156-.914l17.998-17.998c.783-.7836 2.045-.7836 2.828-.0001l17.998 17.998c.262.262.429.58.516.914.172-.663.005-1.393-.516-1.914l-17.998-17.998c-.392-.3919-.903-.588-1.414-.588z" fill="#fff" opacity=".2"/></svg>