<svg height="48" width="48" xmlns="http://www.w3.org/2000/svg"><path d="m24 4c-11.08 0-20 8.92-20 20s8.92 20 20 20 20-8.92 20-20-8.92-20-20-20z" fill="#ccc"/><path d="m24 4c11.07 0 19.982 8.92 19.982 20 0 .16787-.008.33314-.01169.5-.264-10.846-9.068-19.5-19.97-19.5s-19.706 8.654-19.97 19.5c-.004-.16686-.011689-.33213-.011689-.5 0-11.08 8.9119-20 19.982-20z" fill="#fff" opacity=".2"/><path d="m4.0118 24.5c-.0041.167-.0117.332-.0117.5 0 11.08 8.92 20 20 20s20-8.92 20-20c0-.168-.008-.333-.012-.5-.264 10.846-9.076 19.5-19.988 19.5s-19.724-8.654-19.988-19.5z" opacity=".2"/><g fill="#404040" transform="translate(4)"><path d="m21.628906 14c-2.818495 0-4.478806 3.243086-5.498047 5.955078-.0093.02554-.0065.01975-.01563.04492l-3.115229.000002v1h2.771484c-.685655 1.96669-.791015 2.443359-.791015 2.443359l-1.646485 5.171875c-.862127 2.706924-1.482198 4.615235-2.371093 4.615235-1.4814793 0-.889034-1.238281-2.0742191-1.238281-.5925923-.000001-.8886719.384916-.8886719.769531 0 .769231.5933235 1.238281 2.371094 1.238281 3.111127 0 4.887382-3.845405 6.220703-8.076172l.746094-2.386719c.848861-2.714824.732444-2.324837.802734-2.537109h2.859375v-1h-2.542969c-.000197.000933.07422-.232422.07422-.232422 1.127118-3.547076 1.692051-4.998047 2.505859-4.998047 1.481479 0 .889025 1.230469 2.074218 1.230469.592599 0 .888672-.277484.888672-.662109 0-.769231-.593314-1.337891-2.371094-1.337891z"/><path d="m29.628906 14c-2.818495 0-4.478806 3.243086-5.498047 5.955078-.0093.02554-.0065.01975-.01563.04492l-3.115229.000002v1h2.771484c-.685655 1.96669-.791015 2.443359-.791015 2.443359l-1.646485 5.171875c-.862127 2.706924-1.482198 4.615235-2.371093 4.615235-1.481479 0-.889034-1.238281-2.074219-1.238281-.592592-.000001-.888672.384916-.888672.769531 0 .769231.593324 1.238281 2.371094 1.238281 3.111127 0 4.887382-3.845405 6.220703-8.076172l.746094-2.386719c.848861-2.714824.732444-2.324837.802734-2.537109h2.859375v-1h-2.542969c-.000197.000933.07422-.232422.07422-.232422 1.127118-3.547076 1.692051-4.998047 2.505859-4.998047 1.481479 0 .889025 1.230469 2.074218 1.230469.592599 0 .888672-.277484.888672-.662109 0-.769231-.593314-1.337891-2.371094-1.337891z"/></g></svg>