<svg height="48" width="48" xmlns="http://www.w3.org/2000/svg"><rect fill="#5db43e" height="40" rx="20" transform="matrix(0 -1 -1 0 0 0)" width="40" x="-44" y="-44"/><path d="m24 4c-11.08 0-20 8.92-20 20 0 .168-.004.333 0 .5.2644-10.846 9.088-19.5 20-19.5s19.736 8.654 20 19.5c.004-.167 0-.332 0-.5 0-11.08-8.92-20-20-20z" fill="#fff" opacity=".2"/><path d="m31.906 12c-5.0785 0-6.0312 7.7167-3.1739 7.7167 2.8562 0 8.253-7.7167 3.1739-7.7167zm-7.8225 1.1872c-.08-.000297-.16696.0074-.257.01671-2.8779.3635-1.8651 5.2341-.333 5.3249 1.4835.08859 3.1065-5.3327.589-5.3412zm-4.9902 1.7981c-.17607-.01114-.37098.02229-.58798.11106-2.3132.94987-.351 4.8709.94398 4.6073 1.1754-.23885 1.3439-4.6081-.356-4.7186zm-3.7757 3.2057c-.20105-.0056-.41798.0637-.64998.23647-1.8516 1.3819.623 4.7203 1.7125 4.2027.953-.4534.345-4.3882-1.0628-4.4392zm10.936 3.1871c-4.012-.069-9.305 1.967-10.208 6.057-.977 4.425 4.025 10.565 9.243 10.565 2.5669 0 5.5276-2.3459 6.082-5.3169.423-2.2652-4.9786-1.3574-4.7848.14133.233 1.7968-1.3028 2.685-2.8067 1.5269-4.7871-3.6874 7.9265-5.5275 7.0879-10.565-.261-1.5682-2.2069-2.3668-4.614-2.408z" opacity=".2"/><path d="m31.906 11c-5.0785 0-6.0312 7.7167-3.1739 7.7167 2.8562 0 8.253-7.7167 3.1739-7.7167zm-7.8225 1.1872c-.08-.000297-.16696.0074-.257.01671-2.8779.3635-1.8651 5.2341-.333 5.3249 1.4835.08859 3.1065-5.3327.589-5.3412zm-4.9902 1.7981c-.17607-.01114-.37098.02229-.58798.11106-2.3132.94987-.351 4.8709.94398 4.6073 1.1754-.23885 1.3439-4.6081-.356-4.7186zm-3.7757 3.2057c-.20105-.0056-.41798.0637-.64998.23647-1.8516 1.3819.623 4.7203 1.7125 4.2027.953-.4534.345-4.3882-1.0628-4.4392zm10.936 3.1871c-4.012-.069-9.305 1.967-10.208 6.057-.977 4.425 4.025 10.565 9.243 10.565 2.5669 0 5.5276-2.3459 6.082-5.3169.423-2.2652-4.9786-1.3574-4.7848.14133.233 1.7968-1.3028 2.685-2.8067 1.5269-4.7871-3.6874 7.9265-5.5275 7.0879-10.565-.261-1.5682-2.2069-2.3668-4.614-2.408z" fill="#fff"/><path d="m4.0117 24.5c-.0041.167-.0117.332-.0117.5 0 11.08 8.92 20 20 20s20-8.92 20-20c0-.168-.008-.333-.012-.5-.264 10.846-9.076 19.5-19.988 19.5s-19.724-8.654-19.988-19.5z" opacity=".2"/></svg>