<svg height="48" width="48" xmlns="http://www.w3.org/2000/svg"><path d="m24 4h-18c-1.108 0-2 .892-2 2v18h20z" fill="#6655e4"/><path d="m24 4h18c1.108 0 2 .892 2 2v18h-20z" fill="#2cbfeb"/><path d="m24 44h-18c-1.108 0-2-.892-2-2v-18h20z" fill="#2cbfeb"/><path d="m24 44h18c1.108 0 2-.892 2-2v-18h-20z" fill="#f7c73c"/><path d="m6 4c-1.108 0-2 .892-2 2v1c0-1.108.892-2 2-2h36c1.108 0 2 .892 2 2v-1c0-1.108-.892-2-2-2z" fill="#fff" opacity=".2"/><path d="m6 45c-1.108 0-2-.892-2-2v-1c0 1.108.892 2 2 2h36c1.108 0 2-.892 2-2v1c0 1.108-.892 2-2 2z" opacity=".2"/><path d="m10 10h28v28h-28z" fill="#3f3f3f" stroke-width=".7"/><g fill="none" stroke-linecap="round" stroke-width="2"><path d="m16 32.9999h8" opacity=".2" stroke="#010101"/><path d="m16 32h8" stroke="#fff"/><path d="m16 20.9999h4.000003m0 4.000002v-8.000001m-4.000003 8.000001v-8.000001" opacity=".2" stroke="#010101"/><path d="m16 20h4.000003m0 4.000002v-8.000001m-4.000003 8.000001v-8.000001" stroke="#fff"/><path d="m23.999902 21.000001s4.000003-.4645 4.000003 1.999998c0 2.464501-4.000003 2.000001-4.000003 2.000001m.000098-8.0001v8.000002m-.000098-3.977326s4.000003.464501 4.000003-1.999997c0-2.464502-4.000003-2.000001-4.000003-2.000001m.000098 8.000099v-8.000001" opacity=".2" stroke="#010101" stroke-linejoin="bevel"/><path d="m23.999902 20.000101s4.000003-.4645 4.000003 1.999998c0 2.464501-4.000003 2.000001-4.000003 2.000001m.000098-8.0001v8.000002m-.000098-3.977326s4.000003.464501 4.000003-1.999997c0-2.464502-4.000003-2.000001-4.000003-2.000001m.000098 8.000099v-8.000001" stroke="#fff" stroke-linejoin="bevel"/></g></svg>