<?xml version="1.0" encoding="UTF-8"?>
<svg id="svg14" width="48" height="48" version="1" xmlns="http://www.w3.org/2000/svg" xmlns:cc="http://creativecommons.org/ns#" xmlns:dc="http://purl.org/dc/elements/1.1/" xmlns:rdf="http://www.w3.org/1999/02/22-rdf-syntax-ns#">
 <metadata id="metadata20">
  <rdf:RDF>
   <cc:Work rdf:about="">
    <dc:format>image/svg+xml</dc:format>
    <dc:type rdf:resource="http://purl.org/dc/dcmitype/StillImage"/>
    <dc:title/>
   </cc:Work>
  </rdf:RDF>
 </metadata>
 <defs id="defs18">
  <style id="current-color-scheme" type="text/css">.ColorScheme-Text { color:#5c616c; } .ColorScheme-Highlight { color:#5294e2; } .ColorScheme-ButtonBackground { color:#d3dae3; }</style>
  <style id="current-color-scheme-3" type="text/css">.ColorScheme-Text { color:#5c616c; } .ColorScheme-Highlight { color:#5294e2; } .ColorScheme-ButtonBackground { color:#d3dae3; }</style>
  <style id="style4492" type="text/css">.str0 {stroke:#4D4948;stroke-width:0.0123919}
    .str1 {stroke:#838281;stroke-width:0.229479;stroke-linecap:round}
    .fil2 {fill:none}
    .fil0 {fill:#4D4948}
    .fil1 {fill:white;fill-rule:nonzero}</style>
  <style id="style4492-1" type="text/css">.str0 {stroke:#4D4948;stroke-width:0.221746}
    .str1 {stroke:#00923F;stroke-width:0.887173}
    .str2 {stroke:#E77817;stroke-width:0.887173;stroke-linecap:round}
    .fil2 {fill:none}
    .fil0 {fill:#4D4948}
    .fil1 {fill:#B6DDC7}</style>
  <style id="current-color-scheme-6" type="text/css">.ColorScheme-Text { color:#5c616c; } .ColorScheme-Highlight { color:#5294e2; } .ColorScheme-ButtonBackground { color:#d3dae3; }</style>
  <filter id="filter5062" x="-.010364" y="-.01425" width="1.0207" height="1.0285" color-interpolation-filters="sRGB">
   <feGaussianBlur id="feGaussianBlur5064" stdDeviation="0.23749999"/>
  </filter>
  <filter id="filter5081" x="-.0067" y="-.057429" width="1.0134" height="1.1149" color-interpolation-filters="sRGB">
   <feGaussianBlur id="feGaussianBlur5083" stdDeviation="0.1675"/>
  </filter>
  <filter id="filter5201" x="-.0144" y="-.010286" width="1.0288" height="1.0206" color-interpolation-filters="sRGB">
   <feGaussianBlur id="feGaussianBlur5203" stdDeviation="0.15"/>
  </filter>
 </defs>
 <g id="g4566" transform="scale(.375)">
  <rect id="rect4703-2" transform="matrix(0 -2 -2 0 -4.0233e-6 0)" x="-61" y="-62" width="7" height="60" rx="2.5" ry="2.5862" filter="url(#filter5081)" opacity=".2" stroke-width="1.0171"/>
  <rect id="rect4703" transform="matrix(0,-1,-1,0,0,0)" x="-120" y="-124" width="14" height="120" rx="5" ry="5.1724" fill="#1a1a1a" stroke-width="2.0342"/>
  <rect id="rect4707-5" transform="scale(2)" x="4.5" y="14.87" width="55" height="40" rx="2.6442" ry="2.5" filter="url(#filter5062)" opacity=".2" stroke-width="1.0284"/>
  <g id="g5021" transform="matrix(2.0449 0 0 1.9574 -167.22 219.2)" stroke-width="1.0281">
   <rect id="rect4707" x="86.178" y="-97.809" width="53.793" height="40.87" rx="2.5862" ry="2.5543" fill="#1a1a1a"/>
   <rect id="rect4709" x="90.316" y="-93.722" width="45.517" height="32.696" fill="#3689e6"/>
   <path id="path4711" d="m88.764-97.809c-1.4328 0-2.5862 1.1392-2.5862 2.5543v1.0217c0-1.4151 1.1534-2.5543 2.5862-2.5543h48.621c1.4276 0 2.5862 1.1392 2.5862 2.5543v-1.0217c0-1.4151-1.1586-2.5543-2.5862-2.5543z" fill="#7e8087" opacity=".2"/>
  </g>
  <path id="rect4765-2" transform="scale(2)" d="m24.857 4v19.559h-5.3574l12.5 15.441 12.5-15.441h-5.3574v-19.559z" filter="url(#filter5201)" opacity=".2"/>
  <path id="rect4765" d="m49.715 6v39.117h-10.715l25 30.883 25-30.883h-10.715v-39.117z" fill="#9bdb4d"/>
 </g>
</svg>
