<svg height="48" width="48" xmlns="http://www.w3.org/2000/svg"><rect fill="#4f4f4f" height="40" rx="2" transform="matrix(0 -1 -1 0 0 0)" width="40" x="-44" y="-44"/><path d="m6 4c-1.108 0-2 .892-2 2v1c0-1.108.892-2 2-2h36c1.108 0 2 .892 2 2v-1c0-1.108-.892-2-2-2z" fill="#fff" opacity=".1"/><path d="m6 45c-1.108 0-2-.892-2-2v-1c0 1.108.892 2 2 2h36c1.108 0 2-.892 2-2v1c0 1.108-.892 2-2 2z" opacity=".2"/><path d="m23.797 11c-.66863 0-1.3482.06179-2.041.18555-.69148.12377-1.3748.29452-2.0488.50976-.67266.21659-1.3217.4637-1.9473.74219-.62423.27713-1.2024.57144-1.7324.88086l1.8906 4.0977c1.0507-.51928 2.0681-.95722 3.0488-1.3164.98342-.35786 1.9023-.53711 2.7539-.53711.97669 0 1.7034.22814 2.1797.68555.47489.45606.71484 1.0392.71484 1.7441 0 .45606-.05089.85799-.15039 1.2051-.09821.34575-.2585.67543-.48047.99023-.22333.31615-.51384.6349-.87305.95508-.35785.32288-.79516.68807-1.3145 1.0957-.59329.46951-1.1004.92275-1.5215 1.3613-.41973.43857-.76428.89074-1.0293 1.3535-.26638.46414-.46265.95093-.5918 1.4648-.13047.51256-.19531 1.0858-.19531 1.7168v1.8652h4.8945v-1.6074c0-.39553.03426-.73809.10156-1.0273.06861-.29058.1952-.5726.38086-.8457.1843-.2704.44067-.55862.76758-.86133.32825-.30269.75219-.65879 1.2715-1.0664.67938-.54351 1.2765-1.0605 1.7891-1.5488.51255-.487.93954-.99352 1.2812-1.5195.33768-.52467.59538-1.0949.76758-1.707.17224-.61212.25976-1.307.25976-2.0859 0-1.0628-.18837-2.0072-.56641-2.8359-.37669-.82737-.91481-1.5341-1.6211-2.1152-.7036-.58118-1.5638-1.0215-2.5781-1.3242-1.014-.304-2.151-.456-3.411-.456zm-.66992 21.695c-.4574 0-.88621.0557-1.2871.16602-.40225.11165-.7509.29152-1.0469.53906-.29732.24753-.53046.57176-.69727.97266-.16683.40225-.25.89149-.25 1.4727 0 .55696.08318 1.0342.25 1.4297.16681.39418.39995.72277.69727.98242.29597.2583.64462.44803 1.0469.56641.401.117.83.176 1.287.176.4332 0 .84558-.05874 1.2344-.17578.3888-.11838.73199-.30811 1.0293-.56641.29597-.25965.52958-.58824.70312-.98242.17354-.39552.25977-.87273.25977-1.4297 0-.58117-.08623-1.0704-.25977-1.4727-.17354-.4009-.40716-.72513-.70312-.97266-.29731-.24754-.6405-.42741-1.0293-.53906-.38879-.11032-.80118-.16602-1.2344-.16602z" opacity=".2"/><path d="m23.797 10c-.66863 0-1.3482.06179-2.041.18555-.69148.12377-1.3748.29452-2.0488.50976-.67266.21659-1.3217.4637-1.9473.74219-.62423.27713-1.2024.57144-1.7324.88086l1.8906 4.0977c1.0507-.51928 2.0681-.95722 3.0488-1.3164.98342-.35786 1.9023-.53711 2.7539-.53711.97669 0 1.7034.22814 2.1797.68555.47489.45606.71484 1.0392.71484 1.7441 0 .45606-.05089.85799-.15039 1.2051-.09821.34575-.2585.67543-.48047.99023-.22333.31615-.51384.6349-.87305.95508-.35785.32288-.79516.68807-1.3145 1.0957-.59329.46951-1.1004.92275-1.5215 1.3613-.41973.43857-.76428.89074-1.0293 1.3535-.26638.46414-.46265.95093-.5918 1.4648-.13047.51256-.19531 1.0858-.19531 1.7168v1.8652h4.8945v-1.6074c0-.39553.03426-.73809.10156-1.0273.06861-.29058.1952-.5726.38086-.8457.1843-.2704.44067-.55862.76758-.86133.32825-.30269.75219-.65879 1.2715-1.0664.67938-.54351 1.2765-1.0605 1.7891-1.5488.51255-.487.93954-.99352 1.2812-1.5195.33768-.52467.59538-1.0949.76758-1.707.17224-.61212.25976-1.307.25976-2.0859 0-1.0628-.18837-2.0072-.56641-2.8359-.37669-.82737-.91481-1.5341-1.6211-2.1152-.7036-.58118-1.5638-1.0215-2.5781-1.3242-1.014-.304-2.151-.456-3.411-.456zm-.66992 21.695c-.4574 0-.88621.0557-1.2871.16602-.40225.11165-.7509.29152-1.0469.53906-.29732.24753-.53046.57176-.69727.97266-.16683.40225-.25.89149-.25 1.4727 0 .55696.08318 1.0342.25 1.4297.16681.39418.39995.72277.69727.98242.29597.2583.64462.44803 1.0469.56641.401.117.83.176 1.287.176.4332 0 .84558-.05874 1.2344-.17578.3888-.11838.73199-.30811 1.0293-.56641.29597-.25965.52958-.58824.70312-.98242.17354-.39552.25977-.87273.25977-1.4297 0-.58117-.08623-1.0704-.25977-1.4727-.17354-.4009-.40716-.72513-.70312-.97266-.29731-.24754-.6405-.42741-1.0293-.53906-.38879-.11032-.80118-.16602-1.2344-.16602z" fill="#b7b7b7"/></svg>