<svg height="48" width="48" xmlns="http://www.w3.org/2000/svg"><rect fill="#4e91d9" height="40" rx="2" transform="matrix(0 -1 -1 0 0 0)" width="40" x="-44" y="-44"/><path d="m6 4c-1.108 0-2 .892-2 2v1c0-1.108.892-2 2-2h36c1.108 0 2 .892 2 2v-1c0-1.108-.892-2-2-2z" fill="#fff" opacity=".2"/><path d="m6 45c-1.108 0-2-.892-2-2v-1c0 1.108.892 2 2 2h36c1.108 0 2-.892 2-2v1c0 1.108-.892 2-2 2z" opacity=".2"/><path d="m4 14h4v2h-4z" fill="#742424"/><path d="m16 14h4v2h-4z" fill="#ad3131"/><path d="m20 14h8v2h-8z" fill="#742424"/><path d="m28 14h8v2h-8z" fill="#ad3131"/><path d="m36 14h8v2h-8z" fill="#742424"/><path d="m4 12h4v2h-4z" fill="#742424"/><path d="m16 12h8v2h-8z" fill="#742424"/><path d="m24 12h8v2h-8z" fill="#ad3131"/><path d="m32 12h8v2h-8z" fill="#742424"/><path d="m40 12h4v2h-4z" fill="#ad3131"/><path d="m-44-33h8v2h-8z" fill="#742424" transform="scale(-1)"/><path d="m-36-33h8v2h-8z" fill="#ad3131" transform="scale(-1)"/><path d="m-28-33h8v2h-8z" fill="#742424" transform="scale(-1)"/><path d="m-20-33h8v2h-8z" fill="#ad3131" transform="scale(-1)"/><path d="m-12-33h8v2h-8z" fill="#742424" transform="scale(-1)"/><path d="m44 35h-4v-2h4z" fill="#742424"/><path d="m-40-35h8v2h-8z" fill="#ad3131" transform="scale(-1)"/><path d="m-32-35h8v2h-8z" fill="#742424" transform="scale(-1)"/><path d="m-24-35h8v2h-8z" fill="#ad3131" transform="scale(-1)"/><path d="m-16-35h8v2h-8z" fill="#742424" transform="scale(-1)"/><path d="m8 35h-4v-2h4z" fill="#ad3131"/><g fill="#fff"><path d="m9 12h2v18h-2z"/><path d="m13 12h2v18h-2z"/><path d="m9 13h6v2h-6z"/><path d="m9 19h6v2h-6z"/><path d="m9 25h6v2h-6z"/></g><path d="m28.075 7.3648.45649 1.1563 1.1886-.36404-.6194 1.0778 1.0257.70234-1.2289.18774.09041 1.2398-.91297-.84372-.91297.84372.09041-1.2398-1.2289-.18774 1.0257-.70234-.6194-1.0778 1.1886.36404z" fill="#ffeb5d" transform="matrix(.97493 0 0 1 4.6285 -.36479)"/></svg>