<svg height="48" width="48" xmlns="http://www.w3.org/2000/svg"><rect fill="#d9974e" height="40" rx="2" transform="matrix(0 -1 -1 0 0 0)" width="40" x="-44" y="-44"/><path d="m6 4c-1.108 0-2 .892-2 2v1c0-1.108.892-2 2-2h36c1.108 0 2 .892 2 2v-1c0-1.108-.892-2-2-2z" fill="#fff" opacity=".2"/><path d="m6 45c-1.108 0-2-.892-2-2v-1c0 1.108.892 2 2 2h36c1.108 0 2-.892 2-2v1c0 1.108-.892 2-2 2z" opacity=".2"/><path d="m19 11a9 9 0 0 0 -9 9 9 9 0 0 0 9 9v7h18v-18h-9.2344a9 9 0 0 0 -8.766-7zm0 2a7 7 0 0 1 6.7012 5h-6.701v9a7 7 0 0 1 -7-7 7 7 0 0 1 7-7zm2 7h5a7 7 0 0 1 -5 6.7012v-6.701zm7 0h7v14h-14v-5.2344a9 9 0 0 0 7-8.766z" fill="#4d4d4d"/></svg>