<svg height="48" width="48" xmlns="http://www.w3.org/2000/svg"><rect fill="#ccc" height="40" rx="2" transform="matrix(0 -1 -1 0 0 0)" width="40" x="-44" y="-44"/><path d="m21.02 10.23c-.20885.18421-.26106.46053-.26106.7829 0 .59868.20885 1.3355.31327 1.6118 0 0 .15664 3.2237.20885 3.5921-.46991.0461-1.3053.0921-1.6186.18421h-.4177c-.88762.0461-1.723.0921-2.0885.41448l-.15664.13816.15664.18421c.26106.27631.36548 1.0592.46991 1.8882.26106 1.704.57432 3.8224 2.1407 4.6513l.31328.13816v-.32237s.0523-.13816.0523-.32237c0-.13816-.0523-.36842-.10441-.69079.41769.0461 1.3053.13816 1.6186.13816.0523.36842 1.4097 15.382 1.4097 15.382h.52212s.57434-14.829.57434-15.289c.36547 0 1.9841.0461 2.454.0921-.1044.27632-.52211 1.4276-.52211 1.4276l.73096-.59868c.20885-.13816 4.7513-3.7763 4.1248-6.1711-.20886-.78289-.93982-1.3355-2.1407-1.6118h-.1046c-.67875 0-2.7672.0461-4.3336.13816.0523-1.1974.0523-1.8421.0523-2.1645v-.41442c0-.23027.26106-.55264.46991-.7829.20886-.27632.46991-.50658.46991-.78289 0-.0921-.0523-.18422-.10439-.27632-.31328-.41447-2.6106-1.4737-3.6026-1.5658-.31328.0461-.52213.0921-.62655.23026zm.0523 7.5526h.26106c0 .41447.15664 3.3158.20885 3.7303-.4177-.0461-1.4097-.13816-1.723-.13816-.15664-.59869-.20885-1.2434-.26106-1.8882-.0521-.55263-.10441-1.1053-.20885-1.6118.46991 0 1.723-.0921 1.723-.0921zm3.185 1.4276s.0521-1.1053.0521-1.4737c.67875.0921 1.5664.13816 2.4018.13816h.93983c0 .18421-.0523.41447-.0523.41447-.1044 1.0132-.26106 2.2105-.73098 3.4079-.31326 0-2.2451-.0921-2.6628-.13816 0-.32237.0523-2.3487.0523-2.3487z" fill="#4d4d4d"/><path d="m6 4c-1.108 0-2 .892-2 2v1c0-1.108.892-2 2-2h36c1.108 0 2 .892 2 2v-1c0-1.108-.892-2-2-2z" fill="#fff" opacity=".2"/><path d="m6 45c-1.108 0-2-.892-2-2v-1c0 1.108.892 2 2 2h36c1.108 0 2-.892 2-2v1c0 1.108-.892 2-2 2z" opacity=".2"/></svg>