<svg height="48" width="48" xmlns="http://www.w3.org/2000/svg"><path d="m10.002 5c-1.1095 0-2.002.892-2.002 2v36c0 1.108.89252 2 2.002 2h13.996v-40zm13.998 0v40h14c1.108 0 2-.892 2-2v-36c0-1.108-.892-2-2-2z" opacity=".2"/><path d="m10.002 3.9805c-1.1095 0-2.002.892-2.002 2v36c0 1.108.8925 2 2.002 2h13.996v-40l-13.996.0005zm13.998 0v40h14c1.108 0 2-.892 2-2v-36c0-1.1075-.892-1.9995-2-1.9995h-14z" fill="#ccc"/><path d="m10 10v2h12v-2zm0 4v2h6v-2zm0 4v2h8v-2zm0 4v2h2v-2zm0 4v2h8v-2z" opacity=".5"/><path d="m10.002 3.9805c-1.1095 0-2.002.892-2.002 2v1.0195c0-1.108.8925-2 2.002-2h13.996v-1.0195zm13.998 0v1.0195h14c1.108 0 2 .892 2 2v-1.0195c0-1.108-.892-2-2-2z" fill="#fff" opacity=".2"/></svg>