<svg height="48" viewBox="0 0 48 48" width="48" xmlns="http://www.w3.org/2000/svg"><path d="m24 4a20 20 0 0 0 -20 20 20 20 0 0 0 20 20 20 20 0 0 0 20-20 20 20 0 0 0 -20-20z" fill="#234780"/><path d="m4.0215 24.418a20 20 0 0 0 -.0215.582 20 20 0 0 0 20 20 20 20 0 0 0 20-20 20 20 0 0 0 -.021-.418 20 20 0 0 1 -19.979 19.418 20 20 0 0 1 -19.978-19.582z" opacity=".2"/><path d="m24 4a20 20 0 0 0 -20 20 20 20 0 0 0 .0215.418 20 20 0 0 1 19.978-19.418 20 20 0 0 1 19.979 19.582 20 20 0 0 0 .021-.582 20 20 0 0 0 -20-20z" fill="#fff" opacity=".1"/><g stroke-linecap="round" stroke-linejoin="round"><path d="m24 9 5 8 5 8-10 6-10-6 5-8z" fill="#080808" opacity=".2" stroke-width="1.885955"/><path d="m24 7.9999999 5 8.0000001 5 8-10 6-10-6 5-8z" fill="#63bfd7" stroke-width="1.885955"/><path d="m24 41 5-7 5-7-10 6-10-6 5 7z" fill="#080808" opacity=".2" stroke-width="1.764149"/><path d="m24 40 5-7 5-7-10 6-10-6 5 7z" fill="#63bfd7" stroke-width="1.764149"/></g></svg>