<svg height="48" viewBox="0 0 48 48" width="48" xmlns="http://www.w3.org/2000/svg" xmlns:xlink="http://www.w3.org/1999/xlink"><clipPath id="a"><circle cx="286" cy="26" r="10"/></clipPath><circle cx="24" cy="25" opacity=".2" r="20"/><circle cx="24" cy="24" fill="#caa17d" r="20"/><path d="m20 29v10c0 1.108.892 2 2 2h2c1.108 0 2-.892 2-2v-10z" opacity=".2"/><path d="m20 9s10 5.530398 10 20h-10z" opacity=".2"/><path d="m20 28v10c0 1.108.892 2 2 2h2c1.108 0 2-.892 2-2v-10z" fill="#855629"/><path d="m20 8s10 5.530398 10 20h-10z" fill="#ccc"/><circle cx="23" cy="32" opacity=".2" r="1"/><circle cx="23" cy="31" fill="#ccc" r="1"/><circle cx="23" cy="38" opacity=".2" r="1"/><circle cx="23" cy="37" fill="#ccc" r="1"/><circle clip-path="url(#a)" cx="286" cy="26" opacity="0" r="10" stroke-width=".455" transform="matrix(.9 0 0 .9 -220.4 14.15)"/><circle clip-path="url(#a)" cx="286" cy="26" opacity="0" r="10" stroke-width=".909" transform="matrix(.9 0 0 .9 -220.4 14.15)"/><circle cx="37" cy="38" opacity=".2" r="9"/><circle cx="37" cy="37" fill="#e74c3c" r="9"/><path d="m35 28v1.236328a9 9 0 0 0 -6.015625 4.691406c.675226-.118183 2.071227-.469818 4.181641-1.621093.8379-.4572 1.558133-.862107 1.833984-1.306641-2.392141 3 .202102 3.43994 1.5 5 0 0 3.041249-2 .5-5 3 1.460662 6 1 6 1s.01627-.29409-.0039-.699219a9 9 0 0 0 -5.9961-2.300781v-1z" fill-rule="evenodd" opacity=".1"/><path d="m35 27v1.236328a9 9 0 0 0 -6.015625 4.691406c.675226-.118183 2.071227-.469818 4.181641-1.621093.8379-.4572 1.558133-.862107 1.833984-1.306641-2.392141 3 .202102 3.43994 1.5 5 0 0 3.041249-2 .5-5 3 1.460662 6 1 6 1s.01627-.29409-.0039-.699219a9 9 0 0 0 -5.9961-2.300781v-1z" fill="#a6ef4d" fill-rule="evenodd"/><path d="m24 4a20 20 0 0 0 -20 20 20 20 0 0 0 .0214844.582031 20 20 0 0 1 19.9785156-19.582031 20 20 0 0 1 19.978516 19.417969 20 20 0 0 0 .021484-.417969 20 20 0 0 0 -20-20z" fill="#fff" opacity=".2"/></svg>