<svg height="48" width="48" xmlns="http://www.w3.org/2000/svg" xmlns:xlink="http://www.w3.org/1999/xlink"><clipPath id="a"><circle cx="286" cy="26" r="10"/></clipPath><circle cx="24" cy="24" fill="#e74c3c" r="20"/><circle clip-path="url(#a)" cx="286" cy="26" opacity="0" r="10" stroke-width=".455" transform="matrix(2 0 0 2 -548 -28)"/><circle clip-path="url(#a)" cx="286" cy="26" opacity="0" r="10" stroke-width=".909" transform="matrix(2 0 0 2 -548 -28)"/><path d="m24 4c-11.079 0-19.998 8.92-19.998 20 0 .16772-.004.33329 0 .5.2642-10.846 9.087-19.5 19.998-19.5s19.734 8.6536 19.998 19.5c.004-.16671 0-.33228 0-.5 0-11.08-8.919-20-19.998-20z" fill="#fff" opacity=".2"/><path d="m43.979 24.418a20 20 0 0 1 -19.979 19.582 20 20 0 0 1 -19.978-19.418 20 20 0 0 0 -.022.418 20 20 0 0 0 20 20 20 20 0 0 0 20-20 20 20 0 0 0 -.021-.582z" opacity=".2"/><path d="m8 25.477c0-7.8822 4.1807-11.946 6.6267-11.946 2.4461 0 2.8473 1.1772 2.8473 3.112 0 3.7554-4.5355 2.2129-4.5355 9.2606 0 2.3342 1.0492 5.2201 3.7796 5.2201 2.1907 0 2.9964-2.5458 4.1071-7.1023 1.843-6.85 3.708-12.021 10.003-12.021 6.116 0 9.172 5.017 9.172 12.9 0 7.8822-4.7351 12.9-7.1812 12.9-2.446 0-3.0739-.95137-3.0739-2.8861 0-3.7554 5.1401-3.2168 5.1401-10.264 0-2.3342-1.0492-5.7722-3.7795-5.7722-2.1907 0-2.9649.14966-4.3087 5.1448-.731 5.335-2.469 13.977-9.121 13.977-6.116 0-9.676-4.641-9.676-12.523z" opacity=".2"/><path d="m8 24.477c0-7.8822 4.1807-11.946 6.6267-11.946 2.4461 0 2.8473 1.1772 2.8473 3.112 0 3.7554-4.5355 2.2129-4.5355 9.2606 0 2.3342 1.0492 5.2201 3.7796 5.2201 2.1907 0 2.9964-2.5458 4.1071-7.1023 1.843-6.85 3.708-12.021 10.003-12.021 6.116 0 9.172 5.017 9.172 12.9 0 7.8822-4.7351 12.9-7.1812 12.9-2.446 0-3.0739-.95137-3.0739-2.8861 0-3.7554 5.1401-3.2168 5.1401-10.264 0-2.3342-1.0492-5.7722-3.7795-5.7722-2.1907 0-2.9649.14966-4.3087 5.1448-.731 5.335-2.469 13.977-9.121 13.977-6.116 0-9.676-4.641-9.676-12.523z" fill="#fff"/></svg>