<svg height="48" width="48" xmlns="http://www.w3.org/2000/svg"><rect fill="#ccc" height="40" rx="2" transform="matrix(0 -1 -1 0 0 0)" width="40" x="-44" y="-44"/><path d="m6 4c-1.108 0-2 .892-2 2v1c0-1.108.892-2 2-2h36c1.108 0 2 .892 2 2v-1c0-1.108-.892-2-2-2z" fill="#fff" opacity=".2"/><path d="m6 45c-1.108 0-2-.892-2-2v-1c0 1.108.892 2 2 2h36c1.108 0 2-.892 2-2v1c0 1.108-.892 2-2 2z" opacity=".2"/><path d="m18 18c-2.2091 0-4 1.7909-4 4s1.7909 4 4 4 4-1.7909 4-4h-4z" fill="#f00" opacity=".5" visibility="hidden"/><path d="m25 18v2h9v-2z" opacity=".5" visibility="hidden"/><path d="m25 23v2h9v-2z" opacity=".5" visibility="hidden"/><path d="m14 28v2h16v-2z" opacity=".5" visibility="hidden"/></svg>