<svg height="48" width="48" xmlns="http://www.w3.org/2000/svg"><rect fill="#63c4ad" height="40" rx="2" transform="matrix(0 -1 -1 0 0 0)" width="40" x="-44" y="-44"/><path d="m6 4c-1.108 0-2 .892-2 2v1c0-1.108.892-2 2-2h36c1.108 0 2 .892 2 2v-1c0-1.108-.892-2-2-2z" fill="#fff" opacity=".2"/><path d="m6 45c-1.108 0-2-.892-2-2v-1c0 1.108.892 2 2 2h36c1.108 0 2-.892 2-2v1c0 1.108-.892 2-2 2z" opacity=".2"/><path d="m16.994 15v2h1.916l-3.2012 6.8633a3.5 3.5 0 0 0 -4.1816 1.8691 3.5 3.5 0 0 0 1.6934 4.6504 3.5 3.5 0 0 0 4.6523-1.6914 3.5 3.5 0 0 0 -1.2578-4.4043l3.399-7.287h5.9805v8.0391a3.5 3.5 0 0 0 -2.994 3.461 3.5 3.5 0 0 0 3.5 3.5 3.5 3.5 0 0 0 3.5-3.5 3.5 3.5 0 0 0 -3.006-3.461v-8.0391h6v8.0391a3.5 3.5 0 0 0 -2.994 3.461 3.5 3.5 0 0 0 3.5 3.5 3.5 3.5 0 0 0 3.5-3.5 3.5 3.5 0 0 0 -3.006-3.461v-8.0391h3v-2h-20z" opacity=".2" transform="translate(0 1)"/><path d="m16.994 15v2h1.916l-3.201 6.863a3.5 3.5 0 0 0 -4.182 1.869 3.5 3.5 0 0 0 1.694 4.651 3.5 3.5 0 0 0 4.652-1.692 3.5 3.5 0 0 0 -1.258-4.404l3.399-7.287h5.98v8.039a3.5 3.5 0 0 0 -2.994 3.461 3.5 3.5 0 0 0 3.5 3.5 3.5 3.5 0 0 0 3.5-3.5 3.5 3.5 0 0 0 -3.006-3.461v-8.039h6v8.039a3.5 3.5 0 0 0 -2.994 3.461 3.5 3.5 0 0 0 3.5 3.5 3.5 3.5 0 0 0 3.5-3.5 3.5 3.5 0 0 0 -3.006-3.461v-8.039h3v-2z" fill="#fff"/></svg>