<svg height="48" viewBox="0 0 12.7 12.7" width="48" xmlns="http://www.w3.org/2000/svg"><path d="m6.3650571 1.3230344c-.037364-.00104-.073461.012369-.099328.036896-.3732205.353944-.7525418.7510808-1.0953646 1.1290903-.0003986.0004745-.0007921.0009525-.00118.00143-.8448.9574865-1.4869213 1.9412985-1.9522652 2.9946709-.4334834.9812513-.6869289 1.8301219-.9175994 3.0666691-.050514.2707835-.1015588.5989048-.1367733.8629373-.017607.1320162-.031278.2478387-.039022.3334971-.00387.04283-.00613.077966-.0067.1063896-.0002864.014212-.0003317.026061.00118.040836.0007572.00738.00147.015271.00552.028657.00405.013387.000745.040559.059912.073792.031928.017933.036225.014391.044146.016119.00792.0017.014056.003.020496.0039.012881.0019.026558.0031.042175.0046.031234.003.06991.0059.1107583.0079.3239047.01611.8015485.09091 1.1182257.175166.213793.05688.3545476.103935.5632516.188062.048218.01944.092435.03721.1253421.05015.016454.0064.029962.01151.040204.0154.00482.0018.00909.0032.013007.0046.000246.000093.0005424.000271.0007884.000359.000063.000023.0003254-.000035.0003935 0 .0001387.000046.000256.000308.0003935.000357.00147.000693.00298.0013.00552.0025-.0001501-.000315-.0006849-.000899-.00118-.0011.0007416.00025.00104.000417.00197.000716.00166.000539.00347.0014.00749.0025.00159.000429.0028.0012.00473.0021-.0009296-.000197-.00443-.000147-.00512-.000357.00925.0045.020228.01013.03508.01756.035328.01766.083864.04211.1367727.06914.5111055.261048.8933337.530246 1.5037121 1.061746.080417.07002.1553523.133547.2120569.180541.028352.0235.051899.04283.070554.05731.00933.0072.017212.01314.02562.01898.0042.0029.00827.0059.015372.01003.00355.002.00791.0044.015766.0079.00786.0034.015682.01021.052029.01182.043544.0019.05258-.0067.061489-.01038.00891-.0036.013483-.0061.017343-.0082.00772-.0043.012058-.0073.016555-.01038.00899-.0061.017111-.01235.027197-.02006.020172-.01542.045935-.03632.076861-.06162.061843-.05054.143669-.119264.2317569-.195176.5049161-.435122.7493262-.619057 1.1008828-.831055.7677391-.46297 1.4518744-.668465 2.5021139-.749025l.08514-.0064c.06844-.0052.121067-.057225.121006-.1196438v-.045467c.000001-.094843-.02483-.290729-.05833-.5333805-.03351-.242649-.07636-.5188335-.1151-.7286045-.230398-1.2476347-.4923406-2.1263772-.9313953-3.1200124-.3955273-.8951273-.9617787-1.7993394-1.638514-2.6178271-.00152-.00184-.0031-.00362-.00473-.00538-.455521-.4900419-.8961444-1.0043847-1.3767932-1.4812077-.024051-.0239554-.05775-.0380413-.0934154-.0390453z" opacity=".2" stroke-width=".012024"/><path d="m6.3650571 1.058451c-.037364-.00104-.073461.012369-.099328.036896-.3732205.353944-.7525418.7510808-1.0953646 1.1290903-.0003986.0004745-.0007921.0009525-.00118.00143-.8448.9574865-1.4869213 1.9412985-1.9522652 2.9946709-.4334834.9812513-.6869289 1.8301219-.9175994 3.0666691-.050514.2707835-.1015588.5989048-.1367733.8629373-.017607.1320162-.031278.2478387-.039022.3334971-.00387.04283-.00613.077966-.0067.1063896-.0002864.014212-.0003317.026061.00118.040836.0007572.00738.00147.015271.00552.028657.00405.013387.000745.040559.059912.073792.031928.017933.036225.014391.044146.016119.00792.00173.014056.00299.020496.00394.012881.00191.026558.00314.042175.00465.031234.00303.06991.00585.1107583.00789.3239047.016115.8015485.090915 1.1182257.1751666.213793.056878.3545476.1039351.5632516.1880621.048218.01944.092435.03721.1253421.05015.016454.0064.029962.01151.040204.0154.00482.0018.00909.0032.013007.0046.000246.000093.0005424.000271.0007884.000359.000063.000023.0003254-.000035.0003935 0 .0001387.000046.000256.000308.0003935.000357.00147.000693.00298.0013.00552.0025-.0001501-.000315-.0006849-.000899-.00118-.0011.0007416.00025.00104.000417.00197.000716.00166.000539.00347.0014.00749.0025.00159.000429.0028.0012.00473.0021-.0009296-.000197-.00443-.000147-.00512-.000357.00925.0045.020228.01013.03508.01756.035328.01766.083864.04211.1367727.06914.5111055.261048.8933337.530246 1.5037121 1.061746.080417.07002.1553523.133547.2120569.180541.028352.0235.051899.04283.070554.05731.00933.0072.017212.01314.02562.01898.0042.0029.00827.0059.015372.01003.00355.002.00791.0044.015766.0079.00786.0034.015682.01021.052029.01182.043544.0019.05258-.0067.061489-.01038.00891-.0036.013483-.0061.017343-.0082.00772-.0043.012058-.0073.016555-.01038.00899-.0061.017111-.01235.027197-.02006.020172-.01542.045935-.03632.076861-.06162.061843-.05054.143669-.119264.2317569-.195176.5049161-.435122.7493262-.619057 1.1008828-.831055.7677391-.46297 1.4518744-.6684654 2.5021139-.7490257l.08514-.00645c.06844-.0052.121067-.057225.121006-.1196435v-.045467c.000001-.094843-.02483-.290729-.05833-.5333805-.03351-.242649-.07636-.5188335-.1151-.7286045-.230398-1.247665-.4923406-2.1264075-.9313953-3.1200427-.3955273-.8951273-.9617787-1.7993394-1.638514-2.6178271-.00152-.00184-.0031-.00362-.00473-.00538-.455521-.4900419-.8961444-1.0043847-1.3767932-1.4812077-.024051-.0239554-.05775-.0380413-.0934154-.0390453z" fill="#0278dc" stroke-width=".012024"/><g transform="scale(.26458333)"><path d="m24.056641 4c-.141219-.0039307-.277235.0479245-.375.140625-1.194543 1.1328456-2.389694 2.3795711-3.519532 3.6035156l3.84961 21.8984374 3.810547-21.8632811c-1.11179-1.2290739-2.229359-2.457523-3.41211-3.6308594-.090901-.0905401-.218717-.1446429-.353515-.1484375zm-.044922 25.642578 11.708984-10.126953c-.803117-1.778851-1.794183-3.559625-2.919922-5.300781zm0 0 14.488281-2.044922c-.356427-1.446847-.759448-2.798952-1.214844-4.113281zm0 0 15.488281 7.208984.042969-.003906c.258671-.019653.457262-.217212.457031-.453125v-.148437c.000004-.357321-.09409-1.093629-.220703-2.007813-.06377-.460309-.143565-.906509-.21875-1.382812l-.28125-1.015625zm0 0 5.675781 10.033203.306641-.105469c1.077453-.633956 2.122393-1.134856 3.21289-1.527343zm0 0-2.402344 12.53125c.291023.243541.564034.462904.884766.742188.303938.264642.586464.504025.800781.68164.107157.088819.197071.16207.267578.216797.03526.02721.063933.050266.095703.072266.01587.01096.031754.021609.058594.037109.0034.0019.011605.005613.015625.007813l.279297.048828.792969-.466797c.224743-.184816.495708-.408701.798828-.669922.292691-.252233.453695-.366749.705078-.578125zm0 0-9.109375 8.44336c.173168.06466.330463.117904.527344.197265.182241.073474.350236.140546.474609.189453.062188.024189.111681.043892.150391.058594.018217.006803.035976.012287.050781.017578 0 0 .001953.001953.001953.001953h.001953.001953c.005556.002619.009931.00523.019531.009766-.000567-.001191-.002035-.003147-.003906-.003906.002803.000945.004298.000823.007813.001953.006274.002037.01215.005608.027343.009765.00601.001622.012237.004411.019532.007813-.003514-.000745-.016924.000794-.019532 0 .034961.017008.076679.038324.132813.066406.133523.066747.315655.157605.515625.259766.514105.26258.994302.531355 1.464844.816406zm0 0-15.3632815 1.982422c-.1753719.966908-.3523016 2.074161-.4746094 2.988281-.0665461.497368-.1191688.933143-.1484375 1.25586-.0143424.158223-.0230323.286623-.0253906.392578-.0000467.0021.0000419.005731 0 .007812-.0005867.043659.0010125.083487.0058594.13086.0028618.027893.0042241.056829.0195312.107421.0153071.050597.0029392.153692.2265625.279297.1206728.067779.1380311.054016.1679688.060547.0299338.006539.0518317.012035.0761719.015625.048684.007219.1011313.011871.1601562.017578.1180498.011452.2635815.021587.4179688.029297.2237455.011132.4829778.035733.7382812.060547zm0 0-13.289063-6.158203c-.437188 1.258492-.8250703 2.55518-1.1699216 3.939453zm0 0-8.761719-15.515625c-1.063798 1.635574-1.985701 3.309022-2.785156 5.027344z" fill="#48a0f8" fill-rule="evenodd"/><path d="m24.056641 4c-.141219-.0039307-.277235.0479245-.375.140625-1.410598 1.3377411-2.844917 2.8388808-4.140625 4.2675781-.001507.0017934-.002441.0021016-.003907.0039063-3.192945 3.6188466-5.620126 7.3371096-7.378906 11.3183596-1.638362 3.708666-2.5969244 6.918232-3.4687499 11.591797-.190919 1.023433-.3825308 2.2638-.515625 3.261718-.0665461.498959-.1191688.936018-.1484375 1.259766-.0146267.161877-.0232363.294916-.0253906.402344-.0010825.053714.0001459.098454.0058594.154297.0028618.027893.0042241.056829.0195312.107421.0063169.020881.0139004.055223.0292969.091797.0303684-.295022.0654943-.613388.1191406-1.015625.1330942-.997918.324706-2.238285.515625-3.261718.8718255-4.673565 1.8303879-7.883131 3.4687499-11.591797 1.75878-3.98125 4.185961-7.699513 7.378906-11.3183596.001466-.0018047.0024-.0021129.003907-.0039063 1.295708-1.4286973 2.730027-2.929837 4.140625-4.2675781.097765-.0927005.233781-.1445557.375-.140625.134798.0037946.262614.0578974.353515.1484375 1.816626 1.8021657 3.481471 3.7455294 5.203125 5.5976565.006161.006652.011833.01453.017578.021484 2.55774 3.093497 4.698453 6.50942 6.19336 9.892578 1.659419 3.755472 2.648735 7.077499 3.519531 11.792969.146419.792835.308895 1.836808.435547 2.753906.075994.550453.130743.998205.169922 1.376953.029912-.058356.050848-.121179.050781-.189453v-.171875c.000004-.358461-.094089-1.098517-.220703-2.015625-.126652-.917098-.289128-1.961071-.435547-2.753906-.870796-4.715584-1.860112-8.037497-3.519531-11.792969-1.494907-3.383158-3.63562-6.799081-6.19336-9.8925779-.005745-.0069543-.011417-.0148324-.017578-.0214843-1.721654-1.8521269-3.386499-3.7954906-5.203125-5.5976563-.090901-.0905401-.218717-.1446429-.353515-.1484375z" fill="#edf7ff" opacity=".2" stroke-width=".045446"/></g></svg>