<svg height="48" viewBox="0 0 48 48" width="48" xmlns="http://www.w3.org/2000/svg" xmlns:xlink="http://www.w3.org/1999/xlink"><filter id="a" color-interpolation-filters="sRGB" height="1.023916" width="1.024084" x="-.012042" y="-.011958"><feGaussianBlur stdDeviation=".30348912"/></filter><filter id="b" color-interpolation-filters="sRGB" height="1.024" width="1.024" x="-.012" y="-.012"><feGaussianBlur stdDeviation=".20500001"/></filter><g transform="scale(.75)"><path d="m14.748245 2.0955137c-.137284.01413-.269875.07488-.372984.178589l-4.7716906 4.770836c-.200621.201195-.238416.513188-.09051.756798l5.5866226 9.2011093c-.990846 1.665794-1.785008 3.461826-2.352602 5.356506l-10.2561366 2.133289c-.285356.05906-.490946.311937-.490946.604771v6.747153c0 .285346.195222.532488.470176.598951l9.9545766 2.433187c.530845 2.194352 1.353461 4.274488 2.440679 6.186405l-5.7619096 8.78657c-.160756.245559-.127157.569054.08054.775899l4.7700176 4.770864c.200622.200065.513821.239343.758458.09212l9.029145-5.483608c1.773594 1.023465 3.68634 1.828868 5.707914 2.375062l2.106713 10.129007c.0593.287015.31298.490978.60394.490978h6.74798c.28368 0 .53124-.193566.59895-.471875l2.48137-10.149775c2.08387-.562385 4.05477-1.400594 5.871559-2.470573l8.89788 5.834174c.24466.161069.56823.128855.7759-.07884l4.7717-4.770864c.20184-.20176.23798-.513781.0897-.75677l-6.07321-7.692716c-2.72646-3.739762-2.38842-3.356667-3.38377-4.419334-3.1987 6.260328-9.706589 10.548523-17.221739 10.548523-10.677092 0-19.333459-8.656556-19.333459-19.334272 0-7.854911 4.685091-14.610147 11.410842-17.636265v-4.9876533c-1.224073.428218-2.407438.944515-3.53142 1.556775-.000823-.000764-.0017-.0028-.0048-.0057l-9.107213-5.973228c-.122655-.08026-.264811-.112184-.402064-.09805z" filter="url(#a)" opacity=".2" stroke-width=".747652"/><path d="m14.748247 1.095513c-.137284.014126-.269875.074884-.372984.1785889l-4.771691 4.7708359c-.200621.2011953-.238416.5131884-.09051.7567982l5.586623 9.201109c-.990846 1.665794-1.785008 3.461826-2.352602 5.356506l-10.256137 2.133289c-.285356.05906-.490946.311937-.490946.604771v6.747153c0 .285346.195222.532488.470176.598951l9.954577 2.433187c.530845 2.194353 1.353461 4.274489 2.440679 6.186406l-5.76191 8.78657c-.160756.245559-.127157.569054.08054.775899l4.770018 4.770864c.200622.200065.513821.239343.758458.09212l9.029145-5.483608c1.773594 1.023465 3.686339 1.828868 5.707913 2.375062l2.10671 10.129007c.05928.287015.312987.490978.603938.490978h6.747985c.283679 0 .531242-.193566.598951-.471875l2.481365-10.149775c2.083871-.562385 4.054771-1.400594 5.871559-2.470573l8.897888 5.834174c.244655.161069.568223.128855.775896-.07884l4.771696-4.770864c.201844-.20176.237986-.513781.08969-.75677l-6.073206-7.692716c-2.726458-3.739762-2.388419-3.356667-3.383769-4.419334-3.198699 6.260328-9.706592 10.548523-17.221744 10.548523-10.677087 0-19.333454-8.656556-19.333454-19.334273 0-7.854911 4.685091-14.610146 11.410841-17.636264v-4.9876534c-1.224072.4282175-2.407437.9445144-3.531419 1.5567743-.000823-.0007634-.0017-.0028-.0048-.00571l-9.107213-5.9732281c-.122655-.0802574-.264811-.1121836-.402064-.0980551z" fill="#d4d4d4" stroke-width=".747652"/><ellipse cx="36" cy="28.999998" filter="url(#b)" opacity=".2" rx="20.5" ry="20.500002"/><ellipse cx="36.000004" cy="27.999998" fill="#206b00" rx="20.5" ry="20.500002"/><path d="m36.000058 7.4999633a20.499923 20.499923 0 0 0 -20.499923 20.4999427 20.499923 20.499923 0 0 0 .015508.429174 20.499923 20.499923 0 0 1 20.484185-20.1967605 20.499923 20.499923 0 0 1 20.48455 20.0708385 20.499923 20.499923 0 0 0 .015509-.303184 20.499923 20.499923 0 0 0 -20.499923-20.4999448z" fill="#fff" opacity=".2" stroke-width=".73214"/><ellipse cx="33.495544" cy="33.277515" fill="#fafafa" rx="12.5" ry="12.500001"/><path d="m22.495545 32.527516 11.999578 11 6.000422-16.5z" fill="#1a1a1a"/></g></svg>