<svg height="48" width="48" xmlns="http://www.w3.org/2000/svg" xmlns:xlink="http://www.w3.org/1999/xlink"><filter id="a" color-interpolation-filters="sRGB" height="1.024" width="1.024" x="-.012" y="-.012"><feGaussianBlur stdDeviation=".29000002"/></filter><filter id="b" color-interpolation-filters="sRGB" height="1.023996" width="1.024004" x="-.012002" y="-.011998"><feGaussianBlur stdDeviation=".1674747"/></filter><rect filter="url(#a)" height="58.000004" opacity=".2" ry="5.272728" transform="scale(.75)" width="58.000004" x="2.999998" y="3.999996"/><rect fill="#303f9f" height="43.500004" ry="3.954546" width="43.500004" x="2.249999" y="2.249999"/><path d="m6.2045446 2.249999c-2.1908182 0-3.9545456 1.7637274-3.9545456 3.9545457v.7909091c0-2.1908183 1.7637274-3.9545456 3.9545456-3.9545456h35.5909114c2.190818 0 3.954545 1.7637273 3.954545 3.9545456v-.7909092c0-2.1908182-1.763727-3.9545456-3.954546-3.9545456z" fill="#fafafa" opacity=".2"/><rect fill="#fafafa" height="41.25" ry="3.75" width="41.25" x="3.375" y="3.375"/><g filter="url(#b)" opacity=".2" stroke-width=".050604" transform="matrix(.89552242 0 0 .89552242 -4.656663 -3.906718)"><path d="m26.853489 33.335952h-11.59849c.647734 8.213066 7.200982 14.766314 15.414048 15.414048v-11.704758c-1.841994-.465559-3.299395-1.887538-3.815558-3.70929z"/><path d="m30.669047 26.7321v-11.4821c-8.187764.647734-14.72583 7.160499-15.408988 15.338142h11.552946c.47568-1.892598 1.963444-3.380362 3.856042-3.856042z"/><path d="m37.121087 30.588142h11.623791c-.673036-8.152341-7.175679-14.654985-15.328021-15.333082v11.517523c1.821752.516163 3.243731 1.973565 3.70423 3.815559z"/><path d="m-3.393923 50.297688h7.211032v13.162032h-7.211032z" transform="matrix(.70710678 -.70710678 .70710678 .70710678 0 0)"/></g><g stroke-width=".045317"><path d="m19.391239 25.196375h-10.3867075c.5800598 7.354985 6.4486405 13.223565 13.8036255 13.803626v-10.481874c-1.649547-.416919-2.954683-1.690332-3.416918-3.321752z" fill="#303f9f"/><path d="m22.808157 19.282477v-10.2824777c-7.332326.5800605-13.1873115 6.4123877-13.7990948 13.7356497h10.3459218c.425982-1.694863 1.758309-3.02719 3.453173-3.453172z" fill="#3f51b5"/><path d="m28.586103 22.735649h10.409365c-.602718-7.300604-6.425981-13.1238672-13.726586-13.7311182v10.3142002c1.63142.462235 2.904834 1.767371 3.317221 3.416918z" fill="#448aff"/><path d="m-3.039295 38.457153h6.457642v11.786896h-6.457642z" fill="#ff5722" transform="matrix(.70710678 -.70710678 .70710678 .70710678 0 0)"/></g></svg>