<svg height="48" viewBox="0 0 48 48" width="48" xmlns="http://www.w3.org/2000/svg"><path d="m4.0215 24.418a20 20 0 0 0 -.0215.582 20 20 0 0 0 20 20 20 20 0 0 0 20-20 20 20 0 0 0 -.021-.418 20 20 0 0 1 -19.979 19.418 20 20 0 0 1 -19.978-19.582z" opacity=".2"/><path d="m24 4a20 20 0 0 0 -20 20 20 20 0 0 0 20 20 20 20 0 0 0 20-20 20 20 0 0 0 -20-20z" fill="#248afd"/><path d="m24 4a20 20 0 0 0 -20 20 20 20 0 0 0 .0215.418 20 20 0 0 1 19.978-19.418 20 20 0 0 1 19.979 19.582 20 20 0 0 0 .021-.582 20 20 0 0 0 -20-20z" fill="#fff" opacity=".2"/><path d="m24 8a17 17 0 0 0 -17 17 17 17 0 0 0 17 17 17 17 0 0 0 17-17 17 17 0 0 0 -17-17zm0 1a16 16 0 0 1 11.601562 4.994141c-.433606.003908-.866648.005859-.902343.005859-1.586422 0-2.712891 1.35493-2.712891 2.839844 0 1.330612.769012 2.05806 1.587891 3.388672.615081 1.076109 1.332031 2.458698 1.332031 4.455078 0 1.382867-.530132 2.98837-1.228516 5.222656l-1.613281 5.384766-5.837891-17.265625c.971957-.05102 2.248047-.05469 2.248047-.05469.870212-.102968.76988-2.082581-.101562-2.03125 0 0-3.017633.205078-4.707031.205078-1.587346 0-4.955079-.205078-4.955078-.205078-.87052-.05133-.972083 1.980234-.101563 2.03125 0 0 1.524627.0037 2.394531.05469l2.517578 6.794921-3.537109 10.603516-5.880859-17.298828c.973802-.05102 2.349609-.152344 2.349609-.152344.869905-.10297.767312-1.982971-.103516-1.93164 0 0-3.116934.205078-4.80664.205078-.265756.000001-.583438-.0084-.910157-.01758a16 16 0 0 1 13.367188-7.228514zm13.966797 8.232422a16 16 0 0 1 2.033203 7.767578 16 16 0 0 1 -7.578125 13.589844l4.634766-13.392578c.922162-2.30406.927734-4.147894.927734-5.78711-.0507-.724488-.01842-1.45144-.01758-2.177734zm-28.453125 1.019531c-.1300128.320426-.2675781.673828-.2675781.673828l7.3964842 20.265625c.479614.248473.971037.471426 1.472656.669922s1.013434.372536 1.533204.519531l4.636718-13.470703 4.828125 13.228516c.569775-.190977 1.128045-.414621 1.671875-.667969a16 16 0 0 1 -1.671875.667969 16 16 0 0 1 -5.113281.861328 16 16 0 0 1 -4.351562-.619141 16 16 0 0 1 -1.533204-.519531 16 16 0 0 1 -1.472656-.669922 16 16 0 0 1 -8.642578-14.191406 16 16 0 0 1 1.5136719-6.748047zm22.109375 20.796875a16 16 0 0 1 -.804688.40625c.272156-.127547.540043-.263516.804688-.40625z" opacity=".2"/><g fill="#fff"><path d="m36.51 12.986328c-.06978-.004-1.739159.013672-1.810781.013672-1.586422 0-2.712891 1.354932-2.712891 2.839846 0 1.330612.769012 2.05806 1.587891 3.388672.615081 1.076109 1.332031 2.458698 1.332031 4.455078 0 1.382867-.530132 2.98837-1.228516 5.222656l-1.613281 5.384766-5.837891-17.265625c.971957-.05102 2.248047-.05469 2.248047-.05469.870212-.102968.76988-2.082581-.101562-2.03125 0 0-3.017633.205078-4.707031.205078-1.587346 0-4.955078-.205078-4.955078-.205078-.87052-.05133-.972083 1.980234-.101563 2.03125 0 0 1.524627.0037 2.394531.05469l2.517578 6.794919-3.537109 10.603516-5.880859-17.298828c.973802-.05102 2.349609-.152344 2.349609-.152344.869905-.10297.767312-1.982971-.103516-1.93164 0 0-3.116934.205078-4.80664.205078-.265756.000001-.583438-.0084-.910157-.01758-.8748224 1.142899-1.3867182 2.697265-1.3867182 2.697265l7.3964842 20.265625c.959228.496945 1.96632.895462 3.00586 1.189453l4.636718-13.470703 4.828125 13.228516c1.15838-.388265 2.268479-.907927 3.308594-1.548828l4.634766-13.392578c.922162-2.30406.928046-4.147894.928046-5.78711-.05688-.812777-.0051-1.628147-.01569-2.442842z"/><path d="m24 7a17 17 0 0 0 -17 17 17 17 0 0 0 17 17 17 17 0 0 0 17-17 17 17 0 0 0 -17-17zm0 1a16 16 0 0 1 16 16 16 16 0 0 1 -16 16 16 16 0 0 1 -16-16 16 16 0 0 1 16-16z"/></g></svg>