<svg height="48" width="48" xmlns="http://www.w3.org/2000/svg"><rect fill="#ccc" height="40" rx="20" transform="matrix(0 -1 -1 0 0 0)" width="40" x="-44" y="-44"/><path d="m24 4c-11.08 0-20 8.92-20 20 0 .168.008.333.0117.5.2647-10.846 9.0763-19.5 19.988-19.5s19.724 8.6539 19.988 19.5c.004-.16686.0117-.33213.0117-.5 0-11.08-8.92-20-20-20z" fill="#fff" opacity=".2"/><path d="m12.842 10.615-4.2424 4.242 12.4 12.401v14.742h6v-14.758l12.385-12.385-4.242-4.242-11.151 11.151-11.15-11.151z" fill="#fa5e5e"/><path d="m4.0117 24.5c-.0041.167-.0117.332-.0117.5 0 11.08 8.92 20 20 20s20-8.92 20-20c0-.16787-.0076-.33314-.01172-.5-.264 10.846-9.076 19.5-19.988 19.5s-19.724-8.654-19.988-19.5z" opacity=".2"/></svg>