<svg height="48" width="48" xmlns="http://www.w3.org/2000/svg"><path d="m19 4c-1.108 0-2 .892-2 2v19.955l-6.1699-6.1699c-.78347-.78347-2.0447-.78347-2.8281 0l-1.4141 1.4141c-.78348.78347-.78348 2.0446 0 2.8281l10.75 10.75a12 12 0 0 0 11.662 9.223 12 12 0 0 0 12-12v-26c0-1.108-.892-2-2-2h-2c-1.108 0-2 .892-2 2v11.283c0-.71137-.892-1.2832-2-1.2832h-2c-1.108 0-2 .57184-2 1.2832v.0078c0-.71563-.892-1.291-2-1.291h-2c-1.108 0-2 .57538-2 1.291v-11.291c0-1.108-.892-2-2-2h-2z" fill="#fabd7f"/><path d="m20.094 4.6562c-1.105 0-2.094.6869-2.094 2.3438s.895 3 2 3 2-1.3431 2-3-.802-2.3438-1.906-2.3438zm17.906 0c-1.105 0-2 .6869-2 2.3438s.895 3 2 3 2-1.3431 2-3-.895-2.3438-2-2.3438zm-29.238 15.655c-.2771.021-.5768.164-.9355.371-.9566.552-1.9769 1.356-1.1485 2.791.8285 1.435 2.2759 2.15 3.2325 1.597.9568-.552 1.0608-2.162.2328-3.597-.5182-.897-.9195-1.198-1.3813-1.162z" fill="#facea2"/><path d="m19 4c-1.108 0-2 .892-2 2v19.955l-6.1699-6.1699c-.78347-.78347-2.0447-.78347-2.8281 0l-1.4141 1.4141c-.78348.78347-.78348 2.0446 0 2.8281l10.75 10.75c1.285 5.403 6.109 9.217 11.662 9.223 6.627 0 12-5.373 12-12v-26c0-1.108-.892-2-2-2h-2c-1.108 0-2 .892-2 2v11.283c0-.711-.892-1.283-2-1.283h-2c-1.108 0-2 .57184-2 1.2832v.0078c0-.716-.892-1.291-2-1.291h-2c-1.108 0-2 .57538-2 1.291v-11.291c0-1.108-.892-2-2-2zm0 1.5h2c.30295 0 .5.19705.5.5v17.691c.02911 1.7584 2.5387 1.9401 2.957.232.091-.047.277-6.423.543-6.423h2c.26564 0 .45234 5.3759.54297 5.423.37352 1.5241 2.5405 1.5241 2.9141 0 .092-.047.278-5.423.543-5.423h2c.26636 0 .45339 6.6759.54492 6.723.4264 1.7012 2.926 1.5135 2.9551-.24v-17.983c0-.30295.19705-.5.5-.5h2c.30295 0 .5.19705.5.5v26c0 5.8161-4.6822 10.499-10.498 10.5-4.8669-.0049-9.0787-3.3355-10.205-8.0703-.06433-.2699-.20225-.51668-.39844-.71289l-10.75-10.75c-.21435-.21435-.21435-.49268 0-.70703l1.4135-1.414c.21435-.21435.49268-.21435.70703 0l6.1699 6.1699c.945.944 2.56.275 2.561-1.061v-19.955c0-.30295.19705-.5.5-.5z" fill="#e8a560"/><path d="m6.0723 23.113c-.17211.66266-.00549 1.3929.51562 1.9141l10.75 10.75a12 12 0 0 0 11.662 9.223 12 12 0 0 0 12-12v-1a12 12 0 0 1 -12 12 12 12 0 0 1 -11.662-9.223l-10.75-10.75c-.2625-.262-.4291-.58-.5157-.914z" opacity=".2"/></svg>