<svg height="16" viewBox="0 0 16 16" width="16" xmlns="http://www.w3.org/2000/svg"><g fill="none" fill-rule="evenodd"><path d="m2 15v-14h12v14z" fill="#80bd37"/><g fill="#fff"><path d="m6.83104126 13.9634578h-.55329796v-1.5287627s-.29601442.3963462-.86222267.3963462-1.41552063-.2831042-1.41552063-1.3815785c0-.4300626.12397849-.7791513.37193919-1.0472767s.58505924-.4021861 1.01130573-.4021861c.41395092 0 .68752292.1680276.89449838.4529662v-.4529662h.55329796zm-1.40667362-1.6986248c.24968336 0 .45217942-.0703443.60749427-.211035.15531484-.1406907.2329711-.346896.2329711-.6186221 0-.2565537-.08060523-.4655176-.24181811-.6268981s-.36862389-.2420695-.62223927-.2420695c-.24378533 0-.44382392.0724132-.60012177.2172419-.15629785.1448286-.23444561.3517236-.23444561.6206911 0 .1889669.03637066.3475864.10911305.4758632.0727424.1282768.17595641.224483.30964514.2886214s.28015433.0962071.4394012.0962071zm4.57563236-2.1161055-.21453287.4331363c-.15455671-.067841-.30565094-.1017609-.4532872-.1017609-.23298848 0-.4094573.0787117-.52941176.2361375-.11995447.1574258-.1799308.3779056-.1799308.661446v1.4533549h-.62283737v-2.8310413h.56747405v.4801029h.01384083c.19838623-.3200702.4578992-.4801029.77854671-.4801029.21222713 0 .42560447.0495753.64013841.1487275zm2.7177997 1.6825226c-.0684834.3451677-.2250146.5980886-.4695982.7587701s-.5214482.2410211-.8306019.2410211c-.4519905 0-.8012507-.1287984-1.047791-.3863989s-.3698086-.5989374-.3698086-1.0240208c0-.351969.0709282-.6337951.2127867-.8454866.1418585-.2116916.3194236-.3604685.5327005-.4463354.2132769-.0858668.4373122-.1287996.6721124-.1287996.3208938 0 .5953125.0722631.8232644.2167914.227952.1445284.3683409.3570669.4211709.637622l-.510688.0688631c-.0528301-.1819357-.1384331-.3188105-.2568116-.4106285-.1183784-.091818-.2695289-.1377263-.4534558-.1377263-.295457 0-.5194922.0909665-.6721124.2729022s-.2289291.4361317-.2289291.7625958c0 .3332653.0748414.5904369.2245266.7715225.1496852.1810855.3654047.2716269.6471651.2716269.2269736 0 .4055169-.0565352.5356354-.1696074s.2118082-.2826779.2450716-.5088223z"/><path d="m8.22143698 8.88869258c-.24290135.07420532-.48300714.11130742-.72032456.11130742-.61423332 0-1.01208303-.32979647-1.19356105-.98939929-.10888682.01923841-.20102043.02885748-.27640361.02885748-.65890484 0-1.16214982-.25765349-1.50975004-.7729682s-.52139772-1.26354044-.52139772-2.24469965c0-.9811592.17309952-1.73007201.51930376-2.24676089.34620423-.51668888.85014719-.77502945 1.511844-.77502945.6616968 0 1.16633774.25765349 1.51393796.7729682s.52139772 1.26491459.52139772 2.24882214c0 1.42913946-.3629506 2.35806617-1.08886271 2.78680801.10330288.40125839.30013378.60188457.59049863.60188457.16193424 0 .33922165-.02061228.53186755-.06183745zm-2.17948166-1.46091037c-.4204968 0-.73930005-.20680987-.95641931-.62043581-.21711927-.41362594-.32567727-1.01481741-.32567727-1.80359246 0-.78053001.10924508-1.38034734.32773851-1.79946996.21849344-.41912263.53660961-.62868081.95435807-.62868081.85748368 0 1.28621908.8093755 1.28621908 2.42815077 0 1.61602693-.4287354 2.42402827-1.28621908 2.42402827zm4.73219458.51081395c-.2198676.04397352-.4053781.06595996-.5565371.06595996-.3243047 0-.56065884-.05702731-.70906947-.17108363-.14841064-.11405632-.23910467-.25902935-.27208481-.43492344s-.04946996-.42049313-.04946996-.73380448v-2.5188457h-.54004712v-.57302709h.54004712v-1.08833922l.74204947-.44935218v1.5376914h.74204947v.57302709h-.74204947v2.56007067c0 .21986761.0226735.37583386.0680212.46790342.04534767.09206956.16008937.13810365.34422847.13810365.1071855 0 .2171176-.01099321.3297998-.03297998z"/></g></g></svg>