<?xml version="1.0" encoding="UTF-8"?>
<svg id="svg12" width="32" height="32" version="1" xmlns="http://www.w3.org/2000/svg" xmlns:cc="http://creativecommons.org/ns#" xmlns:dc="http://purl.org/dc/elements/1.1/" xmlns:rdf="http://www.w3.org/1999/02/22-rdf-syntax-ns#">
 <metadata id="metadata18">
  <rdf:RDF>
   <cc:Work rdf:about="">
    <dc:format>image/svg+xml</dc:format>
    <dc:type rdf:resource="http://purl.org/dc/dcmitype/StillImage"/>
    <dc:title/>
   </cc:Work>
  </rdf:RDF>
 </metadata>
 <rect id="rect2" x="2" y="3" width="28" height="28" rx="14" ry="14" fill="#555" stroke-width=".7"/>
 <path id="path10" d="m11.511 22.547c-0.36414-0.049-1.0119-0.25984-1.444-0.46781-2.8151-1.3489-3.9664-4.7463-2.5798-7.608 1.584-3.272 5.9062-4.1061 8.507-1.6416 0.7521 0.71155 1.0861 1.3187 2.2185 4.0109 1.1821 2.8154 1.4006 3.2581 1.7836 3.6334 0.41036 0.39921 0.79062 0.53368 1.5182 0.53368 1.1954 0 2.049-0.73885 2.049-1.7698 0-0.87262-0.30672-1.1521-1.8711-1.7074-2.3824-0.85932-3.1541-1.636-3.1569-3.1957 0-0.83202 0.21078-1.3867 0.7465-1.9617 0.76891-0.82075 2.0952-1.0918 3.2689-0.68425 0.5007 0.17794 1.5483 1.1052 1.5483 1.3706 0 0.12887-0.60714 0.52248-0.94398 0.61565-0.17787 0.0462-0.33123-0.014-0.53642-0.21084-0.41597-0.39921-0.69748-0.52248-1.1954-0.52248-0.85924 0-1.3922 0.51688-1.3922 1.3517 0 0.83202 0.33894 1.1136 2.0322 1.685 2.3333 0.78792 3.0224 1.4995 3.0364 3.146 0.01401 1.4224-0.62675 2.4484-1.9013 3.0556-0.57983 0.27384-0.77661 0.30891-1.7234 0.30891-1.3515 0-1.9587-0.25144-2.7164-1.1052-0.5091-0.57428-1.0259-1.6521-2.6807-5.5867-0.68627-1.6304-1.5672-2.4296-3.0364-2.744-0.7444-0.15897-1.7808-0.0112-2.4566 0.34461-0.65896 0.34454-1.395 1.122-1.7423 1.8328-0.28711 0.57708-0.31443 0.73885-0.31443 1.7424 0 0.95739 0.038513 1.1843 0.27871 1.7095 0.36415 0.80192 1.0805 1.5429 1.8683 1.9421 0.56933 0.28714 0.7465 0.32291 1.6548 0.32291 0.87255 0 1.0966-0.0413 1.6169-0.28994 0.59384-0.29001 1.3922-1.0016 1.7178-1.5345l0.16947-0.27664 0.33403 0.76335c0.18627 0.42161 0.33613 0.81802 0.33613 0.88942 0 0.21084-0.7549 0.89999-1.4468 1.3293-1.0504 0.64855-2.257 0.89152-3.5455 0.71645" fill="#fff" stroke-width=".7"/>
</svg>
