<?xml version="1.0" encoding="UTF-8"?>
<!-- Created with Inkscape (http://www.inkscape.org/) -->
<svg id="svg7384" width="32" height="32" enable-background="new" version="1.1" xmlns="http://www.w3.org/2000/svg" xmlns:cc="http://creativecommons.org/ns#" xmlns:dc="http://purl.org/dc/elements/1.1/" xmlns:rdf="http://www.w3.org/1999/02/22-rdf-syntax-ns#">
 <metadata id="metadata90">
  <rdf:RDF>
   <cc:Work rdf:about="">
    <dc:format>image/svg+xml</dc:format>
    <dc:type rdf:resource="http://purl.org/dc/dcmitype/StillImage"/>
    <dc:title>Paper Symbolic Icon Theme</dc:title>
   </cc:Work>
  </rdf:RDF>
 </metadata>
 <title id="title8473">Paper Symbolic Icon Theme</title>
 <defs id="defs7386">
  <filter id="filter7554" color-interpolation-filters="sRGB">
   <feBlend id="feBlend7556" in2="BackgroundImage" mode="darken"/>
  </filter>
 </defs>
 <g id="layer12" transform="translate(-265 -165)">
  <path id="path4743" d="m270.5 167a3.5 3.5 0 0 0-3.5 3.5 3.5 3.5 0 0 0 1.0254 2.4746l8.0254 8.0254-8.0254 8.0254a3.5 3.5 0 0 0-1.0254 2.4746 3.5 3.5 0 0 0 3.5 3.5 3.5 3.5 0 0 0 2.4746-1.0254l8.0254-8.0254 7.9912 7.9912a3.5 3.5 0 0 0 2.5088 1.0596 3.5 3.5 0 0 0 3.5-3.5 3.5 3.5 0 0 0-1.0254-2.4746l-8.0254-8.0254 7.9912-7.9912a3.5 3.5 0 0 0 1.0596-2.5088 3.5 3.5 0 0 0-3.5-3.5 3.5 3.5 0 0 0-2.4746 1.0254l-8.0254 8.0254-7.9912-7.9912a3.5 3.5 0 0 0-0.035-0.035 3.5 3.5 0 0 0-2.4745-1.0246z" enable-background="new" fill="#555"/>
 </g>
</svg>
