<?xml version="1.0" encoding="UTF-8"?>
<svg id="svg12" width="32" height="32" version="1" xmlns="http://www.w3.org/2000/svg" xmlns:cc="http://creativecommons.org/ns#" xmlns:dc="http://purl.org/dc/elements/1.1/" xmlns:rdf="http://www.w3.org/1999/02/22-rdf-syntax-ns#">
 <metadata id="metadata18">
  <rdf:RDF>
   <cc:Work rdf:about="">
    <dc:format>image/svg+xml</dc:format>
    <dc:type rdf:resource="http://purl.org/dc/dcmitype/StillImage"/>
    <dc:title/>
   </cc:Work>
  </rdf:RDF>
 </metadata>
 <path id="path10" d="m9.5873 23.924c-0.5202-0.07-1.4456-0.3712-2.0628-0.6683-4.0215-1.927-5.6662-6.7804-3.6854-10.868 2.2629-4.6743 8.4372-5.8659 12.153-2.3451 1.0744 1.0165 1.5516 1.8839 3.1692 5.7298 1.6886 4.022 2.0008 4.6544 2.548 5.1906 0.58622 0.5703 1.1294 0.7624 2.1688 0.7624 1.7077 0 2.9271-1.0555 2.9271-2.5283 0-1.2466-0.43817-1.6458-2.673-2.4392-3.4033-1.2276-4.5057-2.3371-4.5097-4.5653 0-1.1886 0.30112-1.981 1.0664-2.8024 1.0984-1.1725 2.9931-1.5597 4.6698-0.9775 0.71527 0.2542 2.2118 1.5788 2.2118 1.958 0 0.1841-0.86733 0.7464-1.3485 0.8795-0.2541 0.066-0.47318-0.02-0.76629-0.3012-0.59422-0.5703-0.99638-0.7464-1.7076-0.7464-1.2275 0-1.9888 0.7384-1.9888 1.931 0 1.1886 0.48418 1.5908 2.9031 2.4072 3.3333 1.1256 4.3176 2.1421 4.3377 4.4943 0.02001 2.032-0.89534 3.4977-2.716 4.3651-0.82832 0.3912-1.1094 0.4413-2.4619 0.4413-1.9307 0-2.7981-0.3592-3.8805-1.5788-0.72728-0.8204-1.4656-2.3602-3.8295-7.981-0.98037-2.3292-2.2389-3.4708-4.3377-3.92-1.0634-0.2271-2.544-0.016-3.5093 0.4923-0.94136 0.4922-1.9928 1.6028-2.4889 2.6183-0.41016 0.8244-0.44917 1.0555-0.44917 2.4892 0 1.3677 0.055016 1.6919 0.39815 2.4422 0.5202 1.1456 1.5436 2.2041 2.669 2.7744 0.81331 0.4102 1.0664 0.4613 2.3639 0.4613 1.2465 0 1.5666-0.059 2.3099-0.4142 0.84832-0.4143 1.9888-1.4308 2.4539-2.1921l0.24209-0.3952 0.47718 1.0905c0.2661 0.6023 0.48018 1.1686 0.48018 1.2706 0 0.3012-1.0784 1.2857-2.0668 1.899-1.5006 0.9265-3.2242 1.2736-5.0649 1.0235" fill="#555" stroke-width=".99999"/>
</svg>
