<?xml version="1.0" encoding="UTF-8"?>
<svg id="svg12" width="32" height="32" version="1" xmlns="http://www.w3.org/2000/svg" xmlns:cc="http://creativecommons.org/ns#" xmlns:dc="http://purl.org/dc/elements/1.1/" xmlns:rdf="http://www.w3.org/1999/02/22-rdf-syntax-ns#">
 <metadata id="metadata18">
  <rdf:RDF>
   <cc:Work rdf:about="">
    <dc:format>image/svg+xml</dc:format>
    <dc:type rdf:resource="http://purl.org/dc/dcmitype/StillImage"/>
    <dc:title/>
   </cc:Work>
  </rdf:RDF>
 </metadata>
 <rect id="rect2" transform="matrix(0,-1,-1,0,0,0)" x="-31" y="-30" width="28" height="28" rx="14" ry="14" fill="#444" stroke-width=".70004"/>
 <path id="path10" d="m16 6.5a10.5 10.5 0 0 0-10.5 10.5 10.5 10.5 0 0 0 10.5 10.5 10.5 10.5 0 0 0 10.5-10.5 10.5 10.5 0 0 0-10.5-10.5zm0 2.1c1.1634 0 2.1 0.9366 2.1 2.1v9.8c0 1.1634-0.9366 2.1-2.1 2.1s-2.1-0.9366-2.1-2.1v-9.8c0-1.1634 0.9366-2.1 2.1-2.1zm-6.3 5.6c1.1634 0 2.1 0.9366 2.1 2.1v4.2c0 1.1634-0.9366 2.1-2.1 2.1s-2.1-0.9366-2.1-2.1v-4.2c0-1.1634 0.9366-2.1 2.1-2.1zm12.6 0c1.1634 0 2.1 0.9366 2.1 2.1v4.2c0 1.1634-0.9366 2.1-2.1 2.1s-2.1-0.9366-2.1-2.1v-4.2c0-1.1634 0.9366-2.1 2.1-2.1z" fill="#fff" stroke-width=".7"/>
</svg>
