<?xml version="1.0" encoding="UTF-8"?>
<!-- Created with Inkscape (http://www.inkscape.org/) -->
<svg id="svg7384" width="32" height="32" enable-background="new" version="1.1" xmlns="http://www.w3.org/2000/svg" xmlns:cc="http://creativecommons.org/ns#" xmlns:dc="http://purl.org/dc/elements/1.1/" xmlns:rdf="http://www.w3.org/1999/02/22-rdf-syntax-ns#">
 <metadata id="metadata90">
  <rdf:RDF>
   <cc:Work rdf:about="">
    <dc:format>image/svg+xml</dc:format>
    <dc:type rdf:resource="http://purl.org/dc/dcmitype/StillImage"/>
    <dc:title>Paper Symbolic Icon Theme</dc:title>
   </cc:Work>
  </rdf:RDF>
 </metadata>
 <title id="title8473">Paper Symbolic Icon Theme</title>
 <g id="layer12" transform="matrix(1.8739 0 0 1.8572 -907.71 -184.91)" fill="#555">
  <path id="path10500" d="m491.19 101.72-0.1543 1.8438c-0.58462 0.21656-1.1282 0.53093-1.6074 0.92969l-1.6758-0.78906-1.75 3.0312 1.5215 1.0566c-0.0542 0.30631-0.0823 0.61667-0.084 0.92773 2.1e-4 0.31226 0.027 0.62393 0.0801 0.93164l-1.5176 1.0527 1.75 3.0312 1.6719-0.7871c0.48084 0.39706 1.0257 0.70945 1.6113 0.92382l0.1543 1.8477h3.5l0.1543-1.8438c0.58462-0.21656 1.1282-0.53093 1.6074-0.92969l1.6758 0.78906 1.75-3.0312-1.5215-1.0566c0.0542-0.30631 0.0823-0.61667 0.084-0.92773-2.1e-4 -0.31226-0.027-0.62393-0.0801-0.93164l1.5176-1.0527-1.75-3.0312-1.6719 0.7871c-0.48084-0.39706-1.0257-0.70945-1.6113-0.92382l-0.1543-1.8477z" enable-background="new" fill="#555"/>
 </g>
 <path id="path5938" d="m16 10.5c0.48719 0 0.88214 0.38802 0.88214 0.86667-2.55e-4 0.02886-0.0018 0.05764-0.0052 0.08632 2.0204 0.39765 3.5339 2.1417 3.5337 4.247l-1.23e-4 1.7333v2.1667l1.7643 1.7333v0.43333h-12.35v-0.43333l1.7643-1.7333 1.24e-4 -3.9c7.1e-5 -2.1053 1.5135-3.8494 3.5337-4.247-0.0036-0.02868-0.0052-0.05746-0.0052-0.08632 0-0.47864 0.39495-0.86667 0.88214-0.86667zm1.5247 12.133c-0.3146 0.53535-0.8956 0.86558-1.5248 0.86667-0.62982-4.86e-4 -1.2116-0.3308-1.5265-0.86667z" enable-background="new" fill="#fff"/>
</svg>
