<?xml version="1.0" encoding="UTF-8"?>
<svg id="svg7" width="32" height="32" version="1.1" viewBox="0 0 32 32" xmlns="http://www.w3.org/2000/svg" xmlns:cc="http://creativecommons.org/ns#" xmlns:dc="http://purl.org/dc/elements/1.1/" xmlns:rdf="http://www.w3.org/1999/02/22-rdf-syntax-ns#">
 <metadata id="metadata11">
  <rdf:RDF>
   <cc:Work rdf:about="">
    <dc:format>image/svg+xml</dc:format>
    <dc:type rdf:resource="http://purl.org/dc/dcmitype/StillImage"/>
    <dc:title/>
   </cc:Work>
  </rdf:RDF>
 </metadata>
 <defs id="defs3">
  <style id="current-color-scheme" type="text/css">.ColorScheme-Text { color:#5c616c; } .ColorScheme-Highlight { color:#5294e2; } .ColorScheme-ButtonBackground { color:#d3dae3; }</style>
 </defs>
 <path id="path5" class="ColorScheme-Text" d="m3 4v4.0499c12.122 0 21.951 9.819 21.951 21.939h4.0486c0-14.355-11.642-25.987-26-25.989zm0 8.0962v4.0536c7.6477 0 13.847 6.1954 13.847 13.839h4.0522c0-9.8792-8.0149-17.893-17.899-17.893zm3.8817 10.137c-2.1446 0-3.8817 1.7386-3.8817 3.8831 0 2.1402 1.737 3.8831 3.8817 3.8831 2.1446 0 3.8853-1.7429 3.8853-3.8831 0-2.1447-1.7407-3.8831-3.8853-3.8831z" color="#5c616c" fill="#555" stroke-width="1.8569"/>
</svg>
