<svg enable-background="new" height="32" width="32" xmlns="http://www.w3.org/2000/svg"><g stroke-width="3.545621" transform="matrix(.5 0 0 .5 0 -.25)"><path d="m10.6 4.4999999v3.9285715h-9.6v3.9285716 43.214286c0 2.176428 1.4272 3.928571 3.2 3.928571h25.6c1.7728 0 3.2-1.752143 3.2-3.928571v-43.214286-3.9285716h-9.6v-3.9285715z" fill="#f9ce1d"/><path d="m1 24.142857v31.428572c0 2.176428 1.4272 3.928571 3.2 3.928571h25.6c1.7728 0 3.2-1.752143 3.2-3.928571v-31.428572z" fill="#263238"/></g><rect fill="#fff" height="27.000082" ry=".948999" stroke="#000" stroke-width=".499918" width="13.000081" x="18.24996" y="2.249962"/><path d="m8.5 7.5v6.1875h5l-5 10.3125v-6.1875h-5z" fill="#fafafa" stroke-width="1.85405"/></svg>