<svg enable-background="new" height="32" width="32" xmlns="http://www.w3.org/2000/svg"><g fill="#1a1a1a" transform="matrix(.5 0 0 .5 0 -.000134)"><rect height="30" rx="2" ry="1.363636" stroke-width=".825723" transform="matrix(0 -1 -1 0 0 0)" width="4" x="-55" y="-47"/><rect height="40" rx="2.727273" ry="2.857143" width="54.545452" x="4.727274" y="9"/><rect height="6" rx=".5" ry=".428571" width="10" x="27" y="46"/></g><path d="m4.409092 6.642725h23.181818v15.714287h-23.181818z" fill="#fafafa" stroke-width=".697863"/><path d="m5 7.5h17.5v1.5h-17.5z" fill="#263238"/><g fill="#b71c1c"><path d="m5 9.5h10v1.5h-10z"/><path d="m5 11.711935h10v1.5h-10z"/><path d="m5.0000005 14h10v1.5h-10z"/></g><g transform="rotate(90)"><path d="m9.5-26.5h12.5v1.5h-12.5z" fill="#01579b"/><path d="m14.5-24.5h7.5v1.5h-7.5z" fill="#0277bd"/><path d="m12-22.288065h10v1.5h-10z" fill="#01579b"/><path d="m17-20h5v1.5h-5z" fill="#0277bd"/></g><circle cx="5.5" cy="17.5" fill="#263238" r=".278836" stroke="#263238" stroke-linecap="round" stroke-linejoin="round" stroke-width=".442329"/><circle cx="5.5" cy="19" fill="#263238" r=".278836" stroke="#263238" stroke-linecap="round" stroke-linejoin="round" stroke-width=".442329"/><circle cx="5.5" cy="20.5" fill="#263238" r=".278836" stroke="#263238" stroke-linecap="round" stroke-linejoin="round" stroke-width=".442329"/><path d="m6.5 17h7.5v1h-7.5z" fill="#b71c1c"/><path d="m6.5 18.5h7.5v1h-7.5z" fill="#b71c1c"/><path d="m6.5 20h7.5v1h-7.5z" fill="#b71c1c"/></svg>