<svg height="32" width="32" xmlns="http://www.w3.org/2000/svg"><rect height="14" opacity=".2" rx="2.1" width="28" x="2" y="17"/><rect fill="#8e8e8e" height="3" ry="1.5" transform="rotate(90)" width="17" x="2" y="-9"/><rect fill="#5b5b5b" height="14" rx="2.1" width="28" x="2" y="16"/><circle cx="24" cy="24" opacity=".2" r="3"/><circle cx="24" cy="23" fill="#c0f957" r="3"/><circle cx="16" cy="24" opacity=".2" r="3"/><circle cx="16" cy="23" fill="#91af5b" r="3"/><g fill="#fff"><path d="m7.5 2c-.831 0-1.5.669-1.5 1.5v1c0-.831.669-1.5 1.5-1.5s1.5.669 1.5 1.5v-1c0-.831-.669-1.5-1.5-1.5z" opacity=".1"/><path d="m4.0996094 16c-1.1634 0-2.0996094.936209-2.0996094 2.099609v1c0-1.1634.9362094-2.099609 2.0996094-2.099609h23.8007816c1.1634 0 2.099609.936209 2.099609 2.099609v-1c0-1.1634-.936209-2.099609-2.099609-2.099609z" opacity=".1"/></g></svg>