<svg height="32" width="32" xmlns="http://www.w3.org/2000/svg"><rect fill="#d53068" height="28" rx="14" transform="matrix(0 -1 -1 0 0 0)" width="28" x="-30" y="-30"/><path d="m636 528c-1.6568 0-3 1.3432-3 3 0 .23127.0442.44001.0937.65625l-3.2188 2c-.51-.42-1.16-.66-1.87-.66-1.6568 0-3 1.3432-3 3s1.3432 3 3 3c.70904 0 1.3615-.24498 1.875-.65625l3.2188 2c-.06.22-.1.43-.1.66 0 1.6568 1.3432 3 3 3s3-1.3432 3-3-1.3432-3-3-3c-.70904 0-1.3615.24498-1.875.65625l-3.2188-2c.0495-.21624.0937-.42498.0937-.65625s-.0442-.44001-.0937-.65625l3.2188-2c.52.41 1.17.65 1.88.65 1.6568 0 3-1.3432 3-3s-1.3432-3-3-3z" opacity=".2" transform="translate(-617 -519)"/><path d="m636 528c-1.6568 0-3 1.3432-3 3 0 .23127.0442.44001.0937.65625l-3.2188 2c-.51341-.41127-1.1659-.65625-1.875-.65625-1.6568 0-3 1.3432-3 3s1.3432 3 3 3c.70904 0 1.3615-.24498 1.875-.65625l3.2188 2c-.0495.21624-.0937.42498-.0937.65625 0 1.6568 1.3432 3 3 3s3-1.3432 3-3-1.3432-3-3-3c-.70904 0-1.3615.24498-1.875.65625l-3.2188-2c.0495-.21624.0937-.42498.0937-.65625s-.0442-.44001-.0937-.65625l3.2188-2c.51341.41127 1.1659.65625 1.875.65625 1.6568 0 3-1.3432 3-3s-1.3432-3-3-3z" fill="#fff" transform="translate(-617 -520)"/><path d="m16 2c-7.756 0-14 6.244-14 14 0 .16884.01952.33264.02539.5.2641-7.5206 6.3878-13.5 13.975-13.5s13.711 5.9794 13.975 13.5c.006-.16736.0254-.33116.0254-.5 0-7.756-6.244-14-14-14z" fill="#fff" opacity=".1"/><path d="m2.0254 16.5c-.0059.167-.0254.331-.0254.5 0 7.756 6.244 14 14 14s14-6.244 14-14c0-.16884-.01952-.33264-.02539-.5-.264 7.521-6.388 13.5-13.975 13.5-7.5872 0-13.711-5.979-13.975-13.5z" opacity=".2"/></svg>