<svg height="32" width="32" xmlns="http://www.w3.org/2000/svg"><path d="m9 6c-1.2704926.001045-2.40259.8021975-2.8261719 2h-2.1738281c-1.6567856.0001657-2.9998343 1.3432144-3 3v10c.0001657 1.656786 1.3432144 2.999834 3 3h2.1757812c.4233423 1.197128 1.5544432 1.998129 2.8242188 2h2c.000166 1.656786 1.343214 2.999834 3 3h3c1.656786-.000166 2.999834-1.343214 3-3h2c1.270493-.001 2.40259-.802197 2.826172-2h2.173828c1.656786-.000166 2.999834-1.343214 3-3v-10c-.000166-1.6567856-1.343214-2.9998343-3-3h-2.175781c-.423342-1.1971278-1.554443-1.9981288-2.824219-2h-3c-1.656786.0001657-2.999834 1.3432144-3 3h-1c-.000166-1.6567856-1.343214-2.9998343-3-3z" opacity=".2" stroke-linecap="round" stroke-linejoin="round" stroke-width="6"/><path d="m9 5c-1.2704926.001045-2.40259.8021975-2.8261719 2h-2.1738281c-1.6567856.0001657-2.9998343 1.3432144-3 3v10c.0001657 1.656786 1.3432144 2.999834 3 3h2.1757812c.4233423 1.197128 1.5544432 1.998129 2.8242188 2h2c.000166 1.656786 1.343214 2.999834 3 3h3c1.656786-.000166 2.999834-1.343214 3-3h2c1.270493-.001 2.40259-.802197 2.826172-2h2.173828c1.656786-.000166 2.999834-1.343214 3-3v-10c-.000166-1.6567856-1.343214-2.9998343-3-3h-2.175781c-.423342-1.1971278-1.554443-1.9981288-2.824219-2h-3c-1.656786.0001657-2.999834 1.3432144-3 3h-1c-.000166-1.6567856-1.343214-2.9998343-3-3z" fill="#f85b79" stroke-linecap="round" stroke-linejoin="round" stroke-width="6"/><g fill="#0c0c0c" opacity=".2" transform="translate(0 1)"><path d="m4 10v2h3c0-.666674 0-1.333326 0-2-1 0-1.9999995 0-3 0z"/><path d="m4 14v2h3c0-.666674 0-1.333326 0-2-1 0-1.9999995 0-3 0z"/><path d="m4 18v2h3c0-.666674 0-1.333326 0-2-1 0-1.9999995 0-3 0z"/><path d="m9 8v2h3c0-.666674 0-1.333326 0-2-1 0-1.999999 0-3 0z"/><path d="m9 12v2h3c0-.666674 0-1.333326 0-2-1 0-1.999999 0-3 0z"/><path d="m9 16v2h3c0-.666674 0-1.333326 0-2-1 0-1.999999 0-3 0z"/><path d="m9 20v2h3c0-.666674 0-1.333326 0-2-1 0-1.999999 0-3 0z"/><path d="m14 11v2h3c0-.666674 0-1.333326 0-2-1 0-1.999999 0-3 0z"/><path d="m14 15v2h3c0-.666674 0-1.333326 0-2-1 0-1.999999 0-3 0z"/><path d="m14 19v2h3c0-.666674 0-1.333326 0-2-1 0-1.999999 0-3 0z"/><path d="m14 23v2h3c0-.666674 0-1.333326 0-2-1 0-1.999999 0-3 0z"/><path d="m27 10v2c-1 0-2 0-3 0 0-.666674 0-1.333326 0-2z"/><path d="m27 14v2c-1 0-2 0-3 0 0-.666674 0-1.333326 0-2z"/><path d="m27 18v2c-1 0-2 0-3 0 0-.666674 0-1.333326 0-2z"/><path d="m22 8v2c-1.000001 0-2 0-3 0 0-.666674 0-1.333326 0-2z"/><path d="m22 12v2c-1.000001 0-2 0-3 0 0-.666674 0-1.333326 0-2z"/><path d="m22 16v2c-1.000001 0-2 0-3 0 0-.666674 0-1.333326 0-2z"/><path d="m22 20v2c-1.000001 0-2 0-3 0 0-.666674 0-1.333326 0-2z"/></g><g fill="#fff"><path d="m9 8v2h3v-2zm10 0v2h3v-2zm-15 2v2h3v-2zm20 0v2h3v-2zm-10 1v2h3v-2zm-5 1v2h3v-2zm10 0v2h3v-2zm-15 2v2h3v-2zm20 0v2h3v-2zm-10 1v2h3v-2zm-5 1v2h3v-2zm10 0v2h3v-2zm-15 2v2h3v-2zm20 0v2h3v-2zm-10 1v2h3v-2zm-5 1v2h3v-2zm10 0v2h3v-2zm-5 3v2h3v-2z"/><path d="m9 5c-1.2704926.001045-2.40259.8021975-2.8261719 2h-2.1738281c-1.6567856.0001657-2.9998343 1.3432144-3 3v1c.0001657-1.6567856 1.3432144-2.9998343 3-3h2.1738281c.4235819-1.1978025 1.5556793-1.998955 2.8261719-2h3c1.656786.0001657 2.999834 1.3432144 3 3h1c.000166-1.6567856 1.343214-2.9998343 3-3h3c1.269776.0018712 2.400877.8028722 2.824219 2h2.175781c1.656786.0001657 2.999834 1.3432144 3 3v-1c-.000166-1.6567856-1.343214-2.9998343-3-3h-2.175781c-.423342-1.1971278-1.554443-1.9981288-2.824219-2h-3c-1.656786.0001657-2.999834 1.3432144-3 3h-1c-.000166-1.6567856-1.343214-2.9998343-3-3z" opacity=".2" stroke-linecap="round" stroke-linejoin="round" stroke-width="6"/></g></svg>