<svg height="32" width="32" xmlns="http://www.w3.org/2000/svg"><path d="m16 2c-7.756 0-14 6.244-14 14h14z" fill="#e7a73c"/><path d="m16 2c7.756 0 14 6.244 14 14h-14z" fill="#e74c3c"/><path d="m16 30c7.756 0 14-6.244 14-14h-14z" fill="#5dc15c"/><path d="m16 30c-7.756 0-14-6.244-14-14h14z" fill="#3c88e7"/><path d="m16 2c-7.756 0-14 6.244-14 14 0 .169.0254.333.0312.5.2636-7.5207 6.3815-13.5 13.969-13.5 7.5872 0 13.705 5.9793 13.969 13.5.006-.16727.0312-.33125.0312-.5 0-7.756-6.244-14-14-14z" fill="#fff" opacity=".2"/><path d="m2.0254 16.5c-.0059.167-.0254.331-.0254.5 0 7.756 6.244 14 14 14s14-6.244 14-14c0-.16884-.01952-.33264-.02539-.5-.264 7.521-6.388 13.5-13.975 13.5-7.5872 0-13.711-5.979-13.975-13.5z" opacity=".2"/><circle cx="16" cy="16" fill="#2e2e2e" r="7"/></svg>