<svg height="32" width="32" xmlns="http://www.w3.org/2000/svg"><path d="m6.1999566 6.9999999c-.7196457.2625462 1.7320275 4.8001921 1.1404106 5.1314211-1.030622.41111-2.3403672.868579-2.3403672.868579v7s4.562016.591816 8 1c.689187.08211-11 7-11 7 3.4642764.000874 38.714821-9.295625 24.734552-15.880022-2.401497-1.278358-5.926744-2.115152-9.855632-2.115152-1.974096 0-3.788256.232922-5.396183.597797-.773671.175564-4.6099285-3.8480749-5.2826936-3.6026231z" opacity=".2"/><path d="m6.1999566 6c-.7196457.2625462 1.7320275 4.800192 1.1404106 5.131421-1.030622.41111-2.3403672.868579-2.3403672.868579v7s4.562016.591816 8 1c.689187.08211-11 7-11 7 3.4642764.000874 38.714821-9.295625 24.734552-15.880022-2.401497-1.2783579-5.926744-2.1151519-9.855632-2.1151519-1.974096 0-3.788256.2329215-5.396183.5977972-.773671.1755635-4.6099285-3.8480751-5.2826936-3.6026233z" fill="#43c4c4"/><path d="m5 13v-1h-3v9h3v-1c6.007005-1.011244 9.07058-2.278653 9-3.54331-.068943-1.235286-3.132516-2.467946-9-3.45669z" opacity=".2"/><path d="m5 12v-1h-3v9h3v-1c6.007005-1.011244 9.07058-2.278653 9-3.54331-.068943-1.235286-3.132516-2.467946-9-3.45669z" fill="#a9dde4"/><path d="m23.041016 10.75c-.01979.159284-.04028.324571-.04102.449219.0015 2.290138 3.041544 3.588379 6.927734 3.794922-.257052-.988976-1.24784-1.958704-3.193359-2.875-.271857-.144715-.561714-.281239-.861328-.414063-.212212-.09318-.434796-.180958-.660156-.267578-.07706-.03-.151942-.06064-.230469-.08984-.297216-.10912-.603177-.212945-.919918-.310551-.330845-.101951-.671762-.198214-1.021484-.287109z" opacity=".2"/><path d="m23.041016 9.75c-.01979.1592843-.040276.324571-.041016.449219.001491 2.290138 3.041544 3.588379 6.927734 3.794922-.257052-.988976-1.24784-1.958704-3.193359-2.875-.271857-.144715-.561714-.281239-.861328-.414063-.212212-.093184-.434796-.180958-.660156-.267578-.077059-.029996-.151942-.060636-.230469-.089844-.29722-.109116-.603181-.212941-.919922-.310547-.330845-.1019514-.671762-.1982143-1.021484-.287109z" fill="#a9dde4"/><g fill="#fff"><path d="m6.1992188 6c-.1952988.0712503-.1476147.4685617 0 1 .672765-.2454518 4.5095322 3.77908 5.2832032 3.603516 1.607927-.364875 3.422388-.59961 5.396484-.59961 3.928888 0 7.453972.836877 9.855469 2.115235 1.969911.927784 2.963431 1.910227 3.205078 2.912109.306193-1.346105-.583778-2.677535-3.205078-3.912109-2.401497-1.2783583-5.926581-2.1152348-9.855469-2.1152348-1.974096 0-3.788557.2347337-5.396484.5996094-.773671.1755635-4.6104382-3.8489674-5.2832032-3.6035156zm1.0859374 5.152344c-1.0183357.403292-2.2851562.847656-2.2851562.847656v1s1.3092217-.458031 2.3398438-.869141c.1543965-.086442.0949969-.46985-.0546876-.978515zm4.6601558 9.716797c-2.7207078 1.852143-9.945312 6.130859-9.945312 6.130859.3774908.000095 1.1853791-.128829 2.2128906-.333984 2.9114849-1.737695 9.3438374-5.599687 8.7871094-5.666016-.453198-.053807-.57545-.072447-1.054688-.130859z" opacity=".1"/><path d="m2 11v1h3v-1zm3 1v1c5.134048.865151 8.121191 1.917139 8.833984 2.994141.116017-.179092.176046-.357387.166016-.53711-.068943-1.235286-3.132516-2.468287-9-3.457031z" opacity=".1"/></g></svg>