<svg height="32" width="32" xmlns="http://www.w3.org/2000/svg"><path d="m31 16a15 15 0 0 1 -15 15 15 15 0 0 1 -15-15 15 15 0 0 1 15-15 15 15 0 0 1 15 15z" fill="#4f4f4f"/><path d="m15.9 7.0001c-.71691.0023-1.4353.07955-2.1381.2355-2.5299.56132-4.7185 2.11-6.2837 4.4465-.66474.9923-1.2673 2.371-1.2673 2.8997 0 .45207.52355.68568.87457.3902.08093-.06813.16259-.19495.18151-.28183.17799-.81751.80568-2.046 1.5333-3.0008.60698-.79655 1.7206-1.8024 2.5797-2.3299 2.6837-1.648 6.3481-1.6815 9.0488-.08264 1.6919 1.0016 3.0752 2.664 3.8863 4.6701.17614.43564.46515 1.3903.46515 1.5366 0 .04208-.25906-.17924-.5757-.49183-.68906-.68025-.75772-.72901-1.0268-.72901-.29749 0-.50486.19145-.53941.49811-.01395.12395-.006.25991.01761.30213.05031.08992 2.2379 2.3033 2.4115 2.4399.17502.13773.5011.12403.68257-.02874.24047-.20242.27303-.34794.23946-1.0701-.125-2.694-1.811-5.7479-4.135-7.4912-1.666-1.2502-3.804-1.9194-5.954-1.9128zm-9.8994 9.8646.02947.69624c.05023 1.187.3847 2.4079 1.0098 3.6861 1.2606 2.5778 3.3279 4.4419 5.837 5.2631.72704.23794 1.2599.34895 2.2267.46396.41589.04947 1.746.02431 2.2635-.04281 2.9389-.3812 5.5356-2.0781 7.2574-4.7425.55737-.8625 1.1017-2.1123 1.1695-2.6851.02648-.22388.01773-.24886-.145-.41164-.14579-.14584-.2069-.17308-.3863-.17216-.33444.0015-.41582.09886-.63579.75888-.75279 2.2587-2.5754 4.3295-4.7271 5.3709-1.7432.8437-3.7331 1.0791-5.7272.67732-2.2638-.4561-4.224-1.8335-5.5735-3.9163-.50808-.7842-1.0382-1.962-1.2353-2.7448-.0445-.175-.0929-.363-.108-.417-.015-.054.272.197.6378.558l.66519.6558.25103-.02411c.3422-.033.4923-.184.5254-.528l.0243-.254-1.2694-1.27-1.2693-1.27s-.2412-.16122-.53879-.02843c-.29759.13278-.28181.37598-.28181.37598z" opacity=".2"/><path d="m16 1a15 15 0 0 0 -15 15 15 15 0 0 0 .0195.586 15 15 0 0 1 14.98-14.586 15 15 0 0 1 14.98 14.414 15 15 0 0 0 .02-.414 15 15 0 0 0 -15-15z" fill="#fff" opacity=".1"/><path d="m30.98 16.414a15 15 0 0 1 -14.98 14.586 15 15 0 0 1 -14.98-14.414 15 15 0 0 0 -.02.414 15 15 0 0 0 15 15 15 15 0 0 0 15-15 15 15 0 0 0 -.02-.586z" opacity=".2"/><path d="m15.9 6.0001c-.71691.0023-1.4353.07955-2.1381.2355-2.5299.56132-4.7185 2.11-6.2837 4.4465-.66474.9923-1.2673 2.371-1.2673 2.8997 0 .45207.52355.68568.87457.3902.08093-.06813.16259-.19495.18151-.28183.17799-.81751.80568-2.046 1.5333-3.0008.60698-.79655 1.7206-1.8024 2.5797-2.3299 2.6837-1.648 6.3481-1.6815 9.0488-.08264 1.6919 1.0016 3.0752 2.664 3.8863 4.6701.17614.43564.46515 1.3903.46515 1.5366 0 .04208-.25906-.17924-.5757-.49183-.68906-.68025-.75772-.72901-1.0268-.72901-.29749 0-.50486.19145-.53941.49811-.01395.12395-.006.25991.01761.30213.05031.08992 2.2379 2.3033 2.4115 2.4399.17502.13773.5011.12403.68257-.02874.24047-.20242.27303-.34794.23946-1.0701-.125-2.694-1.811-5.7479-4.135-7.4912-1.666-1.2502-3.804-1.9194-5.954-1.9128zm-9.8994 9.8646.02947.69624c.05023 1.187.3847 2.4079 1.0098 3.6861 1.2606 2.5778 3.3279 4.4419 5.837 5.2631.72704.23794 1.2599.34895 2.2267.46396.41589.04947 1.746.02431 2.2635-.04281 2.9389-.3812 5.5356-2.0781 7.2574-4.7425.55737-.8625 1.1017-2.1123 1.1695-2.6851.02648-.22388.01773-.24886-.145-.41164-.14579-.14584-.2069-.17308-.3863-.17216-.33444.0015-.41582.09886-.63579.75888-.75279 2.2587-2.5754 4.3295-4.7271 5.3709-1.7432.8437-3.7331 1.0791-5.7272.67732-2.2638-.4561-4.224-1.8335-5.5735-3.9163-.50808-.7842-1.0382-1.962-1.2353-2.7448-.0445-.175-.0929-.363-.108-.417-.015-.054.272.197.6378.558l.66519.6558.25103-.02411c.3422-.033.4923-.184.5254-.528l.0243-.254-1.2694-1.27-1.2693-1.27s-.2412-.16122-.53879-.02843c-.29759.13278-.28181.37598-.28181.37598z" fill="#5cd1ff"/></svg>