<svg height="32" width="32" xmlns="http://www.w3.org/2000/svg"><path d="m15.854 2-.01172.00781c-7.6819.0852-13.842 6.2896-13.842 13.992 0 7.756 6.244 14 14 14 7.6386 0 13.797-6.0599 13.982-13.652 0 0 .0121-.23923.01758-.34766v-11c0-1.662-1.338-3-3-3h-11z" fill="#2298e2"/><circle cx="16" cy="17" opacity=".2" r="10"/><path d="m15.854 2-.01172.00781c-7.6819.0852-13.842 6.2896-13.842 13.992 0 .167.0197.329.0254.494.2649-7.4644 6.3051-13.403 13.817-13.486l.012-.008h11.146c1.662 0 3 1.338 3 3v-1c0-1.662-1.338-3-3-3h-11.146z" fill="#fff" opacity=".2"/><path d="m30 16-.018.348c-.185 7.592-6.343 13.652-13.982 13.652-7.5891 0-13.714-5.983-13.975-13.506-.0056.169-.025.335-.025.506 0 7.756 6.244 14 14 14 7.639 0 13.797-6.06 13.982-13.652l.018-.348z" opacity=".2"/><circle cx="16" cy="16" fill="#353535" r="10"/><g fill-rule="evenodd"><path d="m17.375 12.662c-.04796.56424-.42474.32474-.83268.63261-.11005-.01685-.23557-.01685-.40794-.01685-.03115-.37625.09458-.44462.15668-.51296.25126-.20534.42474-.10255.42474-.10255.18806-.03464.36021.01685.65919-.000271zm.9414-.92367h-.54892v-.15382h-.29789v.08522c-.03226.01685-.06342.05151-.09458.06837h-.03115c-.51934-.44462-.55024.46195-.89609.25661-.03115-.18825-.01548-.3594-.01548-.5816.59688-.01735.37678-.18824.20463-.41043-.06209-.0857-.09458-.22243-.11005-.30789-.14121-.56425-.72264-.90631-1.5695-.54717-.55024.22219-.40794 1.0262-.36131 1.5734-.03115.05104-.09458.03419-.14121.03419-.59688.0342-.86364.71782-.98936 1.2653.03115.49611-.03115 1.0433-.11005 1.5218-.0789.4788-.23557.85507-.25126 1.3167-.03115.41043.11005.88923.0789 1.2655-.33016 1.0604-.56597 1.7614-.7381 2.8902-.12552.25637-.56461.80355-.7381.92344-.04662.08522.03115.2737-.04662.39311-.14121.22219-.36131.34207-.48684.5816.03115.05104-.18894.10255-.17215.18824.01548.08522.12552.30741.17215.35892.01548.0342.17215-.05151.17215 0 .06342.20486.20464.63261.36131.73518.69146.08521.69146.08521.97367 0 .15668-.49611-.53347-.2737-.47138-.94075.94272-.20486 1.2404-.49588 1.6172-1.5731.17215-.7867.40794-1.556.76905-2.3085.06209-.05104.04663-.188.15668-.23952.42341.76935 1.1938 1.317 1.5695 2.1208.09458 1.043.28352 1.6073.61238 1.7955.0789.03419 0 .35892.06343.42728 0 .10255.03115.22219-.01548.34206-.03226.0857-.01547.18824-.01547.2737v.10255c.01547.15454.04663.15454.18784.2737.40794.29055.95822.7525 1.5071.41043.25126-.4451-.2822-1.0089-.65896-1.2997-.12552-.10255-.34562-.35892-.31469-.53009.20464-.22243.34562-1.1971.26673-1.9496-.03115-.17067-.06209-.34207-.12552-.4788-.18784-.3931-.61124-.94052-.97236-1.3336.04663-.05104.11005-.11988.18784-.15406 0-.37601-.14121-.49588-.32883-.76934-.158-.2737-.51797-.80355-.78605-.97468 0 0 0-.01735-.26673-.01735-.01548-.188.03226-.34206.0789-.54717 0-.15382.11005-.06813.14121-.41043.0789-.29055.04663-.11964.11005-.4102.06209-.13673.09458-.2737.09458-.49611.23447.0857.7056.06837.91022 0l.04663.0342c.06342.01735.07889-.08522.12552-.10231.36131-.20558.48684-.56448.78473-.59868 0 0 .158-.0857.39225 0 .09458 0 .17348.01685.17348-.0857.01548-.15382.01548-.27322.09458-.37625.06209.41043.23447.87238.54892 1.317l.31362-.23893c-.29789-.3931-.48552-.83771-.51797-1.351.01546.03419.03227.06836.06343.10255.11005 0 .17215-.25662.29789-.23953.01547-.03419.04796-.18824.07889-.30788h1.177l.423-.101v-.23952l-.31336-.03419v-.2737h-.07889v-.30788h-.18784v.29079l-.48684-.03419v-.18824h-.18784v.17091l-.50229-.05104v-.25661h-.18894v.23952l-.7381-.05104v-.08497h.000565z" opacity=".2"/><path d="m17.375 11.662c-.04796.56424-.42474.32474-.83268.63261-.11005-.01685-.23557-.01685-.40794-.01685-.03115-.37625.09458-.44462.15668-.51296.25126-.20534.42474-.10255.42474-.10255.18806-.03464.36021.01685.65919-.000271zm.9414-.92367h-.54892v-.15382h-.29789v.08522c-.03226.01685-.06342.05151-.09458.06837h-.03115c-.51934-.44462-.55024.46195-.89609.25661-.03115-.18825-.01548-.3594-.01548-.5816.59688-.01735.37678-.18824.20463-.41043-.06209-.0857-.09458-.22243-.11005-.30789-.141-.5635-.722-.9055-1.569-.5464-.55024.22219-.40794 1.0262-.36131 1.5734-.03115.05104-.09458.03419-.14121.03419-.59688.0342-.86364.71782-.98936 1.2653.03115.49611-.03115 1.0433-.11005 1.5218-.0789.4788-.23557.85507-.25126 1.3167-.03115.41043.11005.88923.0789 1.2655-.33016 1.0604-.56597 1.7614-.7381 2.8902-.12552.25637-.56461.80355-.7381.92344-.04662.08522.03115.2737-.04662.39311-.14121.22219-.36131.34207-.48684.5816.03115.05104-.18894.10255-.17215.18824.01548.08522.12552.30741.17215.35892.01548.0342.17215-.05151.17215 0 .06342.20486.20464.63261.36131.73518.69146.08521.69146.08521.97367 0 .15668-.49611-.53347-.2737-.47138-.94075.94272-.20486 1.2404-.49588 1.6172-1.5731.17215-.7867.40794-1.556.76905-2.3085.06209-.05104.04663-.188.15668-.23952.42341.76935 1.1938 1.317 1.5695 2.1208.09458 1.043.28352 1.6073.61238 1.7955.0789.03419 0 .35892.06343.42728 0 .10255.03115.22219-.01548.34206-.03226.0857-.01547.18824-.01547.2737v.10255c.01547.15454.04663.15454.18784.2737.40794.29055.95822.7525 1.5071.41043.25126-.4451-.2822-1.0089-.65896-1.2997-.12552-.10255-.34562-.35892-.31469-.53009.20464-.22243.34562-1.1971.26673-1.9496-.03115-.17067-.06209-.34207-.12552-.4788-.18784-.3931-.61124-.94052-.97236-1.3336.04663-.05104.11005-.11988.18784-.15406 0-.37601-.14121-.49588-.32883-.76934-.158-.2737-.51797-.80355-.78605-.97468 0 0 0-.01735-.26673-.01735-.01548-.188.03226-.34206.0789-.54717 0-.15382.11005-.06813.14121-.41043.0789-.29055.04663-.11964.11005-.4102.06209-.13673.09458-.2737.09458-.49611.23447.0857.7056.06837.91022 0l.04663.0342c.06342.01735.07889-.08522.12552-.10231.36131-.20558.48684-.56448.78473-.59868 0 0 .158-.0857.39225 0 .09458 0 .17348.01685.17348-.0857.01548-.15382.01548-.27322.09458-.37625.06209.41043.23447.87238.54892 1.317l.31362-.23893c-.29789-.3931-.48552-.83771-.51797-1.351.01546.03419.03227.06836.06343.10255.11005 0 .17215-.25662.29789-.23953.01547-.03419.04796-.18824.07889-.30788h1.177l.423-.102v-.23952l-.31336-.03419v-.2737h-.07889v-.30788h-.18784v.29079l-.48684-.03419v-.18824h-.18784v.17091l-.50229-.05104v-.25661h-.18894v.23952l-.7381-.05104v-.08497h.000565z" fill="#2298e2"/></g></svg>