<svg height="32" width="32" xmlns="http://www.w3.org/2000/svg"><rect fill="#4f4f4f" height="28" rx="14" stroke-opacity=".55" stroke-width="2.8" width="28" x="2" y="2"/><path d="m15.005 26c6.126-1.5778 15.345-7.7172 6.0306-16 4.1397 5.253 5.0255 7-4.0204 7 8.797 1.7673 1.0207 5.2924-3.0153 6z" opacity=".2"/><path d="m17.051 8.0054c-6.126 1.5778-15.346 7.7176-6.031 16-4.1397-5.253-5.0255-7 4.0204-7-8.797-1.7673-1.0207-5.2924 3.0153-6z" opacity=".2"/><path d="m15.005 24.995c6.126-1.5778 15.345-7.7172 6.0306-16 4.1397 5.253 5.0255 7-4.0204 7 8.797 1.7673 1.0207 5.2924-3.0153 6z" fill="#df574d"/><path d="m17.051 7c-6.126 1.5779-15.346 7.717-6.031 16-4.1395-5.253-5.0254-7 4.021-7-8.7975-1.767-1.021-5.292 3.015-6z" fill="#79de7d"/><g stroke-opacity=".55" stroke-width="2.8"><path d="m16 2c-7.756 0-14 6.244-14 14 0 .169.0195.333.0254.5.2637-7.5206 6.3874-13.5 13.975-13.5 7.587 0 13.711 5.9794 13.975 13.5.005-.167.025-.331.025-.5 0-7.756-6.244-14-14-14z" fill="#fff" opacity=".1"/><path d="m2.0254 16.5c-.0059.167-.0254.331-.0254.5 0 7.756 6.244 14 14 14s14-6.244 14-14c0-.16884-.01952-.33264-.02539-.5-.264 7.521-6.388 13.5-13.975 13.5-7.5872 0-13.711-5.979-13.975-13.5z" opacity=".2"/></g></svg>