<svg height="32" width="32" xmlns="http://www.w3.org/2000/svg"><path d="m16 3c-7.756 0-14 6.244-14 14s6.244 14 14 14 14-6.244 14-14-6.244-14-14-14z" opacity=".2"/><path d="m16 2c-7.756 0-14 6.244-14 14s6.244 14 14 14 14-6.244 14-14-6.244-14-14-14z" fill="#ccc"/><g fill="#404040"><path d="m16.369141 9c-1.849676 0-2.973819 2.069019-3.681641 3.908203l-.888672 2.701172-1.130859 3.621094c-.350994 1.018913-.598261 2.638744-1.667969 2.769531-.4679201.05721-.4477153-1-1-1s-1 .447715-1 1 .4477153 1 1 1h.6308594c2.1388996 0 3.3587316-2.690808 4.2753906-5.652344l.513672-1.671875.820312-2.638672c.423377-1.090748.599624-2.885289 1.759766-3.037109.467419-.061168.447715 1 1 1s1-.447715 1-1c0-.5522847-.447715-1-1-1z"/><path d="m9 14h8v1h-8z"/><g transform="translate(6)"><path d="m16.369141 9c-1.849676 0-2.973819 2.069019-3.681641 3.908203l-.888672 2.701172-1.130859 3.621094c-.350994 1.018913-.598261 2.638744-1.667969 2.769531-.4679201.05721-.4477153-1-1-1s-1 .447715-1 1 .4477153 1 1 1h.6308594c2.1388996 0 3.3587316-2.690808 4.2753906-5.652344l.513672-1.671875.820312-2.638672c.423377-1.090748.599624-2.885289 1.759766-3.037109.467419-.061168.447715 1 1 1s1-.447715 1-1c0-.5522847-.447715-1-1-1z"/><path d="m9 14h8v1h-8z"/></g></g><path d="m16 2c-7.756 0-14 6.244-14 14 0 .168842.0195214.33264.0253906.5.263742-7.5205675 6.3874512-13.5 13.9746094-13.5 7.587158 0 13.710867 5.9794325 13.974609 13.5.00587-.16736.025391-.331158.025391-.5 0-7.756-6.244-14-14-14z" fill="#fff" opacity=".2"/></svg>