<svg height="32" width="32" xmlns="http://www.w3.org/2000/svg"><rect height="22" opacity=".2" rx="1.4" ry="1.375" transform="scale(-1 1)" width="28" x="-30" y="6"/><rect fill="#ffc543" height="22" rx="1.4" ry="1.375" transform="scale(-1 1)" width="28" x="-30" y="5"/><circle cx="8" cy="20" opacity=".2" r="4"/><circle cx="8" cy="19" fill="#ff5100" r="4"/><path d="m4 7h24v5h-24z" fill="#4d4d4d"/><path d="m8-13h4v3h-4z" fill="#ff5100" transform="rotate(90)"/><path d="m18.5 14a1.5 1.5 0 0 0 -1.5 1.5 1.5 1.5 0 0 0 1.5 1.5 1.5 1.5 0 0 0 1.5-1.5 1.5 1.5 0 0 0 -1.5-1.5zm4 0a1.5 1.5 0 0 0 -1.5 1.5 1.5 1.5 0 0 0 1.5 1.5 1.5 1.5 0 0 0 1.5-1.5 1.5 1.5 0 0 0 -1.5-1.5zm4 0a1.5 1.5 0 0 0 -1.5 1.5 1.5 1.5 0 0 0 1.5 1.5 1.5 1.5 0 0 0 1.5-1.5 1.5 1.5 0 0 0 -1.5-1.5zm-8 4a1.5 1.5 0 0 0 -1.5 1.5 1.5 1.5 0 0 0 1.5 1.5 1.5 1.5 0 0 0 1.5-1.5 1.5 1.5 0 0 0 -1.5-1.5zm4 0a1.5 1.5 0 0 0 -1.5 1.5 1.5 1.5 0 0 0 1.5 1.5 1.5 1.5 0 0 0 1.5-1.5 1.5 1.5 0 0 0 -1.5-1.5zm4 0a1.5 1.5 0 0 0 -1.5 1.5 1.5 1.5 0 0 0 1.5 1.5 1.5 1.5 0 0 0 1.5-1.5 1.5 1.5 0 0 0 -1.5-1.5zm-8 4a1.5 1.5 0 0 0 -1.5 1.5 1.5 1.5 0 0 0 1.5 1.5 1.5 1.5 0 0 0 1.5-1.5 1.5 1.5 0 0 0 -1.5-1.5zm4 0a1.5 1.5 0 0 0 -1.5 1.5 1.5 1.5 0 0 0 1.5 1.5 1.5 1.5 0 0 0 1.5-1.5 1.5 1.5 0 0 0 -1.5-1.5zm4 0a1.5 1.5 0 0 0 -1.5 1.5 1.5 1.5 0 0 0 1.5 1.5 1.5 1.5 0 0 0 1.5-1.5 1.5 1.5 0 0 0 -1.5-1.5z" fill="#4d4d4d"/><path d="m3.4003906 5c-.7756 0-1.4003906.61325-1.4003906 1.375v1c0-.76175.6247906-1.375 1.4003906-1.375h25.1992184c.7756 0 1.400391.61325 1.400391 1.375v-1c0-.76175-.624791-1.375-1.400391-1.375z" fill="#fff" opacity=".2"/></svg>