<svg height="32" width="32" xmlns="http://www.w3.org/2000/svg"><path d="m19.691 3.5423c-.32-.1847-.726-.0758-.911.244l-.90625 1.5697a12 12 0 0 0 -13.266 5.644 12 12 0 0 0 4.392 16.392 12 12 0 0 0 16.392-4.392 12 12 0 0 0 -1.746-14.308l.90755-1.5719c.18467-.31985.07583-.72602-.24402-.91068l-4.6188-2.6667z" fill="#4f4f4f"/><path d="m24.436 7.3212-.79 1.3691a12 12 0 0 1 .348.3965l.559-.9688c.155-.2686.093-.5888-.117-.7968zm-21.413 10.133a12 12 0 0 0 5.9766 10.938 12 12 0 0 0 16.393-4.393 12 12 0 0 0 1.58-6.445 12 12 0 0 1 -1.58 5.445 12 12 0 0 1 -16.393 4.393 12 12 0 0 1 -5.9766-9.938z" opacity=".2"/><path d="m19.439 3.457c-.257-.0323-.521.0902-.66.3301l-.906 1.5684a12 12 0 0 0 -13.266 5.6445 12 12 0 0 0 -1.5836 6.455 12 12 0 0 1 1.584-5.455 12 12 0 0 1 13.266-5.6445l.906-1.5684c.185-.3198.593-.4288.912-.2441l4.618 2.666c.051.0295.086.0736.127.1133l.117-.2032c.184-.3198.075-.7254-.244-.9101l-4.618-2.666c-.08-.0462-.166-.0752-.252-.086zm4.555 5.6309-.348.6035a12 12 0 0 1 3.327 7.8636 12 12 0 0 0 -2.979-8.4671z" fill="#fff" opacity=".1"/><path d="m26.527 4.9365c-.252-.1724-.549-.2911-.851-.374-.603-.1656-1.284-.2092-1.937-.2072-1.3047.004-2.5187.070377-2.5187.070377l1.6519.95373c.27699-.018696.5702-.023611.87157-.024535.60016-.00184 1.2118.048385 1.6679.17362.45613.12523.69878.3065.77233.4865.20598.50407.08963.85089-.30221 1.332-.39185.48116-1.0801.9962-1.8397 1.5224-.75963.5262-1.5875 1.0688-2.2794 1.6903-.69192.62141-1.2728 1.3389-1.41 2.2351-.14936.9757.38157 1.9765.87413 2.8141s1.0106 1.4878 1.0106 1.4878c.41053.55301 1.2284-.09633.78284-.62154 0 0-.48083-.60461-.93264-1.3729-.45181-.7683-.81074-1.7245-.74479-2.1553.08395-.54846.47696-1.0962 1.0866-1.6437.60961-.54748 1.4098-1.0774 2.1829-1.6129.77305-.53549 1.5218-1.0713 2.0445-1.7131.52272-.64186.79961-1.4901.45278-2.3389-.122-.302-.33-.5297-.582-.7021z" fill="#bbb673" fill-rule="evenodd"/><path d="m27.269 14.846-1.1863 2.7906 2.7327 1.4354-2.956.78651.60472 2.9949-2.4998-1.8098-1.9786 2.2992-.16121-3.0433-3.072-.12784 2.2988-1.9851-1.8521-2.4586 3.0278.5679.76245-2.938 1.4768 2.6933z" fill="#ff6363"/><path d="m22.988 13.357-.761 2.938-3.028-.568.877 1.164 2.151.404.761-2.938 1.477 2.694 2.283-.981.522-1.224-2.805 1.205zm3.442 4.463-.348.817 1.469.771 1.263-.336zm-5.836.76-1.842 1.592 1.103.045 1.196-1.031zm5.457 2.227-.192.05.368 1.825.236.172z" fill="#fff" opacity=".1"/><path d="m27.27 15.846-.522.224-.666 1.567.348.181zm-8.071.881 1.395 1.853.457-.394-.975-1.295zm8.35 2.681-1.69.449.192.95 2.763-.735zm-7.692.809-1.105.955 3.072.127.16 3.043 1.981-2.299 2.498 1.811-.236-1.172-2.262-1.639-1.981 2.299-.16-3.043z" opacity=".2"/></svg>