<svg height="32" width="32" xmlns="http://www.w3.org/2000/svg"><g stroke-width=".7"><path d="m3.4003906 31c-.7756 0-1.4003906-.624791-1.4003906-1.400391v-1c0 .7756.6247906 1.400391 1.4003906 1.400391h12.5996094 12.599609c.7756 0 1.400391-.624791 1.400391-1.400391v1c0 .7756-.624791 1.400391-1.400391 1.400391h-12.599609z" opacity=".2"/><path d="m16 2h-12.6c-.7756 0-1.4.6244-1.4 1.4v12.6h14z" fill="#6655e4"/><path d="m16 2h12.6c.7756 0 1.4.6244 1.4 1.4v12.6h-14z" fill="#2cbfeb"/><path d="m16 30h-12.6c-.7756 0-1.4-.6244-1.4-1.4v-12.6h14z" fill="#2cbfeb"/><path d="m16 30h12.6c.7756 0 1.4-.6244 1.4-1.4v-12.6h-14z" fill="#f7c73c"/><path d="m3.4003906 2c-.7756 0-1.4003906.6247906-1.4003906 1.4003906v1c0-.7756.6247906-1.4003906 1.4003906-1.4003906h12.5996094 12.599609c.7756 0 1.400391.6247906 1.400391 1.4003906v-1c0-.7756-.624791-1.4003906-1.400391-1.4003906h-12.599609z" fill="#fff" opacity=".2"/></g><path d="m6 6h20v20h-20z" fill="#3f3f3f" stroke-width=".5"/><path d="m9.0002425 23.9999h7.9999995" fill="none" opacity=".2" stroke="#010101" stroke-linecap="round" stroke-width="2"/><path d="m9.0002425 23h7.9999995" fill="none" stroke="#fff" stroke-linecap="round" stroke-width="2"/><path d="m9.0002425 13.999979h4.0000025m0 4.000002v-8.0000007m-4.0000025 8.0000007v-8.0000007" fill="none" opacity=".2" stroke="#010101" stroke-linecap="round" stroke-width="2"/><path d="m9.0002425 13.000079h4.0000025m0 4.000002v-8.0000007m-4.0000025 8.0000007v-8.0000007" fill="none" stroke="#fff" stroke-linecap="round" stroke-width="2"/><path d="m17.000144 14.00008s4.000003-.4645 4.000003 1.999998c0 2.464501-4.000003 2.000001-4.000003 2.000001m.000098-8.0000997v8.0000017m-.000098-3.977326s4.000003.464501 4.000003-1.999997c0-2.4645017-4.000003-2.000001-4.000003-2.000001m.000098 8.000099v-8.000001" style="opacity:.2;fill:none;stroke:#010101;stroke-width:2;stroke-linecap:round;stroke-linejoin:bevel"/><path d="m17.000144 13.00018s4.000003-.4645 4.000003 1.999998c0 2.464501-4.000003 2.000001-4.000003 2.000001m.000098-8.0000997v8.0000017m-.000098-3.977326s4.000003.464501 4.000003-1.999997c0-2.4645017-4.000003-2.0000007-4.000003-2.0000007m.000098 8.0000987v-8.0000007" fill="none" stroke="#fff" stroke-linecap="round" stroke-linejoin="bevel" stroke-width="2"/></svg>