<svg height="32" width="32" xmlns="http://www.w3.org/2000/svg"><path d="m16 3c-7.202 0-13 5.798-13 13s5.798 13 13 13c4.4269 0 8.3234-2.1907 10.669-5.5516l-10.669-7.448 12.282-4.287c-1.764-5.0831-6.584-8.713-12.282-8.713z" fill="#fecd38"/><circle cx="17" cy="9" fill="#3f3f3f" r="2"/><path d="m16 3c-7.202 0-13 5.798-13 13 0 .169.0191.333.0254.5.2633-6.9663 5.9416-12.5 12.975-12.5 5.363 0 9.946 3.2161 11.938 7.832l.343-.119c-1.764-5.0832-6.583-8.713-12.281-8.713zm.955 13.666-.955.334 10.16 7.094c.171-.214.351-.42.508-.645z" fill="#fff" opacity=".2"/><path d="m27.938 11.832-11.938 4.168.955.666 11.326-3.953c-.104-.299-.219-.592-.343-.881zm-24.913 4.668c-.0063.167-.0254.331-.0254.5 0 7.202 5.798 13 13 13 4.427 0 8.322-2.19 10.668-5.551l-.508-.355c-2.378 2.985-6.029 4.906-10.16 4.906-7.0334 0-12.711-5.534-12.975-12.5z" opacity=".2"/></svg>