<svg height="32" width="32" xmlns="http://www.w3.org/2000/svg"><path d="m29 27.7v-23.4c0-.7202-.58-1.3-1.3-1.3h-23.4c-.7202 0-1.3.5798-1.3 1.3v23.4c0 .7202.5798 1.3 1.3 1.3h23.4c.7202 0 1.3-.5798 1.3-1.3z" fill="#768c5a"/><g opacity=".2"><path d="m10 26h12v3h-12z"/><circle cx="18" cy="22" r="2"/><path d="m14 7h4v4h-4z"/><path d="m19 7h4v4h-4z"/><path d="m24 7h4v4h-4z"/><path d="m4 12h4v4h-4z"/><path d="m14 12h4v4h-4z"/><path d="m19 12h4v4h-4z"/></g><path d="m3 27.699v1c0 .72.5806 1.301 1.3008 1.301h23.398c.72 0 1.301-.581 1.301-1.301v-1c0 .72-.581 1.301-1.301 1.301h-23.398c-.7204 0-1.301-.581-1.301-1.301z" opacity=".2"/><g fill="#ffff80"><path d="m10 25h12v3h-12z"/><circle cx="18" cy="21" r="2"/><path d="m14 6h4v4h-4z"/><path d="m19 6h4v4h-4z"/><path d="m24 6h4v4h-4z"/><path d="m4 11h4v4h-4z"/><path d="m14 11h4v4h-4z"/><path d="m19 11h4v4h-4z"/></g><path d="m4.3008 3c-.7202 0-1.3008.5806-1.3008 1.3008v1c0-.7202.5806-1.3008 1.3008-1.3008h23.398c.72 0 1.301.5806 1.301 1.3008v-1c0-.7202-.581-1.3008-1.301-1.3008z" fill="#fff" opacity=".2"/></svg>