<svg height="32" width="32" xmlns="http://www.w3.org/2000/svg"><rect fill="#5db43e" height="28" rx="14" transform="matrix(0 -1 -1 0 0 0)" width="28" x="-30" y="-30"/><g opacity=".2" transform="translate(0 1)"><path d="m15 6v1h1v7h1v-8z"/><path d="m10 15v1h12v-1z"/><path d="m14 17v5h3v3h1v-8h-1v4h-2v-4z"/></g><path d="m16 2c-7.756 0-14 6.244-14 14 0 .169.0195.333.0254.5.2637-7.5206 6.3874-13.5 13.975-13.5 7.5872 0 13.711 5.9794 13.975 13.5.006-.16736.0254-.33116.0254-.5 0-7.756-6.244-14-14-14z" fill="#fff" opacity=".1"/><path d="m2.0254 16.5c-.0059.167-.0254.331-.0254.5 0 7.756 6.244 14 14 14s14-6.244 14-14c0-.16884-.01952-.33264-.02539-.5-.264 7.521-6.388 13.5-13.975 13.5-7.5872 0-13.711-5.979-13.975-13.5z" opacity=".2"/><g fill="#fff"><path d="m15 6v1h1v7h1v-8z"/><path d="m10 15v1h12v-1z"/><path d="m14 17v5h3v3h1v-8h-1v4h-2v-4z"/></g></svg>