<svg height="32" viewBox="0 0 8.4666667 8.4666667" width="32" xmlns="http://www.w3.org/2000/svg"><g transform="translate(0 -288.53332)"><g transform="matrix(.5978252 0 0 .59288961 -.255264 121.98953)"><path d="m.79375 281.12497h12.7v11.641666h-12.7z" fill="#3689e6"/><path d="m1.058333 281.38956h12.170834v11.1125h-12.170834z" fill="#fafafa"/><path d="m.79375 281.12497h12.7v2.116667h-12.7z" fill="#3689e6"/></g><path d="m3.1588999 290.17942c-.01466.002-.028819.008-.039829.0191l-.5095475.50945c-.021423.0215-.025459.0548-.00967.0808l.5965704.98254c-.105808.17788-.190613.36967-.2512238.572l-1.0952069.2278c-.030472.006-.052426.0333-.052426.0646v.7205c0 .0305.020847.0569.050208.064l1.0630046.25983c.056687.23433.14453.45645.2606291.66062l-.6152885.93828c-.017166.0262-.013579.0608.0086.0829l.5093688.50946c.021424.0214.054869.0256.080992.01l.9641818-.58557c.1893942.10929.3936476.1953.6095224.25362l.2249661 1.08163c.00633.0306.033422.0524.064492.0524h.720587c.030293 0 .056729-.0207.063959-.0504l.2649796-1.08408c.2225272-.06.4329908-.14956.6269974-.26382l.9501655.62301c.026126.0172.060678.0138.082855-.008l.509548-.50946c.021554-.0216.025413-.0549.00958-.0808l-.6485304-.82147c-.2911463-.39936-.2550486-.35845-.3613375-.47192-.3415747.66851-1.0365234 1.12642-1.8390328 1.12642-1.1401581 0-2.0645327-.92439-2.0645327-2.06462 0-.83879.5002998-1.56015 1.2185125-1.88329v-.53261c-.1307132.0457-.2570794.10086-.3771044.16624-.0000879-.00008-.0001815-.0003-.0005126-.00061l-.9725184-.63785c-.013098-.009-.028278-.012-.042935-.0105z" fill="#d4d4d4" stroke-width=".079838"/><ellipse cx="5.428279" cy="293.05243" fill="#206b00" rx="2.189103" ry="2.189103" stroke-width=".106786"/><path d="m5.4282854 290.86333a2.1890947 2.1890947 0 0 0 -2.1890948 2.18909 2.1890947 2.1890947 0 0 0 .00166.0458 2.1890947 2.1890947 0 0 1 2.1874141-2.15672 2.1890947 2.1890947 0 0 1 2.1874531 2.14328 2.1890947 2.1890947 0 0 0 .00166-.0324 2.1890947 2.1890947 0 0 0 -2.1890947-2.1891z" fill="#fff" opacity=".2" stroke-width=".078182"/><g stroke-width=".106786"><ellipse cx="5.16084" cy="293.616" fill="#fafafa" rx="1.334819" ry="1.334819"/><path d="m3.986199 293.53591 1.2813811 1.17464.6407581-1.76196z" fill="#1a1a1a"/></g></g></svg>