<svg height="32" width="32" xmlns="http://www.w3.org/2000/svg"><path d="m12.777 1c-.296.0323-.559.2748-.613.5684l-.59 2.998c-1.06.4147-2.057.9836-2.9314 1.6836l-2.9102-.9844c-.3022-.1042-.6677.0312-.8301.3067l-2.8007 4.8557c-.1578.279-.089.666.1543.875l2.3183 2.035c-.0816.545-.1308 1.094-.1308 1.662s.0492 1.117.1308 1.662l-2.3183 2.035c-.2432.209-.3121.596-.1543.875l2.8007 4.856c.1624.275.5279.411.8301.306l2.9102-.984c.8744.7 1.8714 1.271 2.9314 1.686l.59 2.996c.06.313.358.564.678.568h5.599c.32-.004.62-.255.68-.568l.59-2.996c1.06-.415 2.057-.986 2.932-1.686l2.908.984c.302.105.669-.031.832-.306l2.801-4.856c.157-.279.089-.666-.155-.875l-2.318-2.035c.082-.545.131-1.094.131-1.662s-.05-1.117-.131-1.662l2.318-2.035c.243-.209.312-.596.155-.875l-2.801-4.8557c-.163-.2754-.53-.4109-.832-.3067l-2.908.9844c-.875-.7-1.872-1.2689-2.932-1.6836l-.59-2.998c-.06-.3137-.36-.5641-.68-.5684h-5.599c-.022-.00051-.043-.00051-.065 0z" fill="#6eaa36"/><path d="m14 9.5v4.5l4-4.5 4 .5-6 6.5 6 6-4 .5-4-4v3.5l-3 .5v-13z" opacity=".2"/><path d="m14 8.5v4.5l4-4.5 4 .5-6 6.5 6 6-4 .5-4-4v3.5l-3 .5v-13z" fill="#fff"/><path d="m12.777 1c-.296.0323-.559.2748-.613.5684l-.59 2.998c-1.06.4147-2.057.9836-2.9314 1.6836l-2.9102-.9844c-.3022-.1042-.6677.0312-.8301.3067l-2.8007 4.8557c-.1451.256-.0902.597.1074.814l2.6933-4.6697c.1624-.2755.5279-.4109.8301-.3067l2.9102.9844c.8744-.7 1.8714-1.2689 2.9314-1.6836l.59-2.998c.054-.2936.317-.5361.613-.5684.022-.0005.043-.0005.065 0h5.599c.32.0043.62.2547.68.5684l.59 2.998c1.06.4147 2.057.9836 2.932 1.6836l2.908-.9844c.302-.1042.669.0313.832.3067l2.693 4.6697c.198-.217.252-.558.108-.814l-2.801-4.8557c-.163-.2754-.53-.4109-.832-.3067l-2.908.9844c-.875-.7-1.872-1.2689-2.932-1.6836l-.59-2.998c-.06-.3137-.36-.5641-.68-.5684h-5.599c-.022-.00051-.043-.00051-.065 0zm-8.3024 13.25c-.0181.247-.0312.496-.0312.75 0 .169.0132.334.0214.5.0196-.392.0521-.779.1094-1.162zm22.336 0-.1.088c.057.383.09.77.109 1.162.009-.166.022-.331.022-.5 0-.254-.013-.503-.031-.75zm-22.336 2.5-2.2187 1.947c-.2432.209-.3121.596-.1543.875l.1074.186c.0173-.019.0273-.044.0469-.061l2.3183-2.035c-.0451-.302-.0771-.605-.0996-.912zm22.336 0c-.023.307-.055.61-.1.912l2.318 2.035c.02.017.03.042.047.061l.108-.186c.157-.279.089-.666-.155-.875z" fill="#fff" opacity=".2"/><path d="m2.209 11.242-.10742.18555c-.1578.279-.089003.666.1543.875l2.2187 1.947c.022464-.30665.054444-.61046.099609-.91211l-2.3183-2.035c-.019598-.01683-.029568-.04155-.046875-.06055zm26.867 0c-.01729.019-.0273.04371-.04687.06055l-2.3184 2.0352c.04483.30165.07699.60546.09961.91211l2.2188-1.9473c.243-.209.3113-.596.1543-.875l-.108-.186zm-24.611 4.258c-.00828.16612-.021484.33091-.021484.5 0 .25362.013128.50262.03125.75l.099609-.08789c-.0573-.383-.0898-.77-.1094-1.162zm22.355 0c-.01949.3919-.05179.77935-.10937 1.1621l.09961.08789c.01811-.24738.03125-.49638.03125-.75 0-.16909-.01312-.33388-.02148-.5zm-24.611 4.258c-.1975.217-.2525.558-.1074.814l2.8008 4.8555c.1624.275.52788.41164.83008.30664l2.9101-.985c.8744.7 1.8716 1.2705 2.9316 1.6855l.58984 2.9961c.06.313.35774.56436.67774.56836h5.5996c.32-.004.61969-.25536.67969-.56836l.58984-2.9961c1.06-.415 2.0566-.98555 2.9316-1.6855l2.9082.98438c.302.105.66903-.03164.83203-.30664l2.8008-4.8555c.14435-.25653.09056-.59763-.10742-.81445l-2.6934 4.6699c-.163.275-.53003.41164-.83203.30664l-2.91-.985c-.875.7-1.8716 1.2705-2.9316 1.6855l-.58984 2.9961c-.06.313-.35969.56436-.67969.56836h-5.5996c-.32-.004-.61773-.25536-.67774-.56836l-.589-2.996c-1.06-.415-2.057-.986-2.9314-1.686l-2.9102.98438c-.3022.105-.66768-.03164-.83008-.30664l-2.6933-4.669z" opacity=".2"/></svg>