<svg height="32" width="32" xmlns="http://www.w3.org/2000/svg"><rect fill="#ccc" height="28" rx="1.4" transform="matrix(0 -1 -1 0 0 0)" width="28" x="-30" y="-30"/><g transform="matrix(-.70711 -.70711 -.70711 .70711 0 0)"><rect fill="#49a2d6" height="8.741" rx=".437" width="8.741" x="-18.51" y="-4.37"/><rect fill="#caa52a" height="8.741" rx=".437" width="8.741" x="-27" y="-12.86"/><rect fill="#e94a63" height="8.741" rx=".437" width="8.741" x="-27" y="4.12"/><rect fill="#6eaa53" height="8.741" rx=".437" width="8.741" x="-35.48" y="-4.37"/></g><path d="m3.4004 2c-.7756 0-1.4004.6248-1.4004 1.4004v1c0-.7756.6248-1.4004 1.4004-1.4004h25.2c.775 0 1.4.6248 1.4 1.4004v-1c0-.7756-.625-1.4004-1.4-1.4004z" fill="#fff" opacity=".2"/><path d="m2 28.6v1c0 .775.6248 1.4 1.4004 1.4h25.2c.775 0 1.4-.625 1.4-1.4v-1c0 .775-.625 1.4-1.4 1.4h-25.2c-.7752 0-1.4-.625-1.4-1.4z" opacity=".2"/></svg>