<svg height="32" width="32" xmlns="http://www.w3.org/2000/svg"><rect fill="#69c276" height="28" rx="1.5" transform="matrix(0 -1 -1 0 0 0)" width="28" x="-30" y="-30"/><path d="m3.5 2c-.831 0-1.5.669-1.5 1.5v1c0-.831.669-1.5 1.5-1.5h25c.831 0 1.5.669 1.5 1.5v-1c0-.831-.669-1.5-1.5-1.5z" fill="#fff" opacity=".1"/><path d="m2 28.5v1c0 .831.669 1.5 1.5 1.5h25c.831 0 1.5-.669 1.5-1.5v-1c0 .831-.669 1.5-1.5 1.5h-25c-.831 0-1.5-.669-1.5-1.5z" opacity=".2"/><path d="m16 11c-2.0974 0-3.8893.69009-4.6317 1.6667-.06232.08199-.11759.16549-.16462.2513-.0447.08155-.08291.16412-.113.2487a5 2.6667 0 0 0 -.02093.07813c-.01714.05732-.03586.1147-.04604.17318a5 2.6667 0 0 0 -.024.248c.000275.08665.0091.17319.02512.25911a5 2.6667 0 0 0 .06836.25 5 2.6667 0 0 0 .11579.2487 5 2.6667 0 0 0 .15904.24219 5 2.6667 0 0 0 4.6317 1.6667 5 2.6667 0 0 0 4.6317-1.6667 5 2.6667 0 0 0 .0015-.0026 5 2.6667 0 0 0 .13532-.20573c.0079-.01352.01758-.02679.02511-.04036a5 2.6667 0 0 0 .08231-.17708c.01166-.0279.02631-.05525.03628-.08333a5 2.6667 0 0 0 .04046-.14844c.0096-.0391.02013-.07786.02651-.11719a5 2.6667 0 0 0 .02089-.22526 5 2.6667 0 0 0 -.02651-.26562c-.046-.26-.165-.506-.34-.736-.743-.977-2.535-1.667-4.632-1.667zm-4.6317 5a5 2.6667 0 0 0 -.3683 1 5 2.6667 0 0 0 5 2.6667 5 2.6667 0 0 0 5-2.667 5 2.6667 0 0 0 -.368-1 5 2.6667 0 0 1 -4.632 1.667 5 2.6667 0 0 1 -4.632-1.667zm0 3.3333a5 2.6667 0 0 0 -.3683 1 5 2.6667 0 0 0 5 2.667 5 2.6667 0 0 0 5-2.6667 5 2.6667 0 0 0 -.3683-1 5 2.6667 0 0 1 -4.632 1.667 5 2.6667 0 0 1 -4.632-1.667z" opacity=".1"/><path d="m16 10c-2.0974 0-3.8893.69009-4.6317 1.6667-.06232.08199-.11759.16549-.16462.2513-.0447.08155-.08291.16412-.113.2487a5 2.6667 0 0 0 -.02093.07813c-.01714.05732-.03586.1147-.04604.17318a5 2.6667 0 0 0 -.02371.2487c.000275.08665.0091.17319.02512.25911a5 2.6667 0 0 0 .06836.25 5 2.6667 0 0 0 .11579.2487 5 2.6667 0 0 0 .15904.24219 5 2.6667 0 0 0 4.6317 1.6667 5 2.6667 0 0 0 4.6317-1.6667 5 2.6667 0 0 0 .0015-.0026 5 2.6667 0 0 0 .13532-.20573c.0079-.01352.01758-.02679.02511-.04036a5 2.6667 0 0 0 .08231-.17708c.01166-.0279.02631-.05525.03628-.08333a5 2.6667 0 0 0 .04046-.14844c.0096-.0391.02013-.07786.02651-.11719a5 2.6667 0 0 0 .02089-.22526 5 2.6667 0 0 0 -.02651-.26562c-.046-.26-.165-.506-.34-.736-.743-.977-2.535-1.667-4.632-1.667zm-4.6317 5a5 2.6667 0 0 0 -.3683 1 5 2.6667 0 0 0 5 2.6667 5 2.6667 0 0 0 5-2.667 5 2.6667 0 0 0 -.368-1 5 2.6667 0 0 1 -4.632 1.667 5 2.6667 0 0 1 -4.632-1.667zm0 3.3333a5 2.6667 0 0 0 -.3683 1 5 2.6667 0 0 0 5 2.667 5 2.6667 0 0 0 5-2.6667 5 2.6667 0 0 0 -.3683-1 5 2.6667 0 0 1 -4.632 1.667 5 2.6667 0 0 1 -4.632-1.667z" fill="#fff"/></svg>