<svg height="32" width="32" xmlns="http://www.w3.org/2000/svg"><rect fill="#4e91d9" height="26" rx="1.3" transform="matrix(0 -1 -1 0 0 0)" width="26" x="-29" y="-29"/><path d="m6 17h4v1h-4z" fill="#fff"/><path d="m28.075 7.3648.45649 1.1563 1.1886-.36404-.6194 1.0778 1.0257.70234-1.2289.18774.09041 1.2398-.91297-.84372-.91297.84372.09041-1.2398-1.2289-.18774 1.0257-.70234-.6194-1.0778 1.1886.36404z" fill="#ffeb5d" transform="matrix(.7312 0 0 .75 .97137 -.52359)"/><path d="m-23-22h4v1h-4z" fill="#742424" transform="scale(-1)"/><path d="m-19-22h4v1h-4z" fill="#ad3131" transform="scale(-1)"/><path d="m-15-22h4v1h-4z" fill="#742424" transform="scale(-1)"/><path d="m-11-22h4v1h-4z" fill="#ad3131" transform="scale(-1)"/><path d="m-7-22h4v1h-4z" fill="#742424" transform="scale(-1)"/><path d="m29 22h-2v-1h2z" fill="#742424"/><path d="m-21-23h4v1h-4z" fill="#ad3131" transform="scale(-1)"/><path d="m-17-23h4v1h-4z" fill="#742424" transform="scale(-1)"/><path d="m-13-23h4v1h-4z" fill="#ad3131" transform="scale(-1)"/><path d="m-9-23h4v1h-4z" fill="#742424" transform="scale(-1)"/><path d="m5 23h-2v-1h2z" fill="#ad3131"/><path d="m-27-22h4v1h-4z" fill="#ad3131" transform="scale(-1)"/><path d="m-29-23h4v1h-4z" fill="#ad3131" transform="scale(-1)"/><path d="m-25-23h4v1h-4z" fill="#742424" transform="scale(-1)"/><path d="m11 10h2v1h-2z" fill="#742424"/><path d="m13 10h4v1h-4z" fill="#ad3131"/><path d="m17 10h4v1h-4z" fill="#742424"/><path d="m21 10h4v1h-4z" fill="#ad3131"/><path d="m25 10h4v1h-4z" fill="#742424"/><path d="m3 10h2v1h-2z" fill="#742424"/><path d="m11 9h4v1h-4z" fill="#ad3131"/><path d="m15 9h4v1h-4z" fill="#742424"/><path d="m19 9h4v1h-4z" fill="#ad3131"/><path d="m23 9h4v1h-4z" fill="#742424"/><path d="m27 9h2v1h-2z" fill="#ad3131"/><path d="m3 9h2v1h-2z" fill="#ad3131"/><g fill="#fff"><path d="m6 8h1v12h-1z"/><path d="m9 8h1v12h-1z"/><path d="m6 13h4v1h-4z"/><path d="m6 9h4v1h-4z"/><path d="m4.3008 3c-.7202 0-1.3008.5806-1.3008 1.3008v1c0-.7202.5806-1.3008 1.3008-1.3008h23.398c.72 0 1.301.5806 1.301 1.3008v-1c0-.7202-.581-1.3008-1.301-1.3008z" opacity=".2"/></g><path d="m3 27.699v1c0 .72.5806 1.301 1.3008 1.301h23.398c.72 0 1.301-.581 1.301-1.301v-1c0 .72-.581 1.301-1.301 1.301h-23.398c-.7204 0-1.301-.581-1.301-1.301z" opacity=".2"/></svg>