<svg height="32" width="32" xmlns="http://www.w3.org/2000/svg"><rect fill="#7767c0" height="28" rx="1.5" transform="matrix(0 -1 -1 0 0 0)" width="28" x="-30" y="-30"/><path d="m6 10v20h3v-11.586l5.416-5.414h1.584v5.176a3 3 0 0 0 -2 2.824 3 3 0 0 0 3 3 3 3 0 0 0 3-3 3 3 0 0 0 -2-2.8262v-5.174h2v-3h-14zm3 3h2.584l-2.584 2.584zm8 7a1 1 0 0 1 1 1 1 1 0 0 1 -1 1 1 1 0 0 1 -1-1 1 1 0 0 1 1-1z" opacity=".2"/><path d="m3.5 2c-.831 0-1.5.669-1.5 1.5v1c0-.831.669-1.5 1.5-1.5h25c.831 0 1.5.669 1.5 1.5v-1c0-.831-.669-1.5-1.5-1.5z" fill="#fff" opacity=".1"/><path d="m2 28.5v1c0 .831.669 1.5 1.5 1.5h25c.831 0 1.5-.669 1.5-1.5v-1c0 .831-.669 1.5-1.5 1.5h-25c-.831 0-1.5-.669-1.5-1.5z" opacity=".2"/><path d="m6 9v20h3v-11.586l5.416-5.414h1.584v5.176a3 3 0 0 0 -2 2.824 3 3 0 0 0 3 3 3 3 0 0 0 3-3 3 3 0 0 0 -2-2.8262v-5.174h2v-3h-14zm3 3h2.584l-2.584 2.584zm8 7a1 1 0 0 1 1 1 1 1 0 0 1 -1 1 1 1 0 0 1 -1-1 1 1 0 0 1 1-1z" fill="#7fffff"/></svg>