<svg height="32" width="32" xmlns="http://www.w3.org/2000/svg"><rect fill="#1da6e8" height="28" rx="14" transform="matrix(0 -1 -1 0 0 0)" width="28" x="-30" y="-30"/><path d="m16 2c-7.756 0-14 6.244-14 14 0 .16884.01952.33264.02539.5.2641-7.5206 6.3878-13.5 13.975-13.5s13.711 5.9794 13.975 13.5c.006-.16736.0254-.33116.0254-.5 0-7.756-6.244-14-14-14z" fill="#fff" opacity=".1"/><path d="m2.0254 16.5c-.0059.167-.0254.331-.0254.5 0 7.756 6.244 14 14 14s14-6.244 14-14c0-.16884-.01952-.33264-.02539-.5-.264 7.521-6.388 13.5-13.975 13.5-7.5872 0-13.711-5.979-13.975-13.5z" opacity=".2"/><path d="m6 9v14h3v-4.199l4 4.199h3l-5-7 5-7h-3l-4 4.199v-4.199zm11 3v5.0001h8v-5h-2v3h-1v-3h-2v3h-1v-3zm0 6v2h8v-2zm0 3v2h2v-2zm3 0v2h5v-2z" opacity=".2" transform="translate(1 1)"/><path d="m6 9v14h3v-4.199l4 4.199h3l-5-7 5-7h-3l-4 4.199v-4.199zm11 3v5.0001h8v-5h-2v3h-1v-3h-2v3h-1v-3zm0 6v2h8v-2zm0 3v2h2v-2zm3 0v2h5v-2z" fill="#fff" transform="translate(1)"/></svg>