<svg height="32" width="32" xmlns="http://www.w3.org/2000/svg"><path d="m3.5001 4c-.831 0-1.5.669-1.5 1.5v16.5h28v-16.5c0-.831-.669-1.5-1.5-1.5zm26.375 23.031c-.0707.16737-.15472.34241-.28125.46875.12706-.13906.21362-.28887.28125-.46875zm-.28125.46875c-.25305.25267-.6122.40475-1 .40625l-25.094.094h25c.43994 0 .81985-.20022 1.0938-.5z" fill="#ff766a"/><path d="m3.5001 4c-.831 0-1.5.669-1.5 1.5v1c0-.831.669-1.5 1.5-1.5h25c.831 0 1.5.669 1.5 1.5v-1c0-.831-.669-1.5-1.5-1.5z" fill="#fff" opacity=".2"/><path d="m22 10c2.2091 0 4 1.7909 4 4s-1.7909 4-4 4-4-1.7909-4-4 1.7909-4 4-4z" fill-rule="evenodd" opacity=".2"/><path d="m22 9c2.2091 0 4 1.7909 4 4s-1.7909 4-4 4-4-1.7909-4-4 1.7909-4 4-4z" fill="#fffee4" fill-rule="evenodd"/><path d="m2.0001 22v4.5s0 1.506 1.5 1.5l25.1-.1c.7756-.003 1.4-.6244 1.4-1.4v-4.5z" fill="#d22f7a"/><path d="m2.0001 22v-.8s2.0192-1.3333 2.5868-1.4496c.56768-.11632 1.2381-.0217 1.9271.1084.68899.1296 1.7176.30488 2.0386.31584.32104.0112.90198-.028 1.577-.0688.675-.04 1.7926-.0768 2.1412-.0728.34861 0 1.2189.048 2.1465.10463.92767.0568 2.2018.15169 2.4909.17824.2891.0264.62891.0752 1.0146.12841.38563.0528 1.0533.13255 1.2894.15448.23617.0215.78372.0969 1.419.15536.6353.0584 1.652.0784 1.9456.0568.29361-.0217.90903-.23904 1.5949-.43944.68582-.20032 1.4421-.38376 2.0173-.3384.57523.0455 3.8111 1.1668 3.8111 1.1668v.8h-24.6z"/><path d="m2.0001 26.5v1s0 1.506 1.5 1.5l25.1-.09961c.775-.003 1.4-.624 1.4-1.4v-1c0 .7756-.62479 1.3974-1.4004 1.4004l-25.1.1 25.094-.094c.3878-.0015.74695-.15358 1-.40625-.2739.29978-.65381.5-1.0938.5h-25c-1.5.006-1.5-1.5-1.5-1.5zm1.5 2.5h25c.43994 0 .81985-.20022 1.0938-.5-.25305.25267-.6122.40475-1 .40625l-25.094.094z" opacity=".2"/><circle cx="24.5" cy="23.5" fill="#9d75da" fill-rule="evenodd" r="7.5"/><path d="m23.983 28-2.983-4h2v-4h2v4h2z" fill="#fff"/><path d="m31.979 23.947a7.5 7.5 0 0 1 -7.479 7.053 7.5 7.5 0 0 1 -7.479-6.947 7.5 7.5 0 0 0 -.021.447 7.5 7.5 0 0 0 7.5 7.5 7.5 7.5 0 0 0 7.5-7.5 7.5 7.5 0 0 0 -.021-.553z" opacity=".2"/></svg>