<svg height="32" width="32" xmlns="http://www.w3.org/2000/svg"><rect fill="#fe4d38" height="28" rx="14" transform="matrix(0 -1 -1 0 0 0)" width="28" x="-30" y="-30"/><path d="m16 2c-7.756 0-14 6.244-14 14 0 .169.0195.333.0254.5.2637-7.5206 6.3874-13.5 13.975-13.5 7.5872 0 13.711 5.9794 13.975 13.5.006-.16736.0254-.33116.0254-.5 0-7.756-6.244-14-14-14z" fill="#fff" opacity=".1"/><path d="m2.0254 16.5c-.0059.167-.0254.331-.0254.5 0 7.756 6.244 14 14 14s14-6.244 14-14c0-.16884-.01952-.33264-.02539-.5-.264 7.521-6.388 13.5-13.975 13.5-7.5872 0-13.711-5.979-13.975-13.5z" opacity=".2"/><g fill="#3f3f3f"><path d="m8.2776 20c1.5938 3.0916 4.5384 4.9972 7.7259 5 3.1851-.0056 6.1264-1.9108 7.719-5 1.4296-2.773-2.8959-3.0001-7.7225-3.0001s-9.153.22536-7.7225 3.0001z"/><ellipse cx="11" cy="10.5" rx="2" ry="2.5"/><ellipse cx="21" cy="10.5" rx="2" ry="2.5"/></g></svg>