<svg height="32" width="32" xmlns="http://www.w3.org/2000/svg"><path d="m16 3c-7.756 0-14 6.244-14 14s6.244 14 14 14 14-6.244 14-14-6.244-14-14-14z" opacity=".2"/><path d="m16 2c-7.756 0-14 6.244-14 14s6.244 14 14 14 14-6.244 14-14-6.244-14-14-14z" fill="#ffc947"/><path d="m16 5.0000001c6.684706 0 12 5.3152939 12 11.9999999s-5.315294 12-12 12c-6.6847059 0-12-5.315294-12-12s5.3152941-11.9999999 12-11.9999999z" opacity=".2"/><path d="m16 4.0000001c6.684706 0 12 5.315294 12 11.9999999 0 6.684706-5.315294 12-12 12-6.6847059 0-12-5.315294-12-12 0-6.6847059 5.3152941-11.9999999 12-11.9999999z" fill="#b38d32"/><path d="m13.5 8.9997c-.831 0-1.5.5953199-1.5 1.333984v13.332032c0 .738664.669 1.333984 1.5 1.333984s1.5-.59532 1.5-1.333984v-3.263672l2.291016 3.96875c.369332.639702 1.247129.82175 1.966796.40625.719664-.4155 1.002145-1.266546.632813-1.90625l-3.384766-5.863282 3.384766-5.861328c.369332-.639703.08685-1.4887965-.632813-1.9042965-.269875-.1558125-.562792-.2272539-.841796-.2226563-.465008.00766-.894168.2271393-1.125.6269532l-2.291016 3.9687496v-3.28125c0-.7386641-.669-1.333984-1.5-1.333984z" opacity=".2"/><path d="m13.5 8c-.831 0-1.5.5953199-1.5 1.3339844v13.3320316c0 .738664.669 1.333984 1.5 1.333984s1.5-.59532 1.5-1.333984v-3.263672l2.291016 3.96875c.369332.639702 1.247129.82175 1.966796.40625.719664-.4155 1.002145-1.266546.632813-1.90625l-3.384766-5.863282 3.384766-5.861328c.369332-.6397026.08685-1.4887965-.632813-1.9042965-.269875-.1558125-.562792-.2272539-.841796-.2226563-.465008.00766-.894168.2271393-1.125.6269532l-2.291016 3.9687496v-3.2812496c0-.7386645-.669-1.3339844-1.5-1.3339844z" fill="#ffc947"/><path d="m16 2c-7.756 0-14 6.244-14 14 0 .168842.0195214.33264.0253906.5.263742-7.5205675 6.3874512-13.5 13.9746094-13.5 7.587158 0 13.710867 5.9794325 13.974609 13.5.00587-.16736.025391-.331158.025391-.5 0-7.756-6.244-14-14-14z" fill="#fff" opacity=".2"/></svg>