<svg height="32" width="32" xmlns="http://www.w3.org/2000/svg"><rect fill="#ccc" height="28" rx="14" transform="matrix(0 -1 -1 0 0 0)" width="28" x="-30" y="-30"/><path d="m10.624 3.0735c-.522.2167-1.0158.469-1.4957.7383a2 2 0 0 0 1.8797.185 2 2 0 0 0 1.193-1.4631c-.529.1505-1.056.3231-1.577.5398zm-3.207 1.8774c-.4157.3215-.8128.6601-1.1849 1.0216a2 2 0 0 0 .1589-.0555 2 2 0 0 0 1.026-.9661zm6.799-2.8278a2 2 0 0 0 1.4085-.046436 2 2 0 0 0 .15389-.072469c-.51949.00897-1.0405.050675-1.5624.1189zm-7.441 4.7172a2 2 0 0 0 -1.0786 2.6147 2 2 0 0 0 2.6147 1.079 2 2 0 0 0 1.0786-2.6151 2 2 0 0 0 -2.6147-1.0786zm4.617-1.9202a2 2 0 0 0 -1.079 2.6147 2 2 0 0 0 2.615 1.0786 2 2 0 0 0 1.078-2.6147 2 2 0 0 0 -2.614-1.0786zm4.616-1.9202a2 2 0 0 0 -1.078 2.6147 2 2 0 0 0 2.614 1.0786 2 2 0 0 0 1.079-2.6147 2 2 0 0 0 -2.615-1.0786zm-12.065 5.8893c-.6737 1.1418-1.1793 2.3708-1.5065 3.6558a2 2 0 0 0 1.2566-.091 2 2 0 0 0 1.0786-2.6149 2 2 0 0 0 -.8287-.9499zm15.511-6.4513a2 2 0 0 0 .09115 1.2567 2 2 0 0 0 2.6147 1.0786 2 2 0 0 0 .94989-.82873c-1.142-.6738-2.371-1.1794-3.656-1.5066zm-15.376 10.939a2 2 0 0 0 -1.0786 2.6147 2 2 0 0 0 2.6147 1.0786 2 2 0 0 0 1.0786-2.6147 2 2 0 0 0 -2.6147-1.0786zm4.6166-1.9202a2 2 0 0 0 -1.0786 2.6147 2 2 0 0 0 2.6147 1.0786 2 2 0 0 0 1.0786-2.6147 2 2 0 0 0 -2.6147-1.0786zm4.6168-1.9202a2 2 0 0 0 -1.0786 2.6147 2 2 0 0 0 2.6147 1.0786 2 2 0 0 0 1.0786-2.6147 2 2 0 0 0 -2.6147-1.0786zm4.6166-1.9202a2 2 0 0 0 -1.0786 2.6147 2 2 0 0 0 2.6147 1.0786 2 2 0 0 0 1.0786-2.6147 2 2 0 0 0 -2.6147-1.0786zm4.616-1.9202a2 2 0 0 0 -1.079 2.6147 2 2 0 0 0 2.615 1.0786 2 2 0 0 0 1.079-2.6147 2 2 0 0 0 -2.615-1.0786zm-20.541 10.526c.00897.51949.050675 1.0405.1189 1.5624a2 2 0 0 0 -.0464-1.408 2 2 0 0 0 -.0725-.154zm24.024-9.9899a2 2 0 0 0 .05549.15884 2 2 0 0 0 .96615 1.026c-.322-.4156-.661-.8127-1.022-1.1848zm-20.029 11.762a2 2 0 0 0 -1.0786 2.6147 2 2 0 0 0 2.6147 1.0786 2 2 0 0 0 1.0786-2.6147 2 2 0 0 0 -2.6147-1.0786zm4.6166-1.9202a2 2 0 0 0 -1.0786 2.6147 2 2 0 0 0 2.6147 1.0786 2 2 0 0 0 1.0786-2.6147 2 2 0 0 0 -2.6147-1.0786zm4.6166-1.9202a2 2 0 0 0 -1.0786 2.6147 2 2 0 0 0 2.6147 1.0786 2 2 0 0 0 1.0786-2.6147 2 2 0 0 0 -2.6147-1.0786zm4.617-1.921a2 2 0 0 0 -1.0786 2.6147 2 2 0 0 0 2.6147 1.0786 2 2 0 0 0 1.0786-2.6147 2 2 0 0 0 -2.6147-1.0786zm4.6166-1.9202a2 2 0 0 0 -1.0786 2.6147 2 2 0 0 0 2.6147 1.0786 2 2 0 0 0 1.0786-2.6147 2 2 0 0 0 -2.6147-1.0786zm-21.932 9.486c.15051.52928.32315 1.0567.53987 1.5777.21672.52105.46901 1.0153.73824 1.4952a2 2 0 0 0 .185-1.88 2 2 0 0 0 -1.4631-1.193zm25.653-10.671a2 2 0 0 0 -.18508 1.8792 2 2 0 0 0 1.4632 1.1937c-.15-.529-.323-1.056-.54-1.577-.216-.522-.469-1.0158-.738-1.4957zm-20.269 13.482a2 2 0 0 0 -1.0786 2.615 2 2 0 0 0 2.6147 1.079 2 2 0 0 0 1.079-2.615 2 2 0 0 0 -2.6151-1.079zm4.6161-1.92a2 2 0 0 0 -1.0786 2.6147 2 2 0 0 0 2.6147 1.0786 2 2 0 0 0 1.0786-2.6147 2 2 0 0 0 -2.6147-1.0786zm4.6166-1.9202a2 2 0 0 0 -1.0786 2.6147 2 2 0 0 0 2.6147 1.0786 2 2 0 0 0 1.0786-2.6147 2 2 0 0 0 -2.6147-1.0786zm4.6166-1.9202a2 2 0 0 0 -1.0786 2.6147 2 2 0 0 0 2.6147 1.0786 2 2 0 0 0 1.0786-2.6147 2 2 0 0 0 -2.6147-1.0786zm4.6166-1.9202a2 2 0 0 0 -1.0786 2.6147 2 2 0 0 0 2.6147 1.0786 2 2 0 0 0 1.0786-2.6147 2 2 0 0 0 -2.6147-1.0786zm-21.435 9.653c.3215.41568.66019.81275 1.0216 1.1848a2 2 0 0 0 -.0566-.16 2 2 0 0 0 -.9661-1.026zm24.926-10.367a2 2 0 0 0 .04644 1.4085 2 2 0 0 0 .07247.15389c-.009-.51949-.05067-1.0405-.1189-1.5624zm-20.039 13.01a2 2 0 0 0 -.94989.82873c1.1419.67366 2.371 1.1793 3.6557 1.5065a2 2 0 0 0 -.091-1.257 2 2 0 0 0 -2.6149-1.078zm4.6166-1.9202a2 2 0 0 0 -1.0786 2.6147 2 2 0 0 0 2.6147 1.0786 2 2 0 0 0 1.0786-2.6147 2 2 0 0 0 -2.6147-1.0786zm4.6166-1.9202a2 2 0 0 0 -1.0786 2.6147 2 2 0 0 0 2.6147 1.0786 2 2 0 0 0 1.0786-2.6147 2 2 0 0 0 -2.6147-1.0786zm4.6166-1.9202a2 2 0 0 0 -1.0786 2.6147 2 2 0 0 0 2.6147 1.0786 2 2 0 0 0 1.0786-2.6147 2 2 0 0 0 -2.6147-1.0786zm4.6166-1.9202a2 2 0 0 0 -1.0786 2.6147 2 2 0 0 0 .82873.94989c.67366-1.1419 1.1793-2.371 1.5065-3.6557a2 2 0 0 0 -1.2567.09115zm-11.931 10.376a2 2 0 0 0 -.15389.07247c.51949-.009 1.0405-.05067 1.5624-.1189a2 2 0 0 0 -1.4085.04644zm4.6166-1.9202a2 2 0 0 0 -1.1937 1.4632c.52928-.15051 1.0567-.32315 1.5777-.53987.52105-.21672 1.0153-.46901 1.4952-.73824a2 2 0 0 0 -1.8792-.18508zm4.6166-1.9202a2 2 0 0 0 -1.026.96615c.41568-.3215.81275-.66019 1.1848-1.0216a2 2 0 0 0 -.15884.05549z" fill="#fff" opacity=".4"/><path d="m16 2c-7.756 0-14 6.244-14 14 0 .169.0195.333.0254.5.2641-7.5206 6.3878-13.5 13.975-13.5s13.711 5.9794 13.975 13.5c.006-.16736.0254-.33116.0254-.5 0-7.756-6.244-14-14-14z" fill="#fff" opacity=".2"/><path d="m2.0254 16.5c-.0059.167-.0254.331-.0254.5 0 7.756 6.244 14 14 14s14-6.244 14-14c0-.16884-.01952-.33264-.02539-.5-.264 7.521-6.388 13.5-13.975 13.5-7.5872 0-13.711-5.979-13.975-13.5z" opacity=".2"/></svg>