<svg height="32" width="32" xmlns="http://www.w3.org/2000/svg"><circle cx="16" cy="16" fill="#b28a63" r="10"/><path d="m7.7324 9.0864a11.728 4.4061 29.496 0 0 -1.5586.9786 11.728 4.4061 29.496 0 0 -.1738 1.478 11.728 4.4061 29.496 0 1 .1738-.479 11.728 4.4061 29.496 0 1 2.7598-1.1187c.1914-.1918.3874-.379.5937-.5547a14.659 5.1405 29.547 0 0 -1.7949-.3047zm-4.6777 1.7286a14.659 5.1405 29.547 0 0 10.351 11.122 14.659 5.1405 29.547 0 0 15.336 2.814 14.659 5.1405 29.547 0 0 .201-1.549 14.659 5.1405 29.547 0 1 -.201.549 14.659 5.1405 29.547 0 1 -15.336-2.814 14.659 5.1405 29.547 0 1 -10.351-10.122zm22.824 7.6526c-.032.214-.06.43-.106.64a11.728 4.4061 29.496 0 1 .959 2.084 11.728 4.4061 29.496 0 0 -.525-2.379 14.659 5.1405 29.547 0 0 -.328-.345z" opacity=".2"/><path d="m25.979 16.414a10 10 0 0 1 -9.979 9.586 10 10 0 0 1 -9.9785-9.414 10 10 0 0 0 -.0215.414 10 10 0 0 0 10 10 10 10 0 0 0 10-10 10 10 0 0 0 -.021-.586z" opacity=".2"/><path d="m6.627 8.002a14.659 5.1405 29.547 0 0 -3.3653 1.246 14.659 5.1405 29.547 0 0 10.144 11.69 14.659 5.1405 29.547 0 0 15.336 2.814 14.659 5.1405 29.547 0 0 -2.863-6.283c-.032.214-.06.43-.106.64a11.728 4.4061 29.496 0 1 .791 3.549 11.728 4.4061 29.496 0 1 -12.419-1.99 11.728 4.4061 29.496 0 1 -7.9712-9.602 11.728 4.4061 29.496 0 1 2.7598-1.1187c.1914-.1918.3874-.379.5937-.5547a14.659 5.1405 29.547 0 0 -2.9003-.3906z" fill="#fede7b"/><g fill="#fff"><path d="m16 6a10 10 0 0 0 -10 10 10 10 0 0 0 .0215.586 10 10 0 0 1 9.9785-9.586 10 10 0 0 1 9.979 9.414 10 10 0 0 0 .021-.414 10 10 0 0 0 -10-10z" opacity=".1"/><path d="m6.627 8.002a14.659 5.1405 29.547 0 0 -3.3653 1.246 14.659 5.1405 29.547 0 0 -.207 1.568 14.659 5.1405 29.547 0 1 .207-.568 14.659 5.1405 29.547 0 1 3.3653-1.246 14.659 5.1405 29.547 0 1 1.1093.0878 11.728 4.4061 29.496 0 1 1.1973-.1425c.1914-.1918.3874-.379.5937-.5547a14.659 5.1405 29.547 0 0 -2.9003-.3906zm-.629 3.543a11.728 4.4061 29.496 0 0 8.147 9.123 11.728 4.4061 29.496 0 0 12.419 1.99 11.728 4.4061 29.496 0 0 .168-1.465 11.728 4.4061 29.496 0 1 -.168.465 11.728 4.4061 29.496 0 1 -12.419-1.99 11.728 4.4061 29.496 0 1 -8.147-8.123zm19.881 5.924c-.032.214-.06.43-.106.64a11.728 4.4061 29.496 0 1 .432.703 14.659 5.1405 29.547 0 1 2.738 4.391 14.659 5.1405 29.547 0 0 -3.064-5.734z" opacity=".1"/></g></svg>