<svg height="32" width="32" xmlns="http://www.w3.org/2000/svg"><rect fill="#5f7c8a" height="28" rx="1.5" transform="matrix(0 -1 -1 0 0 0)" width="22" x="-27" y="-30"/><path d="m-25-28h18v24h-18z" fill="#7f96a1" transform="matrix(0 -1 -1 0 0 0)"/><path d="m3.5 4.9999c-.831 0-1.5.669-1.5 1.5v1c0-.831.669-1.5 1.5-1.5h25c.831 0 1.5.669 1.5 1.5v-1c0-.831-.669-1.5-1.5-1.5z" fill="#fff" opacity=".1"/><path d="m2 25.5v1c0 .831.669 1.5 1.5 1.5h25c.831 0 1.5-.669 1.5-1.5v-1c0 .831-.669 1.5-1.5 1.5h-25c-.831 0-1.5-.669-1.5-1.5z" opacity=".2"/><circle cx="24" cy="23" fill="#48cd42" fill-rule="evenodd" r="8"/><g enable-background="new" fill="#fff" transform="translate(-404 -46.999)"><path d="m424 66h.67187c4.05 0 7.33 3.278 7.33 7.328v.672h-.67188c-.36436 0-.65625-.30511-.65625-.67188 0-3.3137-2.6863-6-6-6-.36 0-.67-.289-.67-.656v-.672z"/><path d="m424 68.672h.67187c2.5773 0 4.6562 2.0789 4.6562 4.6562v.67188h-.65625c-.36 0-.67-.305-.67-.672 0-1.841-1.49-3.328-3.33-3.328-.36 0-.67-.305-.67-.672v-.65625z"/><path d="m425.33 71.328c.73638 0 1.3438.60737 1.3438 1.3438 0 .736-.61 1.328-1.34 1.328-.74 0-1.33-.592-1.33-1.328 0-.73638.59174-1.3438 1.3281-1.3438z"/></g><path d="m31.979 23.425a8 8 0 0 1 -7.979 7.576 8 8 0 0 1 -7.979-7.424 8 8 0 0 0 -.021.422 8 8 0 0 0 8 8 8 8 0 0 0 8-8 8 8 0 0 0 -.02148-.57422z" opacity=".2"/></svg>