<svg height="32" width="32" xmlns="http://www.w3.org/2000/svg"><path d="m28.918 10.632c-2.974-7.1569-11.129-10.524-18.286-7.5503-7.1571 2.974-10.524 11.129-7.5505 18.286 2.974 7.157 11.13 10.524 18.286 7.55 7.157-2.974 10.524-11.129 7.55-18.286z" fill="#d2d2d2"/><path d="m16.09 2c-1.686-.0086-3.399.295-5.067.9316l3.555 9.3324a4 4 0 0 1 1.422-.264 4 4 0 0 1 1.422.266l3.557-9.3383c-1.551-.5905-3.203-.9191-4.889-.9277zm-13.156 9.021c-.6366 1.668-.9403 3.381-.9316 5.067.0086 1.686.3392 3.34.9296 4.891l9.3324-3.555a4 4 0 0 1 -.264-1.424 4 4 0 0 1 .268-1.424zm26.134 0-9.332 3.555a4 4 0 0 1 .264 1.424 4 4 0 0 1 -.266 1.42l9.336 3.559c.591-1.551.919-3.205.928-4.891s-.293-3.399-.93-5.067zm-14.49 8.713-3.555 9.334c1.668.637 3.381.941 5.067.932s3.338-.337 4.889-.928l-3.555-9.336a4 4 0 0 1 -1.424.264 4 4 0 0 1 -1.422-.266z" fill="#e74c3c"/><path d="m16.09 2c-1.818-.0093-3.67.3385-5.459 1.082-5.5486 2.3057-8.8015 7.726-8.6056 13.381.1979-5.284 3.3855-10.212 8.6056-12.381 7.157-2.9739 15.313.3941 18.287 7.551.668 1.608 1 3.265 1.057 4.904.073-1.961-.252-3.967-1.057-5.904-2.231-5.3677-7.376-8.6051-12.828-8.633z" fill="#fff" opacity=".2"/><path d="m2.0254 16.464c-.0735 1.961.2518 3.967 1.0566 5.904 2.974 7.157 11.13 10.525 18.287 7.551 5.549-2.306 8.801-7.726 8.606-13.381-.198 5.284-3.386 10.212-8.606 12.381-7.157 2.974-15.313-.392-18.287-7.549-.6683-1.608-.9998-3.267-1.0566-4.906z" opacity=".2"/></svg>