<svg height="32" width="32" xmlns="http://www.w3.org/2000/svg"><path d="m6.1991 8c-.0000002.99233.027175 2.1214.074219 3h-2.1738c-1.1634 0-2.0996.936-2.0996 2.1v8.8496c0 1.163.9362 2.05 2.0996 2.05h4.4004c.98494 0 1.5-1 1.5-1 2.3879 1.9995 5.8668 2 8.4492 2 5.25 0 11.551-.2 11.551-17zm-.90625 5h1.0488c.412 4.1463 1.3308 6.9496 2.5469 8.8359-.1747.102-.3704.164-.5801.164h-3.0156c-.716 0-1.293-.669-1.293-1.5v-6c0-.831.577-1.5 1.293-1.5z" fill="#bda461"/><path d="m21.699 11s-.90503.87806-1.8838 1.2321c-7.2483 2.6217-4.1914 7.7308-4.0917 7.7476 0 0 .40645-.70781.9555-1.1115 3.4841-2.5613 4.1922-5.5095 4.1922-5.5095s-.78182 3.5476-3.8814 5.755c-.68459.48729-1.1481 1.6871-1.3444 2.8863 0 0 .48527-.19606.69394-.24917.08137-.53102.2515-1.0395.53914-1.4937 4.3321.51578 5.7509-2.9749 5.9362-4.1921.438-2.875-1.116-5.065-1.116-5.065z" fill="#5b6d40"/><path d="m6.1991 8c0 .331.0196.653.0254 1h23.75c.005-.34.025-.645.025-1h-23.8zm-2.0996 3c-1.1634 0-2.0996.936-2.0996 2.1v1c0-1.164.9362-2.1 2.0996-2.1h2.1738c-.0156-.293-.0144-.666-.0254-1zm-.0996 9.5v1c0 .831.577 1.5 1.293 1.5h3.0156c.2097 0 .4054-.062.5801-.164-.1696-.263-.3309-.55-.4883-.85-.0312.003-.06.014-.0918.014h-3.0156c-.716 0-1.293-.669-1.293-1.5z" fill="#fff" opacity=".2"/><path d="m6.1991 9c0 .662.0269 1.332.0488 2h.0254c-.0313-.586-.0373-1.306-.0488-2zm23.776 0c-.258 15.766-6.387 16-11.526 16-2.582 0-6.061-.001-8.449-2 0 0-.5151 1-1.5 1h-4.4004c-1.1634 0-2.0996-.887-2.0996-2.051v1c0 1.164.9362 2.051 2.0996 2.051h4.4004c.9849 0 1.5-1 1.5-1 2.388 1.999 5.867 2 8.449 2 5.25 0 11.551-.2 11.551-17zm-24.682 4c-.716 0-1.293.669-1.293 1.5v1c0-.831.577-1.5 1.293-1.5h1.0488c.3545 3.568 1.0869 6.136 2.0586 7.986.1741-.015.3401-.064.4883-.15-1.2161-1.886-2.1349-4.69-2.5469-8.836z" opacity=".2"/></svg>