<svg height="32" width="32" xmlns="http://www.w3.org/2000/svg"><path d="m16 2.9991167c-2.216 0-4 1.784-4 4v4.6699223l-1.771484-1.7714848c-1.1990956-1.1990949-3.1309836-1.1990949-4.3300785 0-1.1990949 1.1990948-1.1990949 3.1309838 0 4.3300788l5.7714845 5.771484-5.7714845 5.771484c-1.1990949 1.199095-1.1990949 3.130984 0 4.330078 1.1990949 1.199095 3.1309833 1.199095 4.3300785 0l3.695312-3.695312c.606075.369007 1.311827.59375 2.076172.59375s1.470097-.224743 2.076172-.59375l3.695312 3.695312c1.199095 1.199095 3.130984 1.199095 4.330078 0 1.199095-1.199094 1.199095-3.130983 0-4.330078l-5.771484-5.771484 5.771484-5.771484c1.199095-1.199095 1.199095-3.130984 0-4.3300788-1.199094-1.1990949-3.130983-1.1990949-4.330078 0l-1.771484 1.7714848v-4.6699223c0-2.216-1.784-4-4-4z" opacity=".2"/><path d="m16 2c-2.216 0-4 1.784-4 4v4.669922l-1.771484-1.7714845c-1.1990956-1.1990949-3.1309836-1.1990949-4.3300785 0-1.1990949 1.1990945-1.1990949 3.1309835 0 4.3300785l5.7714845 5.771484-5.7714845 5.771484c-1.1990949 1.199095-1.1990949 3.130984 0 4.330078 1.1990949 1.199095 3.1309833 1.199095 4.3300785 0l3.695312-3.695312c.606075.369007 1.311827.59375 2.076172.59375s1.470097-.224743 2.076172-.59375l3.695312 3.695312c1.199095 1.199095 3.130984 1.199095 4.330078 0 1.199095-1.199094 1.199095-3.130983 0-4.330078l-5.771484-5.771484 5.771484-5.771484c1.199095-1.199095 1.199095-3.130984 0-4.3300785-1.199094-1.1990949-3.130983-1.1990949-4.330078 0l-1.771484 1.7714845v-4.669922c0-2.216-1.784-4-4-4z" fill="#478f30"/><path d="m16 2c-2.216 0-4 1.784-4 4v1c0-2.216 1.784-4 4-4s4 1.784 4 4v-1c0-2.216-1.784-4-4-4zm-7.9375 6c-.7827458 0-1.564515.2988901-2.1640625.8984375-.7274558.7274556-1.0067591 1.7244415-.8515625 2.6640625.100863-.608603.3803475-1.192848.8515625-1.6640625 1.1990949-1.1990949 3.1309825-1.1990949 4.3300785 0l1.771484 1.7714845v-1l-1.771484-1.7714845c-.5995482-.5995474-1.3832702-.8984375-2.166016-.8984375zm15.873047 0c-.782746 0-1.564515.2988901-2.164063.8984375l-1.771484 1.7714845v1l1.771484-1.7714845c1.199095-1.1990949 3.130985-1.1990949 4.330078 0 .471216.4712145.7507 1.0554595.851563 1.6640625.155197-.939621-.124107-1.9366069-.851563-2.6640625-.599547-.5995474-1.383269-.8984375-2.166015-.8984375zm-12.765625 11.5-5.2714845 5.271484c-.7274558.727456-1.0067591 1.724442-.8515625 2.664063.100863-.608603.3803475-1.192848.8515625-1.664063l5.7714845-5.771484zm9.660156 0-.5.5 5.771484 5.771484c.471216.471215.7507 1.05546.851563 1.664063.155197-.939621-.124107-1.936607-.851563-2.664063z" fill="#fff" opacity=".1"/><g transform="matrix(0 -1 -1 0 0 0)"><rect height="18" opacity=".2" rx="10.5" ry="9" width="21" x="-30" y="-25"/><rect fill="#b08e57" height="18" rx="10.5" ry="9" width="21" x="-29" y="-25"/></g></svg>