<svg height="32" width="32" xmlns="http://www.w3.org/2000/svg"><path d="m28 28.611175v-22.2227348c0-.7690267-.557408-1.3884402-1.25-1.3884402h-22.5c-.6925 0-1.25.6194135-1.25 1.3888248v22.2227342c0 .76922.5575 1.388441 1.25 1.388441h22.5c.692592 0 1.25-.619221 1.25-1.388441z" fill="#0b0b0b" opacity=".2"/><path d="m28 27.611175v-22.2227348c0-.7690267-.557408-1.3884402-1.25-1.3884402h-22.5c-.6925 0-1.25.6194135-1.25 1.3888248v22.2227342c0 .76922.5575 1.388441 1.25 1.388441h22.5c.692592 0 1.25-.619221 1.25-1.388441z" fill="#4f4f4f"/><rect height="21" opacity=".2" ry="1" width="3" x="5" y="7"/><rect fill="#da6156" height="21" ry="1" width="3" x="5" y="6"/><rect height="21" opacity=".2" ry="1" width="3" x="8" y="7"/><rect fill="#eb8644" height="21" ry="1" width="3" x="8" y="6"/><rect height="21" opacity=".2" ry="1" width="3" x="11" y="7"/><rect fill="#ecb554" height="21" ry="1" width="3" x="11" y="6"/><rect height="21" opacity=".2" ry="1" width="3" x="14" y="7"/><rect fill="#40a95d" height="21" ry="1" width="3" x="14" y="6"/><rect height="21" opacity=".2" ry="1" width="3" x="17" y="7"/><rect fill="#4cb094" height="21" ry="1" width="3" x="17" y="6"/><rect height="21" opacity=".2" ry="1" width="3" x="20" y="7"/><rect fill="#476eb9" height="21" ry="1" width="3" x="20" y="6"/><rect height="21" opacity=".2" ry="1" width="3" x="23" y="7"/><rect fill="#a860a2" height="21" ry="1" width="3" x="23" y="6"/><path d="m7 16.285v1c0 .396.2219.715.4961.715h1.0098c.2742 0 .4941-.319.4941-.715v-1c0 .396-.2199.715-.4941.715h-1.0098c-.2742 0-.4961-.319-.4961-.715zm3 0v1c0 .396.22.715.494.715h1.0117c.274 0 .494-.319.494-.715v-1c0 .396-.22.715-.494.715h-1.0117c-.274 0-.494-.319-.494-.715zm6 0v1c0 .396.22.715.494.715h1.0117c.274 0 .494-.319.494-.715v-1c0 .396-.22.715-.494.715h-1.0117c-.274 0-.494-.319-.494-.715zm3 0v1c0 .396.22.715.494.715h1.0117c.274 0 .494-.319.494-.715v-1c0 .396-.22.715-.494.715h-1.0117c-.274 0-.494-.319-.494-.715zm3 0v1c0 .396.22.715.494.715h1.0117c.274 0 .494-.319.494-.715v-1c0 .396-.22.715-.494.715h-1.0117c-.274 0-.494-.319-.494-.715z" opacity=".2"/><path d="m7.4961 5c-.2742 0-.4961.3187-.4961.7148v10.5697c0 .396.2219.715.4961.715h1.0098c.2742 0 .4941-.319.4941-.715v-10.5697c0-.3963-.2199-.715-.4941-.715h-1.0098zm2.9979 0c-.274 0-.494.3187-.494.7148v10.5697c0 .396.22.715.494.715h1.0117c.274 0 .494-.319.494-.715v-10.5697c0-.3963-.22-.715-.494-.715h-1.0117zm6 0c-.274 0-.494.3187-.494.7148v10.5697c0 .396.22.715.494.715h1.0117c.274 0 .494-.319.494-.715v-10.5697c0-.3963-.22-.715-.494-.715h-1.0117zm3 0c-.274 0-.494.3187-.494.7148v10.5697c0 .396.22.715.494.715h1.0117c.274 0 .494-.319.494-.715v-10.5697c0-.3963-.22-.715-.494-.715h-1.0117zm3 0c-.274 0-.494.3187-.494.7148v10.5697c0 .396.22.715.494.715h1.0117c.274 0 .494-.319.494-.715v-10.5697c0-.3963-.22-.715-.494-.715h-1.0117z" fill="#4f4f4f"/><g fill="#fff"><path d="m7.4961 5c-.2742 0-.4961.3187-.4961.7148v1c0-.3961.2219-.7148.4961-.7148h1.0098c.2742 0 .4941.3187.4941.7148v-1c0-.3961-.2199-.7148-.4941-.7148zm2.9979 0c-.274 0-.494.3187-.494.7148v1c0-.3961.22-.7148.494-.7148h1.0117c.274 0 .494.3187.494.7148v-1c0-.3961-.22-.7148-.494-.7148zm6 0c-.274 0-.494.3187-.494.7148v1c0-.3961.22-.7148.494-.7148h1.0117c.274 0 .494.3187.494.7148v-1c0-.3961-.22-.7148-.494-.7148zm3 0c-.274 0-.494.3187-.494.7148v1c0-.3961.22-.7148.494-.7148h1.0117c.274 0 .494.3187.494.7148v-1c0-.3961-.22-.7148-.494-.7148zm3 0c-.274 0-.494.3187-.494.7148v1c0-.3961.22-.7148.494-.7148h1.0117c.274 0 .494.3187.494.7148v-1c0-.3961-.22-.7148-.494-.7148z" opacity=".1"/><path d="m4.25 4c-.6925 0-1.25.6192606-1.25 1.3886719v1c0-.7694113.5575-1.3886719 1.25-1.3886719h22.5c.692592 0 1.25.6196452 1.25 1.3886719v-1c0-.7690267-.557408-1.3886719-1.25-1.3886719z" opacity=".1"/></g></svg>