<svg height="32" width="32" xmlns="http://www.w3.org/2000/svg" xmlns:xlink="http://www.w3.org/1999/xlink"><linearGradient id="a" gradientUnits="userSpaceOnUse" x1="16.1189105" x2="16.1189105" y1="-13.99788" y2="-17.99798"><stop offset="0" stop-color="#2a2c2f"/><stop offset="1" stop-color="#424649"/></linearGradient><path d="m31 16a15 15 0 0 1 -15 15 15 15 0 0 1 -15-15 15 15 0 0 1 15-15 15 15 0 0 1 15 15z" fill="#4f4f4f"/><g fill="#fff"><path d="m16 1a15 15 0 0 0 -15 15 15 15 0 0 0 .0195.586 15 15 0 0 1 14.98-14.586 15 15 0 0 1 14.98 14.414 15 15 0 0 0 .02-.414 15 15 0 0 0 -15-15z" opacity=".1"/><path d="m7.6861 3.5318c-4.0255 2.6845-6.6694 7.2642-6.6694 12.486h12c0-1.2157.727-2.2563 1.7666-2.7275l-7.0993-9.7576z" opacity=".1"/><path d="m24.314 28.468c4.0256-2.6845 6.6694-7.2642 6.6694-12.486h-12c0 1.2157-.727 2.2563-1.7666 2.7275l7.0972 9.7588z" opacity=".1"/></g><rect fill="#fe9473" height="12" ry="6" width="12" x="10" y="10"/><rect fill="url(#a)" height="4" ry="2" transform="scale(1 -1)" width="4" x="14" y="-18"/><path d="m30.98 16.414a15 15 0 0 1 -14.98 14.586 15 15 0 0 1 -14.98-14.414 15 15 0 0 0 -.02.414 15 15 0 0 0 15 15 15 15 0 0 0 15-15 15 15 0 0 0 -.02-.586z" opacity=".2"/></svg>