<svg height="32" width="32" xmlns="http://www.w3.org/2000/svg" xmlns:xlink="http://www.w3.org/1999/xlink"><clipPath id="a"><circle cx="286" cy="26" r="10"/></clipPath><circle cx="16" cy="16" fill="#736dab" r="14"/><circle clip-path="url(#a)" cx="286" cy="26" opacity="0" r="10" stroke-width=".455" transform="matrix(1.4 0 0 1.4 -384.4 -20.4)"/><circle clip-path="url(#a)" cx="286" cy="26" opacity="0" r="10" stroke-width=".909" transform="matrix(1.4 0 0 1.4 -384.4 -20.4)"/><path d="m30 16c0 7.732-6.268 14-14 14v-28c7.732 0 14 6.268 14 14z" fill="#ffba58"/><circle cx="16" cy="17" opacity=".2" r="10"/><circle cx="16" cy="16" fill="#fff" r="10"/><path d="m13 10v7.051a2.5 2.5 0 0 0 -.5-.051 2.5 2.5 0 0 0 -2.5 2.5 2.5 2.5 0 0 0 2.5 2.5 2.5 2.5 0 0 0 2.5-2.5v-7.5h4v3.051a2.5 2.5 0 0 0 -.5-.051 2.5 2.5 0 0 0 -2.5 2.5 2.5 2.5 0 0 0 2.5 2.5 2.5 2.5 0 0 0 2.5-2.5v-7.5z" opacity=".8"/><path d="m16 2a14 14 0 0 0 -14 14 14 14 0 0 0 .0215.586 14 14 0 0 1 13.978-13.586 14 14 0 0 1 13.979 13.414 14 14 0 0 0 .021-.414 14 14 0 0 0 -14-14z" fill="#fff" opacity=".2"/><path d="m29.979 16.414a14 14 0 0 1 -13.979 13.586 14 14 0 0 1 -13.978-13.414 14 14 0 0 0 -.022.414 14 14 0 0 0 14 14 14 14 0 0 0 14-14 14 14 0 0 0 -.021-.586z" opacity=".2"/></svg>