<svg height="32" width="32" xmlns="http://www.w3.org/2000/svg"><rect fill="#4ab3e4" height="28" rx="1.286" ry="1.5" transform="matrix(0 -1 -1 0 0 0)" width="24" x="-28" y="-30"/><path d="m2 26.715v1c0 .712.669 1.285 1.5 1.285h25c.831 0 1.5-.57287 1.5-1.2852v-1c0 .712-.669 1.285-1.5 1.285h-25c-.831 0-1.5-.573-1.5-1.285z" opacity=".2"/><path d="m3.5 4c-.831 0-1.5.56896-1.5 1.2812v1c0-.71229.669-1.2812 1.5-1.2812h25c.831 0 1.5.569 1.5 1.2812v-1c0-.7122-.669-1.2812-1.5-1.2812z" fill="#fff" opacity=".2"/><path d="m.69922 7c-.3878 0-.69922.2967-.69922.666v8.668c0 .369.31142.666.69922.666h12.602c.388 0 .699-.297.699-.666v-8.668c0-.3693-.311-.666-.699-.666zm18 0c-.388 0-.699.2967-.699.666v8.668c0 .369.311.666.699.666h12.602c.388 0 .699-.297.699-.666v-8.668c0-.3693-.311-.666-.699-.666zm-8.9998 14c-.3878 0-.6992.297-.6992.666v8.668c0 .369.3114.666.6992.666h12.602c.388 0 .699-.297.699-.666v-8.668c0-.369-.311-.666-.699-.666z" fill="#f5f5f5"/><path d="m0 13.334v1c0 .369.31142.666.69922.666h12.602c.388 0 .699-.297.699-.666v-1c0 .369-.311.666-.699.666h-12.602c-.38758 0-.699-.297-.699-.666zm18 0v1c0 .369.311.666.699.666h12.602c.388 0 .699-.297.699-.666v-1c0 .369-.311.666-.699.666h-12.602c-.388 0-.699-.297-.699-.666zm-9 14v1c0 .369.3114.666.6992.666h12.602c.388 0 .699-.297.699-.666v-1c0 .369-.311.666-.699.666h-12.602c-.3876 0-.699-.297-.699-.666z" opacity=".2" transform="translate(0 3)"/></svg>