<svg height="32" width="32" xmlns="http://www.w3.org/2000/svg"><rect fill="#ccc" height="28" rx="1.5" transform="matrix(0 -1 -1 0 0 0)" width="28" x="-30" y="-30"/><path d="m16 6c-1.408 0-2.801.551-3.875 1.625-.948.948-1.482 2.137-1.594 3.375h-4.531v13h9v1.5h1v-4h-1v1.5h-8v-11h3.531c.112 1.238.646 2.427 1.594 3.375 2.148 2.148 5.602 2.148 7.75 0 .948-.948 1.482-2.137 1.594-3.375h3.531v11h-7v-3h-1v7h1v-3h8v-13h-4.531c-.112-1.238-.646-2.427-1.594-3.375-1.074-1.074-2.467-1.625-3.875-1.625zm0 1.031c.983 0 1.963.316 2.781.969l-2.781 2.781-2.781-2.781c.818-.653 1.798-.969 2.781-.969zm-3.5 1.688 2.781 2.781-2.781 2.781c-1.305-1.636-1.305-3.927 0-5.563zm7 0c1.305 1.636 1.305 3.927 0 5.563l-2.781-2.781 2.781-2.781zm-3.5 3.5 2.781 2.781c-1.636 1.305-3.927 1.305-5.563 0l2.781-2.781z" fill="#474747"/><path d="m3.5 2c-.831 0-1.5.669-1.5 1.5v1c0-.831.669-1.5 1.5-1.5h25c.831 0 1.5.669 1.5 1.5v-1c0-.831-.669-1.5-1.5-1.5z" fill="#fff" opacity=".1"/><path d="m2 28.5v1c0 .831.669 1.5 1.5 1.5h25c.831 0 1.5-.669 1.5-1.5v-1c0 .831-.669 1.5-1.5 1.5h-25c-.831 0-1.5-.669-1.5-1.5z" opacity=".2"/></svg>