<svg height="32" width="32" xmlns="http://www.w3.org/2000/svg"><rect fill="#0286c2" height="28" rx="14" transform="matrix(0 -1 -1 0 0 0)" width="28" x="-30" y="-30"/><path d="m2.0254 16.5c-.0059.167-.0254.331-.0254.5 0 7.756 6.244 14 14 14s14-6.244 14-14c0-.169-.02-.333-.025-.5-.264 7.521-6.388 13.5-13.975 13.5-7.5872 0-13.711-5.979-13.975-13.5z" opacity=".2"/><path d="m11 9c-1.7497 0-3.3445.11526-5 1-2.4966 4.1718-2.2807 10.407 0 14 6.0451-6.8679 12.336-9.5 19-9.5.91552 0 2.0711.41109 3 .5-2.97-1.306-10.738-6-17-6zm6 9c-3.0523.21142-5.6422 2.2658-8 4.5 2.8259-1.1196 5.3169-1.4013 7.5312-.69922.3827.12134 1.5243.63238 2.5391 1.1367 2.5738 1.2792 3.847 1.7205 5.6367 1.9492 2.138.217 4.19-.323 6.293-.887l-2.416-.857c-1.127-.482-2.494-1.213-4.443-2.34-2.639-1.424-4.59-2.98-7.141-2.803z" opacity=".2"/><path d="m6 23c-2.2807-3.593-2.4966-9.828 0-14 1.6555-.8847 3.2503-1 5-1 6.2624 0 14.03 4.6936 17 6-.92895-.08891-2.0845-.5-3-.5-6.6643 0-12.955 2.6321-19 9.5z" fill="#fff"/><path d="m28.584 22.143c-1.127-.481-2.493-1.212-4.442-2.339-2.639-1.424-4.591-2.981-7.142-2.804-3.0523.21142-5.6422 2.2658-8 4.5 2.8259-1.1196 5.3161-1.4018 7.5305-.69981.3827.12134 1.5254.63316 2.5402 1.1375 2.5738 1.2792 3.8459 1.7195 5.6355 1.9482 2.1376.21738 4.1904-.32152 6.2938-.88594z" fill="#7ed1f3"/><path d="m16 2c-7.756 0-14 6.244-14 14 0 .169.0195.333.0254.5.2637-7.5206 6.3874-13.5 13.975-13.5 7.587 0 13.711 5.9794 13.975 13.5.005-.167.025-.331.025-.5 0-7.756-6.244-14-14-14z" fill="#fff" opacity=".2"/></svg>