<svg height="32" width="32" xmlns="http://www.w3.org/2000/svg"><rect fill="#ffc947" height="25" rx="12.5" transform="matrix(0 -1 -1 0 0 0)" width="25" x="-28.5" y="-28.5"/><path d="m16 8a8 8 0 0 0 -7.4121 5h-1.5879l-1 2h2.0723a8 8 0 0 0 -.0723 1l-1 2h1.2656a8 8 0 0 0 7.7344 6 8 8 0 0 0 6.244-3h-2.933a6 6 0 0 1 -3.311 1 6 6 0 0 1 -5.65-4h6.65l1-2h-8a6 6 0 0 1 .09-1h7.91l1-2h-8.189a6 6 0 0 1 5.189-3 6 6 0 0 1 3.309 1h2.927a8 8 0 0 0 -6.236-3z" fill="#b38d32"/><path d="m16 3c-7.202 0-13 5.798-13 13s5.798 13 13 13 13-5.798 13-13-5.798-13-13-13zm0 2c6.129 0 11 4.8714 11 11 0 6.129-4.871 11-11 11-6.1286 0-11-4.871-11-11 0-6.1286 4.8714-11 11-11z" fill="#b38d32"/><path d="m16 3c-7.202 0-13 5.798-13 13 0 .169.0191.333.0254.5.2633-6.9663 5.9416-12.5 12.975-12.5 7.033 0 12.711 5.5337 12.975 12.5.006-.167.025-.331.025-.5 0-7.202-5.798-13-13-13z" fill="#fff" opacity=".2"/><path d="m3.0254 16.5c-.0063.167-.0254.331-.0254.5 0 7.202 5.798 13 13 13s13-5.798 13-13c0-.16897-.01906-.33263-.02539-.5-.264 6.966-5.942 12.5-12.975 12.5s-12.711-5.534-12.975-12.5z" opacity=".2"/></svg>