<svg height="32" viewBox="0 0 32 32" width="32" xmlns="http://www.w3.org/2000/svg"><path d="m16 3a14 14 0 0 0 -14 14 14 14 0 0 0 14 14 14 14 0 0 0 14-14 14 14 0 0 0 -14-14z" opacity=".2"/><path d="m16 2a14 14 0 0 0 -14 14 14 14 0 0 0 14 14 14 14 0 0 0 14-14 14 14 0 0 0 -14-14z" fill="#48aeff"/><path d="m11.546875 10a.99796898.74272755 0 0 0 -.09961.002.99796898.74272755 0 0 0 -.810547.369141l-3.5019524 4.513625a.99796898.74272755 0 0 0 .8632813 1.115234h2.0019531v6.554688c0 .800222.64509 1.445312 1.445312 1.445312h.109376c.800222 0 1.445312-.64509 1.445312-1.445312v-6.554688h2.001953a.99796898.74272755 0 0 0 .863281-1.115234l-3.501953-4.513672a.99796898.74272755 0 0 0 -.816406-.371094zm8.898437 0c-.800222 0-1.445312.64509-1.445312 1.445312v6.554688h-2.001953a.99796898.74272755 0 0 0 -.863281 1.115234l3.501953 4.513672a.99796898.74272755 0 0 0 .810547.369141.99796898.74272755 0 0 0 .916015-.369141l3.501953-4.513672a.99796898.74272755 0 0 0 -.863281-1.115234h-2.001953v-6.554688c0-.800222-.64509-1.445312-1.445312-1.445312z" opacity=".2"/><g fill="#fff"><rect height="13" ry="1.444" width="3" x="10" y="10"/><path d="m11.44642 9.0010645a.99796898.74272755 0 0 0 -.810534.3703185l-3.5020518 4.514356a.99796898.74272755 0 0 0 .8641132 1.114261h7.0041046a.99796898.74272755 0 0 0 .864114-1.114261l-3.502052-4.514356a.99796898.74272755 0 0 0 -.917694-.3703185z"/><g transform="matrix(1 0 0 -1 9 32)"><rect height="13" ry="1.444" width="3" x="10" y="10"/><path d="m11.44642 9.0010645a.99796898.74272755 0 0 0 -.810534.3703185l-3.5020518 4.514356a.99796898.74272755 0 0 0 .8641132 1.114261h7.0041046a.99796898.74272755 0 0 0 .864114-1.114261l-3.502052-4.514356a.99796898.74272755 0 0 0 -.917694-.3703185z"/></g><path d="m16 2a14 14 0 0 0 -14 14 14 14 0 0 0 .0214844.414062 14 14 0 0 1 13.9785156-13.414062 14 14 0 0 1 13.978516 13.585938 14 14 0 0 0 .021484-.585938 14 14 0 0 0 -14-14z" opacity=".2"/></g></svg>