<svg height="32" viewBox="0 0 32 32" width="32" xmlns="http://www.w3.org/2000/svg"><g transform="matrix(.9454537 0 0 .9454537 .872741 .872741)"><ellipse cx="16" cy="16.000011" fill="#3a9104" rx="13.75" ry="13.750001" stroke-width=".670732"/><path d="m16.000036 2.2499879a13.749948 13.749948 0 0 0 -13.7499481 13.7499621 13.749948 13.749948 0 0 0 .0104017.28786 13.749948 13.749948 0 0 1 13.7393924-13.5466076 13.749948 13.749948 0 0 1 13.739637 13.4621476 13.749948 13.749948 0 0 0 .010402-.203355 13.749948 13.749948 0 0 0 -13.749948-13.7499629z" fill="#fff" opacity=".2" stroke-width=".49107"/><path d="m16.157495 5.251114a10.751623 10.750253 0 0 0 -7.7592295 3.1494895 10.751623 10.750253 0 0 0 0 15.2015305 10.751623 10.750253 0 0 0 15.2034685 0 10.751623 10.750253 0 0 0 0-15.2015305 10.751623 10.750253 0 0 0 -7.444239-3.1494895zm-.293989 1.343782a9.407671 9.406473 0 0 1 6.289278 2.304376l-1.887307 1.887069a10.750939 6.7193365 44.991678 0 0 -7.289371-3.6849025 9.407671 9.406473 0 0 1 2.8874-.5065425zm-4.068608 1.7558405a9.4070715 5.375469 44.992816 0 1 7.517737 3.3883235l-3.312635 3.312213-6.116035-6.1152565a9.4070715 5.375469 44.992816 0 1 1.910933-.58528zm11.315978 1.4907575a9.407671 9.406473 0 0 1 1.795438 9.151888 10.750939 6.7193365 44.991678 0 0 -3.695871-7.251697zm-14.179752.042 6.11866 6.117882-3.315259 3.314836a9.4070715 5.375469 44.992816 0 1 -2.803401-9.432723zm11.334353 2.803043a9.4070715 5.375469 44.992816 0 1 2.803401 9.432717l-6.118661-6.11788zm-13.1717895.322824a10.750939 6.7193365 44.991678 0 0 3.6958705 7.251696l-1.9004325 1.900191a9.407671 9.406473 0 0 1 -1.795438-9.151887zm8.9063125 3.942108 6.116037 6.115258a9.4070715 5.375469 44.992816 0 1 -9.428669-2.803047zm-4.265475 4.264933a10.750939 6.7193365 44.991678 0 0 7.289371 3.684903 9.407671 9.406473 0 0 1 -9.17668-1.797835z" fill="#fafafa" stroke-width="1.343867"/></g></svg>