<svg height="32" viewBox="0 0 8.4666667 8.4666667" width="32" xmlns="http://www.w3.org/2000/svg"><g transform="translate(0 -288.53331)"><path d="m4.2333698 289.32706a1.8397657 1.8397658 0 0 0 -1.8397653 1.83977 1.8397657 1.8397658 0 0 0 .6630404 1.41388c-.7535863.91714-1.5705326 2.15006-1.2189071 2.85777.3541471.71277 1.3683179.76959 2.3862582.76771 1.0179399-.002 2.0396949-.0625 2.4087554-.76771.3489352-.6668-.5039147-1.87301-1.3079582-2.79309a1.8397657 1.8397658 0 0 0 .748342-1.47856 1.8397657 1.8397658 0 0 0 -1.8397654-1.83977z" fill="#9575cd"/><path d="m4.233375 289.32717a1.8397586 1.8397586 0 0 0 -1.8397586 1.83976 1.8397586 1.8397586 0 0 0 .00139.0385 1.8397586 1.8397586 0 0 1 1.8383461-1.81255 1.8397586 1.8397586 0 0 1 1.8383794 1.80125 1.8397586 1.8397586 0 0 0 .00139-.0272 1.8397586 1.8397586 0 0 0 -1.839759-1.83977z" fill="#fff" opacity=".2" stroke-width=".065706"/></g></svg>