<svg height="32" viewBox="0 0 32 32" width="32" xmlns="http://www.w3.org/2000/svg"><g transform="matrix(0 -1 -1 0 0 0)"><rect fill="#42cf57" height="21" rx="1.4" width="7" x="-30" y="-23"/><rect fill="#2ea0e3" height="21" rx="1.4" width="7" x="-23" y="-30"/><rect fill="#e65957" height="21" rx="1.4" width="7" x="-16" y="-23"/><rect fill="#ffe766" height="21" rx="1.4" width="7" x="-9" y="-30"/></g><path d="m10.4 2c-.7752 0-1.4.6248-1.4 1.4004v1c0-.7756.6248-1.4004 1.4-1.4004h18.2c.775 0 1.4.6248 1.4 1.4004v-1c0-.7756-.625-1.4004-1.4-1.4004z" fill="#fff" opacity=".2"/><path d="m3.4004 9c-.7756 0-1.4004.6248-1.4004 1.4v1c0-.775.6248-1.4 1.4004-1.4h18.2c.775 0 1.4.625 1.4 1.4v-1c0-.7752-.625-1.4-1.4-1.4z" fill="#fff" opacity=".2"/><path d="m10.4 16c-.7752 0-1.4.625-1.4 1.4v1c0-.775.6248-1.4 1.4-1.4h18.199c.776 0 1.401.625 1.401 1.4v-1c0-.775-.625-1.4-1.4-1.4h-18.199z" fill="#fff" opacity=".2"/><path d="m3.4004 23c-.7756 0-1.4004.625-1.4004 1.4v1c0-.775.6248-1.4 1.4004-1.4h18.2c.775 0 1.4.625 1.4 1.4v-1c0-.775-.625-1.4-1.4-1.4z" fill="#fff" opacity=".2"/><path d="m2 28.6v1c0 .775.6248 1.4 1.4004 1.4h18.2c.775 0 1.4-.625 1.4-1.4v-1c0 .775-.625 1.4-1.4 1.4h-18.2c-.7752 0-1.4-.625-1.4-1.4z" opacity=".2"/><path d="m9 21.6v1c0 .775.6248 1.4 1.4 1.4h18.199c.776 0 1.401-.625 1.401-1.4v-1c0 .775-.625 1.4-1.4 1.4h-18.2c-.7752 0-1.4-.625-1.4-1.4z" opacity=".2"/><path d="m2 14.6v1c0 .775.6248 1.4 1.4004 1.4h18.2c.775 0 1.4-.625 1.4-1.4v-1c0 .775-.625 1.4-1.4 1.4h-18.2c-.7752 0-1.4-.625-1.4-1.4z" opacity=".2"/><path d="m9 7.5996v1c0 .7756.6248 1.4004 1.4 1.4004h18.199c.776 0 1.401-.6248 1.401-1.4004v-1c0 .7756-.625 1.4004-1.4 1.4004h-18.2c-.7752 0-1.4-.6248-1.4-1.4004z" opacity=".2"/></svg>