<svg height="32" width="32" xmlns="http://www.w3.org/2000/svg"><path d="m16 3a14 14 0 0 0 -14 14 14 14 0 0 0 14 14c1.333729 0 2.619844-.198528 3.841797-.546875a14 14 0 0 0 .05469-.01367c.289094-.08368.5705-.181715.851563-.283203.154772-.05589.310709-.108782.462891-.169922.273723-.109958.539837-.232941.804687-.359375.153527-.07328.308608-.142053.458984-.220703.246783-.129059.484801-.270992.722657-.414062.162193-.09756.326547-.191056.484375-.294922.229266-.150861.448363-.314811.667968-.478516.144402-.107662.293562-.211195.433594-.324219.219422-.177099.426549-.366852.634766-.55664.133076-.12132.272087-.236975.40039-.363282.325415-.32034.634759-.655164.927735-1.005859.213122-.255109.408695-.524886.603515-.794922.07165-.09933.151614-.193665.220703-.294922 1.531532-2.244778 2.429685-4.956422 2.429685-7.878908 0-1.333729-.198528-2.619844-.546875-3.841797a14 14 0 0 0 -.01367-.05469c-.08368-.289094-.181715-.5705-.283203-.851563-.05589-.154772-.108782-.310709-.169922-.462891-.10996-.27372-.232943-.539834-.359377-.804684-.073284-.153527-.142053-.308608-.220703-.458984-.129059-.246783-.270992-.484801-.414062-.7226566-.097565-.1621935-.191056-.3265467-.294922-.484375-.150861-.2292663-.314811-.4483635-.478516-.6679688-.107662-.1444023-.211195-.2935608-.324219-.4335937-.177099-.2194222-.366852-.4265487-.55664-.6347657-.12132-.1330763-.236975-.2720879-.363282-.4003906-.32034-.3254149-.655164-.6347585-1.005859-.9277344-.255109-.2131221-.524886-.4086955-.794922-.6035156-.099327-.0716541-.193665-.1516141-.294922-.2207031-2.244776-1.5315346-4.95642-2.4296875-7.878906-2.4296875zm13.789062 11.583984c.0039.02235.0079.04402.01172.06641a14 14 0 0 0 -.01172-.06641zm.167969 1.359375c.0035.04652.0067.09204.0098.138672a14 14 0 0 0 -.0098-.138672zm-11.541015 14.845703c-.02235.0039-.04402.0079-.06641.01172a14 14 0 0 0 .06641-.01172zm-1.359375.167969c-.04651.0035-.09204.0067-.138672.0098a14 14 0 0 0 .138672-.0098z" opacity=".2"/><path d="m75.53-10.5607c-11.08 0-20 8.92-20 20 0 .16772-.004.33329 0 .5.26444-10.846 9.0877-19.5 20-19.5s19.736 8.6537 20 19.5c.004-.16671 0-.33228 0-.5 0-11.08-8.92-20-20-20z" fill="#fff" opacity=".1"/><path d="m16 2a14 14 0 0 0 -14 14 14 14 0 0 0 14 14zm7.879101 2.4294922c.101257.069089.194619.148463.293946.2201171a14 14 0 0 0 -.293946-.2201171zm1.089649.824414c.131344.1097387.252884.2301332.380078.3445313a14 14 0 0 0 -.380078-.3445313zm1.004883.9283204c.126307.1283027.242352.2661425.363672.3992188a14 14 0 0 0 -.363672-.3992188zm.921484 1.0349609c.113024.1400329.214995.2889964.322657.4333987a14 14 0 0 0 -.322657-.4333987zm.80254 1.1005862c.103866.1578283.196379.3231578.293944.4853513a14 14 0 0 0 -.293944-.4853513zm.708202 1.2072263c.07865.1503761.1482.3058482.221484.459375a14 14 0 0 0 -.221484-.459375zm.581055 1.263282c.06114.152182.113642.308704.169531.463476a14 14 0 0 0 -.169531-.463476zm.452539 1.315234c.04802.165859.08789.334791.129883.503125a14 14 0 0 0 -.129883-.503125zm.348633 1.480664c.0039.02235.0085.0446.01231.06699a14 14 0 0 0 -.01231-.06699zm.168164 1.358984c.0035.04652.0079.09282.01094.139453a14 14 0 0 0 -.01094-.139453zm-2.385742 8.935937c-.06909.101257-.148463.194619-.220117.293946a14 14 0 0 0 .220117-.293946zm-.824415 1.089649c-.109738.131344-.230132.252884-.344531.380078a14 14 0 0 0 .344531-.380078zm-.928319 1.004883c-.128303.126307-.266143.242352-.399219.363672a14 14 0 0 0 .399219-.363672zm-1.034962.921484c-.140032.113024-.288996.214995-.433398.322657a14 14 0 0 0 .433398-.322657zm-1.100586.80254c-.157828.103866-.323158.196379-.485351.293944a14 14 0 0 0 .485351-.293944zm-1.207226.708202c-.150376.07865-.305848.1482-.459375.221484a14 14 0 0 0 .459375-.221484zm-1.263282.581055c-.152182.06114-.308704.113642-.463476.169531a14 14 0 0 0 .463476-.169531zm-1.315234.452539c-.165859.04802-.334791.08789-.503125.129883a14 14 0 0 0 .503125-.129883zm-1.480664.348633c-.02235.0039-.0446.0085-.06699.01231a14 14 0 0 0 .06699-.01231zm-1.358984.168164c-.04651.0035-.09282.0079-.139453.01094a14 14 0 0 0 .139453-.01094z" fill="#ffe2ac"/><circle cx="16" cy="16" opacity=".2" r="11"/><circle cx="16" cy="16" opacity=".2" r="8"/><circle cx="16" cy="16" opacity=".2" r="5"/><path d="m30 16c0 7.731986-6.268014 14-14 14v-28c7.731986 0 14 6.2680135 14 14z" fill="#7d4698"/><path d="m16 2a14 14 0 0 0 -14 14 14 14 0 0 0 .0214844.414062 14 14 0 0 1 13.978516-13.414062c2.922486 0 5.63413.8981529 7.878906 2.4296875.101257.069089.195595.149049.294922.2207031.270036.1948201.539813.3903935.794922.6035156.350695.2929759.685519.6023195 1.005859.9277344.126307.1283027.241962.2673144.363282.4003906.189788.208217.379541.4153435.55664.6347657.113024.1400329.216557.2891914.324219.4335937.163705.2196053.327655.4387025.478516.6679688.103866.1578283.197357.3221815.294922.484375.143069.2378556.285003.4758736.414062.7226566.07865.150376.147419.305457.220703.458984.126434.26485.249415.530968.359375.804687.06114.152182.114032.308119.169922.462891.101488.281063.199523.562469.283203.851563a14 14 0 0 1 .013672.054687c.303857 1.065889.483803 2.183393.527344 3.335938.005763-.164829.019531-.3279.019531-.494141 0-1.333729-.198528-2.619844-.546875-3.841797a14 14 0 0 0 -.013672-.054687c-.083679-.289094-.181715-.5705-.283203-.851563-.055889-.154772-.108782-.310708-.169922-.462891-.109958-.273722-.232941-.539837-.359375-.804687-.073284-.1535268-.142053-.3086083-.220703-.4589844-.129059-.2467824-.270993-.4848002-.414062-.7226562-.097565-.1621935-.191056-.3265467-.294922-.484375-.150861-.2292663-.314811-.4483635-.478516-.6679688-.107662-.1444023-.211195-.2935608-.324219-.4335937-.177099-.2194222-.366852-.4265487-.55664-.6347657-.12132-.1330762-.236975-.2720879-.363282-.4003906-.32034-.3254149-.655164-.6347585-1.005859-.9277344-.255109-.2131221-.524886-.4086955-.794922-.6035156-.099327-.0716541-.193665-.1516141-.294922-.2207031-2.244776-1.5315346-4.95642-2.4296875-7.878906-2.4296875zm13.789062 11.583984c.003901.02235.007909.044017.011719.066407a14 14 0 0 0 -.011719-.066407zm-11.373046 17.205078a14 14 0 0 1 -.066407.011719c.02239-.00382.044057-.007818.066407-.011719z" fill="#fff" opacity=".1"/></svg>