<svg height="32" width="32" xmlns="http://www.w3.org/2000/svg"><rect fill="#4f4f4f" height="28" rx="1.5" transform="matrix(0 -1 -1 0 0 0)" width="28" x="-30" y="-30"/><path d="m5 8 6 20h15l-2-5h-4.5l-1.5-4.5 1.5-5.5h4.5l2-5h-10l-2.992 10.471-3.008-10.471z" opacity=".2"/><path d="m3.5 2c-.831 0-1.5.669-1.5 1.5v1c0-.831.669-1.5 1.5-1.5h25c.831 0 1.5.669 1.5 1.5v-1c0-.831-.669-1.5-1.5-1.5z" fill="#fff" opacity=".1"/><path d="m2 28.5v1c0 .831.669 1.5 1.5 1.5h25c.831 0 1.5-.669 1.5-1.5v-1c0 .831-.669 1.5-1.5 1.5h-25c-.831 0-1.5-.669-1.5-1.5z" opacity=".2"/><path d="m5 7 5-.0000008 5.269 18.335.356 1.665h-4.625z" fill="#0198c4"/><path d="m17.344 17.505-4.119-.005-2.225 9.5h4.5c2.0569-8.9187 1.8443-9.4947 1.8443-9.4947z" fill="#4dbac2"/><path d="m16 7-3 10.5 2.625 9.5h10.375l-2-5h-4.5l-1.5-4.5 1.5-5.5h4.5l2-5z" fill="#06b788"/></svg>