<svg height="32" viewBox="0 0 32 32" width="32" xmlns="http://www.w3.org/2000/svg"><path d="m16 3a14 14 0 0 0 -14 14 14 14 0 0 0 14 14 14 14 0 0 0 14-14 14 14 0 0 0 -14-14z" opacity=".2"/><path d="m16 2a14 14 0 0 0 -14 14 14 14 0 0 0 14 14 14 14 0 0 0 14-14 14 14 0 0 0 -14-14z" fill="#f3b616"/><path d="m26.173598 3c.49292.0000286.76839.3882517.826402 1.1646839l-.622607 3.6565522h.152233l.326208-.2708583h.08699v.081258c-.449471.343109-.884421 1.2820702-1.304849 2.8168982-.1595 1.318184-.427722 2.537033-.80466 3.656559-.333476 1.155663-.50021 2.221025-.500189 3.1961l-.630679 1.923074c-.000014.162522.239206.325038.717666.487538-.087.379209-.217491.568809-.391452.568802v.108343h.152233v.08125c-.000021.198638-.246488.297953-.739415.297945l.08699.108343v.379195h-.152232c.101474.379209.318945.568803.652427.568803v.189593h-.652427v.108344c.217457.000007.326199.162522.326213.487545l-.913389.379195.08698.108343v.08126c-.000013.126401-.108756.1896-.326213.1896v.108336c.275449.000007.413187.06319.413201.189602-.391466.162514-.906156.966054-1.544068 2.410618-.652436 1.282053-1.21787 1.923078-1.696296 1.923078h-.173981c-.362471-.288916-.659689-1.245941-.891648-2.871077-.927905-2.473812-1.391849-3.927404-1.391836-4.360777-.000013-1.119527-.297232-2.1115-.891648-3.375499-.159494-.559759-.268229-1.538598-.326214-2.387294h-.391452c-.985897 1.859886-1.500586 3.279959-1.544076 4.327257-.27547.613947-.492948 1.354285-.652421 2.221018.594422.198637.891641.38823.891648.568795v.108344c-.463959-.07222-.790166-.207652-.978641-.406281-.202978.487545-.4712 1.541834-.804655 3.762843-.260975 1.029254-.587189 1.412671-.978635 1.412671-1.101878-.451424-2.0225216-1.060554-2.7619298-2.089809-.1159897.000008-.3044724-.514623-.5654339-1.543878-.1594867.000007-.2682225-.514624-.3262139-1.543879-.5509395-1.462614-.9278908-2.832903-1.130868-4.710841v-2.816906h-.086994l-.3914527.108344v-.108344c0-.126378.1304841-.18958.3914527-.189594l-.086988-1.625136v-1.273026l-.6306784-4.0628338v-1.5335291c.2754697-1.083398.7539159-1.6251075 1.4353327-1.6251361l.2609825.2708585-.2609685-.081258c1.0583751 1.4445852 1.6818067 2.4634838 1.8702824 3.4566025h.7394149v.1896007h-.5654331v.2166868c.217471.83064.3769507 1.245956.4784466 1.2459351h.1739815l.391452-.1083437.08699.1083437.08699-.1083437.08699.1083437v.081257c-.289973.2167014-.485695.5146451-.587184.8938254h-.06523v.189594h.152233c.20297 3.015549.579928 5.700141 1.130868 7.25304l.326213.298426h.173974c.217473.000015.674171-1.184143 1.370095-3.29683.449444-.957004.775652-1.657759.978635-2.380056l-.08699-.297944c.449437-.704211.913382-1.025148 1.391835-1.02517h.152234c.304459.000022.52193.167474.652428.564718.405939.595896.732154 1.350823.978634 2.54257l1.217862 2.51676c.159467.198643.239206.424352.23922.677145.449437 1.06537.855384 2.355726 1.217862 2.698807h.260968c.304452.000007.710399-1.904289 1.217855-4.540629.08698.000014.3262-.70421.717666-2.112674v-.108343l-.413747-.189601-.326214.108343h-.413201v-.216686l.826402-.08126h.652974c.623415-2.329337 1.196096-4.1350451 1.718053-5.4171153.173962-2.636305.413188-3.9544682.717667-3.9544897l1.188048-.487545" opacity=".2"/><g fill="#fff"><path d="m26.173598 2c.49292.0000286.76839.3882517.826402 1.1646839l-.622607 3.6565522h.152233l.326208-.2708583h.08699v.081258c-.449471.343109-.884421 1.2820702-1.304849 2.8168979-.1595 1.3181843-.427722 2.5370333-.80466 3.6565593-.333476 1.155663-.50021 2.221025-.500189 3.1961l-.630679 1.923074c-.000014.162522.239206.325038.717666.487538-.087.379209-.217491.568809-.391452.568802v.108343h.152233v.08125c-.000021.198638-.246488.297953-.739415.297945l.08699.108343v.379195h-.152232c.101474.379209.318945.568803.652427.568803v.189593h-.652427v.108344c.217457.000007.326199.162522.326213.487545l-.913389.379195.08698.108343v.08126c-.000013.126401-.108756.1896-.326213.1896v.108336c.275449.000007.413187.06319.413201.189602-.391466.162514-.906156.966054-1.544068 2.410618-.652436 1.282053-1.21787 1.923078-1.696296 1.923078h-.173981c-.362471-.288916-.659689-1.245941-.891648-2.871077-.927905-2.473812-1.391849-3.927404-1.391836-4.360777-.000013-1.119527-.297232-2.1115-.891648-3.375499-.159494-.559759-.268229-1.538598-.326214-2.387294h-.391452c-.985897 1.859886-1.500586 3.279959-1.544076 4.327257-.27547.613947-.492948 1.354285-.652421 2.221018.594422.198637.891641.38823.891648.568795v.108344c-.463959-.07222-.790166-.207652-.978641-.406281-.202978.487545-.4712 1.541834-.804655 3.762843-.260975 1.029254-.587189 1.412671-.978635 1.412671-1.101878-.451424-2.0225216-1.060554-2.7619298-2.089809-.1159897.000008-.3044724-.514623-.5654339-1.543878-.1594867.000007-.2682225-.514624-.3262139-1.543879-.5509395-1.462614-.9278908-2.832903-1.130868-4.710841v-2.816906h-.086994l-.3914527.108344v-.108344c0-.126378.1304841-.18958.3914527-.189594l-.086988-1.625136v-1.273026l-.6306784-4.0628338v-1.5335291c.2754697-1.083398.7539159-1.6251075 1.4353327-1.6251361l.2609825.2708585-.2609685-.081258c1.0583751 1.4445852 1.6818067 2.4634838 1.8702824 3.4566025h.7394149v.1896007h-.5654331v.2166868c.217471.83064.3769507 1.245956.4784466 1.2459351h.1739815l.391452-.1083437.08699.1083437.08699-.1083437.08699.1083437v.081257c-.289973.2167014-.485695.5146451-.587184.8938257h-.06523v.1895937h.152233c.20297 3.015549.579928 5.700141 1.130868 7.25304l.326213.298426h.173974c.217473.000015.674171-1.184143 1.370095-3.29683.449444-.957004.775652-1.657759.978635-2.380056l-.08699-.297944c.449437-.704211.913382-1.025148 1.391835-1.02517h.152234c.304459.000022.52193.167474.652428.564718.405939.595896.732154 1.350823.978634 2.54257l1.217862 2.51676c.159467.198643.239206.424352.23922.677145.449437 1.06537.855384 2.355726 1.217862 2.698807h.260968c.304452.000007.710399-1.904289 1.217855-4.540629.08698.000014.3262-.70421.717666-2.112674v-.108343l-.413747-.189601-.326214.108343h-.413201v-.216686l.826402-.08126h.652974c.623415-2.3293368 1.196096-4.1350451 1.718053-5.4171153.173962-2.636305.413188-3.9544682.717667-3.9544897l1.188048-.487545"/><path d="m16 2a14 14 0 0 0 -14 14 14 14 0 0 0 .0214844.414062 14 14 0 0 1 13.9785156-13.414062 14 14 0 0 1 13.978516 13.585938 14 14 0 0 0 .021484-.585938 14 14 0 0 0 -14-14z" opacity=".2"/></g></svg>