<svg height="32" width="32" xmlns="http://www.w3.org/2000/svg"><rect fill="#303f9f" height="29.000002" ry="2.636364" width="29.000002" x="1.499999" y="1.499999"/><path d="m4.1363631 1.4999993c-1.4605455 0-2.6363638 1.1758183-2.6363638 2.6363638v.5272728c0-1.4605455 1.1758183-2.6363638 2.6363638-2.6363638h23.7272739c1.460545 0 2.636363 1.1758183 2.636363 2.6363638v-.5272728c0-1.4605455-1.175818-2.6363638-2.636363-2.6363638z" fill="#fafafa" opacity=".2"/><rect fill="#fafafa" height="27.5" ry="2.5" width="27.5" x="2.25" y="2.25"/><g stroke-width=".030211"><path d="m12.927493 16.797583h-6.924472c.3867065 4.903323 4.299094 8.81571 9.202417 9.202417v-6.987915c-1.099698-.277946-1.969789-1.126889-2.277945-2.214502z" fill="#303f9f"/><path d="m15.205438 12.854985v-6.8549855c-4.888218.386707-8.791541 4.2749255-9.1993965 9.1571005h6.8972815c.283988-1.129909 1.172205-2.018127 2.302115-2.302115z" fill="#3f51b5"/><path d="m19.057402 15.157099h6.939577c-.401812-4.867069-4.283988-8.7492445-9.151058-9.1540785v6.8761335c1.087613.308157 1.936556 1.178247 2.211481 2.277945z" fill="#448aff"/><path d="m-2.026197 25.638102h4.305094v7.85793h-4.305094z" fill="#ff5722" transform="matrix(.70710678 -.70710678 .70710678 .70710678 0 0)"/></g></svg>