<svg height="32" viewBox="0 0 32 32" width="32" xmlns="http://www.w3.org/2000/svg"><path d="m16 2a14 14 0 0 0 -14 14 14 14 0 0 0 14 14 14 14 0 0 0 14-14 14 14 0 0 0 -14-14z" fill="#248afd"/><path d="m16 2a14 14 0 0 0 -14 14 14 14 0 0 0 .0215.414 14 14 0 0 1 13.978-13.414 14 14 0 0 1 13.979 13.586 14 14 0 0 0 .021-.586 14 14 0 0 0 -14-14z" fill="#fff" opacity=".2"/><path d="m2.0215 16.414a14 14 0 0 0 -.0215.586 14 14 0 0 0 14 14 14 14 0 0 0 14-14 14 14 0 0 0 -.021-.414 14 14 0 0 1 -13.979 13.414 14 14 0 0 1 -13.978-13.586z" opacity=".2"/><path d="m16.000001 4.9999998c-6.6169732 0-12.000001 5.3834012-12.000001 12 0 6.617009 5.3832323 12 12.000001 12 6.616562 0 11.999999-5.382991 11.999999-12 0-6.616599-5.383438-12-11.999999-12zm0 .9234374c2.883886.0000005 5.610397 1.3017978 7.581187 3.1072478-.04785-.00276-.09526-.00937-.144376-.00937-1.087832 0-2.460031 1.047551-2.460031 2.065779.023219 2.912906 2.457877 3.71404 2.501657 5.353223 0 .948252-.363921 2.049169-.842813 3.581251l-1.105312 3.691875-4.003124-11.706911c.666485-.03498 1.067966-.105938 1.067966-.105938.596717-.07061.527247-.948325-.07031-.913126 0 0-1.595147.140625-2.753592.140625-1.088466 0-3.317098-.140625-3.317098-.140625-.596928-.0352-.667241.878143-.07031.913126 0 0 .965592.07095 1.562099.105938l1.725937 4.527536-2.425312 7.270312-4.0331252-11.798317c.6677496-.03498 1.3681812-.105001 1.3681812-.105001.596507-.07061.52589-.948323-.07125-.913125 0 0-1.8942139.140624-3.0528693.140624-.2080403.000001-.5526152-.004741-.8125057-.012561 1.9806923-3.0072582 5.48509-5.1925546 9.355001-5.1925628zm9.719999 5.7609378c.865246 1.577818 1.356775 3.389826 1.356563 5.315625 0 4.086396-2.214594 7.653431-5.507813 9.57375l3.384376-9.781875c.63234-1.579927.841875-2.843467.841875-3.9675 0-.407416-.02736-.787173-.075-1.14zm-19.8375.807188 5.283751 14.476875c-3.6949671-1.795545-6.2428143-5.584015-6.2428143-9.968438 0-1.605851.3444302-3.130849.9590633-4.508437zm10.3125 5.475937 3.405001 9.328125c.02213.0548.04904.106326.07875.15375-1.151489.404887-2.388779.627188-3.67875.627188-1.087412 0-2.136088-.159233-3.128438-.450938z" opacity=".2"/><path d="m16.000001 3.9999998c-6.6169732 0-12.000001 5.3834015-12.000001 12 0 6.617009 5.3832323 12 12.000001 12 6.616562 0 11.999999-5.382991 11.999999-12 0-6.616599-5.383438-12-11.999999-12zm0 .9234374c2.883886.0000005 5.610397 1.3017978 7.581187 3.1072478-.04785-.00276-.09526-.00937-.144376-.00937-1.087832 0-2.460031 1.0475514-2.460031 2.065779.023219 2.912906 2.457877 3.71404 2.501657 5.353223 0 .948252-.363921 2.049169-.842813 3.581251l-1.105312 3.691875-4.003124-11.706911c.666485-.03498 1.067966-.105938 1.067966-.105938.596717-.07061.527247-.9483246-.07031-.9131256 0 0-1.595147.1406246-2.753592.1406246-1.088466 0-3.317098-.1406246-3.317098-.1406246-.596928-.0352-.667241.8781426-.07031.9131256 0 0 .965592.07095 1.562099.105938l1.725937 4.527536-2.425312 7.270312-4.0331252-11.798317c.6677496-.03498 1.3681812-.105001 1.3681812-.105001.596507-.07061.52589-.9483231-.07125-.9131251 0 0-1.8942139.1406241-3.0528693.1406241-.2080403.000001-.5526152-.004741-.8125057-.012561 1.9806923-3.0072582 5.48509-5.1925546 9.355001-5.1925628zm9.719999 5.7609378c.865246 1.577818 1.356775 3.389826 1.356563 5.315625 0 4.086396-2.214594 7.653431-5.507813 9.57375l3.384376-9.781875c.63234-1.579927.841875-2.843467.841875-3.9675 0-.407416-.02736-.787173-.075-1.14zm-19.8375.807188 5.283751 14.476875c-3.6949671-1.795545-6.2428143-5.584015-6.2428143-9.968438 0-1.605851.3444302-3.130849.9590633-4.508437zm10.3125 5.475937 3.405001 9.328125c.02213.0548.04904.106326.07875.15375-1.151489.404887-2.388779.627188-3.67875.627188-1.087412 0-2.136088-.159233-3.128438-.450938z" fill="#fff"/></svg>