<svg height="32" width="32" xmlns="http://www.w3.org/2000/svg"><path d="m16 2c-7.756 0-14 6.244-14 14s6.244 14 14 14 14-6.244 14-14-6.244-14-14-14z" fill="#ccc"/><path d="m16 2c-7.756 0-14 6.244-14 14 0 .169.0195.333.0254.5.2641-7.5206 6.3878-13.5 13.975-13.5s13.711 5.9794 13.975 13.5c.006-.16736.0254-.33116.0254-.5 0-7.756-6.244-14-14-14z" fill="#fff" opacity=".2"/><g fill="#fa5e5e"><path d="m14 15h4v12h-4z"/><path d="m22.485 7.6863 2.829 2.8287-8.486 8.485-2.828-2.828z"/><path d="m9.5284 7.6863-2.8284 2.8287 8.485 8.485 2.829-2.828z"/></g><path d="m2.0254 16.5c-.0059.167-.0254.331-.0254.5 0 7.756 6.244 14 14 14s14-6.244 14-14c0-.16884-.01952-.33264-.02539-.5-.264 7.521-6.388 13.5-13.975 13.5-7.5872 0-13.711-5.979-13.975-13.5z" opacity=".2"/></svg>