<svg height="32" width="32" xmlns="http://www.w3.org/2000/svg"><g transform="matrix(.68571 0 0 .7 33.658 8.0148)"><path d="m-30.251-8.5925c-1.108 0-2 .892-2 2v19.955l-6.1699-6.1699c-.78347-.78347-2.0447-.78347-2.8281 0l-1.4141 1.4141c-.78348.78347-.78348 2.0446 0 2.8281l10.75 10.75a12 12 0 0 0 11.662 9.2227 12 12 0 0 0 12-12v-26c0-1.108-.892-2-2-2h-2c-1.108 0-2 .892-2 2v11.283c0-.71137-.892-1.2832-2-1.2832h-2c-1.108 0-2 .57184-2 1.2832v.0078c0-.71563-.892-1.291-2-1.291h-2c-1.108 0-2 .57538-2 1.291v-11.291c0-1.108-.892-2-2-2h-2z" fill="#fabd7f"/><path d="m20.094 4.6562c-1.105 0-2.094.6869-2.094 2.3438s.89543 3 2 3 2-1.3431 2-3-.80168-2.3438-1.9062-2.3438zm17.906 0c-1.1046 0-2 .6869-2 2.3438s.89543 3 2 3 2-1.3431 2-3-.895-2.3438-2-2.3438zm-29.238 15.655c-.27708.02161-.57683.16399-.93555.37109-.95659.55228-1.9769 1.3561-1.1484 2.791.82843 1.4349 2.2758 2.1499 3.2324 1.5977.95658-.55228 1.0608-2.1628.23242-3.5977-.51777-.8968-.91906-1.1981-1.3809-1.1621z" fill="#facea2" transform="translate(-49.251 -12.593)"/><path d="m-30.251-8.5925c-1.108 0-2 .892-2 2v19.955l-6.1699-6.1699c-.78347-.78347-2.0447-.78347-2.8281 0l-1.4141 1.4141c-.78348.78347-.78348 2.0446 0 2.8281l10.75 10.75c1.2852 5.4023 6.1091 9.2171 11.662 9.2227 6.6274 0 12-5.3726 12-12v-26c0-1.108-.892-2-2-2h-2c-1.108 0-2 .892-2 2v11.283c0-.71137-.892-1.2832-2-1.2832h-2c-1.108 0-2 .57184-2 1.2832v.0078c0-.71562-.892-1.291-2-1.291h-2c-1.108 0-2 .57538-2 1.291v-11.291c0-1.108-.892-2-2-2zm0 1.5h2c.30295 0 .5.19705.5.5v17.691c.02911 1.7584 2.5387 1.9401 2.957.232.09063-.04715.27733-6.423.54297-6.423h2c.26564 0 .45234 5.3759.54297 5.423.37352 1.5241 2.5405 1.5241 2.9141 0 .09211-.04712.27752-5.423.54297-5.423h2c.26636 0 .45339 6.6759.54492 6.723.4264 1.7012 2.926 1.5135 2.9551-.24v-17.983c0-.30295.19705-.5.5-.5h2c.30295 0 .5.19705.5.5v26c0 5.8161-4.6822 10.499-10.498 10.5-4.8669-.0049-9.0787-3.3355-10.205-8.0703-.06433-.2699-.20225-.51668-.39844-.71289l-10.75-10.75c-.21435-.21435-.21435-.49268 0-.70703l1.4141-1.4141c.21435-.21435.49268-.21435.70703 0l6.1699 6.1699c.94499.94434 2.56.27541 2.5605-1.0605v-19.955c0-.30295.19705-.5.5-.5z" fill="#e8a560"/></g><path d="m4.0938 15.528c-.18836.50002-.087701 1.0857.30859 1.4902l7.373 7.5254a8.2286 8.4 0 0 0 7.996 6.456 8.2286 8.4 0 0 0 8.229-8.4v-1a8.2286 8.4 0 0 1 -8.229 8.4 8.2286 8.4 0 0 1 -7.996-6.455l-7.3723-7.524c-.1409-.144-.2416-.313-.3085-.491z" opacity=".2"/></svg>