<svg height="64" viewBox="0 0 16.933 16.933" width="64" xmlns="http://www.w3.org/2000/svg"><g fill-rule="evenodd"><path d="m13 4c-2.77 0-5 2.23-5 5v46c0 2.77 2.23 5 5 5h38c2.77 0 5-2.23 5-5v-39l-12-12z" fill="#f4f4f4" opacity=".25" stroke="#000" stroke-width=".99999" transform="scale(.26458)"/><path d="m13 4c-2.77 0-5 2.23-5 5v46c0 2.77 2.23 5 5 5h38c2.77 0 5-2.23 5-5v-39l-12-12z" fill="#f4f4f4" transform="scale(.26458)"/><path d="m14.816 4.2332-3.1749-3.1749v1.852c0 .73288.59001 1.3229 1.3229 1.3229z" fill="#bbb"/></g><g fill="#b3b3b3"><path d="m5.7553 8.1738h-.30961v-1.6044q0-.33776.014073-.6333l-.47849.40813-.16888-.2111.67552-.53479h.26739z"/><path d="m6.656 6.879q0-.66145.19703-.98513.2111-.33776.61923-.33776.4222 0 .61923.33776.2111.32369.2111.98513 0 .66145-.2111.9992-.19703.32369-.61923.32369-.40813 0-.61923-.32369-.19703-.33776-.19703-.9992zm1.3229 0q0-.59108-.14073-.81625-.12666-.22517-.36591-.22517-.22517 0-.36591.22517-.12666.2111-.12666.81625 0 .61923.12666.8444.14073.2111.36591.2111.23925 0 .36591-.22517.14073-.22517.14073-.83032z"/><path d="m8.6404 6.879q0-.66145.19703-.98513.2111-.33776.61923-.33776.4222 0 .61923.33776.2111.32369.2111.98513 0 .66145-.2111.9992-.19703.32369-.61923.32369-.40813 0-.61923-.32369-.19703-.33776-.19703-.9992zm1.3229 0q0-.59108-.14073-.81625-.12666-.22517-.36591-.22517-.22517 0-.36591.22517-.12666.2111-.12666.81625 0 .61923.12666.8444.14073.2111.36591.2111.23925 0 .36591-.22517.14073-.22517.14073-.83032z"/><path d="m10.625 6.879q0-.66145.19703-.98513.2111-.33776.61922-.33776.4222 0 .61923.33776.2111.32369.2111.98513 0 .66145-.2111.9992-.19703.32369-.61923.32369-.40812 0-.61922-.32369-.19703-.33776-.19703-.9992zm1.3229 0q0-.59108-.14073-.81625-.12666-.22517-.36591-.22517-.22517 0-.36591.22517-.12666.2111-.12666.81625 0 .61923.12666.8444.14073.2111.36591.2111.23925 0 .36591-.22517.14073-.22517.14073-.83032z"/><path d="m4.6717 10.054q0-.66145.19703-.98513.2111-.33776.61923-.33776.4222 0 .61923.33776.2111.32369.2111.98513 0 .66145-.2111.9992-.19703.32369-.61923.32369-.40813 0-.61923-.32369-.19703-.33776-.19703-.9992zm1.3229 0q0-.59108-.14073-.81625-.12666-.22517-.36591-.22517-.22517 0-.36591.22517-.12666.2111-.12666.81625 0 .61923.12666.8444.14073.2111.36591.2111.23925 0 .36591-.22517.14073-.22517.14073-.83032z"/><path d="m7.7397 11.349h-.30961v-1.6044q0-.33776.014073-.6333l-.47849.40813-.16888-.2111.67552-.53479h.26739z"/><path d="m8.6404 10.054q0-.66145.19703-.98513.2111-.33776.61923-.33776.4222 0 .61923.33776.2111.32369.2111.98513 0 .66145-.2111.9992-.19703.32369-.61923.32369-.40813 0-.61923-.32369-.19703-.33776-.19703-.9992zm1.3229 0q0-.59108-.14073-.81625-.12666-.22517-.36591-.22517-.22517 0-.36591.22517-.12666.2111-.12666.81625 0 .61923.12666.8444.14073.2111.36591.2111.23925 0 .36591-.22517.14073-.22517.14073-.83032z"/><path d="m10.625 10.054q0-.66145.19703-.98513.2111-.33776.61922-.33776.4222 0 .61923.33776.2111.32369.2111.98513 0 .66145-.2111.9992-.19703.32369-.61923.32369-.40812 0-.61922-.32369-.19703-.33776-.19703-.9992zm1.3229 0q0-.59108-.14073-.81625-.12666-.22517-.36591-.22517-.22517 0-.36591.22517-.12666.2111-.12666.81625 0 .61923.12666.8444.14073.2111.36591.2111.23925 0 .36591-.22517.14073-.22517.14073-.83032z"/><path d="m4.6617 13.229q0-.66145.19703-.98513.2111-.33776.61923-.33776.4222 0 .61923.33776.2111.32369.2111.98513 0 .66144-.2111.9992-.19703.32369-.61923.32369-.40813 0-.61923-.32369-.19703-.33776-.19703-.9992zm1.3229 0q0-.59108-.14073-.81625-.12666-.22517-.36591-.22517-.22517 0-.36591.22517-.12666.2111-.12666.81625 0 .61922.12666.8444.14073.2111.36591.2111.23925 0 .36591-.22517.14073-.22517.14073-.83032z"/><path d="m6.6461 13.229q0-.66145.19703-.98513.2111-.33776.61923-.33776.4222 0 .61923.33776.2111.32369.2111.98513 0 .66144-.2111.9992-.19703.32369-.61923.32369-.40813 0-.61923-.32369-.19703-.33776-.19703-.9992zm1.3229 0q0-.59108-.14073-.81625-.12666-.22517-.36591-.22517-.22517 0-.36591.22517-.12666.2111-.12666.81625 0 .61922.12666.8444.14073.2111.36591.2111.23925 0 .36591-.22517.14073-.22517.14073-.83032z"/><path d="m9.7141 14.524h-.30961v-1.6044q0-.33776.014073-.6333l-.47849.40813-.16888-.2111.67552-.53478h.26739z"/><path d="m10.615 13.229q0-.66145.19703-.98513.2111-.33776.61923-.33776.4222 0 .61922.33776.2111.32369.2111.98513 0 .66144-.2111.9992-.19703.32369-.61922.32369-.40813 0-.61923-.32369-.19703-.33776-.19703-.9992zm1.3229 0q0-.59108-.14073-.81625-.12666-.22517-.36591-.22517-.22517 0-.36591.22517-.12666.2111-.12666.81625 0 .61922.12666.8444.14073.2111.36591.2111.23925 0 .36591-.22517.14073-.22517.14073-.83032z"/></g></svg>