<svg height="64" viewBox="0 0 16.933 16.933" width="64" xmlns="http://www.w3.org/2000/svg"><g fill-rule="evenodd"><path d="m13 4c-2.77 0-5 2.23-5 5v46c0 2.77 2.23 5 5 5h38c2.77 0 5-2.23 5-5v-39l-12-12z" fill="#f4f4f4" opacity=".25" stroke="#000" stroke-width=".99999" transform="scale(.26458)"/><path d="m13 4c-2.77 0-5 2.23-5 5v46c0 2.77 2.23 5 5 5h38c2.77 0 5-2.23 5-5v-39l-12-12z" fill="#f4f4f4" transform="scale(.26458)"/><path d="m14.816 4.2332-3.1749-3.1749v1.852c0 .73288.59001 1.3229 1.3229 1.3229z" fill="#bbb"/></g><g fill="#888" transform="translate(-26.734 1.1705)"><path d="m34.671 7.0315v1.7198c0 .07329.059.13229.13229.13229h.79374c.07329 0 .13229-.059.13229-.13229v-1.7198zm.26458 1.0583h.52916v.52916h-.52916z"/><path d="m35.2-.11215v.52916h.52916v-.52916zm0 .52916h-.52916v.52916h.52916zm0 .52916v.52916h.52916v-.52916zm0 .52916h-.52916v.52916h.52916zm0 .52916v.52916h.52916v-.52916zm0 .52916h-.52916v.52916h.52916zm0 .52916v.52916h.52916v-.52916zm0 .52916h-.52916v.52916h.52916zm0 .52916v.52916h.52916v-.52916zm0 .52916h-.52916v.52916h.52916zm0 .52916v.52916h.52916v-.52916zm0 .52916h-.52916v.52916h.52916zm0 .52916v.52916h.52916v-.52916z"/></g></svg>