<svg height="64" width="64" xmlns="http://www.w3.org/2000/svg"><g fill-rule="evenodd" transform="scale(3.7796)"><path d="m13 4c-2.77 0-5 2.23-5 5v46c0 2.77 2.23 5 5 5h38c2.77 0 5-2.23 5-5v-39l-12-12z" fill="#f4f4f4" opacity=".25" stroke="#000" stroke-width=".99999" transform="scale(.26458)"/><path d="m13 4c-2.77 0-5 2.23-5 5v46c0 2.77 2.23 5 5 5h38c2.77 0 5-2.23 5-5v-39l-12-12z" fill="#f4f4f4" transform="scale(.26458)"/><path d="m14.816 4.2332-3.1749-3.1749v1.852c0 .73288.59001 1.3229 1.3229 1.3229z" fill="#bbb"/></g><path d="m19 16h6v32h-6z" fill="#68b723"/><path d="m29 32h6v16h-6z" fill="#c6262e"/><path d="m39 24h6v24h-6z" fill="#3689e6"/></svg>