<svg height="64" viewBox="0 0 16.933 16.933" width="64" xmlns="http://www.w3.org/2000/svg"><g fill-rule="evenodd"><path d="m13 4c-2.77 0-5 2.23-5 5v46c0 2.77 2.23 5 5 5h38c2.77 0 5-2.23 5-5v-39l-12-12z" fill="#f4f4f4" opacity=".25" stroke="#000" stroke-width=".99999" transform="scale(.26458)"/><path d="m13 4c-2.77 0-5 2.23-5 5v46c0 2.77 2.23 5 5 5h38c2.77 0 5-2.23 5-5v-39l-12-12z" fill="#f4f4f4" transform="scale(.26458)"/><path d="m14.816 4.2332-3.1749-3.1749v1.852c0 .73288.59001 1.3229 1.3229 1.3229z" fill="#bbb"/></g><path d="m8.4665 4.1635-2.0579 2.0579 2.0579 2.0579 2.0579-2.0579zm2.245 2.245-2.0579 2.0579 2.0579 2.0579 2.0579-2.0579zm-4.49 0-2.0579 2.0579 2.0579 2.0579 2.0579-2.0579zm2.245 2.245-2.0579 2.0579 2.0579 2.0579 2.0579-2.0579z" fill="#37a6e6"/></svg>