<svg height="64" viewBox="0 0 16.933 16.933" width="64" xmlns="http://www.w3.org/2000/svg"><path d="m3.4395 1.0588c-.73289 0-1.3229.58999-1.3229 1.3229v12.171c0 .73286.59001 1.3229 1.3229 1.3229h10.054c.73289 0 1.3229-.58999 1.3229-1.3229v-10.319l-3.175-3.1749z" fill="#84c835" fill-rule="evenodd" stroke-width=".26458"/><g fill="#fff"><path d="m14.816 4.2332-3.1749-3.1749v1.852c0 .73288.59001 1.3229 1.3229 1.3229z" fill-rule="evenodd" opacity=".35"/><path d="m8.4664 10.961-2.4942-2.4944 2.4942-2.4941.83147.83132-1.6629 1.6627.83142.83147 2.4942-2.4941-2.1727-2.1727c-.17742-.17757-.4652-.17757-.64277 0l-3.5142 3.5142c-.17742.17742-.17742.4652 0 .64277l3.5142 3.5141c.17757.17757.46535.17757.64277 0l3.5142-3.5141c.17742-.17757.17742-.46535 0-.64277l-.51016-.51001z" stroke-width=".050576"/></g></svg>