<svg height="64" viewBox="0 0 16.933 16.933" width="64" xmlns="http://www.w3.org/2000/svg"><path d="m3.4395 1.0583c-.73288 0-1.3229.58997-1.3229 1.3229v12.171c0 .73284.59001 1.3229 1.3229 1.3229h10.054c.73288 0 1.3229-.58997 1.3229-1.3229v-10.319l-3.1749-3.1747z" fill="#55c1ec" fill-rule="evenodd" stroke-width=".99998"/><path d="m19.588-1.1477h16.933v16.933h-16.933z" fill="none" opacity=".75" stroke-width=".26458"/><g fill="#fff"><g transform="matrix(.90322 0 0 .90322 .81896 -.26851)"><path d="m8.467 6.238a3.44 3.44 0 0 0 -3.44 3.44 3.44 3.44 0 0 0 3.44 3.439 3.44 3.44 0 0 0 3.44-3.44 3.44 3.44 0 0 0 -3.44-3.44zm0 1.393a2.046 2.046 0 0 1 2.046 2.046 2.046 2.046 0 0 1 -2.046 2.045 2.046 2.046 0 0 1 -2.046-2.045 2.046 2.046 0 0 1 2.046-2.046z" opacity=".15"/><g transform="translate(0 -280.07)"><path d="m8.467 286.83a2.91 2.91 0 0 0 -2.91 2.91 2.91 2.91 0 0 0 2.91 2.911 2.91 2.91 0 0 0 2.91-2.91 2.91 2.91 0 0 0 -2.91-2.91zm0 1.323a1.587 1.587 0 0 1 1.587 1.588 1.587 1.587 0 0 1 -1.587 1.587 1.587 1.587 0 0 1 -1.588-1.587 1.587 1.587 0 0 1 1.588-1.588z"/><path d="m7.938 285.64h1.058v1.852h-1.058zm0 6.35h1.058v1.852h-1.058zm4.63-2.778v1.058h-1.852v-1.058zm-6.35 0v1.058h-1.852v-1.058zm5.522 3.055-.747.748-1.31-1.31.748-.748zm-4.49-4.49-.747.748-1.31-1.31.748-.748zm-1.309 5.238-.748-.748 1.31-1.31.748.748zm4.49-4.49-.748-.748 1.31-1.31.748.748z"/></g></g><path d="m14.816 4.2332-3.1749-3.1749v1.852c0 .73288.59001 1.3229 1.3229 1.3229z" fill-rule="evenodd" opacity=".35"/></g></svg>