<svg height="64" viewBox="0 0 16.933 16.933" width="64" xmlns="http://www.w3.org/2000/svg"><g fill-rule="evenodd"><g><path d="m13 4c-2.77 0-5 2.23-5 5v46c0 2.77 2.23 5 5 5h38c2.77 0 5-2.23 5-5v-39l-12-12z" fill="#f4f4f4" opacity=".25" stroke="#000" stroke-width=".99999" transform="scale(.26458)"/><path d="m13 4c-2.77 0-5 2.23-5 5v46c0 2.77 2.23 5 5 5h38c2.77 0 5-2.23 5-5v-39l-12-12z" fill="#f4f4f4" transform="scale(.26458)"/><path d="m14.816 4.2332-3.1749-3.1749v1.852c0 .73288.59001 1.3229 1.3229 1.3229z" fill="#bbb"/></g><path d="m9.5725 5.2915-1.692.004c.184.116.428.377.63.676.224.333.403.717.538 1.052l-.478.276 1.523-.003.711-1.332-.379.252-.24-.454c-.161-.256-.309-.442-.613-.47zm-2.43.118-.738 1.086 1.3.865.697-1.308c-.193-.283-.476-.697-.924-.707h-.016a.86.86 0 0 0 -.319.064zm2.596 2.62.606 1.305.521.004c.297.003.77-.42.776-.74v-.023l-.593-1.382zm-4.447-.434.453.246-.152.32c-.492 1.044.13 1.553.866 2.569a1.074 1.074 0 0 1 -.006-.784l.653-1.389.41.212-.81-1.251zm3.496 2.741.697 1.305.004-.538h.341c1.103 0 1.256-.814 1.787-1.964a.945.945 0 0 1 -.66.353l-1.468.004-.004-.481zm-1.922-.84-.237.487c-.14.287.02.951.3 1.077h1.446l.01-1.615z" fill="#8a92a2"/></g></svg>