<svg height="64" viewBox="0 0 16.933 16.933" width="64" xmlns="http://www.w3.org/2000/svg"><path d="m3.4395 1.0587c-.73288 0-1.3229.58999-1.3229 1.3229v12.171c0 .73286.59001 1.3229 1.3229 1.3229h10.054c.73288 0 1.3229-.58999 1.3229-1.3229v-10.319l-3.1749-3.1748z" fill="#f35450" fill-rule="evenodd" stroke-width=".99999"/><g fill="#fff"><path d="m14.816 4.2332-3.1749-3.1749v1.852c0 .73288.59001 1.3229 1.3229 1.3229z" fill-rule="evenodd" opacity=".35"/><path d="m6.8795 10.98v-3.456l-1 .543-.588-1.153 1.428-.96h.794c.542.336 1.443.285 1.905 0h.794l1.429.909-.587 1.15-1-.489v3.456z"/></g></svg>