<svg height="64" width="64" xmlns="http://www.w3.org/2000/svg"><g fill-rule="evenodd" transform="scale(3.7796)"><path d="m13 4c-2.77 0-5 2.23-5 5v46c0 2.77 2.23 5 5 5h38c2.77 0 5-2.23 5-5v-39l-12-12z" fill="#f4f4f4" opacity=".25" stroke="#000" stroke-width=".99999" transform="scale(.26458)"/><path d="m13 4c-2.77 0-5 2.23-5 5v46c0 2.77 2.23 5 5 5h38c2.77 0 5-2.23 5-5v-39l-12-12z" fill="#f4f4f4" transform="scale(.26458)"/><path d="m14.816 4.2332-3.1749-3.1749v1.852c0 .73288.59001 1.3229 1.3229 1.3229z" fill="#bbb"/></g><g fill="#5f656d" transform="translate(0 4)"><path d="m18 19c-.554 0-1 .446-1 1v20c0 .554.446 1 1 1h28c.554 0 1-.446 1-1v-20c0-.554-.446-1-1-1zm20 1a1 1 0 0 1 1 1 1 1 0 0 1 -1 1 1 1 0 0 1 -1-1 1 1 0 0 1 1-1zm3 0a1 1 0 0 1 1 1 1 1 0 0 1 -1 1 1 1 0 0 1 -1-1 1 1 0 0 1 1-1zm3 0a1 1 0 0 1 1 1 1 1 0 0 1 -1 1 1 1 0 0 1 -1-1 1 1 0 0 1 1-1zm-26 3h6v17h-6zm7 0h21v17h-21z" fill-rule="evenodd"/><path d="m32 37h1.3233l1.4461-2.7012c.25921-.49113.51842-1.0096.80491-1.6098h.05457c.32742.60027.60027 1.1187.85948 1.6098l1.4734 2.7012h1.3915l-2.9195-5.1023 2.7285-4.8977h-1.3233l-1.337 2.5512c-.24557.46385-.43656.88677-.70941 1.4598h-.05457c-.32742-.57299-.53206-.99591-.79127-1.4598l-1.3643-2.5512h-1.3915l2.7285 4.8295z" fill="#5f656d" transform="translate(-.62892)"/></g></svg>