<svg height="64" viewBox="0 0 16.933 16.933" width="64" xmlns="http://www.w3.org/2000/svg"><g fill-rule="evenodd"><path d="m13 4c-2.77 0-5 2.23-5 5v46c0 2.77 2.23 5 5 5h38c2.77 0 5-2.23 5-5v-39l-12-12z" fill="#f4f4f4" opacity=".25" stroke="#000" stroke-width=".99999" transform="scale(.26458)"/><path d="m13 4c-2.77 0-5 2.23-5 5v46c0 2.77 2.23 5 5 5h38c2.77 0 5-2.23 5-5v-39l-12-12z" fill="#f4f4f4" transform="scale(.26458)"/><path d="m14.816 4.2332-3.1749-3.1749v1.852c0 .73288.59001 1.3229 1.3229 1.3229z" fill="#bbb"/></g><g fill="#b3b3b3"><g transform="scale(.26458)"><path d="m20 28c-2.216 0-4 1.784-4 4s1.784 4 4 4h6c1.483 0 2.7584-.80729 3.4492-2h-.44922-.79688c-.54683.6049-1.3196 1-2.2031 1h-6c-1.662 0-3-1.338-3-3s1.338-3 3-3h6c.88351 0 1.6563.3951 2.2031 1h.79688.44922c-.69084-1.1927-1.9662-2-3.4492-2z"/><path d="m38 28c-1.483 0-2.7584.80729-3.4492 2h.44922.79688c.54683-.6049 1.3196-1 2.2031-1h6c1.662 0 3 1.338 3 3s-1.338 3-3 3h-6c-.88351 0-1.6563-.3951-2.2031-1h-.79688-.44922c.69084 1.1927 1.9662 2 3.4492 2h6c2.216 0 4-1.784 4-4s-1.784-4-4-4z"/></g><path d="m7.6728 8.2019h1.5875c.14658 0 .26458.118.26458.26458s-.118.26458-.26458.26458h-1.5875c-.14658 0-.26458-.118-.26458-.26458s.118-.26458.26458-.26458z"/></g></svg>