<svg height="64" width="64" xmlns="http://www.w3.org/2000/svg"><g fill-rule="evenodd" transform="scale(3.7796)"><path d="m13 4c-2.77 0-5 2.23-5 5v46c0 2.77 2.23 5 5 5h38c2.77 0 5-2.23 5-5v-39l-12-12z" fill="#f4f4f4" opacity=".25" stroke="#000" stroke-width=".99999" transform="scale(.26458)"/><path d="m13 4c-2.77 0-5 2.23-5 5v46c0 2.77 2.23 5 5 5h38c2.77 0 5-2.23 5-5v-39l-12-12z" fill="#f4f4f4" transform="scale(.26458)"/><path d="m14.816 4.2332-3.1749-3.1749v1.852c0 .73288.59001 1.3229 1.3229 1.3229z" fill="#bbb"/></g><rect fill="#4f6596" fill-opacity=".267" height="5" rx="1" width="30" x="17" y="25"/><path d="m18 26h28v3h-28z" fill="#f2f2f2"/><rect fill="#4f6596" fill-opacity=".267" height="5" rx="1" width="30" x="17" y="32"/><path d="m18 33h28v3h-28z" fill="#f2f2f2"/><rect fill="#4f6596" fill-opacity=".267" height="5" rx="1" width="30" x="17" y="39"/><path d="m18 40h28v3h-28z" fill="#f2f2f2"/><rect fill="#4f6596" fill-opacity=".267" height="5" rx="1" width="30" x="17" y="46"/><path d="m18 47h28v3h-28z" fill="#f2f2f2"/></svg>