<svg height="64" viewBox="0 0 16.933 16.933" width="64" xmlns="http://www.w3.org/2000/svg"><g fill-rule="evenodd"><g><path d="m13 4c-2.77 0-5 2.23-5 5v46c0 2.77 2.23 5 5 5h38c2.77 0 5-2.23 5-5v-39l-12-12z" fill="#f4f4f4" opacity=".25" stroke="#000" stroke-width=".99999" transform="scale(.26458)"/><path d="m13 4c-2.77 0-5 2.23-5 5v46c0 2.77 2.23 5 5 5h38c2.77 0 5-2.23 5-5v-39l-12-12z" fill="#f4f4f4" transform="scale(.26458)"/><path d="m14.816 4.2332-3.1749-3.1749v1.852c0 .73288.59001 1.3229 1.3229 1.3229z" fill="#bbb"/></g><path clip-rule="evenodd" d="m9.2608 4.4978c.33263 1.3104-1.1733 1.7062-1.7168 2.5223-.37011.55604.18168 1.1535.93397 1.8322-.29336-.66316-1.2882-1.2433.0004-2.2611 1.6069-1.2684.7824-2.0934.7824-2.0934zm.99418 1.6213c.000018 0-2.7172.67846-1.4195 2.1738.38309.44098-.10049.83749-.10049.83749s.97214-.50173.52578-1.1304c-.41705-.58598-.73675-.87708.99425-1.8809zm.4812 2.6711c-.09547.000325-.19685.01689-.30085.05343-.08338.02952-.12714.09814-.12714.09814s.05272-.02122.17025-.04575c.48064-.10015 1.1693.64343-.31995 1.4171-.0069.01844-.02978.0391-.02976.0391 1.7711-.46559 1.3849-1.5635.60744-1.562zm-3.191.07551c-.11666-.0027-.621.0048-1.2237.29635-.8148.39398 2.0151.57346 3.4802.18811.15232-.10395.36272-.1942.36272-.1942s-.59924.10713-1.1963.15724c-.73082.06131-1.5148.07342-1.9083.02076-.9317-.12456.51076-.46722.51076-.46722s-.00873-.0007-.0254-.001zm-.31047.90144c-1.3441.44609.74823.95234 2.6267.40286-.19959-.07036-.32632-.19911-.32632-.19911-.91846.17676-1.449.17111-2.121.10174-.51952-.05369-.17946-.30549-.17946-.30549zm.18998.86891c-1.2204.341.74253 1.0454 2.2965.37961-.25451-.0989-.43705-.21309-.43705-.21309-.69296.13098-1.0144.1413-1.6434.06949-.51913-.05954-.216-.236-.216-.236zm-.84766.57609c-.54806.01691-1.6199.50969-.63969.66876 3.168.51351 5.7749-.2313 4.9532-.60204 0 0 .22444.18505-.24714.32812-.89672.27161-3.733.35353-4.5208.01087-.28299-.12326.24792-.29411.41497-.33019.17418-.03768.27365-.0308.27365-.0308-.04921-.03465-.13278-.04784-.23427-.04471zm4.8165.47096s-.09986.25639-1.1812.45982c-1.22.22968-2.725.2029-3.6173.05558 0 0 .18277.15132 1.1221.21178 1.4292.09137 3.6245-.05084 3.6765-.72717z" fill="#dd4f37" stroke-width=".25371"/></g></svg>