<svg height="64" viewBox="0 0 16.933 16.933" width="64" xmlns="http://www.w3.org/2000/svg"><g fill-rule="evenodd"><path d="m13 4c-2.77 0-5 2.23-5 5v46c0 2.77 2.23 5 5 5h38c2.77 0 5-2.23 5-5v-39l-12-12z" fill="#f4f4f4" opacity=".25" stroke="#000" stroke-width=".99999" transform="scale(.26458)"/><path d="m13 4c-2.77 0-5 2.23-5 5v46c0 2.77 2.23 5 5 5h38c2.77 0 5-2.23 5-5v-39l-12-12z" fill="#f4f4f4" transform="scale(.26458)"/><path d="m14.816 4.2332-3.1749-3.1749v1.852c0 .73288.59001 1.3229 1.3229 1.3229z" fill="#bbb"/></g><g fill="none" stroke="#999" stroke-width=".52916" transform="translate(-19.843 2.3149)"><ellipse cx="28.31" cy="3.7698" rx="3.4395" ry="1.3229" stroke-dashoffset="1" stroke-linejoin="round"/><path d="m24.87 3.7041v4.8286"/><g stroke-dashoffset="1" stroke-linejoin="round"><path d="m31.749 5.3573a3.4395 1.3229 0 0 1 -1.7198 1.1457 3.4395 1.3229 0 0 1 -3.4395 0 3.4395 1.3229 0 0 1 -1.7198-1.1457"/><path d="m31.749 6.9448a3.4395 1.3229 0 0 1 -1.7198 1.1457 3.4395 1.3229 0 0 1 -3.4395 0 3.4395 1.3229 0 0 1 -1.7198-1.1457"/><path d="m31.749 8.5323a3.4395 1.3229 0 0 1 -1.7198 1.1457 3.4395 1.3229 0 0 1 -3.4395 0 3.4395 1.3229 0 0 1 -1.7198-1.1457"/></g><path d="m31.749 3.7041v4.8286"/></g></svg>