<svg height="64" viewBox="0 0 16.933 16.933" width="64" xmlns="http://www.w3.org/2000/svg"><g fill-rule="evenodd"><path d="m13 4c-2.77 0-5 2.23-5 5v46c0 2.77 2.23 5 5 5h38c2.77 0 5-2.23 5-5v-39l-12-12z" fill="#f4f4f4" opacity=".25" stroke="#000" stroke-width=".99999" transform="scale(.26458)"/><path d="m13 4c-2.77 0-5 2.23-5 5v46c0 2.77 2.23 5 5 5h38c2.77 0 5-2.23 5-5v-39l-12-12z" fill="#f4f4f4" transform="scale(.26458)"/><path d="m14.816 4.2332-3.1749-3.1749v1.852c0 .73288.59001 1.3229 1.3229 1.3229z" fill="#bbb"/></g><path d="m5.8207 6.3499s-1.0583 0-1.0583 1.0583v2.1166c0 1.0583 1.0583 1.0583 1.0583 1.0583h1.5875v-.52916h-1.5875s-.52916 0-.52916-.52916v-2.1166c0-.52916.52916-.52916.52916-.52916h1.5875v-.52916zm3.1749 0v1.0583h-1.0583v.52916h1.0583v1.0583h-1.0583v.52916h1.0583v1.0583h.52916v-1.0583h1.0583v1.0583h.52916v-1.0583h1.0583v-.52916h-1.0583v-1.0583h1.0583v-.52916h-1.0583v-1.0583h-.52916v1.0583h-1.0583v-1.0583zm.52916 1.5875h1.0583v1.0583h-1.0583z" fill="#8c59d9"/></svg>