<svg height="64" width="64" xmlns="http://www.w3.org/2000/svg"><g fill-rule="evenodd" transform="scale(3.7796)"><path d="m13 4c-2.77 0-5 2.23-5 5v46c0 2.77 2.23 5 5 5h38c2.77 0 5-2.23 5-5v-39l-12-12z" fill="#f4f4f4" opacity=".25" stroke="#000" stroke-width=".99999" transform="scale(.26458)"/><path d="m13 4c-2.77 0-5 2.23-5 5v46c0 2.77 2.23 5 5 5h38c2.77 0 5-2.23 5-5v-39l-12-12z" fill="#f4f4f4" transform="scale(.26458)"/><path d="m14.816 4.2332-3.1749-3.1749v1.852c0 .73288.59001 1.3229 1.3229 1.3229z" fill="#bbb"/></g><path d="m19.5 24c-.277 0-.5.223-.5.5v1c0 .277.223.5.5.5h1c.277 0 .5-.223.5-.5v-1c0-.277-.223-.5-.5-.5zm5 0c-.277 0-.5.223-.5.5v1c0 .277.223.5.5.5h17c.277 0 .5-.223.5-.5v-1c0-.277-.223-.5-.5-.5zm-5 18c-.277 0-.5.223-.5.5v1c0 .277.223.5.5.5h1c.277 0 .5-.223.5-.5v-1c0-.277-.223-.5-.5-.5zm5 0c-.277 0-.5.223-.5.5v1c0 .277.223.5.5.5h17c.277 0 .5-.223.5-.5v-1c0-.277-.223-.5-.5-.5z" fill="#abacae"/><path d="m21.5 30c-.277 0-.5.223-.5.5v1c0 .277.223.5.5.5h1c.277 0 .5-.223.5-.5v-1c0-.277-.223-.5-.5-.5zm5 0c-.277 0-.5.223-.5.5v1c0 .277.223.5.5.5h17c.277 0 .5-.223.5-.5v-1c0-.277-.223-.5-.5-.5z" fill="#ed5353"/><path d="m21.5 36c-.277 0-.5.223-.5.5v1c0 .277.223.5.5.5h1c.277 0 .5-.223.5-.5v-1c0-.277-.223-.5-.5-.5zm5 0c-.277 0-.5.223-.5.5v1c0 .277.223.5.5.5h17c.277 0 .5-.223.5-.5v-1c0-.277-.223-.5-.5-.5z" fill="#68b723"/></svg>