<svg height="64" width="64" xmlns="http://www.w3.org/2000/svg"><path d="m13 4.0015c-2.77 0-5 2.2299-5 5v46.002c0 2.7699 2.23 5 5 5h38c2.77 0 5-2.2299 5-5v-39.002l-12-11.999z" fill="#2095f2" fill-rule="evenodd" stroke-width="3.7796"/><g stroke-width="3.7796"><path d="m55.999 16-12-12v6.9998c0 2.77 2.23 5 5 5z" fill="#fff" fill-rule="evenodd" opacity=".35"/><path d="m30.029 4.0001h4v55.999h-4z" fill="#fff" opacity=".25"/><path d="m14.026 44.002h13v7.9999h-13z" fill="#f9f9f9" opacity=".35"/><path d="m15.028 46.001v4h2v-4zm3 0v4h1v-4zm2 0v4h2v-4zm3 0v4h1v-4zm2 0v4h1v-4z" opacity=".35"/><path d="m31.998 4h2.0281v55.999h-2.0281z" fill="#fff" opacity=".25"/></g><path d="m39 40c-1.108 0-2 .892-2 2v12c0 1.108.892 2 2 2h12c1.108 0 2-.892 2-2v-12c0-1.108-.892-2-2-2zm0 2h12v2h-12zm0 4h9v3h-9zm10 0h2v3h-2zm-10 5h9v3h-9zm10 0h2v3h-2z" fill="#fff" opacity=".5"/></svg>