<svg height="16" width="16" xmlns="http://www.w3.org/2000/svg"><path d="m8 1c-3.8660125 0-7 3.1339875-7 7 0 3.86575 3.1339875 7 7 7 3.86575 0 7-3.13425 7-7 0-3.8660125-3.13425-7-7-7zm0 2c1.1451686 0 2.289086.3937827 3.216797 1.1757812-.24522.116178-.467516.2898617-.640625.5371094l-.6503908.9277344-.0351562.0507812c-1.178356-.9656115-2.9117143-.9125044-4.0117188.1875-.5856779.5856782-.8748917 1.3534688-.875 2.1210938h.296875a.69921389.57389046 0 0 1 .6054688.8613281l-.6503906.9238281-.6503906.9277348a.69921389.57389046 0 0 1 -1.2109376 0l-.6503906-.9277348-.6503906-.9238281a.69921389.57389046 0 0 1 .6054688-.8613281h.3027343c.0002059-1.2793417.4867858-2.5590515 1.4628907-3.5351562.9763106-.9763108 2.2555446-1.4648438 3.5351562-1.4648438zm3.962891 2a.69921389.57389046 0 0 1 .642578.2871094l.65039.9277344.650391.9238281a.69921389.57389046 0 0 1 -.605469.8613281h-.302734c-.000206 1.2793417-.486786 2.559051-1.462891 3.535156-.97631.976311-2.2555444 1.464844-3.535156 1.464844-1.1443061 0-2.2875051-.393007-3.2148438-1.173828.240815-.11403.462906-.287349.6386719-.53711v-.001953l.6503907-.927734.0351562-.050781c1.178356.965611 2.9117135.912505 4.011719-.1875.585678-.5856791.874892-1.353469.875-2.121094h-.296875a.69921389.57389046 0 0 1 -.605469-.8613281l.650391-.9238281.65039-.9277344a.69921389.57389046 0 0 1 .56836-.2871094z" fill="#dfdfdf"/><circle cx="14.5" cy="14.5" fill="#4285f4" r="1.5"/></svg>