<svg height="16" width="16" xmlns="http://www.w3.org/2000/svg" xmlns:xlink="http://www.w3.org/1999/xlink"><linearGradient id="a" gradientTransform="matrix(.85495515 0 0 .85495515 -2.129996 2.61742)" gradientUnits="userSpaceOnUse" x1="13.152" x2="20.621" y1="9.126" y2="9.126"><stop offset="0" stop-color="#fafafa"/><stop offset="1" stop-color="#d4d4d4"/></linearGradient><filter id="b" color-interpolation-filters="sRGB" height="1.1527" width="1.0961" x="-.048061" y="-.076366"><feGaussianBlur stdDeviation=".18772996"/></filter><linearGradient id="c" gradientTransform="matrix(1.5222658 0 0 1.5222658 -15.780274 -8.066794)" gradientUnits="userSpaceOnUse" x1="13.152" x2="20.621" xlink:href="#a" y1="9.126" y2="9.126"/><linearGradient id="d" gradientUnits="userSpaceOnUse" x1="7.999948" x2="7.999948" xlink:href="#a" y1="15.377293" y2="8.757864"/><path d="m7.9999479 9.0215314c-1.104569 0-2 .895431-2 2.0000006 0 1.104569.895431 2 2 2s2.0000001-.895431 2.0000001-2c0-1.1045696-.8954311-2.0000006-2.0000001-2.0000006zm-5 2.0000006c-1.104569 0-1.9999999.895431-1.9999999 2s.8954309 2 1.9999999 2 2-.895431 2-2-.895431-2-2-2zm10.0000001 0c-1.104569 0-2 .895431-2 2s.895431 2 2 2 2-.895431 2-2-.895431-2-2-2z" fill="url(#d)"/><g fill-rule="evenodd"><path d="m6.0429168 1.6410031c-1.6042268-.0004292-2.9051956 1.55234-2.90625 3.46875v.00195.00195c-1.2020211.0001375-2.17668692 1.1636176-2.17773437 2.5996156-.00075814 1.4375237.97443647 2.6033843 2.17773437 2.6035163h2.4765624c.3077981-1.0321351 1.258144-1.7949225 2.3867188-1.7949225 1.1119403 0 2.048982.7411365 2.371094 1.7500005 1.41229-.265972 2.452733-1.7197766 2.453125-3.4277349-.000152-1.9171729-1.301385-3.4711323-2.9062502-3.4707032-.4226793.0018362-.8399341.1138151-1.2226563.328125-.4661276-1.2520691-1.5052596-2.0593476-2.6523437-2.0605468z" filter="url(#b)" opacity=".3" stroke-width="1.364112"/><path d="m7.453073 1.3343625v.00195c-1.9285465.000559-3.4921996 1.6070399-3.4941406 3.5898468v.00195.00195c-1.4457697.0003909-2.6179368 1.2048996-2.6191406 2.6914125-.0008939 1.4880385 1.1718873 2.6949282 2.6191406 2.6953132h1.6542968c.3077981-1.0321351 1.258144-1.7949225 2.3867188-1.7949225s2.078921.7627874 2.386719 1.7949225h1.726562.002c1.930792.000552 3.49625-1.6086338 3.496094-3.5937507.000156-1.9851167-1.565302-3.594302-3.496094-3.59375-.508441.00195-1.010347.1179277-1.470703.3398438-.560436-1.2971481-1.8109471-2.1336283-3.191453-2.1347656z" fill="url(#c)" stroke-width="1.522266"/></g></svg>