<svg height="16" viewBox="0 0 4.2333333 4.2333333" width="16" xmlns="http://www.w3.org/2000/svg"><g transform="translate(-.000001 -292.76666)"><g transform="matrix(.29891262 0 0 .29644482 -.127632 209.49476)"><path d="m.79375 281.12497h12.7v11.641666h-12.7z" fill="#3689e6"/><path d="m1.058333 281.38956h12.170834v11.1125h-12.170834z" fill="#fafafa"/><path d="m.79375 281.12497h12.7v2.116667h-12.7z" fill="#3689e6"/></g><path d="m1.5794504 293.58971c-.00733.001-.014409.004-.019915.01l-.2547738.25472c-.010711.0108-.01273.0274-.00484.0404l.2982852.49127c-.052904.0889-.095306.18484-.1256119.286l-.54760346.1139c-.015236.003-.026213.0167-.026213.0323v.36025c0 .0153.0104235.0285.025104.032l.53150236.12992c.028344.11716.072265.22822.1303145.33031l-.3076442.46914c-.00858.0131-.00679.0304.0043.0414l.2546844.25473c.010712.0107.027435.0128.040496.005l.4820909-.29279c.094697.0547.1968238.0977.3047612.12681l.1124831.54082c.00317.0153.016711.0262.032246.0262h.3602935c.015147 0 .028365-.0104.03198-.0252l.1324898-.54204c.1112636-.03.2164954-.0748.3134987-.13191l.4750828.3115c.013063.009.030339.007.041428-.004l.254774-.25473c.010777-.0108.012706-.0274.00479-.0404l-.3242652-.41073c-.1455731-.19968-.1275243-.17923-.1806687-.23596-.1707874.33425-.5182618.56321-.9195165.56321-.5700791 0-1.0322664-.4622-1.0322664-1.03231 0-.4194.2501499-.78008.6092563-.94165v-.2663c-.065357.0229-.1285397.0504-.1885522.0831-.000044-.00004-.0000908-.00015-.0002563-.00031l-.4862593-.31892c-.00655-.005-.014139-.006-.021467-.005z" fill="#d4d4d4" stroke-width=".039919"/><g stroke-width=".053393"><ellipse cx="2.71414" cy="295.02621" fill="#206b00" rx="1.094552" ry="1.094552"/><ellipse cx="2.58042" cy="295.30798" fill="#fafafa" rx=".667409" ry=".66741"/><path d="m1.9931 295.26795.6406905.58732.3203791-.88098z" fill="#1a1a1a"/></g></g></svg>