<svg height="16" width="16" xmlns="http://www.w3.org/2000/svg"><rect fill="#ccc" height="16" rx="8" transform="matrix(0 -1 -1 0 0 0)" width="16" x="-16" y="-16"/><path d="m4.9289.61404c-.2983.12382-.5805.268-.8547.42186a1.1429 1.1429 0 0 0 1.0741.1057 1.1429 1.1429 0 0 0 .6817-.83602c-.30229.086-.60343.18463-.90114.30846zm-1.8326 1.0728c-.2376.1838-.4645.3772-.6771.5838a1.1429 1.1429 0 0 0 .0908-.03171 1.1429 1.1429 0 0 0 .58629-.55206zm3.8851-1.6158a1.1429 1.1429 0 0 0 .80486-.02653 1.1429 1.1429 0 0 0 .087937-.04141c-.29685.0051-.59457.02896-.8928.06794zm-4.252 2.6955a1.1429 1.1429 0 0 0 -.6163 1.4941 1.1429 1.1429 0 0 0 1.4941.6166 1.1429 1.1429 0 0 0 .6163-1.4944 1.1429 1.1429 0 0 0 -1.4941-.6163zm2.6381-1.0973a1.1429 1.1429 0 0 0 -.6164 1.4942 1.1429 1.1429 0 0 0 1.4942.6163 1.1429 1.1429 0 0 0 .6163-1.4941 1.1429 1.1429 0 0 0 -1.4941-.6164zm2.638-1.0972a1.1429 1.1429 0 0 0 -.6163 1.4941 1.1429 1.1429 0 0 0 1.4941.6163 1.1429 1.1429 0 0 0 .6164-1.4941 1.1429 1.1429 0 0 0 -1.4942-.61632zm-6.8942 3.3653c-.385.6525-.67393 1.3549-.8609 2.089a1.1429 1.1429 0 0 0 .71806-.052 1.1429 1.1429 0 0 0 .61634-1.4942 1.1429 1.1429 0 0 0 -.4735-.5428zm8.8634-3.6865a1.1429 1.1429 0 0 0 .05208.71811 1.1429 1.1429 0 0 0 1.4941.61634 1.1429 1.1429 0 0 0 .54279-.47356c-.653-.385-1.355-.67391-2.0895-.86088zm-8.7863 6.2509a1.1429 1.1429 0 0 0 -.61635 1.4941 1.1429 1.1429 0 0 0 1.4942.6164 1.1429 1.1429 0 0 0 .6163-1.4942 1.1429 1.1429 0 0 0 -1.4941-.6163zm2.6381-1.0973a1.1429 1.1429 0 0 0 -.6164 1.4942 1.1429 1.1429 0 0 0 1.4941.6163 1.1429 1.1429 0 0 0 .6164-1.4941 1.1429 1.1429 0 0 0 -1.4941-.6164zm2.6381-1.0972a1.1429 1.1429 0 0 0 -.6163 1.4941 1.1429 1.1429 0 0 0 1.4941.6163 1.1429 1.1429 0 0 0 .6163-1.4941 1.1429 1.1429 0 0 0 -1.4941-.6163zm2.6381-1.0973a1.1429 1.1429 0 0 0 -.6164 1.4941 1.1429 1.1429 0 0 0 1.4942.6164 1.1429 1.1429 0 0 0 .6165-1.4941 1.1429 1.1429 0 0 0 -1.4943-.6164zm2.6373-1.0972a1.1429 1.1429 0 0 0 -.616 1.4941 1.1429 1.1429 0 0 0 1.494.6163 1.1429 1.1429 0 0 0 .617-1.4941 1.1429 1.1429 0 0 0 -1.495-.6163zm-11.737 6.0148c.00513.29685.028957.59457.067943.8928a1.1429 1.1429 0 0 0 -.026514-.80457 1.1429 1.1429 0 0 0 -.041428-.088zm13.728-5.7085a1.1429 1.1429 0 0 0 .03171.09077 1.1429 1.1429 0 0 0 .55209.58628c-.184-.23748-.37771-.4644-.584-.67703zm-11.446 6.7212a1.1429 1.1429 0 0 0 -.6163 1.4938 1.1429 1.1429 0 0 0 1.4941.617 1.1429 1.1429 0 0 0 .6164-1.4945 1.1429 1.1429 0 0 0 -1.4942-.6163zm2.6381-1.0973a1.1429 1.1429 0 0 0 -.6163 1.4941 1.1429 1.1429 0 0 0 1.4941.616 1.1429 1.1429 0 0 0 .6163-1.4938 1.1429 1.1429 0 0 0 -1.4941-.6163zm2.6381-1.0973a1.1429 1.1429 0 0 0 -.6164 1.4942 1.1429 1.1429 0 0 0 1.4941.6163 1.1429 1.1429 0 0 0 .6164-1.4941 1.1429 1.1429 0 0 0 -1.4941-.6164zm2.6383-1.0977a1.1429 1.1429 0 0 0 -.6164 1.4941 1.1429 1.1429 0 0 0 1.4944.6164 1.1429 1.1429 0 0 0 .616-1.4941 1.1429 1.1429 0 0 0 -1.494-.6164zm2.638-1.0972a1.1429 1.1429 0 0 0 -.616 1.4941 1.1429 1.1429 0 0 0 1.494.6163 1.1429 1.1429 0 0 0 .616-1.4941 1.1429 1.1429 0 0 0 -1.494-.6163zm-12.533 5.4203c.086006.30244.18466.60383.3085.90154.12384.29774.26801.58017.42185.8544a1.1429 1.1429 0 0 0 .1057-1.074 1.1429 1.1429 0 0 0 -.83607-.682zm14.66-6.0975a1.1429 1.1429 0 0 0 -.10576 1.0738 1.1429 1.1429 0 0 0 .83611.68211c-.086-.3022-.184-.6034-.308-.9011-.124-.2983-.268-.5804-.422-.8547zm-11.582 7.704a1.1429 1.1429 0 0 0 -.6168 1.494 1.1429 1.1429 0 0 0 1.4941.616 1.1429 1.1429 0 0 0 .6166-1.494 1.1429 1.1429 0 0 0 -1.4943-.616zm2.6373-1.098a1.1429 1.1429 0 0 0 -.6163 1.494 1.1429 1.1429 0 0 0 1.4941.617 1.1429 1.1429 0 0 0 .6164-1.494 1.1429 1.1429 0 0 0 -1.4942-.617zm2.6381-1.0969a1.1429 1.1429 0 0 0 -.61634 1.4941 1.1429 1.1429 0 0 0 1.4941.61634 1.1429 1.1429 0 0 0 .6168-1.495 1.1429 1.1429 0 0 0 -1.4946-.6159zm2.6376-1.0972a1.1429 1.1429 0 0 0 -.61634 1.4941 1.1429 1.1429 0 0 0 1.4941.61634 1.1429 1.1429 0 0 0 .61634-1.4941 1.1429 1.1429 0 0 0 -1.4941-.61634zm2.6381-1.0973a1.1429 1.1429 0 0 0 -.61634 1.4941 1.1429 1.1429 0 0 0 1.4941.61634 1.1429 1.1429 0 0 0 .61634-1.4941 1.1429 1.1429 0 0 0 -1.4941-.61634zm-12.249 5.516c.18371.23753.37725.46443.58377.67703a1.1429 1.1429 0 0 0 -.031714-.09086 1.1429 1.1429 0 0 0 -.55206-.58628zm14.243-5.924a1.1429 1.1429 0 0 0 .02654.80486 1.1429 1.1429 0 0 0 .04141.08794c-.0051-.29685-.02895-.59457-.06794-.8928zm-11.449 7.434a1.1429 1.1429 0 0 0 -.54279.47356c.65251.38495 1.3549.67389 2.089.86086a1.1429 1.1429 0 0 0 -.052-.71828 1.1429 1.1429 0 0 0 -1.4942-.616zm2.6381-1.0973a1.1429 1.1429 0 0 0 -.61634 1.4941 1.1429 1.1429 0 0 0 1.4941.61634 1.1429 1.1429 0 0 0 .61634-1.4941 1.1429 1.1429 0 0 0 -1.4941-.61634zm2.6381-1.0973a1.1429 1.1429 0 0 0 -.61634 1.4941 1.1429 1.1429 0 0 0 1.4941.61634 1.1429 1.1429 0 0 0 .61634-1.4941 1.1429 1.1429 0 0 0 -1.4941-.61634zm2.6381-1.0973a1.1429 1.1429 0 0 0 -.61634 1.4941 1.1429 1.1429 0 0 0 1.4941.61634 1.1429 1.1429 0 0 0 .61634-1.4941 1.1429 1.1429 0 0 0 -1.4941-.61634zm2.6381-1.0973a1.1429 1.1429 0 0 0 -.61634 1.4941 1.1429 1.1429 0 0 0 .47356.54279c.38495-.65251.67389-1.3549.86086-2.089a1.1429 1.1429 0 0 0 -.71811.05208zm-6.8177 5.9291a1.1429 1.1429 0 0 0 -.08794.04141c.29685-.0051.59457-.02895.8928-.06794a1.1429 1.1429 0 0 0 -.80486.02654zm2.6381-1.0973a1.1429 1.1429 0 0 0 -.68211.83612c.30244-.08601.60383-.18466.90154-.3085.29774-.12384.58017-.268.8544-.42185a1.1429 1.1429 0 0 0 -1.0738-.10576zm2.6381-1.0973a1.1429 1.1429 0 0 0 -.58629.55209c.23753-.18371.46443-.37725.67703-.58377a1.1429 1.1429 0 0 0 -.09077.03171z" fill="#fff" opacity=".4"/></svg>