<svg height="16" viewBox="0 0 4.2333333 4.2333333" width="16" xmlns="http://www.w3.org/2000/svg"><g transform="translate(-.000001 -292.76666)"><path d="m.132293 293.07935h3.96875v3.607955h-3.96875z" fill="#3689e6"/><path d="m.264585 293.11539h3.704167v3.439583h-3.704167z" fill="#fafafa"/><path d="m.132293 293.07935h3.96875v.655992h-3.96875z" fill="#3689e6"/><path d="m1.8013695 293.90918-.027831.33256a.99204999.99204999 0 0 0 -.2899347.16769l-.3022655-.14232-.31565242.54675.27443482.19059a.99204999.99204999 0 0 0 -.015147.16734.99204999.99204999 0 0 0 .014447.16804l-.27372976.18988.31565226.54676.3015606-.14197a.99204999.99204999 0 0 0 .2906394.16663l.027126.33362h.6313044l.02783-.33257a.99204999.99204999 0 0 0 .2899353-.16768l.3022655.14233.315652-.54677-.2744342-.19058a.99204999.99204999 0 0 0 .01515-.16734.99204999.99204999 0 0 0 -.014444-.16804l.2737295-.18989-.315652-.54674-.3015608.14196a.99204999.99204999 0 0 0 -.2906393-.16663l-.027126-.33362zm.3156523.90186a.36074546.36074546 0 0 1 .3607453.36075.36074546.36074546 0 0 1 -.3607453.36074.36074546.36074546 0 0 1 -.3607456-.36074.36074546.36074546 0 0 1 .3607456-.36075z" fill="#7e8087" stroke-width=".180373"/></g></svg>