<svg height="16" width="16" xmlns="http://www.w3.org/2000/svg"><g transform="matrix(1.1667 0 0 1.1429 -1.3337 -1.1429)"><path d="m6.4571 1.0001c-.37987 0-.68569.31219-.68569.69998v6.9841l-2.1153-2.1595c-.26861-.27421-.70102-.27421-.9696 0l-.4849.4949c-.26861.27421-.26861.71559 0 .98981l3.6856 3.7626a4.1142 4.1999 0 0 0 3.9983 3.2279 4.1142 4.1999 0 0 0 4.1142-4.1999v-9.0998c0-.38779-.30582-.69998-.68569-.69998h-.68569c-.37987 0-.68569.31219-.68569.69998v3.949c0-.24897-.30582-.44911-.68569-.44911h-.68569c-.37987 0-.68569.20014-.68569.44911v.00273c0-.25046-.30582-.45184-.68569-.45184h-.68569c-.37987 0-.68569.20138-.68569.45184v-3.9518c0-.38779-.30582-.69998-.68569-.69998h-.68569z" fill="#fabd7f"/><path d="m6.8322 1.2296c-.37885 0-.71792.24041-.71792.82031s.307 1.05.68569 1.05c.3787 0 .68569-.47007.68569-1.05 0-.5799-.27485-.82031-.65353-.82031zm6.139 0c-.37871 0-.68569.24041-.68569.82031s.307 1.05.68569 1.05c.3787 0 .68569-.47007.68569-1.05 0-.5799-.30685-.82031-.68569-.82031zm-10.024 5.4791c-.095.0075-.1977.0574-.3207.1299-.328.1932-.6778.4746-.3937.9768.284.5022.7802.7524 1.1082.5592.3279-.1933.3637-.757.0797-1.2592-.1776-.3139-.3151-.4193-.4735-.4067z" fill="#facea2"/><path d="m6.4571 1.0001c-.37987 0-.68569.31219-.68569.69998v6.9841l-2.1153-2.1595c-.26861-.27421-.70102-.27421-.9696 0l-.4849.4949c-.26861.27421-.26861.71559 0 .98981l3.6856 3.7626c.44063 1.8908 2.0945 3.2259 3.9983 3.2279 2.2722 0 4.1142-1.8804 4.1142-4.1999v-9.0998c0-.38779-.30582-.69998-.68569-.69998h-.68569c-.37987 0-.68569.31219-.68569.69998v3.949c0-.24897-.30582-.44911-.68569-.44911h-.68569c-.37987 0-.68569.20014-.68569.44911v.00273c0-.25046-.30582-.45184-.68569-.45184h-.68569c-.37987 0-.68569.20138-.68569.45184v-3.9518c0-.38779-.30582-.69998-.68569-.69998zm0 .52499h.68569c.10387 0 .17142.068966.17142.175v6.1917c.00998.61542.87038.67902 1.0138.081198.031072-.016502.095082-2.248.18616-2.248h.68569c.091074 0 .15508 1.8815.18616 1.898.12806.53342.871.53342.99909 0 .03158-.016492.09515-1.898.18616-1.898h.68569c.09132 0 .15544 2.3365.18682 2.353.14619.59541 1.0032.52971 1.0131-.083998v-6.2939c0-.10603.06756-.175.17142-.175h.68569c.10387 0 .17142.068966.17142.175v9.0998c0 2.0356-1.6053 3.6746-3.5992 3.6749-1.6686-.0017-3.1126-1.1674-3.4987-2.8245-.022055-.09446-.069341-.18083-.1366-.24951l-3.6852-3.7627c-.073489-.075021-.073489-.17243 0-.24745l.4848-.4949c.073489-.075021.16891-.075021.2424 0l2.1153 2.1594c.32399.33051.87769.096391.87786-.37117v-6.9841c0-.10603.067558-.175.17142-.175z" fill="#e8a560"/></g></svg>