<svg height="16" viewBox="0 0 16 16" width="16" xmlns="http://www.w3.org/2000/svg"><rect fill="#de554c" height="16" rx=".8" transform="matrix(0 -1 -1 0 0 0)" width="16" x="-16" y="-16"/><path d="m3.5 4.0004c-.8284 0-1.5.6716-1.5 1.5s.6716 1.5 1.5 1.5c.35452 0 .68074-.12249.93749-.32812l1.1582.7187a2 2 0 0 0 -.0955.609 2 2 0 0 0 .0975.6085l-1.16.7194c-.2567-.2055-.583-.328-.9375-.328-.8284 0-1.5.6716-1.5 1.5001 0 .82839.67159 1.5 1.5 1.5.82839 0 1.5-.67149 1.5-1.5 0-.1155-.022-.22-.046999-.328l1.1689-.7266a2 2 0 0 0 1.378.5545 2 2 0 0 0 1.38-.5535l1.167.72549c-.025.108-.047.2125-.047.328 0 .82839.67159 1.5 1.5 1.5.828 0 1.5-.672 1.5-1.5 0-.8285-.672-1.5001-1.5-1.5001-.35452 0-.68074.12249-.93749.32812l-1.1585-.7195a2 2 0 0 0 .0955-.6085 2 2 0 0 0 -.0965-.6075l1.159-.72049c.2565.2055.58299.328.93749.328.82839 0 1.5-.67159 1.5-1.5 0-.82839-.67159-1.5-1.5-1.5-.82839 0-1.5.67159-1.5 1.5 0 .11563.02218.22.04687.32812l-1.168.7266a2 2 0 0 0 -1.378-.5545 2 2 0 0 0 -1.38.5535l-1.167-.7255c.025-.108.046999-.2125.046999-.328 0-.82839-.67159-1.5-1.5-1.5z" fill="#ffb668"/></svg>