<svg height="16" width="16" xmlns="http://www.w3.org/2000/svg"><rect fill="#5db43e" height="16" rx="8" transform="matrix(0 -1 -1 0 0 0)" width="16" x="-16" y="-16"/><g fill="#fff"><path d="m11.084 3c-2.2213 0-2.6379 3-1.3882 3 1.2492 0 3.6092-2.9998 1.3882-2.9998z"/><path d="m7.6143 3.5c-.02355-.0001112-.049153.00278-.075655.00626-.8471.136-.5489 1.9593-.098 1.9933.4367.0332.9145-1.9963.1734-1.9994z"/><path d="m6.0689 4.0009c-.060371-.0047-.1272.00942-.20161.046927-.7932.4014-.1204 2.0582.3236 1.9468.4031-.1009.4608-1.9472-.122-1.9938z"/><path d="m4.9637 5.0001c-.0707-.0025-.1471.0284-.2288.1053-.6518.615.2193 2.1009.6029 1.8706.3354-.2018.1214-1.9532-.3742-1.9759z"/><path d="m9.0061 6.0007c-1.5558-.0289-3.6083.8283-3.9584 2.5502-.3787 1.8631 1.5612 4.4491 3.5845 4.4491.9955 0 2.1438-.988 2.3588-2.239.164-.9536-1.9309-.571-1.8557.06.0903.756-.5053 1.13-1.0885.643-1.8565-1.553 3.0742-2.3278 2.7492-4.449-.102-.6603-.8563-.9966-1.7898-1.014z"/></g></svg>