<svg height="16" width="16" xmlns="http://www.w3.org/2000/svg"><rect fill="#4ab3e4" height="14" rx=".643" ry=".75" transform="matrix(0 -1 -1 0 0 0)" width="12" x="-14" y="-15"/><g fill="#f5f5f5"><path d="m.34961 3c-.1939 0-.34961.1484-.34961.333v4.334c.00000004.1845.15571.333.34961.333h6.301c.194 0 .3495-.1485.3495-.333v-4.334c0-.18465-.1555-.333-.3495-.333z"/><path d="m9.3495 3c-.194 0-.3495.14835-.3495.333v4.334c0 .1845.1555.333.3495.333h6.3015c.194 0 .349-.1485.349-.333v-4.334c0-.1846-.155-.333-.349-.333h-6.301z"/><path d="m4.3995 10c-.2216 0-.3995.149-.3995.333v4.334c0 .185.1779.333.3995.333h7.201c.222 0 .4-.148.4-.333v-4.334c0-.1845-.17771-.333-.39942-.333h-7.201z"/></g></svg>