<svg height="16" viewBox="0 0 16 16" width="16" xmlns="http://www.w3.org/2000/svg"><circle cx="8" cy="8" fill="#448aff" r="7.5" stroke-width=".267857"/><g fill="#fafafa" stroke-width=".013555"><path d="m6.6214676 8.3578448h-3.1067395c.1735003 2.1999292 1.9288352 3.9552642 4.1287647 4.1287642v-3.135204c-.4933915-.1247033-.8837671-.5055907-1.0220252-.9935602z"/><path d="m7.6434928 6.5889551v-3.0755637c-2.1931521.1735003-3.9444206 1.9179915-4.1274092 4.1084326h3.0945403c.1274142-.5069462.5259227-.9054546 1.0328689-1.0328689z"/><path d="m9.3717183 7.621824h3.1135167c-.180277-2.1836638-1.922058-3.925444-4.1057215-4.1070771v3.085052c.4879696.138258.8688569.5286337.9922048 1.0220251z"/><path d="m-.909091 12.664472h1.931528v3.525547h-1.931528z" transform="matrix(.70710678 -.70710678 .70710678 .70710678 0 0)"/></g></svg>