<svg height="16" viewBox="0 0 16 16" width="16" xmlns="http://www.w3.org/2000/svg"><ellipse cx="8" cy="8" fill="#3a9104" rx="7.5" ry="7.500001" stroke-width=".365854"/><path d="m8.0859066 2.1369717a5.8645218 5.8637747 0 0 0 -4.2323069 1.7179034 5.8645218 5.8637747 0 0 0 0 8.2917439 5.8645218 5.8637747 0 0 0 8.2928003 0 5.8645218 5.8637747 0 0 0 0-8.2917439 5.8645218 5.8637747 0 0 0 -4.0604934-1.7179034zm-.1603579.732972a5.1314571 5.1308036 0 0 1 3.4305153 1.2569324l-1.02944 1.0293101a5.8641484 3.6650927 44.991678 0 0 -3.9760204-2.0099465 5.1314571 5.1308036 0 0 1 1.5749451-.276296zm-2.2192404.9577312a5.13113 2.932074 44.992816 0 1 4.1005837 1.8481762l-1.8068917 1.8066614-3.3360191-3.3355939a5.13113 2.932074 44.992816 0 1 1.0423271-.3192437zm6.1723517.8131404a5.1314571 5.1308036 0 0 1 .979329 4.9919394 5.8641484 3.6650927 44.991678 0 0 -2.015929-3.9554715zm-7.7344103.0229091 3.337451 3.3370266-1.8083231 1.8080924a5.13113 2.932074 44.992816 0 1 -1.5291279-5.1451216zm6.1823743 1.5289324a5.13113 2.932074 44.992816 0 1 1.529128 5.1451192l-3.3374513-3.3370256zm-7.1846123.1760858a5.8641484 3.6650927 44.991678 0 0 2.0159296 3.9554714l-1.0365998 1.036468a5.1314571 5.1308036 0 0 1 -.9793298-4.9919394zm4.8579886 2.1502412 3.3360207 3.3355952a5.13113 2.932074 44.992816 0 1 -5.1429111-1.528935zm-2.3266227 2.3263272a5.8641484 3.6650927 44.991678 0 0 3.9760205 2.009947 5.1314571 5.1308036 0 0 1 -5.0054618-.980637z" fill="#fafafa" stroke-width=".733019"/></svg>