<svg height="16" width="16" xmlns="http://www.w3.org/2000/svg" xmlns:xlink="http://www.w3.org/1999/xlink"><filter id="a" color-interpolation-filters="sRGB" height="1.0276" width="1.021231" x="-.010615" y="-.0138"><feGaussianBlur stdDeviation=".17844827"/></filter><g stroke-width="3.545621" transform="matrix(.20312499 0 0 .20454545 -15.650207 -.452742)"><path d="m87.877948 3.4356272v3.9285715h-9.6v3.9285713 43.214286c0 2.176428 1.4272 3.928571 3.2 3.928571h25.600002c1.7728 0 3.2-1.752143 3.2-3.928571v-43.214286-3.9285713h-9.6v-3.9285715z" fill="#f9c440"/><path d="m78.277948 23.078484v31.428572c0 2.176428 1.4272 3.928571 3.2 3.928571h25.600002c1.7728 0 3.2-1.752143 3.2-3.928571v-31.428572z" fill="#0e141f"/></g><rect fill="#1a1a1a" height="11.25" rx=".484914" stroke-width=".193966" transform="matrix(0 -1 -1 0 0 0)" width="1.357759" x="-15.25" y="-15.75"/><rect filter="url(#a)" height="31.034483" opacity=".2" rx="1.939655" stroke-width=".775862" transform="scale(.25)" width="40.344826" x="20.327579" y="26.310516"/><g stroke-width=".193966"><rect fill="#1a1a1a" height="7.75862" rx=".484914" width="10.086206" x="5.081895" y="6.327586"/><path d="m5.857757 7.103448h8.534483v6.206896h-8.534483z" fill="#3689e6"/></g></svg>