<svg height="16" viewBox="0 0 16 16" width="16" xmlns="http://www.w3.org/2000/svg"><g transform="matrix(.79487187 0 0 .79487187 -1.538462 -1.538462)"><path d="m6.3991311 2.2516695c-.043951.00452-.086399.023974-.1194093.057174l-1.527638 1.5273642c-.064228.064412-.076328.1642953-.028976.242286l1.7885348 2.9456991c-.3172154.5332974-.5714632 1.1082899-.7531762 1.7148646l-3.2834617.6829637c-.0913556.0189078-.1571744.0998651-.1571744.1936153v2.1600736c0 .09135.0625.170474.150525.191753l3.1869184.778974c.169948.702514.4333052 1.368462.7813738 1.980554l-1.8446527 2.812986c-.051465.07861-.040709.18218.025784.2484l1.5271024 1.527374c.064228.06405.1644978.07662.2428174.02949l2.8906447-1.755556c.5678091.327658 1.1801667.585505 1.8273667.760367l.674455 3.242761c.01898.09189.100201.157185.193348.157185h2.160341c.09082 0 .170075-.06197.191752-.151069l.794397-3.24941c.667145-.180046 1.29812-.448395 1.879757-.790945l2.848625 1.867788c.07833.05156.181915.04125.2484-.02524l1.527639-1.527373c.06462-.06459.07619-.164485.02871-.242277l-1.944309-2.462793c-.872865-1.19727-.764643-1.074623-1.083301-1.414832-1.024051 2.004219-3.107527 3.377068-5.513473 3.377068-3.4182277 0-6.1895293-2.771362-6.1895293-6.189791 0-2.5147188 1.4999133-4.6773805 3.6531363-5.6461803v-1.5967755c-.391881.1370921-.7707303.3023826-1.1305687.4983951-.0002638-.0002444-.0005442-.0008964-.0015367-.0018248l-2.9156385-1.9123085c-.0392676-.0256941-.0847782-.0359152-.1287192-.031392z" fill="#d4d4d4" stroke-width=".239358"/><g stroke-width=".320146"><ellipse cx="13.202797" cy="10.865034" fill="#206b00" rx="6.562994" ry="6.562995"/><ellipse cx="12.401004" cy="12.55461" fill="#fafafa" rx="4.001825" ry="4.001826"/><path d="m8.8793983 12.314501 3.8416167 3.521606 1.921011-5.282409z" fill="#1a1a1a"/></g></g></svg>