<svg height="64" width="64" xmlns="http://www.w3.org/2000/svg" xmlns:xlink="http://www.w3.org/1999/xlink"><linearGradient id="a" gradientTransform="matrix(.78261 0 0 1 83.25419 -8.00002)" gradientUnits="userSpaceOnUse" x2="0" y1="557.79803" y2="505.798"><stop offset="0" stop-color="#197cf1"/><stop offset="1" stop-color="#20bcfa"/></linearGradient><linearGradient id="b" gradientUnits="userSpaceOnUse" x1="23.999987" x2="43.999985" y1="36.00002" y2="56.00002"><stop offset="0" stop-color="#020303"/><stop offset="1" stop-color="#424649" stop-opacity="0"/></linearGradient><linearGradient id="c" gradientUnits="userSpaceOnUse" x2="0" y1="52.00002" y2="36.00002"><stop offset="0" stop-color="#7cbaf8"/><stop offset="1" stop-color="#f4fcff"/></linearGradient><linearGradient id="d" gradientTransform="matrix(.63587062 0 0 1 144.25118 -30.99993)" gradientUnits="userSpaceOnUse" x2="0" y1="551.79791" y2="528.79791"><stop offset="0" stop-color="#c6cdd1"/><stop offset="1" stop-color="#e0e5e7"/></linearGradient><linearGradient id="e" gradientTransform="matrix(2 0 0 2 -384.5714 -537.79802)" gradientUnits="userSpaceOnUse" x1="398.57144" x2="400.57144" xlink:href="#f"/><linearGradient id="f"><stop offset="0" stop-color="#faae2a"/><stop offset="1" stop-color="#ffc35a"/></linearGradient><linearGradient id="g" gradientTransform="matrix(2 0 0 2 -396.57143 -537.79802)" gradientUnits="userSpaceOnUse" x1="398.57144" x2="400.57144" xlink:href="#f"/><g transform="translate(-376.57144 -491.79797)"><path d="m395.57144 497.79813h26v23.999866h-26z" fill="url(#d)"/><path d="m392.57144 520.79797h32v28.999859h-32z" fill="url(#a)"/><path d="m28.707031 36.292969-1.414062 1.414062 8 8-.292969.292969 12 12h1v-9l-8-8-3.292969 3.292969zm-2.146484 6.146484-2.121094 2.121094 5.5 5.5-1.353515 1.353515 6.585937 6.585938h6.951172z" fill="url(#b)" opacity=".2" transform="translate(376.57144 491.79797)"/><path d="m28 36c-.554 0-1 .446-1 1s.446 1 1 1 1-.446 1-1-.446-1-1-1zm7 0-2 2 3 3-3 3 2 2 3-3 2-2zm-9.5 6c-.831 0-1.5.669-1.5 1.5s.669 1.5 1.5 1.5 1.5-.669 1.5-1.5-.669-1.5-1.5-1.5zm4.5 6c-1.108 0-2 .892-2 2s.892 2 2 2 2-.892 2-2-.892-2-2-2z" fill="url(#c)" transform="translate(376.57144 491.79797)"/><path d="m392.57144 548.79797h32v1.00002h-32z" fill="#0c69cf" stroke-opacity=".550265" stroke-width="2.8"/><path d="m398.57144 501.79794h8.00005v8.00005h-8.00005z" fill="#23262c"/><path d="m410.57153 501.79794h8.00005v8.00005h-8.00005z" fill="#23262c"/><path d="m400.57144 501.79794h4.00002v8h-4.00002z" fill="url(#g)"/><path d="m412.57153 501.79794h4.00002v8h-4.00002z" fill="url(#e)"/></g></svg>