<svg height="64" width="64" xmlns="http://www.w3.org/2000/svg" xmlns:xlink="http://www.w3.org/1999/xlink"><linearGradient id="a" gradientTransform="matrix(1.0833331 0 0 1.0909092 -34.04753 -49.799908)" gradientUnits="userSpaceOnUse" x2="0" y1="536.79797" y2="503.798"><stop offset="0" stop-color="#2a2c2f"/><stop offset="1" stop-color="#424649"/></linearGradient><linearGradient id="b" gradientTransform="matrix(1.1666674 0 0 1.0909092 -68.09551 -49.799906)" gradientUnits="userSpaceOnUse" x2="0" y1="547.79797" y2="536.79797"><stop offset="0" stop-color="#c6cdd1"/><stop offset="1" stop-color="#e0e5e7"/></linearGradient><linearGradient id="c" gradientTransform="matrix(1.0871079 0 0 1.1000002 -44.37026 -47.979912)" gradientUnits="userSpaceOnUse" x2="0" y1="541.79797" y2="489.798"><stop offset="0" stop-color="#7e8f9e"/><stop offset="1" stop-color="#84ced5"/></linearGradient><linearGradient id="d" gradientTransform="matrix(1.0999997 0 0 1.1428564 -49.45702 -70.68505)" gradientUnits="userSpaceOnUse" x1="394.57144" x2="404.57144" y1="535.79797" y2="522.79797"><stop offset="0" stop-color="#e4a56d"/><stop offset="1" stop-color="#a7bd78"/></linearGradient><linearGradient id="e" gradientTransform="matrix(1.0795244 0 0 1.1428567 -41.17329 -70.68516)" gradientUnits="userSpaceOnUse" x1="404.57144" x2="421.57144"><stop offset="0" stop-color="#c3a278"/><stop offset="1" stop-color="#68a"/></linearGradient><linearGradient id="f" gradientTransform="matrix(1.1078085 0 0 1.1428564 -53.44897 -70.68506)" gradientUnits="userSpaceOnUse" x1="430.57144" x2="437.49963" y1="536.79797" y2="524.79797"><stop offset="0" stop-color="#6588af"/><stop offset="1" stop-color="#8ba8cd"/></linearGradient><linearGradient id="g" gradientTransform="matrix(1.0489857 0 0 1.1000002 -27.650967 -47.979911)" gradientUnits="userSpaceOnUse" x1="421.57144" x2="438.57144"><stop offset="0" stop-color="#89ad8b"/><stop offset="1" stop-color="#82b3c7"/></linearGradient><linearGradient id="h" gradientTransform="matrix(1.0999997 0 0 1.2751426 -49.45702 -137.41797)" gradientUnits="userSpaceOnUse" x1="387.57144" x2="401.57144" y1="525.79797" y2="513.79797"><stop offset="0" stop-color="#e1b16f"/><stop offset="1" stop-color="#99bf83"/></linearGradient><linearGradient id="i" gradientTransform="matrix(1.0999997 0 0 1.1000002 -49.45702 -47.979912)" gradientUnits="userSpaceOnUse" x1="404.57144" x2="391.57144" y1="510.798" y2="498.798"><stop offset="0" stop-color="#99c487"/><stop offset="1" stop-color="#b4d99e"/></linearGradient><linearGradient id="j" gradientTransform="matrix(1.1176469 0 0 1.1000002 -56.59659 -47.979912)" gradientUnits="userSpaceOnUse" x1="404.57144" x2="421.57144" y1="501.798" y2="501.61618"><stop offset="0" stop-color="#75d5c7"/><stop offset="1" stop-color="#66afb9"/></linearGradient><linearGradient id="k" gradientTransform="matrix(1.0489851 0 0 1.062501 -27.650709 -29.23788)" gradientUnits="userSpaceOnUse" x1="428.57144" x2="438.57144" y1="495.798" y2="504.798"><stop offset="0" stop-color="#5c7b9e"/><stop offset="1" stop-color="#839dc0"/></linearGradient><linearGradient id="l" gradientTransform="matrix(1.0871079 0 0 1.1000002 -44.37026 -47.979912)" gradientUnits="userSpaceOnUse" x1="421.57144" x2="406.57144"><stop offset="0" stop-color="#7fbcc6"/><stop offset="1" stop-color="#8ee4e3"/></linearGradient><linearGradient id="m" gradientTransform="matrix(1.0871079 0 0 1.1000002 -44.37026 -47.979912)" gradientUnits="userSpaceOnUse" x1="421.57144" x2="436.57144"><stop offset="0" stop-color="#84d5d7"/><stop offset="1" stop-color="#84a8ba"/></linearGradient><g transform="translate(-376.57144 -491.79797)"><path d="m401.57143 535.79797v7.63636 2.18182 2.18182h14v-2.18182-2.18182-7.63636z" fill="url(#b)" stroke-opacity=".550265" stroke-width="2.8"/><path d="m382.57144 499.79797h51.999989v39.27273h-51.999989z" fill="url(#a)" stroke-opacity=".550265" stroke-width="2.8"/><path d="m384.57143 501.79798v33h47.83274v-33z" fill="url(#c)"/><g fill-rule="evenodd"><path d="m395.57143 518.79799-11 9.41072v6.58927h11z" fill="url(#d)"/><path d="m395.57143 519.798v14.99998h18.35191z" fill="url(#e)"/><path d="m432.57143 518.79799-19 15.99999 19 .00001z" fill="url(#f)"/><path d="m414.57143 528.19798v-24.39999l18 15-18 15.99999z" fill="url(#g)"/><path d="m384.57143 509.79799v21.00001l11-11z" fill="url(#h)"/><path d="m384.57143 501.79798v8.54219l11 9.45783v-7.00002-11z" fill="url(#i)"/><path d="m395.57143 501.79798v11 7.00002l19-16.00001-3-2z" fill="url(#j)"/><path d="m417.12013 501.79798-2.5487 2.00001 18 15v-6-11z" fill="url(#k)"/><path d="m411.57143 501.79799 3 2v-2z" fill="url(#l)"/><path d="m414.57143 501.79799v2l3-2z" fill="url(#m)"/></g><path d="m396.57144 546.79797h23.999969v1.00002h-23.999969z" fill="#99a1a7" stroke-opacity=".550265" stroke-width="2.8"/><path d="m384.57144 530.79797h47.999989v3.999983h-47.999989z" fill="#fff" fill-opacity=".784314"/><circle cx="429.57144" cy="532.79791" fill="#4d4d4d" r="1"/><path d="m386.57143 531.79799v1h1v-1zm1 1v1h1v-1z" fill="#4d4d4d"/><path d="m386.57144 503.798h19.999987v16.999994h-19.999987z" fill="#fff" fill-opacity=".784314"/><path d="m387.57143 504.79799v4h4.16667v-3h-1.04167l-1.04166-1z" fill="#3580ca"/><path d="m395.57143 504.79799v5h4v-3l-2-2z" fill="#f95"/><path d="m397.57143 504.79799 2 2h-2z" fill="#d45500" fill-rule="evenodd"/><path d="m387.57143 505.79799h5v4h-5z" fill="#7aabdc"/><path d="m401.57143 504.79799v5h4v-3l-2-2z" fill="#71c837"/><path d="m403.57143 504.79799 2 2h-2z" fill="#447821" fill-rule="evenodd"/></g></svg>