<svg height="64" width="64" xmlns="http://www.w3.org/2000/svg" xmlns:xlink="http://www.w3.org/1999/xlink"><linearGradient id="a" gradientUnits="userSpaceOnUse" x2="0" y1="54" y2="12"><stop offset="0" stop-color="#63984b"/><stop offset="1" stop-color="#8fc278"/></linearGradient><linearGradient id="b" gradientTransform="matrix(.625 0 0 .54839315 437.17147 -33.374703)" gradientUnits="userSpaceOnUse" x2="0" y1="1043.3622" y2="1012.3622"><stop offset="0" stop-color="#2a2c2f"/><stop offset="1" stop-color="#424649"/></linearGradient><linearGradient id="c"><stop offset="0" stop-color="#22a7f0"/><stop offset="1" stop-color="#19b5fe"/></linearGradient><linearGradient id="d" gradientTransform="translate(-376.5722 -485.79797)" gradientUnits="userSpaceOnUse" x2="0" xlink:href="#c" y1="523.79797" y2="516.79797"/><linearGradient id="e" gradientTransform="translate(-376.5722 -479.79797)" gradientUnits="userSpaceOnUse" x2="0" xlink:href="#c" y1="523.79797" y2="516.79797"/><linearGradient id="f"><stop offset="0" stop-color="#292c2f"/><stop offset="1" stop-opacity="0"/></linearGradient><linearGradient id="g" gradientUnits="userSpaceOnUse" x1="20" x2="48" xlink:href="#f" y1="20" y2="48"/><linearGradient id="h" gradientUnits="userSpaceOnUse" x1="-6" x2="24" xlink:href="#f" y1="18" y2="48"/><linearGradient id="i" gradientUnits="userSpaceOnUse" x1="-6" x2="24" xlink:href="#f" y1="24" y2="54"/><g transform="translate(-376.57144 -491.79797)"><path d="m6 12v42h4v-4h12v4h30v-4h6v-26h-18-30v-10-2z" fill="url(#a)" transform="translate(376.57144 491.79797)"/><g fill-rule="evenodd"><path d="m15 40-5 4 6 6h6v4h7z" fill="url(#i)" opacity=".2" transform="translate(376.57144 491.79797)"/><path d="m15 34-5 4 12 12 4 4h9z" fill="url(#h)" opacity=".2" transform="translate(376.57144 491.79797)"/><path d="m48 30-20 17 6 7h18v-4h6v-10z" fill="url(#g)" opacity=".2" transform="translate(376.57144 491.79797)"/></g><path d="m398.57144 544.79797h29.999998v.999996h-29.999998z" fill="#dce269"/><path d="m406.57144 539.79797v1h1v-1zm1 1v1h1v-1zm1 0h1v-1h-1zm1 0v1h1v-1zm1 0h1v-1h-1zm1 0v1h1v-1zm1 0h1v-1h-1zm1 0v1h1v-1zm1 0h1v-1h-1zm1 0v1h1v-1zm1 0h1v-1h-1zm1 0v1h1v-1zm1 0h1v-1h-1zm1 0v1h1v-1zm1 0h1v-1h-1zm1 0v1h1v-1z"/><path d="m390.57144 538.79797v1h1v-1zm1 1v1h1v-1zm1 0h1v-1h-1zm1 0v1h1v-1zm1 0h1v-1h-1zm-4 0h-1v1h1z"/><path d="m404.67142 521.79797h20v17.00019h-20z" fill="url(#b)" fill-rule="evenodd"/><path d="m382.57144 503.79797h4v42h-4z" fill="#afc0c6"/><path d="m382.57144 503.79797h1v42h-1z" fill="#96aab5"/><path d="m422.57144 518.79797v1h-1v-1zm-1 1v1h-1v-1zm-1 0h-1v-1h1zm-1 0v1h-1v-1zm-1 0h-1v-1h1zm-1 0v1h-1v-1zm-1 0h-1v-1h1zm-1 0v1h-1v-1zm-1 0h-1v-1h1zm-1 0v1h-1v-1zm-1 0h-1v-1h1zm-1 0v1h-1v-1zm-1 0h-1v-1h1zm-1 0v1h-1v-1zm-1 0h-1v-1h1zm-1 0v1h-1v-1z"/><path d="m386.57145 525.79797v4h3.90039c.0355 0 .0651-.016.0996-.0195v.0195h1v-4h-1v.0195c-.0345-.004-.0641-.0195-.0996-.0195z" fill="url(#d)"/><path d="m386.57145 531.79797v4h3.90039c.0355 0 .0651-.016.0996-.0195v.0195h1v-4h-1v.0195c-.0345-.004-.0641-.0195-.0996-.0195z" fill="url(#e)"/><path d="m386.57144 534.79797h5v1h-5z" opacity=".09"/><path d="m386.57144 528.79797h5v1h-5z" opacity=".09"/><path d="m381.57144 525.79797h2v4h-2z" fill="#afc0c6"/><path d="m381.57144 531.79797h2v4h-2z" fill="#afc0c6"/><path d="m413.67142 524.29807v1h6v7h-6v2 1h-1c-.55401 0-1-.44599-1-1v-2-2-1h1v-4h-3v4h1v1 2 2c0 1.108.892 2 2 2h1 2 2v-1h-2v-1h5v-1-1-8zm-3 3h1v1h-1zm-2 3v4h1v-2-2z" fill="#afc0c6"/></g></svg>