<svg height="64" width="64" xmlns="http://www.w3.org/2000/svg"><rect height="28" opacity=".2" rx="4.2" width="56" x="4" y="33"/><rect fill="#8e8e8e" height="6" ry="3" transform="rotate(90)" width="34" x="4" y="-18"/><rect fill="#5b5b5b" height="28" rx="4.2" width="56" x="4" y="32"/><circle cx="48" cy="47" opacity=".2" r="6"/><circle cx="48" cy="46" fill="#c0f957" r="6"/><circle cx="32" cy="47" opacity=".2" r="6"/><circle cx="32" cy="46" fill="#91af5b" r="6"/><g fill="#fff"><path d="m15 4c-1.662 0-3 1.338-3 3v1c0-1.662 1.338-3 3-3s3 1.338 3 3v-1c0-1.662-1.338-3-3-3z" opacity=".1"/><path d="m8.1992188 32c-2.3267999 0-4.1992188 1.872419-4.1992188 4.199219v1c0-2.3268 1.8724189-4.199219 4.1992188-4.199219h47.6015622c2.3268 0 4.199219 1.872419 4.199219 4.199219v-1c0-2.3268-1.872419-4.199219-4.199219-4.199219z" opacity=".1"/></g></svg>