<svg height="64" width="64" xmlns="http://www.w3.org/2000/svg" xmlns:xlink="http://www.w3.org/1999/xlink"><linearGradient id="a" gradientTransform="matrix(1.6666664 0 0 1.8571411 -259.04764 -463.82593)" gradientUnits="userSpaceOnUse" x2="0" y1="545.79797" y2="517.79797"><stop offset="0" stop-color="#c6cdd1"/><stop offset="1" stop-color="#e0e5e7"/></linearGradient><linearGradient id="b" gradientUnits="userSpaceOnUse" x2="0" y1="544.79797" y2="502.798"><stop offset="0" stop-color="#2a2c2f"/><stop offset="1" stop-color="#424649"/></linearGradient><linearGradient id="c" gradientTransform="matrix(2 0 0 2 370.57149 501.79797)" gradientUnits="userSpaceOnUse" x2="0" y1="20" y2="18"><stop offset="0" stop-color="#999a9c"/><stop offset="1" stop-color="#f4f5f5"/></linearGradient><linearGradient id="d" gradientTransform="matrix(2 0 0 2 -416.57137 -523.79803)" gradientUnits="userSpaceOnUse" x2="0" y1="532.79797" y2="530.79797"><stop offset="0" stop-color="#2980b9"/><stop offset="1" stop-color="#3498db"/></linearGradient><linearGradient id="e" gradientTransform="matrix(2 0 0 2 -405.57142 -519.79803)" gradientUnits="userSpaceOnUse" x2="0" y1="530.79797" y2="528.79797"><stop offset="0" stop-color="#c0392b"/><stop offset="1" stop-color="#e74c3c"/></linearGradient><linearGradient id="f" gradientTransform="matrix(2 0 0 2 -407.57142 -519.79803)" gradientUnits="userSpaceOnUse" x2="0" y1="530.79797" y2="528.79797"><stop offset="0" stop-color="#f33777"/><stop offset="1" stop-color="#fd2d65"/></linearGradient><linearGradient id="g" gradientTransform="matrix(2 0 0 2 -396.57137 -515.79803)" gradientUnits="userSpaceOnUse" x2="0" y1="528.79797" y2="526.79797"><stop offset="0" stop-color="#27ae60"/><stop offset="1" stop-color="#2ecc71"/></linearGradient><g transform="translate(-376.57144 -491.79797)"><path d="m393.57144 497.79797h29.999998v51.99995h-29.999998z" fill="url(#a)"/><path d="m393.57144 548.79791h29.999998v1h-29.999998z" fill="#99a1a7"/><path d="m395.57144 502.79797h25.999969v42h-25.999969z" fill="url(#b)"/><path d="m405.07144 545.79797h7v2h-7z" fill="#1c1e20"/><path d="m405.07144 499.798h7v2h-7z" fill="#1c1e20"/><g stroke-linecap="square" stroke-width=".1"><path d="m418.57149 537.79797a2 2 0 0 0 -2 2 2 2 0 0 0 2 2 2 2 0 0 0 2-2 2 2 0 0 0 -2-2z" fill="url(#g)"/><path d="m408.57149 537.79797a2.000012 2.000012 0 0 0 -2 2 2.000012 2.000012 0 0 0 2 2 2.000012 2.000012 0 0 0 2-2 2.000012 2.000012 0 0 0 -2-2z" fill="url(#c)"/><path d="m403.57144 537.79797a2 2 0 0 0 -2 2 2 2 0 0 0 2 2 2 2 0 0 0 2-2 2 2 0 0 0 -2-2z" fill="url(#f)"/><path d="m413.57144 537.79797a2 2 0 0 0 -2 2 2 2 0 0 0 2 2 2 2 0 0 0 2-2 2 2 0 0 0 -2-2z" fill="url(#e)"/><path d="m398.57149 537.79797a2 2 0 0 0 -2 2 2 2 0 0 0 2 2 2 2 0 0 0 2-2 2 2 0 0 0 -2-2z" fill="url(#d)"/></g><circle cx="419.07141" cy="504.298" fill="#fff" r=".5"/><circle cx="417.07141" cy="504.298" fill="#fff" r=".5"/><circle cx="398.07144" cy="504.298" fill="#fff" r=".5"/></g></svg>