<svg height="32" width="32" xmlns="http://www.w3.org/2000/svg"><path d="m7.25 5c-.6925 0-1.25.5575-1.25 1.25v22.5c0 .692.5575 1.25 1.25 1.25h17.5c.692 0 1.25-.558 1.25-1.25v-15.75l-6.875-1.125-1.125-6.875z" fill="#070502" opacity=".2"/><path d="m7.25 4c-.6925 0-1.25.5575-1.25 1.25v22.5c0 .692.5575 1.25 1.25 1.25h17.5c.692 0 1.25-.558 1.25-1.25v-15.75l-6.875-1.125-1.125-6.875z" fill="#b38d32"/><path d="m18 5v6.6667c0 .736.597 1.333 1.333 1.333h6.667l-8-8z" fill="#070502" opacity=".2"/><path d="m18 4v6.6667c0 .736.597 1.333 1.333 1.333h6.667l-8-8z" fill="#dabe79"/><path d="m7.25 4c-.6925 0-1.25.5575-1.25 1.25v1c0-.6925.5575-1.25 1.25-1.25h10.75v-1z" fill="#fff" opacity=".2"/><path d="m14 14.999966c-.554 0-1 .446-1 1v10c0 .554.446 1 1 1s1-.446 1-1v-2.816406l.101562-.176758 2.016602 3.492187c.277.479778.885457.643211 1.365234.366211.479778-.277.643211-.886433.366211-1.366211l-2.59375-4.49121 2.59375-4.492188c.277-.479778.113567-1.089211-.366211-1.366211-.479777-.277-1.088234-.113567-1.365234.366211l-2.016602 3.492188-.101562-.175782v-2.832031c0-.554-.446-1-1-1z" fill="#070502" opacity=".2"/><path d="m14 13.999966c-.554 0-1 .446-1 1v10c0 .554.446 1 1 1s1-.446 1-1v-2.816406l.101562-.176758 2.016602 3.492187c.277.479778.885457.643211 1.365234.366211.479778-.277.643211-.886433.366211-1.366211l-2.59375-4.49121 2.59375-4.492188c.277-.479778.113567-1.089211-.366211-1.366211-.479777-.277-1.088234-.113567-1.365234.366211l-2.016602 3.492188-.101562-.175782v-2.832031c0-.554-.446-1-1-1z" fill="#ffc947"/></svg>