<?xml version="1.0" encoding="UTF-8"?>
<!-- Created with Inkscape (http://www.inkscape.org/) -->
<svg id="svg7384" width="16" height="16.001" version="1.1" xmlns="http://www.w3.org/2000/svg" xmlns:cc="http://creativecommons.org/ns#" xmlns:dc="http://purl.org/dc/elements/1.1/" xmlns:rdf="http://www.w3.org/1999/02/22-rdf-syntax-ns#">
 <metadata id="metadata90">
  <rdf:RDF>
   <cc:Work rdf:about="">
    <dc:format>image/svg+xml</dc:format>
    <dc:type rdf:resource="http://purl.org/dc/dcmitype/StillImage"/>
    <dc:title>Gnome Symbolic Icon Theme</dc:title>
   </cc:Work>
  </rdf:RDF>
 </metadata>
 <title id="title9167">Gnome Symbolic Icon Theme</title>
 <defs id="defs7386">
  <clipPath id="clipPath6810-7-87">
   <rect id="rect6812-2-4" x="21" y="281" width="14" height="11" color="#bebebe" fill="none" stroke="#fff" stroke-linecap="round" stroke-linejoin="round" stroke-width="2"/>
  </clipPath>
 </defs>
 <g id="layer9" transform="translate(-161,-197)" fill="#bebebe">
  <path id="path8169" d="m174 198c-1.1046 0-2 0.89543-2 2s0.89543 2 2 2 2-0.89543 2-2-0.89543-2-2-2zm0 1c0.55228 0 1 0.44771 1 1 0 0.55228-0.44772 1-1 1s-1-0.44772-1-1c0-0.55229 0.44772-1 1-1z" color="#000000" opacity=".5"/>
  <rect id="rect12283" x="164" y="197.99" width="5" height="10.013" rx="2.5" ry="2.5" color="#bebebe"/>
  <path id="rect12285" transform="matrix(.99397 0 0 1 138.71 -78.486)" d="m27.969 273.62c-2.5025 0-4.5312 2.0288-4.5312 4.5312v5.8125c0 2.5025 2.0288 4.5312 4.5312 4.5312 2.5025 0 4.5312-2.0288 4.5312-4.5312v-5.8125c0-2.5025-2.0288-4.5312-4.5312-4.5312zm0 1c1.9641 0 3.5312 1.5671 3.5312 3.5312v5.8125c0 1.9642-1.5671 3.5312-3.5312 3.5312s-3.5312-1.5671-3.5312-3.5312v-5.8125c0-1.9642 1.5671-3.5312 3.5312-3.5312z" clip-path="url(#clipPath6810-7-87)" color="#bebebe" style="block-progression:tb;text-indent:0;text-transform:none"/>
  <path id="path12287" transform="matrix(.5 0 0 .5 151 22)" d="m24 361a1 1 0 1 1-2 0 1 1 0 1 1 2 0z" color="#bebebe"/>
  <path id="path12289" transform="matrix(.5 0 0 .5 159 22)" d="m24 361a1 1 0 1 1-2 0 1 1 0 1 1 2 0z" color="#bebebe"/>
  <path id="path12291" d="m162.91 211a1.0011 1.0011 0 1 0 0.09 2h7a1.0001 1.0001 0 1 0 0-2h-7a1.0001 1.0001 0 0 0-0.0937 0z" color="#bebebe" style="block-progression:tb;text-indent:0;text-transform:none"/>
  <rect id="rect12293" x="162" y="212" width="9" height="1" color="#bebebe"/>
  <rect id="rect12295" x="165" y="209" width="3" height="4" color="#bebebe"/>
  <path id="path12275-1" transform="matrix(1.0323 0 0 1.0323 368.06 20.001)" d="m-186.06 184.06a1.9375 1.9375 0 1 1-3.875 0 1.9375 1.9375 0 1 1 3.875 0z" color="#000000"/>
  <path id="path12321" transform="matrix(1.0323 0 0 1.0323 368.06 15.001)" d="m-186.06 184.06a1.9375 1.9375 0 1 1-3.875 0 1.9375 1.9375 0 1 1 3.875 0z" color="#000000"/>
 </g>
</svg>
