<?xml version="1.0" encoding="UTF-8"?>
<!-- Created with Inkscape (http://www.inkscape.org/) -->
<svg id="svg7384" width="48" height="48" enable-background="new" version="1.1" xmlns="http://www.w3.org/2000/svg" xmlns:cc="http://creativecommons.org/ns#" xmlns:dc="http://purl.org/dc/elements/1.1/" xmlns:rdf="http://www.w3.org/1999/02/22-rdf-syntax-ns#">
 <metadata id="metadata90">
  <rdf:RDF>
   <cc:Work rdf:about="">
    <dc:format>image/svg+xml</dc:format>
    <dc:type rdf:resource="http://purl.org/dc/dcmitype/StillImage"/>
    <dc:title>Paper Symbolic Icon Theme</dc:title>
   </cc:Work>
  </rdf:RDF>
 </metadata>
 <title id="title8473">Paper Symbolic Icon Theme</title>
 <defs id="defs7386">
  <filter id="filter7554" color-interpolation-filters="sRGB">
   <feBlend id="feBlend7556" in2="BackgroundImage" mode="darken"/>
  </filter>
 </defs>
 <g id="layer12" transform="translate(-265 -149)">
  <path id="path4743" d="m273.25 153a5.25 5.25 0 0 0-5.25 5.25 5.25 5.25 0 0 0 1.5381 3.7119l12.038 12.038-12.038 12.038a5.25 5.25 0 0 0-1.5381 3.7119 5.25 5.25 0 0 0 5.25 5.25 5.25 5.25 0 0 0 3.7119-1.5381l12.038-12.038 11.987 11.987a5.25 5.25 0 0 0 3.7632 1.5893 5.25 5.25 0 0 0 5.25-5.25 5.25 5.25 0 0 0-1.5381-3.7119l-12.038-12.038 11.987-11.987a5.25 5.25 0 0 0 1.5893-3.7632 5.25 5.25 0 0 0-5.25-5.25 5.25 5.25 0 0 0-3.7119 1.5381l-12.038 12.038-11.987-11.987a5.25 5.25 0 0 0-0.0525-0.0525 5.25 5.25 0 0 0-3.7118-1.5368z" enable-background="new" fill="#555"/>
 </g>
</svg>
