<?xml version="1.0" encoding="UTF-8"?>
<svg id="svg12" width="48" height="48" version="1" xmlns="http://www.w3.org/2000/svg" xmlns:cc="http://creativecommons.org/ns#" xmlns:dc="http://purl.org/dc/elements/1.1/" xmlns:rdf="http://www.w3.org/1999/02/22-rdf-syntax-ns#">
 <metadata id="metadata18">
  <rdf:RDF>
   <cc:Work rdf:about="">
    <dc:format>image/svg+xml</dc:format>
    <dc:type rdf:resource="http://purl.org/dc/dcmitype/StillImage"/>
    <dc:title/>
   </cc:Work>
  </rdf:RDF>
 </metadata>
 <rect id="rect2" transform="matrix(0,-1,-1,0,0,0)" x="-46" y="-45" width="42" height="42" rx="21" ry="21" fill="#444" stroke-width="1.0501"/>
 <path id="path10" d="m24 9.25a15.75 15.75 0 0 0-15.75 15.75 15.75 15.75 0 0 0 15.75 15.75 15.75 15.75 0 0 0 15.75-15.75 15.75 15.75 0 0 0-15.75-15.75zm0 3.15c1.7451 0 3.15 1.4049 3.15 3.15v14.7c0 1.7451-1.4049 3.15-3.15 3.15s-3.15-1.4049-3.15-3.15v-14.7c0-1.7451 1.4049-3.15 3.15-3.15zm-9.45 8.4c1.7451 0 3.15 1.4049 3.15 3.15v6.3c0 1.7451-1.4049 3.15-3.15 3.15s-3.15-1.4049-3.15-3.15v-6.3c0-1.7451 1.4049-3.15 3.15-3.15zm18.9 0c1.7451 0 3.15 1.4049 3.15 3.15v6.3c0 1.7451-1.4049 3.15-3.15 3.15s-3.15-1.4049-3.15-3.15v-6.3c0-1.7451 1.4049-3.15 3.15-3.15z" fill="#fff" stroke-width="1.05"/>
</svg>
