<?xml version="1.0" encoding="UTF-8"?>
<svg id="svg12" width="48" height="48" enable-background="new" version="1.1" xmlns="http://www.w3.org/2000/svg" xmlns:cc="http://creativecommons.org/ns#" xmlns:dc="http://purl.org/dc/elements/1.1/" xmlns:rdf="http://www.w3.org/1999/02/22-rdf-syntax-ns#">
 <metadata id="metadata90">
  <rdf:RDF>
   <cc:Work rdf:about="">
    <dc:format>image/svg+xml</dc:format>
    <dc:type rdf:resource="http://purl.org/dc/dcmitype/StillImage"/>
    <dc:title/>
   </cc:Work>
  </rdf:RDF>
 </metadata>
 <g id="layer9" transform="translate(-461 235)" fill="#555">
  <path id="path5086" d="m473.57-224.29c-4.6991 0-8.5714 3.8723-8.5714 8.5714v11.429c0 4.6992 3.8723 8.5714 8.5714 8.5714h9.375c-0.48154-1.3501-0.80357-2.7702-0.80357-4.2857 0-0.4908 0.12515-0.95209 0.17857-1.4286h-8.75c-1.6323 0-2.8571-1.2249-2.8571-2.8572v-11.429c0-1.6323 1.2249-2.8571 2.8571-2.8571h8.5714v-5.7143zm20 0v5.7143h2.8572c1.6323 0 2.8571 1.2249 2.8571 2.8571v3.6607c2.2699 0.80957 4.2369 2.1722 5.7143 4.0178v-7.6786c0-4.6991-3.8723-8.5714-8.5714-8.5714z" color="#000000" stroke-width="2.8571"/>
  <path id="path5088" d="m490.72-221.43-11.429-8.5714v17.143z" stroke-width="2.8571"/>
  <path id="path39797" d="m495-210c-5.489 0-10 4.511-10 10s4.511 10 10 10c5.489 0 10-4.511 10-10s-4.511-10-10-10zm0 7.1429c1.5695 0 2.8571 1.2876 2.8571 2.8571 0 1.5695-1.2876 2.8571-2.8571 2.8571s-2.8571-1.2876-2.8571-2.8571c0-1.5695 1.2876-2.8571 2.8571-2.8571z" color="#bebebe" enable-background="accumulate" filter="url(#filter7554)" style="text-decoration-line:none;text-indent:0;text-transform:none"/>
 </g>
</svg>
