<svg enable-background="new" height="48" width="48" xmlns="http://www.w3.org/2000/svg" xmlns:xlink="http://www.w3.org/1999/xlink"><filter id="a" color-interpolation-filters="sRGB" height="1.018982" width="1.032625" x="-.016313" y="-.009491"><feGaussianBlur stdDeviation=".2175"/></filter><filter id="b" color-interpolation-filters="sRGB" height="1.017891" width="1.036444" x="-.018222" y="-.008945"><feGaussianBlur stdDeviation=".205"/></filter><path d="m10.6 5v3.9285715h-9.6v3.9285715 43.214286c0 2.176428 1.4272 3.928571 3.2 3.928571h25.6c1.7728 0 3.2-1.752143 3.2-3.928571v-43.214286-3.9285715h-9.6v-3.9285715z" filter="url(#a)" opacity=".2" stroke-width="3.545621" transform="scale(.75)"/><rect filter="url(#b)" height="55" opacity=".2" ry="1.933141" transform="scale(.75)" width="27" x="36" y="5"/><g stroke-width="3.545621" transform="matrix(.75 0 0 .75 0 -.375)"><path d="m10.6 4.4999999v3.9285715h-9.6v3.9285716 43.214286c0 2.176428 1.4272 3.928571 3.2 3.928571h25.6c1.7728 0 3.2-1.752143 3.2-3.928571v-43.214286-3.9285716h-9.6v-3.9285715z" fill="#f9ce1d"/><path d="m1 24.142857v31.428572c0 2.176428 1.4272 3.928571 3.2 3.928571h25.6c1.7728 0 3.2-1.752143 3.2-3.928571v-31.428572z" fill="#263238"/></g><rect fill="#fff" height="40.500122" ry="1.423499" stroke="#000" stroke-width=".749877" width="19.500122" x="27.374939" y="3.374939"/><path d="m12.75 11.25v9.28125h7.5l-7.5 15.46875v-9.28125h-7.5z" fill="#fafafa" stroke-width="2.781075"/></svg>