<svg enable-background="new" height="48" width="48" xmlns="http://www.w3.org/2000/svg" xmlns:xlink="http://www.w3.org/1999/xlink"><filter id="a" color-interpolation-filters="sRGB" height="1.024" width="1.024" x="-.012" y="-.012"><feGaussianBlur stdDeviation=".2"/></filter><filter id="b" color-interpolation-filters="sRGB" height="1.018982" width="1.032625" x="-.016313" y="-.009491"><feGaussianBlur stdDeviation=".2175"/></filter><path d="m10.6 5v3.9285715h-9.6v3.9285715 43.214286c0 2.176428 1.4272 3.928571 3.2 3.928571h25.6c1.7728 0 3.2-1.752143 3.2-3.928571v-43.214286-3.9285715h-9.6v-3.9285715z" filter="url(#b)" opacity=".2" stroke-width="3.545621" transform="scale(.75)"/><path d="m7.95 3v2.946429h-7.2v2.946428 32.410713c0 1.63232 1.0704 2.94643 2.4 2.94643h19.2c1.3296 0 2.4-1.31411 2.4-2.94643v-32.410713-2.946428h-7.2v-2.946429z" fill="#8bc34a" stroke-width="2.659216"/><path d="m.75 17.732143v23.571427c0 1.63232 1.0704 2.94643 2.4 2.94643h19.2c1.3296 0 2.4-1.31411 2.4-2.94643v-23.571427z" fill="#263238" stroke-width="2.659216"/><path d="m12.75 11.25v9.28125h7.5l-7.5 15.46875v-9.28125h-7.5z" fill="#f9ce1d" stroke-width="2.781075"/><path d="m63 36v8h-40v-8zm-24-16h8v40h-8z" filter="url(#a)" opacity=".2" transform="scale(.75)"/><path d="m47.25 26.25v6h-30v-6zm-18-12h6v30h-6z" fill="#1b5e20"/></svg>