<svg enable-background="new" height="48" width="48" xmlns="http://www.w3.org/2000/svg" xmlns:xlink="http://www.w3.org/1999/xlink"><filter id="a" color-interpolation-filters="sRGB" height="1.026229" width="1.02212" x="-.01106" y="-.013115"><feGaussianBlur stdDeviation=".25136363"/></filter><g filter="url(#a)" opacity=".2" transform="matrix(.75 0 0 .75 55.450174 8.090006)"><rect height="30" rx="2" ry="1.363636" transform="matrix(0 -1 -1 0 0 0)" width="4" x="-45.213058" y="26.933561"/><rect height="40" rx="2.727273" ry="2.857143" width="54.545452" x="-69.206291" y="-.786942"/><rect height="6" rx=".5" ry=".428571" width="10" x="-46.933563" y="36.213058"/></g><g fill="#1a1a1a" transform="matrix(.75 0 0 .75 0 -.000201)"><rect height="30" rx="2" ry="1.363636" stroke-width=".825723" transform="matrix(0 -1 -1 0 0 0)" width="4" x="-55" y="-47"/><rect height="40" rx="2.727273" ry="2.857143" width="54.545452" x="4.727274" y="9"/><rect height="6" rx=".5" ry=".428571" width="10" x="27" y="46"/></g><path d="m6.613638 9.964088h34.772728v23.57143h-34.772728z" fill="#fafafa" stroke-width="1.046795"/><path d="m7.5 11.25h26.25v2.25h-26.25z" fill="#263238"/><g fill="#b71c1c"><path d="m7.5 14.25h15v2.25h-15z"/><path d="m7.5 17.5679025h15v2.25h-15z"/><path d="m7.50000075 21h15v2.25h-15z"/></g><g transform="rotate(90)"><path d="m14.25-39.75h18.75v2.25h-18.75z" fill="#01579b"/><path d="m21.75-36.75h11.25v2.25h-11.25z" fill="#0277bd"/><path d="m18-33.432098h15v2.25h-15z" fill="#01579b"/><path d="m25.5-30h7.5v2.25h-7.5z" fill="#0277bd"/></g><circle cx="8.25" cy="26.25" fill="#263238" r=".418253" stroke="#263238" stroke-linecap="round" stroke-linejoin="round" stroke-width=".663493"/><circle cx="8.25" cy="28.5" fill="#263238" r=".418253" stroke="#263238" stroke-linecap="round" stroke-linejoin="round" stroke-width=".663493"/><circle cx="8.25" cy="30.75" fill="#263238" r=".418253" stroke="#263238" stroke-linecap="round" stroke-linejoin="round" stroke-width=".663493"/><path d="m9.75 25.5h11.25v1.5h-11.25z" fill="#b71c1c"/><path d="m9.75 27.75h11.25v1.5h-11.25z" fill="#b71c1c"/><path d="m9.75 30h11.25v1.5h-11.25z" fill="#b71c1c"/></svg>