<svg enable-background="new" height="48" width="48" xmlns="http://www.w3.org/2000/svg" xmlns:xlink="http://www.w3.org/1999/xlink"><filter id="a" color-interpolation-filters="sRGB" height="1.023912" width="1.024088" x="-.012044" y="-.011956"><feGaussianBlur stdDeviation=".32151811"/></filter><g enable-background="new" filter="url(#a)" opacity=".2" transform="matrix(-.4132374 -.41451889 .41022049 -.41149264 -28.899787 398.11245)"><path d="m364.35 501.82c.6494 11.831 10.444 21.219 22.438 21.219 11.993 0 21.819-9.3879 22.469-21.219h-44.906z"/><path d="m374.42 485.66c1.3991 0 2.5254 1.1263 2.5254 2.5254v14.142c0 1.3991-1.1263 2.5254-2.5254 2.5254s-2.5254-1.1263-2.5254-2.5254v-14.142c0-1.3991 1.1263-2.5254 2.5254-2.5254z"/><path d="m398.42 485.66c1.3991 0 2.5254 1.1263 2.5254 2.5254v14.142c0 1.3991-1.1263 2.5254-2.5254 2.5254s-2.5254-1.1263-2.5254-2.5254v-14.142c0-1.3991 1.1263-2.5254 2.5254-2.5254z"/><path d="m397.41 514.08-7.6786 17.5 12.857-3.3929-16.25 35.536.71429-23.036-16.786 6.9643 13.393-35.714 13.75 2.1429z"/></g><g stroke-width=".583171"><path d="m15.603554 42.312791c-.57816-.579953-.581558-1.51029-.0076-2.086009l5.801338-5.819329c.57394-.575719 1.5014-.572311 2.079561.0076.57816.579954.581558 1.510291.0076 2.08601l-5.801338 5.819329c-.57394.575719-1.5014.57231-2.079561-.0076z" fill="#ff9800"/><path d="m5.6858569 32.364338c-.5781604-.579953-.5815584-1.51029-.0076188-2.086009l5.8013389-5.819329c.573939-.575719 1.5014-.572311 2.07956.0076.57816.579953.581558 1.51029.0076 2.086009l-5.8013388 5.819329c-.5739395.575719-1.5014001.57231-2.0795613-.0076z" fill="#ff9800"/><path d="m17.761693 21.088382 10.351944-4.018196-6.704831-3.933316 21.292703-7.8868702-9.745011 9.1830572 9.793502 4.092356-20.185103 9.144396-4.802953-6.581422z"/><path d="m26.394018 39.837276c4.584962-5.137558 4.388618-13.060697-.567751-18.032437-4.955957-4.971325-12.867537-5.181336-17.9895005-.582363l18.5568385 18.614385z" fill="#1a1a1a"/></g></svg>