<svg enable-background="new" height="48" width="48" xmlns="http://www.w3.org/2000/svg" xmlns:xlink="http://www.w3.org/1999/xlink"><filter id="a" color-interpolation-filters="sRGB" height="1.0264" width="1.022" x="-.011" y="-.0132"><feGaussianBlur stdDeviation=".27499999"/></filter><linearGradient id="b" gradientUnits="userSpaceOnUse" x1="61.95013" x2="62" y1="7.953151" y2="56.547825"><stop offset="0" stop-color="#0d52bf"/><stop offset="1" stop-color="#64baff"/></linearGradient><g transform="scale(.75)"><path d="m47.190654 8.0000004c6.249473 26.5507446-19.608759 43.4304486-45.1906528 29.6921616 5.029799 23.046121 37.2592258 26.049598 52.6569288 11.181148 12.234265-13.388521 8.800325-31.579382-7.466276-40.8733096z" filter="url(#a)" opacity=".2"/><path d="m47.190654 7.0000008c6.249473 26.5507452-19.608759 43.4304492-45.1906534 29.6921622 5.0297992 23.046121 37.2592264 26.049598 52.6569294 11.181148 12.234265-13.388521 8.800328-31.579382-7.466276-40.8733102z" fill="url(#b)"/><g fill="none" stroke="#0e141f" stroke-linecap="round" stroke-linejoin="round"><path d="m4.0143534 15.995275h7.9712926l-7.9712926 11.9975h7.9712926" stroke-width="2.000219"/><path d="m18.964105 26.957677h6.057559l-6.057559 9.084646h6.057559" stroke-width="1.915163"/></g></g></svg>