<svg enable-background="new" height="48" width="48" xmlns="http://www.w3.org/2000/svg" xmlns:xlink="http://www.w3.org/1999/xlink"><filter id="a" color-interpolation-filters="sRGB" height="1.023997" width="1.024003" x="-.012002" y="-.011998"><feGaussianBlur stdDeviation=".24512777"/></filter><filter id="b" color-interpolation-filters="sRGB" height="1.024" width="1.024" x="-.012" y="-.012"><feGaussianBlur stdDeviation=".28"/></filter><circle cx="31.999998" cy="32.163998" filter="url(#b)" opacity=".2" r="28" transform="scale(.75)"/><circle cx="23.999998" cy="23.372999" fill="#206b00" r="21" stroke-width=".75"/><path d="m23.999999 2.372999a21 21 0 0 0 -21 21 21 21 0 0 0 .016125.4395 21 21 0 0 1 20.983875-20.6895001 21 21 0 0 1 20.98425 20.5605001 21 21 0 0 0 .01575-.3105 21 21 0 0 0 -21-21z" fill="#fff" opacity=".2" stroke-width=".75"/><g filter="url(#a)" opacity=".2" stroke="#000" stroke-width=".974203" transform="scale(.75)"><path d="m17.238212 8.4842584c2.713421.023166 5.398595 1.0753913 7.477278 3.1276286 3.132149 3.09268 3.868245 7.572791 2.336233 11.382979.117976.09237.305739.199353.415405.307478l6.697977 6.615241c1.497118 1.47669 1.497118 3.905024 0 5.383353l-.623106.615288c-1.495452 1.476689-3.95465 1.476689-5.451764 0l-6.74949-6.615569c-.109667-.10665-.166162-.292057-.260874-.410191-3.858275 1.514427-8.39449.785926-11.5266392-2.306917-.4237125-.416755-.8141923-.867966-1.1431929-1.332303-.1096665-.155872-.2110253-.3019-.3107225-.462695-1.2478741-2.596021-.5915357-2.44146 2.1285316-1.742494 2.751639 0 4.984853-2.20519 4.984853-4.922298s-2.233214-4.922298-4.984853-4.922298c-1.661617 0 .987001-3.115322 3.010851-3.9480112.09637-.037048.1645-.1197591.260874-.1539039.03489-.010465.06813.010126.103021 0 1.166455-.3995596 2.414329-.6257058 3.635618-.6152875z"/><path d="m55.438345 47.577372c1.429188 1.411254 1.428924 3.742792.000255 5.153537l-3.774683 3.727314c-1.428678 1.410747-3.789842 1.411001-5.21903-.000253l-20.47681-20.219851c-1.428675-1.410746-1.428675-3.742537 0-5.153283l3.77468-3.727314c1.428675-1.410746 3.790099-1.410746 5.218774 0z"/></g><g stroke-width=".730652"><path d="m12.928659 5.6132403c2.035066.017374 4.048946.8065435 5.607959 2.3457214 2.349111 2.3195103 2.901183 5.6795933 1.752174 8.5372343.08848.06928.229305.149515.311554.230608l5.023483 4.961431c1.122838 1.107518 1.122838 2.928768 0 4.037515l-.46733.461466c-1.121589 1.107517-2.965987 1.107517-4.088823 0l-5.062117-4.961677c-.08225-.079987-.124622-.219043-.195656-.307643-2.893706 1.13582-6.2958672.589444-8.6449791-1.730188-.3177844-.312566-.6106443-.650974-.8573947-.999227-.0822499-.116904-.158269-.226425-.2330419-.347021-.9359056-1.947016-.4436518-1.831095 1.5963987-1.306871 2.0637292 0 3.73864-1.653892 3.73864-3.691723s-1.6749108-3.6917237-3.73864-3.6917237c-1.2462128 0 .7402507-2.3364916 2.2581383-2.9610084.072278-.027786.1233747-.089819.1956557-.115428.02617-.00785.0511.00759.07727 0 .874842-.2996697 1.810747-.4692793 2.726714-.4614656z" fill="#abacae" stroke="#7e8087"/><path d="m41.578759 34.933075c1.071891 1.058441 1.071693 2.807094.000191 3.865153l-2.831012 2.795486c-1.071509 1.05806-2.842382 1.05825-3.914273-.00019l-15.357607-15.164888c-1.071506-1.05806-1.071506-2.806903 0-3.864963l2.83101-2.795485c1.071506-1.05806 2.842574-1.05806 3.91408 0z" fill="#cc3b02" stroke="#a62100"/></g></svg>