<svg height="24" width="24" xmlns="http://www.w3.org/2000/svg"><g transform="translate(1 1)"><rect fill="#7767c0" height="20" rx="1" transform="matrix(0 -1 -1 0 0 0)" width="20" x="-21" y="-21"/><path d="m2 1c-.554 0-1 .446-1 1v.5c0-.554.446-1 1-1h18c.554 0 1 .446 1 1v-.5c0-.554-.446-1-1-1z" fill="#fff" opacity=".2"/><path d="m2 21.5c-.554 0-1-.446-1-1v-.5c0 .554.446 1 1 1h18c.554 0 1-.446 1-1v.5c0 .554-.446 1-1 1z" opacity=".2"/><path d="m4 6.5v14h2v-8.793l3.207-3.207h2.293v3.5665a2 2 0 0 0 -1.5 1.934 2 2 0 0 0 2 2 2 2 0 0 0 2-2 2 2 0 0 0 -1.5-1.9345v-3.5655h1.5v-2h-10zm2 2h1.793l-1.793 1.793zm6 4.5a1 1 0 0 1 1 1 1 1 0 0 1 -1 1 1 1 0 0 1 -1-1 1 1 0 0 1 1-1z" opacity=".2"/><path d="m4 6v14h2v-8.793l3.207-3.207h2.293v3.5665a2 2 0 0 0 -1.5 1.934 2 2 0 0 0 2 2 2 2 0 0 0 2-2 2 2 0 0 0 -1.5-1.9345v-3.566h1.5v-2zm2 2h1.793l-1.793 1.793zm6 4.5a1 1 0 0 1 1 1 1 1 0 0 1 -1 1 1 1 0 0 1 -1-1 1 1 0 0 1 1-1z" fill="#7fffff"/></g></svg>