<svg height="24" viewBox="0 0 6.35 6.35" width="24" xmlns="http://www.w3.org/2000/svg"><g transform="translate(-.000001 -290.64999)"><path d="m.132293 291.0589h6.085417v5.532197h-6.085417z" fill="#3689e6"/><path d="m.259072 291.18463h5.831858v5.280734h-5.831858z" fill="#fafafa"/><path d="m.132293 291.0589h6.085417v1.005854h-6.085417z" fill="#3689e6"/><path d="m2.6915437 292.3313-.042673.50993a1.5211433 1.5211433 0 0 0 -.4445666.25712l-.4634738-.21823-.4840003.83835.4208.29225a1.5211433 1.5211433 0 0 0 -.023225.25657 1.5211433 1.5211433 0 0 0 .022151.25767l-.419719.29116.4840002.83836.4623928-.21769a1.5211433 1.5211433 0 0 0 .4456471.2555l.041593.51155h.9680001l.042674-.50994a1.5211433 1.5211433 0 0 0 .4445673-.25711l.4634739.21823.4839997-.83837-.4207991-.29222a1.5211433 1.5211433 0 0 0 .02323-.25659 1.5211433 1.5211433 0 0 0 -.022147-.25767l.4197187-.29116-.4839999-.83834-.4623931.21768a1.5211433 1.5211433 0 0 0 -.4456477-.25551l-.041593-.51154zm.4840001 1.38286a.55314304.55314304 0 0 1 .553143.55313.55314304.55314304 0 0 1 -.553143.55315.55314304.55314304 0 0 1 -.5531432-.55315.55314304.55314304 0 0 1 .5531432-.55313z" fill="#7e8087" stroke-width=".276572"/></g></svg>