<svg height="24" viewBox="0 0 24 24" width="24" xmlns="http://www.w3.org/2000/svg"><ellipse cx="12" cy="12.000009" fill="#3a9104" rx="10.3125" ry="10.312501" stroke-width=".503049"/><path d="m12.118121 3.9383355a8.0637173 8.0626901 0 0 0 -5.8194219 2.3621171 8.0637173 8.0626901 0 0 0 0 11.4011484 8.0637173 8.0626901 0 0 0 11.4026019 0 8.0637173 8.0626901 0 0 0 0-11.4011484 8.0637173 8.0626901 0 0 0 -5.58318-2.3621171zm-.220492 1.0078365a7.0557533 7.0548548 0 0 1 4.716959 1.728282l-1.41548 1.4153014a8.0632039 5.0395024 44.991678 0 0 -5.4670285-2.7636765 7.0557533 7.0548548 0 0 1 2.1655495-.3799069zm-3.0514555 1.3168804a7.0553036 4.0316017 44.992816 0 1 5.6383025 2.5412422l-2.484476 2.4841594-4.5870263-4.5864416a7.0553036 4.0316017 44.992816 0 1 1.4331998-.43896zm8.4869835 1.1180681a7.0557533 7.0548548 0 0 1 1.346579 6.8639165 8.0632039 5.0395024 44.991678 0 0 -2.771903-5.4387733zm-10.634814.0315 4.588995 4.5884115-2.4864443 2.486127a7.0553036 4.0316017 44.992816 0 1 -2.1025507-7.0745422zm8.500765 2.1022819a7.0553036 4.0316017 44.992816 0 1 2.10255 7.0745386l-4.588995-4.58841zm-9.8788424.242118a8.0632039 5.0395024 44.991678 0 0 2.7719033 5.4387726l-1.4253248 1.425143a7.0557533 7.0548548 0 0 1 -1.3465785-6.8639156zm6.6797344 2.9565816 4.587028 4.586443a7.0553036 4.0316017 44.992816 0 1 -7.0715024-2.102285zm-3.1991063 3.1987a8.0632039 5.0395024 44.991678 0 0 5.4670283 2.763676 7.0557533 7.0548548 0 0 1 -6.88251-1.348376z" fill="#fafafa" stroke-width="1.007901"/></svg>