<svg height="24" width="24" xmlns="http://www.w3.org/2000/svg" xmlns:xlink="http://www.w3.org/1999/xlink"><filter id="a" color-interpolation-filters="sRGB" height="1.0276" width="1.021231" x="-.010615" y="-.0138"><feGaussianBlur stdDeviation=".17844827"/></filter><g stroke-width="3.545621" transform="matrix(.30468749 0 0 .30681818 -23.47531 -.679113)"><path d="m87.877948 3.4356272v3.9285715h-9.6v3.9285713 43.214286c0 2.176428 1.4272 3.928571 3.2 3.928571h25.600002c1.7728 0 3.2-1.752143 3.2-3.928571v-43.214286-3.9285713h-9.6v-3.9285715z" fill="#f9c440"/><path d="m78.277948 23.078484v31.428572c0 2.176428 1.4272 3.928571 3.2 3.928571h25.600002c1.7728 0 3.2-1.752143 3.2-3.928571v-31.428572z" fill="#0e141f"/></g><rect fill="#1a1a1a" height="16.875" rx=".727371" stroke-width=".290948" transform="matrix(0 -1 -1 0 0 0)" width="2.036638" x="-22.875" y="-23.625"/><rect filter="url(#a)" height="31.034483" opacity=".2" rx="1.939655" stroke-width=".775862" transform="scale(.375)" width="40.344826" x="20.327579" y="26.310516"/><g stroke-width=".290948"><rect fill="#1a1a1a" height="11.63793" rx=".727371" width="15.12931" x="7.622842" y="9.491379"/><path d="m8.786635 10.655172h12.801724v9.310345h-12.801724z" fill="#3689e6"/><path d="m8.3502135 9.4913798c-.402963 0-.7273703.3244072-.7273703.7273702v.290948c0-.402963.3244073-.72737.7273703-.72737h13.6745695c.401508 0 .72737.324407.72737.72737v-.290948c0-.402963-.325862-.7273702-.72737-.7273702z" fill="#7e8087" opacity=".2"/></g></svg>