<svg height="24" width="24" xmlns="http://www.w3.org/2000/svg"><path d="m75.53 5.4393c-11.08 0-20 8.92-20 20 0 .16772-.004.33329 0 .5.26444-10.846 9.0877-19.5 20-19.5s19.736 8.6537 20 19.5c.004-.16671 0-.33228 0-.5 0-11.08-8.92-20-20-20z" fill="#fff" opacity=".1"/><g transform="translate(1 1)"><path d="m2 21 3-3h12.5c.831 0 1.5-.669 1.5-1.5v-14c0-.831-.669-1.5-1.5-1.5h-14c-.831 0-1.5.669-1.5 1.5z" fill="#7d529d"/><path d="m11.444 4.5c-.24157 0-.44204.19294-.44434.42676-.0014.23488.1991.43239.44238.4336 1.05.00788 1.9132.33972 2.6094.99415.68795.64835 1.0466 1.5466 1.0556 2.7188v.001c.0025.23318.20311.42576.44531.42576.000025 0 .0046-.0009.0049-.001.24275-.00225.44434-.19795.44238-.43262v-.001c-.0057-.6832-.11672-1.3114-.334-1.8642-.2199-.55855-.55415-1.0528-.99025-1.4638-.86125-.80995-1.9614-1.2284-3.2276-1.2373h-.0039zm-4.5092 1.0108c-.1694-.0288-.353.0026-.5362.0908h-.01465l-.02051.01172c-.3395.193-.6579.4518-.956.7763l-.023435.02539v.023435c-.207.257-.3435.5155-.3745.775-.01.044-.01.0835-.01.126 0 .11798.01734.23788.05371.35547l.0097.0332.0205.0118c.11776.40404.385 1.0328.96975 2.0976.38946.70575.7874 1.2953 1.1826 1.792.2082.26105.44404.53285.71775.80665.00325.0033.014795.01504.027345.02637.00435.0044.010435.01337.02539.02832l.027345.02735h.00195c.00963.0096.016135.01663.01758.01855l.0049.0059.0049.0049c.27372.27074.5437.508.8076.71485.49594.39526 1.0854.79635 1.791 1.1865 1.066.5881 1.7006.8539 2.1026.96975l.01465.01758.02441.0088c.11385.03796.23232.05548.34961.05371.04757.0026.0897-.00075.12988-.0098.27524-.03218.54775-.1625.8174-.38867l.003-.0039.003-.0019c.0042-.0042.0017-.0022.0039-.0049.0024-.0021.0035-.0046.0059-.0068.31912-.29126.5767-.60805.7705-.94725l.0127-.02149v-.02051c.178-.37064.1075-.74905-.18164-.99025-.0071-.0061-.146-.1222-.31836-.2627-.176-.143-.385-.312-.526-.415-.267-.198-.68-.454-.915-.584h-.001c-.452-.254-.925-.107-1.132.163l-.36426.45606c-.1469.1851-.44045.16744-.44824.16699-2.4707-.63565-3.135-3.12-3.1396-3.1377-.0012-.0082-.019-.3023.1662-.4516l.4541-.36328c.26972-.2066.42137-.6787.16699-1.1318-.1327-.23426-.38934-.6501-.584-.91505h-.001c-.1044-.1407-.2727-.351-.416-.5274-.0717-.0882-.137-.169-.1846-.2266-.0238-.0288-.043-.0521-.0566-.0683-.0069-.0082-.0126-.0139-.0166-.0186-.002-.0023-.0032-.0039-.0049-.0059-.1259-.1494-.2863-.2404-.4629-.2705zm4.5362.9902c-.23826-.0168-.45236.16173-.46972.3916-.01739.23012.16825.43537.40625.45215.58855.041595.9857.21462 1.2842.53025v.001c.30464.3215.44326.68865.43164 1.1904v.00195c-.0052.23089.1885.42656.42774.43162h.01074c.23574 0 .43226-.1861.4375-.41406.015-.6896-.209-1.305-.662-1.7822-.455-.4796-1.099-.7481-1.867-.8027z" opacity=".2"/><g fill="#fff"><path d="m11.444 4c-.24157 0-.44204.19294-.44434.42676-.0014.23488.1991.43239.44238.4336 1.05.00788 1.9132.33972 2.6094.99415.68795.64835 1.0466 1.5466 1.0556 2.7188v.001c.0025.23318.20311.42576.44531.42576.000025 0 .0046-.0009.0049-.001.24275-.00225.44434-.19795.44238-.43262v-.001c-.0057-.6832-.11672-1.3114-.334-1.8642-.2199-.55855-.55415-1.0528-.99025-1.4638-.86125-.80995-1.9614-1.2284-3.2276-1.2373h-.0039zm-4.5092 1.0108c-.1694-.0288-.353.0026-.5362.0908h-.01465l-.02051.01172c-.3395.193-.6579.4518-.956.7763l-.023435.02539v.023435c-.2063.2572-.34265.51605-.37402.7754-.01001.04395-.00976.08357-.00976.12598 0 .11798.01734.23788.05371.35547l.0097.0333.0206.0117c.11776.40404.385 1.0328.96975 2.0976.38946.70575.7874 1.2953 1.1826 1.792.2082.26105.44404.53285.71775.80665.00325.0032.014795.01504.027345.02636.00435.0044.010435.01337.02539.02832l.027345.02735h.00195c.00964.0096.016135.01663.01758.01855l.0049.0059.0049.0049c.27372.27074.5437.508.8076.71485.49594.39526 1.0854.79635 1.791 1.1865 1.066.5881 1.7006.8539 2.1026.96975l.01465.01758.02441.0088c.11385.03796.23232.05548.34961.05371.04757.0026.0897-.00075.12988-.0098.27524-.03218.54775-.1625.8174-.38867l.0029-.0039.003-.002c.0042-.0041.0017-.0022.0039-.0049.0024-.0022.0035-.0047.0059-.0068.31912-.29126.5767-.60805.7705-.94725l.0127-.02149v-.02051c.178-.37064.1075-.74905-.18164-.99025-.0071-.0061-.146-.1222-.31836-.2627-.17626-.14364-.3853-.31246-.52645-.41603-.26704-.19754-.6798-.45308-.91505-.584h-.001c-.453-.252-.925-.105-1.133.164l-.36426.45606c-.1469.1851-.44045.16744-.44824.16699-2.4707-.63565-3.135-3.12-3.1396-3.1377-.0004405-.00778-.0182-.30184.16699-.45117l.4541-.36328c.2696-.2066.4213-.6787.1669-1.1318-.1327-.2343-.3893-.6501-.584-.9151h-.001c-.1044-.1406-.2727-.3509-.416-.5273-.0717-.0883-.1369-.169-.1846-.2266-.0238-.0288-.043-.0521-.0566-.0684-.0069-.0081-.0126-.0138-.0166-.0185-.002-.0024-.0032-.0039-.0049-.0059-.1259-.1494-.2863-.2405-.4629-.2705zm4.5362.9902c-.23826-.0168-.45236.16173-.46972.3916-.01739.23012.16825.43537.40625.45215.58855.041595.9857.21462 1.2842.53025v.001c.30464.3215.44326.68865.43164 1.1904v.00195c-.0052.23089.1885.42656.42774.43162h.01074c.23574 0 .43226-.1861.4375-.41406.015-.6896-.209-1.305-.662-1.7822-.455-.4796-1.099-.7481-1.867-.8027z"/><path d="m7.398 5.2815c-.0008-.0009-.0018-.0017-.0036-.0035-.0008-.001-.0046-.0047-.0046-.0048l-.0083-.0058-.0247-.013z"/><path d="m5.3975 5.904c-.0017.0026-.0025.0111-.0047.0165-.0017.002-.0018.0038-.0036.0059.0021-.0082.0048-.0167.0048-.0165-.0003.0004.0064-.0102.0035-.0059z"/></g><path d="m19 16.5c0 .831-.669 1.5-1.5 1.5h-12.5l-3 3v.5l3-3h12.5c.831 0 1.5-.669 1.5-1.5z" opacity=".2"/><path d="m3.5 1c-.831 0-1.5.669-1.5 1.5v.5c0-.831.669-1.5 1.5-1.5h14c.831 0 1.5.669 1.5 1.5v-.5c0-.831-.669-1.5-1.5-1.5z" fill="#fff" opacity=".2"/></g></svg>