<svg height="24" width="24" xmlns="http://www.w3.org/2000/svg"><rect fill="#303f9f" height="21.750002" ry="1.977273" width="21.750002" x="1.125" y="1.124999"/><rect fill="#fafafa" height="18.75" ry="1.704546" width="18.75" x="2.625001" y="2.625"/><g stroke-width=".022659"><path d="m9.6956194 12.598188h-5.1933537c.2900299 3.677492 3.2243202 6.611782 6.9018133 6.901812v-5.240936c-.824774-.20846-1.4773419-.845167-1.7084596-1.660876z" fill="#303f9f"/><path d="m11.404078 9.6412387v-5.1412391c-3.6661626.2900303-6.5936553 3.2061938-6.8995469 6.8678254h5.1729611c.212991-.847432.8791538-1.5135952 1.7265858-1.7265863z" fill="#3f51b5"/><path d="m14.293052 11.367825h5.204682c-.301359-3.6503025-3.21299-6.5619341-6.863293-6.8655596v5.1571001c.81571.2311177 1.452417.8836855 1.658611 1.7084595z" fill="#448aff"/></g><path d="m-1.519648 19.228577h3.228821v5.893447h-3.228821z" fill="#ff5722" stroke-width=".022658" transform="matrix(.70710678 -.70710678 .70710678 .70710678 0 0)"/></svg>