<svg height="24" width="24" xmlns="http://www.w3.org/2000/svg"><path d="m9.1498 1.5c-.6094 0-1.1.4906-1.1 1.1v10.975l-3.3934-3.3934c-.43091-.43091-1.1246-.43091-1.5554 0l-.77775.77775c-.43091.4309-.43091 1.1245 0 1.5554l5.9125 5.9125c.7067 2.971 3.3603 5.069 6.4143 5.072 3.6448 0 6.6-2.9551 6.6-6.6v-14.3c0-.6094-.4906-1.1-1.1-1.1h-1.1c-.6094 0-1.1.4906-1.1 1.1v6.2056c0-.39105-.4906-.70564-1.1-.70564h-1.1c-.6094 0-1.1.31451-1.1.70575v.00429c0-.3938-.4906-.71004-1.1-.71004h-1.1c-.6094 0-1.1.31646-1.1.71004v-6.21c0-.6094-.4906-1.1-1.1-1.1zm0 .82499h1.1c.16662 0 .275.10838.275.275v9.73c.01601.96711 1.3963 1.067 1.6263.1276.05005-.02585.15235-3.5326.29865-3.5326h1.1c.1461 0 .24878 2.9567.29863 2.9826.20544.83825 1.3973.83825 1.6027 0 .0506-.02585.1529-2.9826.29865-2.9826h1.1c.1465 0 .24936 3.6717.2997 3.6976.23452.93565 1.6093.83242 1.6253-.132v-9.8906c0-.16662.10838-.275.275-.275h1.1c.16662 0 .275.10838.275.275v14.3c0 3.1988-2.5752 5.7744-5.7739 5.775-2.677-.003-4.9934-1.835-5.6128-4.439-.0354-.148-.1112-.284-.2192-.392l-5.9124-5.912c-.11789-.11789-.11789-.27097 0-.38886l.77742-.7777c.11789-.11789.27097-.11789.38886 0l3.3934 3.3934c.51975.5192 1.408.15125 1.4085-.58355v-10.975c0-.16662.10838-.275.275-.275z" opacity=".2"/><path d="m9.1498 1c-.6094 0-1.1.4906-1.1 1.1v10.975l-3.3934-3.3934c-.43091-.43091-1.1246-.43091-1.5554 0l-.7778.7774c-.43091.4309-.43091 1.1245 0 1.5554l5.9125 5.9125a6.6 6.6 0 0 0 6.4143 5.074 6.6 6.6 0 0 0 6.6-6.6v-14.3c0-.6094-.4906-1.1-1.1-1.1h-1.1c-.6094 0-1.1.4906-1.1 1.1v6.2056c0-.39125-.4906-.70575-1.1-.70575h-1.1c-.6094 0-1.1.31451-1.1.70575v.00429c0-.39359-.4906-.71004-1.1-.71004h-1.1c-.6094 0-1.1.31646-1.1.71004v-6.21c0-.6094-.4906-1.1-1.1-1.1h-1.1z" fill="#fabd7f"/><path d="m9.7515 1.3609c-.60775 0-1.1517.37779-1.1517 1.2891 0 .91129.49225 1.65 1.1 1.65s1.1-.7387 1.1-1.65c0-.91129-.4411-1.2891-1.0483-1.2891zm9.8482 0c-.60775 0-1.1.37779-1.1 1.2891 0 .91129.49225 1.65 1.1 1.65.60774 0 1.1-.7387 1.1-1.65 0-.91129-.49225-1.2891-1.1-1.2891zm-16.081 8.6102c-.1524.0115-.3172.0899-.5145.2039-.5261.304-1.0873.746-.6317 1.535.4557.789 1.2518 1.183 1.7779.879.5262-.304.5834-1.19.128-1.979-.285-.493-.5057-.6587-.7597-.6389z" fill="#facea2"/><path d="m9.1498 1c-.6094 0-1.1.4906-1.1 1.1v10.975l-3.3934-3.3934c-.43091-.43091-1.1246-.43091-1.5554 0l-.7778.7774c-.43091.4309-.43091 1.1245 0 1.5554l5.9125 5.9125c.7067 2.973 3.3603 5.071 6.4143 5.074 3.6448 0 6.6-2.9551 6.6-6.6v-14.3c0-.6094-.4906-1.1-1.1-1.1h-1.1c-.6094 0-1.1.4906-1.1 1.1v6.2056c0-.39105-.4906-.70564-1.1-.70564h-1.1c-.6094 0-1.1.31451-1.1.70575v.00429c0-.3938-.4906-.71004-1.1-.71004h-1.1c-.6094 0-1.1.31646-1.1.71004v-6.21c0-.6094-.4906-1.1-1.1-1.1zm0 .82499h1.1c.16662 0 .275.10838.275.275v9.73c.01601.96711 1.3963 1.067 1.6263.1276.05005-.02585.15235-3.5326.29865-3.5326h1.1c.1461 0 .24878 2.9567.29863 2.9826.20544.83825 1.3973.83825 1.6027 0 .0506-.02585.1529-2.9826.29865-2.9826h1.1c.1465 0 .24936 3.6717.2997 3.6976.23452.93565 1.6093.83242 1.6253-.132v-9.8906c0-.16662.10838-.275.275-.275h1.1c.16662 0 .275.10838.275.275v14.3c0 3.1988-2.5752 5.7744-5.7739 5.775-2.677-.003-4.9934-1.835-5.6128-4.439-.0354-.148-.1112-.284-.2192-.392l-5.9124-5.912c-.11789-.11789-.11789-.27097 0-.38886l.77742-.7777c.11789-.11789.27097-.11789.38886 0l3.3934 3.3934c.51975.5192 1.408.15125 1.4085-.58355v-10.975c0-.16662.10838-.275.275-.275z" fill="#e8a560"/></svg>