<svg height="22" width="22" xmlns="http://www.w3.org/2000/svg"><circle cx="6" cy="17" fill="#4285f4" r="2"/><path d="m18.687469 18.303647c.301187-.590152 2.031834-10.6810933 2.279238-13.2896236.267651-2.5848305-1.127913-2.1041593-2.412055-1.6675001-3.150499 1.0750056-13.1113753 4.9320753-15.8378603 6.3701912-.671236.28127-.961371.7585015-.472969 1.1715565.420514.350114 1.95926.830984 3.200218 1.075015 1.057861.323857 1.87956.01365 2.638057-.418712 1.822812-1.092109 7.2543803-4.0650435 7.5468763-4.2586459s.612628.1656936.448928.3396304c-.163701.173936-4.010423 3.6599335-5.27339 5.2360675-.669101.866629-.649059 1.329311.0383 1.8758 1.54204 1.221933 5.662057 4.007627 6.275101 4.176004.781724.214705 1.239555.03683 1.569559-.609783z" fill="#dfdfdf"/></svg>