<svg height="16" width="16" xmlns="http://www.w3.org/2000/svg"><circle cx="3.5" cy="12.5" fill="#4285f4" r="1.5"/><path d="m14.052605 13.434212c.253632-.479498 1.711019-8.6783881 1.919358-10.7978191.225391-2.10017462-.949821-1.70962922-2.031204-1.3548437-2.653051.873442-11.0411573 4.614312-13.33714486 5.7827812-.56525046.2285322-.80957622.6162826-.39828951.95189.35411713.2844673 1.64990277.6751738 2.69492087.8734492.8908304.2631336 1.5827865.011089 2.2215208-.3402035 1.535-.8873385 6.1089517-3.9098486 6.3552637-4.0671505.246314-.157302.515898.134626.378046.2759497-.137853.141323-3.3771983 2.973696-4.4407507 4.2543052-.5634533.7041359-.5465752 1.0800645.032257 1.5240875 1.298561.99282 4.7680487 3.256196 5.2842957 3.393003.658294.174448 1.043836.02993 1.321734-.495449z" fill="#dfdfdf"/></svg>