<svg height="32" width="32" xmlns="http://www.w3.org/2000/svg"><path d="m-42.09083 0h32v32h-32z" fill-rule="evenodd" opacity="0"/><g fill="#eaeaea" transform="translate(-205.305842 -.500007)"><path d="m166.21501 13.000008h26v1h-26z"/><path d="m137.81604-127.01704h8v1h-8z" fill-rule="evenodd" transform="matrix(.70710678 .70710678 -.70710678 .70710678 0 0)"/><path d="m166.21501-20.000004h26v1h-26z" transform="scale(1 -1)"/><path d="m130.9668-104.09673h8v1h-8z" fill-rule="evenodd" transform="matrix(.70710678 .70710678 -.70710678 .70710678 0 0)"/></g><path d="m0-.000001h32v32h-32z" fill-rule="evenodd" opacity="0"/><g fill="none" stroke="#eaeaea"><circle cx="16" cy="15.999999" r="14.5" stroke-width=".999997"/><g stroke-linecap="round" transform="translate(-204 40.499922)"><circle cx="220" cy="-27.999949" r="4.000051" stroke-width="1.9999"/><path d="m212.88885-16.888746a7.1111512 7.1111512 0 0 1 7.11115-7.111151 7.1111512 7.1111512 0 0 1 7.11115 7.111151" stroke-width="1.7777"/></g></g></svg>