<svg height="64" width="64" xmlns="http://www.w3.org/2000/svg" xmlns:xlink="http://www.w3.org/1999/xlink"><linearGradient id="a" gradientTransform="matrix(1.3 0 0 1.3333 .8 .000001)" gradientUnits="userSpaceOnUse" x1="24" x2="44" y1="24" y2="24"><stop offset="0"/><stop offset="1" stop-opacity="0"/></linearGradient><path d="m58 54.3333v-42.666c0-1.4777-1.16-2.667-2.6-2.667h-46.8c-1.4404 0-2.6 1.1893-2.6 2.6667v42.666c0 1.478 1.1596 2.667 2.6 2.667h46.8c1.44 0 2.6-1.189 2.6-2.667z" opacity=".2"/><path d="m58 53.333v-42.666c0-1.4777-1.16-2.667-2.6-2.667h-46.8c-1.4404 0-2.6 1.1893-2.6 2.6667v42.666c0 1.478 1.1596 2.667 2.6 2.667h46.8c1.44 0 2.6-1.189 2.6-2.667z" fill="#ddd6a7"/><g transform="scale(1 -1)"><path d="m35-33h20v2h-20z" opacity=".5"/><path d="m35-29h20v2h-20z" opacity=".5"/><path d="m35-25h18v2h-18z" opacity=".5"/><path d="m35-21h14v2h-14z" opacity=".5"/><path d="m35-17h20v2h-20z" opacity=".5"/><path d="m35-13h16v2h-16z" opacity=".5"/></g><path d="m9 12h20v2h-20z" opacity=".5"/><path d="m9 16h18v2h-18z" opacity=".5"/><path d="m9 20h16v2h-16z" opacity=".5"/><path d="m9 24h14v2h-14z" opacity=".5"/><path d="m9 28h12v2h-12z" opacity=".5"/><path d="m9 32h20v2h-20z" opacity=".5"/><path d="m9 36h20v2h-20z" opacity=".5"/><path d="m9 40h18v2h-18z" opacity=".5"/><path d="m9 44h14v2h-14z" opacity=".5"/><path d="m9 48h20v2h-20z" opacity=".5"/><path d="m9 52h16v2h-16z" opacity=".5"/><path d="m58 53.333v-42.666c0-1.4777-1.16-2.667-2.6-2.667h-23.4v48h23.4c1.44 0 2.6-1.189 2.6-2.667z" fill="url(#a)" opacity="0"/><path d="m22 8h8v21.333l-4-5.333-4 5.333z" fill="#ff5959"/><path d="m8.5996 8c-1.4404 0-2.5996 1.1887-2.5996 2.666v2c0-1.477 1.1592-2.666 2.5996-2.666h46.8c1.441 0 2.6 1.189 2.6 2.666v-2c0-1.4773-1.159-2.666-2.6-2.666z" fill="#fff" opacity="0"/><path d="m8.5996094 8c-1.4404 0-2.5996094 1.1886156-2.5996094 2.666016v1.001953c0-1.4774 1.1592094-2.667969 2.5996094-2.667969h46.8007816c1.44 0 2.599609 1.190269 2.599609 2.667969v-1c0-1.4777003-1.159609-2.667969-2.599609-2.667969z" fill="#fff" opacity=".2"/></svg>