<svg height="64" width="64" xmlns="http://www.w3.org/2000/svg"><path d="m13 4c-2.77 0-5 2.2299-5 5v46.002c0 2.7698 2.23 5 5 5h38c2.77 0 5-2.2299 5-5v-39.002l-12-11.999z" fill="#88d75e" fill-rule="evenodd" stroke-width="3.7795"/><g fill="#fff"><path d="m55.999 16-12-12v6.9998c0 2.77 2.23 5 5 5z" fill-rule="evenodd" opacity=".35" stroke-width="3.7796"/><path d="m29.31 20a3.1034 3.1034 0 0 0 -3.1034 3.1034 3.1034 3.1034 0 0 0 1.5604 2.6897h-6.9397c-.45848 0-.82759.3691-.82759.82759v6.1121a3.1034 3.1034 0 0 1 2.6897-1.5604 3.1034 3.1034 0 1 1 0 6.2069 3.1034 3.1034 0 0 1 -2.6897-1.5629v7.356c0 .45848.3691.82759.82759.82759h6.9397a3.1034 3.1034 0 0 1 -1.5604-2.6897 3.1034 3.1034 0 1 1 6.2069 0 3.1034 3.1034 0 0 1 -1.5629 2.6897h6.5284c.45848 0 .82759-.3691.82759-.82759v-7.356a3.1034 3.1034 0 0 0 2.6897 1.5629 3.1034 3.1034 0 1 0 0-6.2069 3.1034 3.1034 0 0 0 -2.6897 1.5604v-6.1121c0-.45848-.3691-.82759-.82759-.82759h-6.5284a3.1034 3.1034 0 0 0 1.5629-2.6897 3.1034 3.1034 0 0 0 -3.1034-3.1034z"/></g></svg>