<svg height="64" viewBox="0 0 16.933 16.933" width="64" xmlns="http://www.w3.org/2000/svg"><path d="m3.4395 1.0587c-.73288 0-1.3229.58999-1.3229 1.3229v12.171c0 .73286.59001 1.3229 1.3229 1.3229h10.054c.73288 0 1.3229-.58999 1.3229-1.3229v-10.319l-3.1749-3.1748z" fill="#eca973" fill-rule="evenodd" stroke-width=".99999"/><path d="m14.816 4.2332-3.1749-3.1749v1.852c0 .73288.59001 1.3229 1.3229 1.3229z" fill="#fff" fill-rule="evenodd" opacity=".35"/><g transform="translate(-17.999 -.64507)"><path d="m25.944 1.7034h1.0583v14.816h-1.0583z" fill="#fff" opacity=".25"/><path d="m21.71 12.287h3.4395v2.1166h-3.4395z" fill="#f9f9f9" opacity=".35"/><path d="m21.975 12.816v1.0583h.52916v-1.0583zm.79374 0v1.0583h.26458v-1.0583zm.52916 0v1.0583h.52916v-1.0583zm.79373 0v1.0583h.26458v-1.0583zm.52916 0v1.0583h.26458v-1.0583z" opacity=".35"/></g><path d="m8.466 1.0583h.53659v14.816h-.53659z" fill="#fff" opacity=".25"/><g fill="#f55" opacity=".75" stroke-width="1.1429" transform="matrix(.26458 0 0 .26458 8.9957 9.7894)"><path d="m11 3a8 8 0 0 0 -8 8 8 8 0 0 0 8 8 8 8 0 0 0 8-8 8 8 0 0 0 -8-8zm0 1a7 7 0 0 1 7 7 7 7 0 0 1 -7 7 7 7 0 0 1 -7-7 7 7 0 0 1 7-7z"/><path d="m11 6a5 5 0 0 0 -3.318 1.268l.709.709a4 4 0 0 1 2.609-.977 4 4 0 0 1 4 4h1a5 5 0 0 0 -5-5zm-4.525 2.889a5 5 0 0 0 -.475 2.111h1a4 4 0 0 1 .238-1.348z"/><path d="m12.344 8.166-2.146 4.977a1.2 1.2 0 0 0 -.278.585l-.007.014h.006c-.09.562.221 1.086.719 1.212.499.126 1.021-.19 1.208-.727l.007.002v-.03l.024-.075c.044-.182.047-.371.007-.55z"/></g></svg>