<svg height="64" viewBox="0 0 16.933 16.933" width="64" xmlns="http://www.w3.org/2000/svg"><g fill-rule="evenodd"><path d="m13 4c-2.77 0-5 2.23-5 5v46c0 2.77 2.23 5 5 5h38c2.77 0 5-2.23 5-5v-39l-12-12z" fill="#f4f4f4" opacity=".25" stroke="#000" stroke-width=".99999" transform="scale(.26458)"/><path d="m13 4c-2.77 0-5 2.23-5 5v46c0 2.77 2.23 5 5 5h38c2.77 0 5-2.23 5-5v-39l-12-12z" fill="#f4f4f4" transform="scale(.26458)"/><path d="m14.816 4.2332-3.1749-3.1749v1.852c0 .73288.59001 1.3229 1.3229 1.3229z" fill="#bbb"/></g><path d="m6.601 6.483v.96a2.253 2.253 0 0 0 -.866.36l-.68-.68-.58.58.68.68a2.253 2.253 0 0 0 -.36.866h-.96v.819h.96a2.253 2.253 0 0 0 .36.867l-.68.679.58.58.681-.682a2.253 2.253 0 0 0 .865.36v.961h.819v-.96a2.253 2.253 0 0 0 .867-.359l.679.68.58-.58-.681-.681a2.253 2.253 0 0 0 .36-.865h.96v-.819h-.96a2.253 2.253 0 0 0 -.36-.866l.68-.68-.58-.58-.68.681a2.253 2.253 0 0 0 -.865-.36v-.96zm.41 1.946a1.229 1.229 0 0 1 1.228 1.23 1.229 1.229 0 0 1 -1.228 1.228 1.229 1.229 0 0 1 -1.23-1.229 1.229 1.229 0 0 1 1.23-1.229zm4.775-5.361-.231.523a1.342 1.342 0 0 0 -.559-.013l-.206-.534-.456.176.207.534a1.342 1.342 0 0 0 -.406.385l-.522-.231-.197.446.523.231a1.342 1.342 0 0 0 -.014.559l-.533.206.176.456.535-.207a1.342 1.342 0 0 0 .385.404l-.232.524.446.197.231-.523a1.342 1.342 0 0 0 .559.013l.206.534.456-.176-.207-.535a1.342 1.342 0 0 0 .404-.385l.524.232.197-.446-.524-.232a1.342 1.342 0 0 0 .014-.558l.534-.207-.176-.455-.535.207a1.342 1.342 0 0 0 -.385-.405l.232-.523zm-.246 1.158a.732.732 0 0 1 .373.966.732.732 0 0 1 -.965.373.732.732 0 0 1 -.374-.965.732.732 0 0 1 .966-.374z" opacity=".35" transform="translate(-.50633 1.6149)"/></svg>