<svg height="64" viewBox="0 0 16.933 16.933" width="64" xmlns="http://www.w3.org/2000/svg"><path d="m3.4395 1.0583c-.73288 0-1.3229.58997-1.3229 1.3229v12.171c0 .73284.59001 1.3229 1.3229 1.3229h10.054c.73288 0 1.3229-.58997 1.3229-1.3229v-10.319l-3.1749-3.1747z" fill="#fc8f36" fill-rule="evenodd" stroke-width=".99998"/><g fill="#fff"><path d="m14.816 4.2332-3.1749-3.1749v1.852c0 .73288.59001 1.3229 1.3229 1.3229z" fill-rule="evenodd" opacity=".35"/><path d="m3.7381 13.706c0-.163.056-.3.169-.41a.56.56 0 0 1 .411-.168c.159 0 .293.056.403.168.112.11.168.247.168.41a.554.554 0 0 1 -.168.406.548.548 0 0 1 -.403.165.565.565 0 0 1 -.411-.165.548.548 0 0 1 -.169-.406m-.033-2.61v.962c1.228 0 2.225.999 2.225 2.229h.964c0-1.762-1.43-3.19-3.19-3.19zm.001-2.102v1.063a4.229 4.229 0 0 1 4.224 4.23h1.066a5.294 5.294 0 0 0 -5.29-5.293z"/></g></svg>