<svg height="64" viewBox="0 0 16.933 16.933" width="64" xmlns="http://www.w3.org/2000/svg"><g fill-rule="evenodd"><path d="m13 4c-2.77 0-5 2.23-5 5v46c0 2.77 2.23 5 5 5h38c2.77 0 5-2.23 5-5v-39l-12-12z" fill="#f4f4f4" opacity=".25" stroke="#000" stroke-width=".99999" transform="scale(.26458)"/><path d="m13 4c-2.77 0-5 2.23-5 5v46c0 2.77 2.23 5 5 5h38c2.77 0 5-2.23 5-5v-39l-12-12z" fill="#f4f4f4" transform="scale(.26458)"/><path d="m14.816 4.2332-3.1749-3.1749v1.852c0 .73288.59001 1.3229 1.3229 1.3229z" fill="#bbb"/></g><path d="m9.7169 5.4218c-.22663 0-.44029.04209-.63651.12686l-.0004.000132-.000275.000132c-.19513.08055-.36684.19842-.51042.35101l-.000275.000275-.0013.0014-.0004.000525c-.13982.1534-.24825.33814-.32504.54983v.000132l-.000132.000275c-.07772.2106-.11588.44237-.11588.69245 0 .2538.03802.48721.11588.69814.07692.20837.18547.39113.32517.5444l.0004.000525.0009.0012.000407.000407c.14354.15259.31486.2724.50965.35682l.0004.000132.000775.0004.00065.000275.0004.000132c.19616.08077.40954.12066.636.12066s.43997-.0399.63613-.12066l.0012-.000525.001-.0004c.19507-.08455.36489-.20505.50487-.3585l.000407-.000407c.14351-.15309.25443-.33598.33137-.5444.07786-.21091.11562-.44431.11562-.69814 0-.2497-.03789-.48109-.11536-.69142l-.000525-.0016c-.076811-.21171-.18748-.39647-.33111-.5497l-.000408-.000408c-.14007-.15354-.31042-.27211-.5059-.35281l-.000399-.000133-.000275-.000132c-.19584-.084559-.40921-.12668-.63535-.12681zm-.00065.27026h.00065c.19408 0 .36973.03533.53084.10516l.0004.000133.000775.0004.00065.000275.0004.000132c.16145.06648.29707.16108.41095.28602l.000525.000525.0013.0015c.11753.12516.20924.27668.27517.45888l.0012.0031.0004.0019v.000275c.06437.17605.09767.37338.09767.59452 0 .227-.03381.42765-.09909.60447-.06583.17834-.15743.32846-.27543.4541l-.0004.0004-.0009.0012-.0004.0004c-.11384.1249-.24975.2214-.41121.29171l-.0004.000275-.0004.000132c-.1613.06625-.33746.09999-.532.09999-.19453 0-.37069-.03374-.532-.09999l-.0004-.000132-.0004-.000275c-.16142-.07028-.29956-.16711-.41754-.29235l-.00055-.00055c-.11422-.12561-.20439-.27608-.27039-.45487-.06528-.17683-.09909-.37747-.09909-.60447 0-.22157.03344-.41938.09805-.59569l.000775-.0027.000275-.000525.000275-.0009c.06611-.18266.15634-.3345.27013-.45965l.000275-.000275.000275-.0004c.11803-.12528.25576-.22022.41715-.28667l.0012-.0004.000132-.000132.001-.0004c.16092-.06975.33638-.10509.53019-.10516zm-3.2839.52402c-.17164 0-.33466.0321-.4842.09663l-.000275.000133-.000275.000132c-.1487.06142-.28029.15164-.38976.26807l-.0004.000525-.00055.00055-.0004.000525c-.10684.11718-.18938.25821-.24752.4187l-.000275.00065c-.000066.000066-.000066.000198-.000132.000275-.05875.15967-.08733.33468-.08733.52257 0 .19107.02865.36794.08785.52825.05825.15775.14089.2971.2474.41392l.0004.000525.0009.001c.10937.11632.24044.20782.38873.27207l.000275.000133.0026.0012.000132.000132c.14924.06132.31171.09146.48291.09146.17125 0 .33349-.03011.48278-.09146.000066-.000066.000198-.000066.000275-.000132l.0014-.000775.0012-.000525c.14839-.0643.27833-.15624.38511-.27323l.000275-.000275.000133-.000275c.10929-.11666.19378-.25599.25205-.41379.0592-.16032.08772-.33718.08772-.52825 0-.18803-.02862-.36319-.08746-.52296l-.000132-.000525c-.058243-.16073-.14262-.30185-.25245-.41896l-.000275-.000275-.000132-.000275c-.10681-.11692-.23723-.20744-.38589-.26884l-.00055-.000264c-.14955-.06454-.31242-.09663-.48407-.09663zm-.0079.27039h.0079c.13909 0 .26387.02522.37826.0748l.0004.000132.0009.000275.0012.000525c.11458.04717.21.11395.29054.20218l.0008.0008.0012.001c.08352.08883.14878.19674.19611.32749l.00065.0019c.04645.12625.07067.26861.07067.42929 0 .16424-.02431.30835-.07092.43459-.04722.1279-.1127.23461-.19662.32388l-.0004.000525-.0004.0004-.000275.0004-.0004.000525c-.08079.08862-.17712.15678-.2921.20683l-.000525.000275-.0004.000133c-.11436.0468-.23938.07105-.37865.07105-.13932 0-.26449-.02421-.37891-.07105l-.0004-.000133-.0004-.000275c-.11489-.05-.21267-.11852-.29649-.20735l-.000275-.000275-.000275-.0004c-.081081-.08916-.14562-.19592-.19301-.32426-.04663-.12633-.07092-.27048-.07092-.43472 0-.16089.02423-.30344.0708-.42981.000066-.000198.000063-.0006.000132-.000775l.000133-.000132.000132-.00065c.04749-.1312.11208-.23916.19275-.32788l.00055-.00055c.08368-.08866.18083-.1559.29545-.20308l.001-.0004.0012-.000525c.11143-.04829.23344-.07249.36819-.07377zm3.3302 2.9647c-1.1919.000001-1.9185.10869-2.3725.44518-.22628.16769-.37504.3951-.46056.66726-.0823.26192-.10946.59034-.11239.9469l.27039.00065c.003-.34158.03059-.64554.09999-.86641.07222-.22986.1838-.39793.36366-.53122.36172-.26806 1.0374-.39209 2.2114-.39209 1.1741.000001 1.8497.12408 2.2111.39209.17969.13326.29111.30127.36302.53109.06911.22085.09617.52474.0987.86628l.27039-.000275c-.0023-.35657-.02901-.68482-.11097-.94677-.08517-.27218-.23401-.4998-.46017-.66752-.45381-.33655-1.1801-.44518-2.372-.44518zm-3.4027-.05663c-.84497.0026-1.3441.08488-1.6827.33746-.17132.1278-.28515.30412-.34907.51133-.06413.20796-.08423.44787-.08486.73134v.40422h.27026v-.40384c.000625-.27014.02163-.48594.07286-.65202.05095-.16517.12799-.28153.2523-.37426.24711-.18434.69536-.28054 1.5212-.28372z" fill="#999"/></svg>