<svg height="64" viewBox="0 0 16.933 16.933" width="64" xmlns="http://www.w3.org/2000/svg"><clipPath><path d="m102.92 44c-35.297 0-39.095 3.6254-38.922 38.994v73.006 73.006c-.17299 35.368 3.6249 38.994 38.922 38.994h98.157c35.297 0 38.922-3.625 38.922-38.994v-73.006-73.006c0-35.369-3.6249-38.994-38.922-38.994z"/></clipPath><g fill-rule="evenodd"><path d="m13 4c-2.77 0-5 2.23-5 5v46c0 2.77 2.23 5 5 5h38c2.77 0 5-2.23 5-5v-39l-12-12z" fill="#f4f4f4" opacity=".25" stroke="#000" stroke-width=".99999" transform="scale(.26458)"/><path d="m13 4c-2.77 0-5 2.23-5 5v46c0 2.77 2.23 5 5 5h38c2.77 0 5-2.23 5-5v-39l-12-12z" fill="#f4f4f4" transform="scale(.26458)"/><path d="m14.816 4.2332-3.1749-3.1749v1.852c0 .73288.59001 1.3229 1.3229 1.3229z" fill="#bbb"/></g><g fill="#999" transform="translate(-7.9617 -24.175)"><path d="m16.958 29.467v.26458h3.1749v-.26458zm0 .79373v.26458h3.1749v-.26458zm0 .79374v.26458h3.1749v-.26458zm0 .79373v.26458h3.1749v-.26458zm0 .79373v.26458h3.1749v-.26458zm-4.2332.79373v.26458h7.4082v-.26458zm0 .79374v.26458h7.4082v-.26458zm0 .79373v.26458h7.4082v-.26458zm0 .79374v.26458h7.4082v-.26458zm0 .79373v.26458h4.2332v-.26458z"/><path d="m14.35 29.202-1.3053 3.4395h-.32064v.26458h.92601v-.26458h-.29647l.30928-.79429h1.5347l.30891.79429h-.40052v.26458h1.3283v-.26458h-.36644l-1.3056-3.4395zm.08025.59547.67572 1.7863h-1.3401z" stroke-width=".066145"/></g></svg>