<svg height="64" viewBox="0 0 16.933 16.933" width="64" xmlns="http://www.w3.org/2000/svg"><g fill-rule="evenodd"><path d="m13 4c-2.77 0-5 2.23-5 5v46c0 2.77 2.23 5 5 5h38c2.77 0 5-2.23 5-5v-39l-12-12z" fill="#f4f4f4" opacity=".25" stroke="#000" stroke-width=".99999" transform="scale(.26458)"/><path d="m13 4c-2.77 0-5 2.23-5 5v46c0 2.77 2.23 5 5 5h38c2.77 0 5-2.23 5-5v-39l-12-12z" fill="#f4f4f4" transform="scale(.26458)"/><path d="m14.816 4.2332-3.1749-3.1749v1.852c0 .73288.59001 1.3229 1.3229 1.3229z" fill="#bbb"/></g><path d="m8.4668 4.4978c-.03837 0-.07678.01695-.09758.05072l-.20644.33356-.09724.0095-.26742-.2868c-.0542-.05799-.16367-.03653-.19146.03816l-.13702.36646-.09448.0286-.31754-.22849c-.06452-.0466-.16768-.0037-.18043.07466l-.06305.38644-.08673.04652-.3563-.16244c-.07241-.0331-.16538.02912-.16234.10852l.01369.39213-.07527.06192-.38188-.09008c-.07757-.01807-.15645.06065-.13823.13822l.09.38197-.06184.0751-.39213-.0137c-.0791-.0023-.14137.08986-.10843.16243l.16243.35638-.04651.08673-.38636.06287c-.07849.01274-.12106.1159-.07475.18043l.22858.31736-.02868.09465-.36646.13694c-.07439.02778-.09621.13718-.03807.19154l.28671.26733-.0095.09715-.33356.20653c-.06756.04175-.06756.15356 0 .19516l.33356.20644.0095.09714-.28671.26742c-.05814.0542-.03632.16352.03807.19145l.36646.13703.02868.09457-.22858.31745c-.04645.06467-.0036.16783.07484.18043l.38627.06278.04651.08689-.16243.35631c-.03309.07241.02934.16553.10843.16234l.39204-.01378.06192.07536-.09.38196c-.01822.07743.06066.15611.13823.1379l.38188-.08992.07527.06174-.01369.39222c-.003.0794.08993.14153.16234.10843l.3563-.16244.08673.0466.06304.38618c.01275.07864.11591.12114.18043.07484l.31737-.22874.09456.02876.13702.36638c.02778.07438.13726.09627.19145.03798l.26742-.28662.09723.0097.20644.33356c.0416.06724.15341.0674.19516 0l.20653-.33356.09715-.0097.26733.28662c.0542.0583.16367.0364.19146-.03798l.13694-.36638.09465-.02876.31746.22874c.06452.0463.16759.0037.18034-.07484l.06304-.38618.08673-.0466.3563.16244c.07241.0331.16523-.02888.16234-.10843l-.0137-.39222.07519-.06174.38196.08992c.07758.01821.15628-.06047.13806-.1379l-.09-.38196.06184-.07536.39213.01378c.07909.0032.14159-.08993.10834-.16234l-.16234-.35631.04651-.08689.38636-.06278c.07864-.0126.12128-.11576.07467-.18044l-.22857-.31745.02868-.09457.36646-.13703c.07454-.02793.09628-.13725.03798-.19145l-.28662-.26742.0095-.09714.33356-.20644c.06756-.0416.06763-.15341.000066-.19516l-.33356-.20653-.0095-.09715.28662-.26733c.0583-.05436.03647-.16376-.03807-.19154l-.36638-.13694-.02868-.09465.22858-.31736c.04661-.06453.0038-.16752-.07467-.18043l-.38644-.06287-.04642-.08673.16234-.35638c.03325-.07257-.02849-.16547-.10835-.16243l-.39213.01369-.06201-.0751.09017-.38197c.01822-.07757-.06057-.15644-.13814-.13822l-.38188.09008-.07527-.06192.01378-.39213c.003-.0794-.08993-.14147-.16235-.10852l-.3563.16244-.08673-.04652-.06304-.38644c-.01275-.07833-.11583-.12113-.18034-.07466l-.31763.22849-.09448-.0286-.13694-.36646c-.02778-.07469-.13726-.09615-.19146-.03816l-.26733.2868-.09724-.0095-.20644-.33356c-.02088-.03377-.05921-.05072-.09758-.05072zm-.01266.69916c.11799 0 .23604.07864.23598.23597-.000133.31444-.47176.31444-.47188 0-.000066-.15733.11791-.23597.2359-.23597zm.54758.38868c.83865.15709 1.5658.67494 1.9884 1.4162l-.27827.62844c-.04805.10878.000925.23602.10938.28422l.53578.23796c.01666.16758.01869.33632.0061.50426h-.29799c-.02983 0-.04177.0196-.04177.04883v.13685c0 .32215-.18171.39221-.34088.41004-.15159.01708-.31964-.06347-.34037-.15623-.08942-.50296-.23838-.61038-.47368-.79596.29201-.18544.59581-.45899.59581-.82516 0-.3954-.27102-.64447-.45577-.7666-.25922-.17086-.5462-.18694-.62363-.18694h-3.0821c.42606-.4761.99721-.81662 1.625-.93527l.36328.38119c.08213.086.21818.08918.30411.007zm-3.3619 1.7473c.11799 0 .23596.07864.2359.23598-.000132.31443-.47176.31443-.47188 0-.000066-.15733.11799-.23598.23598-.23598zm5.6286.01103c.11799 0 .23604.07864.23598.23598-.000132.31443-.47176.31443-.47188 0-.000066-.15734.11791-.23598.2359-.23598zm-5.1335.09339h.34734l-.001 1.8386h-.80853c-.10251-.36007-.13445-.77473-.09405-1.1469l.50822-.22581c.10855-.0482.15758-.17544.10938-.28421zm1.5685 0h1.073c.05063 0 .3575.02038.3575.24985 0 .19051-.23534.2843-.4289.2843h-1.0016v-.53424zm0 1.221h.85609c.06854 0 .36645.0959.46171.47671.02983.11712.09534.49812.14013.6201.04463.13678.22639.42967.42003.42967h1.2256c-.0822.11002-.17214.19441-.26905.2917l-.49892-.10723c-.11621-.0249-.23046.04901-.25536.16545l-.11842.55258c-.77058.34905-1.6551.34489-2.4223-.01155l-.11834-.55266c-.0249-.11628-.13922-.19033-.25536-.16536l-.48781.10473c-.09064-.09335-.17493-.17302-.25226-.27767h2.3375v-.91584h-.7632zm-.99706 1.999c.11799 0 .23604.07865.23598.23598-.000132.31443-.47175.31443-.47188 0-.000066-.15734.11791-.23598.2359-.23598zm3.4956.01094c.11799 0 .23596.07873.2359.23606-.000132.31444-.47176.31444-.47188 0-.000066-.15734.11799-.23606.23598-.23606z" fill="#666" stroke-width=".03816"/></svg>