<svg height="64" viewBox="0 0 16.933 16.933" width="64" xmlns="http://www.w3.org/2000/svg"><g fill-rule="evenodd"><path d="m13 4c-2.77 0-5 2.23-5 5v46c0 2.77 2.23 5 5 5h38c2.77 0 5-2.23 5-5v-39l-12-12z" fill="#f4f4f4" opacity=".25" stroke="#000" stroke-width=".99999" transform="scale(.26458)"/><path d="m13 4c-2.77 0-5 2.23-5 5v46c0 2.77 2.23 5 5 5h38c2.77 0 5-2.23 5-5v-39l-12-12z" fill="#f4f4f4" transform="scale(.26458)"/><path d="m14.816 4.2332-3.1749-3.1749v1.852c0 .73288.59001 1.3229 1.3229 1.3229z" fill="#bbb"/></g><path d="m6.615 5.4578v.26458 1.852h-1.4627l.17738.3771s1.2404 2.6425 2.9226 4.9792l.21471.29817.21471-.29817c1.682-2.3366 2.9217-4.9782 2.9217-4.9782l.17712-.3771h-1.4615v-2.1177zm.52916.52916h2.6458v2.1177h1.1496c-.36041.7253-1.2814 2.4921-2.4725 4.2046-1.1914-1.7127-2.1129-3.4802-2.4734-4.2056h1.1506z" fill="#999"/></svg>