<svg height="64" viewBox="0 0 16.933 16.933" width="64" xmlns="http://www.w3.org/2000/svg"><g fill-rule="evenodd"><g><path d="m13 4c-2.77 0-5 2.23-5 5v46c0 2.77 2.23 5 5 5h38c2.77 0 5-2.23 5-5v-39l-12-12z" fill="#f4f4f4" opacity=".25" stroke="#000" stroke-width=".99999" transform="scale(.26458)"/><path d="m13 4c-2.77 0-5 2.23-5 5v46c0 2.77 2.23 5 5 5h38c2.77 0 5-2.23 5-5v-39l-12-12z" fill="#f4f4f4" transform="scale(.26458)"/><path d="m14.816 4.2332-3.1749-3.1749v1.852c0 .73288.59001 1.3229 1.3229 1.3229z" fill="#bbb"/></g><path d="m9.4621 8.9292s.30458.09191.48152.18144c.0614.03107.16763.09307.24426.17447.07506.07972.11166.16051.11166.16051l1.2145 2.195-2.2128.0008-.90658-1.6664s-.18577-.31919-.30008-.41174c-.09536-.0772-.13602-.10468-.23029-.10468h-.46095l-.000325 2.1816h-1.984v-6.3487h3.075c1.092 0 2.5322.32672 2.5322 1.8206 0 1.4939-1.5642 1.817-1.5642 1.817zm-2.0592-2.4472v1.5872h.94162s.72999 0 .77856-.7766c.05068-.81043-.77901-.80972-.77901-.80972z" fill="#3f51b5" stroke-width=".066145"/></g></svg>