<svg height="64" viewBox="0 0 16.933 16.933" width="64" xmlns="http://www.w3.org/2000/svg"><g fill-rule="evenodd"><path d="m13 4c-2.77 0-5 2.23-5 5v46c0 2.77 2.23 5 5 5h38c2.77 0 5-2.23 5-5v-39l-12-12z" fill="#f4f4f4" opacity=".25" stroke="#000" stroke-width=".99999" transform="scale(.26458)"/><path d="m13 4c-2.77 0-5 2.23-5 5v46c0 2.77 2.23 5 5 5h38c2.77 0 5-2.23 5-5v-39l-12-12z" fill="#f4f4f4" transform="scale(.26458)"/><path d="m14.816 4.2332-3.1749-3.1749v1.852c0 .73288.59001 1.3229 1.3229 1.3229z" fill="#bbb"/></g><path d="m11.524 8.9419c-.29537.0015-.55208.07268-.76704.17784-.07887-.15619-.15774-.29537-.17165-.39744-.01546-.11908-.03402-.19176-.01546-.33403s.10206-.34486.10052-.36032c-.0016-.01547-.01856-.08815-.18867-.08969-.17011-.0016-.31702.03247-.33403.07732s-.04949.14691-.07114.25207c-.02938.15464-.34022.70672-.51806.99591-.05722-.11289-.1067-.21186-.11753-.29073-.01547-.11908-.03402-.19176-.01547-.33403.01856-.14227.10206-.34486.10052-.36032-.0016-.01546-.01856-.08815-.18867-.08969-.17011-.0015-.31702.03248-.33403.07732-.01701.04485-.03557.15-.07114.25207s-.44847 1.0237-.55672 1.2619c-.05567.12217-.10361.2196-.13763.28609 0 0-.0015.0046-.0062.01237-.02938.05722-.04639.08815-.04639.08815v.0015c-.0232.04175-.04794.08042-.06031.08042-.0093 0-.02629-.11134.0031-.26289.06186-.32011.20877-.81807.20722-.83508 0-.0093.02784-.09588-.09588-.14073-.12062-.04485-.16392.02938-.17475.02938s-.01856.02629-.01856.02629.13454-.55981-.25671-.55981c-.24434 0-.58146.26753-.74848.50878-.10516.05722-.32939.17939-.56909.31083-.09124.05103-.18557.10206-.27372.15-.0062-.0062-.01237-.01392-.01856-.0201-.47321-.50569-1.3485-.86291-1.3114-1.5418.01392-.24743.09897-.89694 1.681-1.6856 1.3021-.64177 2.3382-.46393 2.5176-.06959.25671.5629-.55517 1.6083-1.9006 1.7598-.51342.05722-.7825-.14073-.85054-.21496-.07114-.07732-.08196-.08196-.10825-.0665-.0433.0232-.01546.09279 0 .13299.04021.10516.20568.29073.48558.38197.24743.08041.849.12526 1.5774-.15619.81498-.31548 1.4521-1.1923 1.265-1.9269-.18712-.74538-1.4243-.99127-2.5949-.57528-.6959.24743-1.4506.63713-1.9934 1.1444-.64486.60311-.74693 1.1274-.70518 1.3469.15.7794 1.2248 1.2866 1.6547 1.6624-.02165.01237-.04175.0232-.05877.03248-.21496.1067-1.0346.53507-1.2387.98817-.23197.51342.03712.88147.21496.93096.55208.1531 1.1196-.12217 1.4243-.57682.30465-.45465.26753-1.0454.12681-1.316-.0015-.0031-.0031-.0062-.0062-.0093.05567-.03247.11289-.0665.16856-.09897.1098-.06495.21805-.12526.31083-.17475-.05258.14382-.09124.31547-.1098.5629-.0232.29073.09588.66806.25207.81652.06959.06495.15155.0665.20413.0665.18248 0 .26444-.15155.35568-.33094.11134-.21959.21186-.47476.21186-.47476s-.12526.68971.21496.68971c.12372 0 .24898-.16083.30465-.24279v.0015s.0031-.0046.0093-.01546c.01237-.02011.02011-.03248.02011-.03248v-.0031c.04949-.0866.16083-.283.3263-.6093.21341-.42063.41909-.94642.41909-.94642s.01856.12835.08196.34176c.03711.12526.11444.2629.17629.39589-.04949.06959-.08041.10825-.08041.10825l.0016.0016c-.04021.05258-.08351.1098-.13145.16547-.16856.20104-.3696.43146-.39743.49795-.03248.07887-.02474.13609.03712.18248.04485.03402.12526.03866.20722.03402.15155-.01083.25826-.04794.31083-.07114.08196-.02938.17784-.07423.26754-.14073.16547-.12217.26599-.29692.25671-.52733-.0046-.12681-.04639-.25362-.09743-.37269.01546-.02165.02938-.0433.04485-.06495.26135-.38197.46393-.80106.46393-.80106s.01856.12836.08196.34176c.03093.10825.09433.22578.15.34022-.24588.19949-.39744.43146-.45156.58301-.09743.28145-.02165.40826.12217.43764.06495.01392.15774-.01701.22578-.04639.0866-.02784.18866-.07578.28609-.14691.16547-.12217.32475-.29228.31548-.5227-.0046-.10516-.03248-.20877-.07114-.30929.20877-.0866.47785-.13454.82116-.09433.7361.0866.88147.54589.85363.7392s-.18248.29846-.23351.33094c-.05103.03247-.06804.0433-.0634.0665.0062.03402.03093.03248.07423.02629.06031-.01083.38661-.15619.40053-.51187.0232-.45465-.40981-.95106-1.1753-.94642zm-5.6785 1.9145c-.24434.26599-.58455.36651-.73147.28145-.15774-.09124-.09588-.48404.20413-.76549.18248-.17166.41754-.33094.57373-.42836.03557-.02165.08815-.05258.15155-.09124.01083-.0062.01701-.0093.01701-.0093.01237-.0077.02474-.01546.03711-.0232.1098.40207.0046.75621-.25207 1.0361zm1.7784-1.2093c-.08505.20722-.2629.73765-.37114.70827-.09279-.02474-.15-.42682-.01856-.82425.0665-.19949.20722-.43764.28918-.53043.13299-.14846.27991-.19794.31547-.13763.04485.07887-.16238.65414-.21496.78404zm1.4676.70208c-.03557.01856-.06959.03093-.08505.02165-.01083-.0062.01546-.03093.01546-.03093s.18403-.19794.25671-.28764c.04175-.05258.09124-.11444.14382-.18403v.0201c0 .23661-.22887.39589-.33094.46084zm1.132-.25825c-.02629-.01856-.02165-.08042.0665-.27372.03402-.07578.11444-.20258.25207-.32475.01546.04949.02629.09742.02474.14227-.0015.29846-.21496.40981-.34331.4562z" fill="#e97cc8" stroke-width=".015464"/></svg>