<svg height="64" viewBox="0 0 16.933 16.933" width="64" xmlns="http://www.w3.org/2000/svg"><g fill-rule="evenodd"><path d="m13 4c-2.77 0-5 2.23-5 5v46c0 2.77 2.23 5 5 5h38c2.77 0 5-2.23 5-5v-39l-12-12z" fill="#f4f4f4" opacity=".25" stroke="#000" stroke-width=".99999" transform="scale(.26458)"/><path d="m13 4c-2.77 0-5 2.23-5 5v46c0 2.77 2.23 5 5 5h38c2.77 0 5-2.23 5-5v-39l-12-12z" fill="#f4f4f4" transform="scale(.26458)"/><path d="m14.816 4.2332-3.1749-3.1749v1.852c0 .73288.59001 1.3229 1.3229 1.3229z" fill="#bbb"/></g><path d="m6.2156 4.6301v7.6728h1.3281c.0048-.9999-.01045-2.0002.0092-2.9998.03292-.46957.05889-1.0676.5063-1.3248.24627-.14154.57594-.17596.84722-.08789.39762.1291.46434.64142.48136 1.0105.0065 1.1339.001 2.268.0028 3.402h1.3229c-.0028-1.2743.01-2.5622-.000002-3.8364-.01374-.64031-.27596-1.3416-.88853-1.6338-.52357-.24968-1.1434-.17516-1.6747.02621-.25085.09507-.59703.5577-.59703.5577-.0032-.92882-.0063-1.8576-.0095-2.7865h-1.3281z" fill="#da1636"/></svg>