<svg height="64" viewBox="0 0 16.933 16.933" width="64" xmlns="http://www.w3.org/2000/svg"><g fill-rule="evenodd"><path d="m13 4c-2.77 0-5 2.23-5 5v46c0 2.77 2.23 5 5 5h38c2.77 0 5-2.23 5-5v-39l-12-12z" fill="#f4f4f4" opacity=".25" stroke="#000" stroke-width=".99999" transform="scale(.26458)"/><path d="m13 4c-2.77 0-5 2.23-5 5v46c0 2.77 2.23 5 5 5h38c2.77 0 5-2.23 5-5v-39l-12-12z" fill="#f4f4f4" transform="scale(.26458)"/><path d="m14.816 4.2332-3.1749-3.1749v1.852c0 .73288.59001 1.3229 1.3229 1.3229z" fill="#bbb"/></g><g enable-background="new" transform="matrix(.060632 0 0 .060632 -.6724 -.99217)"><path d="m83.997 204 32-48-32-48h24l32 48-32 48z" fill="#7839b7"/><path d="m116 204 32-48-32-48h24l64 96h-24l-20-30-20 30z" fill="#8c59d9"/><g fill="#8f76e4" transform="matrix(1.0909 0 0 1.0909 -13.818 -14.182)"><path d="m179.6 160 10.666 16h21.734v-16z"/><path d="m163.6 136 10.666 16h37.734v-16z"/></g></g></svg>