<svg height="64" viewBox="0 0 16.933 16.933" width="64" xmlns="http://www.w3.org/2000/svg"><g fill-rule="evenodd"><path d="m13 4c-2.77 0-5 2.23-5 5v46c0 2.77 2.23 5 5 5h38c2.77 0 5-2.23 5-5v-39l-12-12z" fill="#f4f4f4" opacity=".25" stroke="#000" stroke-width=".99999" transform="scale(.26458)"/><path d="m13 4c-2.77 0-5 2.23-5 5v46c0 2.77 2.23 5 5 5h38c2.77 0 5-2.23 5-5v-39l-12-12z" fill="#f4f4f4" transform="scale(.26458)"/><path d="m14.816 4.2332-3.1749-3.1749v1.852c0 .73288.59001 1.3229 1.3229 1.3229z" fill="#bbb"/></g><g enable-background="new" fill="#888" transform="matrix(.066145 0 0 .066145 -1.5873 -1.852)"><path d="m152 96c-33.104 0-60 26.898-60 60s26.896 60 60 60 60-26.898 60-60-26.896-60-60-60zm.002 6a54 54 0 0 1 54 54 54 54 0 0 1 -54 54 54 54 0 0 1 -54-54 54 54 0 0 1 54-54z"/><path d="m148 148v40l8 .00001v-40z"/><path d="m152 126c-3.3137.00001-6 2.6863-6 6 .00001 3.3137 2.6863 6 6 6 3.3137-.00001 6-2.6863 6-6-.00001-3.3137-2.6863-6-6-6z"/></g></svg>