<svg height="64" viewBox="0 0 16.933 16.933" width="64" xmlns="http://www.w3.org/2000/svg"><path d="m3.4395 1.0587c-.73288 0-1.3229.58999-1.3229 1.3229v12.171c0 .73286.59001 1.3229 1.3229 1.3229h10.054c.73288 0 1.3229-.58999 1.3229-1.3229v-10.319l-3.1749-3.1748z" fill="#9550b2" fill-rule="evenodd" stroke-width=".99999"/><path d="m14.816 4.2332-3.1749-3.1749v1.852c0 .73288.59001 1.3229 1.3229 1.3229z" fill="#fff" fill-rule="evenodd" opacity=".35"/><path d="m7.945 1.0583h1.0583v14.816h-1.0583z" fill="#fff" opacity=".25"/><path d="m3.711 11.642h3.4395v2.1166h-3.4395z" fill="#f9f9f9" opacity=".35"/><path d="m3.976 12.171v1.0583h.52916v-1.0583zm.79374 0v1.0583h.26458v-1.0583zm.52916 0v1.0583h.52916v-1.0583zm.79373 0v1.0583h.26458v-1.0583zm.52916 0v1.0583h.26458v-1.0583z" opacity=".35"/><g fill="#fff"><path d="m8.466 1.0583h.53659v14.816h-.53659z" opacity=".25"/><path d="m39 40c-1.108 0-2 .892-2 2v12c0 1.108.892 2 2 2h12c1.108 0 2-.892 2-2v-12c0-1.108-.892-2-2-2zm0 2h12v2h-12zm0 4h9v3h-9zm10 0h2v3h-2zm-10 5h9v3h-9zm10 0h2v3h-2z" opacity=".5" transform="scale(.26458)"/></g></svg>