<svg height="64" viewBox="0 0 16.933 16.933" width="64" xmlns="http://www.w3.org/2000/svg"><path d="m3.4395 1.0587c-.73288 0-1.3229.58999-1.3229 1.3229v12.171c0 .73286.59001 1.3229 1.3229 1.3229h10.054c.73288 0 1.3229-.58999 1.3229-1.3229v-10.319l-3.1749-3.1748z" fill="#f2793c" fill-rule="evenodd" stroke-width=".99999"/><path d="m14.816 4.2332-3.1749-3.1749v1.852c0 .73288.59001 1.3229 1.3229 1.3229z" fill="#fff" fill-rule="evenodd" opacity=".35"/><path d="m7.945 1.0583h1.0583v14.816h-1.0583z" fill="#fff" opacity=".25"/><path d="m3.711 11.642h3.4395v2.1166h-3.4395z" fill="#f9f9f9" opacity=".35"/><path d="m3.976 12.171v1.0583h.52916v-1.0583zm.79374 0v1.0583h.26458v-1.0583zm.52916 0v1.0583h.52916v-1.0583zm.79373 0v1.0583h.26458v-1.0583zm.52916 0v1.0583h.26458v-1.0583z" opacity=".35"/><g fill="#fff"><path d="m8.466 1.0583h.53659v14.816h-.53659z" opacity=".25"/><path d="m10.319 10.583c-.29315 0-.52916.236-.52916.52916v3.1749c0 .29315.236.52916.52916.52916h3.1749c.29315 0 .52916-.236.52916-.52916v-3.1749c0-.29315-.236-.52916-.52916-.52916zm0 .52916h3.1749v.52916h-3.1749zm0 1.0583h2.3812v.79373h-2.3812zm2.6458 0h.52916v.79373h-.52916zm-2.6458 1.3229h2.3812v.79374h-2.3812zm2.6458 0h.52916v.79374h-.52916z" opacity=".5"/></g></svg>