<svg height="64" viewBox="0 0 16.933 16.933" width="64" xmlns="http://www.w3.org/2000/svg" xmlns:xlink="http://www.w3.org/1999/xlink"><linearGradient id="a" gradientUnits="userSpaceOnUse" x1="9.26032995" x2="9.26032995" y1="14.915836" y2="1.7137095"><stop offset="0" stop-color="#e1a000"/><stop offset="1" stop-color="#ffc832"/></linearGradient><g fill="#5e4aa6" stroke-width=".26458"><circle cx="-330.35" cy="-328.38" r="0"/><circle cx="-312.11" cy="-326.25" r="0"/><circle cx="-306.02" cy="-333.07" r="0"/><circle cx="-308.84" cy="-326.01" r="0"/><circle cx="-328.8" cy="-330.45" r="0"/></g><circle cx="8.6183" cy="8.3147" fill="url(#a)" r="6.6145"/><g fill="#fff" transform="matrix(.59327 0 0 .58932 3.3847 3.7996)"><path d="m7.2242 8.556v.39835s.10755.85578-.50008 1.1723c-.60764.31647-2.6192 1.2658-2.7272 1.4416-.10802.17582-.26993.68298.18917.81192h8.7592c.45911-.12893.2972-.6361.18917-.81192s-2.1196-1.1251-2.7272-1.4416c-.60764-.31647-.50008-1.1723-.50008-1.1723v-.39835h-1.3415z"/><g transform="translate(.10535)"><path d="m10.452 6.6018c-.26458 1.8862-.88842 2.8929-1.9843 2.8929-1.0959.0000001-1.7198-1.0067-1.9843-2.8929-.2414-1.7209 0-3.1436 1.9843-3.1436s2.2257 1.4227 1.9843 3.1436z"/><path d="m10.492 6.1701s.6201-.024804.45474.5953c-.16536.6201-.47955 1.2816-.82681 1.356-.34726.074413.27285-1.9265.37206-1.9513z"/><path d="m6.4284 6.1117s-.6201-.024804-.45474.5953c.16536.6201.47955 1.2816.82681 1.356.34726.074413-.27285-1.9265-.37206-1.9513z"/><path d="m10.452 6.6018c-.26458 1.8862-.88842 2.8929-1.9843 2.8929-1.0959.0000001-1.7198-1.0067-1.9843-2.8929-.2414-1.7209 0-3.1436 1.9843-3.1436s2.2257 1.4227 1.9843 3.1436z"/></g></g></svg>