<svg height="64" width="64" xmlns="http://www.w3.org/2000/svg" xmlns:xlink="http://www.w3.org/1999/xlink"><linearGradient id="a" gradientUnits="userSpaceOnUse" x1="39.13322" x2="39.13322" y1="11.8915780536" y2="64.7461956"><stop offset="0" stop-color="#fff"/><stop offset="1" stop-color="#fae6e6"/></linearGradient><filter id="b" color-interpolation-filters="sRGB" height="1.0699" width="1.0742" x="-.037096" y="-.034966"><feGaussianBlur stdDeviation=".86407762"/></filter><filter id="c" color-interpolation-filters="sRGB" height="1.0535" width="1.1099" x="-.054964" y="-.026765"><feGaussianBlur stdDeviation=".27481933"/></filter><linearGradient id="d" gradientUnits="userSpaceOnUse" x1="37.64274124" x2="37.64274124" y1="58.49503036" y2="14.74924892"><stop offset="0" stop-color="#d73782"/><stop offset=".56246" stop-color="#f51432"/><stop offset="1" stop-color="#eb554b"/></linearGradient><g transform="matrix(1.0909 0 0 1.0941 -2.9089 -3.0122)"><circle cx="32.081" cy="32" fill="url(#a)" r="27.419" stroke-width=".91396"/><path d="m38.588 2.6914c-18.233 14.959-30.116 18.999-35.139 19.85-.64432 1.9843-1.0793 4.0553-1.291 6.2188 3.0205-.4169 10.267-1.8066 18-6.457 10.068-6.0552 22.105-17.551 22.105-17.551-3.2827 6.1828-4.3067 28.585-4.3809 56.713.06661-.01245.13687-.02034.20313-.0332.50529-.09851 1.0033-.21054 1.4863-.32812 5.1356-1.2903 9.6699-3.9163 13.643-7.8887 1.8657-1.8657 3.4297-3.8559 4.7012-5.9688-1.7642-5.857-3.1537-12.275-4.3047-18.273-.92046-6.7068-.55003-12.886.10156-17.656-.16792-.17518-.32306-.35627-.49609-.5293-4.234-4.234-9.1155-6.9222-14.629-8.0957zm-36.574 29.904c.040373 2.3429.31057 4.5901.82617 6.7363 8.4655.56771 21.157 9.5115 27.197 22.607.06372.0037.12558.01227.18945.01563h.02539c.54025.0286 1.0545.04492 1.5566.04492h.19141c.65469 0 1.3019-.019 1.9121-.05078.1589-.0095.30158-.01977.44141-.0293.41236-.0296.81575-.07858 1.2207-.12305-4.7132-13.741-27.114-29.181-33.561-29.201z" filter="url(#b)" opacity=".15" transform="matrix(.88772 0 0 .86042 4.5537 4.2224)"/><path d="m38.071 5.1201c-16.664 13.672-27.525 17.364-32.116 18.142-.58888 1.8136-.98644 3.7064-1.1799 5.6837 2.7606-.38103 9.3836-1.6512 16.451-5.9014 9.2018-5.5342 20.203-16.041 20.203-16.041-3.0003 5.6508-3.9362 26.126-4.004 51.833.06088-.01138.12509-.01859.18565-.03034.46182-.09003.91698-.19242 1.3584-.29989 4.6937-1.1793 8.8379-3.5793 12.469-7.21 1.7052-1.7052 3.1346-3.5241 4.2967-5.4552-1.6124-5.3531-2.8824-11.219-3.9343-16.701-.84126-6.1298-.50271-11.777.09282-16.137-.15347-.16011-.29526-.32562-.45341-.48376-3.8697-3.8697-8.3312-6.3266-13.37-7.3992zm-33.427 27.331c.036899 2.1413.28385 4.1952.75509 6.1567 7.7371.51886 19.337 8.6931 24.857 20.662.05824.0034.11478.01121.17315.01428h.02321c.49377.02614.96377.04106 1.4227.04106h.17494c.59836 0 1.1899-.01736 1.7476-.04641.14523-.0087.27563-.01807.40343-.02678.37688-.02705.74556-.07182 1.1157-.11246-4.3077-12.559-24.781-26.67-30.673-26.689z" fill="url(#d)" stroke-width=".91396"/><path d="m25.289 2.7988a30 30 0 0 0 -12 5.7559v18.887l6-3.4648 6 3.4648v-24.643z" filter="url(#c)" opacity=".15" transform="matrix(.91396 0 0 .91396 2.8035 3.1876)"/><path d="m25.917 5.2183a27.419 27.419 0 0 0 -10.968 5.2607v17.262l5.4838-3.1667 5.4838 3.1667v-22.523z" fill="#1e82e1" stroke-width=".91396"/></g></svg>