<svg height="64" width="64" xmlns="http://www.w3.org/2000/svg" xmlns:xlink="http://www.w3.org/1999/xlink"><linearGradient id="a" gradientUnits="userSpaceOnUse" x1="32.25274" x2="32.25274" y1="2.81356" y2="62.81356"><stop offset="0" stop-color="#f5faff"/><stop offset="1" stop-color="#cfdef0"/></linearGradient><linearGradient id="b" gradientUnits="userSpaceOnUse" x1="31.1991332" x2="29.4664092" y1="53.348972" y2="16.0680472"><stop offset="0" stop-color="#1973c8"/><stop offset="1" stop-color="#3ca0f0"/></linearGradient><linearGradient id="c" gradientUnits="userSpaceOnUse" x1="27.04" x2="24.839" y1="16.621" y2="17.991"><stop offset="0" stop-color="#fff"/><stop offset="1" stop-color="#afd2f5"/></linearGradient><linearGradient id="d" gradientUnits="userSpaceOnUse" x1="3.783" x2="19.574" y1="23.644" y2="22.495"><stop offset="0" stop-color="#2980b9"/><stop offset="1" stop-color="#34495e"/></linearGradient><linearGradient id="e" gradientUnits="userSpaceOnUse" x1="29.507" x2="35.895" y1="28.849" y2="32.639"><stop offset="0"/><stop offset="1" stop-opacity="0"/></linearGradient><filter id="f" color-interpolation-filters="sRGB" height="1.0491" width="1.047" x="-.023485" y="-.024538"><feGaussianBlur stdDeviation=".29216796"/></filter><circle cx="32" cy="32" fill="url(#a)" r="30"/><g transform="matrix(1.3028 0 0 1.3028 -2.503 2.2271)"><path d="m40.01 13.424-26.867 24.652a18.5 18.5 0 0 0 11.357 3.9238 18.5 18.5 0 0 0 18.5-18.5 18.5 18.5 0 0 0 -2.9902-10.076" fill="url(#e)" filter="url(#f)" opacity=".2" stroke-linejoin="round" stroke-width="2.3027"/><g fill-rule="evenodd"><path d="m49.184 16.885c-.12751.000325-.26164.0078-.40234.029296-2.246.34524-7.3539 2.2459-8.9668 2.6484-1.6116.40256-2.3664.76446-4.9512.51953-2.9469-.2788-4.2717-.29754-5.0469-.27539-1.1608-.10292-1.7461-.35742-1.7461-.35742l.10156 1.1426c-.77126.58886-2.3251 1.4461-5.5156 2.3125-2.0727.2306-3.7989-.40396-4.8359.17188-1.0357.57584-4.3181 2.0154-5.9883 2.418-1.6702.40256-2.9064 1.158-3.9082 1.4863-1.5907.51851 3.1525 8.1199 5.2109 9.1191 0 0-.71257.74055-1.3027 1.3594-1.4318.9784-2.5605 1.043-2.5605 1.043l.072266.78516c-1.6624.8833-3.3089 1.2949-3.8574 1.373-.081562.011434-1.0336.29202-1.9727.62891a30 30 0 0 0 28.486 20.711 30 30 0 0 0 2.7949-.15625c.4952-2.7357 1.2984-7.045 1.4414-8.5332.56541-.83118 1.3262-.8418 1.3262-.8418s-.97727-2.7697-.88086-6.1035c.12116-.7908.32733-1.5354.58789-2.2441h.98438s-.12465-1.3599.43164-2.7422c1.8304-2.7828 4.3295-4.6428 5.3965-5.4609 1.0058-.77256 5.6407-1.9569 6.6191-2.1875s1.8997-1.7869 1.957-2.248-.28711-1.3242-.28711-1.3242l-2.5898-.57422-3.1348-.35352s4.303-6.3746 5.0781-7.1133c.82206-.78298 1.2227-1.7469 1.2227-2.668s-.67774-2.1602-.67774-2.1602-.7786-.39391-2.0488-.3457c-.21236.007817-.43021-.021473-.66602-.041015h-.003907c-.1179-.009771-.23968-.017904-.36719-.017578z" fill="url(#b)" transform="matrix(.76758 0 0 .76758 1.9212 -1.7094)"/><g stroke-width=".76758"><path d="m42.25 12s-.313-.281-.656-.313c-.344-.031-1.063.094-1.281.063-.219-.031-.969-.469-.969-.469s1-.563 1.344-.625c.344-.063.938-.156.938-.156s.25.313.438.75c.188.438.188.75.188.75" fill="#2c3e50"/><path d="m40.987 21.23c-.675.09-.805.015-.805.015s.156-.707.325-.767.662.707.48.752" fill="#fcfcfc"/><path d="m41.906 14.969s-2.219 1.063-3.281 2.719c-1.063 1.656-1.813 3.344-1.813 3.344s.75.156 1.438.406 1.938.313 2.469.219.688-.344.156-.563c-.531-.219-1.313-.375-1.344-.844s.969-3.188 1.25-3.625c.281-.438 1.125-1.656 1.125-1.656" fill="#2c3e50"/><path d="m22.438 20.375s2.749-.414 3.796-1.04c3.414-2.04 3.298-3.179 3.298-3.179s-3.611-1.445-6.108 1.534c-1.045 1.247-.986 2.685-.986 2.685" fill="#34495e"/><path d="m23.467 19.14s2.74-.552 3.757-1.304c1.016-.751 1.436-1.149 1.304-1.414-.133-.265-1.127-.663-2.364-.354s-2.121 1.193-2.364 1.746c-.243.552-.486 1.149-.331 1.326" fill="url(#c)"/><path d="m38.956 21.676c1.01.116 1.2.019 1.2.019s-.232-.91-.484-.987-.987.91-.716.968" fill="#fcfcfc"/><path d="m12.298 24.795c1.01.774 3.56 1.23 4.811 1.048 2.951-.431 3.103-.21 2.391-2.093-.514-1.359-3.5-2.75-5.5-.75l-1-1c.593-.854-.5-2.844-1-3s-2.859.486-3.078.705 2.369 4.317 3.376 5.091" fill="url(#d)"/></g></g></g></svg>