<svg height="64" width="64" xmlns="http://www.w3.org/2000/svg"><path d="m4.0507982 32.000818c-.0118.33399-.050799.661981-.050799.999972.0000004 15.511562 12.4876478 27.99921 27.9992108 27.99921s27.99921-12.487648 27.99921-27.99921c0-.337671-.03904-.665262-.05078-.999972-.527985 15.041576-12.77564 26.999238-27.949212 26.999238-15.173972 0-27.4212267-11.957662-27.9492118-26.999238z" opacity=".2"/><rect fill="#d53068" height="55.998" rx="27.999" transform="matrix(0 -1 -1 0 0 0)" width="55.998" x="-60" y="-60"/><path d="m636 528c-1.6568 0-3 1.3432-3 3 0 .23127.0442.44001.0937.65625l-3.2188 2c-.51-.42-1.16-.66-1.87-.66-1.6568 0-3 1.3432-3 3s1.3432 3 3 3c.70904 0 1.3615-.24498 1.875-.65625l3.2188 2c-.06.22-.1.43-.1.66 0 1.6568 1.3432 3 3 3s3-1.3432 3-3-1.3432-3-3-3c-.70904 0-1.3615.24498-1.875.65625l-3.2188-2c.0495-.21624.0937-.42498.0937-.65625s-.0442-.44001-.0937-.65625l3.2188-2c.52.41 1.17.65 1.88.65 1.6568 0 3-1.3432 3-3s-1.3432-3-3-3z" opacity=".2" transform="matrix(1.9999436 0 0 1.9999436 -1233.9651 -1038.969)"/><g fill="#fff"><path d="m636 528c-1.6568 0-3 1.3432-3 3 0 .23127.0442.44001.0937.65625l-3.2188 2c-.51341-.41127-1.1659-.65625-1.875-.65625-1.6568 0-3 1.3432-3 3s1.3432 3 3 3c.70904 0 1.3615-.24498 1.875-.65625l3.2188 2c-.0495.21624-.0937.42498-.0937.65625 0 1.6568 1.3432 3 3 3s3-1.3432 3-3-1.3432-3-3-3c-.70904 0-1.3615.24498-1.875.65625l-3.2188-2c.0495-.21624.0937-.42498.0937-.65625s-.0442-.44001-.0937-.65625l3.2188-2c.51341.41127 1.1659.65625 1.875.65625 1.6568 0 3-1.3432 3-3s-1.3432-3-3-3z" transform="matrix(1.9999436 0 0 1.9999436 -1233.9651 -1039.9689)"/><path d="m32 4.0019531c-15.511563 0-28 12.4864839-28 27.9980469 0 .113445.0112809.224116.0175781.335938.3515333-15.201329 12.6935799-27.335938 27.9824219-27.335938s27.630889 12.134609 27.982422 27.335938c.006271-.111822.017578-.222493.017578-.335938 0-15.511563-12.488437-27.9980469-28-27.9980469z" opacity=".1"/></g></svg>