<svg height="64" width="64" xmlns="http://www.w3.org/2000/svg" xmlns:xlink="http://www.w3.org/1999/xlink"><clipPath id="a"><circle cx="8.467" cy="288.53" r="6.879"/></clipPath><linearGradient id="b" gradientUnits="userSpaceOnUse" x1="32.001" x2="32.001" y1="5" y2="59"><stop offset="0" stop-color="#ffa355"/><stop offset="1" stop-color="#f55"/></linearGradient><filter id="c" color-interpolation-filters="sRGB" height="1.0722" width="1.0718" x="-.035879" y="-.036122"><feGaussianBlur stdDeviation=".41859"/></filter><g transform="matrix(1.1111 0 0 1.1111 -3.5569 -3.5556)"><circle cx="32.001" cy="32" fill="url(#b)" r="27" stroke-width=".81"/><g fill="#fff" stroke-width=".9"><path d="m32 17c-7.732 0-14 6.268-14 14v9c0 3.57 2.542 4.541 4 4.807v-13.807c0-5.54 4.46-10 10-10s10 4.46 10 10v13.812c1.458-.268 4-1.242 4-4.812v-9c0-7.732-6.268-14-14-14z" fill="#000" filter="url(#c)" opacity=".25"/><path d="m32 17c-7.732 0-14 6.268-14 14v9c0 3.57 2.542 4.541 4 4.807v-13.807c0-5.54 4.46-10 10-10s10 4.46 10 10v13.812c1.458-.268 4-1.242 4-4.812v-9c0-7.732-6.268-14-14-14z"/><path d="m22 33v14h5v-14zm15 0v14h5v-14z" opacity=".75"/></g><g clip-path="url(#a)" fill="none" stroke="#fff" stroke-opacity=".937" stroke-width=".1143" transform="matrix(3.9251 0 0 3.9251 -1.2322 -1101)"><path d="m1.4854 287.74c.719.15538 1.3906.6252 1.9826 1.9807.674 1.544 1.623 2.229 2.772 2.283 1.48.07 2.673-1.226 3.459-2.385 1.602-2.362 4.5188-2.1357 5.8165-1.2509" opacity=".35"/><path d="m1.4927 288.13c.89388-.34988 2.0828-.42377 2.8723.82673.722 1.143 1.576 2.867 4.049 2.709 1.478-.095 2.956-.71 3.718-2.15.52913-.93299 1.2601-1.8714 2.2929-2.1036.38219-.0816.65524-.0703.97604.0566" opacity=".35"/><path d="m1.7748 290.25c.94712-.44412 2.7457-.95337 4.1972-.52987 1.297.379 2.937 1.847 6.056 1.504.824-.09 1.522-.563 2.183-1.464.4785-.6525.75018-1.0197 1.3056-1.1669" opacity=".35"/></g></g></svg>