<svg height="64" width="64" xmlns="http://www.w3.org/2000/svg"><path d="m4.0507997 32.000415c-.0118.333995-.050799.66199-.050799.999985-.0000003 15.511779 12.4878213 27.9996 27.9995993 27.9996s27.9996-12.487821 27.9996-27.9996c0-.337675-.03904-.66527-.05078-.999985-.527992 15.041785-12.775817 26.999614-27.9496 26.999614-15.174183 0-27.4216078-11.957829-27.9496003-26.999614z" opacity=".2"/><path d="m31.9996 4.0008294c-15.511778 0-27.9995996 12.4878216-27.9995996 27.9995996h27.9995996z" fill="#e7a73c"/><path d="m31.9996 4.0008294c15.511778 0 27.9996 12.4878216 27.9996 27.9995996h-27.9996z" fill="#e74c3c"/><path d="m31.9996 60.000029c15.511778 0 27.9996-12.487822 27.9996-27.9996h-27.9996z" fill="#5dc15c"/><path d="m31.9996 60.000029c-15.511778 0-27.9995996-12.487822-27.9995996-27.9996h27.9995996z" fill="#3c88e7"/><path d="m32 4c-15.511778 0-28 12.488222-28 28 0 .098349.0111933.193966.0175781.291016.3747943-15.18052 12.7084249-27.291016 27.9824219-27.291016s27.607628 12.110496 27.982422 27.291016c.006347-.096986.017578-.192813.017578-.291016 0-15.511778-12.488222-28-28-28z" fill="#fff" opacity=".2"/><circle cx="32" cy="32" fill="#2e2e2e" r="14"/></svg>