<svg height="64" width="64" xmlns="http://www.w3.org/2000/svg"><path d="m4.0000004 56.200069v1.999971c0 1.549978 1.2495821 2.79996 2.80076 2.79996h50.3992796c1.549977 0 2.79996-1.249982 2.79996-2.79996v-1.999971c0 1.549977-1.249983 2.79996-2.79996 2.79996h-50.3992796c-1.5503779 0-2.79996-1.249983-2.79996-2.79996z" opacity=".2"/><rect fill="#4f4f4f" height="55.999" rx="2.8" transform="matrix(0 -1 -1 0 0 0)" width="55.999" x="-60" y="-60"/><path d="m6.8007812 4c-1.5511778 0-2.8007812 1.2496034-2.8007812 2.8007812v1.0019532c0-1.5511778 1.2496034-2.8007813 2.8007812-2.8007813h50.3984378c1.549977 0 2.800781 1.2496035 2.800781 2.8007813v-1.0019532c0-1.5511777-1.250804-2.8007812-2.800781-2.8007812z" fill="#fff" opacity=".1"/><g stroke-width="1.9999714"><g opacity=".2"><rect height="11.9998284" opacity="1" rx="2.49996425" ry="2.39996568" width="19.999714" x="9.999915" y="11.000629"/><rect height="11.9998284" opacity="1" rx="2.49996425" ry="2.39996568" width="19.999714" x="33.9995718" y="11.000629"/><rect height="11.9998284" opacity="1" rx="2.49996425" ry="2.39996568" width="19.999714" x="21.9997434" y="27.0004002"/><rect height="11.9998284" opacity="1" rx=".9999857" width="7.9998856" x="45.9994002" y="27.0004002"/><rect height="11.9998284" opacity="1" rx="2.49996425" ry="2.39996568" width="19.999714" x="9.999915" y="43.0001714"/><rect height="11.9998284" opacity="1" rx="2.49996425" ry="2.39996568" width="19.999714" x="33.9995718" y="43.0001714"/></g><g fill="#ff6363"><rect height="11.9998284" rx="2.49996425" ry="2.39996568" width="19.999714" x="9.999915" y="10.000744"/><rect height="11.9998284" rx="2.49996425" ry="2.39996568" width="19.999714" x="33.9995718" y="10.000744"/><rect height="11.9998284" rx="2.49996425" ry="2.39996568" width="19.999714" x="21.9997434" y="26.0005152"/><rect height="11.9998284" rx=".9999857" width="7.9998856" x="45.9994002" y="26.0005152"/><rect height="11.9998284" rx="2.49996425" ry="2.39996568" width="19.999714" x="9.999915" y="42.0002864"/><rect height="11.9998284" rx="2.49996425" ry="2.39996568" width="19.999714" x="33.9995718" y="42.0002864"/></g></g></svg>