<svg height="64" viewBox="0 0 16.933 16.933" width="64" xmlns="http://www.w3.org/2000/svg" xmlns:xlink="http://www.w3.org/1999/xlink"><linearGradient id="a"><stop offset="0" stop-color="#d3d3d3"/><stop offset="1" stop-color="#fcf9f9"/></linearGradient><linearGradient id="b" gradientUnits="userSpaceOnUse" x1="-68.624132" x2="-68.624132" xlink:href="#a" y1="44.2103454" y2="32.4595854"/><linearGradient id="c"><stop offset="0" stop-color="#8d3aff"/><stop offset="1" stop-color="#ff3680"/></linearGradient><linearGradient id="d" gradientUnits="userSpaceOnUse" x1="-82.864628" x2="-82.864628" xlink:href="#c" y1="50.2580766" y2="38.1220366"/><linearGradient id="e"><stop offset="0" stop-color="#8f62bc"/><stop offset="1" stop-color="#f7904e"/></linearGradient><linearGradient id="f" gradientUnits="userSpaceOnUse" x1="-100.5279368" x2="-77.93850128" xlink:href="#e" y1="41.02261536" y2="71.7287952"/><linearGradient id="g" gradientUnits="userSpaceOnUse" x1="-57.584132" x2="-57.584132" xlink:href="#a" y1="15.8303454" y2="4.0795854"/><linearGradient id="h" gradientUnits="userSpaceOnUse" x1="-71.814628" x2="-71.814628" xlink:href="#c" y1="21.8880766" y2="9.7520366"/><linearGradient id="i" gradientUnits="userSpaceOnUse" x1="-68.7768096" x2="-104.3023008" xlink:href="#e" y1="72.89433792" y2="34.3646832"/><linearGradient id="j" gradientUnits="userSpaceOnUse" x1="-75.944132" x2="-75.944132" xlink:href="#a" y1="50.4103454" y2="38.6595854"/><linearGradient id="k" gradientUnits="userSpaceOnUse" x1="-90.184628" x2="-90.184628" xlink:href="#c" y1="56.4580766" y2="44.3220366"/><linearGradient id="l" gradientUnits="userSpaceOnUse" x1="-71.6227044" x2="-101.3677212" y1="69.66259238" y2="37.4022298"><stop offset="0" stop-color="#232223"/><stop offset="1" stop-color="#49484d"/></linearGradient><g fill="#5e4aa6" stroke-width=".26458"><circle cx="-415.505" cy="-334.026" r="0"/><circle cx="-397.265" cy="-331.896" r="0"/><circle cx="-391.175" cy="-338.716" r="0"/><circle cx="-393.995" cy="-331.656" r="0"/></g><g image-rendering="optimizeSpeed"><circle cx="-68.555" cy="38.412" fill="url(#b)" r="0" stroke-width=".26458"/><circle cx="-82.787" cy="44.275" fill="none" r="0" stroke="url(#d)" stroke-width=".56347"/><circle cx="-57.506" cy="10.037" fill="url(#g)" r="0" stroke-width=".26458"/><circle cx="-71.738" cy="15.899" fill="none" r="0" stroke="url(#h)" stroke-width=".56347"/><g fill="#5e4aa6" stroke-width=".26458"><circle cx="-422.838252" cy="-327.811086" r="0"/><circle cx="-404.582232" cy="-325.694446" r="0"/><circle cx="-398.496892" cy="-332.52061" r="0"/><circle cx="-401.327898" cy="-325.456324" r="0"/></g><circle cx="-75.873" cy="44.619" fill="url(#j)" r="0" stroke-width=".26458"/><circle cx="-90.105" cy="50.482" fill="none" r="0" stroke="url(#k)" stroke-width=".56347"/></g><g transform="matrix(.26458 0 0 .26458 31.283 -5.5604)"><path d="m-56.238 53.016c0 3.5964-.63304 7.0444-1.7939 10.24-.80694 2.2212-1.8686 4.3212-3.1519 6.2636-.53754.8167-1.1155 1.6054-1.729 2.3633-1.9641 2.4257-4.2982 4.5382-6.9182 6.2526-.96493.63184-1.9678 1.2098-3.0061 1.7277-4.0321 2.0179-8.5838 3.1529-13.401 3.1529-4.8171 0-9.3689-1.1351-13.401-3.153-1.0384-.51799-2.0425-1.0959-3.0074-1.7277-2.6535-1.7376-5.0155-3.8832-6.9953-6.349-.61464-.76408-1.1914-1.56-1.729-2.3841-1.249-1.9102-2.2836-3.9712-3.0746-6.1494-1.1607-3.1948-1.7927-6.6415-1.7927-10.237 0-16.569 13.432-30 30-30 8.317 0 15.843 3.3845 21.277 8.8503 1.5661 1.5746 2.9584 3.3233 4.1436 5.214 1.1205 1.7805 2.0571 3.6881 2.7857 5.6951 1.161 3.196 1.794 6.6442 1.794 10.24z" fill="url(#i)" image-rendering="optimizeSpeed" stroke-width=".11719"/><path d="m-86.237 27.902c-13.873 0-25.119 11.246-25.119 25.119 0 3.0101.53009 5.8953 1.502 8.5704.66229 1.8238 1.5284 3.5491 2.5742 5.1484.45008.68994.93263 1.3563 1.4473 1.9961 1.6578 2.0646 3.6357 3.8616 5.8574 5.3164.80792.52897 1.6481 1.0136 2.5176 1.4473 3.376 1.6896 7.1873 2.6387 11.221 2.6387 4.0334 0 7.8448-.94915 11.221-2.6387.86937-.43362 1.7097-.91823 2.5176-1.4473 2.194-1.4355 4.1465-3.2034 5.791-5.2344.51367-.63461.99915-1.2947 1.4492-1.9785 1.0745-1.6264 1.963-3.3863 2.6387-5.2461.97201-2.6759 1.502-5.563 1.502-8.5743 0-3.0111-.52985-5.8983-1.502-8.5743-.56324-1.5515-1.3081-3.011-2.1523-4.4024l-6.002 4.1348-2.5977-3.7676 5.8164-4.0078 4.0039-2.7578c-.491-.57438-.87571-1.238-1.4082-1.7734-.82782-.83264-1.7907-1.5166-2.7109-2.248l-4.1328 2.8477c-4.0846-2.8742-9.0594-4.5684-14.434-4.5684z" fill="url(#l)" image-rendering="optimizeSpeed" stroke-width=".098123"/><path d="m-77.379 40.444c-.0645-.0053-.13103-.0015-.19889.01298l-14.744 3.1493c-.54288.11596-1.0737.6614-1.0737 1.2165v2.5766l-.0615 15.338c-1.2812.98632-4.1812.61209-5.7738 2.0251-1.491 1.7106-1.5157 4.4887.4128 5.62 2.5044 1.4153 7.2282.26045 6.9971-4.3016l.1736-15.587 13.245-2.239.0226 11.178c-1.3208.90868-4.1275.58255-5.6856 1.9649-1.491 1.7106-1.5157 4.488.41281 5.6193 2.5043 1.4153 7.2282.26045 6.9971-4.3016l.03-15.314c.0297-.08974.0499-.18477.0499-.2891v-5.6542c0-.48574-.35147-.97727-.80304-1.0149z" fill="url(#f)"/></g></svg>