<svg height="64" width="64" xmlns="http://www.w3.org/2000/svg"><circle cx="-1248.6936" cy="-1241.6389" fill="#5e4aa6" r="0" stroke-width="1.000007"/><circle cx="-149.14687" cy="23.855005" fill="#5e4aa6" fill-rule="evenodd" r="0" stroke-width="1.000007"/><g transform="matrix(.67073171 0 0 .67073171 68.890244 84.317073)"><path d="m-96-119h30v30h-30z" fill="#ff3737" stroke-linecap="round" stroke-width="2.06897"/><path d="m-96-89 18 10h22l-10-10z" fill="#d20a0a"/><path d="m-66-89v-30l10 20v20z" fill="#e61e1e"/><path d="m14-119h30v30h-30z" fill="#3ca03c" stroke-linecap="round" stroke-width="2.06897" transform="scale(-1 1)"/><path d="m-14-89-18 10h-22l10-10z" fill="#147814"/><path d="m-44-89v-30l-10 20v20z" fill="#288c28"/><path d="m-96 37h30v30h-30z" fill="#dcb450" stroke-linecap="round" stroke-width="2.06897" transform="scale(1 -1)"/><path d="m-96-67 18-10h22l-10 10z" fill="#b48c28"/><path d="m-66-67v30l10-20v-20z" fill="#c8a03c"/><path d="m14 37h30v30h-30z" fill="#282896" stroke-linecap="round" stroke-width="2.06897" transform="scale(-1)"/><path d="m-14-67-18-10h-22l10 10z" fill="#000078"/><path d="m-44-67v30l-10-20v-20z" fill="#141482"/></g></svg>