<svg height="64" width="64" xmlns="http://www.w3.org/2000/svg"><path d="m59.99864 31.000729-.036.695983c-.369991 15.183631-12.685691 27.303337-27.96332 27.303337-15.177831 0-27.4273335-11.96571-27.9493208-27.011344-.0112.337992-.049999.669984-.049999 1.011975.0000002 15.511623 12.4876968 27.99932 27.9993198 27.99932 15.277629 0 27.593329-12.119705 27.96332-27.303337l.036-.695983z" opacity=".2"/><path d="m31.707327 4.0014094-.02344.01562c-15.363426.1703955-27.6833266 12.5788936-27.6833266 27.9833196 0 15.511623 12.4876966 27.99932 27.9993196 27.99932 15.276829 0 27.593329-12.119506 27.96332-27.303337 0 0 .0242-.478448.03516-.695303v-21.999465c0-3.3239196-2.675935-5.9998546-5.999855-5.9998546h-21.999465z" fill="#2298e2"/><circle cx="31.999" cy="33.001" opacity=".2" r="20"/><path d="m31.707031 4.0019531-.023437.015625c-15.363426.1703955-27.683594 12.5779959-27.683594 27.9824219 0 .112878.0111795.222773.0175781.333984.3501391-15.093557 12.5253359-27.1484809 27.6660159-27.3164059l.023437-.015625.001953-.0019531h22.291016c3.32392 0 6 2.6760804 6 6v-1c0-3.3239196-2.67608-5.9980469-6-5.9980469h-22.291016z" fill="#fff" opacity=".2"/><circle cx="31.999" cy="32.001" fill="#353535" r="20"/><g fill-rule="evenodd"><path d="m34.749253 24.324891c-.09592 1.128453-.849459.649464-1.665319 1.265189-.220095-.0337-.471129-.0337-.815861-.0337-.0623-.752481.189156-.889218.313353-1.025895.502508-.41067.849459-.205095.849459-.205095.376111-.06928.720403.0337 1.318348-.000542zm1.882754-1.847295h-1.097813v-.307632h-.595765v.170435c-.06452.0337-.126837.103018-.189156.136737h-.0623c-1.038655-.889218-1.100454.923878-1.792137.513208-.0623-.376491-.03096-.718783-.03096-1.163172 1.193731-.0347.753542-.376471.40925-.82084-.124177-.171396-.189155-.444849-.220095-.615765-.282413-1.128473-1.445244-1.812576-3.138923-1.094314-1.100454.44437-.81586 2.052351-.722603 3.146724-.0623.102077-.189155.06838-.282413.06838-1.193731.0684-1.727238 1.435605-1.978672 2.530539.0623.992196-.0623 2.086549-.220094 3.043526-.157797.957577-.471129 1.710098-.502508 2.633336-.0623.82084.220094 1.778417.157796 2.530938-.660304 2.120749-1.131913 3.522715-1.476164 5.78026-.251034.512727-1.129193 1.607061-1.476164 1.846835-.09324.170436.0623.547387-.09324.786201-.282413.444369-.722603.684123-.973656 1.163172.0623.102077-.377871.205095-.344292.37647.03096.170436.251034.614806.344292.717823.03096.0684.344291-.103017.344291 0 .126837.40971.40927 1.265189.722603 1.470324 1.382886.170416 1.382886.170416 1.947292 0 .313353-.992196-1.066914-.547386-.942737-1.881454 1.885394-.40971 2.48074-.991736 3.234322-3.146124.344291-1.573361.81586-3.111924 1.538062-4.616887.124177-.102078.09326-.375991.313353-.479029.846799 1.538663 2.387542 2.633936 3.138923 4.241497.189156 2.08595.567027 3.214522 1.224731 3.590913.157796.06838 0 .717823.126857.854539 0 .205095.0623.444369-.03096.684104-.06452.171395-.03094.37647-.03094.547386v.205095c.03094.309073.09326.309073.375671.547387.81586.581086 1.916393 1.504963 3.014127.82084.502507-.890178-.564387-2.017751-1.317888-2.599337-.251034-.205095-.691224-.717822-.629365-1.060154.40927-.444849.691223-2.394142.533447-3.899105-.0623-.341332-.124177-.684124-.251034-.957577-.375671-.786181-1.22245-1.880994-1.944673-2.667135.09326-.102078.220095-.239754.375671-.308113 0-.752001-.282413-.991736-.657644-1.538642-.315992-.547387-1.035915-1.607061-1.572062-1.949313 0 0 0-.0347-.533447-.0347-.03096-.375991.06452-.684103.157797-1.094313 0-.307633.220094-.136257.282413-.820841.157796-.581085.09326-.239274.220094-.82038.124177-.273453.189156-.547386.189156-.992195.468928.171395 1.411165.136736 1.820396 0l.09326.0684c.126837.0347.157776-.170436.251034-.204615.722603-.41115.973656-1.128933 1.569422-1.197331 0 0 .315992-.171396.784481 0 .189155 0 .346952.0337.346952-.171396.03096-.307632.03096-.546427.189155-.752482.124177.82084.468929 1.744718 1.097813 2.633936l.627225-.477848c-.595766-.786181-.971016-1.675379-1.035915-2.701934.03092.06838.06454.136716.126857.205095.220095 0 .344292-.513228.595766-.479049.03094-.06838.09592-.376471.157776-.615745h2.353943l.845979-.201995v-.479028l-.626705-.06838v-.547386h-.157776v-.615745h-.375671v.581566l-.973656-.06838v-.376471h-.375671v.341812l-1.004556-.102077v-.513208h-.37787v.479028l-1.476165-.102077v-.169936h.0011z" opacity=".2"/><path d="m34.749253 23.32494c-.09592 1.128452-.849459.649464-1.665319 1.265189-.220095-.0337-.471129-.0337-.815861-.0337-.0623-.752482.189156-.889218.313353-1.025895.502508-.41067.849459-.205095.849459-.205095.376111-.06928.720403.0337 1.318348-.000542zm1.882754-1.847295h-1.097813v-.307633h-.595765v.170436c-.06452.0337-.126837.103018-.189156.136737h-.0623c-1.038655-.889219-1.100454.923877-1.792137.513207-.0623-.376491-.03096-.718782-.03096-1.163171 1.193731-.0347.753542-.376471.40925-.820841-.124177-.171395-.189155-.444849-.220095-.615765-.281993-1.126972-1.443965-1.810956-3.137923-1.092773-1.100454.444369-.815861 2.05235-.722603 3.146724-.0623.102077-.189155.06838-.282413.06838-1.193731.0684-1.727238 1.435605-1.978672 2.530538.0623.992196-.0623 2.08655-.220094 3.043526-.157797.957577-.471129 1.710099-.502508 2.633336-.0623.82084.220094 1.778417.157796 2.530939-.660304 2.120748-1.131913 3.522714-1.476164 5.780259-.251034.512728-1.129193 1.607061-1.476164 1.846836-.09324.170435.0623.547386-.09324.7862-.282413.44437-.722603.684124-.973656 1.163172.0623.102078-.377871.205095-.344292.376471.03096.170436.251034.614805.344292.717823.03096.0684.344291-.103018.344291 0 .126837.40971.40927 1.265189.722603 1.470324 1.382886.170416 1.382886.170416 1.947292 0 .313353-.992196-1.066914-.547387-.942737-1.881454 1.885394-.40971 2.48074-.991736 3.234322-3.146124.344291-1.573362.81586-3.111924 1.538062-4.616888.124177-.102077.09326-.375991.313353-.479028.846799 1.538662 2.387542 2.633936 3.138923 4.241497.189156 2.085949.567027 3.214522 1.224731 3.590913.157796.06838 0 .717822.126857.854539 0 .205095.0623.444369-.03096.684103-.06452.171396-.03094.376471-.03094.547387v.205095c.03094.309072.09326.309072.375671.547387.81586.581085 1.916393 1.504963 3.014127.82084.502507-.890179-.564387-2.017751-1.317888-2.599337-.251034-.205095-.691224-.717823-.629365-1.060154.40927-.44485.691223-2.394142.533447-3.899106-.0623-.341331-.124177-.684123-.251034-.957576-.375671-.786181-1.22245-1.880995-1.944673-2.667136.09326-.102077.220095-.239754.375671-.308112 0-.752002-.282413-.991736-.657644-1.538643-.315992-.547386-1.035915-1.607061-1.572062-1.949312 0 0 0-.0347-.533447-.0347-.03096-.37599.06452-.684103.157797-1.094313 0-.307632.220094-.136257.282413-.82084.157796-.581086.09326-.239274.220094-.82038.124177-.273453.189156-.547387.189156-.992196.468928.171396 1.411165.136737 1.820395 0l.09326.0684c.126837.0347.157776-.170435.251034-.204615.722603-.41115.973656-1.128932 1.569422-1.197331 0 0 .315992-.171395.784481 0 .189155 0 .346952.0337.346952-.171395.03096-.307633.03096-.546427.189155-.752482.124177.82084.468929 1.744718 1.097813 2.633936l.627225-.477848c-.595766-.786181-.971016-1.67538-1.035915-2.701935.03092.06838.06454.136717.126857.205095.220095 0 .344292-.513227.595766-.479048.03094-.06838.09592-.376471.157776-.615745h2.353943l.845979-.203995v-.479029l-.626705-.06838v-.547387h-.157776v-.615745h-.375671v.581566l-.973656-.06838v-.376471h-.375671v.341812l-1.004556-.102078v-.513207h-.37787v.479028l-1.476165-.102078v-.169935h.0011z" fill="#2298e2"/></g></svg>