<svg height="64" width="64" xmlns="http://www.w3.org/2000/svg"><path d="m4.0000004 53.168069v1.999971c0 1.569978 1.2495821 2.83196 2.80076 2.83196h50.3992796c1.549977 0 2.79996-1.261982 2.79996-2.83196v-1.999971c0 1.569978-1.249983 2.831959-2.79996 2.831959h-50.3992796c-1.5503779 0-2.79996-1.261981-2.79996-2.831959z" opacity=".2"/><path d="m11.999886 5.0003861h39.999428v19.9997139h-39.999428z" fill="#b7b7b7"/><rect fill="#5b5b5b" height="34" rx="2.8" ry="2.834" width="55.999" x="4" y="23"/><g opacity=".4" stroke-width="1.9999714"><path d="m15.9998292 31.0000144h31.9995424v3.9999428h-31.9995424z"/><path d="m19.999772 38.9999h23.9996568v3.9999428h-23.9996568z"/><path d="m23.9997148 46.9997856h15.9997712v3.9999428h-15.9997712z"/></g><path d="m12 5v1h40v-1z" fill="#fff" opacity=".2"/></svg>