<svg height="64" viewBox="0 0 64 64" width="64" xmlns="http://www.w3.org/2000/svg" xmlns:xlink="http://www.w3.org/1999/xlink"><linearGradient id="a" gradientUnits="userSpaceOnUse" x1="14.5" x2="49.5" y1="31.372" y2="31.372"><stop offset="0" stop-color="#9a9c97"/><stop offset="1" stop-color="#797b78"/></linearGradient><linearGradient id="b" gradientUnits="userSpaceOnUse" x1="22.416" x2="22.416" y1="21.357" y2="47.046"><stop offset="0" stop-color="#9e9f9b"/><stop offset="1" stop-color="#7b7e7a"/></linearGradient><linearGradient id="c" gradientUnits="userSpaceOnUse" x1="22.741" x2="22.741" y1="18.631" y2="24.994"><stop offset="0" stop-color="#b1ea78"/><stop offset="1" stop-color="#80d72a"/></linearGradient><g fill="#5e4aa6"><circle cx="-1248.7" cy="-1241.6" r="0"/><circle cx="-149.15" cy="23.855" fill-rule="evenodd" r="0"/><circle cx="-1248.7" cy="-1241.6" r="0"/><circle cx="-149.15" cy="23.855" fill-rule="evenodd" r="0"/></g><g transform="matrix(1.7143 0 0 1.7143 -22.857 -22.854)"><path d="m16.5 11h2v1.996h-2" opacity=".015" transform="matrix(1.4062 0 0 1.4062 -1.4141 .1918)"/><path d="m16.5 11h2v1.996h-2" opacity=".1" transform="matrix(1.4062 0 0 1.4062 -1.4141 -.9708)"/><path d="m32.335 24.341-7.0311 12.656h14.062m-4.4999-2.8124h-5.0624l2.5312-4.7811" fill="#d76e14"/><path d="m32.335 25.742-5.8387 10.51h11.677m-3.7368-2.3355h-4.2039l2.1019-3.9703" fill="#f6a95e"/><path d="m14.791 17.309v4.2191h20.356c5.4533 0 9.8446 4.3913 9.8446 9.8446s-4.3913 9.8423-9.8446 9.8423h-20.356v4.2191h20.356c7.7904 0 14.061-6.271 14.061-14.061 0-7.7904-6.271-14.064-14.061-14.064h-15.468z" fill="url(#a)" stroke="#5a5a5a" stroke-width=".58258"/><g transform="matrix(1.1651 0 0 1.1651 -5.0276 -5.8481)"><path d="m23.623 21.209h-2.4141v22.067h-1.207l2.4141 3.7695 2.4141-3.7695h-1.207z" fill="url(#b)" stroke="#5a5a5a" stroke-width=".5"/><path d="m19.424 17.702h5.9834v7.0678h-5.9834z" fill="url(#c)" stroke="#2e5b02" stroke-opacity=".95294" stroke-width=".48964"/></g><path d="m32.336 29.045-3.0078 5.4121h6.0137zm0 1.2402 2.0137 3.625h-4.0273z" fill="#d76e14"/></g></svg>