<svg height="64" width="64" xmlns="http://www.w3.org/2000/svg"><path d="m32 5c-15.512 0-28 12.488-28 28s12.488 28 28 28 28-12.488 28-28-12.488-28-28-28z" opacity=".2"/><path d="m32 4c-15.512 0-28 12.488-28 28s12.488 28 28 28 28-12.488 28-28-12.488-28-28-28z" fill="#ccc"/><g fill="#404040"><path d="m33.738282 18c-3.699352 0-5.947638 4.138038-7.363282 7.816406l-1.777344 5.402344-2.261718 7.242188c-.701988 2.037826-1.196522 5.277488-3.335938 5.539062-.93584.11442-.895431-2-2-2s-2 .89543-2 2 .895431 2 2 2h1.261719c4.277799 0 6.717463-5.381616 8.550781-11.304688l1.027344-3.34375 1.640624-5.277344c.846754-2.181496 1.199248-5.770578 3.519532-6.074218.934838-.122336.89543 2 2 2s2-.89543 2-2c0-1.104569-.89543-2-2-2z"/><path d="m19 28h16v2h-16z"/><path d="m45.738282 18c-3.699352 0-5.947638 4.138038-7.363282 7.816406l-1.777344 5.402344-2.261718 7.242188c-.701988 2.037826-1.196522 5.277488-3.335938 5.539062-.93584.11442-.895431-2-2-2s-2 .89543-2 2 .895431 2 2 2h1.261719c4.277799 0 6.717463-5.381616 8.550781-11.304688l1.027344-3.34375 1.640624-5.277344c.846754-2.181496 1.199248-5.770578 3.519532-6.074218.934838-.122336.89543 2 2 2s2-.89543 2-2c0-1.104569-.89543-2-2-2z"/><path d="m31 28h16v2h-16z"/></g><path d="m32 4c-15.512 0-28 12.488-28 28 0 .11345.0112805.224113.0175781.335938.3515432-15.201757 12.6931499-27.335938 27.9824219-27.335938s27.630879 12.134181 27.982422 27.335938c.006298-.111825.017578-.222488.017578-.335938 0-15.512-12.488-28-28-28z" fill="#fff" opacity=".2"/></svg>