<svg height="64" width="64" xmlns="http://www.w3.org/2000/svg"><path d="m4.0000004 56.200069v1.999971c0 1.549978 1.2495821 2.79996 2.80076 2.79996h50.3992796c1.549977 0 2.79996-1.249982 2.79996-2.79996v-1.999971c0 1.549977-1.249983 2.79996-2.79996 2.79996h-50.3992796c-1.5503779 0-2.79996-1.249983-2.79996-2.79996z" opacity=".2"/><rect fill="#4f4f4f" height="55.999" rx="2.8" transform="matrix(0 -1 -1 0 0 0)" width="55.999" x="-60" y="-60"/><path d="m22.003906 5c-1.979503.00303-3.95972.0153905-5.943359.0390625-16.95710396 18.9718045.192426 30.9949435 13.939453 33.9609375-14.549585-9.451605-2.208941-26.781431 10-33.9765625-6.01021.0289297-11.99709-.0326177-17.996094-.0234375zm11.996094 22c13.942749 9.057397 3.188648 25.324854-8.476562 33h23.230468c15.532927-18.413805-1.241699-30.08467-14.753906-33zm-4.802734.001953a7.2649654 4.3840938 45 0 0 -.222657.003906 7.2649654 4.3840938 45 0 0 -2.113281.859375 7.2649654 4.3840938 45 0 0 10.273438 10.273438 7.2649654 4.3840938 45 0 0 -7.9375-11.136719z" fill-rule="evenodd" opacity=".2"/><path d="m22.003906 4c-1.979503.0030292-3.95972.0153913-5.943359.0390625-16.95710384 18.9718055.192426 30.9949435 13.939453 33.9609375-14.549585-9.451605-2.208941-26.781431 10-33.9765625-6.01021.0289297-11.99709-.0326177-17.996094-.0234375zm11.996094 22c14.549585 9.451606 2.208941 26.781431-10 33.976562 7.993411-.038472 15.944277.079789 23.939453-.015624 16.957104-18.971805-.192426-30.994944-13.939453-33.960938zm-5.025391.005859a7.2649654 4.3840938 45 0 0 -2.113281.859375 7.2649654 4.3840938 45 0 0 10.273438 10.273438 7.2649654 4.3840938 45 0 0 -8.160157-11.132813z" fill="#ff6363" fill-rule="evenodd"/><path d="m6.8007812 4c-1.5511778 0-2.8007812 1.2496034-2.8007812 2.8007812v1.0019532c0-1.5511778 1.2496034-2.8007813 2.8007812-2.8007813h50.3984378c1.549977 0 2.800781 1.2496035 2.800781 2.8007813v-1.0019532c0-1.5511777-1.250804-2.8007812-2.800781-2.8007812z" fill="#fff" opacity=".1"/></svg>