<svg height="64" viewBox="0 0 64 64" width="64" xmlns="http://www.w3.org/2000/svg"><path d="m18 9-2 4v42l2 2v2h28v-2l2-2v-42l-2-4z" opacity=".2"/><path d="m18 8h28l2 4v42l-2 2h-28l-2-2v-42z" fill="#c2352a"/><path d="m18 6h28v2h-28z" fill="#808080"/><path d="m16 12h32v2h-32z" fill="#fff"/><path d="m16 52h32v2h-32z" fill="#fff"/><path d="m18 56h28v2h-28z" fill="#808080"/><path d="m17.9362 13.0394 17.3358 18.2606" fill="none" stroke="#fff" stroke-width="2"/><path d="m27 22.044v15.9554" fill="none" stroke="#fff" stroke-width="2"/><g fill="#fff"><circle cx="37" cy="33" r="5"/><circle cx="27" cy="41" r="5"/><circle cx="27" cy="23" r="5"/><path d="m18 8-2 4v1l2-4h28l2 4v-1l-2-4z" opacity=".1"/></g></svg>