<svg height="64" width="64" xmlns="http://www.w3.org/2000/svg" xmlns:xlink="http://www.w3.org/1999/xlink"><linearGradient id="a" gradientUnits="userSpaceOnUse" x1="7.1561" x2="7.1561" y1="16.0275" y2="62.0004"><stop offset="0" stop-color="#35c130"/><stop offset=".3483" stop-color="#34bd30"/><stop offset=".6809" stop-color="#31b231"/><stop offset="1" stop-color="#2c9f32"/></linearGradient><linearGradient id="b" gradientUnits="userSpaceOnUse" x1="505.072027" x2="505.072027" y1="372.39052102" y2="709.588204"><stop offset="0" stop-color="#47b9ff"/><stop offset="1" stop-color="#3d8aff"/></linearGradient><linearGradient id="c" gradientUnits="userSpaceOnUse" x1="36.8288325" x2="36.8288325" y1="17.88803439" y2="60.8940867"><stop offset="0" stop-color="#ffce00"/><stop offset="1" stop-color="#e6bc00"/></linearGradient><linearGradient id="d" gradientUnits="userSpaceOnUse" x1="519.963533" x2="519.963533" y1="313.25327523" y2="771.45435"><stop offset="0" stop-color="#fff"/><stop offset="1" stop-color="#d7d7d7"/></linearGradient><filter id="e" color-interpolation-filters="sRGB" height="1.072" width="1.072" x="-.036" y="-.036"><feGaussianBlur stdDeviation="6.5097789"/></filter><linearGradient id="f" gradientUnits="userSpaceOnUse" x1="499.384625" x2="499.384625" y1="-.3784055" y2="1029.43835"><stop offset="0" stop-color="#f6503b"/><stop offset=".2174" stop-color="#f24735"/><stop offset=".5719" stop-color="#e62f25"/><stop offset="1" stop-color="#d4090d"/></linearGradient><g transform="translate(-.000002 -.006453)"><circle cx="32" cy="32.006" fill="url(#a)" r="30" stroke-width=".99998"/><path d="m51.25 9.0037c-6.1674 1.4686-35.335 8.7003-19.138 10.451 18.048 1.9511 11.178 20.243 11.178 20.243l-13.215 22.213a30 30 0 0 0 1.9236.09627 30 30 0 0 0 30-30 30 30 0 0 0 -10.75-23.003z" fill="url(#c)" stroke-width=".99998"/><g stroke-width="15.683" transform="matrix(.063762 0 0 .063762 -.61424 -2.48)"><path d="m511.5 42a470.5 470.5 0 0 0 -394.45 214.82l210.35 353.84s-5.6338-170.45 8.4531-187.36c14.087-16.904 83.113-81.703 83.113-81.703l94.381-28.174-5.1055-18.312 418.71-2.7539a470.5 470.5 0 0 0 -415.46-250.36z" fill="url(#f)" transform="translate(0 28.362)"/><circle cx="512" cy="550.36" fill="#111" filter="url(#e)" opacity=".2" r="216.99"/><circle cx="512" cy="540.36" fill="url(#d)" r="216.99"/><circle cx="512" cy="540.36" fill="url(#b)" r="171.91"/></g></g><g fill="#5e4aa6" stroke-width="1.000006568"><circle cx="-1177.10086" cy="-1229.188048" r="0"/><circle cx="-1108.160956" cy="-1221.1375" r="0"/><circle cx="-1085.143192" cy="-1246.914372" r="0"/><circle cx="-1095.801664" cy="-1220.230396" r="0"/></g></svg>