<svg enable-background="new 0 0 1024 1024" height="64" image-rendering="optimizeSpeed" viewBox="0 0 64 64" width="64" xmlns="http://www.w3.org/2000/svg" xmlns:xlink="http://www.w3.org/1999/xlink"><linearGradient id="a" gradientUnits="userSpaceOnUse" x1="33.75869518" x2="33.75869518" y1="11.62942892" y2="62.10004262"><stop offset="0" stop-color="#eb554b"/><stop offset=".5" stop-color="#f51432"/><stop offset="1" stop-color="#d73782"/></linearGradient><filter id="b" color-interpolation-filters="sRGB" height="1.0699" width="1.0742" x="-.037097" y="-.034966"><feGaussianBlur stdDeviation=".86408203"/></filter><linearGradient id="c" gradientUnits="userSpaceOnUse" x1="38.002" x2="38.106" y1="1.64" y2="63.712"><stop offset="0" stop-color="#fff"/><stop offset="1" stop-color="#fae6e6"/></linearGradient><g transform="matrix(.99261 0 0 .99261 .4584 .076328)"><path d="m61.091 24.373c-.06992-.27648-.14936-.57203-.23199-.86441-.06356-.2161-.12712-.43538-.20021-.66739-.1017-.32733-.2161-.66739-.33686-1.0074-.40996-1.1599-.89934-2.2913-1.4714-3.4099-.24153-.47034-.50529-.95021-.78178-1.4237-1.2903-2.1928-2.911-4.2712-4.8528-6.2129-4.6144-4.6144-9.988-7.4145-16.122-8.3932-1.0328-.16525-2.0847-.27966-3.1812-.34004-.61652-.034957-1.2617-.054025-1.9131-.054025-.59428 0-1.1822.01589-1.7733.047669-7.5224.38771-14.002 3.3019-19.439 8.7393q-8.787 8.787-8.787 21.213c0 8.2852 2.9301 15.359 8.787 21.216 3.6038 3.6006 7.6622 6.0953 12.146 7.4716 2.3358.71503 4.7542 1.1345 7.2932 1.268h.02542c.54025.0286 1.0551.04449 1.5572.04449h.19068c.65469 0 1.303-.01907 1.9131-.05085.1589-.0095.30191-.01907.44174-.0286 1.2839-.09216 2.536-.25742 3.7309-.4894.50529-.09851 1.0043-.20974 1.4873-.32733 5.1356-1.2903 9.6704-3.9152 13.643-7.8876 3.089-3.089 5.3644-6.5145 6.8232-10.284 1.1726-3.0286 1.821-6.2796 1.9417-9.7562.01271-.38453.01907-.7786.01907-1.1759v-.19068c-.01271-2.5837-.31462-5.0529-.90887-7.4367z" fill="url(#a)" stroke-width=".99683"/><path d="m38.588 2.6914c-18.233 14.959-30.116 18.999-35.139 19.85-.64432 1.9843-1.0793 4.0553-1.291 6.2188 3.0205-.4169 10.267-1.8066 18-6.457 10.068-6.0552 22.105-17.551 22.105-17.551-3.2827 6.1828-4.3067 28.585-4.3809 56.713.06661-.01245.13687-.02034.20313-.0332.50529-.09851 1.0033-.21054 1.4863-.32812 5.1356-1.2903 9.6699-3.9163 13.643-7.8887 1.8657-1.8657 3.4297-3.8559 4.7012-5.9688-1.7642-5.857-3.1537-12.275-4.3047-18.273-.92046-6.7068-.55003-12.886.10156-17.656-.16792-.17518-.32306-.35627-.49609-.5293-4.234-4.234-9.1155-6.9222-14.629-8.0957zm-36.574 29.904c.040373 2.3429.31057 4.5901.82617 6.7363 8.4655.56771 21.157 9.5115 27.197 22.607.06372.0037.12558.01227.18945.01563h.02539c.54025.0286 1.0545.04492 1.5566.04492h.19141c.65469 0 1.3019-.019 1.9121-.05078.1589-.0095.30158-.01977.44141-.0293.41236-.0296.81575-.07858 1.2207-.12305-4.7132-13.741-27.114-29.181-33.561-29.201z" fill-opacity=".89831" filter="url(#b)" opacity=".2" transform="matrix(.96764 0 0 .94489 1.6117 1.7826)"/><path d="m38.588 2.6914c-18.233 14.959-30.116 18.999-35.139 19.85-.64432 1.9843-1.0793 4.0553-1.291 6.2188 3.0205-.4169 10.267-1.8066 18-6.457 10.068-6.0552 22.105-17.551 22.105-17.551-3.2827 6.1828-4.3067 28.585-4.3809 56.713.06661-.01245.13687-.02034.20313-.0332.50529-.09851 1.0033-.21054 1.4863-.32812 5.1356-1.2903 9.6699-3.9163 13.643-7.8887 1.8657-1.8657 3.4297-3.8559 4.7012-5.9688-1.7642-5.857-3.1537-12.275-4.3047-18.273-.92046-6.7068-.55003-12.886.10156-17.656-.16792-.17518-.32306-.35627-.49609-.5293-4.234-4.234-9.1155-6.9222-14.629-8.0957zm-36.574 29.904c.040373 2.3429.31057 4.5901.82617 6.7363 8.4655.56771 21.157 9.5115 27.197 22.607.06372.0037.12558.01227.18945.01563h.02539c.54025.0286 1.0545.04492 1.5566.04492h.19141c.65469 0 1.3019-.019 1.9121-.05078.1589-.0095.30158-.01977.44141-.0293.41236-.0296.81575-.07858 1.2207-.12305-4.7132-13.741-27.114-29.181-33.561-29.201z" fill="url(#c)"/></g></svg>