<svg height="64" width="64" xmlns="http://www.w3.org/2000/svg"><path d="m5.1337626 23.486813-.2148342.37109c-.3154315.558585-.1778412 1.331644.3085916 1.749953l4.4372802 3.893894c.0451748-.613343.1088851-1.220367.1992126-1.82417l-4.6364748-4.06989c-.039199-.036-.059198-.084-.093797-.121997zm53.7325494 0c-.03458.038-.05458.0874-.09374.121097l-4.636675 4.07029c.09026.603803.154016 1.210827.199215 1.82417l4.43748-3.894494c.486367-.418309.624003-1.191368.308592-1.749953l-.213994-.37199zm-49.2206713 8.51577c-.016659.332251-.042967.661682-.042967.999973 0 .507426.026069 1.005173.062498 1.499959l.1992131-.175775c-.1147969-.765979-.1795951-1.539958-.2187941-2.323937zm44.7087933 0c-.03932.783859-.104138 1.557998-.218755 2.324137l.199215.175775c.03644-.494786.0625-.992533.0625-1.499959 0-.338291-.0263-.667722-.04296-.999973zm-49.2206714 8.51577c-.3945894.433988-.5047864 1.11397-.2147942 1.627956l5.6014486 9.710738c.324771.550785 1.055632.821698 1.660115.613263l5.820043-1.969947c1.748773 1.399903 3.742699 2.541732 5.863042 3.370909l1.179648 5.992039c.119797.627383.716781 1.127989 1.355443 1.136689h11.202898c.638643-.008 1.235687-.509306 1.355443-1.136689l1.179648-5.992039c2.117943-.829977 4.111889-1.971946 5.859842-3.371908l5.820243 1.968706c.604464.208435 1.335344-.0624 1.660115-.613263l5.601449-9.710738c.290012-.513586.179795-1.195108-.214834-1.628856l-5.386655 9.339548c-.324771.550865-1.055651.821698-1.660115.613263l-5.821843-1.969946c-1.748772 1.399902-3.742699 2.537731-5.863041 3.367109l-1.179649 5.995838c-.117996.625983-.71598 1.127969-1.353963 1.135969h-11.202898c-.638642-.0086-1.235646-.509306-1.355443-1.136689l-1.177968-5.995838c-2.121943-.829978-4.115089-1.967947-5.863842-3.367909l-5.820243 1.967946c-.604383.209995-1.335164-.062-1.659955-.611983l-5.3866544-9.339748z" opacity=".2"/><path d="m26.268392 4.002566c-.593604.064598-1.11647.5502851-1.224967 1.1374493l-1.181188 5.9934377c-2.120543.829298-4.113489 1.968707-5.862242 3.368709l-5.817843-1.968746c-.604783-.208395-1.337964.0616-1.662755.612583l-5.5998487 9.712138c-.3154314.558585-.1801951 1.331624.3062318 1.749933l4.6372748 4.06849c-.1631956 1.09091-.2624929 2.188541-.2624929 3.32491 0 1.136409.099197 2.23394.2624929 3.32491l-4.6372748 4.06869c-.4863669.418309-.6216632 1.191348-.3062318 1.749933l5.5998487 9.712138c.324771.550785 1.057952.820898 1.662435.612463l5.818443-1.968667c1.748773 1.399903 3.741699 2.539332 5.862242 3.36871l1.181188 5.993438c.119797.627383.717561 1.128749 1.356203 1.137449h11.199498c.638643-.008 1.236447-.510066 1.356183-1.137449l1.181208-5.993438c2.120543-.829298 4.113489-1.968727 5.862242-3.36871l5.818443 1.968667c.604464.208435 1.337664-.0616 1.662435-.612463l5.599849-9.712138c.315411-.558585.180195-1.331624-.306232-1.749933l-4.637275-4.06869c.163196-1.09091.262473-2.188341.262473-3.32491 0-1.136409-.0994-2.23394-.262473-3.32491l4.637275-4.06849c.486367-.418309.621643-1.191348.306232-1.749933l-5.599849-9.712138c-.323991-.551585-1.057971-.821778-1.661955-.613383l-5.818443 1.968666c-1.749953-1.400962-3.741899-2.540331-5.861842-3.369709l-1.181968-5.9934377c-.119996-.6273831-.71798-1.1287695-1.355963-1.1373693h-11.199498c-.0438-.00102-.0876-.00102-.131196 0z" fill="#78ac3d"/><path d="m32.000237 21.000648c6.627221 0 11.999676 5.372455 11.999676 11.999676s-5.372455 11.999676-11.999676 11.999676-11.999676-5.372455-11.999676-11.999676 5.372455-11.999676 11.999676-11.999676z" opacity=".2"/><path d="m32.000237 20.001334c6.627221 0 11.999676 5.372455 11.999676 11.999676s-5.372455 11.999676-11.999676 11.999676-11.999676-5.372455-11.999676-11.999676 5.372455-11.999676 11.999676-11.999676z" fill="#fff"/><path d="m32.000237 14.001096c-9.928332 0-17.999514 8.071182-17.999514 17.999514s8.071182 17.999514 17.999514 17.999514 17.999514-8.071182 17.999514-17.999514-8.071182-17.999514-17.999514-17.999514zm0 2.117543c8.783963 0 15.881971 7.098008 15.881971 15.881971s-7.098008 15.881971-15.881971 15.881971c-8.783763 0-15.881971-7.097808-15.881971-15.881571s7.098208-15.881971 15.881971-15.881971z" opacity=".2"/><path d="m30.152287 14.096093c-9.062155.928035-16.150764 8.599768-16.150764 17.904317 0 9.928332 8.071182 17.999514 17.999514 17.999514 1.48952 0 2.928921-.201515 4.313684-.543865.128156-.296292.35425-.799739.256473-1.195368-.0903-.36533-.38893-.676422-.723821-.866417-1.232446.305992-2.516732.488107-3.845496.488107-8.783763 0-15.881971-7.098208-15.881971-15.881971 0-8.374974 6.456626-15.19999 14.669604-15.819373.317631-.343571.438328-.713521.37903-1.197808-.0614-.498586-.444688-.768999-1.015373-.887156z" fill="#ffee57"/><path d="m26.269531 4-.001953.0019531c-.593604.064598-1.116112.5515077-1.224609 1.1386719l-1.181641 5.992187c-2.120543.829298-4.112575 1.969139-5.861328 3.369141l-5.818359-1.96875c-.604783-.208395-1.337319.062298-1.66211.613281l-5.5996091 9.710938c-.2017875.357337-.2015793.795835-.0605469 1.179687.022548-.05921.0291887-.124156.0605469-.179687l5.5996091-9.712891c.324791-.550983 1.057327-.819723 1.66211-.611328l5.818359 1.96875c1.748753-1.400002 3.740785-2.539843 5.861328-3.369141l1.181641-5.9941401c.108497-.5871642.631005-1.0721208 1.224609-1.1367188l.001953-.0019531c.043596-.00102.08706-.00102.13086 0h11.199218c.637983.0085998 1.235473.5093356 1.355469 1.1367188l1.181641 5.9941402c2.119943.829378 4.113328 1.968179 5.863281 3.369141l5.818359-1.96875c.603984-.208395 1.338119.061696 1.66211.613281l5.599609 9.712891c.031092.055062.038119.11905.060547.177734.1401-.383319.140817-.821123-.060547-1.177734l-5.599609-9.710938c-.323991-.551585-1.058126-.821676-1.66211-.613281l-5.818359 1.96875c-1.749953-1.400962-3.743338-2.541716-5.863281-3.371094l-1.181641-5.9921871c-.119996-.6273831-.717486-1.1300721-1.355469-1.1386719h-11.199218c-.0438-.00102-.087264-.00102-.13086 0zm-16.5136716 25.582031c-.0908402.795085-.15625 1.59633-.15625 2.419922 0 .169148.0172048.332468.0214844.5.0244387-.958498.103216-1.897192.2421874-2.826172zm44.4863286.001953-.105469.091797c.138867.929031.215776 1.867669.240234 2.826172.004282-.167545.021485-.330828.021485-.5 0-.822991-.065556-1.623484-.15625-2.417969zm0 5.833985c-.034544.302546-.06046.607333-.105469.908203l4.636719 4.068359c.175883.151253.287839.355164.367187.572266.204714-.53653.071103-1.195352-.367187-1.572266zm-44.4863286.001953-4.5292969 3.974609c-.4378277.376562-.571046 1.034045-.3671875 1.570313.0794286-.216181.1919588-.419604.3671875-.570313l4.6367187-4.068359c-.0449459-.300281-.0729198-.604301-.1074218-.90625z" fill="#fff" opacity=".2"/></svg>