<svg height="64" width="64" xmlns="http://www.w3.org/2000/svg"><path d="m4.0508 32c-.0118.334-.0508.662-.0508 1 0 15.512 12.488 28 28 28s28-12.488 28-28c0-.33768-.03904-.66528-.05078-1-.528 15.042-12.776 27-27.95 27-15.1744 0-27.422-11.958-27.95-27z" opacity=".2"/><rect fill="#5db43e" height="56" rx="28" transform="matrix(0 -1 -1 0 0 0)" width="56" x="-60" y="-60"/><path d="m32 4c-15.512 0-28 12.488-28 28 0 .113556.0112845.224032.0175781.335938.3515432-15.201757 12.6931499-27.335938 27.9824219-27.335938h.001953c15.289273 0 27.630879 12.134181 27.982422 27.335938.006271-.111825.017578-.22249.017578-.335938 0-15.512-12.488-28-28-28z" fill="#fff" opacity=".1"/><path d="m42.251953 16c-6.66353 0-7.913071 10-4.164062 10 3.748821 0 10.827592-10 4.164062-10zm-10.181641 1c-.11725-.00028-.245122.0093-.376953.02148-4.236066.476247-2.745151 6.857525-.490234 6.976563 2.183008.116049 4.571439-6.984157.869141-6.998043zm-6.794921 2.001953c-.241483-.01412-.509023.02809-.806641.140625-3.172497 1.204101-.481163 6.175964 1.294922 5.841797 1.612033-.302783 1.843109-5.84253-.488281-5.982422zm-5.419922 4.998047c-.283113-.0075-.589332.08572-.916016.316406-2.607444 1.84516.878059 6.302378 2.412109 5.611328 1.341942-.605417.486203-5.859652-1.496093-5.927734zm15.298828 3.984375c-5.6166-.09514-13.027216 2.724319-14.291016 8.386719-1.367 6.128 5.637406 14.628906 12.941407 14.628906 3.5938 0 7.419112-3.247728 8.195312-7.361328.498347-2.432505-6.2714-1.879848-6 .195312.3262 2.4878-1.639978 4.469456-4.308594 2.115235-7.175975-5.164513 11.482594-7.653507 10.308594-14.628907-.3654-2.171399-3.475703-3.276984-6.845703-3.333984z" opacity=".2"/><path d="m42.251953 15c-6.66353 0-7.913071 10-4.164062 10 3.748821 0 10.827592-10 4.164062-10zm-10.181641 1c-.11725-.00028-.245122.0093-.376953.02148-4.236066.476247-2.745151 6.857525-.490234 6.976563 2.183008.116049 4.571439-6.984157.869141-6.998043zm-6.794921 2.001953c-.241483-.01412-.509023.02809-.806641.140625-3.172497 1.204101-.481163 6.175964 1.294922 5.841797 1.612033-.302783 1.843109-5.84253-.488281-5.982422zm-5.419922 4.998047c-.283113-.0075-.589332.08572-.916016.316406-2.607444 1.84516.878059 6.302378 2.412109 5.611328 1.341942-.605417.486203-5.859652-1.496093-5.927734zm15.298828 3.984375c-5.6166-.09514-13.027216 2.724319-14.291016 8.386719-1.367 6.128 5.637406 14.628906 12.941407 14.628906 3.5938 0 7.419112-3.247728 8.195312-7.361328.498347-2.432505-6.2714-1.879848-6 .195312.3262 2.4878-1.639978 4.469456-4.308594 2.115235-7.175975-5.164513 11.482594-7.653507 10.308594-14.628907-.3654-2.171399-3.475703-3.276984-6.845703-3.333984z" fill="#fff"/></svg>