<svg height="64" width="64" xmlns="http://www.w3.org/2000/svg"><g stroke-width="1.4"><path d="m6.8007812 61c-1.5512 0-2.8007812-1.249582-2.8007812-2.800782v-2c0 1.5512 1.2495812 2.800782 2.8007812 2.800782h25.1992188 25.199218c1.5512 0 2.800782-1.249582 2.800782-2.800782v2c0 1.5512-1.249582 2.800782-2.800782 2.800782h-25.199218z" opacity=".2"/><path d="m32 4h-25.2c-1.5512 0-2.8 1.2488-2.8 2.8v25.2h28z" fill="#6655e4"/><path d="m32 4h25.2c1.5512 0 2.8 1.2488 2.8 2.8v25.2h-28z" fill="#2cbfeb"/><path d="m32 60h-25.2c-1.5512 0-2.8-1.2488-2.8-2.8v-25.2h28z" fill="#2cbfeb"/><path d="m32 60h25.2c1.5512 0 2.8-1.2488 2.8-2.8v-25.2h-28z" fill="#f7c73c"/><path d="m6.8007812 4c-1.5512 0-2.8007812 1.2495812-2.8007812 2.8007812v1c0-1.5511999 1.2495812-2.8007812 2.8007812-2.8007812h25.1992188 25.199219c1.5512 0 2.800781 1.2495812 2.800781 2.8007812v-1c0-1.5511999-1.249581-2.8007812-2.800781-2.8007812h-25.199219z" fill="#fff" opacity=".2"/></g><path d="m12 12h40v40h-40z" fill="#3f3f3f"/><path d="m18.000485 46.9998h15.999999" fill="none" opacity=".2" stroke="#010101" stroke-linecap="round" stroke-width="4"/><path d="m18.000485 46h15.999999" fill="none" stroke="#fff" stroke-linecap="round" stroke-width="4"/><path d="m18.000485 26.999958h8.000005m0 8.000004v-16.000001m-8.000005 16.000001v-16.000001" fill="none" opacity=".2" stroke="#010101" stroke-linecap="round" stroke-width="4"/><path d="m18.000485 26.000158h8.000005m0 8.000004v-16.000001m-8.000005 16.000001v-16.000001" fill="none" stroke="#fff" stroke-linecap="round" stroke-width="4"/><path d="m34.000288 27.00016s8.000006-.929 8.000006 3.999996c0 4.929002-8.000006 4.000002-8.000006 4.000002m.000196-16.000199v16.000003m-.000196-7.954652s8.000006.929002 8.000006-3.999994c0-4.929003-8.000006-4.000002-8.000006-4.000002m.000196 16.000198v-16.000002" style="opacity:.2;fill:none;stroke:#010101;stroke-width:4;stroke-linecap:round;stroke-linejoin:bevel"/><path d="m34.000288 26.00036s8.000006-.929 8.000006 3.999996c0 4.929002-8.000006 4.000002-8.000006 4.000002m.000196-16.000199v16.000003m-.000196-7.954652s8.000006.929002 8.000006-3.999994c0-4.929003-8.000006-4.000001-8.000006-4.000001m.000196 16.000197v-16.000001" fill="none" stroke="#fff" stroke-linecap="round" stroke-linejoin="bevel" stroke-width="4"/></svg>