<svg height="64" width="64" xmlns="http://www.w3.org/2000/svg"><path d="m4.0000004 50.250068v1.999971c0 1.523979 1.2495821 2.749961 2.80076 2.749961h50.3992796c1.549977 0 2.79996-1.225982 2.79996-2.749961v-1.999971c0 1.523978-1.249983 2.749961-2.79996 2.749961h-50.3992796c-1.5503779 0-2.79996-1.225983-2.79996-2.749961z" opacity=".2"/><rect fill="#6b664c" height="43.999" rx="2.8" ry="2.75" transform="scale(-1 1)" width="55.999" x="-60" y="10"/><g fill="#fff"><g opacity=".8" transform="matrix(1.9999714 0 0 1.9999714 .000058 .000801)"><path d="m7 11h2.500107v3.6504l3.933893-3.65h3.059l-4.921 4.735 5.428 5.265h-3.299l-4.200893-3.938v3.938h-2.500107v-10z"/><path d="m26 20.096c-.672.301333-1.37.527333-2.094.678-.723333.150667-1.470333.226-2.241.226-1.741333 0-3.120667-.447667-4.138-1.343-1.018-.899333-1.527-2.117333-1.527-3.654 0-1.553333.518333-2.775667 1.555-3.667 1.036-.890667 2.455-1.336 4.257-1.336.6956 0 1.360867.06025 1.9958.18076.639587.120507 1.127656.299117 1.692536.53583v1.9948c-.583567-.305573-1.050636-.383916-1.629536-.534549-.574227-.150633-1.150793-.22595-1.7297-.22595-1.073733 0-2.152583.2776-2.736183.8328-.5789.550893-.86835 1.190899-.86835 2.219539 0 1.02.280114 1.607535.84034 2.162735.560227.5552 1.60641.8328 2.638183.8328.280113 0 .539217-.01507.77731-.0452.242767-.03443.5165-.08608.707907-.15494v-1.798782h-1.500021v-1.500022h3.999374v4.596269z"/></g><path d="m6.8007812 10c-1.5511778 0-2.8007812 1.226422-2.8007812 2.75v1.001953c0-1.523578 1.2496034-2.75 2.8007812-2.75h50.3984378c1.549977 0 2.800781 1.226422 2.800781 2.75v-1.001953c0-1.523578-1.250804-2.75-2.800781-2.75z" opacity=".1"/></g></svg>