<svg height="64" width="64" xmlns="http://www.w3.org/2000/svg"><path d="m6.0008004 27.800481v1.999969c0 .66599.5343918 1.199981 1.1991815 1.199981h21.5996671c.66599 0 1.199982-.533991 1.199982-1.199981v-1.999969c0 .665989-.533992 1.199981-1.199982 1.199981h-21.5996671c-.6655897 0-1.1999815-.533992-1.1999815-1.199981zm27.9995686 0v1.999969c0 .66599.533992 1.199981 1.199982 1.199981h21.601667c.66399 0 1.197982-.533991 1.197982-1.199981v-1.999969c0 .665989-.533992 1.199981-1.199982 1.199981h-21.599667c-.66599 0-1.199982-.533992-1.199982-1.199981zm-27.9995686 27.999568v1.99997c0 .665989.5343918 1.199981 1.1991815 1.199981h21.5996671c.66599 0 1.199982-.533992 1.199982-1.199981v-1.99997c0 .66599-.533992 1.199982-1.199982 1.199982h-21.5996671c-.6655897 0-1.1999815-.533992-1.1999815-1.199982zm27.9995686 0v1.99997c0 .665989.533992 1.199981 1.199982 1.199981h21.601667c.66399 0 1.197982-.533992 1.197982-1.199981v-1.99997c0 .66599-.533992 1.199982-1.199982 1.199982h-21.599667c-.66599 0-1.199982-.533992-1.199982-1.199982z" opacity=".2"/><g transform="matrix(0 -1 -1 0 0 0)"><rect fill="#e94a63" height="24" rx="1.2" width="24" x="-30" y="-30"/><rect fill="#86b837" height="24" rx="1.2" width="24" x="-58" y="-30"/><rect fill="#e94a63" height="24" rx="1.2" width="24" x="-30" y="-58"/></g><g opacity=".2" stroke-width="1.9999692"><circle cx="46.0001846" cy="19.0005238" r="5.9999076"/><circle cx="18.0006158" cy="47.0000926" r="5.9999076"/></g><circle cx="46" cy="18.001" fill="#fff" r="6"/><rect fill="#e94a63" height="24" rx="1.2" transform="matrix(0 -1 -1 0 0 0)" width="24" x="-58" y="-58"/><circle cx="18.001" cy="46" fill="#fff" r="6"/><path d="m7.1992188 6.000416c-.6647898 0-1.1992188.5344291-1.1992188 1.1992188v1c0-.6647897.534429-1.1992188 1.1992188-1.1992188h21.5996092c.66599 0 1.201172.534429 1.201172 1.1992188v-1c0-.6647898-.535182-1.1992188-1.201172-1.1992188zm28.0000002 0c-.66599 0-1.199219.5344291-1.199219 1.1992188v1c0-.6647897.533229-1.1992188 1.199219-1.1992188h21.599609c.66599 0 1.201172.534429 1.201172 1.1992188v-1c0-.6647898-.535182-1.1992188-1.201172-1.1992188zm-28.0000002 28c-.6647898 0-1.1992188.533229-1.1992188 1.199219v1c0-.66599.534429-1.199219 1.1992188-1.199219h21.5996092c.66599 0 1.201172.533229 1.201172 1.199219v-1c0-.66599-.535182-1.199219-1.201172-1.199219zm27.9980472 0c-.665059.001068-1.197266.533896-1.197266 1.199219v1c0-.665323.532207-1.198151 1.197266-1.199219h.002 21.599609c.665943 0 1.201125.533229 1.201125 1.199219v-1c0-.66599-.535182-1.199219-1.201172-1.199219h-21.599609-.002z" fill="#fff" opacity=".2"/></svg>