<svg height="64" width="64" xmlns="http://www.w3.org/2000/svg"><rect height="56" opacity=".2" rx="2.8" transform="matrix(0 -1 -1 0 0 0)" width="56" x="-61" y="-60"/><rect fill="#6688be" height="56" rx="2.8" transform="matrix(0 -1 -1 0 0 0)" width="56" x="-60" y="-60"/><g stroke-width="2"><path d="m14 32h28" fill="none" stroke="#5b5b5b" stroke-linejoin="round"/><path d="m27.8 32 6.2-14" fill="none" stroke="#5b5b5b" stroke-linejoin="round"/><path d="m28 32 6 14h14" fill="none" stroke="#5b5b5b" stroke-linejoin="round"/><g opacity=".2"><circle cx="14" cy="33" r="4"/><circle cx="28" cy="33" r="4"/><circle cx="42" cy="33" r="4"/><circle cx="34" cy="47" r="4"/><circle cx="48" cy="47" r="4"/><circle cx="34" cy="19" r="4"/></g><circle cx="14" cy="32" fill="#fff" r="4"/><circle cx="28" cy="32" fill="#fff" r="4"/><circle cx="42" cy="32" fill="#fff" r="4"/><circle cx="34" cy="46" fill="#fff" r="4"/><circle cx="48" cy="46" fill="#fff" r="4"/><circle cx="34" cy="18" fill="#fff" r="4"/></g><path d="m6.8007812 4c-1.5512 0-2.8007812 1.2495812-2.8007812 2.8007812v1c0-1.5511999 1.2495812-2.8007812 2.8007812-2.8007812h50.3984378c1.5512 0 2.800781 1.2495812 2.800781 2.8007812v-1c0-1.5511999-1.249581-2.8007812-2.800781-2.8007812h-50.3984378z" fill="#fff" opacity=".2"/></svg>