<svg height="64" width="64" xmlns="http://www.w3.org/2000/svg"><path d="m4.0000004 56.200069v1.999971c0 1.549978 1.2495821 2.79996 2.80076 2.79996h50.3992796c1.549977 0 2.79996-1.249982 2.79996-2.79996v-1.999971c0 1.549977-1.249983 2.79996-2.79996 2.79996h-50.3992796c-1.5503779 0-2.79996-1.249983-2.79996-2.79996z" opacity=".2"/><rect fill="#ccc" height="55.999" rx="2.8" transform="matrix(0 -1 -1 0 0 0)" width="55.999" x="-60" y="-60"/><g transform="matrix(-.70710678 -.70710678 -.70710678 .70710678 0 0)"><rect fill="#49a2d6" height="17.482" rx=".874" width="17.482" x="-37.02" y="-8.74"/><rect fill="#caa52a" height="17.482" rx=".874" width="17.482" x="-54" y="-25.72"/><rect fill="#e94a63" height="17.482" rx=".874" width="17.482" x="-54" y="8.24"/><rect fill="#6eaa53" height="17.482" rx=".874" width="17.482" x="-70.96" y="-8.74"/></g><path d="m6.8007812 4c-1.5511778 0-2.8007812 1.2496034-2.8007812 2.8007812v1.0019532c0-1.5511778 1.2496034-2.8007813 2.8007812-2.8007813h50.3984378c1.549977 0 2.800781 1.2496035 2.800781 2.8007813v-1.0019532c0-1.5511777-1.250804-2.8007812-2.800781-2.8007812z" fill="#fff" opacity=".2"/></svg>