<svg height="64" width="64" xmlns="http://www.w3.org/2000/svg"><path d="m6.0002 54.398v2c0 1.44 1.1612 2.602 2.6016 2.602h46.796c1.44 0 2.602-1.162 2.602-2.602v-2c0 1.44-1.162 2.602-2.602 2.602h-46.796c-1.4408 0-2.602-1.162-2.602-2.602z" opacity=".2"/><rect fill="#4e91d9" height="52" rx="2.6" transform="matrix(0 -1 -1 0 0 0)" width="52" x="-58" y="-58"/><path d="m12 34h8v2h-8z" fill="#fff"/><path d="m42.99982 10.00002.667571 1.73445 1.738209-.54606-.905811 1.6167 1.499984 1.05351-1.797144.28161.132216 1.8597-1.335127-1.26558-1.335128 1.26558.132216-1.8597-1.797143-.28161 1.499983-1.05351-.90581-1.6167 1.738208.54606z" fill="#ffeb5d"/><path d="m-46-44h8v2h-8z" fill="#742424" transform="scale(-1)"/><path d="m-38-44h8v2h-8z" fill="#ad3131" transform="scale(-1)"/><path d="m-30-44h8v2h-8z" fill="#742424" transform="scale(-1)"/><path d="m-22-44h8v2h-8z" fill="#ad3131" transform="scale(-1)"/><path d="m-14-44h8v2h-8z" fill="#742424" transform="scale(-1)"/><path d="m58.0002 44h-4v-2h4z" fill="#742424"/><path d="m-42-46h8v2h-8z" fill="#ad3131" transform="scale(-1)"/><path d="m-34-46h8v2h-8z" fill="#742424" transform="scale(-1)"/><path d="m-26-46h8v2h-8z" fill="#ad3131" transform="scale(-1)"/><path d="m-18-46h8v2h-8z" fill="#742424" transform="scale(-1)"/><path d="m10.0002 46h-4v-2h4z" fill="#ad3131"/><path d="m-54-44h8v2h-8z" fill="#ad3131" transform="scale(-1)"/><path d="m-58-46h8v2h-8z" fill="#ad3131" transform="scale(-1)"/><path d="m-50-46h8v2h-8z" fill="#742424" transform="scale(-1)"/><path d="m22.0002 20h4v2h-4z" fill="#742424"/><path d="m26.0002 20h8v2h-8z" fill="#ad3131"/><path d="m34.0002 20h8v2h-8z" fill="#742424"/><path d="m42.0002 20h8v2h-8z" fill="#ad3131"/><path d="m50.0002 20h8v2h-8z" fill="#742424"/><path d="m6.0002 20h4v2h-4z" fill="#742424"/><path d="m22.0002 18h8v2h-8z" fill="#ad3131"/><path d="m30.0002 18h8v2h-8z" fill="#742424"/><path d="m38.0002 18h8v2h-8z" fill="#ad3131"/><path d="m46.0002 18h8v2h-8z" fill="#742424"/><path d="m54.0002 18h4v2h-4z" fill="#ad3131"/><path d="m6.0002 18h4v2h-4z" fill="#ad3131"/><g fill="#fff"><path d="m12 16h2v24h-2z"/><path d="m18 16h2v24h-2z"/><path d="m12 26h8v2h-8z"/><path d="m12 18h8v2h-8z"/><path d="m8.6015625 6c-1.4404 0-2.6015625 1.1611625-2.6015625 2.6015625v1c0-1.4404 1.1611625-2.6015625 2.6015625-2.6015625h46.7968755c1.44 0 2.601562 1.1611625 2.601562 2.6015625v-1c0-1.4404-1.161563-2.6015625-2.601562-2.6015625z" opacity=".2"/></g></svg>