<svg height="64" width="64" xmlns="http://www.w3.org/2000/svg"><path d="m4.0507982 32.000818c-.0118.33399-.050799.661981-.050799.999972.0000004 15.511562 12.4876478 27.99921 27.9992108 27.99921s27.99921-12.487648 27.99921-27.99921c0-.337671-.03904-.665262-.05078-.999972-.527985 15.041576-12.77564 26.999238-27.949212 26.999238-15.173972 0-27.4212267-11.957662-27.9492118-26.999238z" opacity=".2"/><rect fill="#1da6e8" height="55.998" rx="27.999" transform="matrix(0 -1 -1 0 0 0)" width="55.998" x="-60" y="-60"/><path d="m32 4.0019531c-15.511563 0-28 12.4864839-28 27.9980469 0 .113445.0112809.224116.0175781.335938.3515333-15.201329 12.6935799-27.335938 27.9824219-27.335938s27.630889 12.134609 27.982422 27.335938c.006271-.111822.017578-.222493.017578-.335938 0-15.511563-12.488437-27.9980469-28-27.9980469z" fill="#fff" opacity=".1"/><path d="m6 9v14h3v-4.199l4 4.199h3l-5-7 5-7h-3l-4 4.199v-4.199zm11 3v5.0001h8v-5h-2v3h-1v-3h-2v3h-1v-3zm0 6v2h8v-2zm0 3v2h2v-2zm3 0v2h5v-2z" opacity=".2" transform="matrix(1.9999436 0 0 1.9999436 2.000056 1.001297)"/><path d="m6 9v14h3v-4.199l4 4.199h3l-5-7 5-7h-3l-4 4.199v-4.199zm11 3v5.0001h8v-5h-2v3h-1v-3h-2v3h-1v-3zm0 6v2h8v-2zm0 3v2h2v-2zm3 0v2h5v-2z" fill="#fff" transform="matrix(1.9999436 0 0 1.9999436 2.000056 .001748)"/></svg>