<svg height="64" width="64" xmlns="http://www.w3.org/2000/svg"><path d="m4.0508 32.001c-.0118.33399-.050799.66198-.050799.99997 0 15.511 12.488 27.999 27.999 27.999 15.512 0 27.999-12.488 27.999-27.999 0-.33767-.03904-.66526-.05078-.99997-.52798 15.042-12.776 26.999-27.949 26.999-15.174 0-27.421-11.958-27.949-26.999z" opacity=".2"/><rect fill="#fe4d38" height="55.998" rx="27.999" transform="matrix(0 -1 -1 0 0 0)" width="55.998" x="-60" y="-60"/><path d="m32 4.002c-15.512 0-28 12.486-28 27.998 0 .114.0113.224.0176.336.3515-15.201 12.693-27.336 27.982-27.336s27.631 12.135 27.982 27.336c.007-.112.018-.223.018-.336 0-15.512-12.488-27.998-28-27.998z" fill="#fff" opacity=".2"/><g fill="#3f3f3f"><path d="m16.555 40.001c3.1875 6.183 9.0765 9.9941 15.451 9.9997 6.37-.0112 12.252-3.8215 15.438-9.9997 2.8591-5.5458-5.7916-6-15.445-6-9.6529 0-18.305.45071-15.445 6z"/><ellipse cx="21.999" cy="21.001" rx="4" ry="5"/><ellipse cx="41.999" cy="21.001" rx="4" ry="5"/></g></svg>