<svg height="64" viewBox="0 0 16.933 16.933" width="64" xmlns="http://www.w3.org/2000/svg" xmlns:xlink="http://www.w3.org/1999/xlink"><linearGradient id="a" gradientUnits="userSpaceOnUse" x1="19.843" x2="33.837" y1="-82.284" y2="-72.245"><stop offset="0" stop-color="#0c35f9"/><stop offset="1" stop-color="#2acbd7"/></linearGradient><g transform="translate(-17.991 86.924)"><rect fill="url(#a)" height="12.171" ry=".79373" width="15.875" x="18.52" y="-83.607"/><g transform="translate(-.23267)"><path d="m20.117-78.18c.34736.0761 1.7426-1.1289 2.6304.02537.88786 1.1542 1.5855 2.1055 2.7651 2.4353 1.1796.32978 2.4987-.35515 2.8919-1.2176.3932-.86249-.3932-.44393-.55808-.34246-.16489.10147-1.3698 1.002-2.2577.02537-.88786-.97664-2.576-3.2201-4.0473-2.6494-1.4713.57077-2.1686 1.5684-1.4243 1.7234z" fill="#fffffe"/><g transform="translate(0 -.37417)"><path d="m108.64-291.54-1.3125-.83984-.0527.87695c-.0246.37084.38746.6095.69727.4043z" fill="#191919" stroke-width=".035076" transform="scale(.26458)"/><path d="m107.76-299.67-.43945 7.293 1.3125.83984 6.166-4.0703z" fill="#cdcdcd" stroke-width=".035076" transform="scale(.26458)"/><path d="m32.622-85.096c-.4158-.05172-.84179.14399-1.0645.52967l-3.0463 5.2771 1.8619 1.0748 3.0473-5.2766c.29701-.51432.12069-1.1718-.39377-1.4686-.12854-.07428-.26602-.11918-.40462-.13642z" fill="#323232" stroke-width=".00928"/></g></g></g></svg>