<svg height="64" viewBox="0 0 16.933 16.933" width="64" xmlns="http://www.w3.org/2000/svg" xmlns:xlink="http://www.w3.org/1999/xlink"><linearGradient id="a" gradientUnits="userSpaceOnUse" x1="-15.7306" x2="-3.4383" y1="-23.57936" y2="-11.47936"><stop offset="0" stop-color="#3cdcff"/><stop offset="1" stop-color="#1287e1"/></linearGradient><linearGradient id="b" gradientUnits="userSpaceOnUse" x1="-14.789" x2="-14.789" y1="-19.165" y2="-16.374"><stop offset="0" stop-color="#ffdf00"/><stop offset="1" stop-color="#f6a70f"/></linearGradient><linearGradient id="c" gradientUnits="userSpaceOnUse" x1="-13.216" x2="-13.216" y1="-22.361" y2="-19.647"><stop offset="0" stop-color="#e95182"/><stop offset="1" stop-color="#cd3768"/></linearGradient><linearGradient id="d" gradientUnits="userSpaceOnUse" x1="-9.6904" x2="-9.6904" y1="-23.756" y2="-20.941"><stop offset="0" stop-color="#835ec0"/><stop offset="1" stop-color="#634593"/></linearGradient><filter id="e" color-interpolation-filters="sRGB" height="1.48" width="1.48" x="-.24" y="-.24"><feGaussianBlur stdDeviation=".2690625"/></filter><linearGradient id="f" gradientUnits="userSpaceOnUse" x1="11.8236" x2="13.4226" y1="-18.285" y2="-18.285"><stop offset="0" stop-color="#b2b5b0"/><stop offset="1" stop-color="#9d9a9c"/></linearGradient><linearGradient id="g" gradientUnits="userSpaceOnUse" x1="12.6706" x2="12.6706" y1="-17.83" y2="-10.26"><stop offset="0" stop-color="#232220"/><stop offset="1" stop-color="#4c4b4b"/></linearGradient><filter id="h" color-interpolation-filters="sRGB" height="1.1276" width="1.3874" x="-.1937" y="-.063814"><feGaussianBlur stdDeviation=".28661287"/></filter><g transform="matrix(1.0421 0 0 1.0421 18.87808481 26.673)"><path d="m-12.403-15.358s-1.661 1.8312-2.1435 1.9731c-.30494.11659-1.139.38566-1.8117-.43947s-1.9731-5.3633 2.3857-9.4531 12.718-2.0628 10.78 5.7579c0 0-1.0224 5.4171-6.9598 6.5831 0 0-1.4375.33325-1.7166-1.3917s1.8885-1.9572.796-3.1362c0 0-.55655-.66053-1.3306.10637z" fill="url(#a)"/><circle cx="-14.877" cy="-17.769" filter="url(#e)" opacity=".3" r="1.3453" transform="matrix(.92358 0 0 .92562 -1.137 -1.1695)"/><circle cx="-14.877" cy="-17.769" fill="url(#b)" r="1.3453"/><circle cx="-13.241" cy="-21.016" filter="url(#e)" opacity=".3" r="1.3453" transform="matrix(.90032 0 0 .96771 -1.3199 -.58977)"/><circle cx="-13.241" cy="-21.016" fill="url(#c)" r="1.3453"/><circle cx="-9.7149" cy="-22.373" filter="url(#e)" opacity=".3" r="1.3453" transform="matrix(.87047 0 0 .9668 -1.2584 -.64132)"/><circle cx="-9.7149" cy="-22.373" fill="url(#d)" r="1.3453"/><circle cx="-9.4232" cy="-17.084" fill="#f0f0f0" r=".97748"/></g><g transform="matrix(1.0421 0 0 1.0421 -.4498481 26.673)"><g filter="url(#h)" opacity=".3"><path d="m11.824-18.763s-.90954-1.5501-.94759-1.6706-.01902-.43125.1522-.53272c.17123-.10147.23465-.10147.30441-.10147h2.5558s.22831 0 .31075.0761.28538.29173.18391.51369-.95762 1.7123-.95762 1.7123z"/><path d="m11.824-18.763h1.5987v.95489h-1.5987z" opacity="1"/><path d="m11.824-17.808.29868 6.9633v.0015a.50561.50561 0 0 0 -.0026.04909.50561.50561 0 0 0 .50539.5059.50561.50561 0 0 0 .49815-.42064h.0047l.29455-7.0992z" opacity="1"/></g><g><path d="m11.824-18.763s-.90954-1.5501-.94759-1.6706-.01902-.43125.1522-.53272c.17123-.10147.23465-.10147.30441-.10147h2.5558s.22831 0 .31075.0761.28538.29173.18391.51369-.95762 1.7123-.95762 1.7123z" fill="#f0f0f0"/><path d="m11.824-18.763h1.5987v.95489h-1.5987z" fill="url(#f)"/><path d="m11.824-17.808.29868 6.9633v.0015a.50561.50561 0 0 0 -.0026.04909.50561.50561 0 0 0 .50539.5059.50561.50561 0 0 0 .49815-.42064h.0047l.29455-7.0992z" fill="url(#g)"/></g></g></svg>