<svg height="64" width="64" xmlns="http://www.w3.org/2000/svg"><path d="m51.960274 31.828a20 20 0 0 1 -19.958 19.172 20 20 0 0 1 -19.957-18.828 20 20 0 0 0 -.043.828 20 20 0 0 0 20 20 20 20 0 0 0 20-20 20 20 0 0 0 -.042-1.172z" opacity=".2"/><circle cx="32.002" cy="32" fill="#b28a63" r="20"/><path d="m15.467074 17.172521a23.456 8.8122 29.496 0 0 -3.1172 1.9572 23.456 8.8122 29.496 0 0 -.3476 2.956 23.456 8.8122 29.496 0 1 .3476-.958 23.456 8.8122 29.496 0 1 5.5196-2.2374c.3828-.3836.7748-.758 1.1874-1.1094a29.318 10.281 29.547 0 0 -3.5898-.6094zm-9.3554002 3.4572a29.318 10.281 29.547 0 0 20.7020002 22.244 29.318 10.281 29.547 0 0 30.672 5.628 29.318 10.281 29.547 0 0 .402-3.098 29.318 10.281 29.547 0 1 -.402 1.098 29.318 10.281 29.547 0 1 -30.672-5.628 29.318 10.281 29.547 0 1 -20.7020002-20.244zm45.6480002 15.3052c-.064.428-.12.86-.212 1.28a23.456 8.8122 29.496 0 1 1.918 4.168 23.456 8.8122 29.496 0 0 -1.05-4.758 29.318 10.281 29.547 0 0 -.656-.69z" opacity=".2"/><path d="m13.256274 16.004a29.318 10.281 29.547 0 0 -6.7306002 2.492 29.318 10.281 29.547 0 0 20.2880002 23.38 29.318 10.281 29.547 0 0 30.672 5.628 29.318 10.281 29.547 0 0 -5.726-12.566c-.064.428-.12.86-.212 1.28a23.456 8.8122 29.496 0 1 1.582 7.098 23.456 8.8122 29.496 0 1 -24.838-3.98 23.456 8.8122 29.496 0 1 -15.9424-19.204 23.456 8.8122 29.496 0 1 5.5196-2.2374c.3828-.3836.7748-.758 1.1874-1.1094a29.318 10.281 29.547 0 0 -5.8006-.7812z" fill="#fede7b"/><g fill="#fff"><path d="m32.001953 12a20 20 0 0 0 -20 20 20 20 0 0 0 .017578.494141 20 20 0 0 1 19.982422-19.494141 20 20 0 0 1 19.974609 19.501953 20 20 0 0 0 .025391-.501953 20 20 0 0 0 -20-20z" opacity=".1"/><path d="m13.256274 16.004a29.318 10.281 29.547 0 0 -6.7306002 2.492 29.318 10.281 29.547 0 0 -.414 3.136 29.318 10.281 29.547 0 1 .414-1.136 29.318 10.281 29.547 0 1 6.7306002-2.492 29.318 10.281 29.547 0 1 2.2186.1756 23.456 8.8122 29.496 0 1 2.3946-.285c.3828-.3836.7748-.758 1.1874-1.1094a29.318 10.281 29.547 0 0 -5.8006-.7812zm-1.258 7.086a23.456 8.8122 29.496 0 0 16.294 18.246 23.456 8.8122 29.496 0 0 24.838 3.98 23.456 8.8122 29.496 0 0 .336-2.93 23.456 8.8122 29.496 0 1 -.336.93 23.456 8.8122 29.496 0 1 -24.838-3.98 23.456 8.8122 29.496 0 1 -16.294-16.246zm39.762 11.848c-.064.428-.12.86-.212 1.28a23.456 8.8122 29.496 0 1 .864 1.406 29.318 10.281 29.547 0 1 5.476 8.782 29.318 10.281 29.547 0 0 -6.128-11.468z" opacity=".1"/></g></svg>