<svg height="64" width="64" xmlns="http://www.w3.org/2000/svg"><path d="m4 50.002v2c0 1.662 1.338 3 3 3h50c1.662 0 3-1.338 3-3v-2c0 1.662-1.338 3-3 3h-50c-1.662 0-3-1.338-3-3z" opacity=".2"/><rect fill="#5f7c8a" height="56" rx="3" transform="matrix(0 -1 -1 0 0 0)" width="44" x="-54" y="-60"/><path d="m-50-56h36v48h-36z" fill="#7f96a1" transform="matrix(0 -1 -1 0 0 0)"/><path d="m7 10.001953c-1.662 0-3 1.338-3 3v.998047c0-1.662 1.338-3 3-3h50c1.662 0 3 1.338 3 3v-.998047c0-1.662-1.338-3-3-3z" fill="#fff" opacity=".1"/><path d="m63.958 45.852a16 16 0 0 1 -15.958 15.152 16 16 0 0 1 -15.958-14.848 16 16 0 0 0 -.042.844 16 16 0 0 0 16 16 16 16 0 0 0 16-16 16 16 0 0 0 -.04296-1.14844z" opacity=".2"/><circle cx="48" cy="46.002" fill="#48cd42" fill-rule="evenodd" r="16"/><g fill="#fff"><path d="m40 38.004h1.34374c8.1 0 14.66 6.556 14.66 14.656v1.344h-1.64349c-.72872 0-1.3125-.61022-1.3125-1.34376 0-6.6274-5.07287-11.70024-11.70027-11.70024-.72 0-1.34-.578-1.34-1.312v-1.64376z"/><path d="m40 43.004139h1.387101c5.320932 0 9.612899 4.291967 9.612899 9.6129v1.387121h-1.55438c-.743233 0-1.38324-.629684-1.38324-1.387369 0-3.800814-2.877011-6.671107-6.67576-6.671107-.743234 0-1.383425-.629683-1.383241-1.387368l.000378-1.554528z"/><path d="m42.483521 48.996629c1.378988 0 2.516479 1.137397 2.516479 2.51648 0 1.378277-1.142322 2.486891-2.509363 2.486891-1.385768 0-2.490637-1.108614-2.490637-2.486891 0-1.378989 1.108127-2.51648 2.487079-2.51648z"/></g></svg>