<svg height="64" width="64" xmlns="http://www.w3.org/2000/svg" xmlns:xlink="http://www.w3.org/1999/xlink"><linearGradient id="a" gradientTransform="matrix(1.83584 0 0 2 -10.03 -16)" gradientUnits="userSpaceOnUse" x2="0" y1="24" y2="19"><stop offset="0" stop-color="#484848"/><stop offset=".494" stop-color="#505050"/><stop offset="1" stop-color="#484848"/></linearGradient><path d="m4 56v2c0 1.662 1.338 3 3 3h50c1.662 0 3-1.338 3-3v-2c0 1.662-1.338 3-3 3h-50c-1.662 0-3-1.338-3-3z" opacity=".2"/><rect fill="#ccc" height="56" rx="3" transform="matrix(0 -1 -1 0 0 0)" width="56" x="-60" y="-60"/><path d="m7 4c-1.662 0-3 1.338-3 3v1c0-1.662 1.338-3 3-3h50c1.662 0 3 1.338 3 3v-1c0-1.662-1.338-3-3-3z" fill="#fff" opacity=".1"/><path d="m12.9786 22c-.5416 0-.9786.446-.9786 1v8c0 .554.437 1 .9786 1h32.066c1.9515 0 3.5212-1.544 3.646-3.504a1.37688 1.5 0 0 0 1.31-1.496 1.37688 1.5 0 0 0 -1.308-1.496c-.126-1.96-1.696-3.504-3.646-3.504z" fill="url(#a)" fill-rule="evenodd"/><path d="m24 32v4h20l8 8v-2l-8-10z" fill="#8d6a3e"/><path d="m28 31a7 7 0 0 0 -7 7 7 7 0 0 0 7 7 7 7 0 0 0 7-7 7 7 0 0 0 -7-7zm1 2.101562a5 5 0 0 1 1.775391.744141l-1.775391 1.775391zm-2 .0039v2.515625l-1.775391-1.775391a5 5 0 0 1 1.775391-.740234zm5.183594 2.160156a5 5 0 0 1 .71875 1.769531h-2.488282zm-8.365235.002 1.767579 1.767578h-2.490235a5 5 0 0 1 .722656-1.767578zm-.705078 3.767578h2.472657l-1.740235 1.740235a5 5 0 0 1 -.732422-1.740235zm7.300781 0h2.476563a5 5 0 0 1 -.736328 1.740195l-1.740235-1.740235zm-3.414062 1.414063v2.449219a5 5 0 0 1 -1.732422-.716837l1.732422-1.732422zm2 0 1.734375 1.734375a5 5 0 0 1 -1.734375.710937z" fill="#b58a55"/><circle cx="14" cy="51" fill="#8d6a3e" r="0"/></svg>