<svg height="64" width="64" xmlns="http://www.w3.org/2000/svg"><path d="m12 16.001286c0 1.984631.546716 5.999914.546716 5.999914h-4.3475376c-2.3267668 0-4.19914 1.871973-4.19914 4.19994v17.698947c0 2.325967 1.8723732 4.099941 4.19914 4.099941h8.8006746c1.969851 0 2.999957-1.999971 2.999957-1.999971 4.775731 3.998943 11.733432 3.999943 16.898158 3.999943 10.49985 0 23.10167-.399995 23.10167-33.999514zm-1.414194 9.999857h2.09757c.823988 8.292481 2.661562 13.899001 5.093727 17.671547-.349395.203997-.740789.327995-1.160183.327995h-6.031114c-1.4319793 0-2.5859628-1.33798-2.5859628-2.999957v-11.999828c0-1.661976 1.1539835-2.999957 2.5859628-2.999957z" opacity=".2"/><path d="m12 15.000515c0 1.984631.546716 5.999914.546716 5.999914h-4.3475376c-2.3267668 0-4.19914 1.871973-4.19914 4.19994v17.698947c0 2.325967 1.8723732 4.099941 4.19914 4.099941h8.8006746c1.969851 0 2.999957-1.999971 2.999957-1.999971 4.775731 3.998943 11.733432 3.999943 16.898158 3.999943 10.49985 0 23.10167-.399995 23.10167-33.999514zm-1.414194 9.999857h2.09757c.823988 8.292481 2.661562 13.899001 5.093727 17.671547-.349395.203997-.740789.327995-1.160183.327995h-6.031114c-1.4319793 0-2.5859628-1.33798-2.5859628-2.999957v-11.999828c0-1.661976 1.1539835-2.999957 2.5859628-2.999957z" fill="#bda461"/><path d="m12 15c0 .280014.03013.658072.04883 1.001953l47.939451-.001953c.002626-.337024.011719-.656053.011719-1zm-3.8007812 6c-2.3267668 0-4.1992188 1.873205-4.1992188 4.201172v1c0-2.327967 1.872452-4.199219 4.1992188-4.199219h4.3476562s-.07915-.67214-.121094-1.001953zm-.1992188 19v1c0 1.661977 1.1539582 3 2.585938 3h6.03125c.419394 0 .810761-.124128 1.160156-.328125-.161334-.250245-.312772-.530242-.46875-.796875-.220803.074217-.449236.125-.691406.125h-6.03125c-1.4319798 0-2.585938-1.338023-2.585938-3z" fill="#fff" opacity=".2"/><path d="m43.398804 21.000085s-1.810046 1.756106-3.767571 2.464181c-14.496487 5.243359-8.382734 15.46148-8.183336 15.495079 0 0 .812894-1.415609 1.910985-2.222982 6.968146-5.122561 8.384335-11.018915 8.384335-11.018915s-1.563628 7.095145-7.76274 11.509911c-1.369169.974572-2.296182 3.374175-2.688779 5.772555 0 0 .970533-.392117 1.387869-.498336.162739-1.062032.502996-2.078984 1.078272-2.987377 8.664132 1.031552 11.50171-5.949754 11.872307-8.384135.875994-5.749955-2.231982-10.129921-2.231982-10.129921z" fill="#5b6d40"/></svg>