<svg height="64" width="64" xmlns="http://www.w3.org/2000/svg"><path d="m22.88626 5.0015988c-1.199966 0-2.733922 1.2669638-2.885917 2.8241194v21.1753958h-11.9996578l23.9993148 23.999314 23.999315-23.999314h-11.999658v-21.1753958c0-1.5639554-1.685951-2.8239194-2.885917-2.8239194h-18.22748zm-16.0847406 49.9985722c-1.5511557 0-2.80072 1.337962-2.80072 2.999915 0 1.661952 1.2495643 2.999914 2.80072 2.999914h50.3985616c1.549955 0 2.79992-1.337962 2.79992-2.999914 0-1.661953-1.249965-2.999915-2.79992-2.999915z" opacity=".2"/><path d="m22.88626 4.0016559c-1.199966 0-2.733922 1.2669638-2.885917 2.8241194v21.1753957h-11.9996578l23.9993148 23.999314 23.999315-23.999314h-11.999658v-21.1753957c0-1.5639554-1.685951-2.8239194-2.885917-2.8239194h-18.22748zm-16.0847406 49.9985721c-1.5511557 0-2.80072 1.337962-2.80072 2.999915 0 1.661952 1.2495643 2.999914 2.80072 2.999914h50.3985616c1.549955 0 2.79992-1.337962 2.79992-2.999914 0-1.661953-1.249965-2.999915-2.79992-2.999915z" fill="#5298df"/><path d="m22.886719 4.0019531c-1.199966 0-2.734724 1.2670632-2.886719 2.8242188v1c.151995-1.5571556 1.686753-2.8242188 2.886719-2.8242188h18.226562c1.199966 0 2.886719 1.2600634 2.886719 2.8242188v-1c0-1.5641554-1.686753-2.8242188-2.886719-2.8242188zm-14.886719 23.9980469 1 1h11v-1zm36 0v1h11l1-1zm-37.1992188 26c-1.5511558 0-2.8007812 1.338047-2.8007812 3 0 .174335.0177363.343671.046875.507812.2193755-1.424481 1.3603926-2.507812 2.7539062-2.507812h25.1992188 25.199219c1.392435 0 2.534476 1.083331 2.753906 2.507812.029163-.164141.046875-.333477.046875-.507812 0-1.661953-1.250826-3-2.800781-3h-25.199219z" fill="#fff" opacity=".2"/></svg>