<svg height="64" width="64" xmlns="http://www.w3.org/2000/svg"><path d="m57 54.333456v-42.667651c0-1.476531-1.114816-2.665805-2.5-2.665805h-45.0000001c-1.385 0-2.5 1.189274-2.5 2.666544v42.66765c0 1.476901 1.115 2.665806 2.5 2.665806h45.0000001c1.385184 0 2.5-1.188905 2.5-2.665806z" opacity=".2"/><path d="m57 53.333456v-42.667651c0-1.476531-1.114816-2.665805-2.5-2.665805h-45.0000001c-1.385 0-2.5 1.189274-2.5 2.666544v42.66765c0 1.476901 1.115 2.665806 2.5 2.665806h45.0000001c1.385184 0 2.5-1.188905 2.5-2.665806z" fill="#4f4f4f"/><rect fill="#010101" height="41" opacity=".2" ry="1.952" width="6" x="11" y="13"/><rect fill="#da6156" height="41" ry="1.952" width="6" x="11" y="12"/><rect fill="#010101" height="41" opacity=".2" ry="1.952" width="6" x="17" y="13"/><rect fill="#eb8644" height="41" ry="1.952" width="6" x="17" y="12"/><rect fill="#010101" height="41" opacity=".2" ry="1.952" width="6" x="23" y="13"/><rect fill="#ecb554" height="41" ry="1.952" width="6" x="23" y="12"/><rect fill="#010101" height="41" opacity=".2" ry="1.952" width="6" x="29" y="13"/><rect fill="#40a95d" height="41" ry="1.952" width="6" x="29" y="12"/><rect fill="#010101" height="41" opacity=".2" ry="1.952" width="6" x="35" y="13"/><rect fill="#4cb094" height="41" ry="1.952" width="6" x="35" y="12"/><rect fill="#010101" height="41" opacity=".2" ry="1.952" width="6" x="41" y="13"/><rect fill="#476eb9" height="41" ry="1.952" width="6" x="41" y="12"/><rect fill="#010101" height="41" opacity=".2" ry="1.952" width="6" x="47" y="13"/><rect fill="#a860a2" height="41" ry="1.952" width="6" x="47" y="12"/><path d="m15 33.570312v1c0 .79199.443796 1.429688.992188 1.429688h2.019531c.548392 0 .988281-.637698.988281-1.429688v-1c0 .79199-.439889 1.429688-.988281 1.429688h-2.019531c-.548392 0-.992188-.637698-.992188-1.429688zm6 0v1c0 .79199.440289 1.429688.988281 1.429688h2.023438c.547992 0 .988281-.637698.988281-1.429688v-1c0 .79199-.440289 1.429688-.988281 1.429688h-2.023438c-.547992 0-.988281-.637698-.988281-1.429688zm12 0v1c0 .79199.440289 1.429688.988281 1.429688h2.023438c.547992 0 .988281-.637698.988281-1.429688v-1c0 .79199-.440289 1.429688-.988281 1.429688h-2.023438c-.547992 0-.988281-.637698-.988281-1.429688zm6 0v1c0 .79199.440289 1.429688.988281 1.429688h2.023438c.547992 0 .988281-.637698.988281-1.429688v-1c0 .79199-.440289 1.429688-.988281 1.429688h-2.023438c-.547992 0-.988281-.637698-.988281-1.429688zm6 0v1c0 .79199.440289 1.429688.988281 1.429688h2.023438c.547992 0 .988281-.637698.988281-1.429688v-1c0 .79199-.440289 1.429688-.988281 1.429688h-2.023438c-.547992 0-.988281-.637698-.988281-1.429688z" opacity=".2"/><path d="m15.992837 10.00074c-.548392 0-.992185.637391-.992185 1.429579v22.139691c0 .791989.443793 1.429979.992185 1.429979h2.01957c.548392 0 .988185-.63799.988185-1.429979v-22.139691c0-.792588-.439793-1.429979-.988185-1.429979h-2.01957zm5.995711 0c-.547992 0-.987985.637391-.987985 1.429579v22.139691c0 .791989.439993 1.429979.987985 1.429979h2.02337c.547992 0 .987986-.63799.987986-1.429979v-22.139691c0-.792588-.439994-1.429979-.987986-1.429979h-2.02337zm11.999823 0c-.547992 0-.987986.637391-.987986 1.429579v22.139691c0 .791989.439994 1.429979.987986 1.429979h2.02337c.547992 0 .987985-.63799.987985-1.429979v-22.139691c0-.792588-.439993-1.429979-.987985-1.429979h-2.02337zm5.999911 0c-.547992 0-.987986.637391-.987986 1.429579v22.139691c0 .791989.439994 1.429979.987986 1.429979h2.02337c.547992 0 .987985-.63799.987985-1.429979v-22.139691c0-.792588-.439993-1.429979-.987985-1.429979h-2.02337zm5.999911 0c-.547992 0-.987985.637391-.987985 1.429579v22.139691c0 .791989.439993 1.429979.987985 1.429979h2.02337c.547992 0 .987985-.63799.987985-1.429979v-22.139691c0-.792588-.439993-1.429979-.987985-1.429979h-2.02337z" fill="#4f4f4f"/><g fill="#fff"><path d="m15.992188 10c-.548392 0-.992188.637499-.992188 1.429688v1c0-.792189.443796-1.429688.992188-1.429688h2.019531c.548392 0 .988281.6375.988281 1.429688v-1c0-.792188-.439889-1.429688-.988281-1.429688zm5.996093 0c-.547992 0-.988281.637499-.988281 1.429688v1c0-.792189.440289-1.429688.988281-1.429688h2.023438c.547992 0 .988281.6375.988281 1.429688v-1c0-.792188-.440289-1.429688-.988281-1.429688zm12 0c-.547992 0-.988281.637499-.988281 1.429688v1c0-.792189.440289-1.429688.988281-1.429688h2.023438c.547992 0 .988281.6375.988281 1.429688v-1c0-.792188-.440289-1.429688-.988281-1.429688zm6 0c-.547992 0-.988281.637499-.988281 1.429688v1c0-.792189.440289-1.429688.988281-1.429688h2.023438c.547992 0 .988281.6375.988281 1.429688v-1c0-.792188-.440289-1.429688-.988281-1.429688zm6 0c-.547992 0-.988281.637499-.988281 1.429688v1c0-.792189.440289-1.429688.988281-1.429688h2.023438c.547992 0 .988281.6375.988281 1.429688v-1c0-.792188-.440289-1.429688-.988281-1.429688z" opacity=".1"/><path d="m9.5 8c-1.385 0-2.5 1.1887456-2.5 2.666016v1c0-1.47727 1.115-2.666016 2.5-2.666016h45c1.385184 0 2.5 1.189485 2.5 2.666016v-1c0-1.4765314-1.114816-2.666016-2.5-2.666016z" opacity=".1"/></g></svg>