<svg height="64" width="64" xmlns="http://www.w3.org/2000/svg" xmlns:xlink="http://www.w3.org/1999/xlink"><clipPath id="a"><circle cx="286" cy="26" r="10"/></clipPath><path d="m59.958 31.828a28 28 0 0 1 -27.958 27.172 28 28 0 0 1 -27.956-26.828 28 28 0 0 0 -.044.828 28 28 0 0 0 28 28 28 28 0 0 0 28-28 28 28 0 0 0 -.042-1.172z" opacity=".2"/><circle cx="32" cy="32" fill="#736dab" r="28"/><circle clip-path="url(#a)" cx="286" cy="26" opacity="0" r="10" stroke-width=".455" transform="matrix(2.8 0 0 2.8 -768.8 -40.8)"/><circle clip-path="url(#a)" cx="286" cy="26" opacity="0" r="10" stroke-width=".909" transform="matrix(2.8 0 0 2.8 -768.8 -40.8)"/><path d="m60 32c0 15.464-12.536 28-28 28v-56c15.464 0 28 12.536 28 28z" fill="#ffba58"/><circle cx="32" cy="33" opacity=".2" r="20"/><circle cx="32" cy="32" fill="#fff" r="20"/><path d="m26 20v14.102a5 5 0 0 0 -1-.102 5 5 0 0 0 -5 5 5 5 0 0 0 5 5 5 5 0 0 0 5-5v-15h8v6.102a5 5 0 0 0 -1-.102 5 5 0 0 0 -5 5 5 5 0 0 0 5 5 5 5 0 0 0 5-5v-15z" opacity=".8"/><path d="m31.998047 4a28 28 0 0 0 -27.998047 28 28 28 0 0 0 .0175781.492188 28 28 0 0 1 27.9804689-27.492188h.001953a28 28 0 0 1 27.972656 27.5 28 28 0 0 0 .025391-.5 28 28 0 0 0 -27.998047-28z" fill="#fff" opacity=".2"/></svg>