<svg height="64" width="64" xmlns="http://www.w3.org/2000/svg"><path d="m4.0507982 32.000818c-.0118.33399-.050799.661981-.050799.999972.0000004 15.511562 12.4876478 27.99921 27.9992108 27.99921s27.99921-12.487648 27.99921-27.99921c0-.337671-.03904-.665262-.05078-.999972-.527985 15.041576-12.77564 26.999238-27.949212 26.999238-15.173972 0-27.4212267-11.957662-27.9492118-26.999238z" opacity=".2"/><rect fill="#9748de" height="55.998" rx="27.999" transform="matrix(0 -1 -1 0 0 0)" width="55.998" x="-60" y="-60"/><path d="m32 4.0019531c-15.511563 0-28 12.4864839-28 27.9980469 0 .113445.0112809.224116.0175781.335938.3515333-15.201329 12.6935799-27.335938 27.9824219-27.335938s27.630889 12.134609 27.982422 27.335938c.006271-.111822.017578-.222493.017578-.335938 0-15.511563-12.488437-27.9980469-28-27.9980469z" fill="#fff" opacity=".2"/><path d="m31.99921 13.001354c-11.045402 0-19.999436 8.954033-19.999436 19.999436 0 11.045402 8.954034 19.999436 19.999436 19.999436 11.045403 0 19.999436-8.954034 19.999436-19.999436 0-11.045403-8.954033-19.999436-19.999436-19.999436zm-1.871041 3.988169c.217606-.02278.491358.013.710918 0 .02602.104077-.154156.477494-.402333 1.019501-1.580387 3.452479-1.673753 7.494845-.207026 9.655978.265424.391827.5078.764019.5078.812477 0 .04848-.285708.101557-.609359.101557-.759779.000002-1.480088-.461669-2.949135-1.624954-.652606-.516765-1.499382-.949897-1.828074-1.015595-.516148-.103117-.65255-.05844-1.320275.609359-.621253.62115-.812477.958653-.812477 1.527299 0 2.156385 2.561581 3.86618 7.320105 4.874862 6.462266 1.369637 8.051983 2.597833 8.230238 5.995925.2238 4.261114-2.042602 7.473271-7.011522 9.960657-.593075.296976-.969881.415746-1.218716.511704-.110277-.0098-.198654.0098-.308585 0-.04228-.131737-.101557-.436476-.101557-1.015596 0-2.263206-.890111-4.595542-2.234311-5.898271-.360824-.349737-1.369144-1.089388-2.234313-1.624955-.865138-.535534-1.739025-1.156409-1.93354-1.421833-.322273-.440456-.345322-.709716-.09766-1.523396.451347-1.486086.986796-2.318742 2.031193-3.25772.547536-.492268 1.097419-.900332 1.218715-.910132.121337-.0098-.69814-.259779-1.929633-.511704-1.231431-.252412-3.037278-.780072-3.968638-1.117156-1.703081-.616233-4.00215-1.9113-4.878767-2.847574-.03706-.0397-.06936-.06642-.101559-.101557 1.255988-5.003071 4.780267-9.101759 9.452858-11.077812.977682-.413524 1.986784-.696426 3.050696-.914038.529939-.108317 1.077773-.151396 1.624954-.207026zm15.24957 7.624785c.382039.236149 1.826446 3.360381 2.238219 4.882674.531623 1.965287.493144 5.363893 0 7.3162-.187695.743059-.431688 1.436878-.511706 1.523395-.08002.08652-.373471-.406776-.714824-1.011691-.341374-.604821-1.425778-1.891427-2.331964-2.847576-2.615676-2.760066-3.029199-4.199394-1.93354-6.402163.552549-1.110785 2.958139-3.643314 3.253815-3.460839z" opacity=".2"/><path d="m31.99921 12.00141c-11.045402 0-19.999436 8.954033-19.999436 19.999436s8.954034 19.999436 19.999436 19.999436c11.045403 0 19.999436-8.954033 19.999436-19.999436s-8.954033-19.999436-19.999436-19.999436zm-1.871041 3.988169c.217606-.02278.491358.013.710918 0 .02602.104077-.154156.477495-.402333 1.019501-1.580387 3.452479-1.673753 7.494845-.207026 9.655978.265424.391827.5078.764019.5078.812478 0 .04848-.285708.101557-.609359.101557-.759779.000002-1.480088-.461669-2.949135-1.624954-.652606-.516766-1.499382-.949898-1.828074-1.015596-.516148-.103117-.65255-.05844-1.320275.609359-.621253.62115-.812477.958653-.812477 1.527299 0 2.156385 2.561581 3.866181 7.320105 4.874862 6.462266 1.369638 8.051983 2.597833 8.230238 5.995925.2238 4.261114-2.042602 7.473272-7.011522 9.960657-.593075.296976-.969881.415747-1.218716.511704-.110277-.0098-.198654.0098-.308585 0-.04228-.131736-.101557-.436476-.101557-1.015595 0-2.263207-.890111-4.595543-2.234311-5.898272-.360824-.349736-1.369144-1.089387-2.234313-1.624954-.865138-.535535-1.739025-1.15641-1.93354-1.421834-.322273-.440456-.345322-.709716-.09766-1.523395.451347-1.486086.986796-2.318743 2.031193-3.25772.547536-.492268 1.097419-.900333 1.218715-.910133.121337-.0098-.69814-.259778-1.929633-.511703-1.231431-.252413-3.037278-.780072-3.968638-1.117157-1.703081-.616232-4.00215-1.9113-4.878767-2.847573-.03706-.0397-.06936-.06642-.101559-.101557 1.255988-5.003071 4.780267-9.10176 9.452858-11.077812.977682-.413525 1.986784-.696427 3.050696-.914039.529939-.108317 1.077773-.151395 1.624954-.207026zm15.24957 7.624786c.382039.236149 1.826446 3.360381 2.238219 4.882674.531623 1.965286.493144 5.363893 0 7.316199-.187695.74306-.431688 1.436878-.511706 1.523396-.08002.08652-.373471-.406777-.714824-1.011692-.341374-.604821-1.425778-1.891427-2.331964-2.847576-2.615676-2.760066-3.029199-4.199393-1.93354-6.402163.552549-1.110785 2.958139-3.643313 3.253815-3.460838z" fill="#a0ff50"/></svg>