<svg enable-background="new 0 0 1024 1024" height="64" image-rendering="optimizeSpeed" viewBox="0 0 64 64" width="64" xmlns="http://www.w3.org/2000/svg" xmlns:xlink="http://www.w3.org/1999/xlink"><linearGradient id="a" gradientTransform="matrix(0 32.792 -32.792 0 38.638 16.028)" gradientUnits="userSpaceOnUse" x2="1"><stop offset="0" stop-color="#7814aa"/><stop offset=".7" stop-color="#ff5a46" stop-opacity=".88235"/><stop offset="1" stop-color="#ff5a46"/></linearGradient><linearGradient id="b" gradientTransform="matrix(0 37.076 -37.076 0 29.033 13.843)" gradientUnits="userSpaceOnUse" x2="1"><stop offset="0" stop-color="#ff5a46"/><stop offset=".3" stop-color="#ff5a46" stop-opacity=".88235"/><stop offset="1" stop-color="#7814aa"/></linearGradient><filter id="c" color-interpolation-filters="sRGB" height="1.072" width="1.072" x="-.036" y="-.036"><feGaussianBlur stdDeviation="9"/></filter><g transform="matrix(1.463 0 0 1.463 -15.503 -15.888)"><g fill="#010101" filter="url(#c)" opacity=".2" stroke-width="93.632" transform="matrix(.063762 0 0 .063762 -.60663 .022426)"><path d="m518.75 213.01c-165.67 0-300 134.33-300 300 0 160.9 126.69 292.18 285.73 299.64 4.7761.23881 9.4925.35821 14.269.35821 76.836 0 146.87-28.896 199.94-76.358-35.164 23.343-76.299 36.716-120.24 36.716-71.463 0-135.4-35.463-178.45-91.343-33.194-39.164-54.627-97.015-56.119-161.97v-14.149c1.4925-64.955 22.925-122.87 56.119-161.97 43.045-55.881 107.04-91.343 178.45-91.343 43.94 0 85.075 13.433 120.24 36.776-52.776-47.224-122.45-76.06-198.81-76.358h-1.1343z"/><path d="m420 343.94c27.522-32.478 63.104-52.119 101.91-52.119 87.343 0 158.15 99.045 158.15 221.13 0 122.15-70.806 221.13-158.15 221.13-38.866 0-74.388-19.582-101.91-52.06 43.045 55.881 106.99 91.343 178.45 91.343 43.94 0 85.075-13.433 120.24-36.716 61.433-54.925 100.06-134.75 100.06-223.64 0-88.836-38.627-168.72-100.06-223.64-35.164-23.343-76.299-36.716-120.24-36.716-71.463 0-135.4 35.463-178.45 91.343"/></g><g stroke-width="5.9702"><path d="m32.223 13.218c-10.563 0-19.129 8.5652-19.129 19.129 0 10.259 8.078 18.63 18.219 19.106.30453.01523.60526.02284.90982.02284 4.8992 0 9.3647-1.8425 12.749-4.8687-2.2421 1.4884-4.865 2.3411-7.6667 2.3411-4.5566 0-8.6334-2.2612-11.378-5.8242-2.1165-2.4972-3.4831-6.1859-3.5783-10.328v-.90217c.09517-4.1417 1.4617-7.8344 3.5783-10.328 2.7446-3.5631 6.8251-5.8242 11.378-5.8242 2.8017 0 5.4246.85651 7.6667 2.3449-3.3651-3.0111-7.8077-4.8497-12.677-4.8687h-.07232z" fill="url(#b)"/><path d="m25.926 21.567c1.7549-2.0709 4.0236-3.3232 6.498-3.3232 5.5692 0 10.084 6.3153 10.084 14.1 0 7.7885-4.5147 14.1-10.084 14.1-2.4782 0-4.7431-1.2486-6.498-3.3194 2.7446 3.5631 6.8219 5.8242 11.378 5.8242 2.8017 0 5.4246-.85652 7.6667-2.3411 3.9171-3.5021 6.38-8.5919 6.38-14.26 0-5.6644-2.4629-10.758-6.38-14.26-2.2421-1.4884-4.865-2.3411-7.6667-2.3411-4.5566 0-8.6334 2.2612-11.378 5.8242" fill="url(#a)"/></g></g><g fill="#5e4aa6" image-rendering="optimizeSpeed" stroke-width="1.000006568"><g><circle cx="-1135.31086" cy="-1284.127048" r="0"/><circle cx="-1066.370956" cy="-1276.0765" r="0"/><circle cx="-1043.353192" cy="-1301.853372" r="0"/><circle cx="-1054.011664" cy="-1275.169396" r="0"/></g><g><circle cx="-1135.31086" cy="-1284.127048" r="0"/><circle cx="-1066.370956" cy="-1276.0765" r="0"/><circle cx="-1043.353192" cy="-1301.853372" r="0"/><circle cx="-1054.011664" cy="-1275.169396" r="0"/></g></g></svg>