<svg height="64" viewBox="0 0 64 64" width="64" xmlns="http://www.w3.org/2000/svg"><circle cx="32" cy="32" fill="#ccc" r="28"/><path d="m38 22-14 7.2v29.62a28 28 0 0 0 8 1.18 28 28 0 0 0 20-8.442v-22.358z" fill="#4e4e4e" fill-rule="evenodd"/><path d="m38 24-12 6.602v28.726a28 28 0 0 0 6 .672 28 28 0 0 0 18-6.59v-22.808z" fill="#fea332" fill-rule="evenodd"/><path d="m42 30a4 2 0 0 1 -2 1.73204 4 2 0 0 1 -4 0 4 2 0 0 1 -2-1.732" fill="#4e4e4e"/><path d="m31.999023 4a28.000977 28 0 0 0 -27.999023 28 28.000977 28 0 0 0 .0175787.492188 28.000977 28 0 0 1 27.9814443-27.492188h.002a28.000977 28 0 0 1 27.973585 27.5 28.000977 28 0 0 0 .025392-.5 28.000977 28 0 0 0 -27.999023-28h-.002z" fill="#fff" opacity=".2"/><path d="m59.957031 32.828125a28 28 0 0 1 -27.957031 27.171875 28 28 0 0 1 -27.9550781-26.828125 28 28 0 0 0 -.0449219.828125 28 28 0 0 0 .0253906.519531 28 28 0 0 1 .0195313-.347656 28 28 0 0 0 27.9550781 26.828125 28 28 0 0 0 27.957031-27.171875 28 28 0 0 1 .025391.679687 28 28 0 0 0 .017578-.507812 28 28 0 0 0 -.042969-1.171875z" opacity=".2"/></svg>