<svg height="64" width="64" xmlns="http://www.w3.org/2000/svg"><rect fill="#4ab3e4" height="56" rx="2.572" ry="3" transform="matrix(0 -1 -1 0 0 0)" width="48" x="-53" y="-60"/><path d="m4 50.429688v1c0 1.42399 1.3380113 2.570312 3 2.570312h50c1.661988 0 3-1.145663 3-2.570312v-1c0 1.42465-1.338012 2.570312-3 2.570312h-50c-1.6619887 0-3-1.146322-3-2.570312z" opacity=".2"/><path d="m7 5c-1.6619887 0-3 1.1380298-3 2.5625v1c0-1.4244702 1.3380113-2.5625 3-2.5625h50c1.661988 0 3 1.1381098 3 2.5625v-1c0-1.4243902-1.338012-2.5625-3-2.5625z" fill="#fff" opacity=".2"/><path d="m.69922 7c-.3878 0-.69922.2967-.69922.666v8.668c0 .369.31142.666.69922.666h12.602c.388 0 .699-.297.699-.666v-8.668c0-.3693-.311-.666-.699-.666zm18 0c-.388 0-.699.2967-.699.666v8.668c0 .369.311.666.699.666h12.602c.388 0 .699-.297.699-.666v-8.668c0-.3693-.311-.666-.699-.666zm-8.9998 14c-.3878 0-.6992.297-.6992.666v8.668c0 .369.3114.666.6992.666h12.602c.388 0 .699-.297.699-.666v-8.668c0-.369-.311-.666-.699-.666z" fill="#f5f5f5" transform="matrix(1.9999863 0 0 1.9999863 -.000001 -2.9995613)"/><path d="m0 29.667969v1c0 .737995.62284284 1.332031 1.3984375 1.332031h25.2031245c.775996 0 1.398438-.594036 1.398438-1.332031v-1c0 .737995-.622442 1.332031-1.398438 1.332031h-25.2031245c-.77559466 0-1.3984375-.594036-1.3984375-1.332031zm36 0v1c0 .737995.622442 1.332031 1.398438 1.332031h25.203124c.775996 0 1.398438-.594036 1.398438-1.332031v-1c0 .737995-.622442 1.332031-1.398438 1.332031h-25.203124c-.775996 0-1.398438-.594036-1.398438-1.332031zm-18 28v1c0 .737995.622844 1.332031 1.398438 1.332031h25.203124c.775994 0 1.398438-.594036 1.398438-1.332031v-1c0 .737995-.622444 1.332031-1.398438 1.332031h-25.203124c-.775594 0-1.398438-.594036-1.398438-1.332031z" opacity=".2"/></svg>