<svg height="64" width="64" xmlns="http://www.w3.org/2000/svg"><rect fill="#0286c2" height="56" rx="28" transform="matrix(0 -1 -1 0 0 0)" width="56" x="-60" y="-59"/><path d="m3.0175781 32.664062c-.0062936.111906-.0175781.222382-.0175781.335938 0 15.512 12.488 28 28 28s28-12.488 28-28c0-.113556-.011203-.224032-.017578-.335938-.351543 15.201757-12.69315 27.335938-27.982422 27.335938s-27.6308787-12.134181-27.9824219-27.335938z" opacity=".2"/><path d="m21.063304 17c-3.493862 0-6.678414.230003-9.984174 1.995512-4.9852985 8.324881-4.5541818 20.767302 0 27.93718 12.071066-13.704982 24.632954-18.957372 37.939861-18.957372 1.828142 0 4.135645.820336 5.990505.997756-5.9306-2.606139-21.442013-11.973076-33.946192-11.973076zm11.981009 17.959615c-6.094939.421892-11.266542 4.521433-15.974679 8.979808 5.642856-2.234177 10.616971-2.796312 15.038563-1.395303.764188.242136 3.043775 1.261922 5.070163 2.2683 5.139453 2.55266 7.681823 3.433279 11.255559 3.889653 4.269232.433026 8.366737-.64455 12.566081-1.770019l-4.824353-1.710156c-2.250433-.961836-4.980106-2.420556-8.871937-4.669499-5.269646-2.84161-9.165472-5.946628-14.259397-5.593422z" opacity=".2"/><path d="m10.984803 46c-4.5614004-7.186-4.9932004-19.656 0-28 3.311-1.7694 6.5006-2 10-2 12.5248 0 28.06 9.3872 34 12-1.8579-.17782-4.169-1-6-1-13.3286 0-25.91 5.2642-38 19z" fill="#fff"/><path d="m56.168 44.286c-2.254-.962-4.986-2.424-8.884-4.678-5.278-2.848-9.182-5.962-14.284-5.608-6.1046.42284-11.2844 4.5316-16 9 5.6518-2.2392 10.6322-2.8036 15.061-1.39962.7654.24268 3.0508 1.26632 5.0804 2.275 5.1476 2.5584 7.6918 3.439 11.271 3.8964 4.2752.43476 8.3808-.64304 12.5876-1.77188z" fill="#7ed1f3"/><path d="m31 4c-15.511778 0-28 12.488222-28 28 0 .113554.0112846.224034.0175781.335938.3515382-15.20154 12.6933679-27.335938 27.9824219-27.335938s27.630884 12.134398 27.982422 27.335938c.006375-.111904.017578-.222384.017578-.335938 0-15.511778-12.488222-28-28-28z" fill="#fff" opacity=".2"/></svg>