<svg height="64" viewBox="0 0 64 64" width="64" xmlns="http://www.w3.org/2000/svg"><circle cx="32" cy="33" opacity=".2" r="28"/><circle cx="32" cy="32" fill="#caa17d" r="28"/><path d="m26 39v13.333334c0 1.477332.892 2.666666 2 2.666666h2c1.108 0 2-1.189334 2-2.666666v-13.333334z" opacity=".2"/><path d="m26 11.000001s14 7.742557 14 27.999999h-14z" opacity=".2"/><path d="m26 38v13.333334c0 1.477332.892 2.666666 2 2.666666h2c1.108 0 2-1.189334 2-2.666666v-13.333334z" fill="#855629"/><circle cx="29" cy="50" opacity=".2" r="1"/><circle cx="29" cy="44" opacity=".2" r="1"/><g fill="#ccc"><path d="m26 10.000001s14 7.742557 14 27.999999h-14z"/><circle cx="29" cy="43" r="1"/><circle cx="29" cy="49" r="1"/></g><circle cx="52" cy="51" opacity=".2" r="12"/><circle cx="52" cy="50" fill="#e74c3c" r="12"/><path d="m49.333332 38.667334v1.648438a12 12 0 0 0 -8.020832 6.255208c.9003-.15758 2.761634-.626426 5.57552-2.161458 1.1172-.6096 2.07751-1.149476 2.445312-1.742188-3.189522 4 .269468 4.586586 2 6.666666 0 0 4.054998-2.666666.666666-6.666666 4 1.947548 8 1.333334 8 1.333334s.0217-.39212-.0052-.932292a12 12 0 0 0 -7.9948-3.067708v-1.333334z" fill-rule="evenodd" opacity=".1"/><path d="m49.333332 36.666666v1.648438a12 12 0 0 0 -8.020832 6.255208c.9003-.15758 2.761634-.626426 5.57552-2.161458 1.1172-.6096 2.07751-1.149476 2.445312-1.742188-3.189522 4 .269468 4.586586 2 6.666666 0 0 4.054998-2.666666.666666-6.666666 4 1.947548 8 1.333334 8 1.333334s.0217-.39212-.0052-.932292a12 12 0 0 0 -7.9948-3.067708v-1.333334z" fill="#a6ef4d" fill-rule="evenodd"/><path d="m32 4a28 28.007677 0 0 0 -28 28.007677 28 28.007677 0 0 0 .0175781.492323 28 28.007677 0 0 1 27.9824219-27.4997258 28 28.007677 0 0 1 27.974609 27.4997258 28 28.007677 0 0 0 .025391-.492323 28 28.007677 0 0 0 -28-28.007677z" fill="#fff" opacity=".2"/></svg>