<svg height="64" width="64" xmlns="http://www.w3.org/2000/svg" xmlns:xlink="http://www.w3.org/1999/xlink"><clipPath id="a"><circle cx="286" cy="26" r="10"/></clipPath><path d="m60 32c0-15.512-12.488-28-28-28s-28 12.488-28 28 12.488 28 28 28 28-12.488 28-28z" fill="#37a0f2"/><path d="m32 4c-15.511562 0-28 12.494197-28 28.013895 0 .113505.0112811.224225.0175781.336105.3515333-15.209301 12.6935809-27.3495037 27.9824219-27.3495037s27.630889 12.1402027 27.982422 27.3495037c.006271-.11188.017578-.2226.017578-.336105 0-15.519698-12.488438-28.013895-28-28.013895z" fill="#fff" opacity=".1"/><path d="m59.982422 32.65c-.351543 15.209301-12.69315 27.349504-27.982422 27.349504-15.287963 0-27.6288539-12.138123-27.9824219-27.345595-.0061769.110674-.0175781.219901-.0175781.332196 0 15.519698 12.488 28.013895 28 28.013895s28-12.494197 28-28.013895c0-.113505-.01128-.224225-.01758-.336105z" opacity=".2"/><circle clip-path="url(#a)" cx="286" cy="26" opacity="0" r="10" stroke-width=".455" transform="matrix(2.6666 0 0 2.6666 -730.6616 -37.3176)"/><circle clip-path="url(#a)" cx="286" cy="26" opacity="0" r="10" stroke-width=".909" transform="matrix(2.6666 0 0 2.6666 -730.66 -37.334)"/><g fill-rule="evenodd"><path d="m-16.725 11.189c-.828427 0-1.5.671573-1.5 1.5.000532.404804.164654.792208.45508 1.0742l-1.8164 3.9336c-.04608-.0047-.09235-.0073-.13867-.0078-.450398.0013-.876357.204986-1.1602.55469l-4.2422-1.5137c-.01455-.376179-.170024-.733133-.43555-1-.585761-.58564-1.535339-.58564-2.1211 0-.58564.585761-.58564 1.535339 0 2.1211.266562.266242.623552.422425 1 .4375l1.5137 4.2383c-.350219.284263-.553925.711036-.55469 1.1621h-1l-1.123.13477-3.877.4668v4.8008l3.873.46484c.269904 1.044525.685444 2.045876 1.2344 2.9746l-2.4102 3.0703 3.3926 3.3926 3.0703-2.4102c.928939.547599 1.93028.961823 2.9746 1.2305l.46484 3.877h4.8008v-.002l.46484-3.873c1.04442-.269275 2.045766-.68414 2.9746-1.2324l3.0705 2.41 3.0716774-3.394-2.4101-3.071-.6992-.89-.7676-.768c.3628794-.284646.5746426-.720401.57422-1.1816-.0004608-.04632-.00307-.09259-.00781-.13867l4.3328759-1.8164c.2824754.290923.6707018.455088 1.0762.45508.8284271 0 1.5-.671573 1.5-1.5s-.6715729-1.5-1.5-1.5c-.404804.000532-.7922082.164654-1.0742.45508l-4.3348759-1.8145c.0048-.04672.00741-.09365.00781-.14062-.0002848-.450737-.203244-.877453-.55273-1.1621l1.9148244-4.2402c.3754972-.01504.731672-.170471.99805-.43555.5856396-.585761.5856396-1.535339 0-2.1211-.5857612-.58564-1.5353388-.58564-2.1211 0-.2662415.266562-.4224247.623552-.4375 1l-4.3181018 1.512c-.284645-.34949-.711361-.552453-1.1621-.55274-.04632.000457-.09259.0031-.13867.0078l-1.8145-3.9336c.289705-.28232.453103-.669683.45312-1.0742 0-.828427-.671573-1.5-1.5-1.5zm.13867 2.9922 1.8145 3.9336c-.164132.160896-.289094.357359-.36524.57422h-3.1758c-.07671-.217047-.202352-.413525-.36719-.57422l1.8145-3.9316c.04675.0042.09368.0061.14062.0059.04632-.000457.09259-.0031.13867-.0078zm-8.8359 3.5039 4.1973 1.5v.0039c.000908.223212.05162.443407.14844.64453l-2.5039 2.5039c-.201123-.09682-.421318-.147532-.64453-.14844h-.0039l-1.5-4.1973c.05867-.0428.114157-.0898.16602-.14063.05083-.05186.09783-.107349.14062-.16602zm17.4752018 0c.042793.05867.08979.114157.14062.16602.051795.05151.1072823.09916.16602.14258l-1.9011244 4.1953h-.00391c-.2232118.000908-.4434074.05162-.6445304.14844l-2.182977-2.5039c.09682-.201123.147532-.421318.14844-.64453v-.0039l4.2775018-1.5zm-10.3652018 2.0039h3.1738c.211878.59928.778467.999952 1.4141 1 .223062-.000296.443251-.05034.64453-.14648l2.182977 2.502c-.09682.201123-.147532.421318-.14844.64453.000048.635633.40072 1.202222 1 1.4141v3.1738c-.598589.211632-.999105.777201-1 1.4121.000569.353204.12576.694879.35352.96484-1.366864 2.194805-3.44695 3.808403-6.032577 3.812834-5.368608 0-7.855606-3.635498-7.855606-7.777634.0015-.507322.05454-1.013179.1582-1.5098 1.048888-.01914 1.696673-.723562 1.697406-1.4902-.000617-.22387-.05134-.444764-.14844-.64648l2.502-2.502c.201716.0971.42261.147823.64648.14844.634899-.000895 1.200468-.401411 1.4121-1zm9.8390774 5.0449 4.3367759 1.8164c-.00474.04608-.00735.09235-.00781.13867.0004608.04632.00307.09259.00781.13867l-4.3348759 1.8145c-.1608975-.164128-.3573598-.289087-.57422-.36523v-3.1758c.2163485-.07698.4121347-.202602.57227-.36719z" opacity=".2" transform="matrix(1.2459 0 0 1.2458199 53.52557914 -.939477731)"/><path d="m-16.725 11.189c-.828427 0-1.5.671573-1.5 1.5.000532.404804.164654.792208.45508 1.0742l-1.8164 3.9336c-.04608-.0047-.09235-.0073-.13867-.0078-.450398.0013-.876357.204986-1.1602.55469l-4.2422-1.5137c-.01455-.376179-.170024-.733133-.43555-1-.585761-.58564-1.535339-.58564-2.1211 0-.58564.585761-.58564 1.535339 0 2.1211.266562.266242.623552.422425 1 .4375l1.5137 4.2383c-.350219.284263-.553925.711036-.55469 1.1621h-1l-1.123.13477-3.877.4668v4.8008l3.873.46484c.269904 1.044525.685444 2.045876 1.2344 2.9746l-2.4102 3.0703 3.3926 3.3926 3.0703-2.4102c.928939.547599 1.93028.961823 2.9746 1.2305l.46484 3.877h4.8008v-.002l.46484-3.873c1.04442-.269275 2.045766-.68414 2.9746-1.2324l3.0705 2.41 3.0716774-3.394-2.4101-3.071-.6992-.89-.7676-.768c.3628794-.284646.5746426-.720401.57422-1.1816-.0004608-.04632-.00307-.09259-.00781-.13867l4.3328759-1.8164c.2824754.290923.6707018.455088 1.0762.45508.8284271 0 1.5-.671573 1.5-1.5s-.6715729-1.5-1.5-1.5c-.404804.000532-.7922082.164654-1.0742.45508l-4.3348759-1.8145c.0048-.04672.00741-.09365.00781-.14062-.0002848-.450737-.203244-.877453-.55273-1.1621l1.9148244-4.2402c.3754972-.01504.731672-.170471.99805-.43555.5856396-.585761.5856396-1.535339 0-2.1211-.5857612-.58564-1.5353388-.58564-2.1211 0-.2662415.266562-.4224247.623552-.4375 1l-4.3181018 1.512c-.284645-.34949-.711361-.552453-1.1621-.55274-.04632.000457-.09259.0031-.13867.0078l-1.8145-3.9336c.289705-.28232.453103-.669683.45312-1.0742 0-.828427-.671573-1.5-1.5-1.5zm.13867 2.9922 1.8145 3.9336c-.164132.160896-.289094.357359-.36524.57422h-3.1758c-.07671-.217047-.202352-.413525-.36719-.57422l1.8145-3.9316c.04675.0042.09368.0061.14062.0059.04632-.000457.09259-.0031.13867-.0078zm-8.8359 3.5039 4.1973 1.5v.0039c.000908.223212.05162.443407.14844.64453l-2.5039 2.5039c-.201123-.09682-.421318-.147532-.64453-.14844h-.0039l-1.5-4.1973c.05867-.0428.114157-.0898.16602-.14063.05083-.05186.09783-.107349.14062-.16602zm17.4752018 0c.042793.05867.08979.114157.14062.16602.051795.05151.1072823.09916.16602.14258l-1.9011244 4.1953h-.00391c-.2232118.000908-.4434074.05162-.6445304.14844l-2.182977-2.5039c.09682-.201123.147532-.421318.14844-.64453v-.0039l4.2775018-1.5zm-10.3652018 2.0039h3.1738c.211878.59928.778467.999952 1.4141 1 .223062-.000296.443251-.05034.64453-.14648l2.182977 2.502c-.09682.201123-.147532.421318-.14844.64453.000048.635633.40072 1.202222 1 1.4141v3.1738c-.598589.211632-.999105.777201-1 1.4121.000569.353204.12576.694879.35352.96484-1.366864 2.194805-3.44695 3.808403-6.032577 3.812834-5.368608 0-7.855606-3.635498-7.855606-7.777634.0015-.507322.05454-1.013179.1582-1.5098 1.048888-.01914 1.696673-.723562 1.697406-1.4902-.000617-.22387-.05134-.444764-.14844-.64648l2.502-2.502c.201716.0971.42261.147823.64648.14844.634899-.000895 1.200468-.401411 1.4121-1zm9.8390774 5.0449 4.3367759 1.8164c-.00474.04608-.00735.09235-.00781.13867.0004608.04632.00307.09259.00781.13867l-4.3348759 1.8145c-.1608975-.164128-.3573598-.289087-.57422-.36523v-3.1758c.2163485-.07698.4121347-.202602.57227-.36719z" fill="#fff" transform="matrix(1.2459 0 0 1.2458199 53.52557914 -1.939330731)"/></g></svg>