<svg height="64" width="64" xmlns="http://www.w3.org/2000/svg"><path d="m6.0504 32c-.0126.334-.0508.662-.0508 1 0 14.404 11.596 26 26 26s26-11.596 26-26c0-.33794-.03812-.66526-.05078-1-.528 13.932-11.884 25-25.95 25s-25.422-11.068-25.95-25z" opacity=".2"/><rect fill="#ffc947" height="50" rx="25" transform="matrix(0 -1 -1 0 0 0)" width="50" x="-57" y="-57"/><path d="m31.9996 16a16 16 0 0 0 -14.8242 10h-3.1758l-2 4h4.1446a16 16 0 0 0 -.1446 2l-2 4h2.5312a16 16 0 0 0 15.4688 12 16 16 0 0 0 12.488-6h-5.866a12 12 0 0 1 -6.622 2 12 12 0 0 1 -11.3-8h13.3l2-4h-16a12 12 0 0 1 .18-2h15.82l2-4h-16.378a12 12 0 0 1 10.378-6 12 12 0 0 1 6.618 2h5.854a16 16 0 0 0 -12.472-6z" fill="#b38d32"/><path d="m31.9996 6c-14.404 0-26 11.596-26 26s11.596 26 26 26 26-11.596 26-26-11.596-26-26-26zm0 4c12.258 0 22 9.7428 22 22 0 12.258-9.742 22-22 22-12.2572 0-22-9.742-22-22 0-12.2572 9.7428-22 22-22z" fill="#b38d32"/><path d="m32 6c-14.404 0-26 11.596-26 26 0 .110922.011605.218792.0175781.328125.355118-14.089978 11.8038199-25.328125 25.9824219-25.328125 14.181237 0 25.633319 11.24228 25.984375 25.335938.006149-.111884.015625-.222404.015625-.335938 0-14.404-11.596-26-26-26z" fill="#fff" opacity=".2"/></svg>