<svg height="64" width="64" xmlns="http://www.w3.org/2000/svg" xmlns:xlink="http://www.w3.org/1999/xlink"><linearGradient id="a" gradientUnits="userSpaceOnUse" x1="25.255" x2="65.255" y1="0" y2="0"><stop offset="0" stop-color="#1e78dc"/><stop offset="1" stop-color="#46b9ff"/></linearGradient><linearGradient id="b" gradientUnits="userSpaceOnUse" x1="20.255" x2="50.255" y1="0" y2="0"><stop offset="0" stop-color="#1549a8"/><stop offset="1" stop-color="#166de9"/></linearGradient><linearGradient id="c" gradientUnits="userSpaceOnUse" x1="40.255" x2="70.255" y1="0" y2="0"><stop offset="0" stop-color="#154ba8"/><stop offset="1" stop-color="#136ce8"/></linearGradient><g transform="matrix(1.3592 0 0 1.3592 -11.496 -11.496)"><circle cx="35.255" fill="url(#b)" r="15" transform="matrix(.70710678 .70710678 -.70710678 .70710678 0 0)"/><circle cx="55.255" fill="url(#c)" r="15" transform="matrix(.70710678 .70710678 -.70710678 .70710678 0 0)"/><circle cx="45.255" fill="url(#a)" r="20" transform="matrix(.70710678 .70710678 -.70710678 .70710678 0 0)"/><path d="m41.039 39.968c.8097-1.0659 1.2094-2.318 1.2094-3.7564 0-1.1326-.22548-2.084-.66961-2.8561-.46292-.7687-1.1155-1.4127-1.9576-1.9269-.77384-.49879-1.78-.94122-3.0116-1.3376-1.2385-.3109-2.5521-.61496-3.9409-.92584l-1.522-.34678c-.40827-.08712-.73283-.16057-.97709-.22719-.2716-.06662-.52271-.14008-.76186-.22719-.22548-.08029-.46462-.17424-.70377-.27673-.46462-.19474-.85411-.45952-1.1633-.7704-.23915-.26819-.35873-.62864-.35873-1.0762 0-.65426.38949-1.2385 1.1633-1.7561.87633-.48344 1.9474-.71575 3.22-.70037 1.4708 0 2.5042.21694 3.0867.65253.70378.51587 1.2556 1.1513 1.6501 1.9013.34334.55003.69183.96001 1.0523 1.2299.34334.26307.81994.40484 1.4195.42365.67475 0 1.2333-.22378 1.7031-.67475.45952-.42022.67989-.89341.66791-1.4264 0-.61666-.17424-1.2231-.51587-1.8073-.33824-.54833-.90706-1.1326-1.6911-1.7526-.39629-.26648-.83189-.51076-1.3016-.73454-.47146-.22548-1.001-.42365-1.5767-.59104-.60302-.16399-1.2368-.2904-1.9047-.37581-.66961-.0837-1.4007-.12299-2.2104-.12299-2.0396 0-3.7598.2494-5.1607.74822-1.5049.51931-2.6443 1.2333-3.4164 2.1592-.7721.88144-1.1582 1.9405-1.1582 3.1773 0 1.3017.37411 2.3607 1.112 3.1773.74307.88314 1.7492 1.5511 3.0218 2.0038 1.2094.48344 2.7554.90706 4.6516 1.2726.70892.16741 1.329.30919 1.8774.41681.53979.10591 1.0301.22719 1.4588.35873.80801.22036 1.4639.58934 1.9645 1.1137.53468.45438.80286 1.0386.80286 1.7595 0 .99591-.48854 1.8022-1.4537 2.4171-.91219.63034-2.1455.94122-3.6984.91904-1.2436 0-2.1438-.14349-2.7144-.43389-.70892-.32285-1.2316-.73283-1.575-1.2214-.4356-.55687-.78408-1.1753-1.0642-1.8432-.24427-.63374-.57395-1.112-1.0044-1.4349-.40143-.32627-.8712-.48854-1.423-.48854-.70378 0-1.2846.19644-1.7441.5825-.45952.439-.67989.9532-.66961 1.5306 0 1.0061.3724 2.0123 1.1103 3.0201.73284 1.0369 1.6741 1.8466 2.8203 2.4291 1.6792.86779 3.7888 1.3068 6.3237 1.3239 2.0686 0 3.9119-.30748 5.5157-.92074 1.575-.69867 2.7502-1.5647 3.5172-2.605z" fill="#fff" stroke-width="26.686"/></g></svg>