<svg height="64" width="64" xmlns="http://www.w3.org/2000/svg"><path d="m6.0004 54.39803v1.999993c0 1.439995 1.161196 2.601991 2.601591 2.601991h46.795839c1.439995 0 2.601991-1.161996 2.601991-2.601991v-1.999993c0 1.439995-1.161996 2.601991-2.601991 2.601991h-46.795839c-1.440795 0-2.601991-1.161996-2.601991-2.601991z" opacity=".2"/><rect fill="#81d547" height="52" rx="2.6" transform="matrix(0 -1 -1 0 0 0)" width="52" x="-58" y="-58"/><path d="m32.001953 14.999145c-1.682106-.0174-3.352506.231581-4.974609.675781-7.553475 2.0262-13.081404 9.502172-12.966797 17.326172h-4.060547c2.069963 3.043664 6 8.998047 6 8.998047s6-9.000953 6-9.001953h-3.917969c-.0144-3.2766 1.215348-6.571578 3.396485-9.017578 4.099458-4.9288 11.522764-6.980569 17.232422-2.792969 1.809994 2.3692 5.757599-.319189 3.720703-2.662109-3.000187-2.33646-6.64185-3.517391-10.429688-3.525391zm15.998047 9s-6 8.999-6 9h3.917969c.0144 3.2766-1.215348 6.573531-3.396485 9.019531-4.099458 4.9288-11.522762 6.980569-17.232422 2.792969-1.809993-2.3692-5.757599.319189-3.720703 2.662109 3.000188 2.33646 6.64185 3.517391 10.429688 3.525391 1.682106.0174 3.352506-.231581 4.974609-.675781 7.553475-2.0262 13.081404-9.502172 12.966797-17.326172h4.060547c-2.069963-3.043664-6-8.998047-6-8.998047z" opacity=".2"/><path d="m8.6015625 6c-1.440395 0-2.6015625 1.1611675-2.6015625 2.6015625v1c0-1.440395 1.1611675-2.6015625 2.6015625-2.6015625h46.7968755c1.439995 0 2.601562 1.1611675 2.601562 2.6015625v-1c0-1.440395-1.161567-2.6015625-2.601562-2.6015625z" fill="#fff" opacity=".2"/><path d="m63.958 45.848059a15.999945 15.999945 0 0 1 -15.957945 15.151948 15.999945 15.999945 0 0 1 -15.957945-14.847949 15.999945 15.999945 0 0 0 -.042.847997 15.999945 15.999945 0 0 0 15.999945 15.999945 15.999945 15.999945 0 0 0 15.999945-15.999945 15.999945 15.999945 0 0 0 -.04296-1.152336z" opacity=".2"/><path d="m32.001953 14c-1.682106-.0174-3.352506.231581-4.974609.675781-7.553475 2.0262-13.081404 9.502172-12.966797 17.326172h-4.060547c2.069963 3.043664 6 8.998047 6 8.998047s6-9.000953 6-9.001953h-3.917969c-.0144-3.2766 1.215348-6.571578 3.396485-9.017578 4.099458-4.9288 11.522764-6.980569 17.232422-2.792969 1.809994 2.3692 5.757599-.319189 3.720703-2.662109-3.000187-2.33646-6.64185-3.517391-10.429688-3.525391zm15.998047 9s-6 8.999-6 9h3.917969c.0144 3.2766-1.215348 6.573531-3.396485 9.019531-4.099458 4.9288-11.522762 6.980569-17.232422 2.792969-1.809993-2.3692-5.757599.319189-3.720703 2.662109 3.000188 2.33646 6.64185 3.517391 10.429688 3.525391 1.682106.0174 3.352506-.231581 4.974609-.675781 7.553475-2.0262 13.081404-9.502172 12.966797-17.326172h4.060547c-2.069963-3.043664-6-8.998047-6-8.998047z" fill="#fff"/><circle cx="48" cy="46" fill="#8561c5" r="16"/><path d="m56.000027 36.000097-11.999958 1.999993v10.538963a3.9999862 3.9999862 0 0 0 -1.999993-.539998 3.9999862 3.9999862 0 0 0 -3.999986 3.999986 3.9999862 3.9999862 0 0 0 3.999986 3.999987 3.9999862 3.9999862 0 0 0 3.999986-3.999987v-10.331964l7.999972-1.335935v6.206978a3.9999862 3.9999862 0 0 0 -1.999993-.539998 3.9999862 3.9999862 0 0 0 -3.999986 3.999986 3.9999862 3.9999862 0 0 0 3.999986 3.999987 3.9999862 3.9999862 0 0 0 3.999986-3.999987v-13.999951z" fill="#fff"/></svg>