<svg height="64" width="64" xmlns="http://www.w3.org/2000/svg"><path d="m4 56v2c0 1.662 1.338 3 3 3h50c1.662 0 3-1.338 3-3v-2c0 1.662-1.338 3-3 3h-50c-1.662 0-3-1.338-3-3z" opacity=".2"/><rect fill="#ccc" height="56" rx="3" transform="matrix(0 -1 -1 0 0 0)" width="56" x="-60" y="-60"/><path d="m7 4c-1.662 0-3 1.338-3 3v1c0-1.662 1.338-3 3-3h50c1.662 0 3 1.338 3 3v-1c0-1.662-1.338-3-3-3z" fill="#fff" opacity=".1"/><path d="m23.000562 24.999438c-2.76184 0-5.000562 2.238722-5.000562 5.000562 0 2.761465 2.238535 5 5 5s5-2.238535 5-5h-5z" fill="#f00" opacity=".5" visibility="hidden"/><path d="m31 26v2h14v-2z" opacity=".5" visibility="hidden"/><path d="m31 32v2h14v-2z" opacity=".5" visibility="hidden"/><path d="m19 38v2h20v-2z" opacity=".5" visibility="hidden"/></svg>