<svg height="64" width="64" xmlns="http://www.w3.org/2000/svg" xmlns:xlink="http://www.w3.org/1999/xlink"><filter id="a" color-interpolation-filters="sRGB" height="1.0276" width="1.021231" x="-.010615" y="-.0138"><feGaussianBlur stdDeviation=".17844827"/></filter><filter id="b" color-interpolation-filters="sRGB" height="1.111429" width="1.013448" x="-.006724" y="-.055714"><feGaussianBlur stdDeviation=".12607759"/></filter><filter id="c" color-interpolation-filters="sRGB" height="1.018933" width="1.032769" x="-.016385" y="-.009467"><feGaussianBlur stdDeviation=".1775"/></filter><path d="m8.7999988 2v3.2142858h-7.79999895v3.2142856 35.3571436c0 1.780714 1.15959995 3.214285 2.59999995 3.214285h20.8000002c1.4404 0 2.6-1.433571 2.6-3.214285v-35.3571436-3.2142856h-7.8v-3.2142858z" filter="url(#c)" opacity=".2" stroke-width="2.890872"/><rect filter="url(#b)" height="45" opacity=".2" rx="1.939655" stroke-width=".775862" transform="matrix(0 -1 -1 0 0 0)" width="5.431035" x="-62" y="-63"/><g stroke-width="3.545621" transform="matrix(.81249995 0 0 .81818182 -62.600829 -1.810968)"><path d="m87.877948 3.4356272v3.9285715h-9.6v3.9285713 43.214286c0 2.176428 1.4272 3.928571 3.2 3.928571h25.600002c1.7728 0 3.2-1.752143 3.2-3.928571v-43.214286-3.9285713h-9.6v-3.9285715z" fill="#f9c440"/><path d="m78.277948 23.078484v31.428572c0 2.176428 1.4272 3.928571 3.2 3.928571h25.600002c1.7728 0 3.2-1.752143 3.2-3.928571v-31.428572z" fill="#0e141f"/></g><g stroke-width=".862069" transform="matrix(.9 0 0 .9 48.9 69.667663)"><rect fill="#1a1a1a" height="50" rx="2.155172" transform="matrix(0 -1 -1 0 0 0)" width="6.034483" x="-57.035931" y="-64"/><rect fill="#1a1a1a" height="34.482758" rx="2.155172" width="44.827587" x="16.586206" y="17.380758"/><path d="m20.034483 20.829035h37.931034v27.586206h-37.931034z" fill="#3689e6"/><path d="m18.741379 17.380759c-1.193965 0-2.155172.961207-2.155172 2.155172v.862069c0-1.193965.961207-2.155172 2.155172-2.155172h40.517242c1.189655 0 2.155172.961207 2.155172 2.155172v-.862069c0-1.193965-.965517-2.155172-2.155172-2.155172z" fill="#fafafa" opacity=".2"/></g><g stroke-width=".775862"><rect fill="#1a1a1a" height="45" rx="1.939655" transform="matrix(0 -1 -1 0 0 0)" width="5.431035" x="-61" y="-63"/><rect filter="url(#a)" height="31.034483" opacity=".2" rx="1.939655" width="40.344826" x="20.327579" y="26.310516"/><rect fill="#1a1a1a" height="31.034483" rx="1.939655" width="40.344826" x="20.327579" y="25.310345"/><path d="m23.431028 28.413794h34.137932v24.827587h-34.137932z" fill="#3689e6"/><path d="m22.267236 25.310345c-1.074569 0-1.939655.865086-1.939655 1.939655v.775862c0-1.074569.865086-1.939655 1.939655-1.939655h36.465518c1.070689 0 1.939655.865086 1.939655 1.939655v-.775862c0-1.074569-.868966-1.939655-1.939655-1.939655z" fill="#7e8087" opacity=".2"/></g></svg>