<svg height="64" viewBox="0 0 16.933333 16.933334" width="64" xmlns="http://www.w3.org/2000/svg" xmlns:xlink="http://www.w3.org/1999/xlink"><filter id="a" color-interpolation-filters="sRGB" height="1.020651" width="1.028645" x="-.014322" y="-.010326"><feGaussianBlur stdDeviation=".0580549"/></filter><g transform="translate(0 -280.06665)"><path d="m8.4667373 282.05103a3.6087705 3.6087707 0 0 0 -3.6087697 3.60878 3.6087705 3.6087707 0 0 0 1.3005789 2.77338c-1.4781881 1.799-3.0806597 4.21742-2.3909324 5.60561.6946726 1.39814 2.6840072 1.50958 4.680736 1.50589 1.9967279-.003 4.0009399-.12252 4.7248659-1.50589.68445-1.30793-.988448-3.67396-2.56561-5.47874a3.6087705 3.6087707 0 0 0 1.467902-2.90025 3.6087705 3.6087707 0 0 0 -3.6087707-3.60878z" filter="url(#a)" opacity=".2"/><path d="m8.4667374 281.78644a3.6087711 3.6087714 0 0 0 -3.6087706 3.60878 3.6087711 3.6087714 0 0 0 1.3005793 2.77338c-1.4781885 1.79901-3.0806601 4.21743-2.3909331 5.60561.6946732 1.39814 2.6840083 1.50959 4.6807372 1.5059 1.9967288-.003 4.0009398-.12253 4.7248668-1.5059.684449-1.30793-.988448-3.67396-2.565611-5.47874a3.6087711 3.6087714 0 0 0 1.467902-2.90025 3.6087711 3.6087714 0 0 0 -3.6087706-3.60878z" fill="#9575cd"/><path d="m8.4667475 281.78665a3.6087573 3.6087573 0 0 0 -3.6087572 3.60876 3.6087573 3.6087573 0 0 0 .00273.0756 3.6087573 3.6087573 0 0 1 3.6059866-3.55539 3.6087573 3.6087573 0 0 1 3.6060511 3.53322 3.6087573 3.6087573 0 0 0 .0027-.0534 3.6087573 3.6087573 0 0 0 -3.6087582-3.60877z" fill="#fff" opacity=".2" stroke-width=".128884"/></g></svg>