<svg height="64" width="64" xmlns="http://www.w3.org/2000/svg"><path d="m75.53 21.4393c-11.08 0-20 8.92-20 20 0 .16772-.004.33329 0 .5.26444-10.846 9.0877-19.5 20-19.5s19.736 8.6537 20 19.5c.004-.16671 0-.33228 0-.5 0-11.08-8.92-20-20-20z" fill="#fff" opacity=".1"/><path d="m32 5a28 28 0 0 0 -28 28 28 28 0 0 0 28 28c2.667458 0 5.239688-.397056 7.683594-1.09375a28 28 0 0 0 .10938-.02734c.578188-.16736 1.141-.36343 1.703126-.566406.309544-.11178.621418-.217564.925782-.339844.547446-.219916 1.079674-.465882 1.609374-.71875.307054-.14656.617216-.284106.917968-.441406.493566-.258118.969602-.541984 1.445314-.828124.324386-.19512.653094-.382112.96875-.589844.458532-.301722.896726-.629622 1.335936-.957032.288804-.215324.587124-.42239.867188-.648438.438844-.354198.853098-.733704 1.269532-1.11328.266152-.24264.544174-.47395.80078-.726564.65083-.64068 1.269518-1.310328 1.85547-2.011718.426244-.510218.81739-1.049772 1.20703-1.589844.1433-.19866.303228-.38733.441406-.589844 3.063064-4.489556 4.85937-9.912844 4.85937-15.757816 0-2.667458-.397056-5.239688-1.09375-7.683594a28 28 0 0 0 -.02734-.10938c-.16736-.578188-.36343-1.141-.566406-1.703126-.11178-.309544-.217564-.621418-.339844-.925782-.21992-.54744-.465886-1.079668-.718754-1.609368-.146568-.307054-.284106-.617216-.441406-.917968-.258118-.493566-.541984-.969602-.828124-1.445313-.19513-.324387-.382112-.653094-.589844-.96875-.301722-.458533-.629622-.896727-.957032-1.335938-.215324-.288804-.42239-.587121-.648438-.867187-.354198-.438845-.733704-.853098-1.11328-1.269532-.24264-.266152-.47395-.544175-.726564-.800781-.64068-.65083-1.310328-1.269517-2.011718-1.855469-.510218-.426244-1.049772-.817391-1.589844-1.207031-.198654-.143308-.38733-.303228-.589844-.441406-4.489552-3.0630692-9.91284-4.859375-15.757812-4.859375zm27.578124 23.167968c.0078.0447.0158.08804.02344.13282a28 28 0 0 0 -.02344-.13282zm.335938 2.71875c.007.09304.0134.18408.0196.277344a28 28 0 0 0 -.0196-.277344zm-23.08203 29.691406c-.0447.0078-.08804.0158-.13282.02344a28 28 0 0 0 .13282-.02344zm-2.71875.335938c-.09302.007-.18408.0134-.277344.0196a28 28 0 0 0 .277344-.0196z" opacity=".2"/><path d="m32 4a28 28 0 0 0 -28 28 28 28 0 0 0 28 28zm15.758202 4.8589844c.202514.138178.389238.296926.587892.4402342a28 28 0 0 0 -.587892-.4402342zm2.179298 1.6488276c.262688.219478.505768.460267.760156.689063a28 28 0 0 0 -.760156-.689063zm2.009766 1.856641c.252614.256606.484704.532285.727344.798438a28 28 0 0 0 -.727344-.798438zm1.842968 2.069922c.226048.280066.42999.577993.645314.866797a28 28 0 0 0 -.645314-.866797zm1.60508 2.201172c.207732.315657.392758.646316.587888.970703a28 28 0 0 0 -.587888-.970703zm1.416404 2.414453c.1573.300752.2964.611696.442968.91875a28 28 0 0 0 -.442968-.91875zm1.16211 2.526564c.12228.304364.227284.617408.339062.926952a28 28 0 0 0 -.339062-.926952zm.905078 2.630468c.09604.331718.17578.669582.259766 1.00625a28 28 0 0 0 -.259766-1.00625zm.697266 2.961328c.0078.0447.017.0892.02462.13398a28 28 0 0 0 -.02462-.13398zm.336328 2.717968c.007.09304.0158.18564.02188.278906a28 28 0 0 0 -.02188-.278906zm-4.771484 17.871874c-.13818.202514-.296926.389238-.440234.587892a28 28 0 0 0 .440234-.587892zm-1.64883 2.179298c-.219476.262688-.460264.505768-.689062.760156a28 28 0 0 0 .689062-.760156zm-1.856638 2.009766c-.256606.252614-.532286.484704-.798438.727344a28 28 0 0 0 .798438-.727344zm-2.069924 1.842968c-.280064.226048-.577992.42999-.866796.645314a28 28 0 0 0 .866796-.645314zm-2.201172 1.60508c-.315656.207732-.646316.392758-.970702.587888a28 28 0 0 0 .970702-.587888zm-2.414452 1.416404c-.300752.1573-.611696.2964-.91875.442968a28 28 0 0 0 .91875-.442968zm-2.526564 1.16211c-.304364.12228-.617408.227284-.926952.339062a28 28 0 0 0 .926952-.339062zm-2.630468.905078c-.331718.09604-.669582.17578-1.00625.259766a28 28 0 0 0 1.00625-.259766zm-2.961328.697266c-.0447.0078-.0892.017-.13398.02462a28 28 0 0 0 .13398-.02462zm-2.717968.336328c-.09302.007-.18564.0158-.278906.02188a28 28 0 0 0 .278906-.02188z" fill="#ffe2ac"/><circle cx="32" cy="32" opacity=".2" r="22"/><circle cx="32" cy="32" opacity=".2" r="16"/><circle cx="32" cy="32" opacity=".2" r="10"/><path d="m60 32c0 15.463972-12.536028 28-28 28v-56c15.463972 0 28 12.536027 28 28z" fill="#7d4698"/><path d="m32 4a28 28 0 0 0 -28 28 28 28 0 0 0 .0214844.40625 28 28 0 0 1 27.978516-27.40625c5.844972 0 11.26826 1.7963058 15.757812 4.859375.202514.138178.39119.298098.589844.441406.540072.38964 1.079626.780787 1.589844 1.207031.70139.585952 1.371039 1.204639 2.011719 1.855469.252614.256606.483922.53463.726562.800781.379576.416435.759083.830687 1.113281 1.269532.226048.280066.433114.578383.648438.867187.32741.439211.655309.877405.957031 1.335938.207732.315656.394714.644363.589844.96875.286138.475712.570007.951747.828125 1.445312.1573.300752.294838.610915.441406.917969.252868.5297.49883 1.061937.71875 1.609375.12228.304366.228064.616237.339844.925781.202976.562126.399046 1.124937.566406 1.703125a28 28 0 0 1 .027344.109375c.651047 2.283782 1.025988 4.68317 1.074219 7.164063.008014-.159785.019531-.31882.019531-.480469 0-2.667458-.397056-5.239688-1.09375-7.683594a28 28 0 0 0 -.027344-.109375c-.16736-.578188-.36343-1.140999-.566406-1.703125-.11178-.309544-.217564-.621415-.339844-.925781-.21992-.547438-.465882-1.079675-.71875-1.609375-.146568-.307054-.284106-.617217-.441406-.917969-.258118-.493565-.541987-.9696-.828125-1.445312-.19513-.324387-.382112-.653094-.589844-.96875-.301722-.458533-.629621-.896727-.957031-1.335938-.215324-.288804-.42239-.587121-.648438-.867187-.354198-.438845-.733705-.853097-1.113281-1.269532-.24264-.266151-.473948-.544175-.726562-.800781-.64068-.65083-1.310329-1.269516-2.011719-1.855469-.510218-.426243-1.049772-.8173906-1.589844-1.2070308-.198654-.1433081-.38733-.3032282-.589844-.4414062-4.489552-3.0630692-9.91284-4.859375-15.757812-4.859375zm27.578125 23.167969c.0078.0447.015797.088032.023437.132812a28 28 0 0 0 -.023437-.132812zm-22.746094 34.410156a28 28 0 0 1 -.132812.023437c.04478-.007599.088112-.015597.132812-.023437zm0 1c-.0447.00784-.088032.015838-.132812.023437a28 28 0 0 0 .132812-.023437z" fill="#fff" opacity=".1"/></svg>