<svg height="64" viewBox="0 0 16.933 16.933" width="64" xmlns="http://www.w3.org/2000/svg" xmlns:xlink="http://www.w3.org/1999/xlink"><linearGradient id="a" gradientUnits="userSpaceOnUse" x1="3.75553624" x2="3.75553624" y1="2.40083956" y2="15.02106448"><stop offset="0" stop-color="#50d2ff"/><stop offset="1" stop-color="#19a0e6"/></linearGradient><linearGradient id="b" gradientUnits="userSpaceOnUse" x1="-86.411" x2="-86.411" y1="3.4395" y2="17.991"><stop offset="0" stop-color="#28a0f5"/><stop offset="1" stop-color="#057ddc"/></linearGradient><linearGradient id="c" gradientUnits="userSpaceOnUse" x1="-86.411" x2="-86.411" y1="3.4395" y2="17.991"><stop offset="0" stop-color="#2864b4"/><stop offset="1" stop-color="#0a4682"/></linearGradient><filter id="d" color-interpolation-filters="sRGB" height="1.1544" width="1.1843" x="-.092129" y="-.077189"><feGaussianBlur stdDeviation=".31484797"/></filter><g fill="#5e4aa6" stroke-width=".26458"><circle cx="-330.35" cy="-328.38" r="0"/><circle cx="-39.434" cy="6.44" fill-rule="evenodd" r="0"/><g><circle cx="-320.049" cy="-345.723009" r="0"/><circle cx="-29.145" cy="-10.902009" fill-rule="evenodd" r="0"/><circle cx="-304.339" cy="-328.773009" r="0"/></g></g><g fill="url(#c)" transform="matrix(.67626 0 0 .67626 72.161 3.1875)"><path d="m-90.486 12.303v5.1593c0 .14658.05886.279.15451.37465s.22807.15451.37465.15451h7.1436c.14658 0 .279-.05886.37465-.15451s.15451-.22807.15451-.37465v-5.1593c0-2.2719-1.829-4.101-4.101-4.101s-4.101 1.829-4.101 4.101z"/><circle cx="-86.385" cy="5.5561" r="2.1166"/></g><path d="m-90.486 12.303v5.1593c0 .14658.05886.279.15451.37465s.22807.15451.37465.15451h7.1436c.14658 0 .279-.05886.37465-.15451s.15451-.22807.15451-.37465v-5.1593c0-2.2719-1.829-4.101-4.101-4.101s-4.101 1.829-4.101 4.101z" filter="url(#d)" opacity=".6" transform="matrix(.79101 0 0 .72996 77.685 2.0847)"/><g fill="url(#b)" transform="matrix(.76625 0 0 .76625 75.48 1.5686)"><path d="m-90.486 12.303v5.1593c0 .14658.05886.279.15451.37465s.22807.15451.37465.15451h7.1436c.14658 0 .279-.05886.37465-.15451s.15451-.22807.15451-.37465v-5.1593c0-2.2719-1.829-4.101-4.101-4.101s-4.101 1.829-4.101 4.101z"/><circle cx="-86.385" cy="5.5561" r="2.1166"/></g><path d="m-90.486 12.303v5.1593c0 .14658.05886.279.15451.37465s.22807.15451.37465.15451h7.1436c.14658 0 .279-.05886.37465-.15451s.15451-.22807.15451-.37465v-5.1593c0-2.2719-1.829-4.101-4.101-4.101s-4.101 1.829-4.101 4.101z" filter="url(#d)" opacity=".6" transform="matrix(.86962 0 0 .8025 79.352 .77957)"/><g fill="url(#a)" stroke-width=".86728" transform="translate(.17938 .33304)"><path d="m.31295 10.088v4.4746c0 .12713.051048.24197.134.32493.082955.08296.1978.134.32493.134h6.1955c.12713 0 .24197-.05105.32493-.134.082955-.08295.134-.1978.134-.32493v-4.4746c0-1.9704-1.5863-3.5567-3.5567-3.5567-1.9705 0-3.5567 1.5863-3.5567 3.5567z"/><circle cx="3.8697" cy="4.2365" r="1.8357"/></g></svg>