<svg height="64" width="64" xmlns="http://www.w3.org/2000/svg"><rect fill="#4f4f4f" height="56" rx="2.8" transform="matrix(0 -1 -1 0 0 0)" width="56" x="-60" y="-60"/><path d="m6.8007812 4c-1.5511778 0-2.8007812 1.2498396-2.8007812 2.8007812v1c0-1.5509416 1.2496034-2.8007812 2.8007812-2.8007812h50.3984378c1.549978 0 2.800781 1.2498396 2.800781 2.8007812v-1c0-1.5509415-1.250803-2.8007812-2.800781-2.8007812z" fill="#fff" opacity=".1"/><path d="m4 57.199219v1c0 1.549978 1.2496034 2.800781 2.8007812 2.800781h50.3984378c1.549978 0 2.800781-1.250803 2.800781-2.800781v-1c0 1.549978-1.250803 2.800781-2.800781 2.800781h-50.3984378c-1.5511778 0-2.8007812-1.250803-2.8007812-2.800781z" opacity=".2"/><path d="m8.9999285 25.000515 6.4499075 15.999771h4.599934l6.34991-15.999771h-4.349938l-4.349938 10.549849-4.299939-10.549849z" fill-opacity=".971" opacity=".2"/><path d="m8.9999285 24.000544 6.4499075 15.999771h4.599934l6.34991-15.999771h-4.349938l-4.349938 10.549849-4.299939-10.549849z" fill="#6a2537"/><path d="m30.649619 25.000515c-2.166169 5.360923-4.367738 10.688247-6.649905 15.999771h4.599934l4.299939-10.49985 4.249939 10.49985h4.599934l4.249939-10.799845 4.399937 10.799845h4.599935c-2.282168-5.311524-4.533736-10.638848-6.699905-15.999771h-4.599934l-4.249939 10.549849-4.349938-10.549849z" fill-opacity=".971" opacity=".2"/><path d="m30.649619 24.000544c-2.166169 5.360923-4.367738 10.688247-6.649905 15.999771h4.599934l4.299939-10.49985 4.249939 10.49985h4.599934l4.249939-10.799846 4.399937 10.799846h4.599935c-2.282168-5.311524-4.533736-10.638848-6.699905-15.999771h-4.599934l-4.249939 10.549849-4.349938-10.549849z" fill="#a6aaad"/></svg>