<svg enable-background="new 0 0 1024 1024" height="64" image-rendering="optimizeSpeed" viewBox="0 0 64 64" width="64" xmlns="http://www.w3.org/2000/svg" xmlns:xlink="http://www.w3.org/1999/xlink"><linearGradient id="a" gradientUnits="userSpaceOnUse" x1="32.54191256" x2="32.54191256" y1="-1.756396556" y2="64.9266604"><stop offset="0" stop-color="#ffbc64"/><stop offset="1" stop-color="#f34f17"/></linearGradient><filter id="b" color-interpolation-filters="sRGB" height="1.124" width="1.1162" x="-.058125" y="-.062"><feGaussianBlur stdDeviation=".89780662"/></filter><path d="m62 32c0-.50588-.01273-1.0086-.03182-1.4986q-.50906-11.464-8.7527-19.717c-5.8574-5.8543-12.93-8.7846-21.215-8.7846-8.2819 0-15.358 2.9303-21.212 8.7846-5.8574 5.8543-8.7877 12.93-8.7877 21.215 0 8.2819 2.9303 15.358 8.7877 21.212 5.482 5.4915 12.049 8.4091 19.672 8.7559.50907.01909 1.0181.03182 1.5399.03182 8.285 0 15.358-2.9335 21.215-8.7877 5.8543-5.8543 8.7846-12.93 8.7846-21.212z" fill="url(#a)" stroke-width=".99796"/><g stroke-width="6.0561"><path d="m31.942 36.636c4.6149 0 8.478-1.5682 8.7121-3.6152-.6862-1.925-1.4346-4.0241-2.1698-6.0874-.5105 1.4716-3.3298 2.5092-6.5419 2.5092-3.2113 0-6.0306-1.038-6.5419-2.5089-.73524 2.0628-1.4828 4.1616-2.169 6.087.23324 2.047 4.0956 3.6152 8.7105 3.6152zm0-12.946c2.169 0 4.1844-.67152 4.774-1.7141-.81286-2.2833-1.5114-4.2423-1.9528-5.4784-.29309-.82367-1.6222-1.2515-2.8213-1.2515-1.199 0-2.5282.42786-2.8216 1.2515-.4406 1.2361-1.1388 3.195-1.9528 5.4784.59005 1.0426 2.6062 1.7141 4.7744 1.7141zm16.954 14.853-7.2508-2.9205.83487 2.3297c-.04209 2.4691-4.8351 4.4365-10.538 4.4365-5.702 0-10.496-1.9675-10.537-4.4365l.8341-2.3297-7.2501 2.9205c-2.0327.81904-2.1177 2.3359-.18922 3.3696l13.636 7.3119c1.9285 1.0337 5.0849 1.0337 7.0134 0l13.636-7.3119c1.9288-1.0337 1.8435-2.5506-.18922-3.3696z" filter="url(#b)" opacity=".3"/><path d="m31.942 35.636c4.6149 0 8.478-1.5682 8.7121-3.6152-.6862-1.925-1.4346-4.0241-2.1698-6.0874-.5105 1.4716-3.3298 2.5092-6.5419 2.5092-3.2113 0-6.0306-1.038-6.5419-2.5089-.73524 2.0628-1.4828 4.1616-2.169 6.087.23324 2.047 4.0956 3.6152 8.7105 3.6152zm0-12.946c2.169 0 4.1844-.67152 4.774-1.7141-.81286-2.2833-1.5114-4.2423-1.9528-5.4784-.29309-.82367-1.6222-1.2515-2.8213-1.2515-1.199 0-2.5282.42786-2.8216 1.2515-.4406 1.2361-1.1388 3.195-1.9528 5.4784.59005 1.0426 2.6062 1.7141 4.7744 1.7141zm16.954 14.853-7.2508-2.9205.83487 2.3297c-.04209 2.4691-4.8351 4.4365-10.538 4.4365-5.702 0-10.496-1.9675-10.537-4.4365l.8341-2.3297-7.2501 2.9205c-2.0327.81904-2.1177 2.3359-.18922 3.3696l13.636 7.3119c1.9285 1.0337 5.0849 1.0337 7.0134 0l13.636-7.3119c1.9288-1.0337 1.8435-2.5506-.18922-3.3696z" fill="#fff"/></g></svg>