<svg height="64" width="64" xmlns="http://www.w3.org/2000/svg" xmlns:xlink="http://www.w3.org/1999/xlink"><linearGradient id="a" gradientUnits="userSpaceOnUse" x1="-47.6236" x2="-31.7496" y1="-6.87901" y2="8.99569"><stop offset="0" stop-color="#cfdef0"/><stop offset="1" stop-color="#f5faff"/></linearGradient><linearGradient id="b" gradientTransform="matrix(1.0014 0 0 1.0026 -88.438 .43837)" gradientUnits="userSpaceOnUse" x1="10.973" x2="36.937" y1="24" y2="24"><stop offset="0" stop-color="#2a2c2f"/><stop offset="1" stop-color="#424649"/></linearGradient><linearGradient id="c" gradientTransform="matrix(.088238 0 0 .087173 -107.37 3.3915)" gradientUnits="userSpaceOnUse" x1="319.21" x2="657.65" y1="235.15" y2="269.49"><stop offset="0" stop-color="#e54c18"/><stop offset="1" stop-color="#fec350"/></linearGradient><text transform="translate(-384.57 -499.8)" x="730.88" y="132.19"/><g fill="#5e4aa6"><circle cx="-1469.09956" cy="-1265.599934" r="0"/><circle cx="-1400.19956" cy="-1257.599934" r="0"/><circle cx="-1377.19956" cy="-1283.399934" r="0"/><circle cx="-1387.79956" cy="-1256.699934" r="0"/></g><g fill="#5e4aa6" stroke-width=".95051624295"><circle cx="-1328.8074746386" cy="-1203.15800106448" r="0"/><circle cx="-1263.27940648756" cy="-1195.505874685" r="0"/><circle cx="-1241.40079162792" cy="-1220.00704928972" r="0"/><circle cx="-1251.53177584864" cy="-1194.64366326196" r="0"/></g><rect fill="url(#a)" height="15.875" ry=".79373" transform="matrix(3.592547596 0 0 3.592547596 174.63402 29.02902949)" width="15.875" x="-47.624" y="-6.879"/><g transform="matrix(1.4062 0 0 1.4062 122.63 -2.4531)"><path d="m-77.16 37.991 9.8168-12.85-10.107-14.129 6.4959.0054 8.0532 11.11-12.041 15.864h-2.2181zm19.214.009123-7.9976-11.129 12.141-15.871h2.1633l-9.8569 12.911 10.046 14.089z" fill="url(#b)"/><path d="m-64.451 15.929c-.781 0-1.6154.05974-2.3665.13098 1.3382 1.7243 2.4486 3.1844 3.7265 4.8426-.71726-1.5249-2.1914-2.9872-1.6818-3.7392.50447-.74443 1.434-.61913 1.5048-.61913 1.4902 0 2.9247.16627 4.2657.474l.31435-.42769c-1.7887-.45489-3.7314-.66152-5.763-.66152zm8.071 1.3916-.28953.40862c4.1318 1.5985 6.9267 4.6516 6.9267 8.1506 0 5.1524-6.0588 9.3329-13.525 9.3329-7.4664 0-13.528-4.1805-13.528-9.3329.000001-2.8059 1.7975-5.3245 4.6408-7.0365l-.87411-1.3158c-4.4601 1.8683-7.4202 5.1475-7.4202 8.8807 0 5.8086 7.1669 10.521 15.999 10.521 8.8317 0 16.001-4.712 16.001-10.521 0-3.8733-3.1874-7.2608-7.9304-9.0878z" fill="url(#c)"/></g></svg>