<svg height="22" viewBox="0 0 22 22" width="22" xmlns="http://www.w3.org/2000/svg"><g transform="translate(0 -1030.4)"><rect fill="#e75177" height="20" rx="1" transform="matrix(0 -1 -1 0 0 0)" width="20" x="-1051.4" y="-21"/><path d="m2 1031.4c-.554 0-1 .446-1 1v.5c0-.554.446-1 1-1h18c.554 0 1 .446 1 1v-.5c0-.554-.446-1-1-1z" fill="#fff" opacity=".2"/><path d="m2 1051.9c-.554 0-1-.446-1-1v-.5c0 .554.446 1 1 1h18c.554 0 1-.446 1-1v.5c0 .554-.446 1-1 1z" opacity=".2"/><path d="m11 1035.9a6 6 0 0 0 -1 .086v7.8965c0 .5641-.446 1.0176-1 1.0176s-1-.4535-1-1.0176v-7.1699a6 6 0 0 0 -3 5.1875 6 6 0 0 0 6 6 6 6 0 0 0 6-6 6 6 0 0 0 -6-6zm.23242 3a.25006.27276 0 0 1 .01953 0 .25006.27276 0 0 1 .11914.033l4.5 2.7285a.25006.27276 0 0 1 0 .4766l-4.5 2.7265a.25006.27276 0 0 1 -.371-.2v-5.4551a.25006.27276 0 0 1 .23242-.2734z" opacity=".2"/><path d="m11 1035.4a6 6 0 0 0 -1 .086v7.8965c0 .5641-.446 1.0176-1 1.0176s-1-.4535-1-1.0176v-7.1699a6 6 0 0 0 -3 5.1875 6 6 0 0 0 6 6 6 6 0 0 0 6-6 6 6 0 0 0 -6-6zm.23242 3a.25006.27276 0 0 1 .01953 0 .25006.27276 0 0 1 .11914.033l4.5 2.7285a.25006.27276 0 0 1 0 .4766l-4.5 2.7265a.25006.27276 0 0 1 -.371-.2v-5.4551a.25006.27276 0 0 1 .23242-.2734z" fill="#fff"/></g></svg>