<svg height="22" width="22" xmlns="http://www.w3.org/2000/svg"><path d="m90 21.948c-3.0904 1.3709-6.4122 2.297-9.8977 2.7136 3.5578-2.1328 6.2908-5.51 7.5772-9.5344-3.3302 1.9753-7.0182 3.4091-10.944 4.1819-3.1433-3.3495-7.6222-5.4419-12.579-5.4419-9.5172 0-17.234 7.7158-17.234 17.233 0 1.3507.15245 2.6662.44645 3.9274-14.323-.719-27.021-7.58-35.521-18.006-1.4834 2.5452-2.3335 5.5054-2.3335 8.6638 0 5.9791 3.0425 11.254 7.6667 14.344-2.8249-.08949-5.4823-.86478-7.8057-2.1554-.002.07186-.002.14405-.002.21672 0 8.3496 5.9405 15.314 13.824 16.899-1.4461.39395-2.9686.60437-4.5402.60437-1.1105 0-2.1899-.10836-3.2424-.30912 2.1932 6.8464 8.5575 11.829 16.099 11.968-5.8981 4.6225-13.329 7.3777-21.403 7.3777-1.391 0-2.7628-.08191-4.111-.24109 7.6268 4.8901 16.685 7.7431 26.418 7.7431 31.699 0 49.033-26.26 49.033-49.034 0-.74718-.01676-1.4902-.05002-2.2298 3.3667-2.4293 6.2883-5.4642 8.5987-8.9204z" fill="#35b9f5" transform="matrix(.23809 0 0 .23438 -.42852 -.25016)"/><path d="m41.951 9.5547c-.18756.10807-.38566.20019-.57812.30078-.6685 1.1922-1.656 2.1924-2.8516 2.8887.56287-.06536 1.1137-.16989 1.6562-.29102.79731-.81549 1.4125-1.8015 1.7734-2.8984zm1.049 2.9963c-.37121.15996-.75132.30563-1.1367.4375-.81586.92763-1.7355 1.7686-2.7539 2.4824.01505.32504.02344.65211.02344.98047 1.512-1.064 2.828-2.39 3.867-3.9zm-36.377 1.158c-.010605.16163-.033203.32015-.033203.48438 0 1.9727.77501 3.7706 2.0469 5.1191.46153.09867.93407.17054 1.4219.18555-1.9534-1.268-3.268-3.377-3.436-5.789zm16.916 2.334c-.01259.17598-.02734.35216-.02734.53125 0 .24127.02051.4773.04297.71289.05363.003.10643.0091.16016.01172-.09746-.40616-.14903-.8274-.17578-1.2559zm15.578.738c-.169 9.931-7.982 21.219-22.166 21.219-3.5786 0-6.9497-.83858-9.9414-2.3027-.05054.000464-.099737.0059-.15039.0059-.6289 0-1.2491-.035-1.859-.105 3.4502 2.149 7.548 3.402 11.951 3.402 14.34 0 22.182-11.54 22.182-21.549 0-.22435-.0086-.44717-.01562-.66992zm-32.59 2.77c-.0009048.03158-.00195.06181-.00195.09375 0 2.9027 1.6861 5.4196 4.1543 6.6914.01579.000094.03106.002.04687.002.71098 0 1.3986-.0925 2.0527-.26562-3.2584-.63607-5.7756-3.2479-6.1875-6.4922-.0209-.011-.0438-.018-.0645-.029zm2.7324 7.6504c.86471 2.6222 3.1635 4.6199 5.998 5.1309.44194-.27231.87459-.5585 1.2852-.87109-2.995-.05347-5.5781-1.7487-6.8359-4.1973-.14971-.01932-.29994-.0352-.44727-.0625z" opacity=".2" transform="matrix(.526297945 0 0 .53333169 -1.631517343 -1.299857122)"/><path d="m31.309 9c-4.3054 0-7.7969 3.3917-7.7969 7.5742 0 .15863.01759.3125.02734.46875.282-3.934 3.649-7.043 7.77-7.043 2.242 0 4.269.919 5.691 2.391 1.555-.298 3.02-.828 4.373-1.536.231-.412.429-.845.578-1.3003-1.506.8683-3.175 1.4963-4.951 1.8363-1.422-1.4724-3.449-2.391-5.691-2.391zm-23.662 1.387c-.67108 1.1185-1.0566 2.4186-1.0566 3.8066 0 .17447.02126.34408.033203.51562.079025-1.2044.43176-2.3361 1.0234-3.3223 3.8452 4.5821 9.589 7.5963 16.068 7.9121-.078-.329-.127-.668-.159-1.012-6.414-.357-12.095-3.356-15.908-7.9zm35.354 2.164c-.89898.3874-1.8448.68415-2.8223.90234-.4882.49932-1.045.93507-1.6562 1.291 1.1581-.13448 2.2757-.39108 3.3418-.75586.40429-.45967.7904-.93423 1.1367-1.4375zm-3.8672 4.9023c-.008.0056-.01542.01196-.02344.01758.0048.10295.0045.20729.0078.31055.0019-.1089.01561-.21956.01562-.32812zm-32.606 2.098c-.0009048.03158-.00195.06181-.00195.09375 0 .31702.027452.62874.066406.93555 1.0362.54727 2.214.87942 3.4668.91797-.5218-.338-1-.738-1.4223-1.186-.7476-.159-1.4595-.411-2.1094-.761zm2.7324 7.6504c.12116.36743.27229.72189.44727 1.0625.33413.04311.67261.07422 1.0195.07422.71098 0 1.3986-.0925 2.0527-.26562-.74519-.14547-1.4477-.40042-2.0996-.73633-.48569-.0029-.95877-.04932-1.4199-.13477zm5.998 6.1309c-2.4301 1.4973-5.3078 2.3711-8.3984 2.3711-.62928 0-1.2495-.03552-1.8594-.10547.64581.40225 1.3208.76244 2.0098 1.0996 3.5941-.03304 6.902-1.2331 9.5332-3.2363-.43832-.0078-.86729-.05358-1.2852-.12891z" fill="#fff" opacity=".2" transform="matrix(.526297945 0 0 .53333169 -1.631517343 -1.799857122)"/></svg>