<svg height="22" width="22" xmlns="http://www.w3.org/2000/svg"><rect fill="#5db43e" height="19.998" rx="10" ry="9.999" transform="matrix(0 -1 -1 0 0 0)" width="20" x="-21" y="-21"/><path d="m11 1c-5.5395 0-9.9991 4.46-9.9991 10 0 .084-.002.1665 0 .25.1322-5.423 4.5436-9.75 9.9991-9.75s9.8671 4.327 9.9991 9.75c.002-.0835 0-.166 0-.25 0-5.54-4.459-10-9.999-10z" fill="#fff" opacity=".2"/><path d="m14.953 5.5c-2.539 0-3.0153 3.8584-1.5868 3.8584 1.428 0 4.1261-3.8584 1.5868-3.8584zm-3.9109.5936c-.04-.0001485-.08347.0037-.12849.00835-1.4396.1816-.9332 2.617-.167 2.6624.741.0442 1.553-2.6664.294-2.6706zm-2.4951.899c-.0881-.0056-.1855.0111-.294.0555-1.1565.475-.1755 2.4355.472 2.3037.5876-.1194.6718-2.3041-.178-2.3593zm-1.8877 1.6028c-.1005-.0028-.209.0319-.325.1183-.92572.69095.31147 2.3602.85617 2.1014.47646-.2267.17248-2.1941-.53135-2.2196zm5.4678 1.5936c-2.006-.035-4.6524.983-5.1038 3.029-.4885 2.212 2.0123 5.282 4.6208 5.282 1.2833 0 2.7636-1.173 3.0407-2.6584.21148-1.1326-2.4891-.6787-2.3922.07067.11649.8984-.65134 1.3425-1.4032.76345-2.3933-1.8437 3.9629-2.7638 3.5436-5.2825-.13049-.7841-1.1034-1.1834-2.3068-1.204z" opacity=".2"/><path d="m14.953 5c-2.539 0-3.0153 3.8584-1.5868 3.8584 1.428 0 4.1261-3.8584 1.5868-3.8584zm-3.9109.5936c-.04-.0001485-.08347.0037-.12849.00835-1.4396.1816-.9332 2.617-.167 2.6624.741.0442 1.553-2.6664.294-2.6706zm-2.4951.899c-.0881-.0056-.1855.0111-.294.0555-1.1565.475-.1755 2.4355.472 2.3037.5876-.1194.6718-2.3041-.178-2.3593zm-1.8877 1.6028c-.1005-.0028-.209.0319-.325.1183-.92572.69095.31147 2.3602.85617 2.1014.47646-.2267.17248-2.1941-.53135-2.2196zm5.4678 1.5936c-2.006-.0345-4.6524.983-5.1038 3.029-.4885 2.212 2.0123 5.282 4.6208 5.282 1.2833 0 2.7636-1.173 3.0407-2.6584.21148-1.1326-2.4891-.6787-2.3922.07066.11649.8984-.65134 1.3425-1.4032.76345-2.3933-1.8437 3.9629-2.7638 3.5436-5.2825-.13049-.7841-1.1034-1.1834-2.3068-1.204z" fill="#fff"/><path d="m1.0067 11.25c-.00205.0835-.00585.166-.00585.25 0 5.54 4.4596 10 9.9991 10s9.9991-4.46 9.9991-10c0-.084-.004-.1665-.006-.25-.132 5.423-4.537 9.75-9.993 9.75-5.4555 0-9.8611-4.327-9.9931-9.75z" opacity=".2"/></svg>