<svg height="22" width="22" xmlns="http://www.w3.org/2000/svg"><rect fill="#63c4ad" height="20" rx="1" transform="matrix(0 -1 -1 0 0 0)" width="20" x="-21" y="-21"/><path d="m2 1c-.554 0-1 .446-1 1v.5c0-.554.446-1 1-1h18c.554 0 1 .446 1 1v-.5c0-.554-.446-1-1-1z" fill="#fff" opacity=".2"/><path d="m2 21.5c-.554 0-1-.446-1-1v-.5c0 .554.446 1 1 1h18c.554 0 1-.446 1-1v.5c0 .554-.446 1-1 1z" opacity=".2"/><path d="m16.994 14v2h1.916l-3.201 7.863c-1.6647-.50236-3.4458.29364-4.182 1.869-.81661 1.7521-.05817 3.8345 1.694 4.651 1.7518.81755 3.8347.05997 4.652-1.692.73272-1.5767.19698-3.4522-1.258-4.404l3.399-8.287h5.98v9.039c-1.718.251-2.993 1.724-2.994 3.461 0 1.933 1.567 3.5 3.5 3.5s3.5-1.567 3.5-3.5c-.002-1.7406-1.2828-3.2153-3.006-3.461v-9.039h6v9.039c-1.718.251-2.993 1.724-2.994 3.461 0 1.933 1.567 3.5 3.5 3.5s3.5-1.567 3.5-3.5c-.002-1.7406-1.2828-3.2153-3.006-3.461v-9.039h3v-2z" opacity=".2" transform="matrix(.5 0 0 .5 -1.59964 -.5)"/><path d="m16.994 14v2h1.916l-3.201 7.863c-1.6647-.50236-3.4458.29364-4.182 1.869-.81661 1.7521-.05817 3.8345 1.694 4.651 1.7518.81755 3.8347.05997 4.652-1.692.73272-1.5767.19698-3.4522-1.258-4.404l3.399-8.287h5.98v9.039c-1.718.251-2.993 1.724-2.994 3.461 0 1.933 1.567 3.5 3.5 3.5s3.5-1.567 3.5-3.5c-.002-1.7406-1.2828-3.2153-3.006-3.461v-9.039h6v9.039c-1.718.251-2.993 1.724-2.994 3.461 0 1.933 1.567 3.5 3.5 3.5s3.5-1.567 3.5-3.5c-.002-1.7406-1.2828-3.2153-3.006-3.461v-9.039h3v-2z" fill="#fff" transform="matrix(.5 0 0 .5 -1.59964 -1)"/></svg>