<svg height="22" width="22" xmlns="http://www.w3.org/2000/svg"><path d="m10 3.002c-1.742.013-2.477.72-2.477 2.508v2.44c0 1.114-.034 2.404-1.015 2.404h-.508v1.29h.508c.981 0 1.015 1.29 1.015 2.404v2.441c0 1.787.735 2.495 2.477 2.508v-1.184c-1.135-.013-1.156-.5-1.156-2.209v-2.014c0-.831-.205-2.068-1.203-2.58.998-.513 1.203-1.751 1.203-2.582v-2.033c0-1.708.021-2.196 1.156-2.21v-1.182zm2 .002v1.183c1.119.019 1.156.508 1.156 2.208v2.033c0 .83.205 2.07 1.203 2.582-.998.512-1.203 1.749-1.203 2.58v2.015c0 1.7-.037 2.19-1.156 2.207v1.184c1.73-.017 2.477-.724 2.477-2.506v-2.44c0-1.114.068-2.404 1.033-2.404h.49v-1.29h-.49c-.965 0-1.033-1.29-1.033-2.404v-2.442c0-1.782-.746-2.489-2.477-2.506zm-8 14.996v1h1v-1z" fill="#f9d24c"/></svg>