<svg height="32" viewBox="0 0 32 32" width="32" xmlns="http://www.w3.org/2000/svg" xmlns:xlink="http://www.w3.org/1999/xlink"><linearGradient id="a" gradientUnits="userSpaceOnUse" x1="399.57" x2="399.57" y1="545.8" y2="517.8"><stop offset="0" stop-color="#3889e9"/><stop offset="1" stop-color="#5ea5fb"/></linearGradient><linearGradient id="b" gradientUnits="userSpaceOnUse" x1="400.4509574" x2="400.633118" y1="545.4381518" y2="518.3058098"><stop offset="0" stop-color="#3f4952"/><stop offset="1" stop-color="#67747f"/></linearGradient><linearGradient id="c" gradientUnits="userSpaceOnUse" x1="41.165" x2="54.039" y1="89.364" y2="20.836"><stop offset="0" stop-color="#e3e3e3"/><stop offset="1" stop-color="#fffcff"/></linearGradient><filter id="d" color-interpolation-filters="sRGB" height="1.072" width="1.072" x="-.036" y="-.036"><feGaussianBlur stdDeviation=".40267136"/></filter><g transform="translate(-384.57 -515.8)"><ellipse cx="400.57" cy="531.8" fill="url(#a)"/><g transform="matrix(1.11755929 0 0 1.11755929 -47.0153395 -62.45977)"><circle cx="400.51" cy="531.76" filter="url(#d)" opacity=".25" r="13.422"/><circle cx="400.51" cy="531.76" fill="url(#b)" r="13.422"/><circle cx="400.57" cy="531.8" fill="none" r="14"/><path d="m72.766 74.275c-13.366-10.451-3.933-53.438-3.933-53.438h16.336c1.705 0 8.389-1.072 8.389-9.076 0-9.846-8.168-9.241-8.168-9.241h-60.147c-9.873 0-18.784 11.304-23.899 19.389-2.723 4.318-1.183 5.528 3.493 3.493 16.392-7.178 21.012-4.593 21.012-4.593 1.155 5.528 1.54 30.473-2.667 40.318-4.263 9.269-12.128 21.012-.578 27.915 9.021 5.115 18.481-5.391 17.546-23.268-.44-9.461-1.183-44.938-1.183-44.938h15.072c-.469 5.528-3.025 33.745-.357 50.467 2.777 27.915 33.112 22.497 38.777 6.685 1.402-4.373 1.073-7.729.027-10.26-1.926-4.702-5.144-4.949-4.785-2.75.221 1.402.083 2.777-.138 4.016-.661 3.823-8.471 9.817-14.797 5.281z" fill="url(#c)" opacity=".9" transform="matrix(.14254 0 0 .14254 393.45 525.46)"/></g></g></svg>