<svg height="22" width="22" xmlns="http://www.w3.org/2000/svg"><rect fill="#ffc35a" height="14.727" rx="1" transform="matrix(.70710678 .70710678 -.70710678 .70710678 0 0)" width="14.727" x="8.19" y="-7.36"/><path d="m11 5.5001v3.493l-2 2 .007.007h-.007v5.0001h1v-4.5931l1-1v5.5931h1v-10.5z" fill="#2e2e2e" stroke-opacity=".55" stroke-width="2.8"/><path d="m1.0361 11.25c-.086101.3315-.0028.69651.2578.95701l8.9991 8.9991c.3915.392 1.0225.392 1.414 0l8.9991-8.9991c.2605-.2605.344-.62551.258-.95701-.0435.167-.127.326-.258.457l-8.9991 8.9991c-.3915.392-1.0225.392-1.414 0l-8.9991-8.999c-.1313-.131-.2146-.29-.2579-.457z" opacity=".2"/><path d="m11 1c-.2555 0-.51101.098051-.70701.29395l-8.9991 8.999c-.26065.2605-.34395.62551-.25785.95701.0433-.167.1266-.326.2578-.45701l8.9992-8.999c.3915-.3918 1.0225-.3918 1.414-.00005l8.9991 8.9991c.131.131.2145.29.258.45701.086-.3315.0025-.69651-.258-.95701l-8.999-8.9991c-.196-.1959-.452-.29398-.707-.29398z" fill="#fff" opacity=".2"/></svg>