<svg height="22" viewBox="0 0 22 22" width="22" xmlns="http://www.w3.org/2000/svg"><path d="m5.75 2-.75 2v15.986l.8008 1.014h-.0508v.5h10.5v-.5h-.05078l.801-1.014v-15.986l-.75-2h-10.5z" opacity=".2"/><path d="m5.75 1.5h10.5l.75 2v15.986l-.8 1.014h-10.4l-.8-1.014v-15.986z" fill="#c2352a"/><path d="m5.75 1h10.5v.5h-10.5z" fill="#808080"/><path d="m5 4h12v1h-12z" fill="#fff"/><path d="m5.75 20.5h10.5v.5h-10.5z" fill="#808080"/><g fill="#fff"><path d="m5 18h12v1h-12z"/><path d="m5.75 1.5-.75 2v.5l.75-2h10.5l.75 2v-.5l-.75-2z" opacity=".1"/><path d="m6.1074 4.2305-.7168.6972 1.8008 1.8418a1.5 1.5 0 0 0 -.1914.7305 1.5 1.5 0 0 0 1 1.4121v5.1759a1.5 1.5 0 0 0 -1 1.412 1.5 1.5 0 0 0 1.5 1.5 1.5 1.5 0 0 0 1.5-1.5 1.5 1.5 0 0 0 -1-1.412v-5.1759a1.5 1.5 0 0 0 .19922-.087891l1.9609 2.0078a1.5 1.5 0 0 0 -.16.668 1.5 1.5 0 0 0 1.5 1.5 1.5 1.5 0 0 0 1.5-1.5 1.5 1.5 0 0 0 -1.5-1.5 1.5 1.5 0 0 0 -.621.137l-2-2.0469a1.5 1.5 0 0 0 .121-.5901 1.5 1.5 0 0 0 -1.5-1.5 1.5 1.5 0 0 0 -.5586.1074l-1.834-1.8769z"/></g></svg>