<svg height="22" width="22" xmlns="http://www.w3.org/2000/svg"><rect fill="#ccc" height="19.998" rx="10" ry="9.999" transform="matrix(0 -1 -1 0 0 0)" width="20" x="-21" y="-21"/><path d="m20.542 8.0105c-.14-.4458-.31-.8736-.503-1.2845a1.4999 1.5 0 0 0 -.45154 1.5834 1.4999 1.5 0 0 0 1.2739 1.0418c-.076-.4472-.18-.8952-.319-1.3408zm-.896-2.027c-.337-.5841-.727-1.1241-1.164-1.6177a1.4999 1.5 0 0 0 .05915.60365 1.4999 1.5 0 0 0 1.1046 1.014zm1.3166 4.2028a1.4999 1.5 0 0 0 -.3286 1.463 1.4999 1.5 0 0 0 .29519.53075c.07711-.65485.08992-1.3212.0334-1.9938zm-2.898-5.0672a1.4999 1.5 0 0 0 -1.88-.9829 1.4999 1.5 0 0 0 -.983 1.8799 1.4999 1.5 0 0 0 1.88.9829 1.4999 1.5 0 0 0 .983-1.8799zm1.046 3.34a1.4999 1.5 0 0 0 -1.88-.983 1.4999 1.5 0 0 0 -.983 1.8799 1.4999 1.5 0 0 0 1.88.9833 1.4999 1.5 0 0 0 .983-1.8802zm1.0463 3.34a1.4999 1.5 0 0 0 -1.8797-.98295 1.4999 1.5 0 0 0 -.98286 1.8798 1.4999 1.5 0 0 0 1.8797.98295 1.4999 1.5 0 0 0 .98286-1.8798zm.29646 2.4522a1.4999 1.5 0 0 0 -1.1298-.09525 1.4999 1.5 0 0 0 -.98286 1.8798 1.4999 1.5 0 0 0 .72354.8724c.59435-.8113 1.0623-1.7058 1.3892-2.657zm-3.546-11.316c-.811-.5945-1.705-1.0624-2.656-1.3894a1.4999 1.5 0 0 0 -.096 1.13 1.4999 1.5 0 0 0 1.88.9829 1.4999 1.5 0 0 0 .872-.7236zm-3.229-.11a1.4999 1.5 0 0 0 -1.879-.9829 1.4999 1.5 0 0 0 -.983 1.8799 1.4999 1.5 0 0 0 1.879.9827 1.4999 1.5 0 0 0 .983-1.8797zm1.046 3.34a1.4999 1.5 0 0 0 -1.879-.983 1.4999 1.5 0 0 0 -.983 1.8799 1.4999 1.5 0 0 0 1.88.9829 1.4999 1.5 0 0 0 .982-1.8798zm1.0463 3.34a1.4999 1.5 0 0 0 -1.879-.983 1.4999 1.5 0 0 0 -.98286 1.8798 1.4999 1.5 0 0 0 1.8797.98295 1.4999 1.5 0 0 0 .98286-1.8798zm1.0463 3.34a1.4999 1.5 0 0 0 -1.8797-.98295 1.4999 1.5 0 0 0 -.98286 1.8798 1.4999 1.5 0 0 0 1.8797.98295 1.4999 1.5 0 0 0 .98286-1.8798zm1.0463 3.34a1.4999 1.5 0 0 0 -1.8797-.98295 1.4999 1.5 0 0 0 -.98286 1.8798 1.4999 1.5 0 0 0 1.8797.98295 1.4999 1.5 0 0 0 .98286-1.8798zm-5.683-15.116c-.655-.0772-1.321-.09-1.993-.0334a1.4999 1.5 0 0 0 1.4629.3286 1.4999 1.5 0 0 0 .53045-.2952zm5.4535 17.413a1.4999 1.5 0 0 0 -.6036.05916 1.4999 1.5 0 0 0 -1.0139 1.1046c.5841-.33706 1.124-.72715 1.6175-1.1638zm-7.294-14.611a1.4999 1.5 0 0 0 -1.8798-.9829 1.4999 1.5 0 0 0 -.9829 1.8799 1.4999 1.5 0 0 0 1.8797.9829 1.4999 1.5 0 0 0 .983-1.8799zm1.046 3.34a1.4999 1.5 0 0 0 -1.8796-.983 1.4999 1.5 0 0 0 -.9828 1.8799 1.4999 1.5 0 0 0 1.8794.9829 1.4999 1.5 0 0 0 .983-1.8798zm1.0463 3.34a1.4999 1.5 0 0 0 -1.879-.9832 1.4999 1.5 0 0 0 -.9832 1.8802 1.4999 1.5 0 0 0 1.8792.983 1.4999 1.5 0 0 0 .983-1.88zm1.0463 3.34a1.4999 1.5 0 0 0 -1.8797-.98295 1.4999 1.5 0 0 0 -.98286 1.8798 1.4999 1.5 0 0 0 1.8797.98295 1.4999 1.5 0 0 0 .98286-1.8798zm1.0463 3.34a1.4999 1.5 0 0 0 -1.8797-.98295 1.4999 1.5 0 0 0 -.98286 1.8798 1.4999 1.5 0 0 0 1.8797.98295 1.4999 1.5 0 0 0 .98286-1.8798zm.74983 2.8086a1.4999 1.5 0 0 0 -1.5833-.45158 1.4999 1.5 0 0 0 -1.0417 1.274c.4472-.07587.89517-.18018 1.3406-.31974.44575-.13966.87352-.30964 1.2843-.5027zm-5.9223-18.903c-.4469.0759-.8949.1802-1.3403.3197-.446.1397-.8735.3097-1.2844.5028a1.4999 1.5 0 0 0 1.5833.45158 1.4999 1.5 0 0 0 1.0417-1.274zm-2.3521 3.7805a1.4999 1.5 0 0 0 -1.8797-.983 1.4999 1.5 0 0 0 -.9829 1.8798 1.4999 1.5 0 0 0 1.8797.983 1.4999 1.5 0 0 0 .9829-1.8798zm1.0462 3.3399a1.4999 1.5 0 0 0 -1.8796-.9829 1.4999 1.5 0 0 0 -.9829 1.8798 1.4999 1.5 0 0 0 1.8797.983 1.4999 1.5 0 0 0 .9828-1.8799zm1.0463 3.34a1.4999 1.5 0 0 0 -1.8797-.983 1.4999 1.5 0 0 0 -.9828 1.88 1.4999 1.5 0 0 0 1.8796.983 1.4999 1.5 0 0 0 .9829-1.88zm1.0459 3.34a1.4999 1.5 0 0 0 -1.8793-.983 1.4999 1.5 0 0 0 -.9829 1.88 1.4999 1.5 0 0 0 1.8797.983 1.4999 1.5 0 0 0 .9825-1.88zm1.0463 3.34a1.4999 1.5 0 0 0 -1.8791-.983 1.4999 1.5 0 0 0 -.9828 1.88 1.4999 1.5 0 0 0 1.8799.983 1.4999 1.5 0 0 0 .983-1.88zm-5.1999-15.925c-.584.3371-1.1239.7272-1.6179 1.1638a1.4999 1.5 0 0 0 .604-.0591 1.4999 1.5 0 0 0 1.0139-1.1047zm5.8295 18.61a1.4999 1.5 0 0 0 -1.4629-.32864 1.4999 1.5 0 0 0 -.5307.29522c.65479.07712 1.3211.08993 1.9936.03341zm-8.1542-14.999a1.4999 1.5 0 0 0 -.7235-.8724c-.59435.8113-1.0623 1.7059-1.3892 2.657a1.4999 1.5 0 0 0 1.1298.0955 1.4999 1.5 0 0 0 .98286-1.88zm1.0462 3.34a1.4999 1.5 0 0 0 -1.8796-.983 1.4999 1.5 0 0 0 -.9829 1.8796 1.4999 1.5 0 0 0 1.8797.983 1.4999 1.5 0 0 0 .9828-1.8796zm1.0463 3.34a1.4999 1.5 0 0 0 -1.8797-.983 1.4999 1.5 0 0 0 -.9828 1.88 1.4999 1.5 0 0 0 1.8796.983 1.4999 1.5 0 0 0 .9829-1.88zm1.0463 3.34a1.4999 1.5 0 0 0 -1.8797-.983 1.4999 1.5 0 0 0 -.9829 1.88 1.4999 1.5 0 0 0 1.8797.983 1.4999 1.5 0 0 0 .9829-1.88zm1.0463 3.34a1.4999 1.5 0 0 0 -1.8798-.983 1.4999 1.5 0 0 0 -.8723.724c.81123.5944 1.7057 1.0624 2.6568 1.3893a1.4999 1.5 0 0 0 .095491-1.1305zm-6.4784-8.974a1.4999 1.5 0 0 0 -.2953-.5302c-.07715.6552-.08995 1.3212-.0334 1.9932a1.4999 1.5 0 0 0 .32861-1.463zm1.0463 3.34a1.4999 1.5 0 0 0 -1.274-1.041c.075858.44724.18017.89525.31972 1.3408.13965.44578.30961.8736.50266 1.2844a1.4999 1.5 0 0 0 .45153-1.5834zm1.0463 3.34a1.4999 1.5 0 0 0 -1.1046-1.014c.33704.58415.72709 1.1242 1.1637 1.6176a1.4999 1.5 0 0 0 -.059145-.6035z" fill="#fff" opacity=".4"/><path d="m11 1c-5.5395 0-9.9991 4.46-9.9991 10 0 .084-.002.1665 0 .25.1322-5.423 4.5436-9.75 9.9991-9.75s9.8671 4.327 9.9991 9.75c.002-.0835 0-.166 0-.25 0-5.54-4.459-10-9.999-10z" fill="#fff" opacity=".2"/><path d="m1.0067 11.25c-.00205.0835-.00585.166-.00585.25 0 5.54 4.4596 10 9.9991 10s9.9991-4.46 9.9991-10c0-.084-.004-.1665-.006-.25-.132 5.423-4.537 9.75-9.993 9.75-5.4555 0-9.8611-4.327-9.9931-9.75z" opacity=".2"/></svg>