<svg height="22" width="22" xmlns="http://www.w3.org/2000/svg"><rect fill="#5f7c8a" height="20" rx="1" transform="matrix(0 -1 -1 0 0 0)" width="16" x="-19" y="-21"/><path d="m-17-19h12v16h-12z" fill="#7f96a1" transform="matrix(0 -1 -1 0 0 0)"/><path d="m2 3c-.554 0-1 .446-1 1v.5c0-.554.446-1 1-1h18c.554 0 1 .446 1 1v-.5c0-.554-.446-1-1-1z" fill="#fff" opacity=".2"/><path d="m1 18v.5c0 .554.446 1 1 1h18c.554 0 1-.446 1-1v-.5c0 .554-.446 1-1 1h-18c-.554 0-1-.446-1-1z" opacity=".2"/><rect fill="#fff" height="10" rx=".5" ry=".455" width="4" x="14" y="6"/></svg>