<svg height="16" width="16" xmlns="http://www.w3.org/2000/svg"><g fill="#808080"><g opacity=".5" stroke-width=".35355"><path d="m2 4v1h-2v-1zm0 3v1h-2v-1zm0 3v1h-2v-1z"/><path d="m16 4v1h-2v-1zm0 3v1h-2v-1zm0 3v1h-2v-1z"/></g><path d="m2.8008 2c-.4432 0-.80078.35758-.80078.80078v10.398c0 .4432.35758.80078.80078.80078h10.398c.4432 0 .80078-.35758.80078-.80078v-10.398c0-.4432-.35758-.80078-.80078-.80078zm.19922 1h10v10h-10z"/><path d="m4 5v1h5v-1zm6 0v1h2v-1zm-6 3v1h3v-1zm4 0v1h2v-1zm-4 3v1h1v-1zm2 0v1h2v-1zm3 0v1h2v-1z"/></g></svg>