<svg height="32" viewBox="0 0 32 32" width="32" xmlns="http://www.w3.org/2000/svg" xmlns:xlink="http://www.w3.org/1999/xlink"><linearGradient id="a" gradientUnits="userSpaceOnUse" x1="399.57" x2="399.57" y1="545.8" y2="517.8"><stop offset="0" stop-color="#3889e9"/><stop offset="1" stop-color="#5ea5fb"/></linearGradient><linearGradient id="b" gradientUnits="userSpaceOnUse" x1="400.4509574" x2="400.633118" y1="545.4381518" y2="518.3058098"><stop offset="0" stop-color="#2fae61"/><stop offset="1" stop-color="#4bdf88"/></linearGradient><linearGradient gradientUnits="userSpaceOnUse" x1="226.91" x2="205.13" y1="358.16" y2="7.441"><stop offset="0" stop-color="#f3f3f3"/><stop offset="1" stop-color="#fffcff"/></linearGradient><linearGradient gradientUnits="userSpaceOnUse" x1="173.1" x2="205.13" y1="358.16" y2="7.441"><stop offset="0" stop-color="#e3e3e3"/><stop offset="1" stop-color="#fffcff"/></linearGradient><linearGradient id="c" gradientUnits="userSpaceOnUse" x1="238.07" x2="205.13" y1="372.36" y2="7.441"><stop offset="0" stop-color="#e8e8e8" stop-opacity=".925"/><stop offset="1" stop-color="#fffcff"/></linearGradient><filter id="d" color-interpolation-filters="sRGB" height="1.072" width="1.072" x="-.036" y="-.036"><feGaussianBlur stdDeviation=".40267136"/></filter><filter id="e" color-interpolation-filters="sRGB" height="1.0846" width="1.0627" x="-.031347" y="-.042276"><feGaussianBlur stdDeviation="4.2418752"/></filter><g transform="translate(-384.57 -515.8)"><ellipse cx="400.57" cy="531.8" fill="url(#a)"/><g transform="matrix(1.11755929 0 0 1.11755929 -47.0153395 -62.45977)"><circle cx="400.51" cy="531.76" filter="url(#d)" opacity=".25" r="13.422"/><circle cx="400.51" cy="531.76" fill="url(#b)" r="13.422"/><circle cx="400.57" cy="531.8" fill="none" r="14"/><g filter="url(#e)" opacity=".25" transform="matrix(.059807 0 0 .059807 827.81 529.6)"><g transform="matrix(.6710345079 0 0 .6710345079 -7310.42608370294 -113.38808833554)"><path d="m241.9 306.47 242.11-116.63v-10.65l-242.11-116.629-241.9 116.519v10.87z"/><path d="m83.808 251.57v69.7l145.84 70.25h24.506l145.44-70.057c.14-.307.271-.613.402-.922v-68.972l-158.09 76.152-158.09-76.151z"/><path d="m470.98 396.2-12.47-38v-135.6l-19.15 9.66v125.94l-12.48 38 18.86 25.24h6.38z"/></g></g><g fill="url(#c)" transform="matrix(.04013256081 0 0 .04013256081 390.59534721198 522.81859860092)"><path d="m241.9 306.47 242.11-116.63v-10.65l-242.11-116.629-241.9 116.519v10.87z"/><path d="m83.808 251.57v69.7l145.84 70.25h24.506l145.44-70.057c.14-.307.271-.613.402-.922v-68.972l-158.09 76.152-158.09-76.151z"/><path d="m470.98 396.2-12.47-38v-135.6l-19.15 9.66v125.94l-12.48 38 18.86 25.24h6.38z"/></g></g></g></svg>