<svg height="64" width="64" xmlns="http://www.w3.org/2000/svg" xmlns:xlink="http://www.w3.org/1999/xlink"><linearGradient id="a" gradientUnits="userSpaceOnUse" x1="1.9975784" x2="61.9949488" y1="1.99987428" y2="61.9998904"><stop offset="0" stop-color="#28afea"/><stop offset="1" stop-color="#838be4"/></linearGradient><rect fill="url(#a)" height="60.001" ry="3" stroke-width="3.7796" width="60.001" x="2" y="1.9994"/><path d="m30.377-42.473h32v32h-32z" opacity="0" stroke-width="2.0258"/><g fill="#fff" transform="matrix(2.5 0 0 2.5 -75.5 -13.002)"><path d="m36.2 9.1986h4c1.108 0 2 .892 2 2v6.0024s-.892-.0024-2-.0024h-4c-1.108 0-2-.892-2-2v-4c0-1.108.892-2 2-2z"/><path d="m49.8 9.1986h-4c-1.108 0-2 .892-2 2v6.0024s.892-.0024 2-.0024h4c1.108 0 2-.892 2-2v-4c0-1.108-.892-2-2-2z"/><path d="m36.2 26.803h4c1.108 0 2-.892 2-2v-6.0024s-.892.0024-2 .0024h-4c-1.108 0-2 .892-2 2v4c0 1.108.892 2 2 2z"/><path d="m49.8 26.803h-4c-1.108 0-2-.892-2-2v-6.0024s.892.0024 2 .0024h4c1.108 0 2 .892 2 2v4c0 1.108-.892 2-2 2z"/></g></svg>