<svg viewBox="0 0 16 16" xmlns="http://www.w3.org/2000/svg"><path d="m3.4941406 3c.21739 1.45492.800815 3.1066031 2.078125 4.5019531-.3461465.532877-.6049652.9957697-1.0117187 1.4980469h-2.5605469v1h1.578125c-.3871203.329411-.869946.6938-1.4960938 1.113281l.828125.988281c.9544377-.70757 1.7194763-1.406759 2.3710938-2.101562h8.71875v-1h-7.8671875c1.5511277-2.0032295 2.1887712-3.9790063 2.8671875-6h-1.21875c-.4129 1.23004-.72519 2.2563125-1.4375 3.3828125-1.02003-1.15879-1.3346714-2.1455425-1.5195312-3.3828125zm8.3867184 0c-.867587.0182-1.53334.1551085-2.0175778.3554688l.2734378.9003906c.232028-.0729001 1.108547-.3261719 1.623047-.3261719h.072265c.716266.0273.765625.2628086.765625.8183594v.21875l-.373047.0546875c-1.735185.2276903-2.6640621.418902-2.6640621 1.6210937 0 .8378912.6757301 1.3574219 1.6542971 1.3574219.675912 0 1.120254-.255482 1.574218-.6015625l.140626.5097656h1.070312v-3.3691406c0-1.0291414-.787452-1.5390625-1.998047-1.5390625zm.716797 2.6777344v1.1210937c-.373258.2276903-.656387.390625-1.140625.390625-.433793 0-.644531-.2457164-.644531-.5917969 0-.6557409.635308-.7650542 1.412109-.8652343z" fill="#5d656b"/></svg>