<?xml version="1.0" encoding="UTF-8"?>
<!-- Created with Inkscape (http://www.inkscape.org/) -->
<svg id="svg7384" width="16" height="16" enable-background="new" version="1.1" xmlns="http://www.w3.org/2000/svg" xmlns:cc="http://creativecommons.org/ns#" xmlns:dc="http://purl.org/dc/elements/1.1/" xmlns:rdf="http://www.w3.org/1999/02/22-rdf-syntax-ns#">
 <metadata id="metadata90">
  <rdf:RDF>
   <cc:Work rdf:about="">
    <dc:format>image/svg+xml</dc:format>
    <dc:type rdf:resource="http://purl.org/dc/dcmitype/StillImage"/>
    <dc:title>Paper Symbolic Icon Theme</dc:title>
   </cc:Work>
  </rdf:RDF>
 </metadata>
 <title id="title8473">Paper Symbolic Icon Theme</title>
 <g id="layer12" transform="matrix(1.0811 0 0 1.0714 -524.91 -108.49)" fill="#555">
  <path id="path10500" d="m491.19 101.72-0.1543 1.8438c-0.58462 0.21656-1.1282 0.53093-1.6074 0.92969l-1.6758-0.78906-1.75 3.0312 1.5215 1.0566c-0.0542 0.30631-0.0823 0.61667-0.084 0.92773 2.1e-4 0.31226 0.027 0.62393 0.0801 0.93164l-1.5176 1.0527 1.75 3.0312 1.6719-0.7871c0.48084 0.39706 1.0257 0.70945 1.6113 0.92382l0.1543 1.8477h3.5l0.1543-1.8438c0.58462-0.21656 1.1282-0.53093 1.6074-0.92969l1.6758 0.78906 1.75-3.0312-1.5215-1.0566c0.0542-0.30631 0.0823-0.61667 0.084-0.92773-2.1e-4 -0.31226-0.027-0.62393-0.0801-0.93164l1.5176-1.0527-1.75-3.0312-1.6719 0.7871c-0.48084-0.39706-1.0257-0.70945-1.6113-0.92382l-0.1543-1.8477z" enable-background="new" fill="#555"/>
 </g>
 <path id="path5938" d="m8.0001 4.25c0.28107 0 0.50893 0.22386 0.50893 0.5-1.48e-4 0.01665-1e-3 0.033251-3e-3 0.0498 1.1656 0.22942 2.0388 1.2356 2.0387 2.4502l-7.1e-5 1v1.25l1.0179 1v0.25h-7.1251v-0.25l1.0179-1 7.16e-5 -2.25c4.09e-5 -1.2146 0.87316-2.2208 2.0387-2.4502-2e-3 -0.016549-3e-3 -0.03315-3e-3 -0.0498 0-0.27614 0.22786-0.5 0.50893-0.5zm0.87962 7c-0.1815 0.30886-0.51669 0.49937-0.87969 0.5-0.36336-2.8e-4 -0.69901-0.19084-0.88069-0.5z" enable-background="new" fill="#fff"/>
</svg>
