<svg viewBox="0 0 16 16" xmlns="http://www.w3.org/2000/svg"><path d="m8 2c-1.6568542 0-3 1.3431458-3 3h-3v1 7 1h7v-1h-6v-7h2v1.0878906c-.5985922.2116336-.9991092.7772073-1 1.4121094 0 .8284271.6715729 1.5 1.5 1.5s1.5-.6715729 1.5-1.5c-.0008908-.6349021-.4014078-1.2004758-1-1.4121094v-1.0878906h4v2h1v-2h2v3h1v-3-1h-3c0-1.6568542-1.3431458-3-3-3zm0 1c1.1045695 0 2 .8954305 2 2h-4c0-1.1045695.8954305-2 2-2zm-2.5 5c.2761424 0 .5.2238576.5.5s-.2238576.5-.5.5-.5-.2238576-.5-.5.2238576-.5.5-.5zm5.5 1v2h-2v1h2v2h1v-2h2v-1h-2v-2z" fill="#5d656b"/></svg>