<?xml version="1.0" encoding="UTF-8"?>
<!-- Created with Inkscape (http://www.inkscape.org/) -->
<svg id="svg7384" width="16" height="16" enable-background="new" version="1.1" xmlns="http://www.w3.org/2000/svg" xmlns:cc="http://creativecommons.org/ns#" xmlns:dc="http://purl.org/dc/elements/1.1/" xmlns:rdf="http://www.w3.org/1999/02/22-rdf-syntax-ns#">
 <metadata id="metadata90">
  <rdf:RDF>
   <cc:Work rdf:about="">
    <dc:format>image/svg+xml</dc:format>
    <dc:type rdf:resource="http://purl.org/dc/dcmitype/StillImage"/>
    <dc:title>Paper Symbolic Icon Theme</dc:title>
   </cc:Work>
  </rdf:RDF>
 </metadata>
 <title id="title8473">Paper Symbolic Icon Theme</title>
 <path id="rect828" d="m4.3333 0.5c-1.0157 0-1.8333 0.83625-1.8333 1.875v11.25c0 1.0388 0.81767 1.875 1.8333 1.875h7.3333c1.0157 0 1.8333-0.83625 1.8333-1.875v-11.25c0-1.0388-0.81767-1.875-1.8333-1.875zm0.36667 2.625h6.6v6.75h-6.6zm3.3 8.25a1.1 1.125 0 0 1 1.1 1.125 1.1 1.125 0 0 1-1.1 1.125 1.1 1.125 0 0 1-1.1-1.125 1.1 1.125 0 0 1 1.1-1.125z" fill="#555" fill-opacity=".94118" style="paint-order:markers stroke fill"/>
</svg>
