<?xml version="1.0" encoding="UTF-8"?>
<svg id="svg16" width="16" height="16" version="1" xmlns="http://www.w3.org/2000/svg" xmlns:cc="http://creativecommons.org/ns#" xmlns:dc="http://purl.org/dc/elements/1.1/" xmlns:rdf="http://www.w3.org/1999/02/22-rdf-syntax-ns#">
 <metadata id="metadata22">
  <rdf:RDF>
   <cc:Work rdf:about="">
    <dc:format>image/svg+xml</dc:format>
    <dc:type rdf:resource="http://purl.org/dc/dcmitype/StillImage"/>
    <dc:title/>
   </cc:Work>
  </rdf:RDF>
 </metadata>
 <path id="path39797" d="m7.4231 0.5c-3.8001 0-6.9231 3.123-6.9231 6.9231 0 3.8001 3.123 6.9231 6.9231 6.9231 0.30973 0 0.61255-0.02819 0.91196-0.06836a4.2308 4.2308 0 0 1-0.91196-2.6239 4.2308 4.2308 0 0 1 0.7497-2.4023c-0.23161 0.095873-0.48481 0.14949-0.7497 0.14949-1.0866 0-1.9779-0.89135-1.9779-1.9779 0-1.0866 0.89134-1.9779 1.9779-1.9779 1.0866 0 1.9779 0.89134 1.9779 1.9779 0 0.26714-0.05432 0.5225-0.15174 0.75571a4.2308 4.2308 0 0 1 2.4046-0.75571 4.2308 4.2308 0 0 1 2.6232 0.91722c0.04063-0.3011 0.06911-0.60567 0.06911-0.91722 0-3.8001-3.123-6.9231-6.9231-6.9231z" color="#bebebe" fill="#555" filter="url(#filter7554)" style="text-decoration-line:none;text-indent:0;text-transform:none"/>
 <circle id="circle12-6" cx="11.654" cy="11.654" r="3.8462" fill="#ff5722" stroke-width=".24038"/>
 <path id="path14-7" d="m12.1 9.7308c-1.1798 0.48077-1.888 1.6077-1.888 2.4038 0 0.78721 0.61942 1.426 1.3888 1.4409-0.38446-0.0077-0.69418-0.3263-0.69418-0.71976 0-0.39828 0.354-0.96154 0.94399-1.2019 0 0.84135 0.63346 0.96298 0.47199 1.4423-0.09155 0.27179-0.31487 0.47808-0.70202 0.4803 0.0023 1.2e-5 0.0049 2.65e-4 0.0074 2.65e-4 0.78202 0 1.2319-0.415 1.416-0.96154 0.32293-0.9587-0.94399-1.2019-0.94399-2.8846z" fill="#fff" stroke-width=".24038"/>
</svg>
