<svg viewBox="0 0 16 16" xmlns="http://www.w3.org/2000/svg"><path d="m8 2c-1.657 0-3 1.343-3 3h-3v9h6v-1h-5v-7h2v1.0878906c-.599.212-.999.7771094-1 1.4121094 0 .828.672 1.5 1.5 1.5s1.5-.672 1.5-1.5c-.001-.635-.401-1.2001094-1-1.4121094v-1.0878906h4v2h1v-2h2v2h1v-3h-3c0-1.657-1.343-3-3-3zm0 1c1.105 0 2 .895 2 2h-4c0-1.105.895-2 2-2zm-2.5 5c.276 0 .5.224.5.5s-.224.5-.5.5-.5-.224-.5-.5.224-.5.5-.5z" fill="#5d656b"/><path d="m9 9.83 1.667 1.667-1.667 1.667.833.833 1.667-1.667 1.667 1.667.833-.833-1.667-1.667 1.667-1.667-.833-.833-1.667 1.667-1.667-1.667z" fill="#da4453"/></svg>