<svg viewBox="0 0 16 16" xmlns="http://www.w3.org/2000/svg"><path d="m5.2597656 2.5996094c-1.3712939.6010896-2.5121922 1.619746-3.2539062 2.90625l.8652344.5c.6349999-1.101 1.6102031-1.9713281 2.7832031-2.4863282zm5.4902344 0-.394531.9199218c1.173.5150001 2.148203 1.3853282 2.783203 2.4863282l.867187-.5c-.741714-1.286504-1.884565-2.3051604-3.255859-2.90625zm-2.7460938 1.4003906a5 5 0 0 0 -5 5 5 5 0 0 0 5 5 5 5 0 0 0 4.9999998-5 5 5 0 0 0 -4.9999998-5zm0 1a4 4 0 0 1 3.9999998 4 4 4 0 0 1 -3.9999998 4 4 4 0 0 1 -4-4 4 4 0 0 1 4-4zm-1.5039062 1.5v5l3.5-2.5z" fill="#5d656b"/></svg>