<svg viewBox="0 0 16 16" xmlns="http://www.w3.org/2000/svg"><path d="m8 2a1.5 1.5 0 0 0 -1.5 1.5 1.5 1.5 0 0 0 .1679688.6855469 5 5 0 0 0 -3.6679688 4.8144531 5 5 0 0 0 5 5 5 5 0 0 0 5-5 5 5 0 0 0 -1.132812-3.1621094l.943359-.9453125a.5.5 0 0 0 .017578-.0175781l.003906-.0019531a.5.5 0 0 0 .167969-.3730469.5.5 0 0 0 -.5-.5.5.5 0 0 0 -.373047.1679688l-.001953-.0019532-.964844.9648438a5 5 0 0 0 -1.8242185-.9492188 1.5 1.5 0 0 0 0-.0019531 1.5 1.5 0 0 0 .1640625-.6796875 1.5 1.5 0 0 0 -1.5-1.5zm0 1a.5.5 0 0 1 .5.5.5.5 0 0 1 -.5.5.5.5 0 0 1 -.5-.5.5.5 0 0 1 .5-.5zm0 2a4 4 0 0 1 4 4 4 4 0 0 1 -4 4 4 4 0 0 1 -4-4 4 4 0 0 1 4-4zm0 1v2a1 1 0 0 1 1 1h2a3 3 0 0 0 -3-3z" fill="#5d656b"/></svg>