<svg viewBox="0 0 16 16" xmlns="http://www.w3.org/2000/svg" xmlns:xlink="http://www.w3.org/1999/xlink"><linearGradient id="a" gradientTransform="matrix(.6 0 0 .56250001 2.2 -576.26626)" gradientUnits="userSpaceOnUse" x1="3" x2="19" y1="1049.3622" y2="1033.3622"><stop offset="0" stop-color="#1d99f3"/><stop offset=".41666669" stop-color="#48acf5" stop-opacity=".761194"/><stop offset=".66666329" stop-color="#73c0f7" stop-opacity="0"/><stop offset="1" stop-color="#cae7fc" stop-opacity="0"/></linearGradient><path d="m8 2c-.24.786-.236 1.283-.625 2h.625zm0 2v3h2c-.564-.91-.786-1.916-1.375-3zm0 3h-2c-.134.216-.914.795-1.031 1l-.969 2h4zm0 3v3h2c.305-.214.959-.214 1.188-.5l.813-2.5zm0 3h-1.531v.438h1.531z" fill="#5d656b"/><path d="m8 1.99997c-.77833 2.55375-2.38681 4.69171-3.5029 6.53772-.29392.5226-.32032 1.07823-.32032 1.71228 0 2.0775 1.58512 3.54008 3.80112 3.54008s3.87847-1.46258 3.87847-3.54008c0-.63405-.29157-1.0571-.58549-1.5797-.90617-1.73552-2.49256-4.11655-3.27088-6.6703z" fill="url(#a)"/><g fill="#5d656b"><path d="m8 2c-.778 2.554-2.354 4.813-3.359 6.516-.294.523-.641 1.1-.641 1.734 0 2.077 1.784 3.75 4 3.75s4-1.673 4-3.75c0-.634-.347-1.123-.641-1.646-1.116-1.724-2.581-4.05-3.359-6.604" fill-opacity=".25"/><path d="m8 2c-1.072 3.818-4 6.079-4 8.188s1.791 3.813 4 3.813 4-1.704 4-3.813-2.928-4.369-4-8.188m-.031 1.438c.862 3.137 3.219 4.986 3.219 6.719s-1.441 3.125-3.219 3.125-3.188-1.392-3.188-3.125 2.325-3.582 3.188-6.719"/></g></svg>