<svg viewBox="0 0 16 16" xmlns="http://www.w3.org/2000/svg"><path d="m4.5 4.0058594a2.4999938 2.5000125 0 0 0 -2.5 2.5 2.4999938 2.5000125 0 0 0 2.5 2.5h7a1.4999963 1.5000075 0 0 1 1.5 1.4999996 1.4999963 1.5000075 0 0 1 -1.5 1.5h-7.5v1h7.5a2.4999938 2.5000125 0 0 0 2.5-2.5 2.4999938 2.5000125 0 0 0 -2.5-2.4999996h-7a1.4999963 1.5000075 0 0 1 -1.5-1.5 1.4999963 1.5000075 0 0 1 1.5-1.5h7.5v-1z" fill="#5d656b"/><path d="m12.5 3.0019531a1.5 1.5 0 0 0 -1.5 1.5 1.5 1.5 0 0 0 1.5 1.5 1.5 1.5 0 0 0 1.5-1.5 1.5 1.5 0 0 0 -1.5-1.5zm0 1a.50000025.500001 0 0 1 .5.5.50000025.500001 0 0 1 -.5.5.50000025.500001 0 0 1 -.5-.5.50000025.500001 0 0 1 .5-.5zm-9 6.9999999a1.5 1.5 0 0 0 -1.5 1.5 1.5 1.5 0 0 0 1.5 1.5 1.5 1.5 0 0 0 1.5-1.5 1.5 1.5 0 0 0 -1.5-1.5zm0 1a.50000025.500001 0 0 1 .5.5.50000025.500001 0 0 1 -.5.5.50000025.500001 0 0 1 -.5-.5.50000025.500001 0 0 1 .5-.5z" fill="#3daee9"/></svg>