<svg viewBox="0 0 16 16" xmlns="http://www.w3.org/2000/svg"><path d="m9.5234375 2c0 1.42386 1.0053385 2.6025519 1.7617185 3.3261719-.89909.91332-2.007266 1.3257981-4.035156 1.6738281l.2070312 1c4.5205298-.77582 6.5429688-3.61836 6.5429688-6h-1.107422c0 .69264-.349859 2.0299619-.949219 2.5449219-.61184-.57981-1.351405-1.4771269-1.529297-2.5292969zm-5.5234375 4-2 3h4zm7.759766 3.0332031c-.867588.0182001-1.533341.1551085-2.0175785.3554688l.2714845.9003901c.232028-.072898 1.1105-.3281245 1.625-.3281245h.070312c.716266.0273.765625.2647615.765625.8203125v.21875l-.373047.054688c-1.735185.227688-2.6621089.418902-2.6621089 1.621093 0 .837891.6757299 1.357422 1.6542969 1.357422.675913 0 1.120254-.255482 1.574219-.601562l.140625.509765h1.068359v-3.36914c0-1.0291426-.785499-1.5390629-1.996094-1.5390629zm-9.759766 1.9667969 2 3 2-3zm10.474609.710938v1.11914c-.373258.22769-.654434.392578-1.138671.392578-.433796 0-.646485-.245716-.646485-.591797 0-.655741.635309-.765054 1.412109-.865234z" fill="#5d656b"/></svg>