<svg viewBox="0 0 16 16" xmlns="http://www.w3.org/2000/svg"><path d="m8.1308594 2.0039062c-2.89971.11843-5.300505 2.6573038-5.171875 5.6523438.0242.56261.1584094 1.0947825.3496094 1.6015625l1.4628906-.4863281c-.1454-.35168-.2492238-.7224244-.2773438-1.1152344-.15442-2.15724 1.5604488-4.0034487 3.6367188-4.1367188 2.3258496-.1492799 4.3076236 1.7901588 4.4335936 4.1367188.13912 2.59151-1.930274 4.794962-4.4335936 4.919922-2.17817.10874-4.0733356-1.33324-4.8222656-3.3183595l-1.3085938.4335937c.92184 2.5482398 3.3516994 4.4007378 6.1308594 4.3046878 3.2730396-.11311 5.9860546-2.964444 5.8652346-6.339844-.11306-3.15931-2.748485-5.7796437-5.8652346-5.6523438zm-3.359375 6.7675782c.55402 1.3400196 1.868725 2.2980026 3.359375 2.1640626 1.60501-.14423 2.9282866-1.600607 2.7480466-3.279297-.14767-1.37532-1.3649666-2.5137606-2.7480466-2.3066406-1.05872.15856-1.9464482 1.1826406-1.7050782 2.3066406.0374.17414.1118844.3433869.2089844.4980469l1.4960938-.4980469c.72804 0 .45424.874055 0 1.078125-.58461.26266-1.1778138-.0732181-1.4960938-.5800781z" fill="#5d656b"/></svg>