<svg viewBox="0 0 16 16" xmlns="http://www.w3.org/2000/svg"><path d="m13.427734 2.0058594a1.500133 6.7506007 44.989453 0 0 -5.3769528 3.8242187 1.500133 6.7506007 44.989453 0 0 -2.65625 3.0859375c.8069801.2571 1.4363594.8860594 1.6933594 1.6933594a1.500133 6.7506007 44.989453 0 0 3.0839844-2.6582031 1.500133 6.7506007 44.989453 0 0 3.710937-5.8339844 1.500133 6.7506007 44.989453 0 0 -.248046-.1113281 1.500133 6.7506007 44.989453 0 0 -.207032 0zm-1.427734 5.9941406c-.38917 1.27687-1.36131 2.37115-1.78125 3.25-.14695.2613-.21875.55798-.21875.875 0 1.03875.892 1.875 2 1.875s2-.83625 2-1.875c0-.31702-.10302-.6137-.25-.875-.41994-.87885-1.36084-1.97313-1.75-3.25zm-7 1.9960938v.0039062c-2.99992.8042-.75006 2.7027-3 4 2.99992 0 4.5-1.500753 4.5-2.501953 0-.4991.05095-1.418953-1.5-1.5019532z" fill="#5d656b"/></svg>