<svg viewBox="0 0 16 16" xmlns="http://www.w3.org/2000/svg"><path d="m9.15625 2-7.15625 7.125v2.875c1.075.019 2.84375 0 2.84375 0l7.15625-7.15625zm-.71875 2.15625 1.40625 1.40625-2.8457031 2.875-1.4375-1.4394531zm-3.59375 3.5625 1.4375 1.40625-.71875.71875-1.40625-1.40625zm7.279297 1.28125c-.196.001-.7305.0455-1.5625.5625-.26.162-.453.3464531-.7500001.564453-.158.116-.7255.494-.9375.625-.619.383-.841.48-1.375.75-.517.261-1.0585.4985-1.4375.6875-1.592.795-4.0644532.8125-4.0644531.8125v1s2.4974531.032 4.3144531-.875c.241-.12.6685-.318 1.0625-.5 0 0 1.119-.59275 1.125-.59375.196-.109.36125-.192.65625-.375.228-.141.775-.49125 1.0000001-.65625.33-.243.54275-.42225.71875-.53125.385-.302.82-.4817499 1.25-.46875-.034 0 .13025.00975.28125.09375s.3105.234.4375.375c.245.332.35625.58525.40625 1.03125-.036 1.307-1.28 1.505-2.25 1.5v1c1.979.089 3-.83425 3-2.53125-.004-.288-.05025-.52475-.15625-.84375s-.266-.6754999-.5-.9374999c-.361-.423-.54275-.6085-1.21875-.6875z" fill="#5d656b"/></svg>