<svg viewBox="0 0 16 16" xmlns="http://www.w3.org/2000/svg"><path d="m6.984375 2-4.984375 3.8378906 1.9355469 6.1621094 2.2910156-.011719-.3125 1.861328 3.0898437-1.697265 3.0917968 1.691406-.603515-3.564453 2.507812-2.5214845-2.488281-.3652344.488281-1.6015625zm.0019531 1 1.8300781 1.3828125-1.3554687 2.8691406-3.4609375.5136719 2.5117188 2.517578-.1191407.708985-1.84375.007812-1.5488281-4.9296875zm2.3945313 1.8085938 1.6191406 1.2246093-.375 1.2285157-.085938-.0117188zm-.3828125.6914062 1.0800781 2.2753906 2.421875.3554688-1.755859 1.765625.421875 2.4941406-2.1640629-1.183594-2.1621093 1.1875.4179687-2.4960935-1.7578125-1.7636719 2.421875-.359375z" fill="#5d656b"/></svg>