<svg viewBox="0 0 16 16" xmlns="http://www.w3.org/2000/svg"><path d="m2 2v3h1v-2h2v-1zm4 0v1h4v-1zm5 0v1h2v2h1v-3zm-3.1445312 2c-.7048534 0-1.3229221.1658269-1.8554688.4980469l.2109375.6601562c.53646-.30364 1.0476431-.4570312 1.5332031-.4570312.4033267 0 .7123611.0958296.9277344.2851562.2153733.18576.3242188.4670498.3242188.8457031 0 .2071934-.0544159.4351607-.1640626.6816407-.1057266.2429133-.2378979.4833162-.3945312.7226562s-.3160158.4866077-.4765625.7402344c-.1566333.2536267-.2926829.5326304-.4101563.8398437-.1135733.3036401-.1757666.6038973-.1875.9003907h.5273438c.1135533-.3429334.265165-.6673961.453125-.9746094.19188-.31078.3784671-.5727694.5585938-.7871094.18404-.2143333.3589637-.4301979.5273437-.6445312.1723-.2143334.3103027-.4452592.4121094-.6953125.1057266-.2500534.1582031-.5192404.1582031-.8085938 0-.3143533-.0583079-.5904052-.1757812-.8261718-.1135601-.2393401-.2729425-.4290394-.4765626-.5683594-.1997066-.1393134-.4251679-.2426736-.6757812-.3105469s-.5227263-.1015625-.8164062-.1015625zm-5.8554688 2v4h1v-4zm11 0v4h1v-4zm-5.390625 4.816406c-.2192867 0-.388386.055615-.5058594.169922-.11356.114313-.1699218.253649-.1699218.417969 0 .164327.0563618.305948.1699218.423828.1174734.114313.2865727.171875.5058594.171875.21928 0 .38644-.057562.5-.171875.11356-.114307.1699219-.255928.1699219-.423828 0-.16432-.0563619-.303656-.1699219-.417969-.11356-.114307-.28072-.169922-.5-.169922zm-5.609375.183594v3h3v-1h-2v-2zm11 0v2h-2v1h3v-3zm-7 2v1h4v-1z" fill="#5d656b"/></svg>