<svg viewBox="0 0 16 16" xmlns="http://www.w3.org/2000/svg"><path d="m6.5 2c-2.48528 0-4.5 2.01472-4.5 4.5s2.01472 4.5 4.5 4.5c1.06305 0 2.04248-.38361 2.8125-1l4 4 .6875-.6875-4-4c.61639-.77002 1-1.74945 1-2.8125 0-2.48528-2.01472-4.5-4.5-4.5zm0 1c1.9329966 0 3.5 1.5670034 3.5 3.5 0 .197255-.0295305.3749584-.0625.5625-.0253989.1588864-.0477253.3177632-.09375.46875-.0098197.030358-.0206201.0637574-.03125.09375-.0104196.031007-.0199925.0631378-.03125.09375-.0550973.1422057-.1153436.2733922-.1875.40625-.0108947.0208544-.0199499.0418952-.03125.0625-.0808401.1474058-.1807704.2727208-.28125.40625-.1981625.2633419-.4241581.4893375-.6875.6875-.1335292.1004796-.2588442.2004099-.40625.28125-.019724.0111933-.0425509.0204154-.0625.03125-.0208544.0108947-.0414014.0207659-.0625.03125-.1429898.0740827-.284163.1331548-.4375.1875-.031007.0104196-.0623619.0216821-.09375.03125-.1509868.0460247-.3098636.0683511-.46875.09375-.181326.028986-.3730083.0625-.5625.0625-1.9329966 0-3.5-1.5670034-3.5-3.5 0-.241625.015877-.4909082.0625-.71875.3263619-1.594891 1.746128-2.78125 3.4375-2.78125zm-3.5 9c-.55228 0-1 .44772-1 1s.44772 1 1 1 1-.44772 1-1-.44772-1-1-1zm3 0c-.55228 0-1 .44772-1 1s.44772 1 1 1 1-.44772 1-1-.44772-1-1-1zm3 0c-.55228 0-1 .44772-1 1s.44772 1 1 1 1-.44772 1-1-.44772-1-1-1z" fill="#e1e1e1"/></svg>