<svg viewBox="0 0 16 16" xmlns="http://www.w3.org/2000/svg"><path d="m14 2c-.989.203-1.906219.7821875-2.449219 1.6171875-.188-.084-.331781-.1171875-.550781-.1171875-.156 0-.304312.0302187-.445312.0742188-.8530005-.5200001-1.852688-.8242188-2.929688-.8242188-3.116 0-5.625 2.509-5.625 5.625s2.509 5.625 5.625 5.625 5.625-2.509 5.625-5.625c0-1.076-.303219-2.0766875-.824219-2.9296875.044-.142.074219-.2893125.074219-.4453125 0-.336-.009312-.4717031-.195312-.7207031.401999-.654.937312-1.0822969 1.695312-1.2792969z" fill="#5d656b"/></svg>