<svg viewBox="0 0 16 16" xmlns="http://www.w3.org/2000/svg"><path d="m8 2a6 6.0000086 0 0 0 -6 6 6 6.0000086 0 0 0 6 6 6 6.0000086 0 0 0 6-6 6 6.0000086 0 0 0 -6-6zm0 1a5.0000014 5.0000086 0 0 1 5 5 5.0000014 5.0000086 0 0 1 -5 5 5.0000014 5.0000086 0 0 1 -5-5 5.0000014 5.0000086 0 0 1 5-5zm0 1a4 4 0 0 0 -2.5585938.9277344l.640625.7695312a3 3 0 0 1 1.9179688-.6972656 3 3 0 0 1 3 3h1a4 4 0 0 0 -4-4zm1 2-1.6015625 3.203125a1 1 0 0 0 -.3984375.796875 1 1 0 0 0 1 1 1 1 0 0 0 1-1 1 1 0 0 0 -.2519531-.6601562zm-4.46875.0175781a4 4 0 0 0 -.53125 1.9824219h1a3 3 0 0 1 .3984375-1.4863281z" fill="#5d656b"/></svg>