<svg viewBox="0 0 16 16" xmlns="http://www.w3.org/2000/svg"><path d="m4.5 2c-1.38071 0-2.5 1.11929-2.5 2.5s1.11929 2.5 2.5 2.5 2.5-1.11929 2.5-2.5-1.11929-2.5-2.5-2.5zm6.90625 0-7.625 11.4375.8125.5625 7.625-11.4375zm-6.90625 1c.82843 0 1.5.67157 1.5 1.5s-.67157 1.5-1.5 1.5-1.5-.67157-1.5-1.5.67157-1.5 1.5-1.5zm7 6c-1.38071 0-2.5 1.11925-2.5 2.5 0 1.38067 1.11929 2.5 2.5 2.5s2.5-1.11933 2.5-2.5c0-1.38075-1.11929-2.5-2.5-2.5zm0 1c.82843 0 1.5.67155 1.5 1.5 0 .82837-.67157 1.5-1.5 1.5s-1.5-.67163-1.5-1.5c0-.82845.67157-1.5 1.5-1.5z" fill="#5d656b"/></svg>