<svg viewBox="0 0 16 16" xmlns="http://www.w3.org/2000/svg"><path d="m5.5 2c-1.381 0-2.5 1.119-2.5 2.5v3c0 1.381 1.119 2.5 2.5 2.5s2.5-1.119 2.5-2.5v-3c0-1.381-1.119-2.5-2.5-2.5zm6 0c-1.381 0-2.5 1.119-2.5 2.5v3c0 1.381 1.119 2.5 2.5 2.5s2.5-1.119 2.5-2.5v-3c0-1.381-1.119-2.5-2.5-2.5zm-6 1c.828 0 1.5.672 1.5 1.5v3c0 .828-.672 1.5-1.5 1.5s-1.5-.672-1.5-1.5v-3c0-.828.672-1.5 1.5-1.5zm6 0c.828 0 1.5.672 1.5 1.5v3c0 .828-.672 1.5-1.5 1.5s-1.5-.672-1.5-1.5v-3c0-.828.672-1.5 1.5-1.5zm-9.5 6v1h1v-1z" fill="#5d656b"/><path d="m11 9v2h-2v1h2v2h1v-2h2v-1h-2v-2z" fill="#3daee9"/></svg>