<svg viewBox="0 0 16 16" xmlns="http://www.w3.org/2000/svg"><path d="m9 5v9h1v-.771484a3 3 0 0 0 2.003906.771484 3 3 0 0 0 3-3 3 3 0 0 0 -3-3 3 3 0 0 0 -2.003906.7734375v-3.7734375zm-5.1035156.9980469-2.8886719 8.0000001h1.1679687l.9941407-2.285156h2.7773437l.8945313 2.285156h1.1660156l-2.6445313-8.0000001zm.7324218 1.2402343 1.09375 3.3320308h-2.3027343zm7.3749998 1.7617188a2 2 0 0 1 2 2 2 2 0 0 1 -2 2 2 2 0 0 1 -2-2 2 2 0 0 1 2-2z" fill="#5d656b"/><path d="m2 5h5l-2.5-3z" fill="#3daee9"/></svg>