<svg viewBox="0 0 16 16" xmlns="http://www.w3.org/2000/svg"><path d="m3.7832031 4-2.7832031 7h1.2636719l.7363281-2h2.4316406l.7714844 2h1.296875l-2.75-7zm10.2167969 0v7h1v-7zm-9.7792969 1.4921875c.0909.33678.1922213.6528519.3007813.9511719l.6894531 1.8867187h-1.984375l.6855469-1.8535156c.11442-.30788.2176337-.634745.3085937-.984375zm6.2792969.5078125a2.5 2.5 0 0 0 -2.5 2.5 2.5 2.5 0 0 0 2.5 2.5 2.5 2.5 0 0 0 2.5-2.5 2.5 2.5 0 0 0 -2.5-2.5zm0 1a1.5 1.5 0 0 1 1.5 1.5 1.5 1.5 0 0 1 -1.5 1.5 1.5 1.5 0 0 1 -1.5-1.5 1.5 1.5 0 0 1 1.5-1.5z" fill="#5d656b"/></svg>