<svg viewBox="0 0 16 16" xmlns="http://www.w3.org/2000/svg"><path d="m8 2a1.4999996 2.25 0 0 0 -1.5 2.25 1.4999996 2.25 0 0 0 .0039062.1386719 2.25 1.4999996 45 0 0 -.0957031-.0996094 2.25 1.4999996 45 0 0 -2.6503906-.53125 2.25 1.4999996 45 0 0 .5292969 2.6523437 2.25 1.4999996 45 0 0 .0996094.09375 2.25 1.4999996 0 0 0 -.1367188-.0039062 2.25 1.4999996 0 0 0 -2.25 1.5 2.25 1.4999996 0 0 0 2.25 1.5 2.25 1.4999996 0 0 0 .1386719-.0039062 1.4999996 2.25 45 0 0 -.1015625.0957031 1.4999996 2.25 45 0 0 -.5292969 2.6503911 1.4999996 2.25 45 0 0 2.6503906-.529297 1.4999996 2.25 45 0 0 .0957031-.09961 1.4999996 2.25 0 0 0 -.0039062.136719 1.4999996 2.25 0 0 0 1.5 2.25 1.4999996 2.25 0 0 0 1.5-2.25 1.4999996 2.25 0 0 0 -.0039062-.138672 2.25 1.4999996 45 0 0 .0957031.101563 2.25 1.4999996 45 0 0 2.6503911.529297 2.25 1.4999996 45 0 0 -.529297-2.6503911 2.25 1.4999996 45 0 0 -.09961-.0957031 2.25 1.4999996 0 0 0 .136719.0039062 2.25 1.4999996 0 0 0 2.25-1.5 2.25 1.4999996 0 0 0 -2.25-1.5 2.25 1.4999996 0 0 0 -.138672.0039062 1.4999996 2.25 45 0 0 .101563-.09375 1.4999996 2.25 45 0 0 .529297-2.6523437 1.4999996 2.25 45 0 0 -2.6503911.53125 1.4999996 2.25 45 0 0 -.0957031.0996094 1.4999996 2.25 0 0 0 .0039062-.1386719 1.4999996 2.25 0 0 0 -1.5-2.25zm.7460938 4.1972656a1.4999996 2.25 45 0 0 .3144531.7421875 1.4999996 2.25 45 0 0 .7402343.3144531 2.25 1.4999996 0 0 0 -.3007812.7460938 2.25 1.4999996 0 0 0 .3027344.7460938 2.25 1.4999996 45 0 0 -.7421875.3144531 2.25 1.4999996 45 0 0 -.3144531.7402343 1.4999996 2.25 0 0 0 -.7460938-.3007812 1.4999996 2.25 0 0 0 -.7460938.3007812 1.4999996 2.25 45 0 0 -.3144531-.7402343 1.4999996 2.25 45 0 0 -.7402343-.3144531 2.25 1.4999996 0 0 0 .3007812-.7460938 2.25 1.4999996 0 0 0 -.3007812-.7460938 2.25 1.4999996 45 0 0 .7402343-.3144531 2.25 1.4999996 45 0 0 .3144531-.7402343 1.4999996 2.25 0 0 0 .7460938.3007812 1.4999996 2.25 0 0 0 .7460938-.3027344zm-.7460938 1.0527344c-.4155 0-.75.3345-.75.75s.3345.75.75.75.75-.3345.75-.75-.3345-.75-.75-.75z" fill="#5d656b"/></svg>