<svg viewBox="0 0 16 16" xmlns="http://www.w3.org/2000/svg"><path d="m8 2a5.9999976 5.9999852 0 0 0 -6 6 5.9999976 5.9999852 0 0 0 6 6 5.9999976 5.9999852 0 0 0 3.875-1.417969l1.417969 1.417969c-.017974.002873.707031-.707031.707031-.707031l-1.423828-1.423828a5.9999976 5.9999852 0 0 0 1.423828-3.869141 5.9999976 5.9999852 0 0 0 -6-6zm0 1a5 5 0 0 1 5 5 5 5 0 0 1 -1.130859 3.162109l-1.16211-1.162109s-.7103562.69967-.707031.707031l1.162109 1.16211a5 5 0 0 1 -3.162109 1.130859 5 5 0 0 1 -5-5 5 5 0 0 1 5-5z" fill="#5d656b"/></svg>