<svg viewBox="0 0 16 16" xmlns="http://www.w3.org/2000/svg"><path d="m7.828125 1.671875-.9492188.9492188-1.8789062 1.8789062 1.8789062 1.8789062.9492188.9492188.7070312-.7070312-.9492187-.9492188-.671875-.671875h4.0859375v-1h-4.0859375l.671875-.671875.9492187-.9492188zm4.671875 3.328125c-.27614 0-.5.22386-.5.5s.22386.5.5.5.5-.22386.5-.5-.22386-.5-.5-.5zm-6.96875 1.5625-3.53125 3.53125 3.90625 3.90625 3.53125-3.53125zm7.96875 1.4375c-.27614 0-.5.22386-.5.5s.22386.5.5.5.5-.22386.5-.5-.22386-.5-.5-.5zm-1 3c-.27614 0-.5.22386-.5.5s.22386.5.5.5.5-.22386.5-.5-.22386-.5-.5-.5zm-3 1c-.27614 0-.5.22386-.5.5s.22386.5.5.5.5-.22386.5-.5-.22386-.5-.5-.5z" fill="#e1e1e1"/></svg>