<svg viewBox="0 0 16 16" xmlns="http://www.w3.org/2000/svg"><path d="m4 2c-1.657 0-3 1.343-3 3 0 4 5 7 7 9 2-2 7-5 7-9 0-1.657-1.343-3-3-3-3 0-4 2-4 2s-1-2-4-2zm0 1c1.7191685-.0132353 2.6355364.8577363 3.3359375 2h1.2910156c.817412-1.2515621 2.0014439-1.9838166 3.3730469-2 1.116666 0 2 .8833339 2 2 0 1.5833333-1.035599 3.1215362-2.457031 4.5429688-1.185096 1.1850962-2.4669427 2.1665002-3.542969 3.1269532-1.0760263-.960453-2.3578727-1.941857-3.5429688-3.1269532-1.4214325-1.4214328-2.4570312-2.9596355-2.4570312-4.5429688 0-1.1166661.8833339-2 2-2z" fill="#5d656b"/></svg>