<svg viewBox="0 0 16 16" xmlns="http://www.w3.org/2000/svg"><path d="m8 2c-2.2091356.0000082-3.9999918 1.7908644-4 4 .00157.4763707.088214.9486316.2558594 1.3945312.121335.3353404.3660234.7066419.5195312.9628907l3.2246094 5.6425781 3.224609-5.640625c.25321-.3154097.36294-.649221.521485-.9648438.166979-.4460217.252964-.9182787.253906-1.3945312-.000008-2.2091356-1.790864-3.9999918-4-4zm0 1c.9153025.0000155 1.7805248.4178824 2.349609 1.1347656.124619.1567279.233233.3255385.324219.5039063.181853.3576703.290108.7481869.31836 1.1484375.0051.070849.007712.141857.007812.2128906-.000235.3006561-.04566.5995687-.134766.8867188-.0494.155845-.111455.3073913-.185546.453125-.008301.018314-.016741.0365445-.025391.0546874-.517946.9865593-1.540036 1.60477-2.654297 1.6054688-1.114261-.0006989-2.1363398-.6189099-2.6542969-1.6054688-.04448-.0846099-.0848907-.1712973-.1210937-.2597656l-.0058594-.0136718c-.0330193-.0826393-.0623452-.1667068-.0878906-.2519532-.0039786-.0116945-.0078849-.0234135-.0117188-.0351562-.02222-.0799115-.0411165-.1607101-.0566406-.2421875-.0040532-.0168929-.0079596-.0338206-.0117188-.0507813-.0153308-.0840959-.0270602-.1688086-.0351562-.2539062-.001405-.0143134-.0027071-.0286367-.0039062-.0429688-.0072213-.0811872-.0111307-.162635-.0117188-.2441406.0002342-.0998073.005449-.1995407.015625-.2988281.0806089-.8067343.4843071-1.5464953 1.1191406-2.0507813.156728-.1246186.3255385-.2332331.5039063-.3242187.4217056-.2145544.8881799-.3263208 1.3613281-.3261719z" fill="#e1e1e1"/></svg>