<svg height="16" viewBox="0 0 16 16" width="16" xmlns="http://www.w3.org/2000/svg"><path d="m9.0132 2.0086v.77734c-.1163-.0634-.2387-.1151-.3652-.1543l-.0078-.00195c-1.0554-.31796-2.1689.279-2.4883 1.334-.00408.014928-.00799.029903-.011719.044922h-4.127v1h4.1113c.16494.68865.68212 1.2385 1.3594 1.4453.10095.030241.20414.052446.30859.066407-.77304.10576-1.4138.6519-1.6406 1.3984-.00851.029762-.016322.059719-.023437.089844h-4.1152v1h4.1211c.17753.66831.68803 1.1973 1.3496 1.3984.10031.03014.20284.05235.30664.06641-.7723.10647-1.4121.65248-1.6387 1.3984-.013326.04514-.025052.09075-.035156.13672h-4.1035v1h4.1328c.1886.64826.69186 1.1574 1.3379 1.3535 1.0555.32079 2.1712-.27466 2.4922-1.3301l.0059-.02344h.03125 4v-1h-4v-3h4v-1h-4v-3h4v-1h-4v-2zm-.9433 1.5527c.08655.00101.17259.013491.25586.037109l.02539.00586c.5148.1574.8061.7008.6523 1.2168-.1533.5168-.6953.8126-1.2129.6621-.5172-.1508-.8156-.6909-.668-1.209.1198-.4234.5072-.715.9473-.7129zm.94336 2.7363v.44141c-.1164-.0634-.2388-.1151-.3653-.1543l-.0078-.00195c-.0985-.0292-.199-.0507-.3008-.0645.236-.0328.4642-.1075.6738-.2207zm-.94336 1.2188c.08646.0003772.1725.012199.25586.035157l.02539.00781c.5148.1574.8061.7008.6523 1.2167-.1542.5161-.6959.8109-1.2129.6602-.5172-.1508-.8156-.6909-.668-1.209.1206-.4226.5078-.7132.9473-.7109zm.94336 2.7363v.44141c-.1164-.063-.2388-.115-.3653-.154l-.0078-.0019c-.09909-.02928-.20031-.05083-.30273-.06445.23664-.03257.46553-.10732.67578-.2207zm-.94336 1.2188c.08646.000378.1725.0122.25586.03516l.02539.0059c.51584.15744.80742.70219.65234 1.2188-.1542.515-.6959.81-1.2129.659-.5172-.15-.8156-.69-.668-1.209.1206-.422.5078-.713.9473-.71z" fill="#5d656b"/></svg>