<svg height="16" viewBox="0 0 16 16" width="16" xmlns="http://www.w3.org/2000/svg"><path d="m11 2v2h-9v1h9v1.6523a1.9977 1.9977 0 0 0 -.365-.1523l-.008-.002a1.9977 1.9977 0 0 0 -2.4883 1.334 1.9977 1.9977 0 0 0 -.041.168h-1.0977v-2h-1v2h-4v1h4v1.654a1.9977 1.9977 0 0 0 -.3652-.154l-.0078-.002a1.9977 1.9977 0 0 0 -2.4883 1.334 1.9977 1.9977 0 0 0 -.041.168h-1.0977v1h1.1445a1.9977 1.9977 0 0 0 1.3262 1.322 1.9977 1.9977 0 0 0 2.4902-1.322h.0391 7v-1h-6.9961a1.9977 1.9977 0 0 0 -.0039-.018v-2.982h1.1445a1.9977 1.9977 0 0 0 1.3282 1.322 1.9977 1.9977 0 0 0 2.4883-1.322h.039 2v-1h-1.996a1.9977 1.9977 0 0 0 -.004-.0176v-2.9824h2v-1h-2v-2zm-.943 5.457a.97972.97972 0 0 1 .255.0352l.026.0078a.97972.97972 0 0 1 .652 1.2168.97972.97972 0 0 1 -1.2127.6602.97972.97972 0 0 1 -.6679-1.209.97972.97972 0 0 1 .9476-.711zm-5.0004 4a.97972.97972 0 0 1 .2559.035l.0254.008a.97972.97972 0 0 1 .6523 1.217.97972.97972 0 0 1 -1.2129.66.97972.97972 0 0 1 -.6679-1.209.97972.97972 0 0 1 .9472-.711z" fill="#5d656b"/></svg>