<svg height="16" viewBox="0 0 16 16" width="16" xmlns="http://www.w3.org/2000/svg"><path d="m8.3164 2.9004c-.6182-.0106-1.2476.3959-1.8105 1.0996h-4.5059v1h3.8691c-.424.8129-.7638 1.8278-.9746 3h-2.8945v1h2.7422c-.0282.2727-.0538.546-.0703.8242.0106-.098.0227-.196.0351-.293.0476-.1759.1072-.3537.1582-.5312h4.2793a1.9977 1.9977 0 0 0 1.3285 1.322 1.9977 1.9977 0 0 0 2.488-1.322h1.039v-1h-.996a1.9977 1.9977 0 0 0 -1.369-1.5l-.008-.002a1.9977 1.9977 0 0 0 -.815-.0683c-.15-.5378-.297-1.0037-.451-1.4297h3.639v-1h-4.0977c-.1787-.2991-.3729-.5616-.6171-.7422l-.0821-.0586c-.2884-.1931-.5874-.2946-.8867-.2988zm-.209.7383c.0916-.0098.1851-.0084.2793.0058.2338.0352.476.1664.7246.3555h-1.7929c.2521-.2004.5143-.332.789-.3613zm-1.6367 1.3613h3.5273c.261.3875.527.8468.801 1.4297a1.9977 1.9977 0 0 0 -1.6603 1.4023 1.9977 1.9977 0 0 0 -.041.168h-3.9336c.3687-1.1276.8053-2.1974 1.3066-3zm4.5863 2.457a.97972.97972 0 0 1 .255.0352l.026.0078a.97972.97972 0 0 1 .652 1.2168.97972.97972 0 0 1 -1.213.6602.97972.97972 0 0 1 -.668-1.209.97972.97972 0 0 1 .948-.711zm-5.9593 2.957a1.9977 1.9977 0 0 0 -1.959 1.418 1.9977 1.9977 0 0 0 -.041.168h-1.0977v1h1.1445a1.9977 1.9977 0 0 0 1.3262 1.322 1.9977 1.9977 0 0 0 2.4902-1.322h7.0391v-1h-6.9961a1.9977 1.9977 0 0 0 -1.3691-1.5l-.0078-.002a1.9977 1.9977 0 0 0 -.5293-.084zm-.0411 1.043a.97972.97972 0 0 1 .2559.035l.0254.008a.97972.97972 0 0 1 .6523 1.217.97972.97972 0 0 1 -1.2129.66.97972.97972 0 0 1 -.6679-1.209.97972.97972 0 0 1 .9472-.711z" fill="#5d656b"/></svg>