<svg viewBox="0 0 16 16" xmlns="http://www.w3.org/2000/svg"><path d="m2 2v3h1v5 .111328l-1 1.013672v1.375 1.5c.5669591.009969.9082961.002744 1.5 0 .5300681-.002458 1.34375 0 1.34375 0 .0039177.000164.7889134-.805618.9824219-1h.1738281 5v1h3v-3h-1-1-1v1h-4.1894531c2.4095064-2.4433403 7.0332031-7.15625 7.0332031-7.15625l-2.84375-2.84375-7 7.0976562v-4.0976562h1v-1-1-1zm1 1h1v1h-1zm7.28125 1.15625 1.40625 1.40625-5.4140625 5.560547-1.4082031-1.3964845zm3.6875 4.84375c-.007.00003-.029609.0058594-.037109.0058594h.068359c-.0121-.0020006-.01885-.0038594-.03125-.0058594zm-1.96875 3h1v1h-1z" fill="#5d656b"/></svg>