<svg viewBox="0 0 16 16" xmlns="http://www.w3.org/2000/svg"><g transform="translate(-421.71 -531.79)"><g fill="#43be80"><path d="m8 9a5 4.5 0 0 0 -5 4.5 5 4.5 0 0 0 .033203.5h9.929797a5 4.5 0 0 0 .037-.5 5 4.5 0 0 0 -5-4.5m0 1a4 3.5 0 0 1 3.955078 3h-7.910078a4 3.5 0 0 1 3.955-3" transform="translate(421.71 531.79)"/><path d="m429.71 533.79c-1.657 0-3 1.343-3 3s1.343 3 3 3 3-1.343 3-3-1.343-3-3-3m1.592 1.232.707.707-2.83 2.828-1.768-1.768.707-.707 1.061 1.061z"/></g><path d="m431.31 535.02.707.707-2.83 2.828-1.768-1.768.707-.707 1.061 1.061z" fill="#fff"/></g></svg>