<svg viewBox="0 0 16 16" xmlns="http://www.w3.org/2000/svg"><path d="m11.5 2a2.5 2.5 0 0 0 -2.5 2.5 2.5 2.5 0 0 0 2.5 2.5 2.5 2.5 0 0 0 2.5-2.5 2.5 2.5 0 0 0 -2.5-2.5zm-6 2a2.5 2.5 0 0 0 -2.5 2.5 2.5 2.5 0 0 0 2.5 2.5 2.5 2.5 0 0 0 2.5-2.5 2.5 2.5 0 0 0 -2.5-2.5zm5.5 4.0722656a3.4999979 4 0 0 0 -2.5078125 2.2011724 4.5 5 0 0 1 .5996094.726562h.2011719a2.5 3 0 0 1 1.7070312-1.8925781zm1 .9277344v2h-2v1h2v2h1v-2h2v-1h-2v-2zm-6.5 1a3.4999979 4 0 0 0 -3.5 4h1 5 1a3.4999979 4 0 0 0 -3.5-4zm0 1a2.5 3 0 0 1 2.3535156 2h-4.7070312a2.5 3 0 0 1 2.3535156-2z" fill="#5d656b"/></svg>