<svg viewBox="0 0 16 16" xmlns="http://www.w3.org/2000/svg"><path d="m7 2v1.1015625a5 5 0 0 0 -1.7539062.7304687l-.78125-.78125-1.4140626 1.4140626.78125.78125a5 5 0 0 0 -.7265624 1.7539062h-1.1054688v2h1.1015625a5 5 0 0 0 .7304687 1.753906l-.7792968.78125 1.4140625 1.414063.7792969-.78125a5 5 0 0 0 1.7539062.726562v1.105469h1v-2a4 4 0 0 1 -2.8691406-1.212891 4 4 0 0 1 -1.1308594-2.787109 4 4 0 0 1 1.2128906-2.8691406 4 4 0 0 1 2.7871094-1.1308594 4 4 0 0 1 2.869141 1.2128906 4 4 0 0 1 1.130859 2.7871094h2v-1h-1.101562a5 5 0 0 0 -.730469-1.7539062l.78125-.78125-1.414063-1.4140626-.78125.78125a5 5 0 0 0 -1.753906-.7265624v-1.1054688zm0 4v4l3-2zm4 3v3.09375l-2-2v1.40625l2.28125 2.3125.21875.189453.21875-.189453 2.28125-2.3125v-1.40625l-2 2v-3.09375z" fill="#da4453"/></svg>