<svg viewBox="0 0 16 16" xmlns="http://www.w3.org/2000/svg"><path d="m7 2v1.1015625c-.626.129-1.2209063.3774687-1.7539062.7304687l-.78125-.78125-1.4140626 1.4140626.78125.78125c-.3519999.5329999-.5985625 1.1279062-.7265624 1.7539062h-1.1054688v2h1.1015625c.129.626.3774687 1.220906.7304687 1.753906l-.78125.78125 1.4140626 1.414063.78125-.78125c.533.352 1.1279062.598562 1.7539062.726562v-1.027343c-.71-.182001-1.3571406-.556079-1.8691406-1.080079-.725-.747-1.1308594-1.7441559-1.1308594-2.7851559 0-1.081.4378906-2.1161406 1.2128906-2.8691406.747-.725 1.7461094-1.1308594 2.7871094-1.1308594 1.081 0 2.116141.4378906 2.869141 1.2128907.725.7469999 1.130859 1.7461093 1.130859 2.7871093-.002.338-.046812.674-.132812 1h2.132812v-2h-1.101562c-.129-.626-.377469-1.2228593-.730469-1.7558593l.78125-.7792969-1.414063-1.4140625-.78125.7792968c-.533-.352-1.127906-.5985624-1.753906-.7265624v-1.1035157zm0 4v4l3-2zm3 4-2 2 2 2h4v-4zm.599609 1h2.400391v2h-2.400391l-.9999996-1z" fill="#5d656b"/></svg>