<svg enable-background="new" height="16" width="16" xmlns="http://www.w3.org/2000/svg"><path d="m2.65 1v.9821433h-2.4v.9821417 10.803572c0 .544106.3568.982143.8.982143h6.4c.4432 0 .8-.438037.8-.982143v-10.803572-.9821417h-2.4v-.9821433z" fill="#8bc34a" stroke-width=".886405"/><path d="m.25 5.910715v7.857142c0 .544106.3568.982143.8.982143h6.4c.4432 0 .8-.438037.8-.982143v-7.857142z" fill="#263238" stroke-width=".886405"/><path d="m4.25 3.75v3.09375h2.5l-2.5 5.15625v-3.09375h-2.5z" fill="#f9ce1d" stroke-width=".927025"/><path d="m15.75 8.75v2h-10v-2zm-6-4h2v10h-2z" fill="#1b5e20"/></svg>