<svg viewBox="0 0 16 16" xmlns="http://www.w3.org/2000/svg"><path d="m8.078125 1.671875-.7070312.7070312 1.6210937 1.6210938h-4.0859375v1h4.0859375l-1.6210937 1.6210938.7070312.7070312 2.828125-2.828125-1.8789062-1.8789062zm-4.671875 3.328125c-.276 0-.5.224-.5.5s.224.5.5.5.5-.224.5-.5-.224-.5-.5-.5zm-1 3c-.276 0-.5.224-.5.5s.224.5.5.5.5-.224.5-.5-.224-.5-.5-.5zm1 3c-.276 0-.5.224-.5.5s.224.5.5.5.5-.224.5-.5-.224-.5-.5-.5zm3 1c-.276 0-.5.224-.5.5s.224.5.5.5.5-.224.5-.5-.224-.5-.5-.5z" fill="#5d656b"/><path d="m10 8a2 2 0 0 0 -2 2 2 2 0 0 0 2 2 2 2 0 0 0 2-2 2 2 0 0 0 -2-2m0 1a1 1 0 0 1 1 1 1 1 0 0 1 -1 1 1 1 0 0 1 -1-1 1 1 0 0 1 1-1" fill="#3daee9"/></svg>