<svg viewBox="0 0 16 16" xmlns="http://www.w3.org/2000/svg"><path d="m14 2a12 12.00001 0 0 0 -12 12h1a11 11 0 0 1 11-11z" fill="#5d656b"/><path d="m4.5039062 3a1.499998 1.499998 0 0 0 -1.5 1.5 1.499998 1.499998 0 0 0 1.5 1.5 1.499998 1.499998 0 0 0 1.5-1.5 1.499998 1.499998 0 0 0 -1.5-1.5zm0 1a.5.5 0 0 1 .5.5.5.5 0 0 1 -.5.5.5.5 0 0 1 -.5-.5.5.5 0 0 1 .5-.5zm3 2a1.499998 1.499998 0 0 0 -1.5 1.5 1.499998 1.499998 0 0 0 1.5 1.5 1.499998 1.499998 0 0 0 1.5-1.5 1.499998 1.499998 0 0 0 -1.5-1.5zm0 1a.5.5 0 0 1 .5.5.5.5 0 0 1 -.5.5.5.5 0 0 1 -.5-.5.5.5 0 0 1 .5-.5z" fill="#3daee9"/></svg>