<svg viewBox="0 0 16 16" xmlns="http://www.w3.org/2000/svg"><path d="m2 2v12h2v-1h-1v-8h3v4h1v-7zm6 0v7h1v-4h4v2h1v-5zm4.171875 5.671875-.707031.7070312.949218.9492188.671876.671875h-2.085938-2v1h1 1 2.085938l-.671876.671875-.949218.949219.707031.707031.949219-.949219 1.878906-1.878906-1.878906-1.8789062zm-4.34375 2-.9492188.949219-1.8789062 1.878906 1.8789062 1.878906.9492188.949219.7070312-.707031-.9492187-.949219-.671875-.671875h2.0859375 1 1v-1h-2-2.0859375l.671875-.671875.9492187-.949219z" fill="#5d656b"/></svg>