<svg viewBox="0 0 16 16" xmlns="http://www.w3.org/2000/svg"><path d="m6.3828125 2-4.3828125 11h1.3574219l1.1894531-3h4.9277344l1.1523436 3h1.373047l-4.2519531-11zm4.6171875 0v5h1 1.5c.82843 0 1.5-.67157 1.5-1.5 0-.5333-.26819-1.01527-.6875-1.28125.11546-.21254.1875-.45987.1875-.71875 0-.82843-.67156-1.5-1.5-1.5h-1zm1 1h1c.27614 0 .5.22386.5.5s-.22386.5-.5.5h-1zm-4.9375.328125c.11316.37608.711475 2.0819644 1.796875 5.1152344l.2246094.5566406h-4.1425782zm4.9375 1.671875h1 .5c.27615 0 .5.22386.5.5s-.22385.5-.5.5h-1.5z" fill="#5d656b"/></svg>