<svg viewBox="0 0 16 16" xmlns="http://www.w3.org/2000/svg"><path d="m9 4v6h1v-.7695312a3 3 0 0 0 2 .7695312 3 3 0 0 0 3-3 3 3 0 0 0 -3-3 3 3 0 0 0 -2 .7675781v-.7675781zm3 1a2 2 0 0 1 2 2 2 2 0 0 1 -2 2 2 2 0 0 1 -2-2 2 2 0 0 1 2-2zm-7.9960938 3a3 3 0 0 0 -3 3 3 3 0 0 0 3 3 3 3 0 0 0 2-.767578v.769531h1v-5.9999999h-1v.7695313a3 3 0 0 0 -2-.7695313zm0 1.0019531a2 2 0 0 1 2 1.9999999 2 2 0 0 1 -2 2 2 2 0 0 1 -2-2 2 2 0 0 1 2-1.9999999z" fill="#5d656b"/><path d="m7.5 2v12h1v-2h6.5v-1h-6.5v-9z" fill="#1d99f3"/></svg>