<svg viewBox="0 0 16 16" xmlns="http://www.w3.org/2000/svg"><path d="m9.0078125 2.0019531c-1.66677-.0403-2.8182531.7618344-3.4707031 1.8964844-.65244 1.13466-.8938238 2.5644938-1.0585938 3.9648437-.16477 1.4003402-.2469294 2.7829998-.4746094 3.7558598-.1138399.48642-.2670737.861825-.4335937 1.078125-.16653.2163-.3027581.297324-.5800781.302734h-.3730469-.6171875v1h.6171875.3828125.0039062.0058594c.55578-.0109 1.0424325-.291829 1.3515625-.693359.30914-.40154.4843544-.899765.6152344-1.458985.26175-1.11844.3341606-2.5095304.4941406-3.8691404.15997-1.35961.4139038-2.6762781.9335938-3.5800781.5196956-.90379 1.2152381-1.4313975 2.5800781-1.3984375h.0058594.0058594c2.3183192-.00042 3.2013222 1.06974 3.6523442 2.1875.329689.81707.262112 1.26694.257812 1.65625-1.48639-.45524-2.728236-.5197844-3.5976562-.0839844-1.0289602.51578-1.5218144 1.5657425-1.5527344 2.6328125-.0309 1.0670799.3547012 2.1918849 1.0820312 3.0781249s1.8270494 1.529827 3.1621094 1.529297c1.030591.0099 1.453486.0033 2 0v-1c-.543609.0033-.96894.0099-1.996094 0h-.001953-.001953c-1.01951.00041-1.818752-.469625-2.3886719-1.164062-.56992-.694442-.8805319-1.618166-.8574219-2.4160161.3919263-2.7087152 3.6175438-1.866084 5.2460938-1.4199219l-.001953-.453125s.135765-1.352365-.421875-2.734375c-.55672-1.37971-1.92371-2.8062469-4.5683595-2.8105469z" fill="#5d656b"/></svg>