<svg viewBox="0 0 16 16" xmlns="http://www.w3.org/2000/svg"><path d="m2 2v12h12v-12h-2v2h-2v-2h-4v2h-2v-2zm1 3h10v8h-10zm4 1.5a2.5 2.5 0 0 0 -2.5 2.5 2.5 2.5 0 0 0 2.5 2.5 2.5 2.5 0 0 0 1.0019531-.210938 2.5 2.5 0 0 0 .9980469.210938 2.5 2.5 0 0 0 2.5-2.5 2.5 2.5 0 0 0 -2.5-2.5 2.5 2.5 0 0 0 -1.0019531.2109375 2.5 2.5 0 0 0 -.9980469-.2109375zm0 1a1.5 1.5 0 0 1 .0019531 0 2.5 2.5 0 0 0 -.5019531 1.5 2.5 2.5 0 0 0 .5039062 1.5 1.5 1.5 0 0 1 -.0039062 0 1.5 1.5 0 0 1 -1.5-1.5 1.5 1.5 0 0 1 1.5-1.5zm1.9960938 0a1.5 1.5 0 0 1 .0039062 0 1.5 1.5 0 0 1 1.5 1.5 1.5 1.5 0 0 1 -1.5 1.5 1.5 1.5 0 0 1 -.0019531 0 2.5 2.5 0 0 0 .5019531-1.5 2.5 2.5 0 0 0 -.5039062-1.5zm-.9960938.3847656a1.5 1.5 0 0 1 .5 1.1152344 1.5 1.5 0 0 1 -.5 1.115234 1.5 1.5 0 0 1 -.5-1.115234 1.5 1.5 0 0 1 .5-1.1152344z" fill="#5d656b"/></svg>