<svg viewBox="0 0 16 16" xmlns="http://www.w3.org/2000/svg"><g transform="translate(0 -1036.3622)"><path d="m9.0898438 2-3.1464844 11.740234.9667968.259766 3.1464848-11.7402344zm-3.8046876 2-2.9609374 3.1445312-.3242188.3476563.3242188.3457031 2.9433593 3.1621094.7148438-.695312-2.6210938-2.8125005 2.6386719-2.796875zm5.4296878 0-.714844.6953125 2.638672 2.796875-.472656.5078125h1.359375l.15039-.1621094.324219-.3457031-.324219-.3476563z" fill="#5d656b" transform="translate(0 1036.3622)"/><path d="m9 1046.1954 1.66667 1.6667-1.66667 1.6667.83333.8333 1.66667-1.6666 1.66667 1.6666.83333-.8333-1.66666-1.6667 1.66666-1.6667-.83333-.8333-1.66667 1.6667-1.66667-1.6667z" fill="#da4453"/></g></svg>