<?xml version="1.0" encoding="UTF-8"?>
<svg id="svg16" width="24" height="24" version="1" xmlns="http://www.w3.org/2000/svg" xmlns:cc="http://creativecommons.org/ns#" xmlns:dc="http://purl.org/dc/elements/1.1/" xmlns:rdf="http://www.w3.org/1999/02/22-rdf-syntax-ns#">
 <metadata id="metadata22">
  <rdf:RDF>
   <cc:Work rdf:about="">
    <dc:format>image/svg+xml</dc:format>
    <dc:type rdf:resource="http://purl.org/dc/dcmitype/StillImage"/>
    <dc:title/>
   </cc:Work>
  </rdf:RDF>
 </metadata>
 <path id="path39797" d="m11.231 2c-5.0668 0-9.2308 4.164-9.2308 9.2308 0 5.0668 4.164 9.2308 9.2308 9.2308 0.41297 0 0.81674-0.03759 1.2159-0.09115a5.641 5.641 0 0 1-1.2159-3.4986 5.641 5.641 0 0 1 0.9996-3.2031c-0.30881 0.12783-0.64641 0.19932-0.9996 0.19932-1.4488 0-2.6372-1.1885-2.6372-2.6372 0-1.4488 1.1885-2.6372 2.6372-2.6372s2.6372 1.1884 2.6372 2.6372c0 0.35619-0.07243 0.69667-0.20232 1.0076a5.641 5.641 0 0 1 3.2061-1.0076 5.641 5.641 0 0 1 3.4976 1.223c0.05418-0.40146 0.09215-0.80756 0.09215-1.223 0-5.0668-4.164-9.2308-9.2308-9.2308z" color="#bebebe" fill="#555" filter="url(#filter7554)" style="text-decoration-line:none;text-indent:0;text-transform:none"/>
 <ellipse id="circle12-6" cx="16.872" cy="16.872" rx="5.1282" ry="5.1282" fill="#ff5722" stroke-width=".32051"/>
 <path id="path14-7" d="m17.466 14.308c-1.5731 0.64102-2.5173 2.1436-2.5173 3.2051 0 1.0496 0.8259 1.9013 1.8517 1.9212-0.51262-0.01025-0.92558-0.43506-0.92558-0.95968 0-0.53104 0.47199-1.2821 1.2587-1.6026 0 1.1218 0.84462 1.284 0.62932 1.9231-0.12207 0.36239-0.41983 0.63744-0.93603 0.6404 3e-3 1.6e-5 0.0065 3.52e-4 0.0098 3.52e-4 1.0427 0 1.6425-0.55333 1.8879-1.282 0.43058-1.2783-1.2587-1.6026-1.2587-3.8462z" fill="#fff" stroke-width=".32051"/>
</svg>
