<?xml version="1.0" encoding="UTF-8"?>
<svg id="svg12" width="24" height="24" version="1" xmlns="http://www.w3.org/2000/svg" xmlns:cc="http://creativecommons.org/ns#" xmlns:dc="http://purl.org/dc/elements/1.1/" xmlns:rdf="http://www.w3.org/1999/02/22-rdf-syntax-ns#">
 <metadata id="metadata18">
  <rdf:RDF>
   <cc:Work rdf:about="">
    <dc:format>image/svg+xml</dc:format>
    <dc:type rdf:resource="http://purl.org/dc/dcmitype/StillImage"/>
    <dc:title/>
   </cc:Work>
  </rdf:RDF>
 </metadata>
 <path id="path10" d="m7.0671 18.942c-0.40015-0.053847-1.112-0.28554-1.5868-0.51408-3.0935-1.4823-4.3586-5.2157-2.8349-8.3604 1.7407-3.5956 6.4902-4.5122 9.3482-1.8039 0.82647 0.78192 1.1935 1.4491 2.4379 4.4075 1.299 3.0938 1.539 3.5803 1.96 3.9928 0.45094 0.43869 0.86879 0.58646 1.6683 0.58646 1.3136 0 2.2516-0.81192 2.2516-1.9448 0-0.95892-0.33705-1.266-2.0562-1.8763-2.6179-0.9443-3.4659-1.7978-3.469-3.5118 0-0.9143 0.23163-1.5238 0.82031-2.1557 0.84494-0.90192 2.3024-1.1998 3.5921-0.75192 0.55021 0.19554 1.7014 1.2145 1.7014 1.5061 0 0.14161-0.66718 0.57415-1.0373 0.67654-0.19546 0.050769-0.36398-0.015385-0.58946-0.23169-0.4571-0.43869-0.76644-0.57415-1.3136-0.57415-0.94421 0-1.5298 0.568-1.5298 1.4854 0 0.9143 0.37245 1.2237 2.2332 1.8517 2.5641 0.86584 3.3213 1.6478 3.3367 3.4571 0.01539 1.5631-0.68872 2.6905-2.0893 3.3578-0.63717 0.30092-0.8534 0.33946-1.8938 0.33946-1.4852 0-2.1524-0.27631-2.985-1.2145-0.55944-0.63107-1.1274-1.8155-2.9457-6.1392-0.75413-1.7917-1.7222-2.6698-3.3367-3.0154-0.818-0.17469-1.9569-0.01231-2.6995 0.37869-0.72412 0.37861-1.5329 1.2329-1.9146 2.0141-0.3155 0.63415-0.34552 0.81192-0.34552 1.9148 0 1.0521 0.04232 1.3015 0.30627 1.8786 0.40015 0.88123 1.1874 1.6955 2.0531 2.1341 0.62562 0.31554 0.82031 0.35484 1.8184 0.35484 0.95883 0 1.2051-0.04538 1.7768-0.31862 0.65256-0.31869 1.5298-1.1006 1.8876-1.6862l0.18622-0.304 0.36706 0.83884c0.20469 0.46331 0.36937 0.89892 0.36937 0.97738 0 0.23169-0.82955 0.989-1.5898 1.4608-1.1543 0.71269-2.4802 0.97969-3.8961 0.7873" fill="#555" stroke-width=".76922"/>
</svg>
