<?xml version="1.0" encoding="UTF-8"?>
<!-- Created with Inkscape (http://www.inkscape.org/) -->
<svg id="svg7384" width="24" height="24" enable-background="new" version="1.1" xmlns="http://www.w3.org/2000/svg" xmlns:cc="http://creativecommons.org/ns#" xmlns:dc="http://purl.org/dc/elements/1.1/" xmlns:rdf="http://www.w3.org/1999/02/22-rdf-syntax-ns#">
 <metadata id="metadata90">
  <rdf:RDF>
   <cc:Work rdf:about="">
    <dc:format>image/svg+xml</dc:format>
    <dc:type rdf:resource="http://purl.org/dc/dcmitype/StillImage"/>
    <dc:title>Paper Symbolic Icon Theme</dc:title>
   </cc:Work>
  </rdf:RDF>
 </metadata>
 <title id="title8473">Paper Symbolic Icon Theme</title>
 <defs id="defs7386">
  <filter id="filter7554" color-interpolation-filters="sRGB">
   <feBlend id="feBlend7556" in2="BackgroundImage" mode="darken"/>
  </filter>
 </defs>
 <g id="layer12" transform="translate(-425 47.016)">
  <path id="path8675" d="m448-34.516h-2.75c0-3.9135-2.5649-7.2019-6.0586-8.1902-0.0434-0.01276-0.0854-0.03259-0.12883-0.0442-0.35088-0.09279-0.70695-0.13232-1.0742-0.17709-0.32076-0.0391-0.65733-0.08854-0.98828-0.08854-0.8474 9.04e-4 -1.6897 0.13473-2.4922 0.39844v0.0442c-1.1572 0.37834-2.2187 0.98364-3.0937 1.8151l1.6328 2.2579c0.69025-0.7271 1.5924-1.199 2.5781-1.461v-0.0442c0.52266-0.12651 1.0857-0.17244 1.6328-0.13274 0.24997 0.01813 0.48027 0.04052 0.73046 0.08854 2.5672 0.47857 4.5117 2.7509 4.5117 5.5339h-2.75l4.125 5.6668 4.125-5.6668zm-5.414 6.2423-1.6328-2.2579c-0.69025 0.7271-1.5924 1.199-2.5781 1.461v0.0442c-0.52266 0.12651-1.0857 0.17244-1.6328 0.13274-0.24997-0.01813-0.48027-0.04052-0.73046-0.08854-2.5672-0.47857-4.5117-2.7509-4.5117-5.534h2.75l-4.125-5.6668-4.125 5.6668h2.75c0 3.9135 2.5649 7.2019 6.0586 8.1902 0.0443 0.01276 0.0843 0.03243 0.12884 0.0442 0.35088 0.09279 0.70694 0.13232 1.0742 0.17709 0.32076 0.0391 0.65733 0.08854 0.98828 0.08854 0.84741-9.03e-4 1.6897-0.13473 2.4922-0.39844v-0.0442c1.1572-0.37834 2.2187-0.98364 3.0937-1.8151z" enable-background="new" fill="#555"/>
 </g>
</svg>
