<?xml version="1.0" encoding="UTF-8"?>
<!-- Created with Inkscape (http://www.inkscape.org/) -->
<svg id="svg7384" width="24" height="24" enable-background="new" version="1.1" xmlns="http://www.w3.org/2000/svg" xmlns:cc="http://creativecommons.org/ns#" xmlns:dc="http://purl.org/dc/elements/1.1/" xmlns:rdf="http://www.w3.org/1999/02/22-rdf-syntax-ns#">
 <metadata id="metadata90">
  <rdf:RDF>
   <cc:Work rdf:about="">
    <dc:format>image/svg+xml</dc:format>
    <dc:type rdf:resource="http://purl.org/dc/dcmitype/StillImage"/>
    <dc:title>Paper Symbolic Icon Theme</dc:title>
   </cc:Work>
  </rdf:RDF>
 </metadata>
 <title id="title8473">Paper Symbolic Icon Theme</title>
 <g id="layer12" transform="matrix(1.4414 0 0 1.4286 -698.54 -143.32)">
  <path id="path10500" d="m491.19 101.72-0.1543 1.8438c-0.58462 0.21656-1.1282 0.53093-1.6074 0.92969l-1.6758-0.78906-1.75 3.0312 1.5215 1.0566c-0.0542 0.30631-0.0823 0.61667-0.084 0.92773 2.1e-4 0.31226 0.027 0.62393 0.0801 0.93164l-1.5176 1.0527 1.75 3.0312 1.6719-0.7871c0.48084 0.39706 1.0257 0.70945 1.6113 0.92382l0.1543 1.8477h3.5l0.1543-1.8438c0.58462-0.21656 1.1282-0.53093 1.6074-0.92969l1.6758 0.78906 1.75-3.0312-1.5215-1.0566c0.0542-0.30631 0.0823-0.61667 0.084-0.92773-2.1e-4 -0.31226-0.027-0.62393-0.0801-0.93164l1.5176-1.0527-1.75-3.0312-1.6719 0.7871c-0.48084-0.39706-1.0257-0.70945-1.6113-0.92382l-0.1543-1.8477z" enable-background="new" fill="#555"/>
 </g>
 <g id="g887" transform="matrix(.5 0 0 -.5 2.4096e-5 24.313)" fill="#fff">
  <g id="layer12-3" transform="matrix(.8354 .22384 -.22185 .82794 -368.44 -171.54)" enable-background="new">
   <path id="path10500-6" d="m491.19 101.72-0.1543 1.8438a5.5 5.5 0 0 0-1.6074 0.92969l-1.6758-0.78906-1.75 3.0312 1.5215 1.0566a5.5 5.5 0 0 0-0.084 0.92773 5.5 5.5 0 0 0 0.0801 0.93164l-1.5176 1.0527 1.75 3.0312 1.6719-0.7871a5.5 5.5 0 0 0 1.6113 0.92382l0.1543 1.8477h3.5l0.1543-1.8438a5.5 5.5 0 0 0 1.6074-0.92969l1.6758 0.78906 1.75-3.0312-1.5215-1.0566a5.5 5.5 0 0 0 0.084-0.92773 5.5 5.5 0 0 0-0.0801-0.93164l1.5176-1.0527-1.75-3.0312-1.6719 0.7871a5.5 5.5 0 0 0-1.6113-0.92382l-0.1543-1.8477zm1.75 5a2 2 0 0 1 2 2 2 2 0 0 1-2 2 2 2 0 0 1-2-2 2 2 0 0 1 2-2z" enable-background="new" fill="#fff"/>
  </g>
  <g id="layer12-3-5" transform="matrix(.83543 -.22384 .22185 .82794 -407.7 40.14)" enable-background="new">
   <path id="path10500-6-3" d="m491.19 101.72-0.1543 1.8438a5.5 5.5 0 0 0-1.6074 0.92969l-1.6758-0.78906-1.75 3.0312 1.5215 1.0566a5.5 5.5 0 0 0-0.084 0.92773 5.5 5.5 0 0 0 0.0801 0.93164l-1.5176 1.0527 1.75 3.0312 1.6719-0.7871a5.5 5.5 0 0 0 1.6113 0.92382l0.1543 1.8477h3.5l0.1543-1.8438a5.5 5.5 0 0 0 1.6074-0.92969l1.6758 0.78906 1.75-3.0312-1.5215-1.0566a5.5 5.5 0 0 0 0.084-0.92773 5.5 5.5 0 0 0-0.0801-0.93164l1.5176-1.0527-1.75-3.0312-1.6719 0.7871a5.5 5.5 0 0 0-1.6113-0.92382l-0.1543-1.8477zm1.75 5a2 2 0 0 1 2 2 2 2 0 0 1-2 2 2 2 0 0 1-2-2 2 2 0 0 1 2-2z" enable-background="new" fill="#fff"/>
  </g>
 </g>
</svg>
