<?xml version="1.0" encoding="UTF-8"?>
<svg id="svg12" width="24" height="24" version="1" xmlns="http://www.w3.org/2000/svg" xmlns:cc="http://creativecommons.org/ns#" xmlns:dc="http://purl.org/dc/elements/1.1/" xmlns:rdf="http://www.w3.org/1999/02/22-rdf-syntax-ns#">
 <metadata id="metadata18">
  <rdf:RDF>
   <cc:Work rdf:about="">
    <dc:format>image/svg+xml</dc:format>
    <dc:type rdf:resource="http://purl.org/dc/dcmitype/StillImage"/>
    <dc:title/>
   </cc:Work>
  </rdf:RDF>
 </metadata>
 <rect id="rect2" transform="matrix(0,-1,-1,0,0,0)" x="-23" y="-23" width="22" height="22" rx="11" ry="11" fill="#444" stroke-width=".55003"/>
 <path id="path10" d="m12 3.75a8.25 8.25 0 0 0-8.25 8.25 8.25 8.25 0 0 0 8.25 8.25 8.25 8.25 0 0 0 8.25-8.25 8.25 8.25 0 0 0-8.25-8.25zm0 1.65c0.9141 0 1.65 0.7359 1.65 1.65v7.7c0 0.9141-0.7359 1.65-1.65 1.65s-1.65-0.7359-1.65-1.65v-7.7c0-0.9141 0.7359-1.65 1.65-1.65zm-4.95 4.4c0.9141 0 1.65 0.7359 1.65 1.65v3.3c0 0.9141-0.7359 1.65-1.65 1.65s-1.65-0.7359-1.65-1.65v-3.3c0-0.9141 0.7359-1.65 1.65-1.65zm9.9 0c0.9141 0 1.65 0.7359 1.65 1.65v3.3c0 0.9141-0.7359 1.65-1.65 1.65s-1.65-0.7359-1.65-1.65v-3.3c0-0.9141 0.7359-1.65 1.65-1.65z" fill="#fff" stroke-width=".55"/>
</svg>
