<?xml version="1.0" encoding="UTF-8"?>
<!-- Created with Inkscape (http://www.inkscape.org/) -->
<svg id="svg7384" width="24" height="24" enable-background="new" version="1.1" xmlns="http://www.w3.org/2000/svg" xmlns:cc="http://creativecommons.org/ns#" xmlns:dc="http://purl.org/dc/elements/1.1/" xmlns:rdf="http://www.w3.org/1999/02/22-rdf-syntax-ns#">
 <metadata id="metadata90">
  <rdf:RDF>
   <cc:Work rdf:about="">
    <dc:format>image/svg+xml</dc:format>
    <dc:type rdf:resource="http://purl.org/dc/dcmitype/StillImage"/>
    <dc:title>Paper Symbolic Icon Theme</dc:title>
   </cc:Work>
  </rdf:RDF>
 </metadata>
 <title id="title8473">Paper Symbolic Icon Theme</title>
 <defs id="defs7386">
  <filter id="filter7554" color-interpolation-filters="sRGB">
   <feBlend id="feBlend7556" in2="BackgroundImage" mode="darken"/>
  </filter>
 </defs>
 <g id="layer14" transform="translate(-665 359)" fill="#555">
  <path id="path5092" d="m682.25-346.5c-2.6234 0-4.75 2.1266-4.75 4.75 0 2.6234 2.1266 4.75 4.75 4.75 2.6234 0 4.75-2.1266 4.75-4.75 0-2.6234-2.1266-4.75-4.75-4.75zm-0.67857 1.3572h1.3571v6.7857h-1.3571v-4.75h-1.3571v-0.67858c1.3571 0 1.3571-1.3571 1.3571-1.3571z" color="#555555" enable-background="new" stroke-width="2.7143"/>
  <path id="path7442" d="m672.44-357v11.092c-0.43057-0.15445-0.87603-0.25484-1.3597-0.25484-2.2542 0-4.082 1.8269-4.082 4.0811s1.8278 4.082 4.082 4.082c2.2542 0 4.0811-1.8278 4.0811-4.082v-9.5238h8.4762v4.4959c1.0828 0.28308 2.0311 0.8989 2.7214 1.7383v-11.628z"/>
 </g>
</svg>
