<?xml version="1.0" encoding="UTF-8"?>
<!-- Created with Inkscape (http://www.inkscape.org/) -->
<svg id="svg7384" width="24" height="24" enable-background="new" version="1.1" xmlns="http://www.w3.org/2000/svg" xmlns:cc="http://creativecommons.org/ns#" xmlns:dc="http://purl.org/dc/elements/1.1/" xmlns:rdf="http://www.w3.org/1999/02/22-rdf-syntax-ns#">
 <metadata id="metadata90">
  <rdf:RDF>
   <cc:Work rdf:about="">
    <dc:format>image/svg+xml</dc:format>
    <dc:type rdf:resource="http://purl.org/dc/dcmitype/StillImage"/>
    <dc:title>Paper Symbolic Icon Theme</dc:title>
   </cc:Work>
  </rdf:RDF>
 </metadata>
 <title id="title8473">Paper Symbolic Icon Theme</title>
 <defs id="defs7386">
  <filter id="filter7554" color-interpolation-filters="sRGB">
   <feBlend id="feBlend7556" in2="BackgroundImage" mode="darken"/>
  </filter>
 </defs>
 <g id="layer12" transform="translate(-265 -173)">
  <path id="path4743" d="m268.75 174a2.75 2.75 0 0 0-2.75 2.75 2.75 2.75 0 0 0 0.80567 1.9443l6.3057 6.3057-6.3057 6.3057a2.75 2.75 0 0 0-0.80567 1.9443 2.75 2.75 0 0 0 2.75 2.75 2.75 2.75 0 0 0 1.9443-0.80567l6.3057-6.3057 6.2788 6.2788a2.75 2.75 0 0 0 1.9712 0.83251 2.75 2.75 0 0 0 2.75-2.75 2.75 2.75 0 0 0-0.80567-1.9443l-6.3057-6.3057 6.2788-6.2788a2.75 2.75 0 0 0 0.83251-1.9712 2.75 2.75 0 0 0-2.75-2.75 2.75 2.75 0 0 0-1.9443 0.80567l-6.3057 6.3057-6.2788-6.2788a2.75 2.75 0 0 0-0.0275-0.0275 2.75 2.75 0 0 0-1.9442-0.80501z" enable-background="new" fill="#555"/>
 </g>
</svg>
