<svg viewBox="0 0 24 24" xmlns="http://www.w3.org/2000/svg"><path d="m19.513672 4.0078125a2 9 45 0 0 -7.445313 5.0976563 2 9 45 0 0 -3.5429684 4.1132812c1.07606.34264 1.9151724 1.181745 2.2578124 2.257812a2 9 45 0 0 4.113281-3.542968 2 9 45 0 0 4.949219-7.777344 2 9 45 0 0 -.332031-.1484375zm-2.013672 7.9921875c-.48645 1.70252-1.676242 3.166141-2.201172 4.337891-.1837.34839-.298828.739399-.298828 1.162109 0 1.385 1.115 2.5 2.5 2.5s2.5-1.115 2.5-2.5c0-.42271-.113175-.813719-.296875-1.162109-.52492-1.17175-1.716675-2.635371-2.203125-4.337891zm-9.5 2.664062c-4.00001 1.071802-1 3.603888-4 5.335938 4.00339 0 6-2.00082 6-3.335938 0-.66488.0676-1.88944-2-2zm10.642578 1.195313c.51885.3606.857422.958165.857422 1.640625 0 1.108-.892 2-2 2-.68248 0-1.280025-.338542-1.640625-.857422.32352.22486.715085.357422 1.140625.357422 1.108 0 2-.892 2-2 0-.42554-.132562-.817105-.357422-1.140625z" fill="#5d656b"/></svg>