<svg viewBox="0 0 24 24" xmlns="http://www.w3.org/2000/svg"><path d="m4 4v5h1v-4h2v3 1h1v-1-3h2v4h1v-4h2v4h1v-4h2v3 1h1v-1-3h2v4h1v-4-1h-15zm11 6 2.5 5 2.5-5zm-11 5v5h1 8 1 2 1 2 1v-1-4h-1v4h-2v-4h-1v4h-2v-4h-1v4h-2v-4h-1v4h-2v-4h-1v4h-2v-4z" fill="#5d656b"/><path d="m4 9v1h1 3.28125l-3.28125 3.28125v.011719l-.7070312.707031h-.2929688v1h1 7 2v-1h-.28125l.28125-.28125v-1.4375l-1.71875 1.71875h-.28125-2.28125l2.28125-2.28125 1.71875-1.71875h.28125v-1h-2-2.7070312-4.2929688zm5.71875 1h2.28125.28125l-.28125.28125-3.71875 3.71875h-2.5625z" fill="#3daee9"/></svg>