<svg viewBox="0 0 24 24" xmlns="http://www.w3.org/2000/svg"><g fill="#5d656b"><path d="m4.7070312 3 1 1h6.2929688v6.292969l1.707031 1.707031h6.292969v6.292969l1 1v-.292969-7-1-7-1h-1-7-1-7zm-.7070312.7070312v.2929688 7 1 7 1h1 7 1 7 .292969l-1-1h-6.292969v-6.292969l-1.707031-1.707031h-6.292969v-6.2929688zm9 .2929688h7v7h-7zm-8 8h7v7h-7z" fill-opacity=".1"/><path d="m5.7070312 4 6.2929688 6.292969v-6.292969zm7.2929688 0v7h7v-7zm-8 .7070312v6.2929688h6.292969zm0 7.2929688v7h7v-7zm8.707031 0 6.292969 6.292969v-6.292969zm-.707031.707031v6.292969h6.292969z" fill-opacity=".5"/><path d="m4 3v.7070312l16.292969 16.2929688h.707031v-.707031l-16.2929688-16.292969z"/></g></svg>