<svg viewBox="0 0 24 24" xmlns="http://www.w3.org/2000/svg"><path d="m11 3v2.1308594c-.977173.1418826-1.8093123.3990784-2.4628906.8007812-1.0105468.6149-1.515626 1.5580782-1.515625 2.8300782-.0045556 2.1952922 1.5574743 2.9186712 3.9785156 3.5839842v4.990235c-1.1727187-.099011-2.2448911-.319434-3.3769531-.802735l-.6230469 1.355469c.5645099.3013 1.3272997.562156 2.2890625.785156.5442785.122315 1.1112195.200577 1.7109375.253906v2.072266h1v-2.023438c.170103.004537.31439.023438.494141.023438.163513-.001299.336092-.015301.505859-.023438v2.023438h1v-2.119141c1.996749-.284852 3.979968-1.202256 3.958984-3.6875-.069977-1.829093-1.20312-2.50751-3.958984-3.476562v-4.9531251c.903263.1207438 2.002058.3722771 3.224609.9824219l.775391-1.5429688c-.550584-.2955-1.83109-.7664063-2.646484-.9414062-.433515-.0926134-.886519-.155605-1.353516-.1992188v-2.0625h-1v2.0136719c-.092209-.0017585-.17809-.0136719-.271484-.0136719-.256737 0-.487798.0203437-.728516.0332031v-2.0332031zm1.4375 3.6484375c.151024.0008281.362335.0094494.5625.0175781v4.7011724c-.157449-.052711-.25536-.093163-.421875-.148438-.178702-.043982-.384922-.108127-.578125-.160156v-4.3964846c.145876-.0063703.291583-.0136564.4375-.0136719zm-1.4375.1113281v3.9960934c-1.2269945-.434373-2.3570412-1.0911999-2.3242188-2.1894528-.0595487-1.0413022 1.0044504-1.5907823 2.3242188-1.8066406zm1 5.8535154c.183874.046792.329816.092106.521484.140625.16101.045819.317398.097349.478516.144532v4.492187c-.149465.003087-.311388.018789-.451172.017578-.191477-.00178-.36467-.01399-.548828-.019531zm2 .597657c1.281472.448538 2.319699 1.035348 2.296875 2.064453-.038883 1.395694-1.131612 1.882894-2.296875 2.048828z" fill="#5d656b"/></svg>