<svg viewBox="0 0 24 24" xmlns="http://www.w3.org/2000/svg"><path d="m19.292969 4-3.5 3.5-1.5-1.5-2 2-1.792969 1.7929688 1.5 1.5000002.707031.707031 1.5 1.5 1.792969-1.792969 2-1.9999998-1.5-1.5 3.5-3.5zm-9.5000002 6.5-.7929688.792969-2 2 1.5 1.5-4.5 4.5.7070312.707031 4.5-4.5 1.4999998 1.5 2-2 .792969-.792969-1.5-1.5-.707031-.707031z" fill="#5d656b"/><path d="m14.990234 14-.990234.990234 2.009766 2.009766-2.009766 2.009766.990234.990234 2.009766-2.009766 2.009766 2.009766.990234-.990234-2.009766-2.009766 2.009766-2.009766-.990234-.990234-2.009766 2.009766z" fill="#da4453"/></svg>