<svg viewBox="0 0 24 24" xmlns="http://www.w3.org/2000/svg"><path d="m16.316406 8.609375v6.65625h1.060547v-6.65625zm-9.6015622.4082031-2.7148438 6.2480469h1.2324219l.5664062-1.425781h2.6972657l.5800781 1.425781h1.2656251l-2.6835939-6.2480469zm.4277343 1.3320309c.088746.3006.1870464.583343.2929688.84961l.6738281 1.683593h-1.9375l.6699219-1.654296c.1116479-.274801.2120355-.56684.3007812-.878907zm5.8964839.552735c-.646983 0-1.194035.205901-1.640624.615234-.446594.406533-.669922.947447-.669922 1.623047 0 .669933.207946 1.211886.623046 1.626953.415104.415133.962149.623047 1.640626.623047.423688 0 .783261-.06553 1.078124-.197266.29773-.134533.543614-.313842.738282-.537109.197531-.223333.333771-.467135.408203-.730469.07729-.266266.115234-.48341.115234-.652343 0-.340667-.029723-.612167-.089843-.8125-.09447-.317801-.24714-.598464-.458985-.841797-.211845-.243334-.468941-.423616-.769531-.541016-.297728-.117333-.62249-.175781-.97461-.175781zm0 .9375c.403651 0 .7069.129053.910157.386718.206118.257601.308594.579417.308593.96875.000003.223336-.0472.43528-.144531.632813-.09733.197533-.245828.35337-.443359.470703-.194668.1174-.416955.177736-.666016.177734-.346394 0-.632307-.119821-.861328-.357421-.226159-.240467-.339844-.559098-.339844-.957032 0-.397933.116816-.716564.351563-.957031.234747-.243333.529784-.365234.884765-.365234zm6.261719 2.078125c-.197531 0-.366493.06768-.503906.205078-.13455.1374-.201172.30338-.201172.498047 0 .194666.06962.360647.207031.498047.137413.1346.303379.203125.498047.203125.191806 0 .354775-.06957.492188-.207032.137412-.1374.207031-.30234.207031-.49414 0-.194667-.06962-.360647-.207031-.498047-.13455-.1374-.29752-.205078-.492188-.205078z" fill="#5d656b"/></svg>