<svg viewBox="0 0 24 24" xmlns="http://www.w3.org/2000/svg"><path d="m12 4a8 7.99997 0 0 0 -8 8 8 7.99997 0 0 0 8 8 8 7.99997 0 0 0 8-8 8 7.99997 0 0 0 -8-8zm0 1a7 6.999974 0 0 1 7 7 7 6.999974 0 0 1 -7 7 7 6.999974 0 0 1 -7-7 7 6.999974 0 0 1 7-7zm-3.1621094 3.1308594a5 5 0 0 0 -.7070312.7070312l3.1621096 3.1621094-3.1621096 3.162109a5 5 0 0 0 .7070312.707032l3.1621094-3.16211 3.162109 3.16211a5 5 0 0 0 .707032-.707032l-3.16211-3.162109 3.16211-3.1621094a5 5 0 0 0 -.707032-.7070312l-3.162109 3.1621096z" fill="#da4453"/></svg>