<svg viewBox="0 0 24 24" xmlns="http://www.w3.org/2000/svg"><path d="m8.4257812 4c-2.4439898 0-4.4257812 1.9535114-4.4257812 4.3632812 0 .80553.223145 1.5593608.609375 2.2070308-.10142.48865-.15625.995312-.15625 1.513672 0 4.15598 3.4160498 7.525391 7.630859 7.525391.47783 0 .945218-.04399 1.398438-.126953.62283.33048 1.335107.517578 2.091797.517578 2.44436 0 4.425781-1.953171 4.425781-4.363281 0-.69611-.166657-1.35349-.460938-1.9375.115231-.52033.177735-1.060935.177735-1.615235 0-4.1559192-3.41602-7.5253903-7.630859-7.5253902-.444861 0-.882341.040108-1.306641.1113281-.68224-.42346-1.4878856-.6699219-2.3535158-.6699219zm3.6093748 2.7890625c.68175 0 1.28086.078832 1.78125.2324219.50272.1544.926626.3625006 1.259766.6191406.3356.25867.585347.5351356.742187.8222656.15848.29063.238282.5777919.238282.8574219 0 .26877-.10449.5140525-.3125.7265625-.20933.2144-.474167.324219-.785157.324219-.28249 0-.50293-.06902-.65625-.203125-.14306-.12427-.290648-.3187965-.455078-.5976565-.19041-.35675-.421297-.6378575-.685547-.8359375-.25639-.19254-.684337-.2890625-1.273437-.2890625-.54712 0-.991816.1070025-1.322266.3203125-.3185.20587-.474609.4433764-.474609.7226562 0 .1714801.04958.3140901.152344.4375.10846.1304098.261788.2444738.455078.3398438.2004.0997.408444.178125.615234.234375.2123.0581.567018.144399 1.054688.255859.61766.13067 1.18552.277347 1.6875.435547.50788.16053.94884.358131 1.30664.587891.36565.23466.654185.536384.859375.896484.20609.36089.310547.806239.310547 1.324219-.00011.61966-.180646 1.185546-.535156 1.679688-.35262.49305-.872978.883166-1.548828 1.160156-.66916.27429-1.471586.414062-2.384766.414062-1.09622 0-2.015402-.191436-2.7324218-.566406-.5126598-.27341-.9368925-.641016-1.2578124-1.097656-.32405-.46129-.4882813-.919918-.4882813-1.361328 0-.2758.1072194-.513595.3183594-.708985.20905-.19412.477555-.292968.796875-.292969.26233 0 .488025.07737.671875.230469.17553.14694.3264256.364072.4472656.644531.13549.305472.2837735.562555.4394535.765626.14983.19547.363732.359831.638672.488281.276941.12934.650576.195312 1.109374.195312.631091 0 1.1481-.132441 1.53711-.394531.3799-.25546.564453-.563243.564453-.939453 0-.29721-.09671-.529771-.294922-.712891-.20798-.19147-.481263-.341069-.814453-.443359-.34663-.10614-.816457-.221637-1.398438-.341797-.79193-.1672-1.464779-.365174-1.9999995-.589844-.54712-.22933-.98999-.548835-1.3125-.947265-.32763-.40385-.4921875-.911353-.4921875-1.5078129 0-.56843.1735581-1.0796243.5175781-1.5214843.34109-.4390602.8386988-.7816251 1.4804688-1.015625.6334501-.2309401 1.3880641-.3476563 2.2402341-.3476563z" fill="#5d656b"/></svg>