<svg viewBox="0 0 24 24" xmlns="http://www.w3.org/2000/svg"><path d="m15.078125 5.5c-1.8128 0-3.283203 1.46874-3.283203 3.28125 0 .25718.028084.5078769.083984.7480469-2.7280354-.13683-5.1467045-1.4422044-6.7656248-3.4277344-.2826099.48466-.4433593 1.0470075-.4433593 1.6484375 0 1.13867.5781645 2.1439017 1.4589843 2.732422-.5380998-.0167-1.0437781-.164386-1.4863281-.410156-.0003.014 0 .027015 0 .041015 0 1.590139 1.1312425 2.915187 2.6328125 3.216797-.27538.0751-.5658343.115235-.8652344.115234-.21149 0-.4167376-.020593-.6171874-.058593.4177398 1.30382 1.6299862 2.252927 3.0664062 2.279297-1.12342.88034-2.5382419 1.404298-4.0761719 1.404296-.26497-.000006-.5264531-.014621-.7832031-.044921 1.45265.93119 3.17753 1.474609 5.03125 1.474609 6.03772 0 9.339844-5.000811 9.339844-9.3378906 0-.14225-.004766-.283068-.009766-.4238282.641444-.46274 1.198622-1.0410287 1.638672-1.6992187-.58859.261-1.220866.436265-1.884766.515625.67761-.40617 1.196307-1.0480531 1.441407-1.8144531-.63428.37614-1.336255.649765-2.083985.796875-.59869-.63781-1.450421-1.0371094-2.394531-1.0371094z" fill="#5d656b"/></svg>