<svg viewBox="0 0 24 24" xmlns="http://www.w3.org/2000/svg"><path d="m4 7.0332031.0136719.7207031 2.1074219.2753907c.5778198.5024 3.7913499 4.2208811 4.2812502 5.1757811l.048828 2.664063c-.31404.41389-2.2343751.328125-2.2343751.328125l-.1640625.769531s7.1969246-.144194 7.2343746-.060547c-.018-.0959.013672-.720703.013672-.720703l-2.335937-.0625s-.152166-1.898516-.039063-3.003906c1.53253-1.69615 4.267578-3.6113285 4.267578-3.6113285l1.857422-.3164063.427735-.7441406-6.324219-.0390625.164062.7714844s1.729549.1382125 1.917969.2890625c-.0251.37692-2.992187 2.753906-2.992187 2.753906l-3.244141-4.3691404 2.273438-.1757812.099609-.5429688zm14.330078 4.4765629.015625 4.066406.693359.091797.960938-3.931641zm-.132812 4.515625-.113282.802734.847657.138672.126953-.845703z" fill="#5d656b"/></svg>