<svg enable-background="new" height="24" width="24" xmlns="http://www.w3.org/2000/svg"><g stroke-width="3.545621" transform="matrix(.375 0 0 .375 0 -.1875)"><path d="m10.6 4.4999999v3.9285715h-9.6v3.9285716 43.214286c0 2.176428 1.4272 3.928571 3.2 3.928571h25.6c1.7728 0 3.2-1.752143 3.2-3.928571v-43.214286-3.9285716h-9.6v-3.9285715z" fill="#f9ce1d"/><path d="m1 24.142857v31.428572c0 2.176428 1.4272 3.928571 3.2 3.928571h25.6c1.7728 0 3.2-1.752143 3.2-3.928571v-31.428572z" fill="#263238"/></g><rect fill="#fff" height="20.250061" ry=".71175" stroke="#000" stroke-width=".374939" width="9.750061" x="13.687469" y="1.687471"/><path d="m6.375 5.625v4.640625h3.75l-3.75 7.734375v-4.640625h-3.75z" fill="#fafafa" stroke-width="1.390537"/></svg>