<svg viewBox="0 0 24 24" xmlns="http://www.w3.org/2000/svg"><path d="m2 4v9h1v-7.7773438-.2226562h.0488281l.2226563.2226562 5.7519531 5.7539058-2.0234375 2.023438h1.4140625l1.3164063-1.316406 1.4531252 1.451172.816406.814453h.001953l.814453-.814453 1.453125-1.451172 1.316407 1.316406h1.414062l-2.023438-2.023438 5.751954-5.7539058.222656-.2226562h.048828v.2226562 7.7773438h1v-8-1h-1-.462891-17.0742184-.4628906-.9511719zm2.4628906 1h15.0742184l-7.537109 7.537109zm.5371094 9-3 3 3 3v-2h1 1v-2h-1-1zm11 1v1h6v-1zm0 2v1h6v-1zm-7 2v1h6v-1zm7 0v1h6v-1z" fill="#5d656b"/></svg>