<svg viewBox="0 0 24 24" xmlns="http://www.w3.org/2000/svg"><path d="m9 7c-1.6619997 0-3 1.3380003-3 3 0 1.662 1.3380003 3 3 3 1.662 0 3-1.338 3-3 0-1.6619997-1.338-3-3-3zm0 7c-2.7700166 0-5 2.229983-5 5v1h10v-1c0-2.770017-2.229983-5-5-5zm0 1c2.216017 0 4 1.783983 4 4h-8c0-2.216017 1.7839834-4 4-4z" fill="#5d656b"/><path d="m11 4c-.554 0-1 .446-1 1s.446 1 1 1 1-.446 1-1-.446-1-1-1zm4 0c-.554 0-1 .446-1 1s.446 1 1 1 1-.446 1-1-.446-1-1-1zm4 0c-.554 0-1 .446-1 1s.446 1 1 1 1-.446 1-1-.446-1-1-1z" fill="#f67400"/></svg>