<svg viewBox="0 0 24 24" xmlns="http://www.w3.org/2000/svg" xmlns:xlink="http://www.w3.org/1999/xlink"><linearGradient id="a" gradientUnits="userSpaceOnUse" x1="5.999995" x2="17.999995" y1="18.000035" y2="6.000035"><stop offset="0" stop-color="#1d99f3"/><stop offset="1" stop-color="#cae7fc"/></linearGradient>
a
  <path d="m4 5v14h16v-14zm7.941406 1a6 6 0 0 1 6.058594 5.921875v.078125a6 6 0 0 1 -5.980469 6 6 6 0 0 1 -6.019531-5.960938 6 6 0 0 1 5.941406-6.039062z" fill="#5d656b"/><path d="m18 12a6 6 0 0 1 -5.98036 5.99997 6 6 0 0 1 -6.01951-5.9607 6 6 0 0 1 5.94097-6.03898 6 6 0 0 1 6.05839 5.92118" fill="url(#a)"/></svg>