<svg viewBox="0 0 24 24" xmlns="http://www.w3.org/2000/svg"><path d="m12 7a10 9.9999752 0 0 0 -8.6855469 5.070312c.1851088.291428.4456269.526926.7519531.689454a9 8.9999781 0 0 1 7.9335938-4.759766 4 4 0 0 0 -4 4 4 4 0 0 0 4 4 4 4 0 0 0 4-4 4 4 0 0 0 -3.65625-3.9824219 9 8.9999781 0 0 1 7.587891 4.7441409c.309422-.163642.571983-.402424.757812-.697266a10 9.9999752 0 0 0 -8.689453-5.064453zm0 2a3 3 0 0 1 3 3 3 3 0 0 1 -3 3 3 3 0 0 1 -3-3 3 3 0 0 1 3-3z" fill="#5d656b"/><path d="m12 10a1.9999999 2.0000005 0 0 0 -2 2 1.9999999 2.0000005 0 0 0 2 2 1.9999999 2.0000005 0 0 0 2-2 1.9999999 2.0000005 0 0 0 -.089844-.587891.99999984 1 0 0 1 -.910156.587891.99999984 1 0 0 1 -1-1 .99999984 1 0 0 1 .589844-.910156 1.9999999 2.0000005 0 0 0 -.589844-.089844z" fill="#da4453"/></svg>