<svg viewBox="0 0 24 24" xmlns="http://www.w3.org/2000/svg"><path d="m9 5v1h12v-1zm0 2v1h5v-1zm0 4v1h12v-1zm0 2v1h6v-1zm0 4v1h12v-1zm0 2v1h9v-1z" fill="#5d656b"/><path d="m6.5 5c-.82842 0-1.49999.67157-1.5 1.5.00001.82843.67158 1.5 1.5 1.5s1.49999-.67157 1.5-1.5c-.00001-.82843-.67158-1.5-1.5-1.5zm0 6c-.82843 0-1.5.67157-1.5 1.5s.67157 1.5 1.5 1.5 1.5-.67157 1.5-1.5-.67157-1.5-1.5-1.5z" fill="#27ae60"/><path d="m6.5 17c-.82843 0-1.5.67157-1.5 1.5s.67157 1.5 1.5 1.5 1.5-.67157 1.5-1.5-.67157-1.5-1.5-1.5zm12.5 3v1h2v-1z" fill="#da4453"/></svg>