<svg enable-background="new" height="24" width="24" xmlns="http://www.w3.org/2000/svg"><g transform="matrix(.375 0 0 .375 18.562463 -1.08072)"><path d="m-45.499903 6.8819186v50.0000004h35.000001v-50.0000004z" fill="#444" stroke-width="2.391082"/><g stroke-width="2.45026"><path d="m-29.301603 12.66625c.411864-.0419.87881 0 1.301701 0 6.766147 0 12.251298 5.485152 12.251298 12.251299s-5.485151 12.251298-12.251298 12.251298-12.251299-5.485151-12.251299-12.251298c0-6.343232 4.771881-11.624032 10.949721-12.251299zm.539057 8.649417c-1.641674.343037-2.842301 1.862198-2.842301 3.601882 0 1.98177 1.617049 3.522248 3.598942 3.522248 1.98177 0 3.522248-1.540478 3.522248-3.522248s-1.540478-3.598941-3.522248-3.598941c-.247722 0-.531829-.04803-.765707 0z" fill="#fafafa"/><path d="m-35.105778 39.539471 11.859257-10.038224c1.053906-.89209 2.0517-1.442541 2.430045-1.064196.378345.378344-.171763 1.376311-1.064221 2.430094l-10.038224 11.859257c-.885549 1.046334-2.457856 1.036435-3.340684.153631-.882829-.882829-.892728-2.45516.153631-3.340684z" fill="#b3b3b3"/></g></g><g fill="#3689e6" transform="matrix(.375 0 0 .375 -1.5 .75)"><path d="m37.5 23h20v20h-20z"/><path d="m30 42 17.500001 15 17.499999-15z"/></g></svg>