<svg viewBox="0 0 24 24" xmlns="http://www.w3.org/2000/svg"><path d="m4 4v16h16v-11h-1v10h-14v-14h9v-1zm12.5 0-.707031.7070312-2.792969 2.7929688.707031.7070312 2.292969-2.2929687v4.2929685.792969h1v-5.0859375l2.292969 2.2929687.707031-.7070312-2.792969-2.7929688zm-8 2c-1.385 0-2.5 1.115-2.5 2.5s1.115 2.5 2.5 2.5 2.5-1.115 2.5-2.5-1.115-2.5-2.5-2.5zm0 1c.831 0 1.5.669 1.5 1.5s-.669 1.5-1.5 1.5-1.5-.669-1.5-1.5.669-1.5 1.5-1.5zm6.494141 4-3.345703 3.34375-1.341797-1.34375-.00586.007812-.007812-.007812-4.292969 4.292969.7070312.707031 3.5917968-3.591797.642578.642578.707032.707031.707031-.707031 2.644531-2.644531 2.292969 2.292969.707031-.707031-2.992188-2.992188-.007812.007812z" fill="#5d656b"/></svg>