<svg enable-background="new" height="24" width="24" xmlns="http://www.w3.org/2000/svg"><circle cx="11.999999" cy="11.6865" fill="#206b00" r="10.5" stroke-width=".375"/><path d="m12 1.1864995a10.5 10.5 0 0 0 -10.5000005 10.5000005 10.5 10.5 0 0 0 .0080625.21975 10.5 10.5 0 0 1 10.491938-10.3447505 10.5 10.5 0 0 1 10.492124 10.2802495 10.5 10.5 0 0 0 .007876-.15525 10.5 10.5 0 0 0 -10.5-10.4999995z" fill="#fff" opacity=".2" stroke-width=".375"/><g stroke-width=".365326"><path d="m6.4643295 2.8066201c1.0175329.00869 2.0244735.4032718 2.8039793 1.1728608 1.1745562 1.159755 1.4505922 2.8397966.8760882 4.2686171.04424.034635.114651.07476.155776.1153043l2.511742 2.4807157c.561419.553759.561419 1.464383 0 2.018757l-.233665.230733c-.560794.553758-1.482994.553758-2.044411 0l-2.5310592-2.480838c-.041123-.04-.06231-.109522-.097828-.153822-1.4468533.56791-3.1479339.294722-4.3224899-.8650935-.1588922-.1562835-.3053221-.325488-.4286973-.499614-.0411249-.058452-.0791345-.1132125-.116521-.1735102-.4679527-.9735083-.2218259-.9155483.7981994-.6534353 1.0318646 0 1.8693199-.8269466 1.8693199-1.8458621s-.8374553-1.8458618-1.8693199-1.8458618c-.6231064 0 .3701254-1.1682458 1.1290691-1.4805042.036139-.013893.061687-.04491.097828-.057714.013084-.00392.025549.00379.038633 0 .4374203-.1498348.905373-.2346396 1.3633564-.2307328z" fill="#abacae" stroke="#7e8087"/><path d="m20.789379 17.466538c.535945.52922.535847 1.403547.000096 1.932576l-1.415507 1.397742c-.535754.529031-1.42119.529126-1.957136-.000094l-7.6788027-7.582444c-.5357535-.52903-.5357535-1.403451 0-1.932481l1.4155047-1.397743c.535753-.5290297 1.421287-.5290297 1.95704 0z" fill="#cc3b02" stroke="#a62100"/></g></svg>