<svg viewBox="0 0 16 16" xmlns="http://www.w3.org/2000/svg"><path d="m5 2v10.9375c-.1067247.019729-.1885547.043239-.3007812.0625l.2089843 1c.0317246-.005445.0603184-.013884.0917969-.019531v.019531h1v-.246094c3.7507108-1.014607 5.449219-3.574667 5.449219-5.753906h-1.107422c0 .69264-.3498589 2.029962-.9492189 2.544922-.61184-.5798102-1.3494537-1.477127-1.5273437-2.529297l-.8925782-.015625c0 1.42386 1.0072919 2.602552 1.7636719 3.326172-.6839955.694821-1.4968788 1.099021-2.7363281 1.40625v-10.732422zm4.3320312 0c-.8675872.0182-1.5333402.1551085-2.0175781.3554688l.2714844.9003906c.2320279-.0729001 1.1105001-.3261719 1.625-.3261719h.0703125c.7162657.0273.765625.2628086.765625.8183594v.21875l-.3730469.0546875c-1.7351856.2276903-2.6621094.418902-2.6621093 1.6210937 0 .8378912.6757301 1.3574219 1.6542968 1.3574219.6759126 0 1.1202545-.255482 1.5742184-.6015625l.140625.5097656h1.06836v-3.3691406c0-1.0291414-.785499-1.5390625-1.996094-1.5390625zm.7148438 2.6777344v1.1191406c-.3732584.2276903-.654434.3925781-1.1386719.3925781-.4337936 0-.6464843-.2457164-.6464843-.5917969 0-.6557408.6353083-.7650542 1.4121093-.8652343z" fill="#5d656b"/></svg>