<?xml version="1.0" encoding="UTF-8"?>
<svg id="svg12" width="16" height="16" version="1" xmlns="http://www.w3.org/2000/svg" xmlns:cc="http://creativecommons.org/ns#" xmlns:dc="http://purl.org/dc/elements/1.1/" xmlns:rdf="http://www.w3.org/1999/02/22-rdf-syntax-ns#">
 <metadata id="metadata18">
  <rdf:RDF>
   <cc:Work rdf:about="">
    <dc:format>image/svg+xml</dc:format>
    <dc:type rdf:resource="http://purl.org/dc/dcmitype/StillImage"/>
    <dc:title/>
   </cc:Work>
  </rdf:RDF>
 </metadata>
 <rect id="rect2" x=".5" y=".5" width="15" height="15" rx="7.5" ry="7.5" fill="#555" stroke-width=".375"/>
 <path id="path10" d="m4.7114 11.962c-0.26677-0.035-0.74131-0.1856-1.0578-0.33415-2.0623-0.96351-2.9057-3.3902-1.89-5.4343 1.1604-2.3372 4.3268-2.933 6.2321-1.1726 0.55098 0.50826 0.79569 0.94196 1.6252 2.8649 0.86597 2.011 1.026 2.3272 1.3067 2.5953 0.30063 0.28515 0.5792 0.3812 1.1122 0.3812 0.87572 0 1.5011-0.52776 1.5011-1.2642 0-0.62331-0.2247-0.82291-1.3708-1.2196-1.7453-0.61381-2.3106-1.1686-2.3127-2.2827 0-0.59431 0.15442-0.99051 0.54688-1.4012 0.56329-0.58626 1.5349-0.77986 2.3948-0.48876 0.36681 0.1271 1.1343 0.78941 1.1343 0.97901 0 0.092052-0.44479 0.3732-0.69155 0.43976-0.13031 0.033-0.24266-0.01-0.39297-0.1506-0.30473-0.28515-0.51096-0.3732-0.87572-0.3732-0.62947 0-1.0199 0.3692-1.0199 0.96551 0 0.59431 0.2483 0.79541 1.4888 1.2036 1.7094 0.56281 2.2142 1.0711 2.2244 2.2472 0.01027 1.016-0.45915 1.7489-1.3928 2.1826-0.42478 0.1956-0.56894 0.22065-1.2625 0.22065-0.99012 0-1.4349-0.1796-1.99-0.78941-0.37296-0.41021-0.75157-1.1801-1.9638-3.9905-0.50276-1.1646-1.1481-1.7354-2.2244-1.96-0.54534-0.11355-1.3046-8e-3 -1.7997 0.24615-0.48275 0.2461-1.0219 0.80141-1.2764 1.3092-0.21034 0.4122-0.23034 0.52776-0.23034 1.2446 0 0.68386 0.028215 0.84596 0.20418 1.2211 0.26677 0.57281 0.79158 1.1021 1.3687 1.3872 0.41708 0.2051 0.54688 0.23065 1.2123 0.23065 0.63922 0 0.80338-0.02951 1.1846-0.2071 0.43504-0.20715 1.0199-0.71541 1.2584-1.0961l0.12415-0.1976 0.24471 0.54526c0.13646 0.30115 0.24625 0.58431 0.24625 0.63531 0 0.1506-0.55303 0.64286-1.0599 0.94951-0.76952 0.46326-1.6535 0.63681-2.5974 0.51176" fill="#fff" stroke-width=".50637"/>
</svg>
