<?xml version="1.0" encoding="UTF-8"?>
<!-- Created with Inkscape (http://www.inkscape.org/) -->
<svg id="svg7384" width="16" height="16" enable-background="new" version="1.1" xmlns="http://www.w3.org/2000/svg" xmlns:cc="http://creativecommons.org/ns#" xmlns:dc="http://purl.org/dc/elements/1.1/" xmlns:rdf="http://www.w3.org/1999/02/22-rdf-syntax-ns#">
 <metadata id="metadata90">
  <rdf:RDF>
   <cc:Work rdf:about="">
    <dc:format>image/svg+xml</dc:format>
    <dc:type rdf:resource="http://purl.org/dc/dcmitype/StillImage"/>
    <dc:title>Paper Symbolic Icon Theme</dc:title>
   </cc:Work>
  </rdf:RDF>
 </metadata>
 <title id="title8473">Paper Symbolic Icon Theme</title>
 <g id="layer12" transform="matrix(1.0811 0 0 1.0714 -524.91 -108.49)" fill="#555">
  <path id="path10500" d="m491.19 101.72-0.1543 1.8438c-0.58462 0.21656-1.1282 0.53093-1.6074 0.92969l-1.6758-0.78906-1.75 3.0312 1.5215 1.0566c-0.0542 0.30631-0.0823 0.61667-0.084 0.92773 2.1e-4 0.31226 0.027 0.62393 0.0801 0.93164l-1.5176 1.0527 1.75 3.0312 1.6719-0.7871c0.48084 0.39706 1.0257 0.70945 1.6113 0.92382l0.1543 1.8477h3.5l0.1543-1.8438c0.58462-0.21656 1.1282-0.53093 1.6074-0.92969l1.6758 0.78906 1.75-3.0312-1.5215-1.0566c0.0542-0.30631 0.0823-0.61667 0.084-0.92773-2.1e-4 -0.31226-0.027-0.62393-0.0801-0.93164l1.5176-1.0527-1.75-3.0312-1.6719 0.7871c-0.48084-0.39706-1.0257-0.70945-1.6113-0.92382l-0.1543-1.8477z" enable-background="new" fill="#555"/>
 </g>
 <path id="path3807-1-1-9-38-4" d="m6 5v6l6-3-5.3996-2.6998z" enable-background="new" fill="#fff" stroke-width=".52223"/>
</svg>
