<?xml version="1.0" encoding="UTF-8"?>
<!-- Created with Inkscape (http://www.inkscape.org/) -->
<svg id="svg7384" width="16" height="16" enable-background="new" version="1.1" xmlns="http://www.w3.org/2000/svg" xmlns:cc="http://creativecommons.org/ns#" xmlns:dc="http://purl.org/dc/elements/1.1/" xmlns:rdf="http://www.w3.org/1999/02/22-rdf-syntax-ns#">
 <metadata id="metadata90">
  <rdf:RDF>
   <cc:Work rdf:about="">
    <dc:format>image/svg+xml</dc:format>
    <dc:type rdf:resource="http://purl.org/dc/dcmitype/StillImage"/>
    <dc:title>Paper Symbolic Icon Theme</dc:title>
    <cc:license rdf:resource="http://creativecommons.org/licenses/by-sa/4.0/"/>
   </cc:Work>
   <cc:License rdf:about="http://creativecommons.org/licenses/by-sa/4.0/">
    <cc:permits rdf:resource="http://creativecommons.org/ns#Reproduction"/>
    <cc:permits rdf:resource="http://creativecommons.org/ns#Distribution"/>
    <cc:requires rdf:resource="http://creativecommons.org/ns#Notice"/>
    <cc:requires rdf:resource="http://creativecommons.org/ns#Attribution"/>
    <cc:permits rdf:resource="http://creativecommons.org/ns#DerivativeWorks"/>
    <cc:requires rdf:resource="http://creativecommons.org/ns#ShareAlike"/>
   </cc:License>
  </rdf:RDF>
 </metadata>
 <title id="title8473">Paper Symbolic Icon Theme</title>
 <defs id="defs7386">
  <filter id="filter7554" color-interpolation-filters="sRGB">
   <feBlend id="feBlend7556" in2="BackgroundImage" mode="darken"/>
  </filter>
 </defs>
 <g id="layer12" transform="translate(-525 -25)" fill="#555">
  <path id="path7722-2" d="m533 25.4a7.6 7.6 0 0 0-7.6 7.6 7.6 7.6 0 0 0 7.6 7.6 7.6 7.6 0 0 0 7.6-7.6 7.6 7.6 0 0 0-7.6-7.6zm0 2.1714a5.4286 5.4286 0 0 1 5.4286 5.4286 5.4286 5.4286 0 0 1-5.4286 5.4286 5.4286 5.4286 0 0 1-5.4286-5.4286 5.4286 5.4286 0 0 1 5.4286-5.4286z"/>
  <path id="path7715-3" d="m536.2 30.007c-0.13948 0.0368-0.26736 0.11612-0.36176 0.22455l-3.1202 3.0988-2.3967-2.3802c-0.22744-0.36931-0.82226-0.44081-1.1305-0.13466-0.30823 0.30612-0.23624 0.89687 0.13559 1.1228l2.8941 2.8743c0.26553 0.24963 0.72931 0.24963 0.99482 0l3.6176-3.5928c0.4238-0.42891-0.0358-1.3094-0.63309-1.2126z" color="#bebebe" enable-background="accumulate"/>
 </g>
</svg>
