<?xml version="1.0" encoding="UTF-8"?>
<svg id="svg12" width="16" height="16" version="1" xmlns="http://www.w3.org/2000/svg" xmlns:cc="http://creativecommons.org/ns#" xmlns:dc="http://purl.org/dc/elements/1.1/" xmlns:rdf="http://www.w3.org/1999/02/22-rdf-syntax-ns#">
 <metadata id="metadata18">
  <rdf:RDF>
   <cc:Work rdf:about="">
    <dc:format>image/svg+xml</dc:format>
    <dc:type rdf:resource="http://purl.org/dc/dcmitype/StillImage"/>
    <dc:title/>
   </cc:Work>
  </rdf:RDF>
 </metadata>
 <path id="path10" d="m4.3004 12.457c-0.30011-0.039376-0.83397-0.2088-1.1901-0.37592-2.3201-1.0839-3.2689-3.814-2.1262-6.1136 1.3055-2.6293 4.8676-3.2996 7.0111-1.3191 0.61985 0.57179 0.89515 1.0597 1.8284 3.223 0.97422 2.2624 1.1543 2.6181 1.47 2.9197 0.33821 0.3208 0.6516 0.42886 1.2512 0.42886 0.98518 0 1.6887-0.59372 1.6887-1.4222 0-0.70122-0.25279-0.92577-1.5421-1.3721-1.9634-0.69053-2.5995-1.3146-2.6018-2.568 0-0.6686 0.17372-1.1143 0.61523-1.5764 0.6337-0.65954 1.7268-0.87734 2.6941-0.54985 0.41266 0.14299 1.2761 0.88809 1.2761 1.1014 0 0.10356-0.50038 0.41985-0.77799 0.49472-0.1466 0.037126-0.27299-0.011251-0.44209-0.16943-0.34282-0.3208-0.57483-0.41985-0.98518-0.41985-0.70816 0-1.1474 0.41535-1.1474 1.0862 0 0.6686 0.27934 0.89484 1.6749 1.3541 1.923 0.63316 2.4909 1.2049 2.5025 2.5281 0.01154 1.143-0.51654 1.9675-1.5669 2.4554-0.47787 0.22005-0.64005 0.24824-1.4203 0.24824-1.1139 0-1.6143-0.20205-2.2387-0.88809-0.41958-0.46148-0.84552-1.3276-2.2093-4.4894-0.5656-1.3102-1.2916-1.9523-2.5025-2.205-0.6135-0.12775-1.4677-0.0089994-2.0246 0.27692-0.54309 0.27687-1.1497 0.90159-1.4359 1.4728-0.23663 0.46373-0.25914 0.59373-0.25914 1.4002 0 0.76934 0.03174 0.9517 0.2297 1.3738 0.30011 0.64441 0.89053 1.2398 1.5398 1.5606 0.46922 0.23074 0.61524 0.25948 1.3638 0.25948 0.71912 0 0.90381-0.03319 1.3326-0.23299 0.48942-0.23305 1.1474-0.80483 1.4157-1.2331l0.13967-0.2223 0.2753 0.61341c0.15352 0.3388 0.27703 0.65734 0.27703 0.71472 0 0.16943-0.62216 0.72322-1.1924 1.0682-0.86571 0.52116-1.8601 0.71641-2.9221 0.57572" fill="#555" stroke-width=".56966"/>
</svg>
