<svg viewBox="0 0 16 16" xmlns="http://www.w3.org/2000/svg"><path d="m5.2558594 2.5976562c-1.37169.60156-2.5139494 1.6192-3.2558594 2.90625l.8671875.5c.63533-1.1009299 1.6102831-1.9710681 2.7832031-2.4863281zm5.4882816 0-.394532.9199219c1.172918.5152582 2.147872 1.3854019 2.783203 2.4863281l.867188-.5c-.741915-1.2870483-1.884167-2.3046898-3.255859-2.90625zm-2.744141 1.4023438a5 5 0 0 0 -5 5 5 5 0 0 0 5 5 5 5 0 0 0 5-5 5 5 0 0 0 -5-5zm0 1a4 4 0 0 1 4 4 4 4 0 0 1 -4 4 4 4 0 0 1 -4-4 4 4 0 0 1 4-4zm-2 2v4h1v-4zm3 0v4h1v-4z" fill="#5d656b"/></svg>