<svg viewBox="0 0 16 16" xmlns="http://www.w3.org/2000/svg"><path d="m8 2c-.166.569-.389 1.125-.631 1.67-1.232 2.7-3.162 4.548-3.348 6.252-.005.025-.017.053-.021.078l.016.006c-.004.059-.016.117-.016.176 0 2.109 1.791 3.818 4 3.818s4-1.71 4-3.818c0-.058-.012-.117-.016-.176l.016-.006c-.004-.025-.016-.053-.021-.078-.186-1.704-2.115-3.552-3.348-6.252-.242-.545-.465-1.101-.631-1.67m0 1.465c.58 1.366 1.338 2.51 1.996 3.506.249.387.513.799.759 1.232.005.009-.003.02-.005.03.07.282.106.57.107.859-.001 2.108-1.792 3.816-4 3.816-.297-.001-.593-.034-.883-.098-.846-.596-1.403-1.548-1.402-2.629 0-.311.054-.617.145-.912.337-.844.842-1.605 1.287-2.299.658-.996 1.416-2.14 1.996-3.506m-1.996 9.367c.085.059.175.109.266.16-.091-.051-.18-.102-.266-.16m.533.299c.09.041.182.076.275.109-.094-.033-.185-.069-.275-.109m.586.203c.088.023.176.047.266.063-.091-.016-.177-.04-.266-.063" fill="#5d656b"/><path d="m8 3.47c-.58 1.366-1.338 2.51-1.996 3.506-.446.694-.95 1.454-1.287 2.299-.09.295-.144.601-.145.912 0 1.081.556 2.033 1.402 2.629.29.064.586.096.883.098 2.208 0 3.999-1.708 4-3.816-.002-.289-.049-.632-.119-.914 0 0 .008.009.006.007-.244-.429-.501-.83-.748-1.214-.658-.996-1.416-2.14-1.996-3.506" fill="#fff" fill-rule="evenodd"/></svg>