<svg viewBox="0 0 16 16" xmlns="http://www.w3.org/2000/svg"><path d="m8 2c-.166.569-.389 1.125-.631 1.67-1.232 2.7-3.162 4.548-3.348 6.252-.005.025-.017.053-.021.078l.016.006c-.004.059-.016.117-.016.176 0 2.109 1.791 3.818 4 3.818s4-1.71 4-3.818c0-.058-.012-.117-.016-.176l.016-.006c-.004-.025-.016-.053-.021-.078-.186-1.704-2.115-3.552-3.348-6.252-.242-.545-.465-1.101-.631-1.67m0 1.465c.58 1.366 1.338 2.51 1.996 3.506.446.694.95 1.454 1.287 2.299.09.295.144.601.145.912 0 1.807-1.534 3.273-3.428 3.273s-3.428-1.466-3.428-3.273c0-.311.054-.617.145-.912.337-.844.842-1.605 1.287-2.299.658-.996 1.416-2.14 1.996-3.506" fill="#5d656b"/><path d="m8 3.47c-.58 1.366-1.338 2.51-1.996 3.506-.446.694-.95 1.454-1.287 2.299-.09.295-.144.601-.145.912 0 1.081.556 2.033 1.402 2.629.2895546.06377.5856517.09654.88281.0977 2.2084102 0 3.998969-1.708372 4-3.8164-.0016-.2894204-.03761-.5777321-.10742-.85938.0345.046689.06771.094232.0996.14258-.272-.496-.572-.966-.854-1.404-.658-.996-1.416-2.14-1.996-3.506" fill-rule="evenodd"/></svg>