<svg viewBox="0 0 16 16" xmlns="http://www.w3.org/2000/svg"><path d="m2 2v12h12v-12h-3v3h2v8h-10v-8h2v-3h-2zm4.4296875 4c-1.066 0-1.5136719.3519062-1.5136719 1.2539062 0 0-.02425.5870938-.03125.7460938-.046.369-.175125.6777344-.578125.6777344h-.3046875v.6445312h.3046875c.589 0 .609375.6441714.609375 1.2011724-.005.173999.0135782.369515.0175782.478515.083.712.5380937 1 1.4960937 1v-.59375c-.45 0-.6059219-.11625-.6699219-.40625-.034-.116-.0367812-.514078-.0507812-.705078 0-.415-.1236563-1.0350156-.7226563-1.2910156.473-.203.6442656-.628.6972657-1 .024-.104.0174374-.2236875.0234374-.3046875 0-.866.0116563-1.1035155.7226563-1.1035157zm1.0703125 0v1h1v-1zm2.0800781 0v.5976562c.7109999 0 .7226559.2375157.7226559 1.1035157.006.081-.000562.2006875.023438.3046875.053.372.224263.797.697266 1-.599002.256-.722657.8760156-.722657 1.2910156-.014.191-.016781.589078-.050781.705078-.064.29-.219922.40625-.6699219.40625v.59375c.9579999 0 1.4130939-.288 1.4960939-1 .004-.109.022578-.304516.017578-.478515 0-.5570015.020375-1.2011724.609375-1.2011724h.304687v-.6445312h-.304687c-.403 0-.532125-.3087344-.578125-.6777344-.007-.159-.03125-.7460938-.03125-.7460938 0-.902-.447672-1.2539062-1.5136719-1.2539062zm-2.0800781 2v4h1v-4z" fill="#5d656b"/><path d="m10 2-2 3-2-3z" fill="#f67400"/></svg>