<svg viewBox="0 0 16 16" xmlns="http://www.w3.org/2000/svg"><path d="m2 2v12h12v-9h-1v8h-10v-8h6v-3h-6zm5 4c-1.066 0-1.5136719.3519062-1.5136719 1.2539062 0 0-.02425.5870938-.03125.7460938-.046.369-.175125.6777344-.578125.6777344h-.3046875v.6445312h.3046875c.589 0 .609375.6441719.609375 1.2011724-.005.173999.0135782.369515.0175781.478515.0830001.712.5380938 1 1.4960938 1v-.59375c-.45 0-.6059219-.11625-.6699219-.40625-.034-.116-.0367812-.514078-.0507812-.705078 0-.415-.1236563-1.0350156-.7226563-1.2910156.473-.203.6442657-.628.6972656-1 .0240001-.104.0174376-.2236875.0234376-.3046875 0-.866.0097031-1.1035157.7207031-1.1035157zm2 0 .0019531.5976562c.711.0000001.7207031.2375157.7207031 1.1035157.0060002.081-.0005625.2006875.0234376.3046875.0529998.372.224266.797.6972652 1-.5989992.256-.7226559.8760156-.7226559 1.2910156-.014.191-.0167812.589078-.0507812.705078-.064.29-.2199219.40625-.6699219.40625v.59375c.958 0 1.413094-.288 1.496094-1 .004-.109.022578-.304516.017578-.478515 0-.557001.020375-1.2011724.609375-1.2011724h.304687v-.6445312h-.304687c-.403 0-.532125-.3087344-.578125-.6777344-.007-.159-.03125-.7460938-.03125-.7460938 0-.902-.447672-1.2539062-1.513672-1.2539062z" fill="#5d656b"/><path d="m10 2 2 3 2-3z" fill="#f67400"/></svg>