<svg viewBox="0 0 16 16" xmlns="http://www.w3.org/2000/svg"><path d="m5 2-3 2 3 2zm1 0v4l3-2zm-1.6796875 5c-.8675873.0182-1.5333403.1551085-2.0175781.3554688l.2714844.9003906c.2320278-.0729001 1.1104999-.3261719 1.625-.3261719h.0703124c.7162659.0273.7675782.2628086.7675782.8183594v.21875l-.3730469.0546875c-1.7351856.2276903-2.6640625.4189021-2.6640625 1.6210936 0 .837891.6757301 1.357422 1.6542969 1.357422.6759125 0 1.1202541-.255483 1.5742187-.601562l.140625.509765h1.0703125v-3.3691405c0-1.0291414-.7874521-1.5390625-1.9980469-1.5390625zm5.203125 0c0 1.42386 1.0053385 2.6025519 1.7617185 3.326172-.89909.91332-2.007266 1.325798-4.035156 1.673828l.2070312 1c4.5205298-.77582 6.5429688-3.61836 6.5429688-6h-1.107422c0 .69264-.349859 2.0299619-.949219 2.5449219-.61184-.57981-1.351407-1.4771269-1.529297-2.5292969zm-4.4863281 2.6777344v1.1191406c-.3732584.22769-.6563872.392578-1.140625.392578-.4337937 0-.6464844-.245716-.6464844-.591797 0-.6557404.6372615-.765054 1.4140625-.8652341z" fill="#5d656b"/></svg>