<svg viewBox="0 0 16 16" xmlns="http://www.w3.org/2000/svg"><path d="m10.171875 1.671875-.7070312.7070312.9492182.9492188.671876.671875h-2.085938-2v1h1 1 2.085938l-.671876.671875-.9492182.9492188.7070312.7070312.949219-.9492188 1.878906-1.8789062-1.878906-1.8789062zm-4.34375 2-.9492188.9492188-1.8789062 1.8789062 1.8789062 1.8789062.9492188.9492188.7070312-.7070312-.9492187-.9492188-.671875-.671875h2.0859375 1 1v-1h-2-2.0859375l.671875-.671875.9492187-.9492188zm6.171875 3.328125v3h-3v3h-5v-4h-1v5h6 1l3-3v-1-3z" fill="#5d656b"/></svg>