<svg viewBox="0 0 16 16" xmlns="http://www.w3.org/2000/svg"><path d="m12.5 2a1.5 1.5 0 0 0 -1.412109 1h-9.087891v1c1.85517.95878 3.1650519 2.4794944 3.3574219 3.3027344.2614991 1.1190795-.1418953 2.4311478-1.1855469 3.8574216a1.4999979 1.4999852 0 0 0 -.671875-.160156 1.4999979 1.4999852 0 0 0 -1.5 1.5 1.4999979 1.4999852 0 0 0 1.5 1.5 1.4999979 1.4999852 0 0 0 1.4121094-1h4.0878906v1h3v-3h-3v1h-4.0878906a1.4999979 1.4999852 0 0 0 -.0371094-.095703c1.3039475-1.679648 1.8985438-3.2500097 1.5507812-4.763672-.2937586-1.2786393-1.1844279-2.2761238-2.4570312-3.140625h7.119141a1.5 1.5 0 0 0 1.412109 1 1.5 1.5 0 0 0 1.5-1.5 1.5 1.5 0 0 0 -1.5-1.5zm0 1a.5.5 0 0 1 .5.5.5.5 0 0 1 -.5.5.5.5 0 0 1 -.5-.5.5.5 0 0 1 .5-.5zm-9 9a.5.5 0 0 1 .4941406.435547.5.5 0 0 1 .0039063.029297.5.5 0 0 1 .0019531.019531.5.5 0 0 1 0 .015625.5.5 0 0 1 -.5.5.5.5 0 0 1 -.4921875-.414062.5.5 0 0 1 0-.001954.5.5 0 0 1 -.0078125-.083984.5.5 0 0 1 .0019531-.050781.5.5 0 0 1 .4980469-.449219zm6.5 0h1v1h-1z" fill="#5d656b"/></svg>