<svg viewBox="0 0 16 16" xmlns="http://www.w3.org/2000/svg"><path d="m9.0019532 2.0039063h-2.0039064v4.9999999h2.0039064zm0 7h-2.0039064v4.9999997h2.0039064z" fill="#da4453"/><path d="m2 2v12h12v-12zm.99975.99975h9.99975v9.99975h-9.99975z" fill="#5d656b"/><path d="m8 6.005c-1.10475 0-2.00025.8955-2.00025 2.00025s.8955 2.00025 2.00025 2.00025 2.00025-.8955 2.00025-2.00025-.8955-2.00025-2.00025-2.00025m0 .99975c.552 0 .99975.44775.99975.99975s-.44775.99975-.99975.99975-.99975-.44775-.99975-.99975.44775-.99975.99975-.99975" fill="#3daee9"/></svg>