<svg viewBox="0 0 16 16" xmlns="http://www.w3.org/2000/svg"><path d="m8 2c-1.49353 0-2.8668506.3290737-3.8691406.9960938-1.00229.6670198-1.6321294 1.6780243-1.6308594 3.0214843.007 1.51828.9683062 3.4773351 2.1289062 5.0781249.5803001.80039 1.2108413 1.511347 1.8007813 2.029297.58992.51795 1.1358461.84715 1.5664063.875h.0039062.0039062c.4305602-.0279.9764863-.35705 1.5664063-.875.5899295-.51795 1.2204715-1.228907 1.8007815-2.029297 1.16061-1.6007898 2.121816-3.5598449 2.128906-5.0781249.00099-1.34346-.628569-2.3544645-1.630859-3.0214843-1.00229-.66702-2.375621-.9960938-3.869141-.9960938zm0 2 .9160156 1.9765625 2.0703124.3222656-1.5078124 1.53125.3417969 2.1699219-1.8496094-1.03125-1.859375 1.0195312.3671875-2.1679687-1.4921875-1.5410156 2.0761719-.3105469z" fill="#5d656b"/></svg>