<svg viewBox="0 0 16 16" xmlns="http://www.w3.org/2000/svg"><path d="m7.2519531 2c-.94118 0-1.7111069.2336654-2.3105469.6992188-.5938333.4601999-.890625 1.06334-.890625 1.8125 0 .8829466.4108484 1.7581133 1.234375 2.625l.2265626.2421874c-.29132.1551801-.5473978.307198-.7714844.4570313-.2240867.14448-.4519473.323056-.6816406.5371094-.2240867.2086933-.4112334.4305623-.5625.6660156-.1456534.2300933-.2660882.5070517-.3613282.828125-.08964.3157195-.1347656.6536985-.1347656 1.0175785 0 .390633.1010477.768932.3027344 1.132812.20728.36388.4846912.682165.8320312.955078.3473334.272907.7645531.492317 1.2519532.658203.4929933.160534 1.0090616.240235 1.546875.240235 1.2380999 0 2.4188752-.412248 3.5449222-1.236328l1.287109 1.365234.974609-.771484-1.335937-1.388672c.565833-.561874 1.09711-1.256504 1.595703-2.0859378l-.957031-.6015624c-.425774.7277599-.896703 1.3594182-1.41211 1.8945312l-3.3710934-3.4921875c.2408934-.1230867.4236217-.21705.546875-.28125.1232467-.0642133.2910196-.15817.5039063-.28125.2184866-.1230733.3862596-.2293392.5039062-.3203125.1176467-.0909667.2574552-.2041106.4199219-.3378906.1680667-.1391334.2970788-.271964.3867188-.4003906.0896333-.13378.1798979-.280873.2695312-.4414063.0952533-.1658867.161972-.3439633.201172-.53125.0392-.1872933.058594-.3850567.058594-.59375 0-.7652267-.2624495-1.3511325-.7890629-1.7578125-.5266066-.4066933-1.2298283-.609375-2.109375-.609375zm.0175781.9550781c.53782 0 .9442434.1254465 1.21875.3769531.2745067.2461534.4101563.6052653.4101563 1.0761719 0 .2354467-.0431792.4597815-.1328125.6738281-.0840333.2087-.1914592.3872761-.3203125.5371094-.1232467.1498334-.2996035.3062636-.5292969.4667969-.2240866.1551867-.4284012.2855581-.6132812.3925781-.1848734.1016734-.4257363.2246606-.7226563.3691406l-.1855469-.1914062c-.7394933-.7652133-1.109375-1.5100085-1.109375-2.2324219 0-.4441466.1935248-.7988462.5800782-1.0664062.3865533-.26756.8552768-.4023438 1.4042968-.4023438zm-1.0585937 5.1621094 3.5117187 3.7226565c-.9019666.6475-1.8158677.972656-2.7402343.972656-.7506934 0-1.3766594-.197757-1.8808594-.59375-.5042067-.40134-.7578125-.888371-.7578125-1.460938 0-.59934.1633546-1.1030851.4882812-1.5097651.3249334-.4120467.7850663-.7883861 1.3789063-1.1308594z" fill="#5d656b"/></svg>