<svg viewBox="0 0 16 16" xmlns="http://www.w3.org/2000/svg"><path d="m3.8261719 5.9980469-2.83007815 8.0000001h1.14453125l.9726562-2.285156h2.7246094l.8730469 2.285156h1.1425781l-2.5898437-8.0000001zm4.8847656.0019531v8h4.0000005a2.285714 2.285714 0 0 0 2.285156-2.285156 2.285714 2.285714 0 0 0 -1.533203-2.1542971 2.285714 2.285714 0 0 0 .390625-1.2753907 2.285714 2.285714 0 0 0 -2.28711-2.2851562h-2.285156zm1.1425781 1.1425781h1.7128904a1.142857 1.142857 0 0 1 1.142578 1.1425781 1.142857 1.142857 0 0 1 -1.142578 1.1425782h-1.7128904zm-5.3105468.0957031 1.0722656 3.3320308h-2.2558594zm5.3105468 3.3339848h2.8574224a1.142857 1.142857 0 0 1 1.142578 1.142578 1.142857 1.142857 0 0 1 -1.142578 1.142578h-2.8574224z" fill="#5d656b"/><path d="m8.71 5h5l-2.5-3z" fill="#3daee9"/></svg>