<svg viewBox="0 0 16 16" xmlns="http://www.w3.org/2000/svg"><path d="m8.5 3.0019531v7.9980469 3.005859h1v-.77539a3 3.0000075 0 0 0 2 .769531 3 3.0000075 0 0 0 3-3 3 3.0000075 0 0 0 -3-3 3 3.0000075 0 0 0 -2 .7695312v-5.7675781zm-2 4.9960938v.7714843a3 3.0000075 0 0 0 -2-.7695312 3 3.0000075 0 0 0 -3 3 3 3.0000075 0 0 0 3 3 3 3.0000075 0 0 0 2-.767578v.765625h1v-6.0000001zm-2 1.0019531a2.0000002 2.0000048 0 0 1 2 2 2.0000002 2.0000048 0 0 1 -2 2 2.0000002 2.0000048 0 0 1 -2-2 2.0000002 2.0000048 0 0 1 2-2zm7 0a2.0000002 2.0000048 0 0 1 2 2 2.0000002 2.0000048 0 0 1 -2 2 2.0000002 2.0000048 0 0 1 -2-2 2.0000002 2.0000048 0 0 1 2-2z" fill="#5d656b"/><path d="m9.49975 1.9975h5.00025l-2.49975 3z" fill="#3daee9"/></svg>