<svg viewBox="0 0 16 16" xmlns="http://www.w3.org/2000/svg"><path d="m5.0175781 2c.011335.4577976.012182.7995517.015625 1.2304688-1.0638922-.0634474-2.1116207-.1382279-3.015625-.2304688 0 3.64947 1.67033 7.288801 5 7.900391v2.099609h-1v1h1 2 .9999999v-1h-.9999999v-2.099609c3.1343869-.575723 4.7784969-3.8371677 4.9628909-7.2617191.01795-.2155213.016459-.3458767.019531-.6386719-1.036895.0980237-2.104578.1752174-3.005859.2226562.007701-.40752.016417-.8151256.023437-1.2226562-1.8093497.45279-3.7551199.58158-5.9999999 0zm3 2 .6191407 1.3164062 1.3808592.2109376-.9999999 1.0253906.2363281 1.4472656-1.2363281-.6835938-1.2363281.6835938.2363281-1.4472656-1-1.0253906 1.3808594-.2109376zm4.9472659.09375c-.188212 2.2727643-1.007218 4.7538213-3.2070315 5.6015625.7808215-1.441977 1.0680465-3.7376629 1.1796875-5.4609375.653674-.03416 1.334492-.082862 2.027344-.140625zm-9.8925784.0058594c.6875136.0580017 1.3696725.108939 2.0253906.1425781.1120099 1.7224821.3999931 4.0132121 1.1796876 5.453125-2.1978794-.8469994-3.0159232-3.3245639-3.2050782-5.5957031z" fill="#5d656b"/></svg>