<svg viewBox="0 0 16 16" xmlns="http://www.w3.org/2000/svg"><path d="m7.5 2v1.125c-.842895.0781674-1.5071061.2908583-2 .6875-.54239.4322-.8125 1.07152-.8125 1.90625 0 1.16527.69704 1.92109 2.125 2.28125l.6875.1875v3.6875c-.8871702-.079294-1.7187431-.273366-2.5-.65625l-.34375.90625c.31778.19491.7516.3787 1.28125.53125.4648232.129113.9884807.18598 1.5625.21875v1.125h.25.59375.15625v-1.125c.849811-.068429 1.53337-.327183 2.03125-.78125.5339-.48304.81249-1.18273.8125-2.09375-.00001-.73729-.1997-1.2892-.59375-1.6875-.39408-.40255-.9873-.69279-1.75-.875l-.5-.125v-3.25c.3855531.0289438.78709.0830968 1.15625.1875.42373.11442.74151.26219 1 .40625l.3125-.90625c-.640267-.3986489-1.461137-.6370786-2.46875-.6875v-1.0625h-.15625-.59375zm-.21875 2.09375c.0654578-.0109824.1489476.0079386.21875 0v2.96875l-.28125-.0625c-.47034-.1144-.82522-.28389-1.0625-.5-.23305-.22033-.34376-.51482-.34375-.875-.0000088-.85645.4825199-1.3657823 1.46875-1.53125zm1.21875 4.3125.1875.0625c.57626.14407.97139.33952 1.1875.59375.22034.25001.31249.59323.3125 1-.00001 1.13306-.5629367 1.734764-1.6875 1.84375z" fill="#5d656b"/></svg>