<svg viewBox="0 0 16 16" xmlns="http://www.w3.org/2000/svg"><path d="m7 2a5 5.00001 0 0 0 -5 5 5 5.00001 0 0 0 .8164062 2.7304688l-.8164062 3.2695312 2.5097656-1.671875a5 5.00001 0 0 0 2.4902344.671875 5 5.00001 0 0 0 1.7578125-.324219 3.5 3.5 0 0 1 -.5078125-.880859 4 4 0 0 1 -1.25.205078 4 4 0 0 1 -4-4 4 4 0 0 1 4-4 4 4 0 0 1 3.882812 3.0566406 3.5 3.5 0 0 1 .617188-.0566406 3.5 3.5 0 0 1 .404297.0253906 5 5.00001 0 0 0 -4.904297-4.0253906zm4.5 5a2.5 2.5 0 0 0 -2.5 2.5 2.5 2.5 0 0 0 1.361328 2.222656l1.138672 2.277344 1.138672-2.277344a2.5 2.5 0 0 0 1.361328-2.222656 2.5 2.5 0 0 0 -2.5-2.5zm0 1a1.5 1.5 0 0 1 1.5 1.5 1.5 1.5 0 0 1 -1.5 1.5 1.5 1.5 0 0 1 -1.5-1.5 1.5 1.5 0 0 1 1.5-1.5z" fill="#5d656b"/></svg>