<svg viewBox="0 0 16 16" xmlns="http://www.w3.org/2000/svg"><path d="m10.308594 3c-1.3595849 0-2.4628909 1.1311522-2.4628909 2.5253906 0 .1978308.0225286.3894726.0644531.5742188-2.0460069-.1052539-3.8600424-1.109388-5.0742187-2.6367188-.2119551.3728154-.3339844.8049397-.3339844 1.2675782 0 .8759.4350956 1.6488548 1.0957031 2.1015624-.4035704-.0128461-.7833256-.1253992-1.1152343-.3144531-.000225.0107693 0 .0204808 0 .03125 0 1.2231846.8484445 2.2426017 1.9746093 2.4746094-.2065326.0577692-.42389.0898437-.6484374.0898437-.1586158 0-.3125549-.0176442-.4628907-.046875.3133015 1.0029388 1.2215253 1.7336218 2.2988281 1.7539058-.8425555.677185-1.9032061 1.080079-3.0566406 1.080079-.1987252 0-.3953303-.011849-.5878906-.035157 1.0894752.7163 2.3831631 1.134766 3.7734375 1.134766 4.5282395 0 7.0039065-3.8473784 7.0039065-7.1835938 0-.109423-.00211-.2178949-.00586-.3261718.481052-.3559539.898482-.8003406 1.228516-1.3066406-.441438.2007692-.916143.3373913-1.414062.3984374.508201-.3124384.898208-.8069459 1.082031-1.3964843-.475705.2893384-1.001709.4981666-1.5625.6113281-.449013-.4906231-1.088801-.796875-1.796875-.796875z" fill="#5d656b"/></svg>