<svg viewBox="0 0 16 16" xmlns="http://www.w3.org/2000/svg"><path d="m1 2 .0117188.8710938 1.9082031.3320312c.52261.60684 3.4260506 5.0985331 3.8691406 6.2519531l.046875 3.2167969c-.28402.49994-2.0214844.396484-2.0214844.396484l-.1484375.931641s6.5090984-.175209 6.5429684-.074219c-.0163-.11584.011719-.871093.011719-.871093l-2.1132811-.074219s-.1354733-2.293707-.0332031-3.6289065c1.3860902-2.04877 3.8593752-4.3632812 3.8593752-4.3632813l1.677734-.3808593.388672-.8984375-5.7207031-.046875.1484375.9316406s1.5639646.1673894 1.7343746.3496094c-.0227.45528-2.7050778 3.3242187-2.7050778 3.3242187l-2.9355468-5.2753906 2.0566406-.2148437.421875-.7773438z" fill="#5d656b"/></svg>