<svg viewBox="0 0 16 16" xmlns="http://www.w3.org/2000/svg"><g fill="#5d656b"><path d="m10.49997 7.00003c1.939 0 3.5 1.561 3.5 3.5s-1.561 3.5-3.5 3.5-3.5-1.561-3.5-3.5 1.561-3.5 3.5-3.5z" fill-opacity=".5"/><path d="m4 2v2h-2v1h2v6h-2v1h2v2h1v-2h2.3457031c-.147602-.310884-.2462277-.646205-.296875-1h-2.0488281v-6h6v2.0488281c.353795.0506473.689116.149273 1 .296875v-2.3457031h2v-1h-2v-2h-1v2h-6v-2zm9.951172 9c-.050647.353795-.149273.689116-.296875 1h.345703v-1zm-1.951172 2.654297c-.310884.147602-.646205.246228-1 .296875v.048828h1z"/></g></svg>