<svg viewBox="0 0 16 16" xmlns="http://www.w3.org/2000/svg"><path d="m3.5 2a1.4999979 1.5 0 0 0 -1.5 1.5 1.4999979 1.5 0 0 0 1 1.4121094v2.0878906 4.087891a1.4999979 1.5 0 0 0 -1 1.412109 1.4999979 1.5 0 0 0 1.5 1.5 1.4999979 1.5 0 0 0 1.5-1.5 1.4999979 1.5 0 0 0 -1-1.412109v-2.3593754a2 2 0 0 0 1 .2714844h6a1 1 0 0 1 1 1v1.087891a1.4999979 1.5 0 0 0 -1 1.412109 1.4999979 1.5 0 0 0 1.5 1.5 1.4999979 1.5 0 0 0 1.5-1.5 1.4999979 1.5 0 0 0 -1-1.412109v-1.087891a2 2 0 0 0 -2-2h-6a1 1 0 0 1 -1-1v-2.0878906a1.4999979 1.5 0 0 0 1-1.4121094 1.4999979 1.5 0 0 0 -1.5-1.5zm0 1a.5.5 0 0 1 .5.5.5.5 0 0 1 -.5.5.5.5 0 0 1 -.5-.5.5.5 0 0 1 .5-.5zm0 9a.5.5 0 0 1 .5.5.5.5 0 0 1 -.5.5.5.5 0 0 1 -.5-.5.5.5 0 0 1 .5-.5zm9 0a.5.5 0 0 1 .5.5.5.5 0 0 1 -.5.5.5.5 0 0 1 -.5-.5.5.5 0 0 1 .5-.5z" fill="#5d656b"/></svg>