<svg viewBox="0 0 16 16" xmlns="http://www.w3.org/2000/svg"><path d="m8 2a6.00001 6.00001 0 0 0 -6 6 6.00001 6.00001 0 0 0 6 6 6.00001 6.00001 0 0 0 6-6 6.00001 6.00001 0 0 0 -6-6zm0 1a5 5 0 0 1 5 5 5 5 0 0 1 -5 5 5 5 0 0 1 -5-5 5 5 0 0 1 5-5zm2 1c-.7482796 0-1.3913437.4121362-1.734375 1.0175781a3 3 0 0 0 -.265625-.0175781 3 3 0 0 0 -3 3 3 3 0 0 0 3 3 3 3 0 0 0 3-3 3 3 0 0 0 -.013672-.2675781c.603346-.3435934 1.013672-.9857075 1.013672-1.7324219 0-1.108-.892-2-2-2zm0 1c.554 0 1 .446 1 1 0 .277-.114172.5282344-.294922.7089844-.08664.0861708-.189127.1552418-.302734.2050781a1 1 0 0 1 -.021485.0097656c-.117309.0481024-.245822.0761719-.380859.0761719-.5526683 0-.9978629-.4439454-1-.9960938a1 1 0 0 1 0-.0039062c0-.1371683.0285723-.2698756.078125-.3886719a1 1 0 0 1 0-.0019531c.0501107-.1188695.125354-.2264287.2148438-.3164062.1807499-.18075.4300312-.2929688.7070312-.2929688zm-2 1c0 1.108.892 2 2 2a2 2 0 0 1 -2 2 2 2 0 0 1 -2-2 2 2 0 0 1 2-2z" fill="#5d656b"/></svg>