<svg enable-background="new" height="16" width="16" xmlns="http://www.w3.org/2000/svg"><g stroke-width="3.545621" transform="matrix(.25 0 0 .25 0 -.125)"><path d="m10.6 4.4999999v3.9285715h-9.6v3.9285716 43.214286c0 2.176428 1.4272 3.928571 3.2 3.928571h25.6c1.7728 0 3.2-1.752143 3.2-3.928571v-43.214286-3.9285716h-9.6v-3.9285715z" fill="#f9ce1d"/><path d="m1 24.142857v31.428572c0 2.176428 1.4272 3.928571 3.2 3.928571h25.6c1.7728 0 3.2-1.752143 3.2-3.928571v-31.428572z" fill="#263238"/></g><rect fill="#fff" height="13.500041" ry=".4745" stroke="#000" stroke-width=".249959" width="6.500041" x="9.124979" y="1.124981"/><path d="m4.25 3.75v3.09375h2.5l-2.5 5.15625v-3.09375h-2.5z" fill="#fafafa" stroke-width=".927025"/></svg>