<svg viewBox="0 0 16 16" xmlns="http://www.w3.org/2000/svg"><path d="m1 2v12h8v-1h-6.34375l3.9863281-4.6503906 1.3574219 1.3574218c-.013148-.0236699 6-6 6-6v4.2929688h1v-6zm1.7070312 1h10.5859378l-5.292969 5.2929688zm-.7070312.7070312 3.9335938 3.9335938-3.9335938 4.589844zm10 4.2929688-.574219 1.6132812-1.5468748-.734375.7343748 1.5468748-1.613281.574219 1.613281.574219-.7343748 1.546875 1.5468748-.734375.574219 1.613281.574219-1.613281 1.546875.734375-.734375-1.546875 1.613281-.574219-1.613281-.574219.734375-1.5468748-1.546875.734375z" fill="#5d656b"/></svg>