<svg viewBox="0 0 16 16" xmlns="http://www.w3.org/2000/svg"><path d="m8 2a6 6.0000086 0 0 0 -6 6 6 6.0000086 0 0 0 6 6v-1a5 5 0 0 1 -5-5 5 5 0 0 1 5-5 5 5 0 0 1 4.572266 3h1.072265a6 6.0000086 0 0 0 -5.644531-4zm0 2c-2.209139 0-4 1.790861-4 4h2c0-1.1045695.8954305-2 2-2zm0 3a1 1 0 0 0 -1 1 1 1 0 0 0 1 1 1 1 0 0 0 1-1 1 1 0 0 0 -1-1zm4 0v3.269531a1.9999913 1.9999913 0 0 0 -1-.269531 1.9999913 1.9999913 0 0 0 -2 2 1.9999913 1.9999913 0 0 0 2 2 1.9999913 1.9999913 0 0 0 2-2v-4h1l-1-1z" fill="#5d656b"/></svg>