<svg viewBox="0 0 16 16" xmlns="http://www.w3.org/2000/svg"><path d="m7 2c-1.657 0-3 1.343-3 3s1.343 3 3 3 3-1.343 3-3-1.343-3-3-3zm0 1c1.105 0 2 .895 2 2s-.895 2-2 2-2-.895-2-2 .895-2 2-2zm0 6c-2.761 0-5 2.01-5 4.5.001.167.0122031.334.0332031.5h9.9296879c.023-.166.035109-.333.037109-.5 0-2.485-2.239-4.5-5-4.5zm0 1c1.987.002 3.671078 1.279 3.955078 3h-7.9101561c.284-1.721 1.9680781-2.998 3.9550781-3z" fill="#5d656b"/><path d="m13 2a1 1 0 0 0 -1 1 1 1 0 0 0 1 1 1 1 0 0 0 1-1 1 1 0 0 0 -1-1zm0 3a1 1 0 0 0 -1 1 1 1 0 0 0 1 1 1 1 0 0 0 1-1 1 1 0 0 0 -1-1zm0 3a1 1 0 0 0 -1 1 1 1 0 0 0 1 1 1 1 0 0 0 1-1 1 1 0 0 0 -1-1z" fill="#da4453"/></svg>