<svg viewBox="0 0 16 16" xmlns="http://www.w3.org/2000/svg"><path d="m1 2a7 9 0 0 0 4.503906 8.396484 2.5 2.5 0 0 1 .251953-.992187 6 8 0 0 1 -3.755859-7.404297zm13 0a6 8 0 0 1 -3.751953 7.410156 2.5 2.5 0 0 1 .248047.978516 7 9 0 0 0 4.503906-8.388672z" fill="#5d656b"/><path d="m8.00429 8.00074a2.499985 2.499985 0 0 0 -2.5 2.5 2.499985 2.499985 0 0 0 2.5 2.5 2.499985 2.499985 0 0 0 2.5-2.5 2.499985 2.499985 0 0 0 -2.5-2.5m0 1a1.5 1.5 0 0 1 1.5 1.5 1.5 1.5 0 0 1 -1.5 1.5 1.5 1.5 0 0 1 -1.5-1.5 1.5 1.5 0 0 1 1.5-1.5" fill="#3daee9"/></svg>