<svg viewBox="0 0 16 16" xmlns="http://www.w3.org/2000/svg"><path d="m1.0039062 2a7 9 0 0 0 6 8.898438v-1.0195318a6 8 0 0 1 -5-7.8789062zm12.9999998 0a6 8 0 0 1 -4.9999998 7.8867188v1.0097652a7 9 0 0 0 5.9999998-8.8945309zm-10.4999998 8a1.5 1.5 0 0 0 -1.5 1.5 1.5 1.5 0 0 0 1.5 1.5 1.5 1.5 0 0 0 1.4140626-1h2.0820312v-1h-2.0820312a1.5 1.5 0 0 0 -1.4140626-1zm9.9999998 0a1.5 1.5 0 0 0 -1.412109 1h-1.091797v1h1.091797a1.5 1.5 0 0 0 1.412109 1 1.5 1.5 0 0 0 1.5-1.5 1.5 1.5 0 0 0 -1.5-1.5zm-9.9999998 1a.500002.5 0 0 1 .4960938.441406v.121094a.500002.5 0 0 1 -.4960938.4375.500002.5 0 0 1 -.5-.5.500002.5 0 0 1 .5-.5zm9.9999998 0a.500002.5 0 0 1 .5.5.500002.5 0 0 1 -.5.5.500002.5 0 0 1 -.5-.5.500002.5 0 0 1 .5-.5z" fill="#5d656b"/><path d="m6 9v4h4v-4zm1 1h2v2h-2z" fill="#3daee9"/></svg>