<svg viewBox="0 0 16 16" xmlns="http://www.w3.org/2000/svg"><path d="m7 2v1.1015625c-.626.129-1.2209063.3774687-1.7539062.7304687l-.78125-.78125-1.4140626 1.4140626.78125.78125c-.3519999.5329999-.5985625 1.1279062-.7265624 1.7539062h-1.1054688v2h1.1015625c.129.626.3774687 1.220906.7304687 1.753906l-.78125.78125 1.4140626 1.414063.78125-.78125c.533.352 1.1279062.598562 1.7539062.726562v1.105469h1v-2c-1.081 0-2.1161406-.437891-2.8691406-1.212891-.725-.747-1.1308594-1.746109-1.1308594-2.787109 0-1.081.4378906-2.1161406 1.2128906-2.8691406.747-.725 1.7461094-1.1308594 2.7871094-1.1308594 1.081 0 2.116141.4378906 2.869141 1.2128906.725.747 1.130859 1.7461094 1.130859 2.7871094h2v-1h-1.101562c-.129-.626-.377469-1.2209063-.730469-1.7539062l.78125-.78125-1.414063-1.4140626-.78125.78125c-.533-.3519999-1.127906-.5985625-1.753906-.7265624v-1.1054688zm0 4v4l3-2zm4 3v4.085938l-1.6210938-1.621094-.7070312.707031 2.828125 2.828125 1.878906-1.878906.949219-.949219-.707031-.707031-1.621094 1.621094v-4.085938z" fill="#5d656b"/></svg>