<svg viewBox="0 0 16 16" xmlns="http://www.w3.org/2000/svg"><path d="m7 2v1.1015625a5 5 0 0 0 -1.7539062.7304687l-.78125-.78125-1.4140626 1.4140626.78125.78125a5 5 0 0 0 -.7265624 1.7539062h-1.1054688v2h1.1015625a5 5 0 0 0 .7304687 1.753906l-.78125.78125 1.4140626 1.414063.78125-.78125a5 5 0 0 0 1.7539062.726562v1.105469h2v-1.101562a5 5 0 0 0 1.753906-.730469l.78125.78125 1.414063-1.414063-.78125-.78125a5 5 0 0 0 .726562-1.753906h1.105469v-2h-1.101562a5 5 0 0 0 -.730469-1.7539062l.78125-.78125-1.414063-1.4140626-.78125.78125a5 5 0 0 0 -1.753906-.7265624v-1.1054688zm1 2a4 4 0 0 1 2.869141 1.2128906 4 4 0 0 1 1.130859 2.7871094 4 4 0 0 1 -1.212891 2.869141 4 4 0 0 1 -2.787109 1.130859 4 4 0 0 1 -2.8691406-1.212891 4 4 0 0 1 -1.1308594-2.787109 4 4 0 0 1 1.2128906-2.8691406 4 4 0 0 1 2.7871094-1.1308594zm-1 2v4l3-2z" fill="#5d656b"/></svg>