<svg enable-background="new" height="16" width="16" xmlns="http://www.w3.org/2000/svg"><g stroke-width=".241044"><path d="m4.5294691 15.569287c-.2389728-.239714-.2403774-.624253-.0031496-.862217l2.3978863-2.405323c.2372284-.237963.6205787-.236555.8595518.0032.2389728.239715.2403775.624254.00315.862217l-2.3978866 2.405282c-.2372285.237964-.6205788.236555-.8595519-.0032z" fill="#ff9800"/><path d="m.43015421 11.45726c-.23897299-.239714-.24037748-.624253-.00314914-.862217l2.39788653-2.4053229c.2372281-.2379641.6205788-.2365551.8595516.0031589.2389731.239714.2403774.6242532.0031496.8622173l-2.3978866 2.4053227c-.2372283.237964-.6205787.236555-.85955199-.0032z" fill="#ff9800"/><path d="m5.4215 6.7965314 4.2788032-1.6608544-2.7713299-1.6257705 8.8009837-3.25990646-4.027938 3.79566366 4.047981 1.6915072-8.343176 3.7796837-1.9852205-2.7203213z"/><path d="m8.9895274 14.546074c1.8951176-2.123524 1.8139616-5.3984213-.2346706-7.453407-2.048462-2.0548142-5.3185816-2.1416189-7.43566-.2407101l7.6701598 7.6939461z" fill="#1a1a1a"/></g></svg>