<svg viewBox="0 0 16 16" xmlns="http://www.w3.org/2000/svg"><path d="m5.5 4a2.5 2.5 0 0 0 -2.5 2.5 2.5 2.5 0 0 0 2.5 2.5 2.5 2.5 0 0 0 2.5-2.5 2.5 2.5 0 0 0 -2.5-2.5zm0 6a3.499998 4 0 0 0 -3.5 4h7a3.499998 4 0 0 0 -3.5-4zm0 1a2.5 3 0 0 1 2.3535156 2h-4.7070312a2.5 3 0 0 1 2.3535156-2z" fill="#5d656b"/><path d="m11.5 2a2.5 2.5 0 0 0 -2.5 2.5 2.5 2.5 0 0 0 2.5 2.5 2.5 2.5 0 0 0 2.5-2.5 2.5 2.5 0 0 0 -2.5-2.5zm.146484 6a3.499998 4 0 0 0 -3.1542965 2.273438 4.5 5 0 0 1 1.125 1.726562h5.5332035a3.499998 4 0 0 0 -3.503907-4zm0 1a2.5 3 0 0 1 2.353516 2h-4.7070312a2.5 3 0 0 1 2.3535152-2z" fill="#3daee9"/></svg>