<svg viewBox="0 0 16 16" xmlns="http://www.w3.org/2000/svg"><path d="m8 2.0253906a5.500002 5.500015 0 0 0 -4.9726562 4.9746094h.9726562.03125a4.5 4.5 0 0 1 3.96875-3.9667969v-.0332031zm1 .0019532v.9726562.03125a4.5 4.5 0 0 1 3.966797 3.96875h.033203.974609a5.500002 5.500015 0 0 0 -4.974609-4.9726562zm-5.9707031 5.9726562a5.500002 5.500015 0 0 0 4.9707031 4.972656v-.972656-.03125a4.5 4.5 0 0 1 -3.9667969-3.96875h-.0332031zm9.9394531 0a4.5 4.5 0 0 1 -3.96875 3.966797v.033203.974609a5.500002 5.500015 0 0 0 4.972656-4.974609h-.972656z" fill="#5d656b"/><path d="m7 1v3h3v-3zm1 1h1v1h-1zm-6 4v3h3v-3zm10 0v3h3v-3zm-9 1h1v1h-1zm10 0h1v1h-1zm-6 4v3h3v-3zm1 1h1v1h-1z" fill="#3daee9"/></svg>