<svg viewBox="0 0 16 16" xmlns="http://www.w3.org/2000/svg"><path d="m8 2a6 5.999985 0 0 0 -4.0019531 1.5371094.5.5 0 0 0 .0019531-.0371094.5.5 0 0 0 -.5-.5.5.5 0 0 0 -.5.5.5.5 0 0 0 .5.5.5.5 0 0 0 .0390625-.0019531 6 5.999985 0 0 0 -1.5390625 4.0019531 6 5.999985 0 0 0 1.5371094 4.001953.5.5 0 0 0 -.0371094-.001953.5.5 0 0 0 -.5.5.5.5 0 0 0 .5.5.5.5 0 0 0 .5-.5.5.5 0 0 0 -.0019531-.039062 6 5.999985 0 0 0 4.0019531 1.539062 6 5.999985 0 0 0 4.001953-1.537109.5.5 0 0 0 -.001953.037109.5.5 0 0 0 .5.5.5.5 0 0 0 .5-.5.5.5 0 0 0 -.5-.5.5.5 0 0 0 -.039062.001953 6 5.999985 0 0 0 1.539062-4.001953 6 5.999985 0 0 0 -1.537109-4.0019531.5.5 0 0 0 .037109.0019531.5.5 0 0 0 .5-.5.5.5 0 0 0 -.5-.5.5.5 0 0 0 -.5.5.5.5 0 0 0 .001953.0390625 6 5.999985 0 0 0 -4.001953-1.5390625zm0 1a5 5 0 0 1 5 5 5 5 0 0 1 -5 5 5 5 0 0 1 -5-5 5 5 0 0 1 5-5zm0 4a1 1 0 0 0 -1 1 1 1 0 0 0 1 1 1 1 0 0 0 1-1 1 1 0 0 0 -1-1z" fill="#5d656b"/></svg>