<svg viewBox="0 0 16 16" xmlns="http://www.w3.org/2000/svg"><path d="m4.0039062 8a3 3 0 0 0 -3 3 3 3 0 0 0 3 3 3 3 0 0 0 2-.767578v.769531h1v-5.9999999h-1v.7695313a3 3 0 0 0 -2-.7695313zm4.9960938 0v6h1v-.769531a3 3 0 0 0 2 .769531 3 3 0 0 0 3-3 3 3 0 0 0 -3-3 3 3 0 0 0 -2 .7675781v-.7675781zm3 1a2 2 0 0 1 2 2 2 2 0 0 1 -2 2 2 2 0 0 1 -2-2 2 2 0 0 1 2-2zm-7.9960938.0019531a2 2 0 0 1 2 1.9999999 2 2 0 0 1 -2 2 2 2 0 0 1 -2-2 2 2 0 0 1 2-1.9999999z" fill="#5d656b"/><path d="m7 2-3 2.5 3 2.5zm2 0v5l3-2.5z" fill="#1d99f3"/></svg>