<svg viewBox="0 0 16 16" xmlns="http://www.w3.org/2000/svg"><path d="m10.560547 4.6601562-1.5527345 5.7949218.9648437.259766.1992188-.7421878a3 3 0 0 0 1.732422 1.2597658 3 3 0 0 0 3.673828-2.1210939 3 3 0 0 0 -2.121094-3.6738281 3 3 0 0 0 -2.130859.2246094l.199219-.7421875zm-6.5566408.3398438a3 3 0 0 0 -3 3 3 3 0 0 0 3 3 3 3 0 0 0 2-.767578v.769531h1v-5.9999999h-1v.7695313a3 3 0 0 0 -2-.7695313zm0 1.0019531a2 2 0 0 1 2 2 2 2 0 0 1 -2 1.9999999 2 2 0 0 1 -2-1.9999999 2 2 0 0 1 2-2zm8.6601558.3320313a2 2 0 0 1 .535157.0683594 2 2 0 0 1 1.414062 2.4492187 2 2 0 0 1 -2.449219 1.4140625 2 2 0 0 1 -1.414062-2.4492188 2 2 0 0 1 1.914062-1.4824218z" fill="#5d656b"/><path d="m7.5 2v12h1v-1.611328l6.001953 1.609375.259766-.966797-6.261719-1.675781v-9.355469z" fill="#1d99f3"/></svg>