<svg viewBox="0 0 16 16" xmlns="http://www.w3.org/2000/svg"><path d="m8 2a6 6.00001 0 0 0 -6 6 6 6.00001 0 0 0 6 6 6 6.00001 0 0 0 1-.089844v-1.015156a5 5 0 0 1 -1 .105 5 5 0 0 1 -5-5 5 5 0 0 1 5-5 5 5 0 0 1 5 5h1a6 6.00001 0 0 0 -6-6m0 2c-2.209 0-4 1.791-4 4h2c0-1.105.895-2 2-2zm0 3a1 1 0 0 0 -1 1 1 1 0 0 0 1 1 1 1 0 0 0 1-1 1 1 0 0 0 -1-1m2.404 1c.913.188 1.596.997 1.596 1.973 0 .586-.249 1.107-.643 1.474-.22-.263-.357-.598-.357-.97 0-.082.01-.162.03-.241-.614.344-1.03.994-1.03 1.75 0 1.114.892 2.01 2 2.01 1.11 0 2-.896 2-2.01 0-2.092-1.576-3.78-3.596-3.986" fill="#5d656b"/></svg>