<svg viewBox="0 0 16 16" xmlns="http://www.w3.org/2000/svg"><path d="m8 2a6 6.0000086 0 0 0 -6 6 6 6.0000086 0 0 0 5 5.914062v-1.015624a5 5 0 0 1 -4-4.898438 5 5 0 0 1 5-5 5 5 0 0 1 5 5h1a6 6.0000086 0 0 0 -6-6zm0 2c-2.209139 0-4 1.790861-4 4h2c0-1.1045695.8954305-2 2-2zm.5 4c-.831 0-1.5.669-1.5 1.5 0 .6542.418077 1.202203 1 1.408203v3.091797h4v-2-1c.554 0 1-.446 1-1s-.446-1-1-1-1 .446-1 1h-1.0917969c.05566-.1572.0917969-.3232.0917969-.5 0-.831-.669-1.5-1.5-1.5zm3.5 4 2 2v-4zm-3-1h2v2h-2z" fill="#5d656b"/></svg>