<svg viewBox="0 0 16 16" xmlns="http://www.w3.org/2000/svg"><path d="m5.5 4a2.5 2.5 0 0 0 -2.5 2.5 2.5 2.5 0 0 0 2.5 2.5 2.5 2.5 0 0 0 2.5-2.5 2.5 2.5 0 0 0 -2.5-2.5m0 6a3.499998 4 0 0 0 -3.5 4h7a3.499998 4 0 0 0 -3.5-4m0 1a2.5 3 0 0 1 2.353516 2h-4.707516a2.5 3 0 0 1 2.354-2" fill="#5d656b"/><path d="m11.5 2a2.5 2.5 0 0 0 -2.5 2.5 2.5 2.5 0 0 0 2.5 2.5 2.5 2.5 0 0 0 2.5-2.5 2.5 2.5 0 0 0 -2.5-2.5m.146484 6a3.499998 4 0 0 0 -3.154296 2.273438 4.5 5 0 0 1 1.125 1.726562h5.532812a3.499998 4 0 0 0 -3.503516-4m0 1a2.5 3 0 0 1 2.353516 2h-4.707a2.5 3 0 0 1 2.353484-2" fill="#da4453"/></svg>