<svg viewBox="0 0 16 16" xmlns="http://www.w3.org/2000/svg"><path d="m3 2v1.0917969c-.5819196.2060046-1 .7539662-1 1.4082031s.4180804 1.2021985 1 1.4082031v8.0917969h1v-8.0917969c.5825646-.2056596 1-.7535058 1-1.4082031s-.4174354-1.2025435-1-1.4082031v-1.0917969zm4.5 0v8.091797c-.5819246.206006-1 .753963-1 1.408203s.4180754 1.202197 1 1.408203v1.091797h1v-1.091797c.5819246-.206006 1-.753963 1-1.408203s-.4180754-1.202197-1-1.408203v-8.091797zm4.5 0v4.0917969c-.581925.2060057-1 .7539629-1 1.4082031s.418075 1.2021974 1 1.4082031v5.0917969h1v-5.0917969c.581925-.2060057 1-.7539629 1-1.4082031s-.418075-1.2021974-1-1.4082031v-4.0917969z" fill="#5d656b"/></svg>