<svg viewBox="0 0 16 16" xmlns="http://www.w3.org/2000/svg"><path d="m4.5 2a.5.50001502 0 0 0 -.5.5.5.50001502 0 0 0 .5.5.5.50001502 0 0 0 .5-.5.5.50001502 0 0 0 -.5-.5zm3 0a.5.5 0 0 0 -.5.5.5.5 0 0 0 .5.5.5.5 0 0 0 .5-.5.5.5 0 0 0 -.5-.5zm3 0a.5.50001502 0 0 0 -.5.5.5.50001502 0 0 0 .5.5.5.50001502 0 0 0 .5-.5.5.50001502 0 0 0 -.5-.5zm-6.5 2v2h-2v8h12v-3.117188-1.0175776-3.8652344h-3v-2h-1v2h-2v-2h-1v2h-2v-2zm-1 3h10v3a2 1 0 0 1 -2-1v-1h-1v1a2 1 0 0 1 -2 1 2 1 0 0 1 -2-1v-1h-1v1a2 1 0 0 1 -2 1zm2.5 3.103516a3 2 0 0 0 2.5.896484 3 2 0 0 0 2.5-.896484 3 2 0 0 0 2.5.896484v2h-10v-2a3 2 0 0 0 2.5-.896484z" fill="#5d656b"/></svg>