<svg viewBox="0 0 16 16" xmlns="http://www.w3.org/2000/svg"><g transform="matrix(.75 0 0 .74999813 -.24999925 -773.01986299962)"><path d="m8 2-5.96875.03125-.03125 5.96875 6 5.539062v-5.539062h5.539062zm-2.5 2c.8284271 0 1.5.6715728 1.5 1.5s-.6715729 1.5-1.5 1.5-1.5-.6715728-1.5-1.5.6715729-1.5 1.5-1.5z" fill="#5d656b" transform="matrix(1.3333333 0 0 1.3333367 .333333 1030.6957)"/><path d="m12.333333 1043.8067 2.222226 2.2223-2.222226 2.2222 1.111106 1.1111 2.222227-2.2221 2.222227 2.2221 1.111106-1.1111-2.222213-2.2222 2.222213-2.2223-1.111106-1.1111-2.222227 2.2223-2.222227-2.2223z" fill="#da4453"/></g></svg>