<svg viewBox="0 0 22 22" xmlns="http://www.w3.org/2000/svg"><g fill="#dfdfdf"><path d="m5 3c-.554 0-1 .446-1 1v14c0 .554.446 1 1 1h8v-5c0-.24726.072788-.46092.17383-.64648a4 4 0 0 1 -2.1738.64648h-4v-4a4 4 0 0 1 4-4 4 4 0 0 1 3.0898 6.5332c.15126-.073462.30756-.13442.47266-.18945.68766-.22922 1.519-.34375 2.4375-.34375.35201 0 .67677.032753 1 .066406v-8.0664c0-.554-.446-1-1-1h-12zm6 5a2 2 0 0 0 0 4 2 2 0 0 0 0-4z"/><path d="m17 13a3 1 0 0 0 -3 1v5a3 1 0 0 0 3 1 3 1 0 0 0 3-1v-5a3 1 0 0 0 -3-1zm0 1a3 1 0 0 1 2 .25781v.48633a3 1 0 0 1 -2 .25586 3 1 0 0 1 -2-.25781v-.48633a3 1 0 0 1 2-.25586zm-2 1.7441a3 1 0 0 0 2 .25586 3 1 0 0 0 2-.25586v1a3 1 0 0 1 -2 .25586 3 1 0 0 1 -2-.25781zm0 2a3 1 0 0 0 2 .25586 3 1 0 0 0 2-.25586v1a3 1 0 0 1 -2 .25586 3 1 0 0 1 -2-.25781z"/></g></svg>