<svg viewBox="0 0 22 22" xmlns="http://www.w3.org/2000/svg"><path d="m5 3c-.554 0-1 .446-1 1v14c0 .554.446 1 1 1h8v-5c0-.24726.072788-.46092.17383-.64648a4 4 0 0 1 -2.1738.64648h-4v-4a4 4 0 0 1 4-4 4 4 0 0 1 3.0898 6.5332c.15126-.073462.30756-.13442.47266-.18945.68766-.22922 1.519-.34375 2.4375-.34375.35201 0 .67677.032753 1 .066406v-8.0664c0-.554-.446-1-1-1h-12zm6 5a2 2 0 0 0 0 4 2 2 0 0 0 0-4zm4 9.7363v.93359c.059186.030761.081081.049813.19531.08789.39813.13271 1.0663.24219 1.8047.24219.554 0 1-.446 1-1v-.070312c-.32219.042678-.65412.070156-1 .070312h-.001953c-.71748-.000844-1.3819-.10901-1.998-.26367z" fill="#dfdfdf"/><path d="m17 13c-1.6569 0-3 .44772-3 1v5c0 .55228 1.3431 1 3 1s3-.44772 3-1v-5c0-.55228-1.3431-1-3-1zm0 1c.73919.00087 1.4514.09268 2 .25781v.48633c-.54948.16443-1.2616.25552-2 .25586-.73919-.00087-1.4514-.09268-2-.25781v-.48633c.54948-.16443 1.2616-.25552 2-.25586zm-2 1.7441c.54948.16443 1.2616.25552 2 .25586.73841-.000334 1.4505-.09143 2-.25586v1c-.54948.16443-1.2616.25552-2 .25586-.73919-.00087-1.4514-.09268-2-.25781z" fill="#f67400"/></svg>