<svg viewBox="0 0 22 22" xmlns="http://www.w3.org/2000/svg"><path d="m5 3c-.554 0-1 .446-1 1v14c0 .554.446 1 1 1h4v-5h-2v-4c0-2.2091 1.7909-4 4-4 3.374.00547 5.226 3.9287 3.0859 6.5371.15462-.07589.31528-.137.48437-.19336.68766-.22922 1.519-.34375 2.4375-.34375.34923 0 .67127.03133.99219.064453v-8.0645c0-.554-.446-1-1-1zm10.008 12.736v2.9336c.05919.03076.08108.04981.19531.08789.39662.13221 1.0618.24136 1.7969.24219.000697.000001.0013-.000001.002 0 .55303-.00107.998-.44667.998-1v-2.0684c-.31983.04206-.64905.0682-.99219.06836h-.002c-.71748-.000844-1.3819-.10901-1.998-.26367z" fill="#dfdfdf"/><g fill="#da4453" transform="translate(0 1)"><path d="m17.008 12c-1.6569 0-3 .44772-3 1v5c0 .55228 1.3431 1 3 1s3-.44772 3-1v-5c0-.55228-1.3431-1-3-1zm0 1c.73919.00087 1.4514.09268 2 .25781v.48633c-.54948.16443-1.2616.25552-2 .25586-.73919-.00087-1.4514-.09268-2-.25781v-.48633c.54948-.16443 1.2616-.25552 2-.25586z"/><path d="m10 15h2v2h-2z"/><path d="m10 9h2v5h-2z"/></g></svg>