<svg height="22" width="22" xmlns="http://www.w3.org/2000/svg"><path d="m11 3c-4.4183 0-8 3.5817-8 8 0 4.418 3.5817 8 8 8 4.418 0 8-3.582 8-8 0-4.4183-3.582-8-8-8zm0 2c1.495771 0 2.989091.5601607 4.148438 1.671875-.370703.1438242-.713602.3779669-.976563.75l-.460937.654297c-1.568841-1.4542929-4.013464-1.4298958-5.539063.095703-.7809097.78091-1.1678657 1.804543-1.1679688 2.828125h.296875a.69923716.5746971.00000116 0 1 .6054688.861328l-.6503906.925781-.6523438.925782a.69923716.5746971.00000116 0 1 -1.2089844 0l-.6503906-.925782-.6503906-.925781a.69923716.5746971.00000116 0 1 .3984375-.835937.69923716.5746971.00000116 0 1 .2050781-.025391h.3046875c.0000706-1.535485.5844106-3.0707387 1.7558594-4.2421875 1.1715787-1.1715786 2.7066565-1.7578125 4.2421875-1.7578125zm4.962891 3.001953a.69923716.5746971.00000116 0 1 .642578.285156l.65039.925782.650391.925781a.69923716.5746971.00000116 0 1 -.398438.835937.69923716.5746971.00000116 0 1 -.205078.025391h-.304687c-.000071 1.535485-.584412 3.070735-1.755859 4.242188-1.171579 1.171576-2.706657 1.757812-4.242188 1.757812-1.494909 0-2.9874229-.559491-4.1464844-1.669922.363732-.140945.7082551-.373476.9746094-.75v-.002l.4609375-.654297c1.5688395 1.454293 4.0134635 1.429896 5.5390625-.0957.78091-.780866 1.167866-1.804498 1.167969-2.828081h-.296875a.69923716.5746971.00000116 0 1 -.605469-.861328l.650391-.925781.652343-.925782a.69923716.5746971.00000116 0 1 .566407-.285156z" fill="#dfdfdf" opacity=".3"/></svg>