<svg height="22" width="22" xmlns="http://www.w3.org/2000/svg" xmlns:xlink="http://www.w3.org/1999/xlink"><linearGradient id="a" gradientUnits="userSpaceOnUse" x1="3.374759719" x2="12.43482025576" y1="3.51195170925" y2="12.57243971624"><stop offset="0" stop-color="#ffcd00"/><stop offset="1" stop-color="#e16405"/></linearGradient><filter id="b" color-interpolation-filters="sRGB" height="1.1527" width="1.0961" x="-.048061" y="-.076366"><feGaussianBlur stdDeviation=".18772996"/></filter><linearGradient id="c" gradientUnits="userSpaceOnUse" x1="9.1143741328" x2="15.50003414815" y1="10.4197406989" y2="10.4197406989"><stop offset="0" stop-color="#fafafa"/><stop offset="1" stop-color="#d4d4d4"/></linearGradient><g transform="translate(3 2.657495)"><path d="m14.785907 7.9998762c0 .8135012-.143195 1.5934379-.405788 2.3163758-.18253.502432-.422667.977454-.712953 1.416806-.121589.184735-.252327.363136-.391093.534578-.444269.548692-.972238 1.026527-1.564883 1.414328-.218266.14292-.445116.273666-.679976.39081-.912052.456436-1.9416559.713192-3.0312776.713192-1.0896216 0-2.1192265-.256756-3.031277-.713209-.2348862-.11717-.4620098-.247899-.6802676-.39081-.6002195-.393034-1.1345061-.878366-1.5823238-1.436129-.1390305-.172835-.269503-.352877-.3910927-.539271-.2825236-.432077-.516555-.898285-.6954769-1.390988-.2625523-.7226548-.4054983-1.5023011-.4054983-2.3155204 0-3.7478026 3.0382021-6.7860047 6.7860046-6.7860047 1.8812963 0 3.5835693.7655736 4.8128033 2.0019286.354244.3561768.669187.7517321.937271 1.1793905.253439.4027367.465318.8342509.630116 1.2882242.26262.7229207.405805 1.5029.405805 2.3163759z" fill="url(#a)" stroke-width=".026508"/><g fill-rule="evenodd" transform="matrix(1.7805212 0 0 1.7805212 -11.987719 -8.234349)"><path d="m15.187 6.176a2.296 2.3606 0 0 1 2.0957 1.4016 2.296 2.3606 0 0 1 .9664-.22286 2.296 2.3606 0 0 1 2.296 2.3606 2.296 2.3606 0 0 1 -2.296 2.3606 2.296 2.3606 0 0 1 -.000747 0h-5.3574a1.721 1.7695 0 0 1 -1.7205-1.7697 1.721 1.7695 0 0 1 1.7205-1.7689 2.296 2.3606 0 0 0 0-.00076 2.296 2.3606 0 0 1 0-.001 2.296 2.3606 0 0 1 2.296-2.3591z" filter="url(#b)" opacity=".3" transform="matrix(.71074986 0 0 .82582683 -.667629 2.96914)"/><path d="m10.919065 7.8976234a1.962977 2.0182071 0 0 1 1.791729 1.1983051 1.962977 2.0182071 0 0 1 .826229-.1905353 1.962977 2.0182071 0 0 1 1.962977 2.0182068 1.962977 2.0182071 0 0 1 -1.962977 2.018207 1.962977 2.0182071 0 0 1 -.000639 0h-4.5803364a1.4713778 1.5128431 0 0 1 -1.4709503-1.513014 1.4713778 1.5128431 0 0 1 1.4709503-1.5123298 1.962977 2.0182071 0 0 0 0-.0006498 1.962977 2.0182071 0 0 1 0-.0008549 1.962977 2.0182071 0 0 1 1.9629774-2.0169247z" fill="url(#c)" stroke-width=".854955"/></g></g></svg>