<svg height="24" width="24" xmlns="http://www.w3.org/2000/svg" xmlns:xlink="http://www.w3.org/1999/xlink"><linearGradient id="a" gradientUnits="userSpaceOnUse" x1="7.82254" x2="7.82254" y1="15.355761" y2="6.966358"><stop offset="0" stop-color="#0c35f9"/><stop offset="1" stop-color="#2acbd7"/></linearGradient><filter id="b" color-interpolation-filters="sRGB" height="1.1527" width="1.0961" x="-.048061" y="-.076366"><feGaussianBlur stdDeviation=".18772996"/></filter><linearGradient id="c" gradientUnits="userSpaceOnUse" x1="4.2407738016" x2="15.6105770618" y1="5.3770726908" y2="5.3770726908"><stop offset="0" stop-color="#fafafa"/><stop offset="1" stop-color="#d4d4d4"/></linearGradient><g transform="translate(3.999893 4.09511)"><path d="m10.5 7.2809084-.344.34-1.406 1.41c-.453.45-.75 1.0599996-.75 1.7499996 0 1.37 1.125 2.5 2.5 2.5s2.5-1.13 2.5-2.5c0-.69-.297-1.2999996-.75-1.7499996l-1.406-1.41zm-5 2-.3440001.34-1.4059999 1.4099996c-.453.45-.75 1.06-.75 1.75 0 1.37 1.125 2.5 2.5 2.5s2.5-1.13 2.5-2.5c0-.69-.297-1.3-.75-1.75l-1.406-1.4099996z" fill="url(#a)"/><g fill-rule="evenodd"><path d="m6.0429688 1.1914062v.00195c-1.6042268-.0004292-2.9051956 1.55234-2.90625 3.46875v.00195c-1.2026592.0001382-2.17758919 1.164808-2.17773442 2.6015688.00014523 1.4367608.97507522 2.6014306 2.17773442 2.6015625h1.0664062l.5996094-.6015625.3457031-.3398438.3515625-.3476562.6972656.6875.5996094.6015625h.9140625c.1381768-.4551815.3624723-.8680052.6855469-1.1894531l1.40625-1.4121094.3457036-.3398438.351562-.3476562.697266.6875 1.107422 1.1113281c.338204-.5814098.519487-1.2724656.519531-1.9804687-.000152-1.9171729-1.301385-3.4711323-2.9062502-3.4707032-.4226793.0018362-.8399341.1138151-1.2226563.328125-.4656383-1.2528328-1.5048744-2.0609575-2.6523437-2.0625z" filter="url(#b)" opacity=".3" stroke-width="1.364112"/><path d="m7.453281.88671875c-1.9292874.00055721-3.4932469 1.60822745-3.49414 3.59179685v.00195c-1.4465113.0003851-2.6189854 1.2060835-2.619141 2.6933593.0001556 1.4872758 1.1726297 2.6929743 2.619141 2.6933594h.24414l.59961-.6015625.345703-.3398438.351562-.3476562.697266.6875.599609.6015625h.914063c.138176-.4551783.362472-.868002.685547-1.1894499l1.40625-1.4121094.345703-.3398438.351562-.3476562.697266.6875 1.404296 1.4101562.002.00195c.278197.2767968.506092.6115698.664062.984375 1.402081-.5029671 2.341969-1.8619132 2.343704-3.3886687-.000893-1.9843539-1.566044-3.5923489-3.496094-3.5917969-.5083.0013379-1.010199.1166481-1.470703.3378906-.560958-1.2963844-1.8113476-2.13201843-3.191406-2.13281245z" fill="url(#c)" stroke-width="1.522266"/></g></g></svg>