<svg height="24" width="24" xmlns="http://www.w3.org/2000/svg" xmlns:xlink="http://www.w3.org/1999/xlink"><linearGradient id="a" gradientUnits="userSpaceOnUse" x1="1.999918" x2="14.000082" y1="7.728814" y2="7.728814"><stop offset="0" stop-color="#ffcd00"/><stop offset="1" stop-color="#e16405"/></linearGradient><filter id="b" color-interpolation-filters="sRGB" height="1.1527" width="1.0961" x="-.048061" y="-.076366"><feGaussianBlur stdDeviation=".18772996"/></filter><linearGradient id="c" gradientUnits="userSpaceOnUse" x1="9.1143741328" x2="15.50003414815" y1="10.4197406989" y2="10.4197406989"><stop offset="0" stop-color="#fafafa"/><stop offset="1" stop-color="#d4d4d4"/></linearGradient><g transform="translate(4 3.697937)"><path d="m8.6420817.73016896c-2.723.1-5.232 1.81000004-6.221 4.57000004-1.303 3.64.516 7.69 4.096 9.01 2.718 1 5.6560003.14 7.4830003-1.91-1.308.43-2.765.45-4.1570003-.06-3.324-1.23-5.029-4.98-3.819-8.36.507-1.41 1.453-2.51 2.618-3.25000004z" fill="url(#a)"/><g fill-rule="evenodd" transform="matrix(1.7805212 0 0 1.7805212 -11.987719 -7.831368)"><path d="m15.187 6.176a2.296 2.3606 0 0 1 2.0957 1.4016 2.296 2.3606 0 0 1 .9664-.22286 2.296 2.3606 0 0 1 2.296 2.3606 2.296 2.3606 0 0 1 -2.296 2.3606 2.296 2.3606 0 0 1 -.000747 0h-5.3574a1.721 1.7695 0 0 1 -1.7205-1.7697 1.721 1.7695 0 0 1 1.7205-1.7689 2.296 2.3606 0 0 0 0-.00076 2.296 2.3606 0 0 1 0-.001 2.296 2.3606 0 0 1 2.296-2.3591z" filter="url(#b)" opacity=".3" transform="matrix(.71074986 0 0 .82582683 -.667629 2.96914)"/><path d="m10.919065 7.8976234a1.962977 2.0182071 0 0 1 1.791729 1.1983051 1.962977 2.0182071 0 0 1 .826229-.1905353 1.962977 2.0182071 0 0 1 1.962977 2.0182068 1.962977 2.0182071 0 0 1 -1.962977 2.018207 1.962977 2.0182071 0 0 1 -.000639 0h-4.5803364a1.4713778 1.5128431 0 0 1 -1.4709503-1.513014 1.4713778 1.5128431 0 0 1 1.4709503-1.5123298 1.962977 2.0182071 0 0 0 0-.0006498 1.962977 2.0182071 0 0 1 0-.0008549 1.962977 2.0182071 0 0 1 1.9629774-2.0169247z" fill="url(#c)" stroke-width=".854955"/></g></g></svg>