<svg height="24" width="24" xmlns="http://www.w3.org/2000/svg" xmlns:xlink="http://www.w3.org/1999/xlink"><linearGradient id="a" gradientUnits="userSpaceOnUse" x1="8.241011" x2="8.241011" xlink:href="#b" y1="15.990503" y2="11.617621"/><linearGradient id="b" gradientTransform="matrix(.85495515 0 0 .85495515 -2.129996 2.61742)" gradientUnits="userSpaceOnUse" x1="13.152" x2="20.621" y1="9.126" y2="9.126"><stop offset="0" stop-color="#fafafa"/><stop offset="1" stop-color="#d4d4d4"/></linearGradient><filter id="c" color-interpolation-filters="sRGB" height="1.1527" width="1.0961" x="-.048061" y="-.076366"><feGaussianBlur stdDeviation=".18772996"/></filter><linearGradient id="d" gradientTransform="matrix(.85495515 0 0 .85495515 -2.129996 2.61742)" gradientUnits="userSpaceOnUse" x1="13.152" x2="20.621" xlink:href="#b" y1="9.126" y2="9.126"/><g transform="translate(4 3.506149)"><path d="m3.4822221 11.783461c-.183075.0092-.346465.117754-.4258.283l-1 2c-.298552.596362.596048 1.044362.8946.448l1-2c.179242-.342979-.08232-.750828-.4688-.731zm3 .002c-.183075.0092-.346465.117754-.4258.283l-1 2c-.298781.596438.595819 1.044438.8946.448l1-2c.179242-.342979-.08232-.750828-.4688-.731zm4.5214999.006c-.552285 0-1 .447715-1 1s.447715 1 1 1 1-.447715 1-1-.447715-1-1-1zm-1.9999999 2c-.552285 0-1 .447715-1 1s.447715 1 1 1 .9999999-.447715.9999999-1-.4477149-1-.9999999-1zm3.9999999 0c-.552285 0-1 .447715-1 1s.447715 1 1 1 1-.447715 1-1-.447715-1-1-1z" fill="url(#a)"/><g fill-rule="evenodd" transform="matrix(1.7805212 0 0 1.7805212 -11.987719 -12.509084)"><path d="m15.187 6.176a2.296 2.3606 0 0 1 2.0957 1.4016 2.296 2.3606 0 0 1 .9664-.22286 2.296 2.3606 0 0 1 2.296 2.3606 2.296 2.3606 0 0 1 -2.296 2.3606 2.296 2.3606 0 0 1 -.000747 0h-5.3574a1.721 1.7695 0 0 1 -1.7205-1.7697 1.721 1.7695 0 0 1 1.7205-1.7689 2.296 2.3606 0 0 0 0-.00076 2.296 2.3606 0 0 1 0-.001 2.296 2.3606 0 0 1 2.296-2.3591z" filter="url(#c)" opacity=".3" transform="matrix(.71074986 0 0 .82582683 -.667629 2.96914)"/><path d="m10.919065 7.8976234a1.962977 2.0182071 0 0 1 1.791729 1.1983051 1.962977 2.0182071 0 0 1 .826229-.1905353 1.962977 2.0182071 0 0 1 1.962977 2.0182068 1.962977 2.0182071 0 0 1 -1.962977 2.018207 1.962977 2.0182071 0 0 1 -.000639 0h-4.5803364a1.4713778 1.5128431 0 0 1 -1.4709503-1.513014 1.4713778 1.5128431 0 0 1 1.4709503-1.5123298 1.962977 2.0182071 0 0 0 0-.0006498 1.962977 2.0182071 0 0 1 0-.0008549 1.962977 2.0182071 0 0 1 1.9629774-2.0169247z" fill="url(#d)" stroke-width=".854955"/></g></g></svg>