<svg height="64" viewBox="0 0 16.933 16.933" width="64" xmlns="http://www.w3.org/2000/svg" xmlns:xlink="http://www.w3.org/1999/xlink"><linearGradient id="a" gradientTransform="matrix(1 0 0 1.1 16.669 62.435)" gradientUnits="userSpaceOnUse" x1="-15.961" x2="-.30109" y1="-43.254" y2="-54.196"><stop offset="0" stop-color="#ffc832"/><stop offset="1" stop-color="#ffdc6e"/></linearGradient><linearGradient id="b"><stop offset="0" stop-color="#e1a000"/><stop offset="1" stop-color="#ffdc6e"/></linearGradient><linearGradient id="c" gradientTransform="matrix(1 0 0 1.1 16.669 62.435)" gradientUnits="userSpaceOnUse" x1=".52939" x2="16.217" xlink:href="#b" y1="2.7784" y2="14.872"/><linearGradient id="d" gradientTransform="matrix(1 0 0 1.1 16.669 62.435)" gradientUnits="userSpaceOnUse" x1="-16.14" x2="-1.0699" xlink:href="#b" y1="-55.616" y2="-44.835"/><g fill="#5e4aa6" stroke-width=".26458"><circle cx="-330.35" cy="-328.38" r="0"/><circle cx="-312.11" cy="-326.25" r="0"/><circle cx="-306.02" cy="-333.07" r="0"/><circle cx="-308.84" cy="-326.01" r="0"/><circle cx="-328.8" cy="-330.45" r="0"/></g><g fill="#5e4aa6" stroke-width=".26458"><circle cx="-330.349705" cy="-328.38033" r="0"/><circle cx="-312.109705" cy="-326.25033" r="0"/><circle cx="-306.019705" cy="-333.07033" r="0"/><circle cx="-308.839705" cy="-326.01033" r="0"/><circle cx="-328.799705" cy="-330.45033" r="0"/></g><g transform="translate(.000295 -.00033)"><path d="m-8.2026-51.317h-7.9373v-3.6379c0-.36531.29614-.66144.66144-.66144h5.6223l1.6536 1.3229z" fill="url(#d)" stroke-width=".66145" transform="matrix(1 0 0 1.1 16.669 63.956)"/><rect fill="url(#c)" height="10.848" ry=".79373" width="15.874" x=".52939" y="4.2333"/><rect fill="#fffffc" height="9.9217" ry=".29919" width="14.987" x=".97311" y="4.6963"/></g><path d="m15.742 4.2329h-7.2759l-1.6536 1.4552h-5.6223c-.36531 0-.66144.32575-.66144.72759v7.9373c0 .40184.29614.72759.66144.72759h14.552c.36531 0 .66145-.32575.66145-.72759v-9.3926c0-.40184-.29614-.72759-.66145-.72759z" fill="url(#a)" stroke-width=".69373"/><g fill="#e1a000" transform="translate(-.7939 .26458)"><path d="m7.4082 10.319h3.7041v.26458h-3.7041z"/><path d="m6.6145 7.6728v5.5561h1.0583v-5.5561zm.26458.26458h.52916v5.027h-.52916z"/><path d="m10.848 7.6728v5.5561h1.0583v-5.5561zm.26458.26458h.52916v5.027h-.52916z"/><path d="m28 29v21h14v-21zm1 1h12v19h-12z" transform="scale(.26458)"/><path d="m6.6145 8.4665h1.0583v.52916h-1.0583z"/><path d="m6.6145 9.5248h1.0583v.52916h-1.0583z"/><path d="m6.6145 10.583h1.0583v.52916h-1.0583z"/><path d="m6.6145 11.641h1.0583v.52916h-1.0583z"/><path d="m6.6145 12.7h1.0583v.52916h-1.0583z"/><path d="m6.6145 12.7h1.0583v.52916h-1.0583z"/><path d="m10.848 8.4665h1.0583v.52916h-1.0583z"/><path d="m10.848 9.5248h1.0583v.52916h-1.0583z"/><path d="m10.848 10.583h1.0583v.52916h-1.0583z"/><path d="m10.848 11.641h1.0583v.52916h-1.0583z"/><path d="m10.848 12.7h1.0583v.52916h-1.0583z"/></g></svg>