<svg height="24" width="24" xmlns="http://www.w3.org/2000/svg"><g transform="translate(1 1)"><path d="m18.984 7.2451a5 5 0 0 1 -.57422 2.1074 5 5 0 0 1 .16211.15625 5 5 0 0 0 .41211-2.2637zm-16.972 1.0058a5 5 0 0 0 2.4883 4.5821 5 5 0 0 1 .1699-.33 5 5 0 0 1 .0391-.059 5 5 0 0 1 -.209-.111 5 5 0 0 1 -2.4883-4.0821zm17.974 5.0081a5 5 0 0 1 -.65625 2.2441 5 5 0 0 1 -6.1094 2.1699 5 5 0 0 1 -6.7207 1.6602 5 5 0 0 1 -2.4883-4.082 5 5 0 0 0 2.4883 4.582 5 5 0 0 0 6.7207-1.6602 5 5 0 0 0 6.1094-2.1699 5 5 0 0 0 .65625-2.7441z" opacity=".2"/><circle cx="10.062" cy="3.428" fill="#4f4f4f" r="5" transform="matrix(.8660254 .5 -.5 .8660254 0 0)"/><circle cx="-.938" cy="-15.624" fill="#ccc" r="5" transform="matrix(-.5 .8660254 -.8660254 -.5 0 0)"/><circle cx="19.49" cy="3.758" fill="#4f4f4f" r="5" transform="matrix(.8660254 .5 -.5 .8660254 0 0)"/><circle cx="8.49" cy="-15.294" fill="#ccc" r="5" transform="matrix(-.5 .8660254 -.8660254 -.5 0 0)"/><path d="m14.117 2.002a5 5 0 0 0 -.35352.00391 5 5 0 0 0 -3.7637 2 5 5 0 0 0 -.5-.33594 5 5 0 0 0 -6.8301 1.8301 5 5 0 0 0 -.6582 2.748 5 5 0 0 1 .6582-2.248 5 5 0 0 1 6.8301-1.8301 5 5 0 0 1 .5.33594 5 5 0 0 1 3.7637-2 5 5 0 0 1 2.7363.66406 5 5 0 0 1 2.4844 4.0723 5 5 0 0 0 -2.4844-4.5723 5 5 0 0 0 -2.3828-.66797zm4.4531 7.5059a5 5 0 0 1 -.16016.3418 5 5 0 0 1 1.5762 3.4063 5 5 0 0 0 -1.416-3.748zm-14.07 3.3221a5 5 0 0 0 -.4883 2.418 5 5 0 0 1 .6582-2.248 5 5 0 0 1 .0391-.059 5 5 0 0 1 -.209-.111z" fill="#fff" opacity=".1"/></g></svg>