<svg height="24" viewBox="0 0 6.35 6.35" width="24" xmlns="http://www.w3.org/2000/svg"><g transform="translate(-.000001 -290.64999)"><g transform="matrix(.44836892 0 0 .44466723 -.191448 165.74214)"><path d="m.79375 281.12497h12.7v11.641666h-12.7z" fill="#3689e6"/><path d="m1.058333 281.38956h12.170834v11.1125h-12.170834z" fill="#fafafa"/><path d="m.79375 281.12497h12.7v2.116667h-12.7z" fill="#3689e6"/></g><path d="m2.3691752 291.88456c-.010995.001-.021614.006-.029872.0143l-.3821607.38209c-.016067.0161-.019094.0411-.00725.0606l.4474278.7369c-.079356.13341-.1429597.27725-.1884178.429l-.8214052.17085c-.022854.005-.039319.025-.039319.0485v.54038c0 .0229.015635.0427.037656.048l.7972535.19487c.042515.17575.1083975.34234.1954718.49546l-.4614664.70371c-.012875.0197-.010184.0456.00645.0622l.3820266.38209c.016068.016.041152.0192.060744.007l.7231364-.43917c.1420457.082.2952357.14647.4571418.19021l.1687246.81122c.00475.0229.025066.0393.048369.0393h.5404403c.02272 0 .042547-.0155.047969-.0378l.1987348-.81306c.1668954-.045.3247431-.11217.470248-.19786l.7126242.46726c.019595.0129.045509.0104.062141-.006l.382161-.3821c.016165-.0162.01906-.0412.00718-.0606l-.4863979-.6161c-.2183597-.29952-.1912864-.26884-.2710031-.35394-.256181.50138-.7773926.84481-1.3792747.84481-.8551186 0-1.5483996-.69329-1.5483996-1.54846 0-.62909.3752249-1.17011.9138844-1.41247v-.39946c-.098035.0343-.1928095.0756-.2828283.12468-.0000659-.00006-.0001361-.00022-.0003844-.00045l-.7293889-.47839c-.00982-.007-.021208-.009-.032201-.008z" fill="#d4d4d4" stroke-width=".059879"/><g stroke-width=".080089"><ellipse cx="4.07121" cy="294.03931" fill="#206b00" rx="1.641827" ry="1.641828"/><ellipse cx="3.87063" cy="294.46201" fill="#fafafa" rx="1.001114" ry="1.001114"/><path d="m2.9896496 294.40193.9610359.88098.4805686-1.32147z" fill="#1a1a1a"/></g></g></svg>