<svg height="24" width="24" xmlns="http://www.w3.org/2000/svg"><g transform="translate(1 1)"><path d="m2 2c-.554 0-1 .446-1 1v16c0 .554.446 1 1 1h18c.554 0 1-.446 1-1v-16c0-.554-.446-1-1-1z" fill="#4ab3e4"/><path d="m2 2c-.554 0-1 .446-1 1v1c0-.554.446-1.5 1-1.5h18c.554 0 1 .946 1 1.5v-1c0-.554-.446-1-1-1z" fill="#fff" opacity=".2"/><path d="m1 19v.5c0 .554.446 1 1 1h18c.554 0 1-.446 1-1v-.5c0 .554-.446 1-1 1h-18c-.554 0-1-.446-1-1z" opacity=".2"/><path d="m.5 5c-.277 0-.5.2083-.5.4668v6.0662c0 .259.223.467.5.467h9c.277 0 .5-.208.5-.467v-6.0662c0-.2585-.223-.4668-.5-.4668zm12 0c-.277 0-.5.2083-.5.4668v6.0664c0 .259.223.467.5.467h9c.277 0 .5-.208.5-.467v-6.0662c0-.2585-.223-.4668-.5-.4668h-9zm-6 9c-.277 0-.5.208-.5.467v6.0664c0 .259.223.467.5.467h9c.277 0 .5-.20826.5-.4668v-6.0664c0-.259-.223-.467-.5-.467h-9z" fill="#f5f5f5"/><path d="m0 11.533v.5c0 .259.223.467.5.467h9c.277 0 .5-.20826.5-.4668v-.5c0 .259-.223.467-.5.467h-9c-.277 0-.5-.208-.5-.467zm12 0v.5c0 .259.223.467.5.467h9c.277 0 .5-.20826.5-.4668v-.5c0 .259-.223.467-.5.467h-9c-.277 0-.5-.208-.5-.467zm-6 9v.5c0 .259.223.467.5.467h9c.277 0 .5-.20826.5-.4668v-.5c0 .259-.223.467-.5.467h-9c-.277 0-.5-.208-.5-.467z" opacity=".2"/></g></svg>