<svg height="24" viewBox="0 0 24 24" width="24" xmlns="http://www.w3.org/2000/svg"><circle cx="12" cy="12" fill="#448aff" r="11.5" stroke-width=".410714"/><g fill="#fafafa" stroke-width=".020784"><path d="m9.8862541 12.548695h-4.7636653c.2660337 3.373224 2.9575461 6.064736 6.3307702 6.33077v-4.807312c-.756534-.191211-1.355109-.775238-1.5671049-1.523458z"/><path d="m11.453359 9.8363987v-4.7158624c-3.3628321.2660337-6.0481094 2.940919-6.3286918 6.2995937h4.7449598c.195368-.777317.806415-1.388363 1.583732-1.5837313z"/><path d="m14.103303 11.42013h4.774058c-.276426-3.3482827-2.947155-6.0190113-6.295438-6.2975153v4.7304111c.74822.2119952 1.332247.8105712 1.52138 1.5671042z"/><path d="m-1.393933 19.041735h2.961674v5.405834h-2.961674z" transform="matrix(.70710678 -.70710678 .70710678 .70710678 0 0)"/></g></svg>