<svg height="24" width="24" xmlns="http://www.w3.org/2000/svg"><g transform="translate(1 1)"><rect fill="#81d547" height="20" rx="1" transform="matrix(0 -1 -1 0 0 0)" width="20" x="-21" y="-21"/><path d="m1 2.5v-.5c0-.554.446-1 1-1h18c.554 0 1 .446 1 1v.5c0-.554-.446-1-1-1h-18c-.554 0-1 .446-1 1z" fill="#fff" opacity=".2"/><path d="m1 20v.5c0 .554.446 1 1 1h18c.554 0 1-.446 1-1v-.5c0 .554-.446 1-1 1h-18c-.554 0-1-.446-1-1z" opacity=".2"/><path d="m10.969 5.4997c-.604-.0061-1.2036.0782-1.7854.2285-2.7126.6853-4.7327 3.1255-4.6914 5.7718h-1.4922l2.2871 3 2.1875-3h-1.4316c-.0052-1.1082.43559-2.1356 1.2188-2.9629 1.472-1.6671 4.2311-2.0584 6.1875-.94336.64989.80128 2.0932-.07864 1.3359-.90039-1.0772-.79028-2.4564-1.1906-3.8164-1.1934zm5.7441 3-2.1875 3h1.4316c.0052 1.1082-.43559 2.1356-1.2188 2.9629-1.472 1.6671-4.2311 2.0584-6.1875.94336-.64989-.80128-2.0932.07864-1.3359.90039 1.0772.79028 2.4564 1.1906 3.8164 1.1934.60419.0061 1.2033-.07816 1.7852-.22852 2.7126-.68526 4.7327-3.1255 4.6914-5.7715h1.4922l-2.2871-3z" opacity=".2"/><path d="m10.969 5c-.604-.0061-1.2036.0782-1.7854.2285-2.7126.6853-4.7327 3.1256-4.6914 5.7715h-1.4922l2.2871 3 2.1875-3h-1.4316c-.0052-1.1082.4356-2.1356 1.2187-2.9629 1.472-1.667 4.2313-2.0584 6.1873-.9433.65.8012 2.093-.0787 1.336-.9004-1.077-.7903-2.456-1.1906-3.816-1.1934zm5.7441 3-2.1875 3h1.4316c.0052 1.1082-.43559 2.1356-1.2188 2.9629-1.472 1.6671-4.2311 2.0584-6.1875.94336-.64989-.80128-2.0932.07864-1.3359.90039 1.0772.79028 2.4564 1.1906 3.8164 1.1934.60419.0061 1.2033-.07816 1.7852-.22852 2.7126-.68526 4.7327-3.1255 4.6914-5.7715h1.4922l-2.288-3z" fill="#fff"/><circle cx="16" cy="16" fill="#8561c5" r="6"/><path d="m14 12v4.0938c-.158-.057-.322-.094-.5-.094-.8284 0-1.5.6716-1.5 1.5s.6716 1.5 1.5 1.5 1.5-.6716 1.5-1.5v-3.5h3v2.0938c-.158-.057-.322-.094-.5-.094-.8284 0-1.5.6716-1.5 1.5s.6716 1.5 1.5 1.5 1.5-.6716 1.5-1.5v-5.5h-.5z" fill="#fff"/></g></svg>