<svg height="24" viewBox="0 0 24 24" width="24" xmlns="http://www.w3.org/2000/svg"><g transform="matrix(.64029209 0 0 .64029209 1.677538 1.900945)"><path d="m7.3741235.5477565c-.068642.007063-.1349375.037442-.186492.0892945l-2.3858455 2.3854179c-.1003105.1005977-.119208.2565942-.045255.3783991l2.7933115 4.6005545c-.495423.832897-.892504 1.730913-1.176301 2.6782535l-5.1280685 1.066644c-.142678.02953-.245473.155968-.245473.302386v3.373576c0 .142673.097611.266244.235088.299476l4.9772885 1.216593c.2654225 1.097176.6767305 2.137245 1.2203395 3.093203l-2.880955 4.393285c-.080378.122779-.063579.284527.04027.387949l2.385009 2.385433c.100311.100032.2569105.119671.379229.04606l4.514572-2.741805c.886797.511733 1.84317.914434 2.853957 1.187531l1.053355 5.064504c.02964.143507.156494.245489.301969.245489h3.373992c.14184 0 .265621-.09678.299476-.235937l1.240682-5.074888c1.041936-.281193 2.027386-.700297 2.93578-1.235287l4.448944 2.917087c.122328.08053.284112.06443.387948-.03942l2.385848-2.385432c.100922-.10088.118993-.25689.04484-.378385l-3.036598-3.846358c-1.363229-1.869881-1.194209-1.678333-1.691885-2.209667-1.599349 3.130164-4.853296 5.274262-8.610872 5.274262-5.338543 0-9.6667265-4.328278-9.6667265-9.667136 0-3.927456 2.3425455-7.3050735 5.7054205-8.8181325v-2.4938267c-.612036.2141087-1.203718.4722572-1.765709.7783871-.000412-.0003817-.00085-.0014-.0024-.00285l-4.553607-2.986619c-.0613275-.0401287-.1324055-.0560918-.201032-.04902755z" fill="#d4d4d4" stroke-width=".373826"/><ellipse cx="18.000002" cy="13.999999" fill="#206b00" rx="10.25" ry="10.250001" stroke-width=".5"/><path d="m18.000029 3.7499817a10.249962 10.249962 0 0 0 -10.2499615 10.2499713 10.249962 10.249962 0 0 0 .007754.214587 10.249962 10.249962 0 0 1 10.2420925-10.0983803 10.249962 10.249962 0 0 1 10.242275 10.0354193 10.249962 10.249962 0 0 0 .007754-.151592 10.249962 10.249962 0 0 0 -10.249961-10.2499724z" fill="#fff" opacity=".2" stroke-width=".36607"/><g stroke-width=".5"><ellipse cx="16.747772" cy="16.638758" fill="#fafafa" rx="6.25" ry="6.250001"/><path d="m11.247773 16.263758 5.999788 5.5 3.000211-8.25z" fill="#1a1a1a"/></g></g></svg>