<svg height="32" width="32" xmlns="http://www.w3.org/2000/svg"><path d="m-46.405381 0h32v32h-32z" fill-rule="evenodd" opacity="0"/><rect fill="#eaeaea" fill-rule="evenodd" height="1" ry=".5" transform="matrix(0 1 1 0 -7.40595 -63.999453)" width="6" x="70.999451" y="-35.999432"/><path d="m-78.767921 29.304807a12.499453 12.499453 0 0 1 16.476234 4.281307 12.499453 12.499453 0 0 1 -3.074306 16.743493 12.499453 12.499453 0 0 1 -16.922451-1.851093 12.499453 12.499453 0 0 1 .618117-17.012167" fill="none" stroke="#eaeaea" stroke-dashoffset="3" stroke-linecap="round" stroke-width="1.00005" transform="matrix(.70710678 -.70710678 .70710678 .70710678 -7.40595 -63.999453)"/><rect fill="#eaeaea" fill-rule="evenodd" height="1" ry=".5" transform="matrix(-1 0 0 1 -7.40595 -63.999453)" width="6" x="29.999432" y="75.999451"/><path d="m0 0h32v32h-32z" fill-rule="evenodd" opacity="0"/><g transform="translate(39.000002 41.000002)"><circle cx="-23.000002" cy="-25.000002" fill="none" r="14.5" stroke="#eaeaea" stroke-width=".999997"/><path d="m-18.050103-20.050103a7.0002136 7.0002136 0 0 1 -8.021771 1.340299 7.0002136 7.0002136 0 0 1 -3.875297-7.150335 7.0002136 7.0002136 0 0 1 5.502131-5.989305 7.0002136 7.0002136 0 0 1 7.452672 3.256208" fill="none" stroke="#eaeaea" stroke-linecap="round" stroke-width="1.99957"/><g fill="#eaeaea"><rect height="2" ry="1" transform="matrix(.96592583 .25881905 -.25881905 .96592583 0 0)" width="6" x="-28.31661" y="-23.204168"/><rect height="2" ry="1" transform="matrix(-.25881905 .96592583 -.96592583 -.25881905 0 0)" width="6" x="-27.204168" y="22.31661"/></g></g></svg>