<svg height="32" width="32" xmlns="http://www.w3.org/2000/svg"><path d="m-44.392548 0h32v32h-32z" fill-rule="evenodd" opacity="0"/><path d="m-37.228467 105.17175a12.423848 12.423848 0 0 1 -13.786287-4.46475 12.423848 12.423848 0 0 1 -.177812-14.490138 12.423848 12.423848 0 0 1 13.672576-4.801707" fill="none" stroke="#eaeaea" stroke-dashoffset="3" stroke-linecap="round" stroke-width="1.159595" transform="matrix(-.70710678 -.70710678 -.70710678 .70710678 7.91877 -79.760071)"/><path d="m-37.362245 105.17154a13.567029 13.567029 0 0 1 -7.157527-11.743463 13.567029 13.567029 0 0 1 6.781811-11.964372" fill="none" stroke="#eaeaea" stroke-dashoffset="3" stroke-linecap="round" stroke-width="1.266295" transform="matrix(-.70710678 -.70710678 -.70710678 .70710678 7.91877 -79.760071)"/><path d="m0 0h32v32h-32z" fill-rule="evenodd" opacity="0"/><g transform="translate(100.5 36.5)"><circle cx="-84.5" cy="-20.5" fill="none" r="14.5" stroke="#eaeaea" stroke-width=".999997"/><path d="m-84.941409-27.941406a8 8 0 0 0 -7.03906 7.941406 8 8 0 0 0 8 8 8 8 0 0 0 6.960938-4.058594 8 8 0 0 1 -.960938.05859 8 8 0 0 1 -8-8 8 8 0 0 1 1.03906-3.941406z" fill="#eaeaea"/></g></svg>