<svg height="32" width="32" xmlns="http://www.w3.org/2000/svg"><path d="m-39.118585 0h32v32h-32z" fill-rule="evenodd" opacity="0"/><path d="m-37.228467 105.17175a12.423848 12.423848 0 0 1 -13.786287-4.46475 12.423848 12.423848 0 0 1 -.177812-14.490138 12.423848 12.423848 0 0 1 13.672576-4.801707" fill="none" stroke="#eaeaea" stroke-dashoffset="3" stroke-linecap="round" stroke-width="1.159595" transform="matrix(-.70710678 -.70710678 -.70710678 .70710678 13.192733 -79.760071)"/><path d="m-37.362245 105.17154a13.567029 13.567029 0 0 1 -7.157527-11.743463 13.567029 13.567029 0 0 1 6.781811-11.964372" fill="none" stroke="#eaeaea" stroke-dashoffset="3" stroke-linecap="round" stroke-width="1.266295" transform="matrix(-.70710678 -.70710678 -.70710678 .70710678 13.192733 -79.760071)"/><g fill="#eaeaea" fill-rule="evenodd" transform="translate(-82.118585 39.999999)"><rect height="1.041665" ry=".520833" transform="matrix(.70710678 -.70710678 .70710678 .70710678 0 0)" width="10.880896" x="53.249416" y="17.156837"/><rect height="1.000008" ry=".500004" width="8" x="50" y="-26"/><rect height=".999985" ry=".499992" transform="scale(1 -1)" width="8" x="50" y="32"/></g><path d="m0-.000001h32v32h-32z" fill-rule="evenodd" opacity="0"/><g transform="translate(100.5 36.499999)"><circle cx="-84.5" cy="-20.5" fill="none" r="14.5" stroke="#eaeaea" stroke-width=".999997"/><g fill="#eaeaea"><path d="m-84.941409-27.941406a8 8 0 0 0 -7.03906 7.941406 8 8 0 0 0 8 8 8 8 0 0 0 6.960938-4.058594 8 8 0 0 1 -.960938.05859 8 8 0 0 1 -8-8 8 8 0 0 1 1.03906-3.941406z"/><g transform="translate(-.000001 1.000001)"><rect height="1.004905" rx="0" ry=".502452" width="6" x="-83" y="-22.004906"/><rect height=".990189" ry=".495094" width="6" x="-83" y="-26.990189"/><rect height="1.133659" ry=".566829" transform="matrix(.70710678 -.70710678 .70710678 .70710678 0 0)" width="8.014243" x="-43.605099" y="-74.105934"/></g></g></g></svg>