<svg height="32" viewBox="0 0 32 32" width="32" xmlns="http://www.w3.org/2000/svg"><path d="m6.5 3c-.831 0-1.5.669-1.5 1.5v25c0 .831.669 1.5 1.5 1.5h19c.831 0 1.5-.669 1.5-1.5v-25c0-.831-.669-1.5-1.5-1.5z" opacity=".2"/><path d="m6.5 2c-.831 0-1.5.669-1.5 1.5v25c0 .831.669 1.5 1.5 1.5h19c.831 0 1.5-.669 1.5-1.5v-25c0-.831-.669-1.5-1.5-1.5z" fill="#3d65c2"/><path d="m6.5 2c-.831 0-1.5.669-1.5 1.5v25c0 .831.669 1.5 1.5 1.5h2.5v-28z" opacity=".2"/><path d="m16 7v5h-5v4h5v11h4v-11h5v-4h-5v-5z" opacity=".2"/><path d="m16 6h4v20h-4z" fill="#ffd972"/><path d="m11-25h4v14h-4z" fill="#ffd972" transform="rotate(90)"/><path d="m6.5 2c-.831 0-1.5.669-1.5 1.5v1c0-.831.669-1.5 1.5-1.5h19c.831 0 1.5.669 1.5 1.5v-1c0-.831-.669-1.5-1.5-1.5z" fill="#fff" opacity=".1"/><circle cx="24" cy="23" fill="#ff982d" fill-rule="evenodd" r="8"/><path d="m31.979 23.424a8 8 0 0 1 -7.979 7.576 8 8 0 0 1 -7.979-7.424 8 8 0 0 0 -.021.424 8 8 0 0 0 8 8 8 8 0 0 0 8-8 8 8 0 0 0 -.021-.576z" fill-rule="evenodd" opacity=".2"/><g fill="#fff"><path d="m24 18a5 5 0 0 0 -5 5 5 5 0 0 0 5 5 5 5 0 0 0 5-5 5 5 0 0 0 -5-5zm0 1a3.9999996 3.9999996 0 0 1 4 4 3.9999996 3.9999996 0 0 1 -4 4 3.9999996 3.9999996 0 0 1 -4-4 3.9999996 3.9999996 0 0 1 4-4z"/><path d="m23 20v3 1h1 3v-1h-3v-3z"/></g></svg>