<svg height="32" width="32" xmlns="http://www.w3.org/2000/svg"><rect fill="#e75177" height="28" rx="1.5" transform="matrix(0 -1 -1 0 0 0)" width="28" x="-30" y="-30"/><path d="m3.5 2c-.831 0-1.5.669-1.5 1.5v1c0-.831.669-1.5 1.5-1.5h25c.831 0 1.5.669 1.5 1.5v-1c0-.831-.669-1.5-1.5-1.5z" fill="#fff" opacity=".1"/><path d="m16 7.9996a9 9 0 0 0 -3 .5254v11.475c0 .554-.446 1-1 1s-1-.446-1-1v-10.475a9 9 0 0 0 -4 7.475 9 9 0 0 0 9 9 9 9 0 0 0 9-9 9 9 0 0 0 -9-9zm-.557 5a.43752.45073 0 0 1 .209.059l3.063 1.773 3.062 1.775a.43752.45073 0 0 1 0 .786l-3.062 1.775-3.063 1.773a.43752.45073 0 0 1 -.652-.392v-7.098a.43752.45073 0 0 1 .443-.451z" opacity=".2"/><path d="m16 7a9 9 0 0 0 -3 .5254v11.475c0 .554-.446 1-1 1s-1-.446-1-1v-10.475a9 9 0 0 0 -4 7.475 9 9 0 0 0 9 9 9 9 0 0 0 9-9 9 9 0 0 0 -9-9zm-.557 5a.43752.45073 0 0 1 .209.059l3.063 1.773 3.062 1.775a.43752.45073 0 0 1 0 .786l-3.062 1.775-3.063 1.773a.43752.45073 0 0 1 -.652-.392v-7.098a.43752.45073 0 0 1 .443-.451z" fill="#fff"/><path d="m2 28.5v1c0 .831.669 1.5 1.5 1.5h25c.831 0 1.5-.669 1.5-1.5v-1c0 .831-.669 1.5-1.5 1.5h-25c-.831 0-1.5-.669-1.5-1.5z" opacity=".2"/></svg>