<svg height="32" width="32" xmlns="http://www.w3.org/2000/svg"><path d="m90 21.948c-3.0904 1.3709-6.4122 2.297-9.8977 2.7136 3.5578-2.1328 6.2908-5.51 7.5772-9.5344-3.3302 1.9753-7.0182 3.4091-10.944 4.1819-3.1433-3.3495-7.6222-5.4419-12.579-5.4419-9.5172 0-17.234 7.7158-17.234 17.233 0 1.3507.15245 2.6662.44645 3.9274-14.323-.719-27.021-7.58-35.521-18.006-1.4834 2.5452-2.3335 5.5054-2.3335 8.6638 0 5.9791 3.0425 11.254 7.6667 14.344-2.8249-.08949-5.4823-.86478-7.8057-2.1554-.002.07186-.002.14405-.002.21672 0 8.3496 5.9405 15.314 13.824 16.899-1.4461.39395-2.9686.60437-4.5402.60437-1.1105 0-2.1899-.10836-3.2424-.30912 2.1932 6.8464 8.5575 11.829 16.099 11.968-5.8981 4.6225-13.329 7.3777-21.403 7.3777-1.391 0-2.7628-.08191-4.111-.24109 7.6268 4.8901 16.685 7.7431 26.418 7.7431 31.699 0 49.033-26.26 49.033-49.034 0-.74718-.01676-1.4902-.05002-2.2298 3.3667-2.4293 6.2883-5.4642 8.5987-8.9204z" fill="#35b9f5" transform="matrix(.35714 0 0 .35157 -1.1428 -.87546)"/><path d="m21.77 4c-3.399 0-6.155 2.7126-6.155 6.059 0 .157.016.31.028.464.275-3.0943 2.911-5.523 6.127-5.523 1.77 0 3.369.7365 4.492 1.9141 1.148-.2225 2.235-.6083 3.246-1.1192.269-.4225.507-.8673.664-1.3515-1.189.6944-2.508 1.199-3.91 1.4707-1.123-1.1776-2.722-1.9141-4.492-1.9141zm-18.682 1.1094c-.5298.8948-.832 1.9345-.832 3.0449 0 .1747.0184.3446.0332.5156.0751-.9271.3474-1.7981.7988-2.5605 3.0357 3.6656 7.5721 6.0776 12.687 6.3296-.077-.326-.117-.665-.138-1.009-5.059-.289-9.541-2.6883-12.549-6.3206zm27.912 1.7324c-.645.2816-1.321.5016-2.018.6719-.434.5011-.94.9408-1.517 1.2812.826-.0972 1.623-.2809 2.39-.5293.414-.4487.802-.9194 1.145-1.4238zm-3.062 4.1292c-.003.002-.006.004-.008.006.001.034 0 .069.002.103 0-.036.005-.073.006-.109zm-25.733 1.468c-.0007.026 0 .051 0 .077 0 .329.0346.65.0859.964.8098.427 1.7279.687 2.7031.717-.5007-.329-.9418-.735-1.3242-1.191-.5163-.13-1.0103-.318-1.4648-.567zm2.1582 6.122c.1224.376.2914.73.4824 1.07.2217.024.447.039.6758.039.5613 0 1.1046-.074 1.6211-.213-.7373-.146-1.4226-.427-2.0391-.807-.2506-.017-.4979-.044-.7402-.089zm4.5 5.044c-1.8686 1.111-4.0528 1.758-6.3945 1.758-.4969 0-.9873-.03-1.4688-.086.6272.396 1.2848.748 1.9629 1.065 2.6913-.105 5.1635-1.041 7.1481-2.572-.4298-.008-.8434-.074-1.2477-.165z" fill="#fff" opacity=".2" transform="matrix(.999992 0 0 1.000005708 .000048 -.000015543)"/><path d="m30.172 5.4436c-.216.1259-.44.2385-.664.3516-.518.812-1.207 1.5068-2.043 2 .517-.0609 1.022-.1601 1.517-.2813.523-.6027.939-1.2977 1.19-2.0703zm.828 2.3984c-.3712.1621-.75554.29797-1.1445.42383-.58264.63226-1.2225 1.2114-1.9258 1.7109.01188.26003.01758.52247.01758.78516 0 .06918-.0088.13963-.0098.20898 1.199-.853 2.239-1.9168 3.062-3.1292zm-28.711.8281c-.013.1611-.0332.3201-.0332.4844 0 1.4647.53543 2.8033 1.4141 3.8516.4263.107.868.177 1.3242.192-1.5143-.996-2.5428-2.641-2.7051-4.5276zm13.354 1.8529c-.01575.17674-.02734.35439-.02734.53516 0 .12531.01397.24763.02149.37109.0464.0027.09218.0075.13867.0098-.07029-.29684-.109-.60409-.13281-.91602zm12.289.55664c-.161 7.931-6.325 16.92-17.496 16.92-2.676 0-5.2062-.6-7.473-1.658-.1648.006-.3277.021-.4941.021-.4969 0-.98729-.03-1.4688-.086 2.7238 1.72 5.9597 2.723 9.436 2.723 11.321 0 17.512-9.2316 17.512-17.238 0-.22806-.0067-.45562-.01563-.68164zm-25.727 2.359c-.0007143.02526 0 .05062 0 .07617 0 2.1668 1.1607 4.0635 2.8984 5.1348.13825.0094.27698.01953.41797.01953.5613 0 1.1046-.07439 1.6211-.21289-2.5001-.49456-4.4452-2.4826-4.8516-4.9766-.027939-.01473-.058261-.02588-.085936-.04102zm2.1582 6.1211c.65821 2.0227 2.3724 3.5694 4.5 4.0449.43244-.25698.85215-.53051 1.248-.83594-2.2726-.04112-4.234-1.3021-5.2656-3.1387-.16258-.01781-.32339-.04045-.48242-.07031z" opacity=".2"/></svg>