<svg height="32" width="32" xmlns="http://www.w3.org/2000/svg"><ellipse cx="16" cy="16" fill="#ccc" rx="12" ry="10"/><path d="m22.143 4v3c-9.389 0-17.143 7.611-17.143 17 0 5.6431 2.75 10.644 6.9824 13.736 1.9893 1.2887 4.3615-3.0761 2.0391-4.7715-2.468-2.197-4.022-5.399-4.022-8.964 0-6.627 5.515-12 12.143-12v3l10-5.2857z" fill="#9ccd44" transform="matrix(.7 0 0 .7 -1.5 -.8)"/><path d="m37.264 10.029c-1.7552-.0047-3.3173 3.5224-1.2852 5.0059 2.467 2.198 4.021 5.4 4.021 8.965 0 6.627-5.515 12-12.143 12v-3l-10 5.2857 10 5.7143v-3c9.389 0 17.143-7.611 17.143-17 0-5.643-2.75-10.644-6.982-13.736-.249-.161-.504-.234-.754-.235z" fill="#5db43e" transform="matrix(.7 0 0 .7 -1.5 -.8)"/><path d="m20.09 5.4805-6.09 3.2187v1l7-3.6992zm-6.09 1.1191c-4.6392 0-8.5 3.7614-8.5 8.4004 0 .165.018.326.0273.488.2726-4.399 4.0062-7.8884 8.4727-7.8884zm9.086 1.25c-.148.6809-.029 1.416.6 1.875 1.613 1.4364 2.654 3.4894 2.787 5.7874.01-.17.027-.339.027-.512 0-2.495-1.087-4.737-2.814-6.2754-.32-.2335-.507-.5412-.6-.875zm-21.059 7.6114c-.0082.18-.0273.357-.0273.539 0 3.95 1.926 7.451 4.8887 9.615 1.1135.722 2.3926-1.086 2.0312-2.447-.2416 1.072-1.1817 1.998-2.0312 1.447-2.8457-2.079-4.7166-5.395-4.8614-9.154zm27.946.078c-.289 6.32-5.583 11.361-11.973 11.361v1c6.572 0 12-5.328 12-11.9 0-.156-.021-.306-.027-.461zm-18.063 9.981-.91.48 7 4v-1z" opacity=".2" transform="matrix(1.00002 0 0 1.00002 .00003 .9994)"/><path d="m14 2v1l6.089844 3.4804688.910156-.4804688zm0 2.0996094c-6.5723315 0-12 5.3284588-12 11.9003906 0 .156003.0214435.305934.0273438.460938.2891056-6.320127 5.5820279-11.3613286 11.9726562-11.3613286zm10.583984 2.1210937c-.952019-.00252-1.817053 1.4782827-1.498046 2.6289063.187003-.8596175.812033-1.630706 1.498046-1.6289063.176004.0004998.35334.0512624.527344.1640625 2.846057 2.079042 4.716325 5.3952224 4.861328 9.1542964.008001-.180003.027344-.357059.027344-.539062 0-3.950079-1.925613-7.450791-4.888672-9.6152344-.174004-.1128022-.35134-.1635627-.527344-.1640625z" fill="#fff" opacity=".1" transform="matrix(.99999998 0 0 .99999998 -.0000001 -.0000001)"/></svg>