<svg height="32" width="32" xmlns="http://www.w3.org/2000/svg"><rect fill="#ffc35a" height="19.145" rx="1.3" transform="matrix(.70710678 .70710678 -.70710678 .70710678 0 0)" width="19.145" x="13.05" y="-9.57"/><path d="m16 3c-.332 0-.665.1282-.92.3828l-11.697 11.697c-.3854.385-.479.948-.2814 1.42.0636-.152.1571-.296.2812-.42l11.697-11.697c.509-.5095 1.331-.5095 1.84-.0002l11.697 11.697c.124.124.218.268.281.42.198-.472.104-1.035-.281-1.42l-11.697-11.697c-.255-.2548-.588-.383-.92-.383z" fill="#fff" opacity=".2"/><path d="m3.1017 16.501c-.1976.472-.104 1.035.2812 1.42l11.697 11.697c.509.509 1.331.509 1.84 0l11.697-11.697c.385-.385.479-.948.281-1.42-.063.152-.157.296-.281.42l-11.697 11.697c-.509.509-1.331.509-1.84 0l-11.697-11.697c-.1245-.124-.218-.268-.2816-.42z" opacity=".2"/><path d="m16 9.3498v4.1502l-3 2.9908.0091.0091h-.0091v6.5h2v-5.971l1-1.029v7h2v-13.65z" fill="#2e2e2e" stroke-opacity=".55" stroke-width="2.8"/></svg>