<svg height="32" width="32" xmlns="http://www.w3.org/2000/svg"><rect fill="#4f4f4f" height="28" rx="1.4" transform="matrix(0 -1 -1 0 0 0)" width="28" x="-30" y="-30"/><g fill-rule="evenodd"><path d="m14.061 2.9746c-1.894-.0048-3.787-.0047-5.7954.0195-8.2483 9.5229-.0646 15.663 6.8264 17.147-7.2933-4.729-1.356-13.562 4.763-17.162-2.008.0094-3.901.0004-5.794-.0044zm2.884 10.857c6.641 4.306 1.867 12.393-6.062 16.168h14.797c4.657-9.336-2.073-14.734-8.735-16.168zm-2.254.356a3.3903 2.0459 45 0 0 -.101.001 3.3903 2.0459 45 0 0 -.988.401 3.3905 2.046 45 0 0 4.794 4.795 3.3903 2.0459 45 0 0 -3.705-5.197z" opacity=".2"/><path d="m25.161 29.993c5.6438-9.9381-1.3255-15.663-8.2163-17.146 7.2931 4.7288.83358 14.035-8.4696 17.161 4.0175-.01973 12.669.03359 16.686-.01483z" fill="#ff6363"/><path d="m8.2654 2.0074c-8.2484 9.5236-.0644 15.663 6.8266 17.147-7.2933-4.729-1.357-13.561 4.763-17.161-4.017.0193-7.572-.034-11.59.0144z" fill="#ff6363"/></g><path d="m18.397 18.398a3.3903 2.0459 45 0 1 -4.7947-4.7947 3.3903 2.0459 45 1 1 4.7947 4.7947z" fill="#ff6363"/><path d="m3.4004 2c-.7756 0-1.4004.6248-1.4004 1.4004v1c0-.7756.6248-1.4004 1.4004-1.4004h25.2c.775 0 1.4.6248 1.4 1.4004v-1c0-.7756-.625-1.4004-1.4-1.4004z" fill="#fff" opacity=".1"/><path d="m2 28.6v1c0 .775.6248 1.4 1.4004 1.4h25.2c.775 0 1.4-.625 1.4-1.4v-1c0 .775-.625 1.4-1.4 1.4h-25.2c-.7752 0-1.4-.625-1.4-1.4z" opacity=".2"/></svg>