<svg height="32" viewBox="0 0 32 32" width="32" xmlns="http://www.w3.org/2000/svg"><path d="m9 5-1 2v21l1 1v1h14v-1l1-1v-21l-1-2z" opacity=".2"/><path d="m9 4h14l1 2v21l-1 1h-14l-1-1v-21z" fill="#c2352a"/><path d="m9 3h14v1h-14z" fill="#808080"/><path d="m8 6h16v1h-16z" fill="#fff"/><path d="m8 26h16v1h-16z" fill="#fff"/><path d="m9 28h14v1h-14z" fill="#808080"/><path d="m8.9681 6.5197 8.6679 9.1303" fill="none" stroke="#fff"/><path d="m13.5 11.022v7.9777" fill="none" stroke="#fff"/><g fill="#fff"><circle cx="18.5" cy="16.5" r="2.5"/><circle cx="13.5" cy="20.5" r="2.5"/><circle cx="13.5" cy="11.5" r="2.5"/><path d="m9 4-1 2v1l1-2h14l1 2v-1l-1-2z" opacity=".1"/></g></svg>