<svg height="32" width="32" xmlns="http://www.w3.org/2000/svg"><rect fill="#5db43e" height="28" rx="14" transform="matrix(0 -1 -1 0 0 0)" width="28" x="-30" y="-30"/><path d="m16 2c-7.756 0-14 6.244-14 14 0 .169.0195.333.0254.5.2637-7.5206 6.3874-13.5 13.975-13.5 7.5872 0 13.711 5.9794 13.975 13.5.006-.16736.0254-.33116.0254-.5 0-7.756-6.244-14-14-14z" fill="#fff" opacity=".1"/><path d="m21.534 7.9996c-3.555 0-4.2218 5.3423-2.2217 5.3423 2 0 5.777-5.342 2.222-5.342zm-5.476.8219c-.056-.0002057-.11688.00514-.1799.011572-2.0146.25165-1.3055 3.6236-.2331 3.6865 1.0384.06133 2.1745-3.6919.4123-3.6978zm-3.4932 1.2449c-.12325-.0077-.25969.01543-.41159.07689-1.6192.6576-.2457 3.3722.66079 3.1897.82276-.16536.94071-3.1903-.2492-3.2667zm-2.6429 2.2192c-.14074-.0039-.29259.0441-.45499.16371-1.2962.95669.4361 3.2679 1.1987 2.9096.6671-.3139.2415-3.038-.74393-3.0733zm7.6553 2.2064c-2.8083-.04757-6.5131 1.3618-7.145 4.193-.6835 3.064 2.818 7.315 6.47 7.315 1.7969 0 3.8693-1.6241 4.2574-3.6809.2961-1.5682-3.485-.93974-3.3493.09784.1631 1.2439-.91195 1.8588-1.9647 1.0571-3.3509-2.5528 5.5485-3.8267 4.9615-7.3144-.1827-1.0857-1.5448-1.6386-3.2298-1.6671z" opacity=".2"/><path d="m21.534 7c-3.555 0-4.2218 5.3423-2.2217 5.3423 2 0 5.777-5.342 2.222-5.342zm-5.476.8219c-.056-.0002057-.11688.00514-.1799.011572-2.0146.25165-1.3055 3.6236-.2331 3.6865 1.0384.06133 2.1745-3.6919.4123-3.6978zm-3.4932 1.2449c-.12325-.00771-.25969.015429-.41159.076886-1.6192.6576-.2457 3.3722.66079 3.1897.82276-.16536.94071-3.1903-.2492-3.2667zm-2.6429 2.2192c-.14074-.0039-.29259.0441-.45499.16371-1.2962.95669.4361 3.2679 1.1987 2.9096.6671-.3139.2415-3.038-.74393-3.0733zm7.6553 2.2064c-2.8083-.04757-6.5131 1.3618-7.145 4.193-.6835 3.064 2.818 7.315 6.47 7.315 1.7969 0 3.8693-1.6241 4.2574-3.6809.2961-1.5682-3.485-.93974-3.3493.09784.1631 1.2439-.91195 1.8588-1.9647 1.0571-3.3509-2.5528 5.5485-3.8267 4.9615-7.3144-.1827-1.0857-1.5448-1.6386-3.2298-1.6671z" fill="#fff"/><path d="m2.0254 16.5c-.0059.167-.0254.331-.0254.5 0 7.756 6.244 14 14 14s14-6.244 14-14c0-.16884-.01952-.33264-.02539-.5-.264 7.521-6.388 13.5-13.975 13.5-7.5872 0-13.711-5.979-13.975-13.5z" opacity=".2"/></svg>