<svg height="32" width="32" xmlns="http://www.w3.org/2000/svg"><rect height="28" opacity=".2" rx="1.4" transform="matrix(0 -1 -1 0 0 0)" width="28" x="-31" y="-30"/><rect fill="#6688be" height="28" rx="1.4" transform="matrix(0 -1 -1 0 0 0)" width="28" x="-30" y="-30"/><path d="m7 16h14" fill="none" stroke="#5b5b5b" stroke-linejoin="round" stroke-width="2"/><path d="m13.9 16 3.1-7" fill="none" stroke="#5b5b5b" stroke-linejoin="round" stroke-width="2"/><path d="m14 16 3 7h7" fill="none" stroke="#5b5b5b" stroke-linejoin="round" stroke-width="2"/><g opacity=".2"><circle cx="7" cy="17" r="2"/><circle cx="14" cy="17" r="2"/><circle cx="21" cy="17" r="2"/><circle cx="17" cy="24" r="2"/><circle cx="24" cy="24" r="2"/><circle cx="17" cy="10" r="2"/></g><g fill="#fff"><circle cx="7" cy="16" r="2"/><circle cx="14" cy="16" r="2"/><circle cx="21" cy="16" r="2"/><circle cx="17" cy="23" r="2"/><circle cx="24" cy="23" r="2"/><circle cx="17" cy="9" r="2"/><path d="m3.4003906 2c-.7756 0-1.4003906.6247906-1.4003906 1.4003906v1c0-.7756.6247906-1.4003906 1.4003906-1.4003906h25.1992184c.7756 0 1.400391.6247906 1.400391 1.4003906v-1c0-.7756-.624791-1.4003906-1.400391-1.4003906z" opacity=".2"/></g></svg>