<svg height="32" width="32" xmlns="http://www.w3.org/2000/svg"><rect height="8.4" opacity=".2" rx="1.4" transform="matrix(.70710678 -.70710678 .70710678 .70710678 0 0)" width="8.4" x="-4.18" y="6.19"/><rect height="29" opacity=".2" rx="14.5" transform="matrix(0 -1 -1 0 0 0)" width="29" x="-31" y="-31"/><rect fill="#597123" height="8.4" rx="1.4" transform="matrix(.70710678 -.70710678 .70710678 .70710678 0 0)" width="8.4" x="-3.48" y="5.49"/><path d="m7.3613.97852c-.3578 0-.716.13598-.9902.41018l-3.959 3.9609c-.4046.4046-.5088.9901-.3164 1.4902.0684-.1784.1721-.3459.3164-.4902l3.959-3.9609c.5484-.5485 1.432-.5485 1.9805 0l3.9594 3.9609c.144.1443.248.3118.316.4902.192-.5001.088-1.0856-.316-1.4902l-3.9594-3.9609c-.2743-.2742-.6324-.41018-.9903-.41018z" fill="#fff" opacity=".1"/><rect fill="#96ba42" height="29" rx="14.5" transform="matrix(0 -1 -1 0 0 0)" width="29" x="-30" y="-31"/><circle cx="16.5" cy="16.5" opacity=".2" r="10.5"/><circle cx="16.5" cy="15.5" fill="#ccc" r="10.5"/><g opacity=".1" transform="translate(0 1)"><circle cx="16.5" cy="23.5" opacity="1" r="1.5"/><circle cx="16.5" cy="7.5" opacity="1" r="1.5"/><g transform="rotate(90)"><circle cx="15.5" cy="-8.5" opacity="1" r="1.5"/><circle cx="15.5" cy="-24.5" opacity="1" r="1.5"/></g></g><rect fill="#f45246" height="9" rx="1.5" ry="1.286" transform="matrix(.8660254 .5 -.5 .8660254 0 0)" width="3" x="20.57" y="-2.38"/><ellipse cx="16.5" cy="16.5" opacity=".1" rx="2.5" ry="2.5"/><ellipse cx="16.5" cy="15.5" fill="#4d4d4d" rx="2.5" ry="2.5"/><g fill="#4d4d4d"><circle cx="16.5" cy="23.5" r="1.5"/><circle cx="16.5" cy="7.5" r="1.5"/><g transform="rotate(90)"><circle cx="15.5" cy="-8.5" r="1.5"/><circle cx="15.5" cy="-24.5" r="1.5"/></g></g><path d="m16.5 1c-8.033 0-14.5 6.467-14.5 14.5 0 .169.0197.333.0254.5.2641-7.7975 6.6105-14 14.475-14 7.864 0 14.21 6.2025 14.475 14 .005-.167.025-.331.025-.5 0-8.033-6.467-14.5-14.5-14.5z" fill="#fff" opacity=".2"/></svg>