<svg height="32" width="32" xmlns="http://www.w3.org/2000/svg"><rect height="28" opacity=".2" rx="1.438" ry="1.4" transform="matrix(0 -1 -1 0 0 0)" width="23" x="-28" y="-30"/><rect fill="#e2d144" height="28" rx="1.438" ry="1.4" transform="matrix(0 -1 -1 0 0 0)" width="23" x="-27" y="-30"/><path d="m6 4h2v11h-2z" opacity=".5"/><path d="m21 4h2v8h-2z" opacity=".5"/><path d="m9 4h2v5h-2z" opacity=".5"/><path d="m4 17v8h6v-8zm2 2h2v4h-2z" opacity=".5"/><path d="m12 4h2v5h-2z" opacity=".5"/><path d="m15 4h2v5h-2z" opacity=".5"/><path d="m18 4h2v5h-2z" opacity=".5"/><path d="m24 4h2v5h-2z" opacity=".5"/><path d="m3.4003906 4c-.7756 0-1.4003906.641125-1.4003906 1.4375v1c0-.796375.6247906-1.4375 1.4003906-1.4375h25.1992184c.7756 0 1.400391.641125 1.400391 1.4375v-1c0-.796375-.624791-1.4375-1.400391-1.4375z" fill="#fff" opacity=".2"/><path d="m27 4h2v5h-2z" opacity=".5"/></svg>