<svg height="32" width="32" xmlns="http://www.w3.org/2000/svg"><path d="m11.443 3c-.6 0-1.367.6335-1.443 1.4121v10.588h-6l12 12 12-12h-6v-10.588c0-.782-.843-1.412-1.443-1.412h-9.114zm-8.0426 25c-.7756 0-1.4004.669-1.4004 1.5s.6248 1.5 1.4004 1.5h25.2c.775 0 1.4-.669 1.4-1.5s-.625-1.5-1.4-1.5z" opacity=".2"/><path d="m11.443 2c-.6 0-1.367.6335-1.443 1.4121v10.588h-6l12 12 12-12h-6v-10.588c0-.782-.843-1.412-1.443-1.412h-9.114zm-8.0426 25c-.7756 0-1.4004.669-1.4004 1.5s.6248 1.5 1.4004 1.5h25.2c.775 0 1.4-.669 1.4-1.5s-.625-1.5-1.4-1.5z" fill="#5298df"/><path d="m11.443 2c-.6 0-1.367.6335-1.443 1.4121v1c.076-.7786.843-1.4121 1.443-1.4121h9.114c.6 0 1.443.63 1.443 1.4121v-1c0-.7821-.843-1.4121-1.443-1.4121zm-7.443 12 1 1h5v-1zm18 0v1h5l1-1zm-18.6 13c-.7756 0-1.4004.669-1.4004 1.5 0 .177.034.343.0859.5.1924-.582.7039-1 1.3145-1h25.2c.61 0 1.122.418 1.314 1 .052-.157.086-.323.086-.5 0-.831-.625-1.5-1.4-1.5h-12.6z" fill="#fff" opacity=".2"/></svg>