<svg height="32" width="32" xmlns="http://www.w3.org/2000/svg"><path d="m6.377 3.9996c-.7628 0-1.377.5802-1.377 1.3004v23.4c0 .72.6142 1.3 1.377 1.3h19.248c.762 0 1.375-.58 1.375-1.3v-23.4c0-.7198-.613-1.3-1.375-1.3h-19.248z" opacity=".2"/><path d="m6.377 3c-.7628 0-1.377.5802-1.377 1.3004v23.4c0 .72.6142 1.3 1.377 1.3h19.248c.762 0 1.375-.58 1.375-1.3v-23.4c0-.7198-.613-1.3-1.375-1.3h-19.248z" fill="#ccc"/><path d="m6.377 3c-.7628 0-1.377.5806-1.377 1.3008v1c0-.7202.6142-1.3008 1.377-1.3008h19.248c.762 0 1.375.5806 1.375 1.3008v-1c0-.7202-.613-1.3008-1.375-1.3008z" fill="#fff" opacity=".2"/><path d="m6 7v1h8v-1zm0 2v1h4v-1zm0 2v1h5v-1zm0 2v1h2v-1zm0 2v1h5v-1z" opacity=".5"/></svg>