<svg height="32" width="32" xmlns="http://www.w3.org/2000/svg"><rect fill="#ccc" height="20" rx="1.3" ry="1.333" transform="matrix(0 -1 -1 0 0 0)" width="26" x="-29" y="-26"/><path d="m7.334 3c-.7387 0-1.334.5806-1.334 1.3008v1c0-.7202.5953-1.3008 1.334-1.3008h17.332c.739 0 1.334.5806 1.334 1.3008v-1c0-.7202-.595-1.3008-1.334-1.3008z" fill="#fff" opacity=".2"/><path d="m6 27.699v1c0 .72.5953 1.301 1.334 1.301h17.332c.739 0 1.334-.581 1.334-1.301v-1c0 .72-.595 1.301-1.334 1.301h-17.332c-.7387 0-1.334-.581-1.334-1.301z" opacity=".2"/><g fill="#e74c3c"><path d="m19.85-5.76h6.403v6.403h-6.403z" transform="matrix(.6247 .78087 -.6247 .78087 0 0)"/><path d="m9.9042 8.2713h-1.6129l-.2545.7287h-1.0368l1.4816-4h1.2297l1.4817 4h-1.037zm-1.3557-.74213h1.0958l-.5465-1.5915-.5492 1.5914z"/><path d="m12.97-1.44h3.202v3.202h-3.202z" transform="matrix(.6247 .78087 -.6247 .78087 0 0)"/><path d="m22.096 23.729h1.6129l.254-.729h1.037l-1.4816 4h-1.2297l-1.4816-4h1.0368l.25184.72873zm1.3557.74213h-1.0958l.54655 1.5914.54923-1.5914z"/><path d="m-33.14 3.68h3.202v3.202h-3.202z" transform="matrix(-.6247 -.78087 .6247 -.78087 0 0)"/></g></svg>