<svg height="32" viewBox="0 0 32 32" width="32" xmlns="http://www.w3.org/2000/svg"><path d="m16 3a14 14 0 0 0 -14 14 14 14 0 0 0 14 14 14 14 0 0 0 14-14 14 14 0 0 0 -14-14z" opacity=".2"/><path d="m16 2a14 14 0 0 0 -14 14 14 14 0 0 0 14 14 14 14 0 0 0 14-14 14 14 0 0 0 -14-14z" fill="#234780"/><g stroke-linecap="round" stroke-linejoin="round"><path d="m16 6 7 11-7 4-7-4z" opacity=".2" stroke-width="1.320168"/><path d="m16 5 7 11-7 4-7-4z" fill="#63bfd7" stroke-width="1.320168"/><path d="m16 27.5 7-9-7 4-7-4z" opacity=".2" stroke-width="1.234904"/><path d="m16 26.5 7-9-7 4-7-4z" fill="#63bfd7" stroke-width="1.234904"/></g><path d="m16 2a14 14 0 0 0 -14 14 14 14 0 0 0 .0214844.414062 14 14 0 0 1 13.9785156-13.414062 14 14 0 0 1 13.978516 13.585938 14 14 0 0 0 .021484-.585938 14 14 0 0 0 -14-14z" fill="#fff" opacity=".1"/></svg>