<svg height="32" viewBox="0 0 32 32" width="32" xmlns="http://www.w3.org/2000/svg"><circle cx="16" cy="16" fill="#448aff" r="14" stroke-width=".5"/><g fill="#fafafa" stroke-width=".025302"><path d="m13.426742 16.667976h-5.799246c.3238671 4.106534 3.600492 7.383159 7.707026 7.707026v-5.85238c-.920997-.23278-1.649698-.943769-1.90778-1.854646z"/><path d="m15.334522 13.36605v-5.7410513c-4.093883.3238671-7.3629172 3.5802503-7.7044958 7.6690723h5.7764738c.23784-.946299.981722-1.690181 1.928022-1.928021z"/><path d="m18.560542 15.294071h5.811897c-.336518-4.076171-3.587841-7.3274937-7.664012-7.6665421v5.7587621c.910876.258082 1.621866.986783 1.852115 1.90778z"/><path d="m-1.696964 25.148844h3.605517v6.581018h-3.605517z" transform="matrix(.70710678 -.70710678 .70710678 .70710678 0 0)"/></g></svg>