<svg height="32" viewBox="0 0 8.4666667 8.4666667" width="32" xmlns="http://www.w3.org/2000/svg"><g transform="translate(-.000001 -288.53332)"><path d="m.595313 289.45935h7.276043v6.614584h-7.276043z" fill="#3689e6"/><path d="m.746897 289.60971h6.972875v6.313922h-6.972875z" fill="#fafafa"/><path d="m.595313 289.45935h7.276043v1.202652h-7.276043z" fill="#3689e6"/><path d="m3.6552871 290.98072-.051023.60969a1.8187586 1.8187586 0 0 0 -.531547.30743l-.5541535-.26092-.5786962 1.00238.5031306.34942a1.8187586 1.8187586 0 0 0 -.02777.30678 1.8187586 1.8187586 0 0 0 .026485.30808l-.501838.34812.5786961 1.00238.5528611-.26028a1.8187586 1.8187586 0 0 0 .532839.30549l.04973.61164h1.1573915l.051023-.60971a1.8187586 1.8187586 0 0 0 .5315475-.30742l.5541536.26094.5786955-1.0024-.5031295-.3494a1.8187586 1.8187586 0 0 0 .027775-.30679 1.8187586 1.8187586 0 0 0 -.02648-.30808l.5018375-.34813-.5786955-1.00237-.5528616.26027a1.8187586 1.8187586 0 0 0 -.5328395-.30549l-.04973-.61163zm.578696 1.65341a.66136677.66136677 0 0 1 .6613666.66137.66136677.66136677 0 0 1 -.6613666.66137.66136677.66136677 0 0 1 -.661367-.66137.66136677.66136677 0 0 1 .661367-.66137z" fill="#7e8087" stroke-width=".330683"/></g></svg>