<svg height="32" width="32" xmlns="http://www.w3.org/2000/svg" xmlns:xlink="http://www.w3.org/1999/xlink"><clipPath id="a"><path d="m91.5 254c-.831 0-1.5.669-1.5 1.5v25c0 .831.669 1.5 1.5 1.5h16.5l10-10v-16.5c0-.831-.669-1.5-1.5-1.5z"/></clipPath><path d="m28 2s2 0 2 2v24c0 2-2 2-2 2h-16l-10-10v-16c0-2 2-2 2-2z" fill="#303d75"/><path clip-path="url(#a)" d="m118 272h-8.5c-.82843 0-1.5.67158-1.5 1.5v8.5z" opacity=".2" transform="matrix(-1 0 0 1 120 -252)"/><path d="m2 20h8.5c.828 0 1.5.672 1.5 1.5v8.5z" fill="#44559e"/><path d="m10.5 20c.828 0 1.5.672 1.5 1.5v1c0-.828-.672-1.5-1.5-1.5h-7.5l-1-1z" fill="#fff" opacity=".1"/><path d="m2 20 10 10h16.5c.831 0 1.5-.669 1.5-1.5v1c0 .831-.669 1.5-1.5 1.5h-16.5l-10-10z" opacity=".2"/><path d="m16 7.9999999a5 5 0 0 0 -.4375.0214844 4.6666673 4.6666673 0 0 0 -.097656.0117187 5 5 0 0 0 -4.464844 4.966797 5 5 0 0 0 .002.03711 3.5 3.5 0 0 0 -3.002 3.46289 3.5 3.5 0 0 0 .0019531.085938 3.3333338 3.3333338 0 0 0 -.0019531.080078 3.3333338 3.3333338 0 0 0 3.333984 3.333984h.166016 8.5a4.0000005 4.0000005 0 0 0 4-4 4.0000005 4.0000005 0 0 0 -3.080078-3.882812 5 5 0 0 0 -4.240234-4.0644537 4.6666673 4.6666673 0 0 0 -.064454-.0097656 5 5 0 0 0 -.304687-.0273438 4.6666673 4.6666673 0 0 0 -.310547-.015625zm-.0098 2.0019531c.0514.0013.103059.0016.154297.0059a2.0002 2.0002 0 0 0 .04883.0039c.06109.0036.120885.01025.181641.01758a2.0002 2.0002 0 0 0 .0332.0039c1.294249.177691 2.310672 1.153882 2.542969 2.439453a2.0002 2.0002 0 0 0 1.509766 1.591797c.909621.214954 1.532726 1.00331 1.537109 1.9375-.001406 1.126862-.870687 1.998017-1.998012 1.998017h-8.5-.166016c-.760301.000148-1.3341323-.573683-1.333984-1.333984.000077-.0025-.0000915-.0053 0-.0078a2.0002 2.0002 0 0 0 0-.142578c-.000181-.0052.000128-.01046 0-.01563.000324-.760541.534308-1.374198 1.287109-1.482422a2.0002 2.0002 0 0 0 1.712891-2.015633c.0014-1.548232 1.140347-2.81476 2.679688-2.980469a2.0002 2.0002 0 0 0 .04492-.0059c.0079-.001.01549-.00099.02344-.002.08074-.0075.161108-.01076.242187-.01172z" opacity=".2"/><path d="m16 7a5 5 0 0 0 -.4375.0214844 4.6666673 4.6666673 0 0 0 -.097656.0117187 5 5 0 0 0 -4.464844 4.9667969 5 5 0 0 0 .001953.037109 3.5 3.5 0 0 0 -3.001953 3.462891 3.5 3.5 0 0 0 .0019531.085938 3.3333338 3.3333338 0 0 0 -.0019531.080078 3.3333338 3.3333338 0 0 0 3.333984 3.333984h.166016 8.5a4.0000005 4.0000005 0 0 0 4-4 4.0000005 4.0000005 0 0 0 -3.080078-3.882812 5 5 0 0 0 -4.240234-4.0644536 4.6666673 4.6666673 0 0 0 -.064454-.0097656 5 5 0 0 0 -.304687-.0273438 4.6666673 4.6666673 0 0 0 -.310547-.015625zm-.009766 2.0019531c.0514.00132.103059.0015694.154297.0058594a2.0002 2.0002 0 0 0 .048828.0039063c.06109.0036.120885.0102461.181641.0175781a2.0002 2.0002 0 0 0 .033203.0039062c1.294249.1776912 2.310672 1.1538819 2.542969 2.4394529a2.0002 2.0002 0 0 0 1.509766 1.591797c.909621.214954 1.532726 1.00331 1.537109 1.9375-.001441 1.126892-.870722 1.998047-1.998047 1.998047h-8.5-.166016c-.760301.000148-1.3341323-.573683-1.333984-1.333984.000077-.0025-.0000915-.005313 0-.007813a2.0002 2.0002 0 0 0 0-.142578c-.000181-.0052.000128-.010455 0-.015625.000324-.760541.534308-1.374198 1.287109-1.482422a2.0002 2.0002 0 0 0 1.712891-2.015625c.0014-1.548232 1.140347-2.81476 2.679688-2.9804686a2.0002 2.0002 0 0 0 .044921-.0058594c.0079-.00104.015488-.0009898.023438-.0019531.08074-.00752.161108-.0107608.242187-.0117188z" fill="#5d8cb9"/><path d="m4 2s-2 0-2 2v1c0-2 2-2 2-2h24s2 0 2 2v-1c0-2-2-2-2-2z" fill="#fff" opacity=".1"/></svg>