<svg height="32" viewBox="0 0 32 32" width="32" xmlns="http://www.w3.org/2000/svg"><circle cx="16" cy="17" opacity=".2" r="14"/><circle cx="16" cy="16" fill="#caa17d" r="14"/><path d="m13 20v6.666667c0 .738666.446 1.333333 1 1.333333h1c.554 0 1-.594667 1-1.333333v-6.666667z" opacity=".2"/><path d="m13 6.0000004s7 3.8712786 7 13.9999996h-7z" opacity=".2"/><path d="m13 19v6.666667c0 .738666.446 1.333333 1 1.333333h1c.554 0 1-.594667 1-1.333333v-6.666667z" fill="#855629"/><circle cx="14.5" cy="25.5" opacity=".2" r=".5"/><circle cx="14.5" cy="22.5" opacity=".2" r=".5"/><g fill="#ccc"><path d="m13 5.0000004s7 3.8712786 7 13.9999996h-7z"/><circle cx="14.5" cy="21.5" r=".5"/><circle cx="14.5" cy="24.5" r=".5"/></g><circle cx="26" cy="26" opacity=".2" r="6"/><circle cx="26" cy="25" fill="#e74c3c" r="6"/><path d="m24.666666 19.333667v.824219a5.9999998 5.9999998 0 0 0 -4.010416 3.127604c.45015-.07879 1.380817-.313213 2.78776-1.080729.5586-.3048 1.038755-.574738 1.222656-.871094-1.594761 2 .134734 2.293293 1 3.333333 0 0 2.027499-1.333333.333333-3.333333 2 .973774 4 .666667 4 .666667s.01085-.19606-.0026-.466146a5.9999998 5.9999998 0 0 0 -3.9974-1.533854v-.666667z" fill-rule="evenodd" opacity=".1"/><path d="m24.666666 18.333333v.824219a5.9999998 5.9999998 0 0 0 -4.010416 3.127604c.45015-.07879 1.380817-.313213 2.78776-1.080729.5586-.3048 1.038755-.574738 1.222656-.871094-1.594761 2 .134734 2.293293 1 3.333333 0 0 2.027499-1.333333.333333-3.333333 2 .973774 4 .666667 4 .666667s.01085-.19606-.0026-.466146a5.9999998 5.9999998 0 0 0 -3.9974-1.533854v-.666667z" fill="#a6ef4d" fill-rule="evenodd"/><path d="m16 2a14 14 0 0 0 -14 14 14 14 0 0 0 .0214844.585938 14 14 0 0 1 13.9785156-13.585938 14 14 0 0 1 13.978516 13.414062 14 14 0 0 0 .021484-.414062 14 14 0 0 0 -14-14z" fill="#fff" opacity=".2"/></svg>