<svg height="32" width="32" xmlns="http://www.w3.org/2000/svg"><path d="m22.963 3.939c-3.34-1.9289-7.583-.7921-9.512 2.5488-3.341-1.9289-7.5831-.7921-9.512 2.5488-1.9289 3.3404-.7921 7.5834 2.5488 9.5124-1.9289 3.3409-.79211 7.5833 2.5488 9.5122s7.5833.79211 9.5122-2.5488c3.3409 1.9289 7.5833.79211 9.5122-2.5488s.79211-7.5833-2.5488-9.5122c1.9289-3.3409.79211-7.5833-2.5488-9.5122z" fill="#c36591"/><path d="m26.428 10.434c-.06973 1.0292-.36357 2.0607-.91602 3.0176.12967.07487.25007.16054.37305.24219.45197-1.0561.6268-2.1715.54297-3.2598zm-23.405 2.6189c-.16429 2.4249.95377 4.8344 3.0918 6.2539.1096-.25609.23015-.51031.37305-.75781-2.0732-1.197-3.2951-3.285-3.4648-5.496zm25.953 6.8945c-.06973 1.0292-.36357 2.0588-.91602 3.0156-1.9289 3.3409-6.1708 4.4777-9.5117 2.5488-1.9289 3.3409-6.1708 4.4777-9.5117 2.5488-2.0727-1.1967-3.2946-3.2842-3.4648-5.4941-.17374 2.5643 1.0808 5.1177 3.4648 6.4941 3.3409 1.9289 7.5829.79207 9.5117-2.5488 3.3409 1.9289 7.5829.79207 9.5117-2.5488.73184-1.2676 1.0198-2.6641.91602-4.0156z" opacity=".2"/><path d="m19.666 3.002c-2.468-.0667-4.889 1.1894-6.215 3.4863-3.341-1.9289-7.5827-.7921-9.5115 2.5488-.7319 1.2679-1.0198 2.6639-.9161 4.0159.0698-1.03.3636-2.059.9161-3.016 1.9288-3.3408 6.1705-4.4776 9.5115-2.5487 1.929-3.3409 6.171-4.4777 9.512-2.5488 2.073 1.1966 3.294 3.2842 3.465 5.4945.173-2.5647-1.081-5.1181-3.465-6.4945-1.044-.6028-2.175-.9072-3.297-.9375zm6.219 10.691c-.11.256-.23.511-.373.758 2.073 1.197 3.295 3.286 3.465 5.496.164-2.425-.954-4.834-3.092-6.254zm-19.77 5.614c-.4519 1.056-.6268 2.171-.5429 3.259.0697-1.029.3635-2.06.916-3.017-.1297-.075-.2501-.161-.3731-.242z" fill="#fff" opacity=".2"/><path d="m16 4c-3.324 0-6 2.676-6 6-3.324 0-6 2.676-6 6s2.676 6 6 6c0 3.324 2.676 6 6 6s6-2.676 6-6c3.324 0 6-2.676 6-6s-2.676-6-6-6c0-3.324-2.676-6-6-6z" fill="#cf87a8" transform="matrix(.26324 .98241 -.98241 .26324 27.507 -3.9304)"/><path d="m16 11.5a3 3 0 0 0 -2.732 1.768 3 3 0 0 0 -1.768 2.732 3 3 0 0 0 1.768 2.732 3 3 0 0 0 2.732 1.768 3 3 0 0 0 2.732-1.768 3 3 0 0 0 1.768-2.732 3 3 0 0 0 -1.768-2.732 3 3 0 0 0 -2.732-1.768z" fill="#e2b7cb" transform="matrix(.80604 .46537 -.46537 .80604 10.549255 -4.34256)"/><path d="m14.668 4.0039c-.6-.0232-1.214.043-1.826.207-2.9046.7783-4.7436 3.5023-4.5002 6.3931.202-2.4985 1.9342-4.7054 4.5002-5.3931 3.265-.875 6.597 1.049 7.472 4.3145 3.266-.875 6.6 1.0506 7.475 4.3166.097.362.154.725.184 1.086.056-.683.004-1.385-.184-2.086-.875-3.2657-4.209-5.1916-7.475-4.3166-.71-2.6533-3.044-4.4211-5.646-4.5215zm-6.3106 7.7361c-2.8037.838-4.5665 3.501-4.3301 6.332.2043-2.495 1.9339-4.699 4.4981-5.386-.0845-.316-.1344-.631-.168-.946zm15.286 9.52c-.057.017-.111.039-.168.054.096.362.153.723.183 1.082.03-.373.025-.753-.015-1.136z" fill="#fff" opacity=".2" transform="matrix(1.0000037404 -.000000596 .000000596 1.0000037404 .000079756 .000090049)"/><path d="m16.764 12a2.7922 2.7922 0 0 0 -1.696.525 2.7922 2.7922 0 0 0 -2.695 1.381 2.7922 2.7922 0 0 0 -.326 1.905 2.7922 2.7922 0 0 1 .326-.905 2.7922 2.7922 0 0 1 2.695-1.381 2.7922 2.7922 0 0 1 3.026-.152 2.7922 2.7922 0 0 1 1.381 2.695 2.7922 2.7922 0 0 1 .478 1.121 2.7922 2.7922 0 0 0 -.478-2.121 2.7922 2.7922 0 0 0 -1.381-2.695 2.7922 2.7922 0 0 0 -1.33-.373z" fill="#fff" opacity=".2" transform="matrix(.9999974565 .0000000755 -.0000000755 .9999974565 .000019398 -.000002061)"/><path d="m8.3418 10.604c-.03023.37377-.025294.75397.015625 1.1367.056777-.01696.11035-.03925.16797-.05469-.0968-.361-.1533-.7223-.1836-1.0816zm19.631 4.3246c-.2043 2.4956-1.9338 4.6996-4.498 5.3867.08448.3153.13437.63102.16797.94531 2.8038-.83733 4.5665-3.5007 4.3301-6.332zm-23.946 3.144c-.055874.68254-.00432 1.3846.18359 2.0859.875 3.2655 4.2091 5.1914 7.4746 4.3164.875 3.2655 4.2071 5.1895 7.4727 4.3145 2.9044-.77824 4.7434-3.5023 4.5-6.3926-.20203 2.4981-1.9337 4.705-4.5 5.3926-3.2655.875-6.5977-1.0489-7.4727-4.3145-3.266.875-6.6001-1.05-7.4751-4.316-.0971-.362-.1534-.725-.1836-1.086z" opacity=".2"/><path d="m12.047 15.811a2.7922 2.7922 0 0 0 .47852 2.1211 2.7922 2.7922 0 0 0 1.3809 2.6953 2.7922 2.7922 0 0 0 3.0254-.15234 2.7922 2.7922 0 0 0 2.6953-1.3809 2.7922 2.7922 0 0 0 .32617-1.9043 2.7922 2.7922 0 0 1 -.32617.9043 2.7922 2.7922 0 0 1 -2.6953 1.3809 2.7922 2.7922 0 0 1 -3.0254.15234 2.7922 2.7922 0 0 1 -1.3809-2.6953 2.7922 2.7922 0 0 1 -.479-1.121z" opacity=".2" transform="matrix(.9999974565 .0000000755 -.0000000755 .9999974565 .000041495 -.000619045)"/></svg>