<svg height="32" width="32" xmlns="http://www.w3.org/2000/svg"><rect fill="#81d547" height="26" rx="1.3" transform="matrix(0 -1 -1 0 0 0)" width="26" x="-29" y="-29"/><path d="m16.017 9.0001c1.7532.0037 3.531.52833 4.9196 1.5668.97624 1.0798-.88389 2.2362-1.7217 1.1833-2.522-1.4652-6.0788-.94934-7.9763 1.2413-1.0095 1.0871-1.5784 2.5377-1.5717 3.994h1.6667c-.8892 1.28-1.778 2.56-2.6669 3.84l-2.6667-3.84h1.6667c-.053013-3.4772 2.5514-6.7845 6.048-7.6851.7502-.19742 1.5231-.308 2.302-.30025zm7.3167 4.1607c.888 1.28 1.777 2.561 2.666 3.841h-1.6667c.04725 3.5187-2.6237 6.8634-6.1816 7.7164-2.4008.64371-5.1155.174-7.0886-1.2988-1.0067-1.0978.87926-2.2431 1.7248-1.1806 2.4435 1.4235 5.8653.97198 7.7941-1.0611 1.117-1.105 1.7598-2.6358 1.7513-4.176h-1.6667l2.6667-3.8406z" opacity=".2"/><path d="m16.017 8.0004c1.7532.0037 3.531.52833 4.9196 1.5668.97624 1.0798-.88389 2.2362-1.7217 1.1833-2.522-1.4652-6.0788-.94934-7.9763 1.2413-1.0095 1.0871-1.5784 2.5377-1.5717 3.994h1.6667c-.8892 1.28-1.778 2.56-2.6669 3.84l-2.6667-3.84h1.6667c-.053013-3.4772 2.5514-6.7845 6.048-7.6851.7502-.19742 1.5231-.308 2.302-.30025zm7.3167 4.1607c.888 1.28 1.777 2.561 2.666 3.841h-1.6667c.04725 3.5187-2.6237 6.8634-6.1816 7.7164-2.4008.64371-5.1155.174-7.0886-1.2988-1.0067-1.0978.87926-2.2431 1.7248-1.1806 2.4435 1.4235 5.8653.97198 7.7941-1.0611 1.117-1.105 1.7598-2.6358 1.7513-4.176h-1.6667l2.6667-3.8406z" fill="#fff"/><path d="m3.0001 27.699v1c0 .72.5806 1.301 1.3008 1.301h23.398c.72 0 1.301-.581 1.301-1.301v-1c0 .72-.581 1.301-1.301 1.301h-23.398c-.7204 0-1.301-.581-1.301-1.301z" opacity=".2"/><path d="m4.3009 3c-.7202 0-1.3008.5806-1.3008 1.3008v1c0-.7202.5806-1.3008 1.3008-1.3008h23.398c.72 0 1.301.5806 1.301 1.3008v-1c0-.7202-.581-1.3008-1.301-1.3008z" fill="#fff" opacity=".2"/><circle cx="24" cy="23" fill="#8561c5" r="8"/><path d="m28 18-6 1v5.2695a2 2 0 0 0 -1-.27 2 2 0 0 0 -2 2 2 2 0 0 0 2 2 2 2 0 0 0 2-2v-5.166l4-.66797v3.1035a2 2 0 0 0 -1-.27 2 2 0 0 0 -2 2 2 2 0 0 0 2 2 2 2 0 0 0 2-2v-7z" fill="#fff"/><path d="m31.979 23.424a8 8 0 0 1 -7.979 7.576 8 8 0 0 1 -7.979-7.424 8 8 0 0 0 -.021.424 8 8 0 0 0 8 8 8 8 0 0 0 8-8 8 8 0 0 0 -.02148-.57617z" opacity=".2"/></svg>