<svg height="32" width="32" xmlns="http://www.w3.org/2000/svg"><rect fill="#ccc" height="28" rx="1.5" transform="matrix(0 -1 -1 0 0 0)" width="28" x="-30" y="-30"/><path d="m3.5 2c-.831 0-1.5.669-1.5 1.5v1c0-.831.669-1.5 1.5-1.5h25c.831 0 1.5.669 1.5 1.5v-1c0-.831-.669-1.5-1.5-1.5z" fill="#fff" opacity=".1"/><path d="m2 28.5v1c0 .831.669 1.5 1.5 1.5h25c.831 0 1.5-.669 1.5-1.5v-1c0 .831-.669 1.5-1.5 1.5h-25c-.831 0-1.5-.669-1.5-1.5z" opacity=".2"/><path d="m11.667 12.333c-1.473 0-2.667 1.194-2.667 2.667 0 1.4728 1.1939 2.6667 2.6667 2.6667s2.6667-1.1939 2.6667-2.6667h-2.6667z" fill="#f00" opacity=".5" visibility="hidden"/><path d="m15.667 13v1h6.6667v-1z" opacity=".5" visibility="hidden"/><path d="m15.667 16v1h6.6667v-1z" opacity=".5" visibility="hidden"/><path d="m9.6667 19v1h10v-1z" opacity=".5" visibility="hidden"/></svg>