<svg height="32" width="32" xmlns="http://www.w3.org/2000/svg"><rect fill="#63c4ad" height="28" rx="1.4" transform="matrix(0 -1 -1 0 0 0)" width="28" x="-30" y="-30"/><path d="m11 11v1h1.555l-2.389 5.094a2.5 2.5 0 0 0 -.666-.094 2.5 2.5 0 0 0 -2.5 2.5 2.5 2.5 0 0 0 2.5 2.5 2.5 2.5 0 0 0 2.5-2.5 2.5 2.5 0 0 0 -.943-1.953l2.601-5.547h3.342v6.055a2.5 2.5 0 0 0 -2 2.445 2.5 2.5 0 0 0 2.5 2.5 2.5 2.5 0 0 0 2.5-2.5 2.5 2.5 0 0 0 -2-2.449v-6.051h4v6.055a2.5 2.5 0 0 0 -2 2.445 2.5 2.5 0 0 0 2.5 2.5 2.5 2.5 0 0 0 2.5-2.5 2.5 2.5 0 0 0 -2-2.449v-6.051h2v-1z" opacity=".2"/><path d="m3.4004 2c-.7756 0-1.4004.6248-1.4004 1.4004v1c0-.7756.6248-1.4004 1.4004-1.4004h25.2c.775 0 1.4.6248 1.4 1.4004v-1c0-.7756-.625-1.4004-1.4-1.4004z" fill="#fff" opacity=".2"/><path d="m2 28.6v1c0 .775.6248 1.4 1.4004 1.4h25.2c.775 0 1.4-.625 1.4-1.4v-1c0 .775-.625 1.4-1.4 1.4h-25.2c-.7752 0-1.4-.625-1.4-1.4z" opacity=".2"/><path d="m11 10v1h1.555l-2.389 5.094a2.5 2.5 0 0 0 -.666-.094 2.5 2.5 0 0 0 -2.5 2.5 2.5 2.5 0 0 0 2.5 2.5 2.5 2.5 0 0 0 2.5-2.5 2.5 2.5 0 0 0 -.943-1.953l2.601-5.547h3.342v6.055a2.5 2.5 0 0 0 -2 2.445 2.5 2.5 0 0 0 2.5 2.5 2.5 2.5 0 0 0 2.5-2.5 2.5 2.5 0 0 0 -2-2.449v-6.051h4v6.055a2.5 2.5 0 0 0 -2 2.445 2.5 2.5 0 0 0 2.5 2.5 2.5 2.5 0 0 0 2.5-2.5 2.5 2.5 0 0 0 -2-2.449v-6.051h2v-1z" fill="#fff"/></svg>