<svg height="32" viewBox="0 0 8.47 8.47" width="32" xmlns="http://www.w3.org/2000/svg"><path d="m4.2437011.79379135c-.025688-.00072801-.050503.00866-.068287.0258275-.2565882.24776455-.5173708.52576455-.7530606.79037525-.000274.0003321-.0005444.0006667-.0008112.001-.5807981.670252-1.0222549 1.3589308-1.3421777 2.0963026-.2980187.6868864-.4722618 1.2811049-.6308472 2.146701-.0347284.1895514-.0698213.4192398-.0940318.6040654-.012105.092413-.021505.1734892-.026828.2334514-.00266.029981-.00421.054581-.00461.074471-.0001968.0099-.000228.01824.0008112.028581.0005207.0052.00101.01069.00379.02006.00279.0094.0005122.028391.041189.051651.02195.01255.024904.01007.03035.01128.00544.0012.00966.0021.014091.0028.00886.0013.018259.0022.028995.0033.021474.0021.048063.0041.076146.0055.2226836.01128.5510624.063641.7687773.1226185.1469821.039811.2437506.072751.387234.1316446.033149.01361.063549.026051.086172.035101.011313.0045.020599.0081.027641.01078.00331.0013.00625.0022.00893.0032.0001691.000065.0003729.00019.000542.0002511.0000433.000016.0002237-.000024.0002704 0 .0000954.000033.000176.000216.0002706.00025.00101.000485.00206.00091.00379.0017-.0001032-.00022-.0004708-.000629-.0008112-.00077.0005098.000175.000715.000292.00136.000501.00114.000378.00239.00098.00515.0017.00109.000301.00192.00084.00325.0015-.000639-.0001371-.00304-.0001021-.00352-.0002491.00636.0031.013907.0071.024118.01229.024287.01236.057656.029481.094031.048401.3513838.1827367.6141647.3711776 1.0337984.7432341.055287.049011.1068042.093482.1457885.1263806.019492.01645.03568.029981.048506.040121.00641.005.011833.0092.017613.01329.00289.002.00569.0041.010568.007.00245.0014.00544.0031.010839.0055.0054.0024.010781.0071.035769.0083.029937.0013.036149-.0047.042273-.0073.00613-.0025.00927-.0043.011923-.0057.0053-.003.00829-.0051.011381-.0073.00618-.0043.011764-.0086.018698-.01404.013868-.01079.031579-.025421.052841-.043131.042513-.035379.098768-.08349.1593281-.1366243.3471289-.3045902.5151603-.4333469.7568546-.5817469.5278187-.3240846.99816-.4679335 1.7201971-.5243267l.058533-.0045c.047052-.0036.083233-.040061.083192-.083752v-.031831c.0000007-.066391-.017071-.2035138-.040102-.3733725-.0230087-.1697822-.052468-.3631143-.0791016-.5099563-.1583981-.8733787-.3384829-1.4885078-.640332-2.184063-.271924-.6265986-.6612205-1.2595567-1.1264743-1.8325068-.00104-.00129-.00213-.00253-.00325-.00377-.3131715-.3430308-.6160988-.7030761-.9465438-1.03685729-.016535-.01676904-.0397029-.02662934-.0642228-.02733216z" opacity=".2" stroke-width=".008342"/><path d="m4.2437011.52920602c-.025688-.00072801-.050503.00866-.068287.0258275-.2565882.24776459-.5173708.52576458-.7530606.79037528-.000274.0003321-.0005444.0006667-.0008112.001-.5807981.670252-1.0222549 1.3589308-1.3421777 2.0963026-.2980187.6868864-.4722618 1.2811049-.6308472 2.146701-.0347284.1895514-.0698213.4192398-.0940318.6040654-.0121048.0924128-.0215045.1734892-.0268276.2334514-.00266.029981-.00421.054581-.00461.074471-.0001968.0099-.000228.01824.0008112.028581.0005207.0052.00101.01069.00379.02006.00279.0094.0005122.028391.041189.051651.02195.01255.024904.01007.03035.01128.00544.0012.00966.0021.014091.0028.00886.0013.018259.0022.028995.0033.021474.0021.048063.0041.076146.0055.2226836.01128.5510624.063641.7687773.1226185.1469821.039811.2437506.072751.387234.1316446.033149.01361.063549.026051.086172.035101.011313.0045.020599.0081.027641.01078.00331.0013.00625.0022.00893.0032.0001691.000065.0003729.00019.000542.0002511.0000433.000016.0002237-.000024.0002704 0 .0000954.000033.000176.000216.0002706.00025.00101.000485.00206.00091.00379.0017-.0001032-.00022-.0004708-.000629-.0008112-.00077.0005098.000175.000715.000292.00136.000501.00114.000378.00239.00098.00515.0017.00109.000301.00192.00084.00325.0015-.000639-.0001371-.00304-.0001021-.00352-.0002491.00636.0031.013907.0071.024118.01229.024287.01236.057656.029481.094031.048401.3513838.1827367.6141647.3711776 1.0337984.7432341.055287.049011.1068042.093482.1457885.1263806.019492.01645.03568.029981.048506.040121.00641.005.011833.0092.017613.01329.00289.002.00569.0041.010568.007.00245.0014.00544.0031.010839.0055.0054.0024.010781.0071.035769.0083.029937.0013.036149-.0047.042273-.0073.00613-.0025.00927-.0043.011923-.0057.0053-.003.00829-.0051.011381-.0073.00618-.0043.011764-.0086.018698-.01404.013868-.01079.031579-.025421.052841-.043131.042513-.035379.098768-.08349.1593281-.1366243.3471285-.3045902.5151599-.4333469.7568542-.5817469.5278187-.3240846.99816-.4679335 1.7201971-.5243267l.058533-.0045c.047052-.0036.083233-.040061.083192-.083752v-.031831c.0000007-.066391-.017071-.2035138-.040102-.3733725-.0230087-.1697822-.052468-.3631143-.0791016-.5099563-.1583981-.8733787-.3384829-1.4885078-.640332-2.184063-.271924-.6265986-.6612205-1.2595567-1.1264743-1.8325068-.00104-.00129-.00213-.00253-.00325-.00377-.3131715-.3430308-.6160988-.70307611-.9465438-1.03685732-.016535-.01676904-.0397029-.02662934-.0642228-.02733216z" fill="#0278dc" stroke-width=".008342"/><path d="m4.2436482.53097352c-.025688-.00072801-.050429.00888-.068212.0260455-.2172885.20981541-.4346868.44072282-.6402049.66741108l.7002456 4.0558346.69314-4.0493233c-.202235-.2276382-.4055213-.45516069-.6206642-.67247562-.0165349-.01676904-.0397847-.02678954-.0643045-.02749226zm-.0081713 4.74929118 2.1298686-1.8756245c-.1460872-.329463-.3263625-.6592823-.5311349-.9817638zm0 0 2.6354238-.3787423c-.0648342-.2679722-.1381439-.5183971-.2209806-.7618254zm0 0 2.8173241 1.3351841.00781-.000723c.047052-.0036.083175-.040231.083134-.083922v-.02749c.0000008-.066181-.017115-.2025521-.040146-.3718693-.0116-.085255-.026114-.1678956-.03979-.2561122l-.0511521-.1881054zm0 0 1.0324267 1.8582607.055778-.01953c.1959888-.1174168.3860637-.2101886.5844255-.2828811zm0 0-.4369873 2.3209272c.052938.045111.102598.085732.1609393.1374618.055286.049011.106678.093352.1456624.1262466.019492.01645.035848.030021.048672.040151.00641.005.011629.0093.017409.01338.00289.002.00578.004.010658.0069.0006185.000352.00211.001.00284.0014l.050805.009.1442414-.086452c.040881-.034231.090169-.075691.145307-.1240765.05324-.046721.082528-.067931.1282541-.1070752zm0 0-1.6569988 1.5638047c.031499.01197.060111.02184.095924.036541.033149.01361.063708.026031.086332.035091.011313.0045.020315.0081.027356.01085.00331.0013.00654.0023.00923.0033 0 0 .0003552.000362.0003552.000362h.0003554.0003551c.00101.000485.00181.000969.00356.0018-.0001031-.000221-.0003701-.000583-.0007105-.000724.0005099.000175.0007818.000153.00143.000362.00114.000377.00221.001.00497.0018.00109.0003.00223.000817.00356.0014-.0006392-.000138-.00307.000147-.00356 0 .00636.0031.013948.0071.024159.0123.024288.01236.057418.029191.093793.048111.093516.048631.1808638.098412.2664556.1512081zm0 0-2.7945867.3671667c-.0319.1790822-.064084.3841578-.086332.5534629-.012105.092118-.021677.1728285-.027001.2325998-.00261.029301-.00419.053081-.00462.072711-.0000086.0003891.0000076.0011 0 .0014-.0001067.0081.0001841.01546.00107.024241.0005206.0052.0007683.01052.00356.01989.00278.0094.0005346.028461.041212.051731.021951.01255.025108.01.030553.01121.00544.0012.00943.0022.013856.0029.00886.0013.018396.0022.029133.0033.021474.0021.047946.004.076029.0054.040699.0021.087854.0066.1342936.01121zm0 0-2.4172856-1.1405677c-.0795247.2330866-.1500807.4732477-.2128092.7296306zm0 0-1.59376-2.8736666c-.1935053.3029265-.3611998.6128677-.5066209.9311201z" fill="#48a0f8" fill-rule="evenodd"/><path d="m16.039062 2c-.097088-.0027515-.190597.0327712-.257812.0976562-.969782.9364331-1.954907 1.9881779-2.845703 2.9882813-.001036.0012552-.002898.0006934-.003906.0019531-2.195143 2.5332359-3.863109 5.1369114-5.072266 7.9238284-1.1263699 2.596106-1.7853877 4.841737-2.3847656 8.113281-.131257.716415-.2639645 1.58465-.3554688 2.283203-.0457504.349277-.0814437.656184-.1015625.882813-.0100535.113314-.0160663.206075-.0175781.28125-.0007438.037417-.0000214.068337.0039062.107422.001968.019653.0031648.040757.0136719.076171.0062704.021126.0198941.057078.0507813.09961.0172546-.150135.0276059-.270339.0507812-.447266.0915043-.698553.2242118-1.566788.3554688-2.283203.5993779-3.271544 1.2583957-5.517175 2.3847656-8.113281 1.209157-2.786917 2.877123-5.3905925 5.072266-7.9238284.001008-.0012597.00287-.0006979.003906-.0019531.890796-1.0001034 1.875921-2.0518483 2.845703-2.9882813.067215-.064885.160724-.1004077.257812-.0976562.092674.0026563.179694.0401366.242188.1035156 1.248926 1.2615352 2.394485 2.6214744 3.578125 3.9179688.004233.0046866.007788.0107494.011719.015625 1.758439 2.1654807 3.230068 4.5575346 4.257812 6.9257816 1.140847 2.62887 1.821252 4.952947 2.419922 8.253906.100663.554993.211866 1.286038.298828 1.927734.043821.323187.049126.468784.076172.710938.040963-.052472.076237-.110492.076172-.179688v-.11914c.000003-.250927-.065297-.770124-.152344-1.41211-.086962-.641696-.198165-1.372741-.298828-1.927734-.59867-3.300959-1.279075-5.625036-2.419922-8.253906-1.027744-2.368247-2.499373-4.7603009-4.257812-6.9257816-.003931-.0048756-.007486-.0109384-.011719-.015625-1.18364-1.2964944-2.329199-2.6564335-3.578125-3.9179688-.062494-.063379-.149514-.1008593-.242188-.1035156z" fill="#fff" opacity=".2" stroke-width=".031527" transform="scale(.26458333)"/></svg>