<svg height="32" width="32" xmlns="http://www.w3.org/2000/svg" xmlns:xlink="http://www.w3.org/1999/xlink"><filter id="a" color-interpolation-filters="sRGB" height="1.0276" width="1.021231" x="-.010615" y="-.0138"><feGaussianBlur stdDeviation=".17844827"/></filter><g stroke-width="3.545621" transform="matrix(.40624998 0 0 .40909091 -31.300414 -.905484)"><path d="m87.877948 3.4356272v3.9285715h-9.6v3.9285713 43.214286c0 2.176428 1.4272 3.928571 3.2 3.928571h25.600002c1.7728 0 3.2-1.752143 3.2-3.928571v-43.214286-3.9285713h-9.6v-3.9285715z" fill="#f9c440"/><path d="m78.277948 23.078484v31.428572c0 2.176428 1.4272 3.928571 3.2 3.928571h25.600002c1.7728 0 3.2-1.752143 3.2-3.928571v-31.428572z" fill="#0e141f"/></g><rect fill="#1a1a1a" height="22.5" rx=".969828" stroke-width=".387931" transform="matrix(0 -1 -1 0 0 0)" width="2.715517" x="-30.5" y="-31.5"/><rect filter="url(#a)" height="31.034483" opacity=".2" rx="1.939655" stroke-width=".775862" transform="scale(.5)" width="40.344826" x="20.327579" y="26.310516"/><g stroke-width=".387931"><rect fill="#1a1a1a" height="15.517241" rx=".969828" width="20.172413" x="10.16379" y="12.655172"/><path d="m11.715514 14.206897h17.068966v12.413794h-17.068966z" fill="#3689e6"/><path d="m11.133618 12.655173c-.537284 0-.969827.432543-.969827.969827v.387931c0-.537284.432543-.969827.969827-.969827h18.232759c.535344 0 .969827.432543.969827.969827v-.387931c0-.537284-.434483-.969827-.969827-.969827z" fill="#7e8087" opacity=".2"/></g></svg>