<svg height="32" width="32" xmlns="http://www.w3.org/2000/svg"><path d="m4 30 4.2353-4.2h17.647c1.174 0 2.118-.937 2.118-2.1v-19.6c0-1.1634-.944-2.1-2.118-2.1h-19.764c-1.1735 0-2.118.9366-2.118 2.1v25.9z" fill="#7d529d"/><path d="m17.374 6.9998c-.35138 0-.64296.28065-.64631.62074-.0021.34164.2896.62893.64347.63069 1.5272.011469 2.7829.49414 3.7954 1.446 1.0006.94303 1.5222 2.2496 1.5355 3.9546v.0015c.0036.33917.29543.61929.64773.61929.000037 0 .0067-.0014.0071-.0015.35309-.0032.64632-.28793.64346-.62927v-.0015c-.008-.995-.17-1.909-.486-2.713-.32-.8125-.806-1.5313-1.44-2.1293-1.253-1.1781-2.853-1.7867-4.695-1.7997h-.0057zm-6.5596 1.4702c-.2464-.041884-.51331.00393-.77983.1321h-.02131l-.02984.017047c-.4938.2808-.9568.6572-1.3905 1.1293l-.034088.036931v.034088c-.3.3741-.4984.7507-.544 1.1279-.01456.06393-.014204.12156-.014204.18324 0 .17161.025222.34601.078125.51705l.014204.0483.029832.01705c.17129.5877.56 1.5023 1.4105 3.0512.56649 1.0266 1.1453 1.8841 1.7202 2.6066.30283.37972.64588.77507 1.044 1.1733.0047.0048.02152.02188.03978.03835.0063.0063.01518.01944.03693.0412l.03977.03977h.0029c.01401.01402.02347.02419.02557.02699l.0071.0085.0071.0072c.39814.3938.79083.73892 1.1747 1.0398.72137.57492 1.5787 1.1583 2.6051 1.7259 1.5506.85544 2.4737 1.2421 3.0582 1.4105l.02131.02557.03552.01279c.1656.05521.33792.0807.50852.07813.0692.0037.13047-.001.18892-.0142.40035-.04681.79676-.23637 1.1889-.56534l.0043-.0057.0043-.0028c.0061-.006.0025-.0031.0057-.0072.0035-.0031.005-.0068.0086-.01.46418-.42365.83883-.88441 1.1207-1.3778l.01846-.03125v-.02983c.2589-.53913.15635-1.0895-.2642-1.4404-.0103-.0088-.21237-.17775-.46307-.3821-.25638-.20892-.56044-.4545-.76573-.60514-.38842-.28734-.98876-.65902-1.331-.84944h-.0014c-.65728-.3681-1.3441-.15418-1.6463.23722l-.52983.66336c-.21368.26924-.64065.24356-.65199.2429-3.5937-.92457-4.5599-4.5382-4.5668-4.5639-.000641-.01131-.02647-.43904.2429-.65626l.66051-.52841c.39233-.30048.6129-.98721.2429-1.6463-.19302-.34075-.5663-.94563-.84943-1.331h-.0014c-.153-.2061-.398-.5119-.607-.7686-.104-.1283-.199-.2457-.268-.3295-.035-.0419-.063-.0757-.083-.0994-.01-.011847-.01831-.020182-.02415-.026989-.0029-.00342-.0045-.00567-.0071-.00852-.183-.2174-.416-.3498-.673-.3935zm6.598 1.4404c-.34657-.024437-.65797.23525-.68324.56961-.02529.33473.24473.63327.59091.65767.85608.0605 1.4338.31219 1.8679.77131v.0015c.44311.46764.64473 1.0017.62784 1.7315v.0028c-.0075.33584.27419.62046.62216.62782h.0156c.34289 0 .62873-.27068.63636-.60228.02345-1.0032-.30329-1.8983-.96165-2.5923-.663-.6974-1.6-1.0881-2.717-1.1675z" opacity=".2"/><g fill="#fff"><path d="m17.374 6c-.35138 0-.64296.28065-.64631.62074-.0021.34164.2896.62893.64347.63069 1.5272.011469 2.7829.49414 3.7954 1.446 1.0006.94303 1.5222 2.2496 1.5355 3.9546v.0015c.0036.33917.29543.61929.64773.61929.000037 0 .0067-.0014.0071-.0015.35309-.0032.64632-.28793.64346-.62927v-.0015c-.008-.995-.17-1.909-.486-2.713-.32-.8125-.806-1.5313-1.44-2.1293-1.253-1.1781-2.853-1.7867-4.695-1.7997h-.0057zm-6.5596 1.4702c-.2464-.041884-.51331.00393-.77983.1321h-.02131l-.02984.017047c-.4938.2808-.9568.6572-1.3905 1.1293l-.034088.036931v.034088c-.3.3741-.4984.7507-.544 1.1279-.01456.063928-.014204.12156-.014204.18324 0 .17161.025222.34601.078125.51705l.014204.0483.029832.01705c.17129.5877.56 1.5023 1.4105 3.0512.56649 1.0266 1.1453 1.8841 1.7202 2.6066.30283.37972.64588.77507 1.044 1.1733.0047.0048.02152.02188.03978.03835.0063.0063.01518.01944.03693.0412l.03977.03977h.0029c.01401.01402.02347.02419.02557.02699l.0071.0085.0071.0072c.39814.3938.79083.73892 1.1747 1.0398.72137.57492 1.5787 1.1583 2.6051 1.7259 1.5506.85544 2.4737 1.2421 3.0582 1.4105l.02131.02557.03552.01279c.1656.05521.33792.0807.50852.07813.0692.0037.13047-.001.18892-.0142.40035-.04681.79676-.23637 1.1889-.56534l.0043-.0057.0043-.0028c.0061-.006.0025-.0031.0057-.0072.0035-.0031.005-.0068.0086-.01.46418-.42365.83883-.88441 1.1207-1.3778l.01846-.03125v-.02983c.2589-.53913.15635-1.0895-.2642-1.4404-.0103-.0088-.21237-.17775-.46307-.3821-.25638-.20892-.56044-.4545-.76573-.60514-.38842-.28734-.98876-.65902-1.331-.84944h-.0014c-.65728-.3681-1.3441-.15418-1.6463.23722l-.52983.66336c-.21368.26924-.64065.24356-.65199.2429-3.5937-.92457-4.5599-4.5382-4.5668-4.5639-.000641-.01131-.02647-.43904.2429-.65626l.66051-.52841c.39233-.30048.6129-.98721.2429-1.6463-.19302-.34075-.5663-.94563-.84943-1.331h-.0014c-.153-.2061-.398-.5119-.607-.7686-.104-.1283-.199-.2457-.268-.3295-.035-.0419-.063-.0757-.083-.0994-.01-.011847-.01831-.020182-.02415-.026989-.0029-.00342-.0045-.00567-.0071-.00852-.183-.2174-.416-.3498-.673-.3935zm6.598 1.4404c-.34657-.024437-.65797.23525-.68324.56961-.02529.33473.24473.63327.59091.65767.85608.0605 1.4338.31219 1.8679.77131v.0015c.44311.46764.64473 1.0017.62784 1.7315v.0028c-.0075.33584.27419.62046.62216.62782h.0156c.34289 0 .62873-.27068.63636-.60228.02345-1.0032-.30329-1.8983-.96165-2.5923-.663-.6974-1.6-1.0881-2.717-1.1675z"/><path d="m11.62 7.9942c-.0012-.00133-.0025-.00238-.005-.00497-.0012-.00126-.0066-.00651-.0066-.00658l-.01162-.00824-.03487-.018109.05811.03787z"/><path d="m8.7964 8.8653c-.00247.00364-.0036.015491-.00664.023051-.0024.00287-.00261.00539-.00501.00824.00289-.011473.00678-.023289.00664-.023051-.000319.0005796.00904-.014259.00501-.00824z"/></g><path d="m28 23.699c0 1.1634-.94401 2.1016-2.1172 2.1016h-17.648l-4.235 4.199v1l4.2344-4.1992h17.648c1.174 0 2.118-.938 2.118-2.102v-1z" opacity=".2"/><path d="m6.1172 2c-1.1732 0-2.1172.9362-2.1172 2.0996v1c0-1.1634.944-2.0996 2.1172-2.0996h19.766c1.173 0 2.117.9362 2.117 2.0996v-1c0-1.1634-.944-2.0996-2.117-2.0996z" fill="#fff" opacity=".2"/></svg>