<svg height="32" width="32" xmlns="http://www.w3.org/2000/svg"><rect fill="#4f4f4f" height="28" rx="1.4" transform="matrix(0 -1 -1 0 0 0)" width="28" x="-30" y="-30"/><path d="m3.4004 2c-.7756 0-1.4004.6248-1.4004 1.4004v1c0-.7756.6248-1.4004 1.4004-1.4004h25.2c.775 0 1.4.6248 1.4 1.4004v-1c0-.7756-.625-1.4004-1.4-1.4004z" fill="#fff" opacity=".1"/><path d="m2 28.6v1c0 .775.6248 1.4 1.4004 1.4h25.2c.775 0 1.4-.625 1.4-1.4v-1c0 .775-.625 1.4-1.4 1.4h-25.2c-.7752 0-1.4-.625-1.4-1.4z" opacity=".2"/><path d="m4.5 13 3.225 8h2.3l3.175-8h-2.175l-2.175 5.275-2.15-5.275z" fill-opacity=".971" opacity=".2"/><path d="m4.5 12 3.225 8h2.3l3.175-8h-2.175l-2.175 5.275-2.15-5.275z" fill="#6a2537"/><path d="m15.325 13c-1.0831 2.6805-2.1839 5.3442-3.325 8h2.3l2.15-5.25 2.125 5.25h2.3l2.125-5.4 2.2 5.4h2.3c-1.1411-2.6558-2.2669-5.3195-3.35-8h-2.3l-2.125 5.275-2.175-5.275z" fill-opacity=".971" opacity=".2"/><path d="m15.325 12c-1.0831 2.6805-2.1839 5.3442-3.325 8h2.3l2.15-5.25 2.125 5.25h2.3l2.125-5.4 2.2 5.4h2.3c-1.1411-2.6558-2.2669-5.3195-3.35-8h-2.3l-2.125 5.275-2.175-5.275z" fill="#a6aaad" fill-opacity=".941"/></svg>