<?xml version="1.0" encoding="UTF-8"?>
<!-- Created with Inkscape (http://www.inkscape.org/) -->
<svg id="svg7384" width="16" height="16" version="1.1" xmlns="http://www.w3.org/2000/svg" xmlns:cc="http://creativecommons.org/ns#" xmlns:dc="http://purl.org/dc/elements/1.1/" xmlns:rdf="http://www.w3.org/1999/02/22-rdf-syntax-ns#">
 <metadata id="metadata90">
  <rdf:RDF>
   <cc:Work rdf:about="">
    <dc:format>image/svg+xml</dc:format>
    <dc:type rdf:resource="http://purl.org/dc/dcmitype/StillImage"/>
    <dc:title>Gnome Symbolic Icon Theme</dc:title>
   </cc:Work>
  </rdf:RDF>
 </metadata>
 <title id="title9167">Gnome Symbolic Icon Theme</title>
 <g id="g3340" transform="translate(-.16651 .1106)" fill="#bebebe">
  <path id="path27918" d="m9.5143 1.03c3.0289 0 5.5107 2.479 5.5107 5.5045 0 3.0254-2.4819 5.5045-5.5107 5.5045s-5.5107-2.479-5.5107-5.5045c0-3.0254 2.4819-5.5045 5.5107-5.5045zm0 2.0089c-1.9474 0-3.4995 1.5504-3.4995 3.4955s1.5522 3.4955 3.4995 3.4955c1.9474 0 3.4995-1.5504 3.4995-3.4955 0-1.9452-1.5522-3.4955-3.4995-3.4955z" color="#000000" enable-background="new" style="block-progression:tb;text-indent:0;text-transform:none"/>
  <path id="path27941" d="m6.2143 9.03c0.81193 0.14726 1.1062 1.159 0.5 1.7188l-4 4-1.4062-1.4375 4-4c0.2366-0.241 0.57885-0.3463 0.91-0.28z" color="#000000" enable-background="new" style="block-progression:tb;text-indent:0;text-transform:none"/>
 </g>
</svg>
