<?xml version="1.0" encoding="UTF-8"?>
<!-- Created with Inkscape (http://www.inkscape.org/) -->
<svg id="svg7384" width="16.013" height="16" version="1.1" xmlns="http://www.w3.org/2000/svg" xmlns:cc="http://creativecommons.org/ns#" xmlns:dc="http://purl.org/dc/elements/1.1/" xmlns:rdf="http://www.w3.org/1999/02/22-rdf-syntax-ns#">
 <metadata id="metadata90">
  <rdf:RDF>
   <cc:Work rdf:about="">
    <dc:format>image/svg+xml</dc:format>
    <dc:type rdf:resource="http://purl.org/dc/dcmitype/StillImage"/>
    <dc:title>Gnome Symbolic Icon Theme</dc:title>
   </cc:Work>
  </rdf:RDF>
 </metadata>
 <title id="title9167">Gnome Symbolic Icon Theme</title>
 <g id="g4584" transform="matrix(.52411 0 0 .4851 20.67 1.1915)" fill="#bebebe">
  <rect id="rect8450-1-2" transform="rotate(90)" x="15.642" y="11.555" width=".67797" height="4.3196" rx="0" ry="0" color="#bebebe"/>
  <path id="rect8450-0-6-6-2" d="m-24.579 1.5664 0.44425-0.51901 12.58 14.593-0.0021 0.1094-0.0055 0.12151-0.39541 0.33954-12.185-14.135c-0.16886-0.19589-0.2678-0.3143-0.43666-0.51019z" color="#bebebe"/>
  <rect id="rect8450-1" transform="rotate(90)" x="15.642" y="32.279" width=".67797" height="4.4914" rx="0" ry="0" color="#bebebe"/>
  <path id="rect8450-0-6-6" transform="matrix(-.75575 -.65486 .65486 -.75575 0 0)" d="m17.561-23.859-3e-3 7.2566-0.68445-0.10292 0.0065-0.67095-6e-6 -7.2469m-2e-6 -2.6998-8e-6 -8.7295h0.52766l0.06725 0.07713 0.08306 0.09094 0.0037 9.3467" color="#bebebe"/>
  <g id="g4505" transform="translate(-11.375 .125)">
   <rect id="rect8450" transform="rotate(90)" x="26.22" y="14.901" width=".67797" height="6.6702" rx="0" ry="0" color="#bebebe"/>
   <rect id="rect8450-0" transform="scale(-1)" x="14.899" y="-26.893" width=".67797" height="11.376" rx="0" ry="0" color="#bebebe"/>
   <rect id="rect8450-0-1" transform="scale(-1)" x="9.822" y="-26.893" width=".67797" height="11.376" rx="0" ry="0" color="#bebebe"/>
   <rect id="rect8450-97" transform="rotate(90)" x="15.517" y="9.8324" width=".67797" height="5.7434" rx="0" ry="0" color="#bebebe"/>
   <rect id="rect8450-0-6" transform="scale(-1)" x="20.893" y="-26.893" width=".67797" height="11.376" rx="0" ry="0" color="#bebebe"/>
   <rect id="rect8450-0-6-0" transform="scale(-1)" x="3.822" y="-26.893" width=".67797" height="11.376" rx="0" ry="0" color="#bebebe"/>
   <rect id="rect8450-1-2-2" transform="rotate(90)" x="3.1989" y="16.84" width=".67797" height="3.1058" rx="0" ry="0" color="#bebebe"/>
   <rect id="rect8450-0-6-1" transform="scale(-1)" x="19.274" y="-9.3319" width=".67797" height="6.1318" rx="0" ry="0" color="#bebebe"/>
   <rect id="rect8450-0-6-1-3" transform="scale(-1)" x="16.84" y="-6.6398" width=".67797" height="3.4388" rx="0" ry="0" color="#bebebe"/>
   <rect id="rect8450-2" transform="rotate(90)" x="26.22" y="3.8268" width=".67797" height="6.6702" rx="0" ry="0" color="#bebebe"/>
  </g>
 </g>
</svg>
