<?xml version="1.0" encoding="UTF-8"?>
<!-- Created with Inkscape (http://www.inkscape.org/) -->
<svg id="svg7384" width="16" height="16" version="1.1" xmlns="http://www.w3.org/2000/svg" xmlns:cc="http://creativecommons.org/ns#" xmlns:dc="http://purl.org/dc/elements/1.1/" xmlns:rdf="http://www.w3.org/1999/02/22-rdf-syntax-ns#">
 <metadata id="metadata90">
  <rdf:RDF>
   <cc:Work rdf:about="">
    <dc:format>image/svg+xml</dc:format>
    <dc:type rdf:resource="http://purl.org/dc/dcmitype/StillImage"/>
    <dc:title>Gnome Symbolic Icon Theme</dc:title>
   </cc:Work>
  </rdf:RDF>
 </metadata>
 <title id="title9167">Gnome Symbolic Icon Theme</title>
 <path id="path4597" d="m9.4615 3.7588c-0.67191-0.16939-1.3568-0.22718-2.0498-0.16052-1.4379 0.13842-2.7146 0.78119-3.6631 1.7342-0.13568 0.13595-0.25121 0.27694-0.37345 0.42526-0.97808 1.1865-1.5109 2.7629-1.3526 4.4063 0.31641 3.2866 3.2789 5.7056 6.5656 5.3891 3.2867-0.31648 5.7056-3.2789 5.3891-6.5656l-2.0031 0.21144c0.21285 2.2107-1.3954 4.1341-3.6062 4.347-2.2107 0.21285-4.1341-1.3954-4.347-3.6062-0.21285-2.2107 1.3954-4.1341 3.6062-4.347 0.53437-0.051444 1.0625 0.022886 1.5621 0.18237-0.50187-0.15729 0.15508-11.577-0.45296 3.1203l4.4328-4.0436-3.3696-3.694c-0.037669-0.050049-0.079975-0.096428-0.12636-0.13852l-0.54757-0.60027c-0.38921 8.4764-0.32238 3.1741 0.33598 3.3398z" color="#bebebe" fill="#bebebe" style="block-progression:tb;text-indent:0;text-transform:none"/>
</svg>
