<svg height="48" width="48" xmlns="http://www.w3.org/2000/svg"><path d="m10 5c-1.108 0-2 .892-2 2v36c0 1.108.892 2 2 2h28c1.108 0 2-.892 2-2v-26l-11-1-1-11z" opacity=".2"/><path d="m163.22 242.45v11c0 1.1046.89543 2 2 2h10l-1-1-10-9z" opacity=".1"/><path d="m10 4c-1.108 0-2 .892-2 2v36c0 1.108.892 2 2 2h28c1.108 0 2-.892 2-2v-26l-11-1-1-11z" fill="#b38d32"/><path d="m10 4c-1.108 0-2 .892-2 2v1c0-1.108.892-2 2-2h18l11 11h1l-12-12z" fill="#fff" opacity=".2"/><path d="m28 5v10c0 1.1046.89543 2 2 2h10z" opacity=".2"/><path d="m28 4v10c0 1.1046.89543 2 2 2h10z" fill="#dabe79"/><path d="m21.5 22.9997c-.831 0-1.5.59532-1.5 1.333984v13.332032c0 .738664.669 1.333984 1.5 1.333984s1.5-.59532 1.5-1.333984v-3.263672l2.291016 3.96875c.369332.639702 1.247129.82175 1.966796.40625.719664-.4155 1.002145-1.266546.632813-1.90625l-3.384766-5.863282 3.384766-5.861328c.369332-.639703.08685-1.488797-.632813-1.904297-.269875-.155812-.562792-.227254-.841796-.222656-.465008.0077-.894168.227139-1.125.626953l-2.291016 3.96875v-3.28125c0-.738664-.669-1.333984-1.5-1.333984z" opacity=".2"/><path d="m21.5 21.9997c-.831 0-1.5.59532-1.5 1.333984v13.332032c0 .738664.669 1.333984 1.5 1.333984s1.5-.59532 1.5-1.333984v-3.263672l2.291016 3.96875c.369332.639702 1.247129.82175 1.966796.40625.719664-.4155 1.002145-1.266546.632813-1.90625l-3.384766-5.863282 3.384766-5.861328c.369332-.639703.08685-1.488797-.632813-1.904297-.269875-.155812-.562792-.227254-.841796-.222656-.465008.0077-.894168.227139-1.125.626953l-2.291016 3.96875v-3.28125c0-.738664-.669-1.333984-1.5-1.333984z" fill="#ffc947"/></svg>