<svg height="32" width="32" xmlns="http://www.w3.org/2000/svg"><g fill="#8e8e8e"><path d="m-12-29h1v26h-1z" transform="scale(-1)"/><path d="m-9-29h1v26h-1z" transform="scale(-1)"/><path d="m-21-29h1v26h-1z" transform="scale(-1)"/><path d="m-18-29h1v26h-1z" transform="scale(-1)"/><path d="m-15-29h1v26h-1z" transform="scale(-1)"/><path d="m-24-29h1v26h-1z" transform="scale(-1)"/><g transform="rotate(-90)"><path d="m-12 6h1v20h-1z"/><path d="m-9 6h1v20h-1z"/><path d="m-6 6h1v20h-1z"/><path d="m-21 6h1v20h-1z"/><path d="m-18 6h1v20h-1z"/><path d="m-15 6h1v20h-1z"/><path d="m-24 6h1v20h-1z"/><path d="m-27 6h1v20h-1z"/></g></g><rect height="18" opacity=".2" rx="1.25" transform="matrix(0 -1 -1 0 0 0)" width="24" x="-29" y="-25"/><rect fill="#5b5b5b" height="18" rx="1.25" transform="matrix(0 -1 -1 0 0 0)" width="24" x="-28" y="-25"/><g fill="#fff"><path d="m8.25 4c-.6925 0-1.25.5575-1.25 1.25v1c0-.6925.5575-1.25 1.25-1.25h15.5c.692 0 1.25.5575 1.25 1.25v-1c0-.6925-.558-1.25-1.25-1.25z" opacity=".1"/><path d="m7-21h6v1h-6z" opacity=".4" transform="rotate(90)"/><path d="m14-21h3v1h-3z" opacity=".4" transform="rotate(90)"/><path d="m18-21h7v1h-7z" opacity=".4" transform="rotate(90)"/><path d="m7-17h8v1h-8z" opacity=".4" transform="rotate(90)"/><path d="m16-17h8v1h-8z" opacity=".4" transform="rotate(90)"/><path d="m7-13h3v1h-3z" opacity=".4" transform="rotate(90)"/><path d="m11-13h3v1h-3z" opacity=".4" transform="rotate(90)"/><path d="m15-13h6v1h-6z" opacity=".4" transform="rotate(90)"/></g></svg>