<?xml version="1.0" encoding="UTF-8"?>
<svg id="svg12" width="64" height="64" version="1" xmlns="http://www.w3.org/2000/svg" xmlns:cc="http://creativecommons.org/ns#" xmlns:dc="http://purl.org/dc/elements/1.1/" xmlns:rdf="http://www.w3.org/1999/02/22-rdf-syntax-ns#">
 <metadata id="metadata18">
  <rdf:RDF>
   <cc:Work rdf:about="">
    <dc:format>image/svg+xml</dc:format>
    <dc:type rdf:resource="http://purl.org/dc/dcmitype/StillImage"/>
    <dc:title/>
   </cc:Work>
  </rdf:RDF>
 </metadata>
 <rect id="rect2" transform="matrix(0,-1,-1,0,0,0)" x="-62" y="-62" width="60" height="60" rx="30" ry="30" fill="#444" stroke-width="1.5001"/>
 <path id="path10" d="m32 9.5a22.5 22.5 0 0 0-22.5 22.5 22.5 22.5 0 0 0 22.5 22.5 22.5 22.5 0 0 0 22.5-22.5 22.5 22.5 0 0 0-22.5-22.5zm0 4.5c2.493 0 4.5 2.007 4.5 4.5v21c0 2.493-2.007 4.5-4.5 4.5s-4.5-2.007-4.5-4.5v-21c0-2.493 2.007-4.5 4.5-4.5zm-13.5 12c2.493 0 4.5 2.007 4.5 4.5v9c0 2.493-2.007 4.5-4.5 4.5s-4.5-2.007-4.5-4.5v-9c0-2.493 2.007-4.5 4.5-4.5zm27 0c2.493 0 4.5 2.007 4.5 4.5v9c0 2.493-2.007 4.5-4.5 4.5s-4.5-2.007-4.5-4.5v-9c0-2.493 2.007-4.5 4.5-4.5z" fill="#fff" stroke-width="1.5"/>
</svg>
