<?xml version="1.0" encoding="UTF-8"?>
<svg id="svg12" width="64" height="64" enable-background="new" version="1.1" xmlns="http://www.w3.org/2000/svg" xmlns:cc="http://creativecommons.org/ns#" xmlns:dc="http://purl.org/dc/elements/1.1/" xmlns:rdf="http://www.w3.org/1999/02/22-rdf-syntax-ns#">
 <metadata id="metadata90">
  <rdf:RDF>
   <cc:Work rdf:about="">
    <dc:format>image/svg+xml</dc:format>
    <dc:type rdf:resource="http://purl.org/dc/dcmitype/StillImage"/>
    <dc:title/>
   </cc:Work>
  </rdf:RDF>
 </metadata>
 <g id="layer9" transform="translate(-461 251)" fill="#555">
  <path id="path5086" d="m477-239c-6.5788 0-12 5.4212-12 12v16c0 6.5788 5.4212 12 12 12h13.125c-0.67416-1.8902-1.125-3.8783-1.125-6 0-0.68712 0.17521-1.3329 0.25-2h-12.25c-2.2852 0-4-1.7148-4-4v-16c0-2.2852 1.7148-4 4-4h12v-8zm28 0v8h4c2.2852 0 4 1.7148 4 4v5.125c3.1779 1.1334 5.9316 3.0411 8 5.625v-10.75c0-6.5788-5.4212-12-12-12z" color="#000000" stroke-width="4"/>
  <path id="path5088" d="m501-235-16-12v24z" stroke-width="4"/>
  <path id="path39797" d="m507-219c-7.6846 0-14 6.3154-14 14s6.3154 14 14 14c7.6846 0 14-6.3154 14-14s-6.3154-14-14-14zm0 10c2.1973 0 4 1.8027 4 4 0 2.1973-1.8027 4-4 4s-4-1.8027-4-4c0-2.1973 1.8027-4 4-4z" color="#bebebe" enable-background="accumulate" filter="url(#filter7554)" style="text-decoration-line:none;text-indent:0;text-transform:none"/>
 </g>
</svg>
