<?xml version="1.0" encoding="UTF-8"?>
<!-- Created with Inkscape (http://www.inkscape.org/) -->
<svg id="svg7384" width="64" height="64" enable-background="new" version="1.1" xmlns="http://www.w3.org/2000/svg" xmlns:cc="http://creativecommons.org/ns#" xmlns:dc="http://purl.org/dc/elements/1.1/" xmlns:rdf="http://www.w3.org/1999/02/22-rdf-syntax-ns#">
 <metadata id="metadata90">
  <rdf:RDF>
   <cc:Work rdf:about="">
    <dc:format>image/svg+xml</dc:format>
    <dc:type rdf:resource="http://purl.org/dc/dcmitype/StillImage"/>
    <dc:title>Paper Symbolic Icon Theme</dc:title>
   </cc:Work>
  </rdf:RDF>
 </metadata>
 <title id="title8473">Paper Symbolic Icon Theme</title>
 <defs id="defs7386">
  <filter id="filter7554" color-interpolation-filters="sRGB">
   <feBlend id="feBlend7556" in2="BackgroundImage" mode="darken"/>
  </filter>
 </defs>
 <g id="layer12" transform="translate(-265 -133)">
  <path id="path4743" d="m274.5 135a7.5 7.5 0 0 0-7.5 7.5 7.5 7.5 0 0 0 2.1973 5.3027l17.197 17.197-17.197 17.197a7.5 7.5 0 0 0-2.1973 5.3027 7.5 7.5 0 0 0 7.5 7.5 7.5 7.5 0 0 0 5.3027-2.1973l17.197-17.197 17.124 17.124a7.5 7.5 0 0 0 5.376 2.2705 7.5 7.5 0 0 0 7.5-7.5 7.5 7.5 0 0 0-2.1973-5.3027l-17.197-17.197 17.124-17.124a7.5 7.5 0 0 0 2.2705-5.376 7.5 7.5 0 0 0-7.5-7.5 7.5 7.5 0 0 0-5.3027 2.1973l-17.197 17.197-17.124-17.124a7.5 7.5 0 0 0-0.075-0.075 7.5 7.5 0 0 0-5.3025-2.1955z" enable-background="new" fill="#555"/>
 </g>
</svg>
