<svg enable-background="new" height="64" width="64" xmlns="http://www.w3.org/2000/svg" xmlns:xlink="http://www.w3.org/1999/xlink"><filter id="a" color-interpolation-filters="sRGB" height="1.026229" width="1.02212" x="-.01106" y="-.013115"><feGaussianBlur stdDeviation=".25136363"/></filter><linearGradient id="b" gradientUnits="userSpaceOnUse" x1="8.818183" x2="55.181819" y1="29.000002" y2="29.000002"><stop offset="0" stop-color="#666"/><stop offset="1"/></linearGradient><g filter="url(#a)" opacity=".2" transform="translate(73.933565 10.786942)"><rect height="30" rx="2" ry="1.363636" transform="matrix(0 -1 -1 0 0 0)" width="4" x="-45.213058" y="26.933561"/><rect height="40" rx="2.727273" ry="2.857143" width="54.545452" x="-69.206291" y="-.786942"/><rect height="6" rx=".5" ry=".428571" width="10" x="-46.933563" y="36.213058"/></g><g fill="#78909c"><rect height="30" rx="2" ry="1.363636" stroke-width=".825723" transform="matrix(0 -1 -1 0 0 0)" width="4" x="-55" y="-47"/><rect height="40" rx="2.727273" ry="2.857143" width="54.545452" x="4.727274" y="9"/><rect height="6" rx=".5" ry=".428571" width="10" x="27" y="46"/></g><path d="m8.818183 13.285715h46.363636v31.428574h-46.363636z" fill="url(#b)" stroke-width="1.395726"/></svg>