<svg height="64" width="64" xmlns="http://www.w3.org/2000/svg" xmlns:xlink="http://www.w3.org/1999/xlink"><linearGradient id="a"><stop offset="0" stop-color="#2a2c2f"/><stop offset="1" stop-color="#424649"/></linearGradient><linearGradient id="b" gradientTransform="matrix(1.0833331 0 0 1.027779 -410.61896 -509.79302)" gradientUnits="userSpaceOnUse" x1="409.49451" x2="409.57144" xlink:href="#a" y1="544.66284" y2="503.798"/><linearGradient id="c"><stop offset="0" stop-color="#7e8f9e"/><stop offset="1" stop-color="#84ced5"/></linearGradient><linearGradient id="d" gradientTransform="matrix(1.0871079 0 0 1.1000002 -44.37025 -47.979925)" gradientUnits="userSpaceOnUse" x2="0" xlink:href="#c" y1="541.79797" y2="489.798"/><linearGradient id="e" gradientTransform="matrix(1.0999997 0 0 1.1428564 -49.45702 -70.68506)" gradientUnits="userSpaceOnUse" x1="394.57144" x2="404.57144" xlink:href="#f" y1="535.79797" y2="522.79797"/><linearGradient id="f"><stop offset="0" stop-color="#e4a56d"/><stop offset="1" stop-color="#a7bd78"/></linearGradient><linearGradient id="g" gradientTransform="matrix(1.0795244 0 0 1.1428567 -41.17329 -70.68517)" gradientUnits="userSpaceOnUse" x1="404.57144" x2="421.57144" xlink:href="#h"/><linearGradient id="h"><stop offset="0" stop-color="#c3a278"/><stop offset="1" stop-color="#68a"/></linearGradient><linearGradient id="i" gradientTransform="matrix(1.1078085 0 0 1.1428564 -53.44896 -70.68507)" gradientUnits="userSpaceOnUse" x1="430.57144" x2="437.49963" xlink:href="#j" y1="536.79797" y2="524.79797"/><linearGradient id="j"><stop offset="0" stop-color="#6588af"/><stop offset="1" stop-color="#8ba8cd"/></linearGradient><linearGradient id="k" gradientTransform="matrix(1.0489857 0 0 1.1000002 -27.650963 -47.979924)" gradientUnits="userSpaceOnUse" x1="421.57144" x2="438.57144" xlink:href="#l"/><linearGradient id="l"><stop offset="0" stop-color="#89ad8b"/><stop offset="1" stop-color="#82b3c7"/></linearGradient><linearGradient id="m" gradientTransform="matrix(1.0999997 0 0 1.2751426 -49.45702 -137.41798)" gradientUnits="userSpaceOnUse" x1="387.57144" x2="401.57144" xlink:href="#n" y1="525.79797" y2="513.79797"/><linearGradient id="n"><stop offset="0" stop-color="#e1b16f"/><stop offset="1" stop-color="#99bf83"/></linearGradient><linearGradient id="o" gradientTransform="matrix(1.0999997 0 0 1.1000002 -49.45702 -47.979925)" gradientUnits="userSpaceOnUse" x1="404.57144" x2="391.57144" xlink:href="#p" y1="510.798" y2="498.798"/><linearGradient id="p"><stop offset="0" stop-color="#99c487"/><stop offset="1" stop-color="#b4d99e"/></linearGradient><linearGradient id="q" gradientTransform="matrix(1.1176469 0 0 1.1000002 -56.59659 -47.979925)" gradientUnits="userSpaceOnUse" x1="404.57144" x2="421.57144" xlink:href="#r" y1="501.798" y2="501.61618"/><linearGradient id="r"><stop offset="0" stop-color="#75d5c7"/><stop offset="1" stop-color="#66afb9"/></linearGradient><linearGradient id="s" gradientTransform="matrix(1.0489851 0 0 1.062501 -27.650705 -29.2379)" gradientUnits="userSpaceOnUse" x1="428.57144" x2="438.57144" xlink:href="#t" y1="495.798" y2="504.798"/><linearGradient id="t"><stop offset="0" stop-color="#5c7b9e"/><stop offset="1" stop-color="#839dc0"/></linearGradient><linearGradient id="u" gradientTransform="matrix(1.0871079 0 0 1.1000002 -44.37025 -47.979925)" gradientUnits="userSpaceOnUse" x1="421.57144" x2="406.57144" xlink:href="#v"/><linearGradient id="v"><stop offset="0" stop-color="#7fbcc6"/><stop offset="1" stop-color="#8ee4e3"/></linearGradient><linearGradient id="w" gradientTransform="matrix(1.0871079 0 0 1.1000002 -44.37025 -47.979925)" gradientUnits="userSpaceOnUse" x1="421.57144" x2="436.57144" xlink:href="#x"/><linearGradient id="x"><stop offset="0" stop-color="#84d5d7"/><stop offset="1" stop-color="#84a8ba"/></linearGradient><linearGradient id="y" gradientTransform="matrix(1.0833331 0 0 1.027779 -34.04754 -14.995041)" gradientUnits="userSpaceOnUse" x1="409.49451" x2="409.57144" y1="544.66284" y2="503.798"><stop offset="0" stop-color="#197cf1"/><stop offset="1" stop-color="#20bcfa"/></linearGradient><linearGradient id="z" gradientTransform="matrix(1.0871079 0 0 1.1000002 -44.37025 -45.979902)" gradientUnits="userSpaceOnUse" x2="0" xlink:href="#c" y1="541.79797" y2="489.798"/><linearGradient id="A" gradientTransform="matrix(1.0999997 0 0 1.1428564 -49.45702 -68.68503)" gradientUnits="userSpaceOnUse" x1="394.57144" x2="404.57144" xlink:href="#f" y1="535.79797" y2="522.79797"/><linearGradient id="B" gradientTransform="matrix(1.0795244 0 0 1.1428567 -41.17329 -68.68515)" gradientUnits="userSpaceOnUse" x1="404.57144" x2="421.57144" xlink:href="#h"/><linearGradient id="C" gradientTransform="matrix(1.1078085 0 0 1.1428564 -53.44896 -68.68505)" gradientUnits="userSpaceOnUse" x1="430.57144" x2="437.49963" xlink:href="#j" y1="536.79797" y2="524.79797"/><linearGradient id="D" gradientTransform="matrix(1.0489857 0 0 1.1000002 -27.650963 -45.979901)" gradientUnits="userSpaceOnUse" x1="421.57144" x2="438.57144" xlink:href="#l"/><linearGradient id="E" gradientTransform="matrix(1.0999997 0 0 1.2751426 -49.45702 -135.41796)" gradientUnits="userSpaceOnUse" x1="387.57144" x2="401.57144" xlink:href="#n" y1="525.79797" y2="513.79797"/><linearGradient id="F" gradientTransform="matrix(1.0999997 0 0 1.1000002 -49.45702 -45.979902)" gradientUnits="userSpaceOnUse" x1="404.57144" x2="391.57144" xlink:href="#p" y1="510.798" y2="498.798"/><linearGradient id="G" gradientTransform="matrix(1.1176469 0 0 1.1000002 -56.59659 -45.979902)" gradientUnits="userSpaceOnUse" x1="404.57144" x2="421.57144" xlink:href="#r" y1="501.798" y2="501.61618"/><linearGradient id="H" gradientTransform="matrix(1.0489851 0 0 1.062501 -27.650705 -27.23787)" gradientUnits="userSpaceOnUse" x1="428.57144" x2="438.57144" xlink:href="#t" y1="495.798" y2="504.798"/><linearGradient id="I" gradientTransform="matrix(1.0871079 0 0 1.1000002 -44.37025 -45.979902)" gradientUnits="userSpaceOnUse" x1="421.57144" x2="406.57144" xlink:href="#v"/><linearGradient id="J" gradientTransform="matrix(1.0871079 0 0 1.1000002 -44.37025 -45.979902)" gradientUnits="userSpaceOnUse" x1="421.57144" x2="436.57144" xlink:href="#x"/><linearGradient id="K" gradientUnits="userSpaceOnUse" x2="0" xlink:href="#a" y1="540.79797" y2="536.79797"/><g transform="translate(-376.57144 -491.79797)"><g transform="translate(0 2.00002)"><path d="m6 8v37h52v-37z" fill="url(#b)" stroke-opacity=".550265" stroke-width="2.8" transform="translate(376.57144 491.79797)"/><path d="m384.57143 501.79797v33h47.83274v-33z" fill="url(#d)"/><g fill-rule="evenodd"><path d="m395.57143 518.79798-11 9.41072v6.58927h11z" fill="url(#e)"/><path d="m395.57143 519.79799v14.99998h18.35191z" fill="url(#g)"/><path d="m432.57143 518.79798-19 15.99999 19 .00001z" fill="url(#i)"/><path d="m414.57143 528.19797v-24.39999l18 15-18 15.99999z" fill="url(#k)"/><path d="m384.57143 509.79798v21.00001l11-11z" fill="url(#m)"/><path d="m384.57143 501.79797v8.54219l11 9.45783v-7.00002-11z" fill="url(#o)"/><path d="m395.57143 501.79797v11 7.00002l19-16.00001-3-2z" fill="url(#q)"/><path d="m417.12013 501.79797-2.5487 2.00001 18 15v-6-11z" fill="url(#s)"/><path d="m411.57143 501.79798 3 2v-2z" fill="url(#u)"/><path d="m414.57143 501.79798v2l3-2z" fill="url(#w)"/></g><path d="m384.57144 530.79797h47.999989v3.999983h-47.999989z" fill="#fff" fill-opacity=".784314"/><circle cx="429.57144" cy="532.79791" fill="#4d4d4d" r="1"/><path d="m386.57143 531.79798v1h1v-1zm1 1v1h1v-1z" fill="#4d4d4d"/><path d="m386.57144 503.798h19.999987v16.999994h-19.999987z" fill="#fff" fill-opacity=".784314"/><path d="m387.57143 504.79798v4h4.16667v-3h-1.04167l-1.04166-1z" fill="#3580ca"/><path d="m395.57143 504.79798v5h4v-3l-2-2z" fill="#f95"/><path d="m397.57143 504.79798 2 2h-2z" fill="#d45500" fill-rule="evenodd"/><path d="m387.57143 505.79798h5v4h-5z" fill="#7aabdc"/><path d="m401.57143 504.79798v5h4v-3l-2-2z" fill="#71c837"/><path d="m403.57143 504.79798 2 2h-2z" fill="#447821" fill-rule="evenodd"/></g><path d="m380.57143 540.79797v2a2 2 0 0 0 2 2h52a2 2 0 0 0 2-2v-2h-2-52z" fill="url(#y)" stroke-opacity=".550265" stroke-width="2.8"/><path d="m384.57143 503.79799v33h47.83274v-33z" fill="url(#z)"/><g fill-rule="evenodd"><path d="m395.57143 520.798-11 9.41072v6.58927h11z" fill="url(#A)"/><path d="m395.57143 521.79801v14.99998h18.35191z" fill="url(#B)"/><path d="m432.57143 520.798-19 15.99999 19 .00001z" fill="url(#C)"/><path d="m414.57143 530.19799v-24.39999l18 15-18 15.99999z" fill="url(#D)"/><path d="m384.57143 511.798v21.00001l11-11z" fill="url(#E)"/><path d="m384.57143 503.79799v8.54219l11 9.45783v-7.00002-11z" fill="url(#F)"/><path d="m395.57143 503.79799v11 7.00002l19-16.00001-3-2z" fill="url(#G)"/><path d="m417.12013 503.79799-2.5487 2.00001 18 15v-6-11z" fill="url(#H)"/><path d="m411.57143 503.798 3 2v-2z" fill="url(#I)"/><path d="m414.57143 503.798v2l3-2z" fill="url(#J)"/></g><path d="m384.57144 532.79797h47.999989v3.999983h-47.999989z" fill="#fff" fill-opacity=".784314"/><circle cx="429.57144" cy="534.79791" fill="#4d4d4d" r="1"/><path d="m386.57143 533.798v1h1v-1zm1 1v1h1v-1z" fill="#4d4d4d"/><path d="m386.57144 505.79803h19.999987v16.999994h-19.999987z" fill="#fff" fill-opacity=".784314"/><path d="m387.57143 506.798v4h4.16667v-3h-1.04167l-1.04166-1z" fill="#3580ca"/><path d="m395.57143 506.798v5h4v-3l-2-2z" fill="#f95"/><path d="m397.57143 506.798 2 2h-2z" fill="#d45500" fill-rule="evenodd"/><path d="m387.57143 507.798h5v4h-5z" fill="#7aabdc"/><path d="m401.57143 506.798v5h4v-3l-2-2z" fill="#71c837"/><path d="m403.57143 506.798 2 2h-2z" fill="#447821" fill-rule="evenodd"/><circle cx="384.57144" cy="542.79822" fill="#fff" fill-opacity=".784314" r="1" stroke-linecap="round" stroke-linejoin="round" stroke-width="2"/><path d="m380.57143 540.79799h56l-1.99999-2h-52z" fill="url(#K)" fill-rule="evenodd"/><path d="m4 50v1a2 2 0 0 0 2 2h52a2 2 0 0 0 2-2v-1a2 2 0 0 1 -2 2h-52a2 2 0 0 1 -2-2z" fill="#0b66cb" stroke-opacity=".550265" stroke-width="2.8" transform="translate(376.57144 491.79797)"/></g></svg>