<svg height="64" width="64" xmlns="http://www.w3.org/2000/svg"><g fill="#8e8e8e"><path d="m-24-58h2v52h-2z" transform="scale(-1)"/><path d="m-18-58h2v52h-2z" transform="scale(-1)"/><path d="m-42-58h2v52h-2z" transform="scale(-1)"/><path d="m-36-58h2v52h-2z" transform="scale(-1)"/><path d="m-30-58h2v52h-2z" transform="scale(-1)"/><path d="m-48-58h2v52h-2z" transform="scale(-1)"/><g transform="rotate(-90)"><path d="m-24 12h2v40h-2z"/><path d="m-18 12h2v40h-2z"/><path d="m-12 12h2v40h-2z"/><path d="m-42 12h2v40h-2z"/><path d="m-36 12h2v40h-2z"/><path d="m-30 12h2v40h-2z"/><path d="m-48 12h2v40h-2z"/><path d="m-54 12h2v40h-2z"/></g></g><rect height="36" opacity=".2" rx="2.5" transform="matrix(0 -1 -1 0 0 0)" width="48" x="-57" y="-50"/><rect fill="#5b5b5b" height="36" rx="2.5" transform="matrix(0 -1 -1 0 0 0)" width="48" x="-56" y="-50"/><g fill="#fff"><path d="m16.5 8c-1.385 0-2.5 1.115-2.5 2.5v1c0-1.385 1.115-2.5 2.5-2.5h31c1.385 0 2.5 1.115 2.5 2.5v-1c0-1.385-1.115-2.5-2.5-2.5z" opacity=".1"/><path d="m14-41h12v2h-12z" opacity=".4" transform="rotate(90)"/><path d="m28-41h6v2h-6z" opacity=".4" transform="rotate(90)"/><path d="m36-41h14v2h-14z" opacity=".4" transform="rotate(90)"/><path d="m14-33h16v2h-16z" opacity=".4" transform="rotate(90)"/><path d="m32-33h16v2h-16z" opacity=".4" transform="rotate(90)"/><path d="m14-25h6v2h-6z" opacity=".4" transform="rotate(90)"/><path d="m22-25h6v2h-6z" opacity=".4" transform="rotate(90)"/><path d="m30-25h12v2h-12z" opacity=".4" transform="rotate(90)"/></g></svg>