<svg height="64" width="64" xmlns="http://www.w3.org/2000/svg" xmlns:xlink="http://www.w3.org/1999/xlink"><linearGradient id="a" gradientTransform="matrix(1.0271756 0 0 1 -394.97889 -499.79799)" gradientUnits="userSpaceOnUse" x2="0" y1="543.79797" y2="503.798"><stop offset="0" stop-color="#2a2c2f"/><stop offset="1" stop-color="#424649"/></linearGradient><linearGradient id="b" gradientUnits="userSpaceOnUse" x2="0" y1="543.79797" y2="511.798"><stop offset="0" stop-color="#1f2021"/><stop offset="1" stop-color="#272b2d"/></linearGradient><linearGradient id="c" gradientUnits="userSpaceOnUse" x2="0" y1="520.34692" y2="503.798"><stop offset="0" stop-color="#c61423"/><stop offset="1" stop-color="#dc2b41"/></linearGradient><linearGradient id="d" gradientUnits="userSpaceOnUse" x1="23.999987" x2="47.999985" y1="32.00002" y2="56.00002"><stop offset="0" stop-color="#292c2f"/><stop offset="1" stop-opacity="0"/></linearGradient><g transform="translate(-376.57144 -491.79797)"><path d="m388.57144 510.79797c-.554 0-1 .446-1 1v7c0 .554.446 1 1 1h2v-9z" fill="#afc0c6"/><path d="m11 6v14h2v13h-2v25h42v-30h-1v-5h1v-10l-7-7z" fill="url(#a)" transform="translate(376.57144 491.79797)"/><path d="m387.57144 548.79797h42v1.00002h-42z" fill="#1c1e20" stroke-opacity=".550265" stroke-width="2.8"/><rect fill="#abb9be" height="15.599988" rx="7.799993" stroke-width=".1" width="15.599988" x="400.77151" y="506.89804"/><path d="m390.57144 511.798h35.999985v31.999989h-35.999985z" fill="url(#b)"/><path d="m28.707031 31.292969-1.414062 1.414062 8.050781 8.050781-.224609.242188 17 17h.880859v-8.880859l-13.195312-13.195313-3.103516 3.363281zm-2.146484 6.146484-2.121094 2.121094 5.5 5.5-1.353515 1.353515 11.585937 11.585938h6.949219z" fill="url(#d)" opacity=".2" transform="translate(376.57144 491.79797)"/><path d="m390.57144 505.798h35.999985v10.999989h-35.999985z" fill="url(#c)"/><rect fill="#1c1e20" height="2" rx="1" width="30.999985" x="393.07144" y="545.79785"/><path d="m387.57144 511.798h2v1h-2z" fill="#96aab5"/><g fill="#afc0c6"><path d="m404.57144 522.79797c-.554 0-1 .446-1 1s.446 1 1 1 1-.446 1-1-.446-1-1-1z"/><path d="m411.57144 522.79797-2 2 3 3-3 3 2 2 3-3 2-2z"/><path d="m402.07144 528.79797c-.831 0-1.5.669-1.5 1.5s.669 1.5 1.5 1.5 1.5-.669 1.5-1.5-.669-1.5-1.5-1.5z"/><path d="m406.57144 534.79797c-1.108 0-2 .892-2 2s.892 2 2 2 2-.892 2-2-.892-2-2-2z"/></g><path d="m16 16v1h12v-1zm0 2v1h18v-1zm0 2v1h8v-1zm0 2v1h5v-1z" fill="#dfe6e8" transform="translate(376.57144 491.79797)"/><path d="m394.57144 519.79799-1.00001.99998-.99999-.99998z" fill="#dfe6e8" fill-rule="evenodd"/><path d="m43 47v1h5v-1zm0 2v1h2v-1z" fill="#afc0c6" transform="translate(376.57144 491.79797)"/></g></svg>