<svg height="64" width="64" xmlns="http://www.w3.org/2000/svg" xmlns:xlink="http://www.w3.org/1999/xlink"><linearGradient id="a" gradientTransform="matrix(0 1.0271756 1 0 -499.79799 -395.97889)" gradientUnits="userSpaceOnUse" x1="432.23273" x2="401.07935"><stop offset="0" stop-color="#2a2c2f"/><stop offset="1" stop-color="#424649"/></linearGradient><linearGradient id="b" gradientUnits="userSpaceOnUse" x1="386.571427" x2="410.571425" y1="511.79799" y2="535.79799"><stop offset="0" stop-color="#292c2f"/><stop offset="1" stop-opacity="0"/></linearGradient><g transform="translate(-376.57144 -491.79797)"><path d="m6 16v25l7 7h8 2 5 2 28v-5.361328a4 4 0 0 1 -1-2.638672 4 4 0 0 1 1-2.638672v-21.361328h-25-13z" fill="url(#a)" transform="translate(376.57144 491.79797)"/><path d="m12 47 1 1h45v-1h-45z" fill="#1c1e20" stroke-opacity=".550265" stroke-width="2.8" transform="translate(376.57144 491.79797)"/><path d="m391.27847 511.09094-1.41406 1.41406 8.05078 8.05078-.22461.24219 17 17h.88086v-8.88086l-13.19531-13.19531-3.10352 3.36328zm-2.14648 6.14648-2.1211 2.1211 5.5 5.5-1.35351 1.35351 11.58593 11.58594h6.94922z" fill="url(#b)" opacity=".2"/><g fill="#afc0c6"><path d="m390.57144 510.79797c-.554 0-1 .446-1 1s.446 1 1 1 1-.446 1-1-.446-1-1-1z"/><path d="m397.57144 510.79797-2 2 3 3-3 3 2 2 3-3 2-2z"/><path d="m388.07144 516.79797c-.831 0-1.5.669-1.5 1.5s.669 1.5 1.5 1.5 1.5-.669 1.5-1.5-.669-1.5-1.5-1.5z"/><path d="m392.57144 522.79797c-1.108 0-2 .892-2 2s.892 2 2 2 2-.892 2-2-.892-2-2-2z"/><path d="m414.57144 529.79797v1h12v-1zm0 2v1h18v-1zm0 2v1h8v-1zm0 2v1h5v-1z"/><path d="m391.57144 532.79797v1h5v-1zm0 2v1h2v-1z"/></g><path d="m432.57144 511.79799-1.00001.99998-.99999-.99998z" fill="#dfe6e8" fill-rule="evenodd"/></g></svg>