<svg height="64" width="64" xmlns="http://www.w3.org/2000/svg" xmlns:xlink="http://www.w3.org/1999/xlink"><linearGradient id="a" gradientTransform="matrix(1.0833331 0 0 1.0909092 -36.04753 -47.800024)" gradientUnits="userSpaceOnUse" x2="0" y1="536.79797" y2="503.798"><stop offset="0" stop-color="#2a2c2f"/><stop offset="1" stop-color="#424649"/></linearGradient><linearGradient id="b" gradientTransform="matrix(.50000031 0 0 .72726714 198.2856 146.40233)" gradientUnits="userSpaceOnUse" x2="0" xlink:href="#c" y1="547.79797" y2="536.79797"/><linearGradient id="c"><stop offset="0" stop-color="#c6cdd1"/><stop offset="1" stop-color="#e0e5e7"/></linearGradient><linearGradient id="d"><stop offset="0" stop-color="#ee6406"/><stop offset="1" stop-color="#ffce0d"/></linearGradient><linearGradient id="e" gradientTransform="matrix(1.1818179 0 0 1.2 -74.28562 -103.1598)" gradientUnits="userSpaceOnUse" x2="0" y1="535.79797" y2="505.798"><stop offset="0" stop-color="#21c9fb"/><stop offset="1" stop-color="#197cf1"/></linearGradient><radialGradient id="f" cx="408.57145" cy="520.79803" gradientTransform="matrix(1.1818179 0 0 .8181816 -74.28562 95.69047)" gradientUnits="userSpaceOnUse" r="22.00001"><stop offset="0" stop-opacity="0"/><stop offset="1" stop-opacity=".452632"/></radialGradient><linearGradient id="g" gradientTransform="matrix(1.2857142 0 0 1.2857143 377.71429 494.79785)" gradientUnits="userSpaceOnUse" x1="33" x2="24" xlink:href="#d" y1="21" y2="12"/><linearGradient id="h" gradientTransform="matrix(1.2399993 0 0 1 -98.49683 .499815)" gradientUnits="userSpaceOnUse" x1="428.57144" x2="388.57144" xlink:href="#d"/><linearGradient id="i" gradientTransform="matrix(.50000031 0 0 .72726714 210.2856 146.40233)" gradientUnits="userSpaceOnUse" x2="0" xlink:href="#c" y1="547.79797" y2="536.79797"/><g transform="translate(-376.57144 -491.79797)"><g stroke-opacity=".550265" stroke-width="2.8"><path d="m411.57143 536.79786v5.09077 1.45455 1.45461h6v-1.45461-1.45455-5.09077z" fill="url(#i)"/><path d="m399.57143 536.79786v5.09077 1.45455 1.45461h6v-1.45461-1.45455-5.09077z" fill="url(#b)"/><path d="m376.57144 502.798h63.999985v34.999859h-63.999985z" fill="url(#a)"/><path d="m384.57144 503.79785h47.999985v33h-47.999985z" fill="url(#e)"/><path d="m384.57144 503.79785h47.999985v33h-47.999985z" fill="url(#f)" opacity=".85"/></g><path d="m384.57144 531.79785h47.999985v4.799995h-47.999985z" fill-opacity=".621053" opacity=".85" stroke-width=".1"/><path d="m384.57144 503.99017h48v4.807694h-48z" fill-opacity=".621053" opacity=".85" stroke-width=".1"/><path d="m385.19145 533.79781c-.3435 0-.62001.223-.62001.5s.27651.5.62001.5h30.37998v-1z" fill="url(#h)" stroke-width=".1"/><path d="m408.57144 512.79785c-4.98599 0-9 4.01401-9 9s4.01401 9 9 9 9-4.01401 9-9-4.01401-9-9-9zm0 1a8 8 0 0 1 8 8 8 8 0 0 1 -8 8 8 8 0 0 1 -8-8 8 8 0 0 1 8-8z" fill="#fff" fill-opacity=".452632" opacity=".85" stroke-width=".1"/><path d="m408.57144 512.79785v1a8 8 0 0 1 8 8h1c0-4.98599-4.01401-9-9-9z" fill="url(#g)" opacity=".85" stroke-width=".1"/><g transform="translate(-.000011 -2.00012)"><rect height="5.999984" opacity=".8" rx="2.954537" ry="2.999992" stroke-width=".1" width="5.909074" x="405.61691" y="520.79797"/><path d="m410.34414 523.79796-2.95454-1.8v3.6z" fill="#fff" fill-rule="evenodd"/></g><path d="m416.57144 533.79781v1h15.38461c.34094 0 .61539-.223.61539-.5s-.27445-.5-.61539-.5z" fill="#999" stroke-width=".1"/><rect fill="#fff" height="3" rx="1.5" stroke-width=".1" width="3" x="414.57144" y="532.79785"/><path d="m394.57144 543.79803h28v1.00001h-28z" fill="#99a1a7" stroke-opacity=".550265" stroke-width="2.8"/><rect fill="#1e2426" height="28" rx="1.999993" width="3.999987" x="434.57144" y="505.798"/><rect fill="#1e2426" height="28" rx="1.999993" width="3.999987" x="378.57144" y="505.798"/></g></svg>