<svg height="48" width="48" xmlns="http://www.w3.org/2000/svg"><path d="m16 8c-1.704135.0027-3.326745.72986-4.462891 2h-1.537109c-3.3135713.000331-5.9996687 2.686429-6 6v13c.0003313 3.313571 2.6864287 5.999669 6 6h.810547c1.07069 1.854245 3.048286 2.997485 5.189453 3h.351562c.846685 2.394256 3.108887 3.996258 5.648438 4h4c2.540268-.0029 4.803467-1.60507 5.650391-4h.349609c2.140468-.0032 4.11716-1.146358 5.1875-3h.8125c3.313571-.000331 5.999669-2.686429 6-6v-13c-.000331-3.313571-2.686429-5.999669-6-6h-1.537109c-1.136146-1.27014-2.758756-1.9972964-4.462891-2h-4c-1.477073.0026-2.901294.5498937-4 1.5371094-1.098706-.9872157-2.522927-1.5345117-4-1.5371094z" opacity=".2" stroke-linecap="round" stroke-linejoin="round" stroke-width="12"/><path d="m16 7c-1.704135.0027-3.326745.72986-4.462891 2h-1.537109c-3.3135713.0003313-5.9996687 2.686429-6 6v13c.0003313 3.313571 2.6864287 5.999669 6 6h.810547c1.07069 1.854245 3.048286 2.997485 5.189453 3h.351562c.846685 2.394256 3.108887 3.996258 5.648438 4h4c2.540268-.0029 4.803467-1.60507 5.650391-4h.349609c2.140468-.0032 4.11716-1.146358 5.1875-3h.8125c3.313571-.000331 5.999669-2.686429 6-6v-13c-.000331-3.313571-2.686429-5.9996687-6-6h-1.537109c-1.136146-1.27014-2.758756-1.9972964-4.462891-2h-4c-1.477073.0026-2.901294.5498937-4 1.5371094-1.098706-.9872157-2.522927-1.5345117-4-1.5371094z" fill="#f85b79" stroke-linecap="round" stroke-linejoin="round" stroke-width="12"/><g fill="#0b0b0b" opacity=".2" transform="translate(3 -1)"><path d="m7 17v3h4c0-1.000012 0-1.999988 0-3-1.3333333 0-2.666666 0-4 0z"/><path d="m7 22v3h4c0-1.000012 0-1.999988 0-3-1.3333333 0-2.666666 0-4 0z"/><path d="m7 27v3h4c0-1.000012 0-1.999988 0-3-1.3333333 0-2.666666 0-4 0z"/><path d="m13 15v3h4c0-1.000012 0-1.999988 0-3-1.333333 0-2.666666 0-4 0z"/><path d="m13 20v3h4c0-1.000012 0-1.999988 0-3-1.333333 0-2.666666 0-4 0z"/><path d="m13 25v3h4c0-1.000012 0-1.999988 0-3-1.333333 0-2.666666 0-4 0z"/><path d="m13 30v3h4c0-1.000012 0-1.999988 0-3-1.333333 0-2.666666 0-4 0z"/><path d="m19 19v3h4c0-1.000012 0-1.999988 0-3-1.333333 0-2.666666 0-4 0z"/><path d="m19 24v3h4c0-1.000012 0-1.999988 0-3-1.333333 0-2.666666 0-4 0z"/><path d="m19 29v3h4c0-1.000012 0-1.999988 0-3-1.333333 0-2.666666 0-4 0z"/><path d="m19 34v3h4c0-1.000012 0-1.999988 0-3-1.333333 0-2.666666 0-4 0z"/><path d="m35 17v3c-1.333334 0-2.666667 0-4 0 0-1.000012 0-1.999988 0-3z"/><path d="m35 22v3c-1.333334 0-2.666667 0-4 0 0-1.000012 0-1.999988 0-3z"/><path d="m35 27v3c-1.333334 0-2.666667 0-4 0 0-1.000012 0-1.999988 0-3z"/><path d="m29 15v3c-1.333334 0-2.666667 0-4 0 0-1.000012 0-1.999988 0-3z"/><path d="m29 20v3c-1.333334 0-2.666667 0-4 0 0-1.000012 0-1.999988 0-3z"/><path d="m29 25v3c-1.333334 0-2.666667 0-4 0 0-1.000012 0-1.999988 0-3z"/><path d="m29 30v3c-1.333334 0-2.666667 0-4 0 0-1.000012 0-1.999988 0-3z"/></g><g fill="#fff"><path d="m16 13v3h4v-3zm12 0v3h4v-3zm-18 2v3h4v-3zm24 0v3h4v-3zm-12 2v3h4v-3zm-6 1v3h4v-3zm12 0v3h4v-3zm-18 2v3h4v-3zm24 0v3h4v-3zm-12 2v3h4v-3zm-6 1v3h4v-3zm12 0v3h4v-3zm-18 2v3h4v-3zm24 0v3h4v-3zm-12 2v3h4v-3zm-6 1v3h4v-3zm12 0v3h4v-3zm-6 4v3h4v-3z"/><path d="m16 7c-1.704135.0027-3.326745.72986-4.462891 2h-1.537109c-3.3135713.0003313-5.9996687 2.686429-6 6v1c.0003313-3.313571 2.6864287-5.999669 6-6h1.537109c1.136146-1.27014 2.758756-1.9973 4.462891-2h4c1.477073.0025977 2.901294.5498937 4 1.5371094 1.098706-.9872157 2.522927-1.5345094 4-1.5371094h4c1.704135.0027036 3.326745.72986 4.462891 2h1.537109c3.313571.000331 5.999669 2.686429 6 6v-1c-.000331-3.313571-2.686429-5.9996687-6-6h-1.537109c-1.136146-1.27014-2.758756-1.9972964-4.462891-2h-4c-1.477073.0026-2.901294.5498937-4 1.5371094-1.098706-.9872157-2.522927-1.5345117-4-1.5371094z" opacity=".29" stroke-linecap="round" stroke-linejoin="round" stroke-width="12"/></g></svg>