<svg height="48" viewBox="0 0 48 48" width="48" xmlns="http://www.w3.org/2000/svg"><path d="m10.181818 5.0000002c-1.2087278 0-2.1818188.9557143-2.1818188 2.1428571v35.7142857c0 1.187142.973091 2.142857 2.1818188 2.142857h27.636365c1.208727 0 2.181818-.955715 2.181818-2.142857v-35.7142857c0-1.1871428-.973091-2.1428571-2.181818-2.1428571z" opacity=".2"/><path d="m10.181818 4.0000002c-1.2087278 0-2.1818188.9557143-2.1818188 2.1428571v35.7142857c0 1.187142.973091 2.142857 2.1818188 2.142857h27.636365c1.208727 0 2.181818-.955715 2.181818-2.142857v-35.7142857c0-1.1871428-.973091-2.1428571-2.181818-2.1428571z" fill="#3d65c2"/><path d="m24 11v7h-7v6h7v15h6v-15h7v-6h-7v-7z" opacity=".2"/><path d="m10.181818 4.0000002c-1.2087278 0-2.1818188.9557143-2.1818188 2.1428571v35.7142857c0 1.187142.973091 2.142857 2.1818188 2.142857h3.818182v-39.9999998z" opacity=".2"/><path d="m24 10h6v28h-6z" fill="#ffd972"/><path d="m17-37h6v20h-6z" fill="#ffd972" transform="rotate(90)"/><path d="m10.181641 4c-1.2087282 0-2.181641.9554353-2.181641 2.1425781v1c0-1.1871428.9729128-2.1425781 2.181641-2.1425781h27.636718c1.208727 0 2.181641.9554353 2.181641 2.1425781v-1c0-1.1871428-.972914-2.1425781-2.181641-2.1425781z" fill="#fff" opacity=".1"/><circle cx="36" cy="37" opacity=".2" r="11"/><circle cx="36" cy="36" fill="#ff982d" r="11"/><path d="m36 29a7 7 0 0 0 -7 7 7 7 0 0 0 7 7 7 7 0 0 0 7-7 7 7 0 0 0 -7-7zm0 2a5 5 0 0 1 5 5 5 5 0 0 1 -5 5 5 5 0 0 1 -5-5 5 5 0 0 1 5-5zm-1 1v3 1 1h5v-2h-3v-3z" fill="#fff"/></svg>