<svg height="48" width="48" xmlns="http://www.w3.org/2000/svg"><path d="m10.281295 11c-1.0280653.375066 2.192968 7.564809 1.347801 8.037993-1.472317.587299-2.5956499.962007-2.5956499.962007l-.0334461 10s6.713428 1.41688 11.624835 2c.984552.117298-16.5826577 9-16.5826577 9 4.9489668.001248 55.2647097-12.572073 35.2928967-21.978354-3.43071-1.826226-8.466777-3.021646-14.079474-3.021646-2.820137 0-5.411794.332745-7.708833.853996-1.105244.250805-6.304255-6.204641-7.265348-5.853996z" opacity=".2"/><path d="m10.281295 10c-1.0280653.375066 2.192968 7.564809 1.347801 8.037993-1.472317.587299-2.5956499.962007-2.5956499.962007l-.0334461 10s6.713428 1.41688 11.624835 2c.984552.117298-16.5826577 9-16.5826577 9 4.9489668.001248 55.2647097-12.572073 35.2928967-21.978354-3.43071-1.826226-8.466777-3.021646-14.079474-3.021646-2.820137 0-5.411794.332745-7.708833.853996-1.105244.250805-6.304255-6.2046414-7.265348-5.853996z" fill="#43c4c4"/><path d="m9 20v-1h-4.9999999v12h4.9999999v-1c8.581436-1.348325 13.100829-3.371537 13-5.057748-.09849-1.647046-4.61788-3.623926-13-4.942252z" opacity=".2"/><path d="m9 19v-1h-4.9999999v12h4.9999999v-1c8.581436-1.348325 13.100829-3.371537 13-5.057748-.09849-1.647046-4.61788-3.623926-13-4.942252z" fill="#a9dde4"/><path d="m34.058594 17.064453c-.02827.227549-.05753.462557-.05859.640625.0021 3.290786 4.391839 5.987268 9.990234 6.265625.07251-1.689381-1.289254-3.364358-4.654296-4.949219-1.482123-.788959-3.278927-1.449062-5.277344-1.957031z" opacity=".2"/><path d="m34.058594 16.064453c-.028269.227549-.057526.462557-.058594.640625.002102 3.290786 4.391839 5.987268 9.990234 6.265625.07251-1.689381-1.289254-3.364358-4.654296-4.949219-1.482123-.788959-3.278927-1.449062-5.277344-1.957031z" fill="#a9dde4"/><g fill="#fff"><path d="m10.28125 10c-.230584.084123-.239821.521586-.136719 1.138672.032798-.06706.075915-.116489.136719-.138672.961093-.350645 6.160381 6.104321 7.265625 5.853516 2.297039-.521251 4.888847-.853516 7.708984-.853516 5.612697 0 10.649369 1.195258 14.080079 3.021484 2.951493 1.390088 4.356686 2.850509 4.611328 4.328125.306313-1.81755-.994765-3.624804-4.611328-5.328125-3.43071-1.826226-8.467382-3.021484-14.080079-3.021484-2.820137 0-5.411945.332265-7.708984.853516-1.105244.250805-6.304532-6.2041614-7.265625-5.853516zm1.398438 7.962891c-.01755.023712-.026956.060879-.050782.074218-1.472317.587299-2.5957029.962891-2.5957029.962891l-.0332031 10s.0039032-.000001.0039062 0l.0292969-9s1.1233859-.375592 2.5957029-.962891c.174322-.097597.149466-.523878.050782-1.074218zm7.8125 13.875c-3.637844 2.184381-15.4492193 8.162109-15.4492192 8.162109.4757986.00012 1.4699585-.14884 2.6816406-.367188 4.8669486-2.488943 14.6430166-7.544337 13.9003906-7.632812-.357659-.042464-.759329-.111672-1.132812-.162109z" opacity=".1"/><path d="m4 18v1h5v-1zm5 1v1c7.646962 1.202702 12.067932 2.951563 12.861328 4.5.096401-.188901.149573-.376292.138672-.558594-.09849-1.647046-4.61788-3.62308-13-4.941406z" opacity=".1"/><path d="m34.058594 16.064453c-.028269.227549-.057526.462557-.058594.640625.000113.176651.018061.350494.042969.523438.006881-.058191.008382-.105768.015625-.164063 1.998417.507969 3.79522 1.168072 5.277344 1.957031 2.691723 1.267743 4.084558 2.593187 4.503906 3.9375.050635.002925.099554.009191.15039.011719.07251-1.689381-1.289254-3.364358-4.654296-4.949219-1.482124-.788959-3.278927-1.449062-5.277344-1.957031z" opacity=".1"/></g></svg>