<svg height="48" width="48" xmlns="http://www.w3.org/2000/svg"><rect fill="#69c276" height="40" rx="2" transform="matrix(0 -1 -1 0 0 0)" width="40" x="-44" y="-44"/><path d="m6 4c-1.108 0-2 .892-2 2v1c0-1.108.892-2 2-2h36c1.108 0 2 .892 2 2v-1c0-1.108-.892-2-2-2z" fill="#fff" opacity=".2"/><path d="m6 45c-1.108 0-2-.892-2-2v-1c0 1.108.892 2 2 2h36c1.108 0 2-.892 2-2v1c0 1.108-.892 2-2 2z" opacity=".2"/><path d="m24 16c-2.9364 0-5.4451 1.0351-6.4844 2.5-.08726.12299-.16463.24824-.23047.37695-.06257.12232-.11607.24618-.1582.37305a7 4 0 0 0 -.0293.11719c-.02399.08598-.05021.17205-.06445.25976a7 4 0 0 0 -.034.373c.000385.12998.01276.25978.03516.38867a7 4 0 0 0 .0957.375 7 4 0 0 0 .16211.37305 7 4 0 0 0 .223.363 7 4 0 0 0 6.484 2.5 7 4 0 0 0 6.4844-2.5 7 4 0 0 0 .002-.0039 7 4 0 0 0 .18945-.30859c.01111-.02028.02462-.04018.03516-.06055a7 4 0 0 0 .11523-.26562c.01631-.04185.03683-.08288.05078-.125a7 4 0 0 0 .05664-.22266c.01348-.05865.02819-.11679.03711-.17578a7 4 0 0 0 .029-.337 7 4 0 0 0 -.037-.398c-.067-.387-.233-.756-.479-1.102-1.039-1.465-3.548-2.5-6.484-2.5zm-6.4844 7.5a7 4 0 0 0 -.51562 1.5 7 4 0 0 0 7 4 7 4 0 0 0 7-4 7 4 0 0 0 -.51562-1.5 7 4 0 0 1 -6.4844 2.5 7 4 0 0 1 -6.4844-2.5zm0 5a7 4 0 0 0 -.51562 1.5 7 4 0 0 0 7 4 7 4 0 0 0 7-4 7 4 0 0 0 -.51562-1.5 7 4 0 0 1 -6.4844 2.5 7 4 0 0 1 -6.4844-2.5z" opacity=".1"/><path d="m24 15c-2.9364 0-5.4451 1.0351-6.4844 2.5-.08726.12299-.16463.24824-.23047.37695-.06257.12232-.11607.24618-.1582.37305a7 4 0 0 0 -.0293.11719c-.02399.08598-.05021.17205-.06445.25976a7 4 0 0 0 -.034.373c.000385.12998.01276.25978.03516.38867a7 4 0 0 0 .0957.375 7 4 0 0 0 .16211.37305 7 4 0 0 0 .223.363 7 4 0 0 0 6.484 2.5 7 4 0 0 0 6.4844-2.5 7 4 0 0 0 .002-.0039 7 4 0 0 0 .18945-.30859c.01111-.02028.02462-.04018.03516-.06055a7 4 0 0 0 .11523-.26562c.01631-.04185.03683-.08288.05078-.125a7 4 0 0 0 .05664-.22266c.01348-.05865.02819-.11679.03711-.17578a7 4 0 0 0 .029-.337 7 4 0 0 0 -.037-.398c-.067-.387-.233-.756-.479-1.102-1.039-1.465-3.548-2.5-6.484-2.5zm-6.4844 7.5a7 4 0 0 0 -.51562 1.5 7 4 0 0 0 7 4 7 4 0 0 0 7-4 7 4 0 0 0 -.51562-1.5 7 4 0 0 1 -6.4844 2.5 7 4 0 0 1 -6.4844-2.5zm0 5a7 4 0 0 0 -.51562 1.5 7 4 0 0 0 7 4 7 4 0 0 0 7-4 7 4 0 0 0 -.51562-1.5 7 4 0 0 1 -6.4844 2.5 7 4 0 0 1 -6.4844-2.5z" fill="#fff"/></svg>