<svg height="48" width="48" xmlns="http://www.w3.org/2000/svg"><ellipse cx="25" cy="24" fill="#ccc" rx="16" ry="15"/><path d="m22 4v3c-9.389 0-17 7.611-17 17 0 5.6431 2.75 10.644 6.9824 13.736 1.9893 1.2887 4.3615-3.0761 2.0391-4.7715-2.468-2.197-4.022-5.399-4.022-8.964 0-6.627 5.373-12 12-12v3l5.5-2.75 5.5-2.75-5.5-2.75-5.5-2.75z" fill="#9ccd44"/><path d="m37.2642 10.0291c-1.7552-.0047-3.3173 3.5224-1.2852 5.0059 2.467 2.198 4.021 5.4 4.021 8.965 0 6.627-5.373 12-12 12v-3l-5.5 2.75-5.5 2.75 5.5 2.75 5.5 2.75v-3c9.3888 0 17-7.6112 17-17 0-5.6431-2.75-10.644-6.9824-13.736-.24866-.16109-.50316-.23371-.75391-.23438z" fill="#5db43e"/><path d="m32 10-4.5 2.25-5.5 2.75v1l5.5-2.75 5.5-2.75zm-10 2c-6.627 0-12 5.373-12 12 0 .163.021.321.027.482.273-6.385 5.52-11.482 11.973-11.482zm13.064 1.553c-.144.914.078 1.871.915 2.482 2.355 2.097 3.859 5.114 3.994 8.483.007-.173.027-.343.027-.518 0-3.565-1.554-6.767-4.021-8.965-.532-.388-.814-.915-.915-1.482zm9.916 10.818c-.199 9.216-7.716 16.629-16.98 16.629v1c9.389 0 17-7.611 17-17 0-.211-.012-.42-.02-.629zm-39.96.258c-.0027.125-.0195.246-.0195.371 0 5.643 2.75 10.644 6.982 13.736 1.531.992 3.279-1.36 2.952-3.271-.265 1.617-1.684 3.093-2.952 2.271-4.0732-2.976-6.7656-7.723-6.962-13.107zm12.98 14.371-1 .5 5.5 2.75 5.5 2.75v-1l-5.5-2.75z" opacity=".2"/><path d="m22 4v1l5.5 2.75 4.5 2.25 1-.5-5.5-2.75zm0 3c-9.389 0-17 7.611-17 17 0 .211.0119313.419906.0195312.628906.1994-9.216 7.7169688-16.628906 16.9804688-16.628906zm15.263672 3.029297c-1.297-.003-2.484219 1.919437-2.199219 3.523437.207-1.307 1.166219-2.525437 2.199219-2.523437.25.001.504906.073375.753906.234375 4.074 2.976 6.766891 7.723422 6.962891 13.107422.003-.125.019531-.246094.019531-.371094 0-5.643-2.750422-10.644328-6.982422-13.736328-.249-.161-.503906-.233375-.753906-.234375z" fill="#fff" opacity=".1"/></svg>