<svg height="48" width="48" xmlns="http://www.w3.org/2000/svg"><rect fill="#4f4f4f" height="40" rx="2" transform="matrix(0 -1 -1 0 0 0)" width="40" x="-44" y="-44"/><path d="m21.229 4.9648c-2.7044-.00688-5.4078-.0092-8.2773.025391-11.784 13.605-.093 22.377 9.751 24.496-10.419-6.755-1.938-19.372 6.805-24.515-2.8697.014098-5.5749.00102-8.2793-.00586zm4.121 15.51c9.735 6.312 2.315 18.332-9.543 23.525h21.801c7.073-13.598-2.642-21.455-12.258-23.525zm-3.2168.50586a4.8433 2.9227 45 0 0 -.14844.0039 4.8433 2.9227 45 0 0 -1.4102.57227 4.8434 2.9227 45 1 0 6.8496 6.8496 4.8433 2.9227 45 0 0 -5.291-7.4258z" fill-rule="evenodd" opacity=".2"/><g fill="#ff6363"><path d="m12.951 4.0106c-11.784 13.604-.092 22.375 9.752 24.495-10.419-6.756-1.938-19.374 6.804-24.517-5.739.0286-10.817-.0476-16.556.0216z" fill-rule="evenodd"/><path d="m27.424 27.425a4.8433 2.9227 45 0 1 -6.8495-6.8495 4.8433 2.9227 45 1 1 6.8495 6.8495z"/><path d="m37.087 43.989c8.062-14.197-1.894-22.375-11.738-24.495 10.419 6.756 1.191 20.051-12.099 24.517 5.7393-.02819 18.098.04799 23.837-.02118z" fill-rule="evenodd"/></g><path d="m6 4c-1.108 0-2 .892-2 2v1c0-1.108.892-2 2-2h36c1.108 0 2 .892 2 2v-1c0-1.108-.892-2-2-2z" fill="#fff" opacity=".1"/><path d="m6 45c-1.108 0-2-.892-2-2v-1c0 1.108.892 2 2 2h36c1.108 0 2-.892 2-2v1c0 1.108-.892 2-2 2z" opacity=".2"/></svg>