<svg viewBox="0 0 48 48" xmlns="http://www.w3.org/2000/svg"><path d="m13.5 6-1.5 4v31.971l1.6 2.029h-.1v1h21v-1h-.09961l1.6-2.029v-31.971l-1.5-4h-21z" opacity=".2"/><path d="m13.5 5h21l1.5 4v31.971l-1.6 2.029h-20.8l-1.6-2.029v-31.971z" fill="#c2352a"/><path d="m13.5 4h21v1h-21z" fill="#808080"/><path d="m12 9h24v2h-24z" fill="#fff"/><path d="m13.5 43h21v1h-21z" fill="#808080"/><g fill="#fff"><path d="m12 39h24v2h-24z"/><path d="m15.619 9.4336-1.455 1.3734 3.617 3.828a4 4 0 0 0 -.779 2.365 4 4 0 0 0 3 3.867v7.264a4 4 0 0 0 -3 3.869 4 4 0 0 0 4 4 4 4 0 0 0 4-4 4 4 0 0 0 -3-3.867v-7.264a4 4 0 0 0 1.18-.517l2.416 2.556a4 4 0 0 0 -.596 2.092 4 4 0 0 0 4 4 4 4 0 0 0 4-4 4 4 0 0 0 -4-4 4 4 0 0 0 -1.965.521l-2.502-2.65a4 4 0 0 0 .467-1.871 4 4 0 0 0 -4-4 4 4 0 0 0 -1.666.369z" fill-rule="evenodd"/><path d="m13.5 5-1.5 4v1l1.5-4h21l1.5 4v-1l-1.5-4z" opacity=".1"/></g></svg>