<svg height="48" width="48" xmlns="http://www.w3.org/2000/svg"><path d="m32.643 4.9707a15 15 0 0 1 -11.842 9.6463 15 15 0 0 1 .199 2.383 15 15 0 0 1 -14.861 14.992c3.2829 6.534 10.023 11.008 17.861 11.008 11.08 0 20-8.92 20-20 0-7.976-4.634-14.814-11.357-18.029z" fill="#dfbe57"/><path d="m43.984 23.596c-.314 10.801-9.104 19.404-19.984 19.404-7.434 0-13.884-4.023-17.33-10.013l-.54302.0082c.027157.05408.054551.10802.082181.16182 3.3117 6.448 10.017 10.843 17.791 10.843 11.08 0 20-8.92 20-20 0-.13604-.01294-.26892-.01563-.4043z" opacity=".2"/><path d="m32.643 4.9707a15 15 0 0 1 -11.842 9.6463 15 15 0 0 1 .111.979 15 15 0 0 0 11.731-9.6253c6.607 3.1603 11.187 9.8213 11.343 17.621.006-.197.014-.393.014-.592 0-7.976-4.634-14.814-11.357-18.029zm-11.663 12.422a15 15 0 0 1 -14.841 14.599c.1669.333.35.657.5348.979a15 15 0 0 0 14.326-14.971 15 15 0 0 0 -.02-.607z" fill="#fff" opacity=".2"/></svg>