<svg height="48" width="48" xmlns="http://www.w3.org/2000/svg"><path d="m29.036 4.8135c-.48-.277-1.089-.1138-1.366.366l-1.36 2.3545a18 18 0 0 0 -19.898 8.466 18 18 0 0 0 6.588 24.588 18 18 0 0 0 24.588-6.588 18 18 0 0 0 -2.619-21.463l1.3613-2.3579c.277-.47978.11375-1.089-.36603-1.366l-6.9282-4z" fill="#4f4f4f"/><path d="m36.32 10.196-1.351 2.3417a18 18 0 0 1 .347.397l1.014-1.754c.184-.3186.158-.6872-.01-.9847zm-32.295 15.117a18 18 0 0 0 8.9746 16.276 18 18 0 0 0 24.588-6.588 18 18 0 0 0 2.381-9.307 18 18 0 0 1 -2.381 8.307 18 18 0 0 1 -24.588 6.588 18 18 0 0 1 -8.9746-15.276z" opacity=".2"/><path d="m28.658 4.6855c-.387-.0484-.78.1344-.988.4942l-1.359 2.3535a18 18 0 0 0 -19.899 8.4668 18 18 0 0 0 -2.3866 9.312 18 18 0 0 1 2.3867-8.312 18 18 0 0 1 19.899-8.4668l1.359-2.3535c.277-.4798.885-.6442 1.365-.3672l6.93 4c.161.0932.27.2315.355.3825l.01-.015c.277-.4801.115-1.0905-.365-1.3675l-6.93-4c-.12-.0693-.248-.1108-.377-.127zm6.658 8.2485-.347.603a18 18 0 0 1 5 12.156 18 18 0 0 0 -4.653-12.759z" fill="#fff" opacity=".1"/><path d="m39.363 6.3757c-.401-.2771-.864-.4593-1.32-.5771-.912-.2355-1.902-.2682-2.843-.2319-1.883.0726-3.597.4535-3.597.4535-.115.0213-.217.0542-.306.0987l2.7014 1.5596c.39979-.044239.8409-.095237 1.2785-.11211.82921-.031972 1.671.013695 2.2668.16756.5958.15387.83427.36005.90896.54283.28164.68923.1567 1.063-.35185 1.7071-.50855.64411-1.4608 1.3704-2.5379 2.1184-1.077.74794-2.2718 1.5293-3.2887 2.454-1.0169.92462-1.8988 2.0337-2.1155 3.4493-.23723 1.5498.483 3.0827 1.14 4.3771.65696 1.2944 1.3553 2.3048 1.3553 2.3048.74193 1.1675 2.472-.02324 1.6466-1.1332 0 0-.62967-.91678-1.2185-2.077-.58884-1.1602-1.0322-2.6093-.94644-3.1693.11501-.75134.63512-1.5009 1.483-2.2718.84792-.77097 1.9801-1.5218 3.0854-2.2894 1.1053-.76759 2.1914-1.5396 2.9673-2.5223.77583-.98265 1.1821-2.3644.63449-3.7044-.20272-.4961-.54197-.86716-.94286-1.1443z" fill="#bbb673" fill-rule="evenodd"/><path d="m41.037 20.98-1.898 4.4649 4.3723 2.2966-4.7296 1.2584.96754 4.7918-3.9997-2.8957-3.1658 3.6787-.25794-4.8693-4.9152-.20454 3.6781-3.1762-2.9634-3.9337 4.8444.90864 1.2199-4.7008 2.3628 4.3093z" fill="#ff6363"/><path d="m34.189 18.598-1.22 4.701-4.844-.908.877 1.164 3.967.744 1.22-4.699 2.364 4.308 3.965-1.703.519-1.225-4.484 1.928zm5.297 7.029-.347.818 3.109 1.633 1.264-.336zm-8.855 1.092-3.221 2.781 1.106.047 2.572-2.223zm8.342 3.23-.192.051.733 3.619.236.172z" fill="#fff" opacity=".1"/><path d="m41.037 21.98-.519.225-1.379 3.24.347.182zm-12.912 1.411 2.506 3.328.457-.395-2.086-2.769zm14.123 4.687-3.467.922.192.949 4.539-1.207zm-13.734 1.469-1.104.953 4.916.205.258 4.869 3.166-3.678 4 2.895-.236-1.17-3.764-2.725-3.166 3.678-.258-4.869z" opacity=".2"/></svg>