<svg height="48" width="48" xmlns="http://www.w3.org/2000/svg"><path d="m24 4c-11.08 0-20 8.92-20 20s8.92 20 20 20c6.8107 0 12.805-3.3703 16.414-8.5409l-16.414-11.459 18.895-6.595c-2.713-7.8206-10.128-13.405-18.895-13.405z" fill="#fecd38"/><circle cx="26" cy="13" fill="#3f3f3f" r="3"/><path d="m24 4c-11.08 0-20 8.92-20 20 0 .168.0076.333.0117.5.2647-10.846 9.0763-19.5 19.988-19.5 8.4317 0 15.6 5.1714 18.551 12.523l.34375-.11914c-2.714-7.8199-10.128-13.404-18.895-13.404zm.955 20.666-.955.334 15.924 11.117c.16562-.21768.33349-.4336.49023-.6582l-15.459-10.793z" fill="#fff" opacity=".2"/><path d="m42.551 17.523-18.551 6.477.95508.66602 17.939-6.2617c-.104-.299-.226-.588-.344-.881zm-38.539 6.977c-.0041.167-.0117.332-.0117.5 0 11.08 8.92 20 20 20 6.8107 0 12.806-3.3704 16.414-8.541l-.49-.342c-3.647 4.794-9.409 7.883-15.924 7.883-10.912 0-19.724-8.654-19.988-19.5z" opacity=".2"/></svg>