<svg height="48" width="48" xmlns="http://www.w3.org/2000/svg"><circle cx="22.785" cy="8.785" fill="#4f4f4f" r="10" transform="matrix(.8660254 .5 -.5 .8660254 0 0)"/><circle cx="-1.215" cy="-32.785" fill="#ccc" r="10" transform="matrix(-.5 .8660254 -.8660254 -.5 0 0)"/><circle cx="42.785" cy="8.785" fill="#4f4f4f" r="10" transform="matrix(.8660254 .5 -.5 .8660254 0 0)"/><circle cx="18.785" cy="-32.785" fill="#ccc" r="10" transform="matrix(-.5 .8660254 -.8660254 -.5 0 0)"/><path d="m29.236 5.3438a10 10 0 0 0 -.709.0078 10 10 0 0 0 -8.187 4.9884 10 10 0 0 0 -13.66 3.66 10 10 0 0 0 -1.3187 5.496 10 10 0 0 1 1.3184-4.496 10 10 0 0 1 13.66-3.66 10 10 0 0 1 8.187-4.9884 10 10 0 0 1 5.473 1.3281 10 10 0 0 1 4.979 8.1643 10 10 0 0 0 -4.979-9.1643 10 10 0 0 0 -4.764-1.3359zm8.813 15.238a10 10 0 0 1 -.389.758 10 10 0 0 1 4.979 8.164 10 10 0 0 0 -4.59-8.922zm-28.098 7.836a10 10 0 0 0 -.9297 4.738 10 10 0 0 1 1.3185-4.496 10 10 0 0 1 -.3888-.242z" fill="#fff" opacity=".1"/><path d="m38.979 15.844a10 10 0 0 1 -1.319 4.496 10 10 0 0 1 .389.242 10 10 0 0 0 .93-4.738zm-33.618 3.652a10 10 0 0 0 4.5899 8.922 10 10 0 0 1 .3888-.758 10 10 0 0 1 -4.9787-8.164zm37.278 10.008a10 10 0 0 1 -1.319 4.496 10 10 0 0 1 -13.66 3.66 10 10 0 0 1 -13.66 3.66 10 10 0 0 1 -4.9785-8.164 10 10 0 0 0 4.9785 9.164 10 10 0 0 0 13.66-3.66 10 10 0 0 0 13.66-3.66 10 10 0 0 0 1.319-5.496z" opacity=".2"/></svg>