<svg height="48" width="48" xmlns="http://www.w3.org/2000/svg"><path d="m44 42v-36c0-1.108-.892-2-2-2h-36c-1.108 0-2 .892-2 2v36c0 1.108.892 2 2 2h36c1.108 0 2-.892 2-2z" fill="#768c5a"/><path d="m6 4c-1.108 0-2 .892-2 2v1c0-1.108.892-2 2-2h36c1.108 0 2 .892 2 2v-1c0-1.108-.892-2-2-2z" fill="#fff" opacity=".2"/><path d="m4 42v1c0 1.108.892 2 2 2h36c1.108 0 2-.892 2-2v-1c0 1.108-.892 2-2 2h-36c-1.108 0-2-.892-2-2z" opacity=".2"/><path d="m15 39h18v4h-18z" opacity=".2"/><circle cx="27" cy="32" opacity=".2" r="3"/><path d="m21 10h6v6h-6z" opacity=".2"/><path d="m28 10h6v6h-6z" opacity=".2"/><path d="m35 10h6v6h-6z" opacity=".2"/><path d="m7 17h6v6h-6z" opacity=".2"/><path d="m21 17h6v6h-6z" opacity=".2"/><path d="m28 17h6v6h-6z" opacity=".2"/><g fill="#ffff80"><path d="m15 38h18v4h-18z"/><circle cx="27" cy="31" r="3"/><path d="m21 9h6v6h-6z"/><path d="m28 9h6v6h-6z"/><path d="m35 9h6v6h-6z"/><path d="m7 16h6v6h-6z"/><path d="m21 16h6v6h-6z"/><path d="m28 16h6v6h-6z"/></g></svg>