<svg height="48" width="48" xmlns="http://www.w3.org/2000/svg"><rect fill="#6688be" height="40" rx="2" transform="matrix(0 -1 -1 0 0 0)" width="40" x="-44" y="-44"/><path d="m6 4c-1.108 0-2 .892-2 2v1c0-1.108.892-2 2-2h36c1.108 0 2 .892 2 2v-1c0-1.108-.892-2-2-2z" fill="#fff" opacity=".2"/><path d="m4 42v1c0 1.108.892 2 2 2h36c1.108 0 2-.892 2-2v-1c0 1.108-.892 2-2 2h-36c-1.108 0-2-.892-2-2z" opacity=".2"/><g fill="none" stroke="#5b5b5b" stroke-linejoin="round" stroke-width="2"><path d="m11 24h20"/><path d="m21 24 5-10"/><path d="m21 24 5 10h10"/></g><g fill="#060606" opacity=".2"><circle cx="11" cy="25" r="3"/><circle cx="21" cy="25" r="3"/><circle cx="31" cy="25" r="3"/><circle cx="26" cy="35" r="3"/><circle cx="36" cy="35" r="3"/><circle cx="26" cy="15" r="3"/></g><g fill="#fff"><circle cx="11" cy="24" r="3"/><circle cx="21" cy="24" r="3"/><circle cx="31" cy="24" r="3"/><circle cx="26" cy="34" r="3"/><circle cx="36" cy="34" r="3"/><circle cx="26" cy="14" r="3"/></g></svg>