<svg height="48" width="48" xmlns="http://www.w3.org/2000/svg"><rect fill="#1da6e8" height="40" rx="20" transform="matrix(0 -1 -1 0 0 0)" width="40" x="-44" y="-44"/><path d="m24 4c-11.08 0-20 8.92-20 20 0 .168.008.333.0117.5.2647-10.846 9.0763-19.5 19.988-19.5s19.724 8.6539 19.988 19.5c.004-.16686.0117-.33213.0117-.5 0-11.08-8.92-20-20-20z" fill="#fff" opacity=".2"/><path d="m4.0117 24.5c-.0041.167-.0117.332-.0117.5 0 11.08 8.92 20 20 20s20-8.92 20-20c0-.16787-.0076-.33314-.01172-.5-.264 10.846-9.076 19.5-19.988 19.5s-19.724-8.654-19.988-19.5z" opacity=".2"/><g opacity=".2" transform="translate(-4 1)"><path d="m23 14-4 6v-6h-5v20h5v-6l4 6h5l-5.637-10.021 5.637-9.979z" opacity="1"/><path d="m26 31v3h3v-3zm4 0v3h9v-3z" opacity="1" transform="translate(4)"/><path d="m30 26h13v3h-13z" opacity="1"/><path d="m26 17v7h13v-7h-3v4h-2v-4h-3v4h-2v-4z" opacity="1" transform="translate(4)"/></g><g fill="#fff" transform="translate(-4)"><path d="m23 14-4 6v-6h-5v20h5v-6l4 6h5l-5.637-10.021 5.637-9.979z"/><path d="m26 31v3h3v-3zm4 0v3h9v-3z" transform="translate(4)"/><path d="m30 26h13v3h-13z"/><path d="m26 17v7h13v-7h-3v4h-2v-4h-3v4h-2v-4z" transform="translate(4)"/></g></svg>