<svg height="48" width="48" xmlns="http://www.w3.org/2000/svg"><rect fill="#ccc" height="40" rx="2" transform="matrix(0 -1 -1 0 0 0)" width="40" x="-44" y="-44"/><path d="m6 4c-1.108 0-2 .892-2 2v1c0-1.108.892-2 2-2h36c1.108 0 2 .892 2 2v-1c0-1.108-.892-2-2-2z" fill="#fff" opacity=".2"/><path d="m6 45c-1.108 0-2-.892-2-2v-1c0 1.108.892 2 2 2h36c1.108 0 2-.892 2-2v1c0 1.108-.892 2-2 2z" opacity=".2"/><g fill="#4d4d4d"><circle cx="24" cy="24" r="5"/><circle cx="12" cy="12" r="5"/><circle cx="36" cy="36" r="5"/><circle cx="12" cy="-36" r="5" transform="scale(1 -1)"/><circle cx="36" cy="-12" r="5" transform="scale(1 -1)"/></g></svg>