<svg height="48" width="48" xmlns="http://www.w3.org/2000/svg"><rect fill="#4e91d9" height="40" rx="2" transform="matrix(0 -1 -1 0 0 0)" width="40" x="-44" y="-44"/><path d="m6 4c-1.108 0-2 .892-2 2v1c0-1.108.892-2 2-2h36c1.108 0 2 .892 2 2v-1c0-1.108-.892-2-2-2z" fill="#fff" opacity=".2"/><path d="m6 45c-1.108 0-2-.892-2-2v-1c0 1.108.892 2 2 2h36c1.108 0 2-.892 2-2v1c0 1.108-.892 2-2 2z" opacity=".2"/><g opacity=".2" transform="matrix(1 0 0 -1 0 1)"><circle cx="14" cy="-14" r="4"/><circle cx="24" cy="-14" r="4"/><circle cx="34" cy="-14" r="4"/><circle cx="14" cy="-24" r="4"/><circle cx="24" cy="-24" r="4"/><circle cx="34" cy="-24" r="4"/><circle cx="14" cy="-34" r="4"/><circle cx="24" cy="-34" r="4"/><circle cx="34" cy="-34" r="4"/></g><g transform="scale(1 -1)"><circle cx="14" cy="-14" fill="#aff" r="4"/><circle cx="24" cy="-14" fill="#aff" r="4"/><circle cx="34" cy="-14" fill="#ffd060" r="4"/><circle cx="14" cy="-24" fill="#aff" r="4"/><circle cx="24" cy="-24" fill="#ffd060" r="4"/><circle cx="34" cy="-24" fill="#aff" r="4"/><circle cx="14" cy="-34" fill="#ffd060" r="4"/><circle cx="24" cy="-34" fill="#aff" r="4"/><circle cx="34" cy="-34" fill="#aff" r="4"/></g></svg>