<svg height="48" width="48" xmlns="http://www.w3.org/2000/svg"><path d="m24 4c-11.08 0-20 8.92-20 20s8.92 20 20 20 20-8.92 20-20-8.92-20-20-20z" fill="#fe4d38"/><path d="m24 4c-11.08 0-20 8.92-20 20 0 .168-.004.333 0 .5.2644-10.846 9.088-19.5 20-19.5s19.736 8.654 20 19.5c.004-.167 0-.332 0-.5 0-11.08-8.92-20-20-20z" fill="#fff" opacity=".2"/><path d="m4.0117 24.5c-.0041.167-.0117.332-.0117.5 0 11.08 8.92 20 20 20s20-8.92 20-20c0-.16787-.0076-.33314-.01172-.5-.264 10.846-9.076 19.5-19.988 19.5s-19.724-8.654-19.988-19.5z" opacity=".2"/><g fill="#3f3f3f" transform="translate(0 1)"><path d="m12.416 28.5c2.3908 4.6374 6.8075 7.4958 11.589 7.5 4.7777-.0084 9.1896-2.8662 11.579-7.5 2.1444-4.1594-4.3439-4.5002-11.584-4.5002-7.2398 0-13.729.33804-11.584 4.5002z"/><ellipse cx="17" cy="14" rx="3" ry="4"/><ellipse cx="31" cy="14" rx="3" ry="4"/></g></svg>