<svg height="48" width="48" xmlns="http://www.w3.org/2000/svg"><path d="m24 4c-11.08 0-20 8.92-20 20s8.92 20 20 20 20-8.92 20-20-8.92-20-20-20z" fill="#ffc947"/><path d="m24 8.0000001c9.47 0 17 7.5299999 17 16.9999999s-7.53 17-17 17-17-7.53-17-17 7.53-16.9999999 17-16.9999999z" opacity=".2"/><path d="m24 7.0000001c9.47 0 17 7.5299999 17 16.9999999s-7.53 17-17 17-17-7.53-17-17 7.53-16.9999999 17-16.9999999z" fill="#b38d32"/><path d="m24 4c-11.08 0-20 8.92-20 20 0 .168.008.333.0117.5.2647-10.846 9.0763-19.5 19.988-19.5s19.724 8.6539 19.988 19.5c.004-.16686.0117-.33213.0117-.5 0-11.08-8.92-20-20-20z" fill="#fff" opacity=".2"/><path d="m4.0117 24.5c-.0041.167-.0117.332-.0117.5 0 11.08 8.92 20 20 20s20-8.92 20-20c0-.16787-.0076-.33314-.01172-.5-.264 10.846-9.076 19.5-19.988 19.5s-19.724-8.654-19.988-19.5z" opacity=".2"/><path d="m21.02687 12.999966c-1.108 0-2 .892-2 2v20c0 1.108.892 2 2 2s2-.892 2-2v-5.632812l.203125-.353516 4.033203 6.984375c.554.959556 1.770913 1.286422 2.730469.732422s1.286422-1.772866.732422-2.732422l-5.1875-8.982422 5.1875-8.984375c.554-.959556.227134-2.178422-.732422-2.732422s-2.176469-.227134-2.730469.732422l-4.033203 6.984375-.203125-.351563v-5.664062c0-1.108-.892-2-2-2z" opacity=".2"/><path d="m21.02687 11.999966c-1.108 0-2 .892-2 2v20c0 1.108.892 2 2 2s2-.892 2-2v-5.632812l.203125-.353516 4.033203 6.984375c.554.959556 1.770913 1.286422 2.730469.732422s1.286422-1.772866.732422-2.732422l-5.1875-8.982422 5.1875-8.984375c.554-.959556.227134-2.178422-.732422-2.732422s-2.176469-.227134-2.730469.732422l-4.033203 6.984375-.203125-.351563v-5.664062c0-1.108-.892-2-2-2z" fill="#ffc947"/></svg>