<svg height="48" width="48" xmlns="http://www.w3.org/2000/svg"><circle cx="24" cy="24" fill="#b28a63" r="15"/><path d="m38.98 24.414a15 15 0 0 1 -14.98 14.586 15 15 0 0 1 -14.98-14.414 15 15 0 0 0 -.02.414 15 15 0 0 0 15 15 15 15 0 0 0 15-15 15 15 0 0 0 -.02-.586z" opacity=".2"/><path d="m9.5781 11.002a22.519 7.8728 29.364 0 0 -5.1758 1.9082 22.519 7.8728 29.364 0 0 15.605 17.875 22.519 7.8728 29.364 0 0 23.592 4.3047 22.519 7.8728 29.364 0 0 -4.6562-9.8574c-.02538.31177-.06913.61774-.11328.92383a18.015 6.748 29.307 0 1 1.418 5.732 18.015 6.748 29.307 0 1 -19.105-3.045 18.015 6.748 29.307 0 1 -12.262-14.682 18.015 6.748 29.307 0 1 5.523-1.683c.25464-.21232.51664-.41598.78516-.61133a22.519 7.8728 29.364 0 0 -5.6109-.866z" fill="#fede7b"/><path d="m24 9a15 15 0 0 0 -15 15 15 15 0 0 0 .0195.586 15 15 0 0 1 14.98-14.586 15 15 0 0 1 14.98 14.414 15 15 0 0 0 .02-.414 15 15 0 0 0 -15-15z" fill="#fff" opacity=".1"/><path d="m9.5781 11.002a22.519 7.8728 29.364 0 0 -5.1758 1.9082 22.519 7.8728 29.364 0 0 -.3457 2.1055 22.519 7.8728 29.364 0 1 .3457-1.1055 22.519 7.8728 29.364 0 1 5.1758-1.9082 22.519 7.8728 29.364 0 1 3.75.44141 18.015 6.748 29.307 0 1 1.0762.03516c.25464-.21232.51664-.41598.78516-.61133a22.519 7.8728 29.364 0 0 -5.6109-.866zm-1.0215 5.143a18.015 6.748 29.307 0 0 12.586 13.699 18.015 6.748 29.307 0 0 19.105 3.045 18.015 6.748 29.307 0 0 .32-2.022 18.015 6.748 29.307 0 1 -.32 1.022 18.015 6.748 29.307 0 1 -19.105-3.045 18.015 6.748 29.307 0 1 -12.586-12.699zm30.387 9.0879c-.02538.31177-.06913.61774-.11328.92383a18.015 6.748 29.307 0 1 .10352.15625c.0025-.02694.0076-.05306.0098-.08008a22.519 7.8728 29.364 0 1 4.9961 7.7637 22.519 7.8728 29.364 0 0 -4.9961-8.7637z" fill="#fff" opacity=".1"/><path d="m13.338 12.443a18.015 6.748 29.307 0 0 -4.457 1.7188 18.015 6.748 29.307 0 0 -.32422 1.9824 18.015 6.748 29.307 0 1 .32422-.98242 18.015 6.748 29.307 0 1 5.5234-1.6836c.25464-.21232.51664-.41598.78516-.61133a22.519 7.8728 29.364 0 0 -1.8516-.42383zm-9.2813 2.5723a22.519 7.8728 29.364 0 0 15.951 16.77 22.519 7.8728 29.364 0 0 23.592 4.3047 22.519 7.8728 29.364 0 0 .33984-2.0938 22.519 7.8728 29.364 0 1 -.33984 1.0938 22.519 7.8728 29.364 0 1 -23.592-4.305 22.519 7.8728 29.364 0 1 -15.951-15.769zm34.877 11.297c-.02596.28387-.06319.5642-.10352.84375a18.015 6.748 29.307 0 1 1.7383 3.7109 18.015 6.748 29.307 0 0 -1.6348-4.5547z" opacity=".2"/></svg>