<svg height="48" width="48" xmlns="http://www.w3.org/2000/svg"><rect fill="#5f7c8a" height="40" rx="2" transform="matrix(0 -1 -1 0 0 0)" width="32" x="-40" y="-44"/><path d="m-37-41h26v34h-26z" fill="#7f96a1" transform="matrix(0 -1 -1 0 0 0)"/><path d="m6 8c-1.108 0-2 .892-2 2v1c0-1.108.892-2 2-2h36c1.108 0 2 .892 2 2v-1c0-1.108-.892-2-2-2z" fill="#fff" opacity=".2"/><path d="m4 38v1c0 1.108.892 2 2 2h36c1.108 0 2-.892 2-2v-1c0 1.108-.892 2-2 2h-36c-1.108 0-2-.892-2-2z" opacity=".2"/><circle cx="36" cy="37" opacity=".2" r="11"/><circle cx="36" cy="36" fill="#48cd42" r="11"/><path d="m30 30v1c0 .55016.45347 1 1 1 4.9706 0 9 4.0294 9 9 0 .55016.45347 1 1 1h1v-1c0-6.075-4.925-11-11-11zm0 4v1c0 .55016.45347 1 1 1 2.7614 0 5 2.2386 5 5 0 .55016.45347 1 1 1h1v-1c0-3.866-3.134-7-7-7zm2 4c-1.1046 0-2 .89543-2 2s.89543 2 2 2 2-.89543 2-2-.8954-2-2-2z" fill="#fff"/></svg>