<svg height="48" width="48" xmlns="http://www.w3.org/2000/svg"><path d="m10 20c0 1.418.036 2.745.104 4h-3.104c-1.662 0-3 1.338-3 3v12c0 1.662 1.338 3 3 3h7c.823 0 1.566-.33 2.107-.863 3.412 2.856 7.704 2.863 11.393 2.863 7.5 0 16.5 0 16.5-24zm-1.1543 7h1.5003c.588 5.528 1.899 9.266 3.636 11.781-.249.136-.528.219-.828.219h-4.3083c-1.0228 0-1.8457-.892-1.8457-2v-8c0-1.108.8229-2 1.8457-2z" fill="#bda461"/><path d="m32.745 24s-1.3164 1.2772-2.7402 1.7921c-10.543 3.8135-6.0967 11.245-5.9516 11.269 0 0 .59121-1.0296 1.3898-1.6168 5.0674-3.7253 6.0976-8.0139 6.0976-8.0139s-1.1372 5.1603-5.6457 8.3711c-.99578.70879-1.67 2.454-1.9555 4.1983 0 0 .70586-.28519 1.0094-.36244.11836-.7724.36583-1.512.78421-2.1727 6.3013.75012 8.365-4.3275 8.6346-6.0978.63636-4.1815-1.6227-7.3674-1.6227-7.3674z" fill="#5b6d40"/><path d="m10 20c0 .344.009.666.014 1h33.974c.004-.334.012-.656.012-1zm-3 4c-1.662 0-3 1.338-3 3v1c0-1.662 1.338-3 3-3h3.104c-.018-.324-.026-.667-.04-1zm0 13v1c0 1.108.8229 2 1.8457 2h4.3083c.3 0 .579-.083.828-.219-.178-.258-.348-.538-.517-.822-.102.02-.203.041-.311.041h-4.3083c-1.0228 0-1.8457-.892-1.8457-2z" fill="#fff" opacity=".2"/><path d="m10 21c0 1.052.027 2.04.064 3h.04c-.051-.951-.077-1.959-.09-3zm33.988 0c-.252 22.982-9.096 23-16.488 23-3.689 0-7.981-.007-11.393-2.863-.541.533-1.284.863-2.107.863h-7c-1.662 0-3-1.338-3-3v1c0 1.662 1.338 3 3 3h7c.823 0 1.566-.33 2.107-.863 3.412 2.856 7.704 2.863 11.393 2.863 7.5 0 16.5 0 16.5-24zm-35.142 6c-1.0228 0-1.8457.892-1.8457 2v1c0-1.108.8229-2 1.8457-2h1.5003c.528 4.961 1.641 8.471 3.119 10.959.182-.036.357-.09.517-.178-1.737-2.515-3.048-6.253-3.636-11.781h-1.5z" opacity=".2"/></svg>