<svg height="48" width="48" xmlns="http://www.w3.org/2000/svg"><path d="m24.000001 4.9995634c-2.77 0-5 2.676-5 5.9999996v7.458984l-3.308594-3.308593c-.767218-.767219-1.770224-1.150391-2.771484-1.150391-1.001262 0-2.002313.383172-2.769531 1.150391-1.534438 1.534436-1.534438 4.006579 0 5.541015l8.308593 8.308594-8.308593 8.308594c-1.534438 1.534436-1.534438 4.00658 0 5.541015 1.534435 1.534437 4.00658 1.534437 5.541015 0l6.333985-6.333984c.60539.311054 1.272224.484375 1.974609.484375s1.369219-.173321 1.974609-.484375l6.333985 6.333984c1.534436 1.534437 4.006579 1.534437 5.541015 0 1.534436-1.534435 1.534436-4.006579 0-5.541015l-8.308593-8.308594 8.308593-8.308594c1.534436-1.534436 1.534436-4.006579 0-5.541015s-4.006579-1.534436-5.541015 0l-3.308594 3.308593v-7.458984c0-3.3239995-2.23-5.9999995-5-5.9999995z" opacity=".2"/><path d="m24.000001 3.9995632c-2.77 0-5 2.676-5 6v7.4589838l-3.308594-3.308593c-.767218-.767219-1.770224-1.150391-2.771484-1.150391-1.001262 0-2.002313.383172-2.769531 1.150391-1.534438 1.534436-1.534438 4.006579 0 5.541015l8.308593 8.308594-8.308593 8.308594c-1.534438 1.534436-1.534438 4.00658 0 5.541015 1.534435 1.534437 4.00658 1.534437 5.541015 0l6.333985-6.333984c.60539.311054 1.272224.484375 1.974609.484375s1.369219-.173321 1.974609-.484375l6.333985 6.333984c1.534436 1.534437 4.006579 1.534437 5.541015 0 1.534436-1.534435 1.534436-4.006579 0-5.541015l-8.308593-8.308594 8.308593-8.308594c1.534436-1.534436 1.534436-4.006579 0-5.541015s-4.006579-1.534436-5.541015 0l-3.308594 3.308593v-7.4589838c0-3.324-2.23-6-5-6z" fill="#478f30"/><path d="m24 4c-2.77 0-5 2.676-5 6v1c0-3.3239996 2.23-6 5-6s5 2.6760005 5 6v-1c0-3.324-2.23-6-5-6zm-11.080078 9c-1.001262 0-2.002313.383172-2.769531 1.150391-.895436.895434-1.2512068 2.108134-1.1015629 3.269531.1070105-.828339.4628927-1.630862 1.1015629-2.269531.767218-.767219 1.768269-1.150391 2.769531-1.150391 1.00126 0 2.004266.383172 2.771484 1.150391l3.308594 3.308593v-1l-3.308594-3.308593c-.767218-.767219-1.770224-1.150391-2.771484-1.150391zm22.160156 0c-1.001645 0-2.004266.383173-2.771484 1.150391l-3.308594 3.308593v1l3.308594-3.308593c1.534436-1.534436 4.006579-1.534436 5.541015 0 .638669.638669.994553 1.441192 1.101563 2.269531.149644-1.161397-.206128-2.374097-1.101563-3.269531-.767218-.767218-1.767886-1.150391-2.769531-1.150391zm-17.121094 15.5-7.808593 7.808594c-.895436.895434-1.2512068 2.108134-1.1015629 3.269531.1070105-.828339.4628927-1.630862 1.1015629-2.269531l8.308593-8.308594zm12.082032 0-.5.5 8.308593 8.308594c.638669.638669.994553 1.441192 1.101563 2.269531.149644-1.161397-.206128-2.374097-1.101563-3.269531z" fill="#fff" opacity=".1"/><g transform="matrix(0 -1 -1 0 0 0)"><rect height="24" opacity=".2" rx="15" ry="12" width="30" x="-43" y="-36"/><rect fill="#b08e57" height="24" rx="15" ry="12" width="30" x="-42" y="-36"/></g></svg>