<svg height="48" width="48" xmlns="http://www.w3.org/2000/svg"><rect fill="#ccc" height="30" rx="2" transform="matrix(0 -1 -1 0 0 0)" width="40" x="-44" y="-39"/><path d="m11 4c-1.108 0-2 .892-2 2v1c0-1.108.892-2 2-2h26c1.108 0 2 .892 2 2v-1c0-1.108-.892-2-2-2z" fill="#fff" opacity=".2"/><path d="m9 42v1c0 1.108.892 2 2 2h26c1.108 0 2-.892 2-2v-1c0 1.108-.892 2-2 2h-26c-1.108 0-2-.892-2-2z" opacity=".2"/><g fill="#e74c3c"><path d="m18.55-1.43h4.61v4.61h-4.61z" transform="matrix(.65079 .75926 -.65079 .75926 0 0)"/><path d="m14.356 11.907h-2.4193l-.382 1.093h-1.555l2.222-6h1.8446l2.222 6h-1.555l-.378-1.093zm-2.0335-1.1132h1.6437l-.81983-2.3871-.82384 2.3871z"/><path d="m28.85-7.59h10.63v10.63h-10.63z" transform="matrix(.6585 .75258 -.6585 .75258 0 0)"/><path d="m-49.94 3.84h4.61v4.61h-4.61z" transform="matrix(-.65079 -.75926 .65079 -.75926 0 0)"/><path d="m33.644 36.093h2.4193l.382-1.093h1.555l-2.2224 6h-1.8446l-2.2224-6h1.5553l.37776 1.0931zm2.0335 1.1132h-1.6437l.81983 2.3871.82384-2.3871z"/></g></svg>