<svg height="48" width="48" xmlns="http://www.w3.org/2000/svg"><rect fill="#37a0f2" height="39.964" rx="19.982" transform="matrix(0 -1 -1 0 0 0)" width="39.964" x="-43.98" y="-43.98"/><path d="m38.129 9.8707-28.258 28.258c7.8276 7.8276 20.431 7.8276 28.259 0 7.8276-7.8276 7.8276-20.431 0-28.259z" opacity=".1"/><path d="m23.324 4.0352c-1.39.0458-2.736.2471-4.039.5605l.022.3906-.895-.1367-.006-.0273c-6.542 1.8933-11.675 7.0157-13.578 13.555l.7365 1.08-.3301.609.8203 1.26 2.0332.508v-.332l.8144.117-.0761.584.6367.117.9881.272 1.395 1.597 1.785.135.172 1.463-1.219.856-.057 1.306-.175.797 1.765 2.223.133.758s.64.175.719.175c.077 0 1.433 1.034 1.433 1.034v4.013l.485.137-.328 1.85.812 1.089-.15 1.836.66 1.164c.752.241 1.522.443 2.31.594l.049-.361.182-.526.039-.535-.69-.021-.349-.438.574-.556.078-.416-.64-.184.039-.389.91-.138 1.387-.67.464-.858 1.452-1.869-.329-1.463.446-.777 1.336.041.9-.719.291-2.822.998-1.273.174-.821-.91-.291-.6-.99-2.054-.022-1.629-.625-.075-1.166-.545-.955-1.472-.021-.85-1.344-.758-.369-.039.406-1.375.084-.504-.705-1.433-.293-1.182 1.373-1.859-.316-.137-2.11-1.357-.232.545-1.033-.157-.596-1.7829 1.199-1.123-.136-.4004-.883.2441-.908.6192-1.145 1.426-.725 2.75-.001-.008.843.988.461-.078-1.439.713-.723 1.437-.947.1-.668 1.434-1.502 1.523-.848-.133-.113 1.032-.977.377.1.175.221.391-.44.096-.041-.428-.06-.438-.147v-.422l.233-.189h.508l.232.103.201.411.25-.038v-.037l.069.024.716-.11.102-.349.406.101v.381l-.377.26.057.418 1.293.4s.002.007.004.018l.299-.025.019-.565-1.027-.471-.059-.269.852-.293.037-.8185-.889-.5449-.058-1.3828-1.221.6035h-.445l.115-1.0527-1.66-.3946-.688.5235v1.5918l-1.236.3945-.496 1.0392-.537.088v-1.3303l-1.163-.1602-.58-.3808-.234-.8614 2.078-1.2226 1.016-.3106.103.6856.567-.0274.043-.3457.593-.0859.01-.1191-.254-.1075-.058-.3652.728-.0605.44-.4629.023-.0332.006.0019.135-.1387 1.531-.1953.676.5801-1.776.9492 2.26.5371.291-.7597h.988l.35-.6621-.697-.1758v-.836l-.477-.2128zm-10.957 5 .551.1308-.189.7442-.596.1918-.377-.7778zm25.139.2441-.449.0762-.842 1.1975-1.207.191-.176 1.039.51.119-.147.668-1.197-.24-1.098.24-.234.614.189 1.291.645.302 1.082-.006.73-.064.223-.586 1.141-1.49.754.154.738-.674.139.526 1.82 1.236-.223.301-.82-.045.314.449.506.111.592-.248-.014-.714.264-.133-.213-.227-1.215-.679-.316-.905h.807c-.696-.9-1.466-1.736-2.303-2.5037zm-23.627 1.5217h.914v.279h.201v.481h-1.394l-.522-.145.131-.336zm1.365.205.479.437-.479.118zm1.055.672.353.224-.285.237-.281-.237zm-2.682.074h.77l-.989 1.387-.406-.219.086-.584zm1.237 0h.783v.467l-.348.224-.435.084zm.972.512h.059l.886.263v.453h-.742l-.203-.294zm-.365.422v.455l-.332.336h-.742l.117-.51.35-.029.072-.176zm23.049 1.929-2.615.205-.811.438h-1.039l-.51-.053-1.26.705v1.326l-2.58 1.869.215.799h.522l-.135.758-.369.137-.022 1.988 2.231 2.551h.968l.061-.154h1.742l.502-.469h.99l.541.547 1.475.154-.195 1.969 1.634 2.902-.861 1.654.059.78.677.681v1.873l.389.526c2.419-3.305 3.863-7.374 3.863-11.801 0-2.867-.609-5.585-1.687-8.045l-.934.092v.73h-.377l-.406-.293-2.068-.525z" fill="#fff" opacity=".3"/><path d="m24 4.0182c-11.07 0-19.982 8.9119-19.982 19.982 0 .16757-.004.33299 0 .49955.2644-10.837 9.08-19.483 19.982-19.483s19.718 8.6458 19.982 19.482c.004-.16656 0-.33198 0-.49955 0-11.069-8.912-19.981-19.982-19.981z" fill="#fff" opacity=".2"/><path d="m9.8707 38.129 12.363-15.895 1.673 1.673 1.8593 1.8593z" fill="#f2f2f2"/><path d="m38.129 9.8707-15.895 12.363 3.532 3.532z" fill="#f34235"/><path d="m38.129 9.8707-28.258 28.258c-7.8276-7.8276-7.8276-20.431 0-28.259 7.8276-7.8276 20.431-7.8276 28.259 0z" fill="#fff" opacity=".2"/><path d="m4.0117 24.5c-.0041.167-.0117.332-.0117.5 0 11.08 8.92 20 20 20s20-8.92 20-20c0-.168-.008-.333-.012-.5-.264 10.846-9.076 19.5-19.988 19.5s-19.724-8.654-19.988-19.5z" opacity=".2"/></svg>