<svg height="48" width="48" xmlns="http://www.w3.org/2000/svg"><path d="m43 39.111v-30.222c0-1.0466-.87-1.889-1.95-1.889h-35.1c-1.0803 0-1.95.8424-1.95 1.8889v30.222c0 1.047.8697 1.889 1.95 1.889h35.1c1.08 0 1.95-.842 1.95-1.889z" fill="#4f4f4f"/><rect fill="#050504" height="30" opacity=".2" ry="1" width="5" x="6" y="10"/><rect fill="#da6156" height="30" ry="1" width="5" x="6" y="9"/><rect fill="#050504" height="30" opacity=".2" ry="1" width="5" x="11" y="10"/><rect fill="#eb8644" height="30" ry="1" width="5" x="11" y="9"/><rect fill="#050504" height="30" opacity=".2" ry="1" width="5" x="16" y="10"/><rect fill="#ecb554" height="30" ry="1" width="5" x="16" y="9"/><rect fill="#050504" height="30" opacity=".2" ry="1" width="5" x="21" y="10"/><rect fill="#40a95d" height="30" ry="1" width="5" x="21" y="9"/><rect fill="#050504" height="30" opacity=".2" ry="1" width="5" x="26" y="10"/><rect fill="#4cb094" height="30" ry="1" width="5" x="26" y="9"/><rect fill="#050504" height="30" opacity=".2" ry="1" width="5" x="31" y="10"/><rect fill="#476eb9" height="30" ry="1" width="5" x="31" y="9"/><rect fill="#050504" height="30" opacity=".2" ry="1" width="5" x="36" y="10"/><rect fill="#a860a2" height="30" ry="1" width="5" x="36" y="9"/><path d="m9.9902 8c-.5484 0-.9902.4418-.9902.9902v16.02c0 .548.4418.99.9902.99h2.0198c.548 0 .99-.442.99-.99v-16.02c0-.5482-.442-.99-.99-.99h-2.0198zm4.9998 0c-.548 0-.99.4418-.99.9902v16.02c0 .548.442.99.99.99h2.02c.548 0 .99-.442.99-.99v-16.02c0-.5482-.442-.99-.99-.99h-2.02zm10 0c-.548 0-.99.4418-.99.9902v16.02c0 .548.442.99.99.99h2.02c.548 0 .99-.442.99-.99v-16.02c0-.5482-.442-.99-.99-.99h-2.02zm5 0c-.548 0-.99.4418-.99.9902v16.02c0 .548.442.99.99.99h2.02c.548 0 .99-.442.99-.99v-16.02c0-.5482-.442-.99-.99-.99h-2.02zm5 0c-.548 0-.99.4418-.99.9902v16.02c0 .548.442.99.99.99h2.02c.548 0 .99-.442.99-.99v-16.02c0-.5482-.442-.99-.99-.99h-2.02z" fill="#4f4f4f"/><path d="m5.9492 7c-1.0803 0-1.9492.8422-1.9492 1.8887v1c0-1.0465.8689-1.8887 1.9492-1.8887h35.102c1.08 0 1.949.8422 1.949 1.8887v-1c0-1.0465-.869-1.8887-1.949-1.8887z" fill="#fff" opacity=".1"/><path d="m9.9902 8c-.5484 0-.9902.4418-.9902.9902v1c0-.5484.4418-.9902.9902-.9902h2.0198c.548 0 .99.4418.99.9902v-1c0-.5484-.442-.9902-.99-.9902zm4.9998 0c-.548 0-.99.4418-.99.9902v1c0-.5484.442-.9902.99-.9902h2.02c.548 0 .99.4418.99.9902v-1c0-.5484-.442-.9902-.99-.9902zm10 0c-.548 0-.99.4418-.99.9902v1c0-.5484.442-.9902.99-.9902h2.02c.548 0 .99.4418.99.9902v-1c0-.5484-.442-.9902-.99-.9902zm5 0c-.548 0-.99.4418-.99.9902v1c0-.5484.442-.9902.99-.9902h2.02c.548 0 .99.4418.99.9902v-1c0-.5484-.442-.9902-.99-.9902zm5 0c-.548 0-.99.4418-.99.9902v1c0-.5484.442-.9902.99-.9902h2.02c.548 0 .99.4418.99.9902v-1c0-.5484-.442-.9902-.99-.9902z" fill="#fff" opacity=".1"/><path d="m4 39.111v1c0 1.047.8689 1.889 1.9492 1.889h35.102c1.08 0 1.949-.842 1.949-1.889v-1c0 1.047-.869 1.889-1.949 1.889h-35.102c-1.0801 0-1.949-.842-1.949-1.889z" opacity=".2"/><path d="m9 25.01v1c0 .548.4418.99.9902.99h2.0198c.548 0 .99-.442.99-.99v-1c0 .548-.442.99-.99.99h-2.0198c-.5484 0-.9902-.442-.9902-.99zm5 0v1c0 .548.442.99.99.99h2.02c.548 0 .99-.442.99-.99v-1c0 .548-.442.99-.99.99h-2.02c-.548 0-.99-.442-.99-.99zm10 0v1c0 .548.442.99.99.99h2.02c.548 0 .99-.442.99-.99v-1c0 .548-.442.99-.99.99h-2.02c-.548 0-.99-.442-.99-.99zm5 0v1c0 .548.442.99.99.99h2.02c.548 0 .99-.442.99-.99v-1c0 .548-.442.99-.99.99h-2.02c-.548 0-.99-.442-.99-.99zm5 0v1c0 .548.442.99.99.99h2.02c.548 0 .99-.442.99-.99v-1c0 .548-.442.99-.99.99h-2.02c-.548 0-.99-.442-.99-.99z" opacity=".2"/></svg>