<svg height="48" width="48" xmlns="http://www.w3.org/2000/svg"><path d="m6 5c-1.108 0-2 .892-2 2v32c0 1.108.892 2 2 2h36c1.108 0 2-.892 2-2v-32c0-1.108-.892-2-2-2z" fill="#4ab3e4"/><path d="m6 5c-1.108 0-2 .892-2 2v2c0-1.108.892-3 2-3h36c1.108 0 2 1.892 2 3v-2c0-1.108-.892-2-2-2z" fill="#fff" opacity=".2"/><path d="m27 9h18c.554 0 1 .446 1 1v13c0 .554-.446 1-1 1h-18c-.554 0-1-.446-1-1v-13c0-.554.446-1 1-1z" fill="#f5f5f5"/><path d="m3 9h18c.554 0 1 .446 1 1v13c0 .554-.446 1-1 1h-18c-.554 0-1-.446-1-1v-13c0-.554.446-1 1-1z" fill="#f5f5f5"/><path d="m4 39v1c0 1.108.892 2 2 2h36c1.108 0 2-.892 2-2v-1c0 1.108-.892 2-2 2h-36c-1.108 0-2-.892-2-2z" opacity=".2"/><path d="m15 28h18c.554 0 1 .446 1 1v13c0 .554-.446 1-1 1h-18c-.554 0-1-.446-1-1v-13c0-.554.446-1 1-1z" fill="#f5f5f5"/><path d="m2 23v1c0 .554.446 1 1 1h18c.554 0 1-.446 1-1v-1c0 .554-.446 1-1 1h-18c-.554 0-1-.446-1-1zm24 0v1c0 .554.446 1 1 1h18c.554 0 1-.446 1-1v-1c0 .554-.446 1-1 1h-18c-.554 0-1-.446-1-1zm-12 19v1c0 .554.446 1 1 1h18c.554 0 1-.446 1-1v-1c0 .554-.446 1-1 1h-18c-.554 0-1-.446-1-1z" opacity=".2"/></svg>