<svg height="48" viewBox="0 0 12.7 12.7" width="48" xmlns="http://www.w3.org/2000/svg" xmlns:xlink="http://www.w3.org/1999/xlink"><filter id="a" color-interpolation-filters="sRGB" height="1.0252" width="1.022909" x="-.011455" y="-.0126"><feGaussianBlur stdDeviation=".069453127"/></filter><filter id="b" color-interpolation-filters="sRGB" height="1.023888" width="1.024113" x="-.012057" y="-.011944"><feGaussianBlur stdDeviation=".046085787"/></filter><g transform="translate(-.000001 -284.29999)"><path d="m1.190625 282.18332h14.552084v13.229167h-14.552084z" filter="url(#a)" opacity=".2" transform="matrix(.75000008 0 0 .75000008 .000001 74.24998)"/><g transform="matrix(.85937513 0 0 .85227286 .21084 46.093869)"><path d="m.79375 281.12497h12.7v11.641666h-12.7z" fill="#3689e6"/><path d="m1.058333 281.38956h12.170834v11.1125h-12.170834z" fill="#fafafa"/><path d="m.79375 281.12497h12.7v2.116667h-12.7z" fill="#3689e6"/></g><path d="m7.3105722 285.22602-.102046 1.21938a3.6375168 3.6375168 0 0 0 -1.063094.61487l-1.108307-.52185-1.157392 2.00477 1.006261.69883a3.6375168 3.6375168 0 0 0 -.05554.61356 3.6375168 3.6375168 0 0 0 .05297.61617l-1.003676.69622 1.157392 2.00478 1.105722-.52058a3.6375168 3.6375168 0 0 0 1.065678.61099l.09946 1.22328h2.314784l.102046-1.21941a3.6375168 3.6375168 0 0 0 1.0630938-.61486l1.108307.52188 1.157391-2.00478-1.006259-.69882a3.6375168 3.6375168 0 0 0 .05555-.61357 3.6375168 3.6375168 0 0 0 -.05296-.61616l1.003675-.69626-1.157391-2.00474-1.105723.52055a3.6375168 3.6375168 0 0 0 -1.0656788-.61099l-.09946-1.22326zm1.157392 3.30682a1.3227334 1.3227334 0 0 1 1.322733 1.32274 1.3227334 1.3227334 0 0 1 -1.322733 1.32274 1.3227334 1.3227334 0 0 1 -1.322734-1.32274 1.3227334 1.3227334 0 0 1 1.322734-1.32274z" filter="url(#b)" opacity=".2" stroke-width=".661367" transform="matrix(.75000008 0 0 .75000008 .000001 74.24998)"/><path d="m5.4829305 287.97108-.076535.91454a2.7281378 2.7281378 0 0 0 -.7973205.46115l-.8312303-.39139-.8680442 1.50358.7546958.52412a2.7281378 2.7281378 0 0 0 -.041655.46017 2.7281378 2.7281378 0 0 0 .039728.46213l-.752757.52217.8680441 1.50358.8292916-.39043a2.7281378 2.7281378 0 0 0 .7992585.45824l.074595.91746h1.7360873l.076535-.91456a2.7281378 2.7281378 0 0 0 .7973213-.46114l.8312303.39141.8680433-1.50359-.7546943-.52411a2.7281378 2.7281378 0 0 0 .041663-.46018 2.7281378 2.7281378 0 0 0 -.03972-.46212l.7527563-.5222-.8680433-1.50355-.8292923.39041a2.7281378 2.7281378 0 0 0 -.7992593-.45824l-.074595-.91745zm.868044 2.48012a.99205014.99205014 0 0 1 .9920499.99205.99205014.99205014 0 0 1 -.9920499.99206.99205014.99205014 0 0 1 -.9920505-.99206.99205014.99205014 0 0 1 .9920505-.99205z" fill="#7e8087" stroke-width=".496025"/></g></svg>