<svg height="48" viewBox="0 0 12.7 12.7" width="48" xmlns="http://www.w3.org/2000/svg" xmlns:xlink="http://www.w3.org/1999/xlink"><filter id="a" color-interpolation-filters="sRGB" height="1.025091" width="1.023" x="-.0115" y="-.012545"><feGaussianBlur stdDeviation=".060854166"/></filter><linearGradient id="b" gradientTransform="matrix(.999979 0 0 1 -38.991964 0)" gradientUnits="userSpaceOnUse" x1="22.06193" x2="33.436172" y1="284.30051" y2="295.67596"><stop offset="0" stop-color="#fafafa"/><stop offset="1" stop-color="#fafafa" stop-opacity=".75"/></linearGradient><filter id="c" color-interpolation-filters="sRGB" height="1.024" width="1.024" x="-.012" y="-.012"><feGaussianBlur stdDeviation=".05953125"/></filter><g transform="matrix(.75000004 0 0 .75000004 0 -210.050003)"><path d="m.79375 281.38956h12.7v11.641666h-12.7z" filter="url(#a)" opacity=".2"/><path d="m.79375 281.12497h12.7v11.641666h-12.7z" fill="#3689e6"/><path d="m1.058333 281.38956h12.170834v11.1125h-12.170834z" fill="#fafafa"/><path d="m.79375 281.12497h12.7v2.116667h-12.7z" fill="#3689e6"/><circle cx="9.921875" cy="290.25311" filter="url(#c)" opacity=".2" r="5.953125"/><g transform="translate(21.166667)"><ellipse cx="-11.244918" cy="289.98853" fill="#3689e6" rx="5.953" ry="5.953125"/><ellipse cx="-11.244918" cy="289.98853" fill="url(#b)" rx="5.688422" ry="5.688542"/><ellipse cx="-11.244918" cy="289.98853" fill="#3689e6" opacity=".2" rx="1.455178" ry="1.455208"/><ellipse cx="-11.244918" cy="289.98853" fill="#3689e6" rx=".926022" ry=".926042"/><ellipse cx="-11.244918" cy="289.98853" fill="#fafafa" rx=".661444" ry=".661458"/></g></g></svg>