<svg height="48" viewBox="0 0 48 48" width="48" xmlns="http://www.w3.org/2000/svg" xmlns:xlink="http://www.w3.org/1999/xlink"><filter id="a" color-interpolation-filters="sRGB" height="1.024" width="1.024" x="-.012" y="-.012"><feGaussianBlur stdDeviation=".28"/></filter><filter id="b" color-interpolation-filters="sRGB" height="1.051374" width="1.051374" x="-.025687" y="-.025687"><feGaussianBlur stdDeviation=".12373124"/></filter><filter id="c" color-interpolation-filters="sRGB" height="1.052152" width="1.052152" x="-.026076" y="-.026076"><feGaussianBlur stdDeviation="3.3095"/></filter><filter id="d" color-interpolation-filters="sRGB" height="1.055802" width="1.055802" x="-.027901" y="-.027901"><feGaussianBlur stdDeviation="3.3095004"/></filter><filter id="e" color-interpolation-filters="sRGB" height="1.05241" width="1.05217" x="-.026085" y="-.026205"><feGaussianBlur stdDeviation="3.3095"/></filter><filter id="f" color-interpolation-filters="sRGB" height="1.052428" width="1.052445" x="-.026223" y="-.026214"><feGaussianBlur stdDeviation="3.3095"/></filter><circle cx="32" cy="97" filter="url(#a)" opacity=".2" r="28" transform="matrix(.75 0 0 .75 0 -48)"/><circle cx="24" cy="24" fill="#448aff" r="21" stroke-width=".75"/><path d="m24 3a21 21 0 0 0 -21 21 21 21 0 0 0 .016125.4395 21 21 0 0 1 20.983875-20.6895 21 21 0 0 1 20.98425 20.5605 21 21 0 0 0 .01575-.3105 21 21 0 0 0 -21-21z" fill="#fff" opacity=".2" stroke-width=".75"/><path d="m229.2 357.4h-229.2c12.8 162.3 142.3 291.8 304.6 304.6v-231.3c-36.4-9.2-65.2-37.3-75.4-73.3z" filter="url(#c)" opacity=".2" transform="matrix(.03795331 0 0 .03795317 11.441249 12.1875)"/><path d="m304.6 226.9v-226.9c-161.8 12.8-291 141.5-304.5 303.1h228.3c9.4-37.4 38.8-66.8 76.2-76.2z" filter="url(#e)" opacity=".2" transform="matrix(.03795331 0 0 .03795317 11.441249 12.1875)"/><path d="m432.1 303.1h229.7c-13.3-161.1-141.8-289.6-302.9-303v227.6c36 10.2 64.1 39 73.2 75.4z" filter="url(#f)" opacity=".2" transform="matrix(.03795331 0 0 .03795317 11.441249 12.1875)"/><path d="m-403.55606-159.68494h142.49863v260.0975h-142.49863z" filter="url(#d)" opacity=".2" stroke-width=".99999" transform="matrix(.02683704 -.02683694 .02683704 .02683694 39.990247 22.679521)"/><g fill="#fafafa" stroke-width=".037953"><path d="m20.140118 25.001963h-8.698867c.485801 6.159799 5.400736 11.074735 11.560536 11.560536v-8.778569c-1.381496-.349169-2.474547-1.415653-2.861669-2.781967z" filter="url(#b)"/><path d="m23.001787 20.049074v-8.611574c-6.140823.485801-11.044373 5.370374-11.556741 11.503606h8.664709c.35676-1.419449 1.472583-2.535272 2.892032-2.892032z"/><path d="m27.840816 22.941106h8.717843c-.504777-6.114256-5.38176-10.991238-11.496015-11.499811v8.638142c1.366314.387122 2.432798 1.480173 2.778172 2.861669z"/><path d="m-2.545441 37.723267h5.408274v9.871523h-5.408274z" transform="matrix(.70710678 -.70710678 .70710678 .70710678 0 0)"/></g></svg>