<svg height="48" width="48" xmlns="http://www.w3.org/2000/svg"><path d="m42 3c1.108 0 2 .892 2 2v36c0 1.108-.892 2-2 2h-22l-16-16v-22c0-1.108.892-2 2-2z" fill="#303d75"/><path d="m24 9a7.0000011 7.0000011 0 0 0 -7 7 7.0000011 7.0000011 0 0 0 .08008 1.001953 5.0000008 5.0000008 0 0 0 -.08008-.001953 5.0000008 5.0000008 0 0 0 -5 5 5.0000008 5.0000008 0 0 0 5 5h13a6.0000009 6.0000009 0 0 0 6-6 6.0000009 6.0000009 0 0 0 -5.068359-5.921875 7.0000011 7.0000011 0 0 0 -6.931641-6.078125zm-.002 2h.002c2.519348.0036 4.6174 1.84417 4.949219 4.341797a2.0002 2.0002 0 0 0 1.671875 1.712891c1.958092.307772 3.377138 1.965133 3.378906 3.947265-.001077 2.231865-1.767855 3.998045-4 3.998047h-13c-1.680541-.000002-2.999998-1.319459-3-3-.000002-1.680544 1.319456-2.999998 3-3 .002.00007.0039-.000074.0059 0a2.0002 2.0002 0 0 0 2.050782-2.300781c-.035692-.233023-.054262-.46742-.056682-.703125.002129-2.782558 2.215214-4.995034 4.998047-4.996094z" opacity=".2"/><path d="m24 8a7.0000011 7.0000011 0 0 0 -7 7 7.0000011 7.0000011 0 0 0 .08008 1.001953 5.0000008 5.0000008 0 0 0 -.08008-.001953 5.0000008 5.0000008 0 0 0 -5 5 5.0000008 5.0000008 0 0 0 5 5h13a6.0000009 6.0000009 0 0 0 6-6 6.0000009 6.0000009 0 0 0 -5.068359-5.921875 7.0000011 7.0000011 0 0 0 -6.931641-6.078125zm-.002 2h.002c2.519348.0036 4.6174 1.84417 4.949219 4.341797a2.0002 2.0002 0 0 0 1.671875 1.712891c1.958092.307772 3.377138 1.965133 3.378906 3.947265-.001077 2.231865-1.767855 3.998045-4 3.998047h-13c-1.680541-.000002-2.999998-1.319459-3-3-.000002-1.680544 1.319456-2.999998 3-3 .002.00007.0039-.000074.0059 0a2.0002 2.0002 0 0 0 2.050782-2.300781c-.035692-.233023-.054262-.46742-.056682-.703125.002129-2.782558 2.215214-4.995034 4.998047-4.996094z" fill="#5d8cb9"/><path d="m4 27h14c1.1046 0 2 .89544 2 2v14z" fill="#44559e"/><path d="m42 3c1.108 0 2 .892 2 2v1c0-1.108-.892-2-2-2h-36c-1.108 0-2 .892-2 2v-1c0-1.108.892-2 2-2z" fill="#fff" opacity=".1"/><path d="m18 27c1.1046 0 2 .89544 2 2v1c0-1.1046-.89543-2-2-2h-13l-1-1z" fill="#fff" opacity=".1"/><path d="m5.995 28.995 14.005 14.005h22c1.108 0 2-.892 2-2v1c0 1.108-.892 2-2 2h-22l-14.972-14.972z" opacity=".2"/></svg>