<svg height="48" width="48" xmlns="http://www.w3.org/2000/svg"><rect fill="#ffc947" height="38" rx="19" transform="matrix(0 -1 -1 0 0 0)" width="38" x="-43" y="-43"/><path d="m24 4c-11.08 0-20 8.92-20 20s8.92 20 20 20 20-8.92 20-20-8.92-20-20-20zm0 3c9.47 0 17 7.53 17 17s-7.53 17-17 17-17-7.53-17-17 7.53-17 17-17z" fill="#b38d32"/><path d="m24 11a13 13 0 0 0 -12.352 9h-2.648l-1 3h3.043a13 13 0 0 0 -.043 1 13 13 0 0 0 .049 1h-1.049l-1 3h2.639a13 13 0 0 0 12.361 9 13 13 0 0 0 10.24-5h-4.256a10 10 0 0 1 -5.984 2 10 10 0 0 1 -9.152-6h13.152l1-3h-14.939a10 10 0 0 1 -.061-1 10 10 0 0 1 .051-1h14.949l1-3h-15.16a10 10 0 0 1 9.16-6 10 10 0 0 1 5.98 2h4.249a13 13 0 0 0 -10.229-5z" fill="#b38d32"/><path d="m24 4c-11.08 0-20 8.92-20 20 0 .168.008.333.0117.5.2647-10.846 9.0763-19.5 19.988-19.5s19.724 8.6539 19.988 19.5c.004-.16686.0117-.33213.0117-.5 0-11.08-8.92-20-20-20z" fill="#fff" opacity=".2"/><path d="m4.0117 24.5c-.0041.167-.0117.332-.0117.5 0 11.08 8.92 20 20 20s20-8.92 20-20c0-.16787-.0076-.33314-.01172-.5-.264 10.846-9.076 19.5-19.988 19.5s-19.724-8.654-19.988-19.5z" opacity=".2"/></svg>