<svg height="48" viewBox="0 0 48 48" width="48" xmlns="http://www.w3.org/2000/svg"><path d="m24 4a20 20 0 0 0 -20 20 20 20 0 0 0 20 20 20 20 0 0 0 20-20 20 20 0 0 0 -20-20z" fill="#48aeff"/><path d="m4.0215 24.418a20 20 0 0 0 -.0215.582 20 20 0 0 0 20 20 20 20 0 0 0 20-20 20 20 0 0 0 -.021-.418 20 20 0 0 1 -19.979 19.418 20 20 0 0 1 -19.978-19.582z" opacity=".2"/><path d="m24 4a20 20 0 0 0 -20 20 20 20 0 0 0 .0215.418 20 20 0 0 1 19.978-19.418 20 20 0 0 1 19.979 19.582 20 20 0 0 0 .021-.582 20 20 0 0 0 -20-20z" fill="#fff" opacity=".2"/><path d="m30 15c-1.108 0-2 .892-2 2v10h-2.669922a1.3306253.99030344 0 0 0 -1.152344 1.486328l4.669922 6.017578a1.3306253.99030344 0 0 0 1.080078.494141 1.3306253.99030344 0 0 0 1.22461-.494141l4.669922-6.017578a1.3306253.99030344 0 0 0 -1.152344-1.486328h-2.669922v-10c0-1.108-.892-2-2-2zm-12.072266.002a1.3306253.99030344 0 0 0 -1.080078.494141l-4.669922 6.017578a1.3306253.99030344 0 0 0 1.152344 1.486281h2.669922v10c0 1.108.892 2 2 2s2-.892 2-2v-10h2.669922a1.3306253.99030344 0 0 0 1.152344-1.486328l-4.669922-6.017578a1.3306253.99030344 0 0 0 -1.22461-.494141z" opacity=".2"/><g fill="#fff"><g transform="translate(-.000001 -2)"><rect height="18" ry="2" width="4" x="16" y="18"/><path d="m17.928561 16.001419a1.3306253.99030344 0 0 0 -1.080712.493758l-4.669403 6.019141a1.3306253.99030344 0 0 0 1.152151 1.485682h9.338807a1.3306253.99030344 0 0 0 1.152151-1.485682l-4.669403-6.019141a1.3306253.99030344 0 0 0 -1.223591-.493758z"/></g><g transform="matrix(1 0 0 -1 12 50)"><rect height="18" ry="2" width="4" x="16" y="18"/><path d="m17.928561 16.001419a1.3306253.99030344 0 0 0 -1.080712.493758l-4.669403 6.019141a1.3306253.99030344 0 0 0 1.152151 1.485682h9.338807a1.3306253.99030344 0 0 0 1.152151-1.485682l-4.669403-6.019141a1.3306253.99030344 0 0 0 -1.223591-.493758z"/></g></g></svg>