<svg height="48" viewBox="0 0 48 48" width="48" xmlns="http://www.w3.org/2000/svg" xmlns:xlink="http://www.w3.org/1999/xlink"><filter id="a" color-interpolation-filters="sRGB" height="1.024" width="1.024" x="-.012" y="-.012"><feGaussianBlur stdDeviation=".27500001"/></filter><filter id="b" color-interpolation-filters="sRGB" height="1.024" width="1.024" x="-.012" y="-.012"><feGaussianBlur stdDeviation=".215"/></filter><ellipse cx="32" cy="33" filter="url(#a)" opacity=".2" rx="27.5" ry="27.500002" stroke-width="1.341463" transform="scale(.75)"/><ellipse cx="24" cy="24.000017" fill="#3a9104" rx="20.625" ry="20.625002" stroke-width="1.006098"/><path d="m24.000054 3.3749818a20.624922 20.624922 0 0 0 -20.6249222 20.6249422 20.624922 20.624922 0 0 0 .0156026.431791 20.624922 20.624922 0 0 1 20.6090886-20.3199115 20.624922 20.624922 0 0 1 20.609456 20.1932215 20.624922 20.624922 0 0 0 .015603-.305033 20.624922 20.624922 0 0 0 -20.624922-20.6249439z" fill="#fff" opacity=".2" stroke-width=".736604"/><path d="m32.314991 11.502228a21.503246 21.500507 0 0 0 -15.51846 6.298979 21.503246 21.500507 0 0 0 0 30.403062 21.503246 21.500507 0 0 0 30.406938 0 21.503246 21.500507 0 0 0 0-30.403062 21.503246 21.500507 0 0 0 -14.888478-6.298979zm-.587979 2.687564a18.815342 18.812946 0 0 1 12.578557 4.608752l-3.774614 3.774137a21.501877 13.438673 44.991678 0 0 -14.578742-7.369804 18.815342 18.812946 0 0 1 5.774799-1.013085zm-8.137215 3.511681a18.814143 10.750938 44.992816 0 1 15.035473 6.776646l-6.625268 6.624426-12.232072-12.230512a18.814143 10.750938 44.992816 0 1 3.821867-1.17056zm22.631956 2.981515a18.815342 18.812946 0 0 1 3.590877 18.303777 21.501877 13.438673 44.991678 0 0 -7.391742-14.503395zm-28.359505.084 12.237321 12.235763-6.630518 6.629673a18.814143 10.750938 44.992816 0 1 -5.606803-18.865446zm22.668707 5.606085a18.814143 10.750938 44.992816 0 1 5.606802 18.865436l-12.237321-12.23576zm-26.34358.645648a21.501877 13.438673 44.991678 0 0 7.391743 14.503393l-3.800867 3.800383a18.815342 18.812946 0 0 1 -3.590876-18.303776zm17.812627 7.884217 12.232073 12.230515a18.814143 10.750938 44.992816 0 1 -18.857339-5.606093zm-8.530951 8.529866a21.501877 13.438673 44.991678 0 0 14.578742 7.369805 18.815342 18.812946 0 0 1 -18.353361-3.595669z" filter="url(#b)" opacity=".2" stroke-width="2.687735" transform="scale(.75)"/><path d="m24.236243 7.876671a16.127434 16.12538 0 0 0 -11.638845 4.724234 16.127434 16.12538 0 0 0 0 22.802297 16.127434 16.12538 0 0 0 22.805203 0 16.127434 16.12538 0 0 0 0-22.802297 16.127434 16.12538 0 0 0 -11.166358-4.724234zm-.440985 2.015673a14.111507 14.10971 0 0 1 9.433918 3.456564l-2.830961 2.830603a16.126408 10.079005 44.991678 0 0 -10.934056-5.527353 14.111507 14.10971 0 0 1 4.331099-.759814zm-6.102911 2.633761a14.110607 8.0632035 44.992816 0 1 11.276605 5.082484l-4.968951 4.96832-9.174053-9.172884a14.110607 8.0632035 44.992816 0 1 2.866399-.87792zm16.973967 2.236136a14.111507 14.10971 0 0 1 2.693158 13.727833 16.126408 10.079005 44.991678 0 0 -5.543807-10.877547zm-21.269628.063 9.17799 9.176822-4.972889 4.972255a14.110607 8.0632035 44.992816 0 1 -4.205101-14.149084zm17.001529 4.204564a14.110607 8.0632035 44.992816 0 1 4.205102 14.149077l-9.177991-9.17682zm-19.757684.484236a16.126408 10.079005 44.991678 0 0 5.543807 10.877545l-2.85065 2.850287a14.111507 14.10971 0 0 1 -2.693157-13.727832zm13.35947 5.913163 9.174054 9.172886a14.110607 8.0632035 44.992816 0 1 -14.143004-4.20457zm-6.398214 6.397399a16.126408 10.079005 44.991678 0 0 10.934057 5.527354 14.111507 14.10971 0 0 1 -13.76502-2.696752z" fill="#fafafa" stroke-width="2.015801"/></svg>