<svg height="48" viewBox="0 0 12.7 12.7" width="48" xmlns="http://www.w3.org/2000/svg" xmlns:xlink="http://www.w3.org/1999/xlink"><filter id="a" color-interpolation-filters="sRGB" height="1.020651" width="1.028645" x="-.014322" y="-.010326"><feGaussianBlur stdDeviation=".0580549"/></filter><g transform="translate(0 -284.29998)"><path d="m8.4667373 282.05103a3.6087705 3.6087707 0 0 0 -3.6087697 3.60878 3.6087705 3.6087707 0 0 0 1.3005789 2.77338c-1.4781881 1.799-3.0806597 4.21742-2.3909324 5.60561.6946726 1.39814 2.6840072 1.50958 4.680736 1.50589 1.9967279-.003 4.0009399-.12252 4.7248659-1.50589.68445-1.30793-.988448-3.67396-2.56561-5.47874a3.6087705 3.6087707 0 0 0 1.467902-2.90025 3.6087705 3.6087707 0 0 0 -3.6087707-3.60878z" filter="url(#a)" opacity=".2" transform="matrix(.75000004 0 0 .75000004 0 74.249984)"/><path d="m6.3500534 285.58983a2.7065785 2.7065787 0 0 0 -2.706578 2.70658 2.7065785 2.7065787 0 0 0 .9754345 2.08003c-1.1086414 1.34926-2.3104952 3.16308-1.7931999 4.20421.5210049 1.04861 2.0130063 1.13219 3.510553 1.12943 1.4975465-.003 3.0007053-.0919 3.5436501-1.12943.5133369-.98095-.7413361-2.75547-1.9242079-4.10905a2.7065785 2.7065787 0 0 0 1.1009263-2.17519 2.7065785 2.7065787 0 0 0 -2.7065781-2.70658z" fill="#9575cd"/><path d="m6.350061 285.58998a2.7065681 2.7065681 0 0 0 -2.706568 2.70657 2.7065681 2.7065681 0 0 0 .00205.0567 2.7065681 2.7065681 0 0 1 2.7044901-2.66654 2.7065681 2.7065681 0 0 1 2.704539 2.64992 2.7065681 2.7065681 0 0 0 .00204-.04 2.7065681 2.7065681 0 0 0 -2.7065686-2.70657z" fill="#fff" opacity=".2" stroke-width=".096663"/></g></svg>