<svg height="48" width="48" xmlns="http://www.w3.org/2000/svg"><path d="m24 5a20 20 0 0 0 -20 20 20 20 0 0 0 20 20c.440762 0 .876881-.01879 1.310547-.04687a20 20 0 0 0 .199219-.01563c.623777-.04661 1.23918-.120132 1.845703-.222656a20 20 0 0 0 .0957-.01758c.473526-.08242.93502-.197396 1.396484-.3125a20 20 0 0 0 .71875-.185547c.41272-.119491.815536-.259398 1.216797-.404297a20 20 0 0 0 .662109-.242188c.390791-.156987.770314-.333174 1.148441-.51367a20 20 0 0 0 .65625-.316406c.352401-.184317.691591-.387479 1.03125-.591797a20 20 0 0 0 .693359-.419921c.327603-.215595.639333-.451594.953125-.685547a20 20 0 0 0 .619141-.460938c.313892-.25335.610364-.525349.908203-.796875a20 20 0 0 0 .570313-.519531c.290384-.28587.561422-.589528.833984-.892578a20 20 0 0 0 .492187-.542969c.304882-.364906.584615-.750433.863282-1.136719a20 20 0 0 0 .314453-.419922c1.834699-2.688924 3.032647-5.84605 3.371094-9.257812.000063-.000643-.000064-.0013 0-.002a20 20 0 0 0 0-.0059c.064697-.654675.099609-1.31837.099609-1.990147 0-.440762-.01879-.876881-.04687-1.310547a20 20 0 0 0 -.01563-.199219c-.04661-.623777-.120132-1.23918-.222656-1.845703a20 20 0 0 0 -.01758-.0957c-.08242-.473526-.197396-.93502-.3125-1.396484a20 20 0 0 0 -.185547-.71875c-.119491-.41272-.259398-.815536-.404297-1.216797a20 20 0 0 0 -.242186-.662112c-.156989-.390788-.333176-.770311-.513672-1.148438a20 20 0 0 0 -.316406-.65625c-.184317-.352401-.387479-.691591-.591797-1.03125a20 20 0 0 0 -.419921-.693359c-.215595-.327603-.451594-.639333-.685547-.953125a20 20 0 0 0 -.460938-.619141c-.25335-.313892-.525349-.610364-.796875-.908203a20 20 0 0 0 -.519531-.570313c-.28587-.290384-.589528-.561422-.892578-.833984a20 20 0 0 0 -.542969-.4921875c-.364906-.3048816-.750433-.5846142-1.136719-.8632813a20 20 0 0 0 -.419922-.3144531c-2.688924-1.8346993-5.84605-3.0326467-9.257812-3.3710937-.000643-.0000638-.0013.0000637-.002 0a20 20 0 0 0 -.0059 0c-.654675-.0646971-1.31837-.0996094-1.990147-.0996094z" opacity=".2"/><path d="m75.53 5.4393c-11.08 0-20 8.92-20 20 0 .16772-.004.33329 0 .5.26444-10.846 9.0877-19.5 20-19.5s19.736 8.6537 20 19.5c.004-.16671 0-.33228 0-.5 0-11.08-8.92-20-20-20z" fill="#fff" opacity=".1"/><path d="m24 4a20 20 0 0 0 -20 20 20 20 0 0 0 20 20zm11.255859 3.4707031c.144653.0986992.278027.2120901.419922.3144531a20 20 0 0 0 -.419922-.3144531zm1.556641 1.1777344c.187634.1567695.361263.3287616.542969.4921875a20 20 0 0 0 -.542969-.4921875zm1.435547 1.3261719c.180439.1832896.346218.3802036.519531.5703126a20 20 0 0 0 -.519531-.5703126zm1.316406 1.4785156c.161463.200047.307136.412852.460938.619141a20 20 0 0 0 -.460938-.619141zm1.146485 1.572266c.14838.225469.280542.461654.419921.693359a20 20 0 0 0 -.419921-.693359zm1.011718 1.724609c.112359.214823.211714.436926.316406.65625a20 20 0 0 0 -.316406-.65625zm.830078 1.804688c.087337.217403.162346.441006.242188.662109a20 20 0 0 0 -.242188-.662109zm.646485 1.878906c.0686.236942.125564.478273.185547.71875a20 20 0 0 0 -.185547-.71875zm.498047 2.115234c.005558.031934.012171.063718.017578.095703a20 20 0 0 0 -.017578-.095703zm.240234 1.941406c.004965.066447.011311.132594.015625.199219a20 20 0 0 0 -.015625-.199219zm-3.408203 12.765625c-.098699.144653-.21209.278027-.314453.419922a20 20 0 0 0 .314453-.419922zm-1.177735 1.556641c-.156769.187634-.328761.361263-.492187.542969a20 20 0 0 0 .492187-.542969zm-1.326171 1.435547c-.18329.180439-.380204.346218-.570313.519531a20 20 0 0 0 .570313-.519531zm-1.478516 1.316406c-.200047.161463-.412852.307136-.619141.460938a20 20 0 0 0 .619141-.460938zm-1.572266 1.146485c-.225469.14838-.461654.280542-.693359.419921a20 20 0 0 0 .693359-.419921zm-1.724609 1.011718c-.214823.112359-.436926.211714-.65625.316406a20 20 0 0 0 .65625-.316406zm-1.804688.830078c-.217403.087337-.441006.162346-.662109.242188a20 20 0 0 0 .662109-.242188zm-1.878906.646485c-.236942.0686-.478273.125564-.71875.185547a20 20 0 0 0 .71875-.185547zm-2.115234.498047c-.031934.005558-.063718.012171-.095703.017578a20 20 0 0 0 .095703-.017578zm-1.941406.240234c-.066447.004965-.132594.011311-.199219.015625a20 20 0 0 0 .199219-.015625z" fill="#ffe2ac"/><circle cx="24" cy="24" opacity=".2" r="16"/><circle cx="24" cy="24" opacity=".2" r="12"/><circle cx="24" cy="24" opacity=".2" r="7"/><path d="m44 24c0 11.045695-8.954305 20-20 20v-40c11.045695 0 20 8.954305 20 20z" fill="#7d4698"/><path d="m24 4a20 20 0 0 0 -20 20 20 20 0 0 0 .0214844.417969 20 20 0 0 1 19.978516-19.417969c.671777 0 1.335559.0349123 1.990234.0996094a20 20 0 0 1 .00586 0h.001953c3.411762.338447 6.568888 1.5363944 9.257812 3.3710937a20 20 0 0 1 .419922.3144531c.386286.2786671.771813.5583997 1.136719.8632813a20 20 0 0 1 .542969.4921875c.30305.272562.606708.5436.892578.833984a20 20 0 0 1 .519531.570313c.271526.297839.543525.594311.796875.908203a20 20 0 0 1 .460938.619141c.233953.313792.469951.625522.685547.953125a20 20 0 0 1 .419921.693359c.204318.339659.40748.678849.591797 1.03125a20 20 0 0 1 .316406.65625c.180496.378127.356683.75765.513672 1.148438a20 20 0 0 1 .242188.662109c.144899.401261.284806.804077.404297 1.216797a20 20 0 0 1 .185547.71875c.115104.461464.23008.922958.3125 1.396484a20 20 0 0 1 .017578.095703c.102524.606523.176046 1.221926.222656 1.845703a20 20 0 0 1 .015625.199219c.019208.296641.023777.596847.03125.896485.005842-.19503.015625-.389505.015625-.585938 0-.440762-.018795-.876881-.046875-1.310547a20 20 0 0 0 -.015625-.199219c-.046609-.623777-.120132-1.23918-.222656-1.845703a20 20 0 0 0 -.017578-.095703c-.082422-.473526-.197396-.93502-.3125-1.396484a20 20 0 0 0 -.185547-.71875c-.119491-.41272-.259398-.815536-.404297-1.216797a20 20 0 0 0 -.242188-.662109c-.156989-.390788-.333176-.770311-.513672-1.148438a20 20 0 0 0 -.316406-.65625c-.184317-.352401-.387479-.691591-.591797-1.03125a20 20 0 0 0 -.419921-.693359c-.215596-.327603-.451594-.639333-.685547-.953125a20 20 0 0 0 -.460938-.619141c-.25335-.313892-.525349-.610364-.796875-.908203a20 20 0 0 0 -.519531-.5703126c-.28587-.2903848-.589528-.5614224-.892578-.8339844a20 20 0 0 0 -.542969-.4921875c-.364906-.3048816-.750433-.5846142-1.136719-.8632813a20 20 0 0 0 -.419922-.3144531c-2.688924-1.8346993-5.84605-3.0326467-9.257812-3.3710937h-.001953a20 20 0 0 0 -.00586 0c-.654762-.0646971-1.318457-.0996094-1.990234-.0996094z" fill="#fff" opacity=".1"/></svg>