<svg height="48" width="48" xmlns="http://www.w3.org/2000/svg"><rect fill="#4f4f4f" height="40" rx="2" transform="matrix(0 -1 -1 0 0 0)" width="40" x="-44" y="-44"/><path d="m10 13 7.215 25.949-.016.051h6.3008l-.01758-.05664c.000594-.0026.0014-.0033.002-.0059l.016.063h14.5l-3-6h-6.5l-1.5-6 2-8h6l3-6h-13.801l-3.9004 14 .002.0039-.03125.11914-3.769-14.123h-6.5z" opacity=".2"/><path d="m6 4c-1.108 0-2 .892-2 2v1c0-1.108.892-2 2-2h36c1.108 0 2 .892 2 2v-1c0-1.108-.892-2-2-2z" fill="#fff" opacity=".1"/><path d="m6 45c-1.108 0-2-.892-2-2v-1c0 1.108.892 2 2 2h36c1.108 0 2-.892 2-2v1c0 1.108-.892 2-2 2z" opacity=".2"/><path d="m10 12 6.5-.000001 6.5248 24.447.475 1.553-6.2707-.000012z" fill="#0198c4"/><path d="m25.792 26.007-5.492-.007-2.625 10.447-.475 1.553 6.2707-.000012c2.7426-11.892 2.3218-11.993 2.3218-11.993z" fill="#4dbac2"/><path d="m24.199 12-3.899 14 3.2 12h14.5l-3-6h-6.5l-1.5-6 2-8h6l3-6z" fill="#06b788"/></svg>