<svg height="48" width="48" xmlns="http://www.w3.org/2000/svg"><rect fill="#4f4f4f" height="40" rx="2" transform="matrix(0 -1 -1 0 0 0)" width="40" x="-44" y="-44"/><path d="m6 4c-1.108 0-2 .892-2 2v1c0-1.108.892-2 2-2h36c1.108 0 2 .892 2 2v-1c0-1.108-.892-2-2-2z" fill="#fff" opacity=".1"/><path d="m6 45c-1.108 0-2-.892-2-2v-1c0 1.108.892 2 2 2h36c1.108 0 2-.892 2-2v1c0 1.108-.892 2-2 2z" opacity=".2"/><path d="m9.625 20 4.0312 10h2.875l3.969-10h-2.719l-2.719 6.594-2.687-6.594h-2.75z" fill-opacity=".971" opacity=".2"/><path d="m9.625 19 4.0312 10h2.875l3.969-10h-2.719l-2.719 6.594-2.687-6.594h-2.75z" fill="#6a2537"/><path d="m23.156 20c-1.354 3.351-2.73 6.68-4.156 10h2.875l2.6875-6.5625 2.6562 6.5625h2.875l2.656-6.75 2.75 6.75h2.875c-1.426-3.32-2.834-6.649-4.187-10h-2.875l-2.6562 6.5938-2.719-6.594h-2.782z" fill-opacity=".971" opacity=".2"/><path d="m23.156 19c-1.354 3.351-2.73 6.68-4.156 10h2.875l2.6875-6.5625 2.6562 6.5625h2.875l2.656-6.75 2.75 6.75h2.875c-1.426-3.32-2.834-6.649-4.187-10h-2.875l-2.6562 6.5938-2.719-6.594h-2.782z" fill="#a6aaad" fill-opacity=".941"/></svg>