<svg height="48" viewBox="0 0 48 48" width="48" xmlns="http://www.w3.org/2000/svg"><path d="m24 4a20 20 0 0 0 -20 20 20 20 0 0 0 20 20 20 20 0 0 0 20-20 20 20 0 0 0 -20-20z" fill="#f3b616"/><path d="m4.0215 24.418a20 20 0 0 0 -.0215.582 20 20 0 0 0 20 20 20 20 0 0 0 20-20 20 20 0 0 0 -.021-.418 20 20 0 0 1 -19.979 19.418 20 20 0 0 1 -19.978-19.582z" opacity=".2"/><path d="m24 4a20 20 0 0 0 -20 20 20 20 0 0 0 .0215.418 20 20 0 0 1 19.978-19.418 20 20 0 0 1 19.979 19.582 20 20 0 0 0 .021-.582 20 20 0 0 0 -20-20z" fill="#fff" opacity=".2"/><path d="m37.898101 5c.706095.0000411 1.100698.5590825 1.183798 1.6771448l-.891867 5.2654352h.218069l.467283-.390036h.124616v.117011c-.643855.494077-1.266908 1.846181-1.869159 4.056333-.228479 1.898187-.6127 3.653329-1.152653 5.265446-.477693 1.664155-.716535 3.198276-.716505 4.602384l-.90343 2.769227c-.00002.234031.342656.468053 1.028036.702054-.124636.546061-.31155.819086-.560744.819076v.156014h.218069v.117c-.00003.286038-.353087.429051-1.059191.42904l.124607.156014v.54604h-.218069c.145359.546062.456881.819077.934584.819077v.273015h-.934584v.156014c.311502.00001.467272.234032.467292.702065l-1.308404.54604.124606.156015v.117011c-.000019.182017-.15579.273025-.467292.273025v.156004c.394573.00001.591879.09099.591899.273025-.560764.234022-1.298042 1.391119-2.211834 3.47129-.934604 1.846161-1.744572 2.769236-2.429904 2.769236h-.249223c-.519228-.416038-.944985-1.794156-1.27726-4.134351-1.329196-3.562289-1.993784-5.655462-1.993765-6.279519-.000019-1.612119-.425776-3.328267-1.27726-5.148425-.22847-.806054-.38423-2.215582-.467292-3.437705h-.560744c-1.412268 2.678237-2.149546 5.01085-2.211844 6.518959-.394603.884082-.706134 1.95017-.934575 3.198265.851494.286037 1.27725.559052 1.27726.819065v.156015c-.664608-.104-1.13189-.299018-1.401876-.585044-.290759.702065-.67498 2.652225-1.152644 5.850479-.373839 1.482127-.841131 2.042261-1.401866 2.042261-1.57841-.65005-2.897205-1.535214-3.956386-3.017341-.166152.000011-.436148-.741058-.809968-2.223185-.22846.000011-.384221-.741058-.467292-2.223185-.789205-2.106164-1.329177-4.511365-1.619936-7.215595v-4.056344h-.124616l-.5607449.156014v-.156014c0-.181986.1869149-.272995.5607449-.273015l-.1246069-2.340196v-1.833159l-.9034301-5.85048v-2.49621c.3946024-1.5600928 1.079963-2.3401546 2.056073-2.3401957l.37385.3900361-.37383-.1170108c1.516092 2.0802024 2.40914 3.8353444 2.679126 5.2654354h1.059191v.273025h-.809967v.312029c.311521 1.196121.539971 1.794176.685361 1.794146h.249223l.560744-.156015.124607.156015.124616-.156015.124607.156015v.11701c-.415375.31205-.695742.741089-.841122 1.287109h-.09344v.273015h.218069c.290749 4.342391.830731 7.631654 1.619936 9.86783l.467292.390026h.249213c.311522.000021.965729-1.52111 1.962621-4.563381.643816-1.378086 1.111098-2.387173 1.401867-3.427279l-.124607-.42904c.643806-1.014063 1.308395-1.521099 1.993765-1.52113h.218069c.436129.000031.74765.286047.934585.858079.581497.85809 1.048789 1.945184 1.401866 3.661301l1.744552 4.056334c.228431.286047.342656.611067.342676.97509.643806 1.534132 1.225313 2.912245 1.744552 3.406281h.373829c.436119.00001 1.017626-2.262175 1.744543-6.058505.124596.00002.467272-1.014063 1.028036-3.042251v-.156014l-.592681-.273026-.467292.156015h-.591899v-.312029l1.183797-.117011h.935367c.89302-3.354248 1.713369-5.954468 2.461058-7.800649.249194-3.7962793.591879-5.6944343 1.028037-5.6944651l1.701844-.7020649" opacity=".2"/><path d="m37.898101 4c.706095.0000411 1.100698.5590825 1.183798 1.6771448l-.891867 5.2654352h.218069l.467283-.390036h.124616v.117011c-.643855.494077-1.266908 1.846181-1.869159 4.056333-.228479 1.898187-.6127 3.653329-1.152653 5.265446-.477693 1.664155-.716535 3.198276-.716505 4.602384l-.90343 2.769227c-.00002.234031.342656.468053 1.028036.702054-.124636.546061-.31155.819086-.560744.819076v.156014h.218069v.117c-.00003.286038-.353087.429051-1.059191.42904l.124607.156014v.54604h-.218069c.145359.546062.456881.819077.934584.819077v.273015h-.934584v.156014c.311502.00001.467272.234032.467292.702065l-1.308404.54604.124606.156015v.117011c-.000019.182017-.15579.273025-.467292.273025v.156004c.394573.00001.591879.09099.591899.273025-.560764.234022-1.298042 1.391119-2.211834 3.47129-.934604 1.846161-1.744572 2.769236-2.429904 2.769236h-.249223c-.519228-.416038-.944985-1.794156-1.27726-4.134351-1.329196-3.562289-1.993784-5.655462-1.993765-6.279519-.000019-1.612119-.425776-3.328267-1.27726-5.148425-.22847-.806054-.38423-2.215582-.467292-3.437705h-.560744c-1.412268 2.678237-2.149546 5.01085-2.211844 6.518959-.394603.884082-.706134 1.95017-.934575 3.198265.851494.286037 1.27725.559052 1.27726.819065v.156015c-.664608-.104-1.13189-.299018-1.401876-.585044-.290759.702065-.67498 2.652225-1.152644 5.850479-.373839 1.482127-.841131 2.042261-1.401866 2.042261-1.57841-.65005-2.897205-1.535214-3.956386-3.017341-.166152.000011-.436148-.741058-.809968-2.223185-.22846.000011-.384221-.741058-.467292-2.223185-.789205-2.106164-1.329177-4.511365-1.619936-7.215595v-4.056344h-.124616l-.5607449.156014v-.156014c0-.181986.1869149-.272995.5607449-.273015l-.1246069-2.340196v-1.833159l-.9034301-5.85048v-2.4962098c.3946024-1.560093 1.079963-2.3401548 2.056073-2.3401959l.37385.3900361-.37383-.1170108c1.516092 2.0802026 2.40914 3.8353444 2.679126 5.2654354h1.059191v.273025h-.809967v.312029c.311521 1.196121.539971 1.794176.685361 1.794146h.249223l.560744-.156015.124607.156015.124616-.156015.124607.156015v.11701c-.415375.31205-.695742.741089-.841122 1.287109h-.09344v.273015h.218069c.290749 4.342391.830731 7.631654 1.619936 9.86783l.467292.390026h.249213c.311522.000021.965729-1.52111 1.962621-4.563381.643816-1.378086 1.111098-2.387173 1.401867-3.427279l-.124607-.42904c.643806-1.014063 1.308395-1.521099 1.993765-1.52113h.218069c.436129.000031.74765.286047.934585.858079.581497.85809 1.048789 1.945184 1.401866 3.661301l1.744552 4.056334c.228431.286047.342656.611067.342676.97509.643806 1.534132 1.225313 2.912245 1.744552 3.406281h.373829c.436119.00001 1.017626-2.262175 1.744543-6.058505.124596.00002.467272-1.014063 1.028036-3.042251v-.156014l-.592681-.273026-.467292.156015h-.591899v-.312029l1.183797-.117011h.935367c.89302-3.354248 1.713369-5.954468 2.461058-7.800649.249194-3.7962793.591879-5.6944343 1.028037-5.6944651l1.701844-.7020649" fill="#fff"/></svg>