<?xml version="1.0" encoding="UTF-8"?>
<svg id="svg16" width="48" height="48" version="1" xmlns="http://www.w3.org/2000/svg" xmlns:cc="http://creativecommons.org/ns#" xmlns:dc="http://purl.org/dc/elements/1.1/" xmlns:rdf="http://www.w3.org/1999/02/22-rdf-syntax-ns#">
 <metadata id="metadata22">
  <rdf:RDF>
   <cc:Work rdf:about="">
    <dc:format>image/svg+xml</dc:format>
    <dc:type rdf:resource="http://purl.org/dc/dcmitype/StillImage"/>
    <dc:title/>
   </cc:Work>
  </rdf:RDF>
 </metadata>
 <path id="path39797" d="m22.462 5c-10.134 0-18.462 8.328-18.462 18.462 0 10.134 8.328 18.462 18.462 18.462 0.82594 0 1.6335-0.07518 2.4319-0.18229a11.282 11.282 0 0 1-2.4319-6.9972 11.282 11.282 0 0 1 1.9992-6.4062c-0.61763 0.25566-1.2928 0.39864-1.9992 0.39864-2.8975 0-5.2744-2.3769-5.2744-5.2744 0-2.8975 2.3769-5.2744 5.2744-5.2744 2.8975 0 5.2744 2.3769 5.2744 5.2744 0 0.71238-0.14486 1.3933-0.40465 2.0152a11.282 11.282 0 0 1 6.4123-2.0152 11.282 11.282 0 0 1 6.9952 2.4459c0.10836-0.80293 0.1843-1.6151 0.1843-2.4459 0-10.134-8.328-18.462-18.462-18.462z" color="#bebebe" fill="#555" filter="url(#filter7554)" style="text-decoration-line:none;text-indent:0;text-transform:none"/>
 <circle id="circle12-6" cx="33.744" cy="34.744" r="10.256" fill="#ff5722" stroke-width=".64103"/>
 <path id="path14-7" d="m34.932 29.615c-3.1462 1.2821-5.0346 4.2872-5.0346 6.4103 0 2.0992 1.6518 3.8026 3.7035 3.8424-1.0252-0.0205-1.8512-0.87013-1.8512-1.9194 0-1.0621 0.94399-2.5641 2.5173-3.2051 0 2.2436 1.6892 2.5679 1.2586 3.8462-0.24414 0.72478-0.83965 1.2749-1.8721 1.2808 0.0061 3.2e-5 0.01301 7.05e-4 0.01961 7.05e-4 2.0854 0 3.285-1.1067 3.7759-2.5641 0.86115-2.5565-2.5173-3.2051-2.5173-7.6923z" fill="#fff" stroke-width=".64103"/>
</svg>
