<?xml version="1.0" encoding="UTF-8"?>
<svg id="svg12" width="48" height="48" version="1" xmlns="http://www.w3.org/2000/svg" xmlns:cc="http://creativecommons.org/ns#" xmlns:dc="http://purl.org/dc/elements/1.1/" xmlns:rdf="http://www.w3.org/1999/02/22-rdf-syntax-ns#">
 <metadata id="metadata18">
  <rdf:RDF>
   <cc:Work rdf:about="">
    <dc:format>image/svg+xml</dc:format>
    <dc:type rdf:resource="http://purl.org/dc/dcmitype/StillImage"/>
    <dc:title/>
   </cc:Work>
  </rdf:RDF>
 </metadata>
 <path id="path10" d="m14.134 36.191c-0.8003-0.10769-2.2239-0.57107-3.1735-1.0282-6.187-2.9646-8.7172-10.431-5.6699-16.721 3.4813-7.1912 12.98-9.0244 18.696-3.6078 1.6529 1.5638 2.3871 2.8983 4.8757 8.815 2.5979 6.1877 3.0781 7.1606 3.92 7.9855 0.90188 0.87738 1.7376 1.1729 3.3367 1.1729 2.6272 0 4.5033-1.6238 4.5033-3.8897 0-1.9178-0.6741-2.532-4.1123-3.7526-5.2358-1.8886-6.9319-3.5955-6.938-7.0235 0-1.8286 0.46325-3.0477 1.6406-4.3114 1.6899-1.8038 4.6048-2.3995 7.1843-1.5038 1.1004 0.39108 3.4028 2.4289 3.4028 3.0123 0 0.28323-1.3344 1.1483-2.0746 1.3531-0.39092 0.10154-0.72797-0.03077-1.1789-0.46338-0.91419-0.87738-1.5329-1.1483-2.6272-1.1483-1.8884 0-3.0596 1.136-3.0596 2.9708 0 1.8286 0.7449 2.4474 4.4663 3.7034 5.1281 1.7317 6.6425 3.2955 6.6733 6.9143 0.03078 3.1261-1.3774 5.3811-4.1785 6.7155-1.2743 0.60184-1.7068 0.67892-3.7876 0.67892-2.9704 0-4.3047-0.55261-5.97-2.4289-1.1189-1.2621-2.2547-3.6311-5.8915-12.278-1.5083-3.5834-3.4444-5.3397-6.6733-6.0307-1.636-0.34938-3.9138-0.02462-5.399 0.75738-1.4482 0.75723-3.0658 2.4658-3.8292 4.0281-0.63101 1.2683-0.69103 1.6238-0.69103 3.8295 0 2.1041 0.08464 2.6029 0.61254 3.7572 0.8003 1.7625 2.3748 3.3909 4.1062 4.2683 1.2512 0.63107 1.6406 0.70969 3.6368 0.70969 1.9177 0 2.4101-0.09077 3.5537-0.63723 1.3051-0.63738 3.0596-2.2012 3.7753-3.3724l0.37245-0.608 0.73413 1.6777c0.40939 0.92661 0.73874 1.7978 0.73874 1.9548 0 0.46338-1.6591 1.978-3.1797 2.9215-2.3086 1.4254-4.9604 1.9594-7.7922 1.5746" fill="#555" stroke-width="1.5384"/>
</svg>
