<?xml version="1.0" encoding="UTF-8"?>
<svg id="svg12" width="48" height="48" version="1" xmlns="http://www.w3.org/2000/svg" xmlns:cc="http://creativecommons.org/ns#" xmlns:dc="http://purl.org/dc/elements/1.1/" xmlns:rdf="http://www.w3.org/1999/02/22-rdf-syntax-ns#">
 <metadata id="metadata18">
  <rdf:RDF>
   <cc:Work rdf:about="">
    <dc:format>image/svg+xml</dc:format>
    <dc:type rdf:resource="http://purl.org/dc/dcmitype/StillImage"/>
    <dc:title/>
   </cc:Work>
  </rdf:RDF>
 </metadata>
 <rect id="rect2" x="3" y="4" width="42" height="42" rx="21" ry="21" fill="#555" stroke-width="1.05"/>
 <path id="path10" d="m17.267 33.32c-0.54622-0.0735-1.5179-0.38976-2.166-0.70172-4.2227-2.0234-5.9496-7.1194-3.8697-11.412 2.376-4.908 8.8592-6.1592 12.761-2.4624 1.1282 1.0673 1.6292 1.9781 3.3277 6.0163 1.7731 4.2231 2.1008 4.8871 2.6754 5.4501 0.61555 0.59882 1.1859 0.80052 2.2773 0.80052 1.7931 0 3.0735-1.1083 3.0735-2.6547 0-1.3089-0.46008-1.7281-2.8067-2.5612-3.5735-1.289-4.7311-2.454-4.7353-4.7936 0-1.248 0.31618-2.08 1.1197-2.9425 1.1534-1.2311 3.1429-1.6377 4.9034-1.0264 0.75105 0.26691 2.3225 1.6577 2.3225 2.0559 0 0.1933-0.91072 0.78372-1.416 0.92348-0.26681 0.0693-0.49685-0.021-0.80462-0.31626-0.62395-0.59882-1.0462-0.78372-1.7931-0.78372-1.2889 0-2.0882 0.77532-2.0882 2.0276 0 1.248 0.5084 1.6703 3.0483 2.5276 3.5 1.1819 4.5336 2.2492 4.5546 4.719 0.02101 2.1336-0.94012 3.6726-2.8519 4.5834-0.86975 0.41076-1.1649 0.46336-2.5851 0.46336-2.0273 0-2.938-0.37716-4.0746-1.6577-0.76365-0.86142-1.5389-2.4782-4.021-8.38-1.0294-2.4457-2.3508-3.6443-4.5546-4.116-1.1166-0.23846-2.6712-0.0168-3.6849 0.51692-0.98844 0.51681-2.0924 1.6829-2.6134 2.7492-0.43067 0.86562-0.47164 1.1083-0.47164 2.6137 0 1.4361 0.05777 1.7765 0.41807 2.5643 0.54622 1.2029 1.6208 2.3143 2.8025 2.9131 0.85399 0.43071 1.1197 0.48436 2.4821 0.48436 1.3088 0 1.645-0.06195 2.4254-0.43491 0.89076-0.43502 2.0882-1.5023 2.5767-2.3017l0.2542-0.41496 0.50105 1.145c0.27941 0.63242 0.5042 1.227 0.5042 1.3341 0 0.31626-1.1324 1.35-2.1702 1.994-1.5756 0.97282-3.3855 1.3373-5.3183 1.0747" fill="#fff" stroke-width="1.05"/>
</svg>
