<?xml version="1.0" encoding="UTF-8"?>
<!-- Created with Inkscape (http://www.inkscape.org/) -->
<svg id="svg2" width="48" height="48" version="1.1" viewBox="0 0 48 48" xmlns="http://www.w3.org/2000/svg" xmlns:cc="http://creativecommons.org/ns#" xmlns:dc="http://purl.org/dc/elements/1.1/" xmlns:rdf="http://www.w3.org/1999/02/22-rdf-syntax-ns#">
 <metadata id="metadata8">
  <rdf:RDF>
   <cc:Work rdf:about="">
    <dc:format>image/svg+xml</dc:format>
    <dc:type rdf:resource="http://purl.org/dc/dcmitype/StillImage"/>
    <dc:title/>
   </cc:Work>
  </rdf:RDF>
 </metadata>
 <g id="g832" transform="translate(2.5 -1.5)" fill="#555">
  <path id="path5692_2_-3" d="m9.9305 6.5034c-0.090786 0.00928-0.17847 0.049175-0.24666 0.11728l-3.1556 3.1331c-0.13267 0.13213-0.15767 0.33701-0.059855 0.497l3.6945 6.0425c-0.65526 1.0939-1.1804 2.2734-1.5558 3.5177l-6.7825 1.401c-0.18871 0.038785-0.32467 0.20485-0.32467 0.39716v4.4309c0 0.18739 0.1291 0.34969 0.31093 0.39334l6.5831 1.5979c0.35105 1.441 0.89506 2.8071 1.614 4.0627l-3.8104 5.7702c-0.10631 0.16126-0.084091 0.3737 0.053262 0.50954l3.1545 3.1331c0.13267 0.13139 0.3398 0.15718 0.50158 0.06051l5.9711-3.6011c1.1729 0.67213 2.4378 1.201 3.7747 1.5597l1.3932 6.6518c0.0392 0.18848 0.20698 0.32243 0.39939 0.32243h4.4625c0.1876 0 0.35132-0.12711 0.39609-0.30989l1.641-6.6655c1.3781-0.36932 2.6815-0.91978 3.8829-1.6224l5.8843 3.8314c0.1618 0.10578 0.37578 0.08459 0.51311-0.05175l3.1556-3.1331c0.13348-0.1325 0.15738-0.33741 0.05932-0.49698l-4.0163-5.0519c-1.803-2.4559-1.5795-2.2044-2.2377-2.9022-2.1153 4.1112-6.4191 6.9273-11.389 6.9273-7.0609 0-12.785-5.6848-12.785-12.697 0-5.1584 3.0983-9.5946 7.5461-11.582v-3.2754c-0.80949 0.28121-1.5921 0.62027-2.3354 1.0223-5.29e-4 -4.91e-4 -0.0011-0.0019-0.0032-0.0038l-6.0227-3.9226c-0.081115-0.052703-0.17512-0.073674-0.26589-0.064393z" stroke-width=".49271"/>
  <path id="path5" class="ColorScheme-Text" d="m24.14 13.436a10.583 10.581 0 0 0-7.6372 3.1 10.583 10.581 0 0 0 0 14.963 10.583 10.581 0 0 0 14.964 0 10.583 10.581 0 0 0 0-14.963 10.583 10.581 0 0 0-7.3272-3.1zm-0.28937 1.3227a9.2597 9.2586 0 0 1 6.1904 2.2681l-1.8576 1.8574a10.582 6.6137 44.992 0 0-7.1748-3.627 9.2597 9.2586 0 0 1 2.842-0.49858zm-4.0046 1.7282a9.2592 5.2909 44.993 0 1 7.3995 3.335l-3.2605 3.2601-6.0199-6.0191a9.2592 5.2909 44.993 0 1 1.8809-0.57608zm11.138 1.4673a9.2597 9.2586 0 0 1 1.7672 9.008 10.582 6.6137 44.992 0 0-3.6378-7.1377zm-13.957 0.04134 6.0225 6.0217-3.2631 3.2627a9.2592 5.2909 44.993 0 1-2.7593-9.2844zm11.156 2.759a9.2592 5.2909 44.993 0 1 2.7593 9.2844l-6.0225-6.0217zm-12.965 0.31775a10.582 6.6137 44.992 0 0 3.6378 7.1377l-1.8706 1.8703a9.2597 9.2586 0 0 1-1.7672-9.008zm8.7663 3.8801 6.0199 6.0191a9.2592 5.2909 44.993 0 1-9.2804-2.759zm-4.1984 4.1979a10.582 6.6137 44.992 0 0 7.1748 3.627 9.2597 9.2586 0 0 1-9.0324-1.7696z" stroke-width="1.3227"/>
 </g>
</svg>
