<?xml version="1.0" encoding="UTF-8"?>
<!-- Created with Inkscape (http://www.inkscape.org/) -->
<svg id="svg7384" width="48" height="48" enable-background="new" version="1.1" xmlns="http://www.w3.org/2000/svg" xmlns:cc="http://creativecommons.org/ns#" xmlns:dc="http://purl.org/dc/elements/1.1/" xmlns:rdf="http://www.w3.org/1999/02/22-rdf-syntax-ns#">
 <metadata id="metadata90">
  <rdf:RDF>
   <cc:Work rdf:about="">
    <dc:format>image/svg+xml</dc:format>
    <dc:type rdf:resource="http://purl.org/dc/dcmitype/StillImage"/>
    <dc:title>Paper Symbolic Icon Theme</dc:title>
   </cc:Work>
  </rdf:RDF>
 </metadata>
 <title id="title8473">Paper Symbolic Icon Theme</title>
 <g id="layer12" transform="matrix(2.8829 0 0 2.8572 -1397.1 -285.63)" fill="#555">
  <path id="path10500" d="m491.19 101.72-0.1543 1.8438c-0.58462 0.21656-1.1282 0.53093-1.6074 0.92969l-1.6758-0.78906-1.75 3.0312 1.5215 1.0566c-0.0542 0.30631-0.0823 0.61667-0.084 0.92773 2.1e-4 0.31226 0.027 0.62393 0.0801 0.93164l-1.5176 1.0527 1.75 3.0312 1.6719-0.7871c0.48084 0.39706 1.0257 0.70945 1.6113 0.92382l0.1543 1.8477h3.5l0.1543-1.8438c0.58462-0.21656 1.1282-0.53093 1.6074-0.92969l1.6758 0.78906 1.75-3.0312-1.5215-1.0566c0.0542-0.30631 0.0823-0.61667 0.084-0.92773-2.1e-4 -0.31226-0.027-0.62393-0.0801-0.93164l1.5176-1.0527-1.75-3.0312-1.6719 0.7871c-0.48084-0.39706-1.0257-0.70945-1.6113-0.92382l-0.1543-1.8477z" enable-background="new" fill="#555"/>
 </g>
 <path id="path5938" d="m24 15c0.74952 0 1.3571 0.59696 1.3571 1.3333-3.94e-4 0.0444-0.0027 0.08867-0.0081 0.1328 3.1083 0.61177 5.4368 3.295 5.4365 6.5339l-1.89e-4 2.6667v3.3333l2.7143 2.6667v0.66667h-19v-0.66667l2.7143-2.6667 1.91e-4 -6c1.09e-4 -3.2389 2.3284-5.9221 5.4365-6.5339-0.0054-0.04413-0.0081-0.0884-0.0081-0.1328 0-0.73637 0.60762-1.3333 1.3571-1.3333zm2.3457 18.667c-0.484 0.82361-1.3778 1.3317-2.3458 1.3333-0.96896-7.47e-4 -1.864-0.50892-2.3485-1.3333z" enable-background="new" fill="#fff"/>
</svg>
