<?xml version="1.0" encoding="UTF-8"?>
<!-- Created with Inkscape (http://www.inkscape.org/) -->
<svg id="svg7384" width="48" height="48" enable-background="new" version="1.1" xmlns="http://www.w3.org/2000/svg" xmlns:cc="http://creativecommons.org/ns#" xmlns:dc="http://purl.org/dc/elements/1.1/" xmlns:rdf="http://www.w3.org/1999/02/22-rdf-syntax-ns#">
 <metadata id="metadata90">
  <rdf:RDF>
   <cc:Work rdf:about="">
    <dc:format>image/svg+xml</dc:format>
    <dc:type rdf:resource="http://purl.org/dc/dcmitype/StillImage"/>
    <dc:title>Paper Symbolic Icon Theme</dc:title>
   </cc:Work>
  </rdf:RDF>
 </metadata>
 <title id="title8473">Paper Symbolic Icon Theme</title>
 <defs id="defs7386">
  <filter id="filter7554" color-interpolation-filters="sRGB">
   <feBlend id="feBlend7556" in2="BackgroundImage" mode="darken"/>
  </filter>
 </defs>
 <g id="layer12" transform="translate(-425 71.016)">
  <path id="path8675" d="m470-47.016h-5.25c0-7.3666-4.8966-13.557-11.566-15.417-0.0829-0.02401-0.16301-0.06134-0.24596-0.0832-0.66985-0.17467-1.3496-0.24907-2.0508-0.33334-0.61236-0.0736-1.2549-0.16667-1.8867-0.16667-1.6178 0.0017-3.2258 0.2536-4.7578 0.75001v0.0832c-2.2092 0.71217-4.2357 1.8516-5.9062 3.4167l3.1172 4.2501c1.3178-1.3687 3.04-2.257 4.9219-2.75v-0.0832c0.99782-0.23814 2.0728-0.32459 3.1172-0.24987 0.47723 0.03413 0.91688 0.07626 1.3945 0.16667 4.901 0.90084 8.6132 5.1782 8.6132 10.417h-5.25l7.875 10.667 7.875-10.667zm-10.336 11.75-3.1172-4.2501c-1.3177 1.3687-3.04 2.257-4.9218 2.75v0.0832c-0.99782 0.23814-2.0728 0.32459-3.1172 0.24987-0.47723-0.03413-0.91688-0.07626-1.3945-0.16667-4.901-0.90084-8.6132-5.1782-8.6132-10.417h5.25l-7.875-10.667-7.875 10.667h5.25c0 7.3666 4.8966 13.557 11.566 15.417 0.0845 0.02401 0.16091 0.06106 0.24596 0.0832 0.66986 0.17467 1.3496 0.24907 2.0508 0.33334 0.61236 0.0736 1.2549 0.16667 1.8867 0.16667 1.6178-0.0017 3.2258-0.2536 4.7578-0.75001v-0.0832c2.2092-0.71217 4.2357-1.8516 5.9062-3.4167z" enable-background="new" fill="#555"/>
 </g>
</svg>
