<svg enable-background="new" height="48" width="48" xmlns="http://www.w3.org/2000/svg" xmlns:xlink="http://www.w3.org/1999/xlink"><filter id="a" color-interpolation-filters="sRGB" height="1.026229" width="1.02212" x="-.01106" y="-.013115"><feGaussianBlur stdDeviation=".25136363"/></filter><linearGradient id="b" gradientUnits="userSpaceOnUse" x1="6.61363725" x2="41.386365" y1="21.7500015" y2="21.7500015"><stop offset="0" stop-color="#666"/><stop offset="1"/></linearGradient><g filter="url(#a)" opacity=".2" transform="matrix(.75 0 0 .75 55.450174 8.090207)"><rect height="30" rx="2" ry="1.363636" transform="matrix(0 -1 -1 0 0 0)" width="4" x="-45.213058" y="26.933561"/><rect height="40" rx="2.727273" ry="2.857143" width="54.545452" x="-69.206291" y="-.786942"/><rect height="6" rx=".5" ry=".428571" width="10" x="-46.933563" y="36.213058"/></g><g fill="#78909c" transform="scale(.75)"><rect height="30" rx="2" ry="1.363636" stroke-width=".825723" transform="matrix(0 -1 -1 0 0 0)" width="4" x="-55" y="-47"/><rect height="40" rx="2.727273" ry="2.857143" width="54.545452" x="4.727274" y="9"/><rect height="6" rx=".5" ry=".428571" width="10" x="27" y="46"/></g><path d="m6.613637 9.964287h34.772728v23.57143h-34.772728z" fill="url(#b)" stroke-width="1.046795"/></svg>