<svg enable-background="new" height="48" width="48" xmlns="http://www.w3.org/2000/svg" xmlns:xlink="http://www.w3.org/1999/xlink"><filter id="a" color-interpolation-filters="sRGB" height="1.018982" width="1.032625" x="-.016313" y="-.009491"><feGaussianBlur stdDeviation=".2175"/></filter><filter id="b" color-interpolation-filters="sRGB" height="1.017891" width="1.036444" x="-.018222" y="-.008945"><feGaussianBlur stdDeviation=".205"/></filter><path d="m10.6 5v3.9285715h-9.6v3.9285715 43.214286c0 2.176428 1.4272 3.928571 3.2 3.928571h25.6c1.7728 0 3.2-1.752143 3.2-3.928571v-43.214286-3.9285715h-9.6v-3.9285715z" filter="url(#a)" opacity=".2" stroke-width="3.545621" transform="scale(.75)"/><rect filter="url(#b)" height="55" opacity=".2" ry="1.933141" transform="scale(.75)" width="27" x="36" y="5"/><path d="m7.95 2.9999999v2.9464286h-7.2v2.9464288 32.4107147c0 1.632321 1.0704 2.946428 2.4 2.946428h19.2c1.3296 0 2.4-1.314107 2.4-2.946428v-32.4107147-2.9464288h-7.2v-2.9464286z" fill="#f9ce1d" stroke-width="2.659216"/><path d="m.75 17.732143v23.571429c0 1.632321 1.0704 2.946428 2.4 2.946428h19.2c1.3296 0 2.4-1.314107 2.4-2.946428v-23.571429z" fill="#263238" stroke-width="2.659216"/><rect fill="#fff" height="40.500122" ry="1.423499" stroke="#000" stroke-width=".749877" width="19.500122" x="27.374939" y="3.374939"/></svg>