<svg enable-background="new" height="48" width="48" xmlns="http://www.w3.org/2000/svg" xmlns:xlink="http://www.w3.org/1999/xlink"><filter id="a" color-interpolation-filters="sRGB" height="1.018982" width="1.032625" x="-.016313" y="-.009491"><feGaussianBlur stdDeviation=".2175"/></filter><path d="m25.600001 5.4999998v3.9285715h-9.6v3.9285717 43.214286c0 2.176428 1.4272 3.928571 3.2 3.928571h25.6c1.7728 0 3.2-1.752143 3.2-3.928571v-43.214286-3.9285717h-9.600001v-3.9285715z" filter="url(#a)" opacity=".2" stroke-width="3.545621" transform="scale(.75)"/><g stroke-width="2.659216"><path d="m19.2 3.3749999v2.9464286h-7.2v2.9464288 32.4107147c0 1.632321 1.0704 2.946428 2.4 2.946428h19.2c1.3296 0 2.4-1.314107 2.4-2.946428v-32.4107147-2.9464288h-7.2v-2.9464286z" fill="#68b723"/><path d="m12 18.107143v23.571429c0 1.632321 1.0704 2.946428 2.4 2.946428h19.2c1.3296 0 2.4-1.314107 2.4-2.946428v-23.571429z" fill="#0e141f"/><path d="m24 15.061842v8.839285h7.2l-7.2 14.732143v-8.839285h-7.2z" fill="#f9c440"/></g></svg>