<?xml version="1.0" encoding="UTF-8"?>
<!-- Created with Inkscape (http://www.inkscape.org/) -->
<svg id="svg7384" width="32" height="32" enable-background="new" version="1.1" xmlns="http://www.w3.org/2000/svg" xmlns:cc="http://creativecommons.org/ns#" xmlns:dc="http://purl.org/dc/elements/1.1/" xmlns:rdf="http://www.w3.org/1999/02/22-rdf-syntax-ns#">
 <metadata id="metadata90">
  <rdf:RDF>
   <cc:Work rdf:about="">
    <dc:format>image/svg+xml</dc:format>
    <dc:type rdf:resource="http://purl.org/dc/dcmitype/StillImage"/>
    <dc:title>Paper Symbolic Icon Theme</dc:title>
   </cc:Work>
  </rdf:RDF>
 </metadata>
 <title id="title8473">Paper Symbolic Icon Theme</title>
 <defs id="defs7386">
  <filter id="filter7554" color-interpolation-filters="sRGB">
   <feBlend id="feBlend7556" in2="BackgroundImage" mode="darken"/>
  </filter>
 </defs>
 <g id="layer12" transform="translate(-425 55.016)">
  <path id="path8675" d="m455-38.683h-3.5c0-4.911-3.2644-9.0377-7.7109-10.278-0.0553-0.01601-0.10868-0.04089-0.16398-0.05547-0.44656-0.11645-0.89974-0.16605-1.3672-0.22223-0.40824-0.04907-0.8366-0.11111-1.2578-0.11111-1.0785 0.0011-2.1505 0.16907-3.1719 0.50001v0.05547c-1.4728 0.47478-2.8238 1.2344-3.9375 2.2778l2.0781 2.8334c0.8785-0.91244 2.0267-1.5047 3.2812-1.8334v-0.05547c0.66521-0.15876 1.3818-0.2164 2.0781-0.16658 0.31815 0.02275 0.61125 0.05084 0.92968 0.11111 3.2674 0.60056 5.7422 3.4522 5.7422 6.9446h-3.5l5.25 7.1112 5.25-7.1112zm-6.8906 7.8335-2.0781-2.8334c-0.8785 0.91244-2.0267 1.5047-3.2812 1.8334v0.05547c-0.66521 0.15876-1.3818 0.2164-2.0781 0.16658-0.31815-0.02275-0.61125-0.05084-0.92968-0.11111-3.2674-0.60056-5.7422-3.4522-5.7422-6.9446h3.5l-5.25-7.1112-5.25 7.1112h3.5c0 4.911 3.2644 9.0377 7.7109 10.278 0.0563 0.01601 0.10727 0.04071 0.16397 0.05547 0.44658 0.11645 0.89975 0.16605 1.3672 0.22223 0.40824 0.04907 0.8366 0.11111 1.2578 0.11111 1.0785-0.0011 2.1505-0.16907 3.1719-0.50001v-0.05547c1.4728-0.47478 2.8238-1.2344 3.9375-2.2778z" enable-background="new" fill="#555"/>
 </g>
</svg>
