<?xml version="1.0" encoding="UTF-8"?>
<svg id="svg12" width="32" height="32" enable-background="new" version="1.1" xmlns="http://www.w3.org/2000/svg" xmlns:cc="http://creativecommons.org/ns#" xmlns:dc="http://purl.org/dc/elements/1.1/" xmlns:rdf="http://www.w3.org/1999/02/22-rdf-syntax-ns#">
 <metadata id="metadata90">
  <rdf:RDF>
   <cc:Work rdf:about="">
    <dc:format>image/svg+xml</dc:format>
    <dc:type rdf:resource="http://purl.org/dc/dcmitype/StillImage"/>
    <dc:title/>
   </cc:Work>
  </rdf:RDF>
 </metadata>
 <g id="layer9" transform="translate(-461 219)" fill="#555">
  <path id="path5086" d="m469.57-211.29c-3.0544 0-5.5714 2.517-5.5714 5.5714v7.4286c0 3.0544 2.517 5.5714 5.5714 5.5714h6.0938c-0.313-0.87759-0.52232-1.8006-0.52232-2.7857 0-0.31902 0.0813-0.61886 0.11607-0.92857h-5.6875c-1.061 0-1.8571-0.79616-1.8571-1.8572v-7.4286c0-1.061 0.79616-1.8571 1.8571-1.8571h5.5714v-3.7143zm13 0v3.7143h1.8572c1.061 0 1.8571 0.79616 1.8571 1.8571v2.3795c1.4755 0.52622 2.754 1.4119 3.7143 2.6116v-4.9911c0-3.0544-2.517-5.5714-5.5714-5.5714z" color="#000000" stroke-width="1.8571"/>
  <path id="path5088" d="m480.71-209.43-7.4286-5.5714v11.143z" stroke-width="1.8571"/>
  <path id="path39797" d="m483.5-202c-3.5679 0-6.5 2.9322-6.5 6.5s2.9321 6.5 6.5 6.5c3.5678 0 6.5-2.9322 6.5-6.5s-2.9322-6.5-6.5-6.5zm0 4.6429c1.0202 0 1.8571 0.83697 1.8571 1.8571s-0.83697 1.8571-1.8571 1.8571c-1.0202 0-1.8571-0.83697-1.8571-1.8571s0.83696-1.8571 1.8571-1.8571z" color="#bebebe" enable-background="accumulate" filter="url(#filter7554)" style="text-decoration-line:none;text-indent:0;text-transform:none"/>
 </g>
</svg>
