<?xml version="1.0" encoding="UTF-8"?>
<svg id="svg16" width="32" height="32" version="1" xmlns="http://www.w3.org/2000/svg" xmlns:cc="http://creativecommons.org/ns#" xmlns:dc="http://purl.org/dc/elements/1.1/" xmlns:rdf="http://www.w3.org/1999/02/22-rdf-syntax-ns#">
 <metadata id="metadata22">
  <rdf:RDF>
   <cc:Work rdf:about="">
    <dc:format>image/svg+xml</dc:format>
    <dc:type rdf:resource="http://purl.org/dc/dcmitype/StillImage"/>
    <dc:title/>
   </cc:Work>
  </rdf:RDF>
 </metadata>
 <path id="path39797" d="m15 4c-6.5868 0-12 5.4132-12 12 0 6.5868 5.4132 12 12 12 0.53686 0 1.0618-0.04887 1.5807-0.11849a7.3333 7.3333 0 0 1-1.5807-4.5482 7.3333 7.3333 0 0 1 1.2995-4.1641c-0.40146 0.16618-0.84033 0.25912-1.2995 0.25912-1.8834 0-3.4284-1.545-3.4284-3.4284 0-1.8834 1.545-3.4284 3.4284-3.4284 1.8834 0 3.4284 1.545 3.4284 3.4284 0 0.46304-0.09416 0.90567-0.26302 1.3099a7.3333 7.3333 0 0 1 4.168-1.3099 7.3333 7.3333 0 0 1 4.5469 1.5898c0.07043-0.5219 0.11979-1.0498 0.11979-1.5898 0-6.5868-5.4132-12-12-12z" color="#bebebe" fill="#555" filter="url(#filter7554)" style="text-decoration-line:none;text-indent:0;text-transform:none"/>
 <circle id="circle12-6" cx="22.333" cy="23.333" r="6.6667" fill="#ff5722" stroke-width=".41667"/>
 <path id="path14-7" d="m23.106 20c-2.045 0.83333-3.2725 2.7867-3.2725 4.1667 0 1.3645 1.0737 2.4717 2.4072 2.4976-0.6664-0.01333-1.2032-0.56558-1.2032-1.2476 0-0.69036 0.61359-1.6667 1.6362-2.0833 0 1.4583 1.098 1.6692 0.81812 2.5-0.15869 0.47111-0.54578 0.82868-1.2168 0.83252 4e-3 2.1e-5 0.0085 4.58e-4 0.01275 4.58e-4 1.3555 0 2.1352-0.71933 2.4543-1.6667 0.55975-1.6618-1.6362-2.0833-1.6362-5z" fill="#fff" stroke-width=".41667"/>
</svg>
