<?xml version="1.0" encoding="UTF-8"?>
<svg id="svg13" width="32" height="32" enable-background="new" version="1.1" xmlns="http://www.w3.org/2000/svg" xmlns:cc="http://creativecommons.org/ns#" xmlns:dc="http://purl.org/dc/elements/1.1/" xmlns:rdf="http://www.w3.org/1999/02/22-rdf-syntax-ns#">
 <metadata id="metadata90">
  <rdf:RDF>
   <cc:Work rdf:about="">
    <dc:format>image/svg+xml</dc:format>
    <dc:type rdf:resource="http://purl.org/dc/dcmitype/StillImage"/>
    <dc:title/>
   </cc:Work>
  </rdf:RDF>
 </metadata>
 <g id="layer9" transform="translate(-481 239)">
  <g id="g829" transform="matrix(1.7333 0 0 1.7643 -351.47 157.97)" fill="#b3b3b3">
   <path id="path4544-6" d="m482-220v2h4c0.5713 0 1 0.4287 1 1v4c0 1.6447 1.3553 3 3 3h5v-2h-5c-0.5713 0-1-0.4287-1-1v-4c0-1.6447-1.3553-3-3-3z" color="#555555"/>
   <path id="path4544-1-5" d="m490-220c-0.22957 0-0.44085 0.0438-0.65625 0.0937 0.4813 0.5511 0.86125 1.1776 1.0312 1.9062h4.625v-2h-5zm-8 10h4c0.22957 0 0.44085-0.0438 0.65625-0.0937-0.4813-0.55115-0.86125-1.1777-1.0312-1.9063h-3.625z" color="#555555"/>
   <path id="path3003-08" d="m493-222v6l4-3z"/>
   <path id="path3773" d="m493-214v6l4-3z"/>
  </g>
 </g>
</svg>
