<?xml version="1.0" encoding="UTF-8"?>
<!-- Created with Inkscape (http://www.inkscape.org/) -->
<svg id="svg7384" width="32" height="32" enable-background="new" version="1.1" xmlns="http://www.w3.org/2000/svg" xmlns:cc="http://creativecommons.org/ns#" xmlns:dc="http://purl.org/dc/elements/1.1/" xmlns:rdf="http://www.w3.org/1999/02/22-rdf-syntax-ns#">
 <metadata id="metadata90">
  <rdf:RDF>
   <cc:Work rdf:about="">
    <dc:format>image/svg+xml</dc:format>
    <dc:type rdf:resource="http://purl.org/dc/dcmitype/StillImage"/>
    <dc:title>Paper Symbolic Icon Theme</dc:title>
   </cc:Work>
  </rdf:RDF>
 </metadata>
 <title id="title8473">Paper Symbolic Icon Theme</title>
 <path id="rect828" d="m9.5 4c-1.8005 0-3.25 1.4495-3.25 3.25v19.5c0 1.8005 1.4495 3.25 3.25 3.25h13c1.8005 0 3.25-1.4495 3.25-3.25v-19.5c0-1.8005-1.4495-3.25-3.25-3.25zm0.65 4.55h11.7v11.7h-11.7zm5.85 14.3a1.95 1.95 0 0 1 1.95 1.95 1.95 1.95 0 0 1-1.95 1.95 1.95 1.95 0 0 1-1.95-1.95 1.95 1.95 0 0 1 1.95-1.95z" fill="#555" fill-opacity=".94118" style="paint-order:markers stroke fill"/>
</svg>
