<svg enable-background="new" height="32" width="32" xmlns="http://www.w3.org/2000/svg"><g transform="matrix(.5 0 0 .5 24.393641 -1.44096)"><path d="m-45.499903 6.8819186v50.0000004h35.000001v-50.0000004z" fill="#444" stroke-width="2.391082"/><g stroke-width="2.45026"><path d="m-29.301603 12.66625c.411864-.0419.87881 0 1.301701 0 6.766147 0 12.251298 5.485152 12.251298 12.251299s-5.485151 12.251298-12.251298 12.251298-12.251299-5.485151-12.251299-12.251298c0-6.343232 4.771881-11.624032 10.949721-12.251299zm.539057 8.649417c-1.641674.343037-2.842301 1.862198-2.842301 3.601882 0 1.98177 1.617049 3.522248 3.598942 3.522248 1.98177 0 3.522248-1.540478 3.522248-3.522248s-1.540478-3.598941-3.522248-3.598941c-.247722 0-.531829-.04803-.765707 0z" fill="#fafafa"/><path d="m-35.105778 39.539471 11.859257-10.038224c1.053906-.89209 2.0517-1.442541 2.430045-1.064196.378345.378344-.171763 1.376311-1.064221 2.430094l-10.038224 11.859257c-.885549 1.046334-2.457856 1.036435-3.340684.153631-.882829-.882829-.892728-2.45516.153631-3.340684z" fill="#b3b3b3"/></g></g><path d="m250.78801 170.7508c2.256 7.0542 3.4188 14.457 3.4341 21.863.0153 7.3918-1.1124 14.785-3.3307 21.836l14.76 18.532c6.0484-12.536 9.2187-26.45 9.198-40.368-.0206-13.899-3.2231-27.784-9.2922-40.288l-14.769 18.425m42.304-52.907-13.488 16.921c10.299 17.418 15.841 37.618 15.873 57.853.0323 20.303-5.4836 40.588-15.793 58.079l13.569 16.937c14.83-21.997 22.899-48.487 22.851-75.016-.0475-26.465-8.1714-52.862-23.012-74.774m26.719-33.358005-13.182 16.518005c19.39 26.32 30.103 58.924 30.103 91.614 0 32.691-10.713 65.295-30.103 91.614l13.263 16.76c24.082-30.603 37.506-69.432 37.468-108.37-.0382-38.871-13.488-77.603-37.548-108.130005" fill="#d4d4d4" transform="matrix(.10321633262 0 0 .10392320698 -6.47442402458 -5.530036236)"/></svg>