<svg enable-background="new" height="32" width="32" xmlns="http://www.w3.org/2000/svg"><g stroke-width=".388781"><path d="m10.40237 28.208527c-.38544-.386635-.387706-1.00686-.0051-1.390673l3.867558-3.879552c.382627-.383813 1.000934-.381541 1.386374.0051.38544.386636.387705 1.00686.0051 1.390673l-3.867558 3.879552c-.382627.383813-1.000934.381541-1.386374-.0051z" fill="#ff9800"/><path d="m3.7905713 21.576225c-.3854403-.386635-.3877056-1.00686-.0050792-1.390673l3.8675589-3.879552c.382626-.383813 1.0009335-.38154 1.3863735.0051.3854405.386636.3877055 1.00686.00508 1.390673l-3.867559 3.879552c-.3826264.383813-1.0009334.381541-1.3863742-.0051z" fill="#ff9800"/><path d="m11.841129 14.058922 6.901295-2.678798-4.469886-2.6222105 14.195135-5.2579136-6.496674 6.1220381 6.529001 2.728238-13.456736 6.096263-3.201968-4.387614z"/><path d="m17.596012 26.558184c3.056642-3.425039 2.925745-8.707131-.378501-12.021624-3.303971-3.314217-8.5783575-3.454224-11.993-.388242l12.371225 12.409589z" fill="#1a1a1a"/></g></svg>