<svg enable-background="new" height="32" width="32" xmlns="http://www.w3.org/2000/svg"><path d="m5.3 2v1.964286h-4.8v1.964285 21.607142c0 1.088214.7136 1.964287 1.6 1.964287h12.8c.8864 0 1.6-.876073 1.6-1.964287v-21.607142-1.964285h-4.8v-1.964286z" fill="#8bc34a" stroke-width="1.772811"/><path d="m.5 11.821429v15.714284c0 1.088214.7136 1.964287 1.6 1.964287h12.8c.8864 0 1.6-.876073 1.6-1.964287v-15.714284z" fill="#263238" stroke-width="1.772811"/><path d="m8.5 7.5v6.1875h5l-5 10.3125v-6.1875h-5z" fill="#f9ce1d" stroke-width="1.85405"/><path d="m31.5 17.5v4h-20v-4zm-12-8h4v20h-4z" fill="#1b5e20"/></svg>