<svg enable-background="new" height="32" width="32" xmlns="http://www.w3.org/2000/svg"><circle cx="15.999999" cy="15.582" fill="#206b00" r="14" stroke-width=".5"/><path d="m16 1.5819993a14 14 0 0 0 -14.0000007 14.0000007 14 14 0 0 0 .01075.293 14 14 0 0 1 13.9892507-13.7930007 14 14 0 0 1 13.989499 13.7069997 14 14 0 0 0 .010501-.207 14 14 0 0 0 -14-13.9999997z" fill="#fff" opacity=".2" stroke-width=".5"/><g stroke-width=".487101"><path d="m8.619106 3.7421602c1.3567105.011583 2.699298.5376956 3.738639 1.5638143 1.566075 1.54634 1.934123 3.7863955 1.168117 5.6914895.05899.04618.152869.09968.207702.153739l3.348989 3.307621c.748559.738345.748559 1.952511 0 2.691676l-.311553.307644c-.747726.738344-1.977325.738344-2.725882 0l-3.374745-3.307784c-.05483-.05333-.08308-.146029-.130437-.205096-1.929138.757214-4.1972455.392963-5.7633201-1.153458-.2118563-.208378-.4070962-.433984-.5715965-.666152-.0548332-.077936-.1055126-.15095-.1553612-.231347-.623937-1.298011-.2957679-1.220731 1.0642658-.871247 1.3758195 0 2.4924265-1.1025955 2.4924265-2.4611495s-1.116607-2.461149-2.4924265-2.461149c-.8308085 0 .4935005-1.5576611 1.5054255-1.9740056.048185-.018524.08225-.05988.130437-.076952.017445-.00523.034065.00506.051511 0 .583227-.1997797 1.207164-.3128528 1.8178085-.3076437z" fill="#abacae" stroke="#7e8087"/><path d="m27.719172 23.288717c.714594.705627.714462 1.871396.000128 2.576768l-1.887342 1.863657c-.714339.705374-1.894921.705501-2.609515-.000126l-10.238404-10.109926c-.714338-.705373-.714338-1.871268 0-2.576641l1.88734-1.863657c.714337-.705373 1.895049-.705373 2.609386 0z" fill="#cc3b02" stroke="#a62100"/></g></svg>