<svg height="16" viewBox="0 0 16 16" width="16" xmlns="http://www.w3.org/2000/svg" xmlns:xlink="http://www.w3.org/1999/xlink"><linearGradient id="a" gradientTransform="matrix(1 0 0 1.1 -15.599 68.547)" gradientUnits="userSpaceOnUse" x1="-15.961" x2="-.30109" y1="-43.254" y2="-54.196"><stop offset="0" stop-color="#ffc832"/><stop offset="1" stop-color="#ffdc6e"/></linearGradient><linearGradient id="b" gradientUnits="userSpaceOnUse" x1="-28.49727806" x2="-19.10627554" y1="16.3320034" y2="16.3320034"><stop offset="0" stop-color="#1496ff"/><stop offset="1" stop-color="#0a78ff"/></linearGradient><linearGradient id="c" gradientUnits="userSpaceOnUse" x1="-56.875" x2="-56.875" y1="-185.88" y2="-160.88"><stop offset="0" stop-color="#0a82ff"/><stop offset="1" stop-color="#0564c8"/></linearGradient><linearGradient id="d" gradientUnits="userSpaceOnUse" x1="-27.625" x2="-27.625" y1="-188" y2="-160.75"><stop offset="0" stop-color="#004bb9"/><stop offset="1" stop-color="#0546b4"/></linearGradient><path d="m-16.45 2v12h12v-10h-4.992l-2-2-.008.008v-.008zm1 1h3.592l1.002 1h-.594v.008l-.008-.008-2 2h-1.992zm0 4h10v6h-10z" fill="#727272"/><g transform="matrix(1.0079 0 0 1.0079 31.989 -6.7596)"><path d="m-23.801 12.098h-7.9373v-4.0017c0-.40184.29614-.72759.66144-.72759h5.6223l1.6536 1.4552z" fill="#ffe55e" stroke-width=".69373"/><g stroke-width=".66145" transform="matrix(1 0 0 1.1 -15.599 68.547)"><path d="m-8.2026-51.317h-7.9373v-3.6379c0-.36531.29614-.66144.66144-.66144h5.6223l1.6536 1.3229z" fill="#e19600"/><path d="m-9.8562-55.617h-5.6223c-.36532 0-.66144.29612-.66144.66144v.16536c0-.36532.29612-.66144.66144-.66144h5.6223l1.6536 1.3229v-.16536z" fill="#fff" opacity=".2"/></g><path d="m-16.526 8.8236h-7.2759l-1.6536 1.4552h-5.6223c-.36531 0-.66144.32575-.66144.72759v9.4587c0 .40184.29614.72759.66144.72759h14.552c.36531 0 .66145-.32575.66145-.72759v-10.914c0-.40184-.29614-.72759-.66145-.72759z" fill="url(#a)" stroke-width=".69373"/><path d="m-16.526 21.011h-14.552c-.36532 0-.66144-.32578-.66144-.72759v.1819c0 .40181.29612.72759.66144.72759h14.552c.36532 0 .66145-.32578.66145-.72759v-.1819c0 .40181-.29612.72759-.66145.72759z" opacity=".1" stroke-width=".69373"/><path d="m-19.106 14.892c-.1111-.14787-.26255-.24804-.44182-.24804h-8.5068c-.17958 0-.3311.10078-.44234.24908l2.5161 3.1279h4.3578z" fill="url(#b)" stroke-width=".66491"/><path d="m-16.526 8.8236h-7.2759l-1.6536 1.4552h-5.6223c-.36532 0-.66144.32574-.66144.72759v.1819c0-.40185.29612-.72759.66144-.72759h5.6223l1.6536-1.4552h7.2759c.36532 0 .66145.32574.66145.72759v-.1819c0-.40185-.29612-.72759-.66145-.72759z" fill="#fff" opacity=".2" stroke-width=".69373"/><g transform="translate(-12.7 64.557)"><g><path d="m-50.197-175.89-9.5098-11.822c-.36526.48695-.625 1.1025-.625 1.8086v23.375c0 .75939.51425 1.375 1.1484 1.375h7.8379c.63419 0 1.1484-.61561 1.1484-1.375z" fill="url(#c)" stroke-width="2.5131" transform="scale(.26458)"/><path d="m-13.617-42.819h-2.0112c-.18512 0-.33521-.16289-.33521-.36379v.1819c0 .2009.15009.3638.33521.3638h2.0112c.18512 0 .33521-.16289.33521-.3638v-.1819c0 .2009-.15009.36379-.33521.36379z" opacity=".1" stroke-width=".69842"/></g><g><path d="m-24.213-187.71-9.5137 11.826h.0039v13.361c0 .75939.51425 1.375 1.1484 1.375h7.8398c.63419 0 1.1465-.61561 1.1465-1.375v-23.375c0-.70742-.25887-1.3252-.625-1.8125z" fill="url(#d)" stroke-width="2.5131" transform="scale(.26458)"/><path d="m-6.578-42.819h-2.0112c-.18512 0-.33521-.16289-.33521-.36379v.1819c0 .2009.15009.3638.33521.3638h2.0112c.18512 0 .33521-.16289.33521-.3638v-.1819c0 .2009-.15009.36379-.33521.36379z" opacity=".1" stroke-width=".69842"/></g></g></g></svg>