<svg viewBox="0 0 22 22" xmlns="http://www.w3.org/2000/svg"><path d="m11 3c-.972907 3.405034-3.354446 6.332277-4.404297 8.675781-.367404.696771-.595703 1.478799-.595703 2.324219 0 2.770002 2.229998 5 5 5s5-2.229998 5-5c0-.84542-.228299-1.627448-.595703-2.324219-1.04985-2.343504-3.4314-5.270747-4.404297-8.675781m2.283203 7.716797c1.037697.721208 1.716797 1.918285 1.716797 3.283203 0 2.216002-1.783998 4-4 4-1.364957 0-2.562002-.679049-3.283203-1.716797.647048.449704 1.432119.716797 2.283203.716797 2.216002 0 4-1.783998 4-4 0-.851084-.267093-1.636155-.716797-2.283203" fill="#5d656b"/></svg>