<svg viewBox="0 0 22 22" xmlns="http://www.w3.org/2000/svg"><path d="m7 6v1h9a2 2 0 0 1 2 2 2 2 0 0 1 -2 2h-9a3 3 0 0 0 -3 3 3 3 0 0 0 3 3h8v-1h-8a2 2 0 0 1 -2-2 2 2 0 0 1 2-2h9a3 3 0 0 0 3-3 3 3 0 0 0 -3-3z" fill="#5d656b"/><path d="m5.5 4a2.499996 2.499996 0 0 0 -2.5 2.5 2.499996 2.499996 0 0 0 2.5 2.5 2.499996 2.499996 0 0 0 2.5-2.5 2.499996 2.499996 0 0 0 -2.5-2.5zm0 1a1.5 1.5 0 0 1 1.5 1.5 1.5 1.5 0 0 1 -1.5 1.5 1.5 1.5 0 0 1 -1.5-1.5 1.5 1.5 0 0 1 1.5-1.5zm11 9a2.499996 2.499996 0 0 0 -2.5 2.5 2.499996 2.499996 0 0 0 2.5 2.5 2.499996 2.499996 0 0 0 2.5-2.5 2.499996 2.499996 0 0 0 -2.5-2.5zm0 1a1.5 1.5 0 0 1 1.5 1.5 1.5 1.5 0 0 1 -1.5 1.5 1.5 1.5 0 0 1 -1.5-1.5 1.5 1.5 0 0 1 1.5-1.5z" fill="#3daee9"/></svg>