<svg viewBox="0 0 22 22" xmlns="http://www.w3.org/2000/svg"><path d="m3 3v4 12h1 15v-1-9h-1v9h-14v-11h9v-2-2zm6.4277344 6c-1.06609 0-1.5136719.3522464-1.5136719 1.253906v1.222656c0 .556912-.020505 1.201172-.609375 1.201172h-.3046875v.644532h.3046875c.58889 0 .609375.644261.609375 1.201172v1.222656c0 .90166.4475819 1.253906 1.5136719 1.253906v-.591797c-.71072 0-.7207031-.239159-.7207032-1.105469v-1.007812c0-.41546-.1236162-1.034666-.7226562-1.291016.59904-.25635.7226564-.873592.7226562-1.289062v-1.017578c0-.8663108.0100032-1.1054691.7207032-1.1054691zm1.5722656 0c-.554 0-1 .446-1 1s.446 1 1 1 1-.446 1-1-.446-1-1-1zm1.564453 0v.5917969c.71073 0 .728516.2391583.728516 1.1054691v1.017578c0 .41547.123606 1.032712.722656 1.289062-.59905.25635-.722656.875556-.722656 1.291016v1.007812c0 .86631-.0177 1.105469-.728516 1.105469v.591797c1.0661 0 1.521474-.352246 1.521485-1.253906v-1.222656c0-.556912.0404-1.201172.61914-1.201172h.294922v-.644532h-.294922c-.57874 0-.619151-.644261-.61914-1.201172v-1.222656c0-.9016595-.455385-1.253906-1.521485-1.253906zm-2.564453 3v4h2v-4z" fill="#5d656b"/><path d="m15.00001 3 2 3 1.99999-3z" fill="#f60" fill-rule="evenodd"/></svg>