<svg viewBox="0 0 22 22" xmlns="http://www.w3.org/2000/svg"><path d="m4 2.9980469v.0019531h4.2929688 1.7070312v1h7v2h1v-3.0019531h-1-12zm4.2929688.0019531-2.7929688 2.7929688-.7070312.7070312.7070312.7070312 2.7929688 2.7929688.7070312-.7070312-2.2929688-2.2929688h5.2929688v-1h-1-1-3.2929688l2.2929688-2.2929688zm5.4140622 3-.707031.7070312 2.292969 2.2929688h-5.292969v1h1 1 3.292969l-2.292969 2.292969.707031.707031 2.792969-2.792969.707031-.707031-.707031-.7070312zm-9.707031 4v9h1 8 1v-.009766l.007812.009766 3.992188-3.992188v-.009765-1.40625-.591797h-1v1h-4v1 3h-8v-8z" fill="#5d656b"/></svg>