<svg viewBox="0 0 22 22" xmlns="http://www.w3.org/2000/svg"><path d="m16 3a2.00001 2 0 0 0 -2 2 2.00001 2 0 0 0 2 2 2.00001 2 0 0 0 2-2 2.00001 2 0 0 0 -2-2m-4.5 4a.5.5 0 0 0 -.5.5.5.5 0 0 0 .5.5.5.5 0 0 0 .5-.5.5.5 0 0 0 -.5-.5m-2 1a.5.499991 0 0 0 -.5.5.5.499991 0 0 0 .5.5.5.499991 0 0 0 .5-.5.5.499991 0 0 0 -.5-.5m-3.5 1a2 2.00001 0 0 0 -2 2 2 2.00001 0 0 0 2 2 2 2.00001 0 0 0 2-2 2 2.00001 0 0 0 -2-2m3.5 4a.500009.5 0 0 0 -.5.5.500009.5 0 0 0 .5.5.500009.5 0 0 0 .5-.5.500009.5 0 0 0 -.5-.5m2 1a.5.5 0 0 0 -.5.5.5.5 0 0 0 .5.5.5.5 0 0 0 .5-.5.5.5 0 0 0 -.5-.5m4.5 1a2.00001 2 0 0 0 -2 2 2.00001 2 0 0 0 2 2 2.00001 2 0 0 0 2-2 2.00001 2 0 0 0 -2-2" fill="#5d656b"/></svg>