<svg viewBox="0 0 22 22" xmlns="http://www.w3.org/2000/svg"><path d="m11.037109 3.0019531c-4.0983965.095213-7.5048746 3.5814558-7.4042965 7.7226559.0192682.793371.1732816 1.557646.4316406 2.275391l1.1230469-.367188c-.2215213-.601589-.3561582-1.242259-.3769531-1.908203-.1093884-3.5030555 2.7650274-6.4586921 6.2265621-6.5605465 3.649645-.1073939 6.724685 2.9177129 6.824219 6.5605465.104589 3.828113-3.038229 7.052099-6.824219 7.150391-3.1727049.082379-5.9406184-2.007908-6.9726559-4.875l-1.0644531.347656c1.171463 3.388832 4.4591783 5.725559 8.037109 5.650391 4.400439-.092496 8.058076-3.829459 7.960938-8.273438-.09336-4.271069-3.68771-7.8219216-7.960938-7.7226559zm-5.849609 9.6308589c.8795094 2.388499 3.1980548 4.125188 5.849609 4.035157 3.122758-.106021 5.710965-2.779557 5.595703-5.94336-.107878-2.9612635-2.622066-5.4161928-5.595703-5.2968746-2.7665689.1110089-5.0582666 2.4895776-4.9355465 5.2968746.0230546.527344.151568 1.02694.3339844 1.501953l1.3964843-.455078c-.1387263-.329641-.2387979-.678683-.265625-1.046875-.1473257-2.0220085 1.489756-3.7520423 3.4707028-3.8769528 2.219057-.1399214 4.11028 1.6774916 4.230469 3.8769528.13274 2.429057-1.842094 4.494199-4.230469 4.611329-2.0781676.101918-3.8870195-1.248703-4.6015621-3.109376zm2.6445312-.861328c.5285788 1.256009 1.7828662 2.152889 3.2050778 2.027344 1.531309-.135182 2.793056-1.500759 2.621094-3.074219-.140889-1.2891112-1.301524-2.3562482-2.621094-2.162109-1.010114.1486156-1.8572361 1.10857-1.6269528 2.162109.035679.163223.1065733.321844.1992188.466797l1.427734-.466797c.694606 0 .433378.820433 0 1.011719-.55777.246187-1.1240777-.069821-1.427734-.544922z" fill="#5d656b"/></svg>