<svg viewBox="0 0 22 22" xmlns="http://www.w3.org/2000/svg"><path d="m10.912109 3a8 6.00001 0 0 0 -2.417968.302734l.83789.841797a7 5 0 0 1 1.667969-.148437 7 5 0 0 1 .527344.019536zm1.207031.0625.669922 1.105469a7 5 0 0 1 2.742188 1.017578l.8125-.644531a8 6.00001 0 0 0 -4.22461-1.478516m-4.701171.576172a8 6.00001 0 0 0 -1.859375.96875l.972656.546875a7 5 0 0 1 1.664063-.732422zm9.740231 1.53125-.789059.626953a7 5 0 0 1 .794919.837891l1-.292969a8 6.00001 0 0 0 -1.00586-1.171875m-12.43945.111328a8 6.00001 0 0 0 -1.033203 1.304688l.931641.367187a7 5 0 0 1 1.011718-1.160156zm13.929688 1.960938-.966797.283203a7 5 0 0 1 .296875 1.089843l1.005859.136719a8 6.00001 0 0 0 -.335937-1.509765m-15.386719.25a8 6.00001 0 0 0 -.257809 1.425781l1.0039-.044922a7 5 0 0 1 .181643-1.013672zm14.677734 2.126953a7 5 0 0 1 -.587891 1.466799l.990235.275388a8 6.00001 0 0 0 .583984-1.607422zm-13.830078.25-1.005859.044922a8 6.00001 0 0 0 .5625 1.472656l.910156-.417969a7 5 0 0 1 -.466797-1.099609m1.087891 1.916015-.939453.429688a8 6.00001 0 0 0 1.771487 1.466797c.636032 2.375609-1.840454 4.501349-1.0293 5.3125 1.134713.108119 1.809163-1.566816 2.082031-3.189453.102073-.13893.470996-.666928.767578-1.296876a8 6.00001 0 0 0 3.140625.488282l-1.066406-1.066406a7 5 0 0 1 -1.787109-.384766c.007923-.444052-.26577-.723596-1.134769-.544922-.00104-.001377-.00089-.004509-.00195-.005859-.079193 0-.157632-.015794-.236328-.027344a7 5 0 0 1 -1.566406-1.181641m11.460937.146485a7 5 0 0 1 -1.673828 1.167969l.976563.595702a8 6.00001 0 0 0 1.777343-1.46289zm-2.833984 1.632812a7 5 0 0 1 -2.429688.421875l.921875.921875a8 6.00001 0 0 0 2.59375-.681641z" fill="#5d656b"/></svg>