<svg viewBox="0 0 22 22" xmlns="http://www.w3.org/2000/svg"><path d="m3 3v1 15h1 15v-1-15zm1 1h14v14h-14zm1 1v1 2h1v-2h2v-1zm9 0v1h2v2h1v-2-1zm-3.089844 1.78125c-.6075 0-1.315547.135547-1.810547.529297l.246094.742188c.25875-.16875.754219-.439453 1.417969-.439453.73125 0 1.227031.303438 1.238281 1.023438 0 1.08-1.564453 2.846406-1.564453 4.128906h.472656c.82125-1.845 1.990235-2.710781 1.990235-4.207031 0-1.1475-.831485-1.777344-1.990235-1.777344m-.158203 6.986328c-.48375 0-.730469.360703-.730469.720703s.246719.730469.730469.730469.732422-.370469.732422-.730469-.248672-.720703-.732422-.720703m-5.751953.232422v2 1h3v-1h-2v-2zm11 0v2h-2v1h3v-1-2z" fill="#5d656b"/></svg>