<svg viewBox="0 0 22 22" xmlns="http://www.w3.org/2000/svg"><g fill="#5d656b"><path d="m3 2v1 7 1 7 1h8 1 8v-1-16h-8-1zm1 1h7v7h-7zm8 0h7v7h-7zm-8 8h7v7h-7zm8 0h7v7h-7z" fill-opacity=".1"/><path d="m4 3v7h7v-7zm8 0v6.2929688l6.292969-6.2929688zm7 .7070312-6.292969 6.2929688h6.292969zm-15 7.2929688v6.292969l6.292969-6.292969zm8 0v7h7v-7zm-1 .707031-6.2929688 6.292969h6.2929688z" fill-opacity=".5"/><path d="m19.292969 2-16.292969 16.292969v.707031h.7070312l16.2929688-16.2929688v-.7070312z"/></g></svg>