<svg viewBox="0 0 22 22" xmlns="http://www.w3.org/2000/svg"><path d="m3 3v1 15h1 9v-1h-9v-8h3v-.0097656l.0078125.0097656 2-2h8.9921875v5h1v-8h-6.992188l-2-2-.007812.0097656v-.0097656h-6z" fill="#5d656b"/><path d="m16.5 14c-1.385 0-2.5 1.115-2.5 2.5 0 .4334.118052.834753.310547 1.189453l.759765-.759765c-.041024-.1371-.070312-.278888-.070312-.429688 0-.831.669-1.5 1.5-1.5.150791 0 .292594.029313.429688.070312l.759765-.759765c-.354645-.1924-.756026-.310547-1.189453-.310547zm2.189453 1.310547-.759765.759765c.041029.1371.070312.278888.070312.429688 0 .831-.669 1.5-1.5 1.5-.150791 0-.292594-.029313-.429688-.070312l-.759765.759765c.354645.1924.756026.310547 1.189453.310547 1.385 0 2.5-1.115 2.5-2.5 0-.4334-.118052-.834753-.310547-1.189453z" fill="#da4453"/></svg>