<svg viewBox="0 0 22 22" xmlns="http://www.w3.org/2000/svg"><path d="m2 3v16h9v-1-7h7 1v-8zm16 8-.996094.994141h-.003906l-5 4.99414.007812.001953-.003906 1.001954h-.003906v.990234h2 .005859.003907.009765l-.005859-.001953.986328-.986328 4-3.992188-.705078-.708984-4.990234 4.982422-.59375-.591797 4.992187-4.984375.591797.59375.705078.703125 1-1zm-15-7h7v6h-7zm8 0h7v6h-7zm-4.9199219 1.0019531c-.5398718-.0213738-1.0654239.1765888-1.4570312.5488281-.6606246.6278649-.8132205 1.6229507-.3710938 2.4199219.4425682.7966921 1.3677697 1.1934365 2.25.9648438.8819211-.2286602 1.4978467-1.024465 1.4980469-1.9355469h-2l1.0585938-1.6972656c-.294555-.1834518-.6317734-.2871078-.9785157-.3007813zm-3.0800781 5.9980469h7v7h-7z" fill="#5d656b"/></svg>