<svg viewBox="0 0 22 22" xmlns="http://www.w3.org/2000/svg"><path d="m3 3v3 10 3h16v-3-10-3zm1 1h4v4.7070312a7 3.0000024 0 0 1 -4-2.7070312zm5 0h4v4.8730469a7 3.0000024 0 0 1 -2 .1269531 7 3.0000024 0 0 1 -2-.1269531zm5 0h4v2a7 3.0000024 0 0 1 -4 2.7070312zm-10 3.9277344a7.9999909 3.9999955 0 0 0 4 1.7773437v2.5898439a7.9999909 3.9999955 0 0 0 -4 1.777344zm14 .0078125v6.1289061a7.9999909 3.9999955 0 0 0 -4-1.769531v-2.5898439a7.9999909 3.9999955 0 0 0 4-1.7695312zm-9 1.9316406a7.9999909 3.9999955 0 0 0 2 .1328125 7.9999909 3.9999955 0 0 0 2-.1308594v2.2617184a7.9999909 3.9999955 0 0 0 -2-.130859 7.9999909 3.9999955 0 0 0 -2 .132812zm2 3.1328125a7 3.0000024 0 0 1 2 .126953v4.873047h-4v-4.873047a7 3.0000024 0 0 1 2-.126953zm-3 .292969v4.707031h-4v-2a7 3.0000024 0 0 1 4-2.707031zm6 0a7 3.0000024 0 0 1 4 2.707031v2h-4z" fill="#5d656b"/></svg>