<svg viewBox="0 0 22 22" xmlns="http://www.w3.org/2000/svg"><path d="m5 9c-1.1080001 0-2 .8919999-2 2 0 1.108.8919999 2 2 2s2-.892 2-2c0-1.1080001-.8919999-2-2-2zm6 0c-1.1080001 0-2 .8919999-2 2 0 1.108.8919999 2 2 2 1.108 0 2-.892 2-2 0-1.1080001-.892-2-2-2zm6 0c-1.108 0-2 .8919999-2 2 0 1.108.892 2 2 2s2-.892 2-2c0-1.1080001-.892-2-2-2zm-12 1c.5540001 0 1 .446 1 1s-.4459999 1-1 1-1-.446-1-1 .4459999-1 1-1zm6 0c.554 0 1 .446 1 1s-.446 1-1 1-1-.446-1-1 .446-1 1-1zm6 0c.554 0 1 .446 1 1s-.446 1-1 1-1-.446-1-1 .446-1 1-1z" fill="#5d656b"/></svg>