<svg viewBox="0 0 22 22" xmlns="http://www.w3.org/2000/svg"><path d="m7.0957031 3c-.78324.0182-1.3851056.1551087-1.8222656.3554688l.2460937.9003906c.20947-.0729 1.0023199-.3261719 1.4667969-.3261719h.0625c.64663.0273.6933594.2628094.6933594.8183594v.21875l-.3378906.0546875c-1.56649.22769-2.4042969.4189037-2.4042969 1.6210937 0 .83789.6107106 1.3574219 1.4941406 1.3574219.6102 0 1.0100899-.2554825 1.4199219-.6015625l.1269531.5097656h.9667969v-3.3691406c0-1.02914-.7117865-1.5390625-1.8046875-1.5390625zm.6464844 2.6777344v1.1191406c-.33697.22769-.5921369.3925781-1.0292969.3925781-.39162 0-.5839844-.2457168-.5839844-.5917969 0-.6557399.5741107-.7650543 1.2753907-.8652343zm5.7578125 3.1152344-.207031.2070312-3.292969 3.292969.707031.707031 2.292969-2.292969v8.292969h1v-8.292969l2.292969 2.292969.707031-.707031-3.292969-3.292969zm-8.3886719.40625v.8144532h2.0722657l-2.1835938 3.255859v.730469h3.828125v-.851562h-2.2460938l2.1738282-3.2910161v-.6582031z" fill="#5d656b"/></svg>