<svg viewBox="0 0 22 22" xmlns="http://www.w3.org/2000/svg"><path d="m3 3v16h16v-11h-1v10h-14v-14h9v-1zm12.5 0-.707031.7070312-2.792969 2.7929688.707031.7070312 2.292969-2.2929687v4.2929687.7929688h1v-5.0859375l2.292969 2.2929687.707031-.7070312-2.792969-2.7929688zm-8 2c-1.385 0-2.5 1.115-2.5 2.5s1.115 2.5 2.5 2.5 2.5-1.115 2.5-2.5-1.115-2.5-2.5-2.5zm0 1c.831 0 1.5.669 1.5 1.5s-.669 1.5-1.5 1.5-1.5-.669-1.5-1.5.669-1.5 1.5-1.5zm6.494141 4-3.345703 3.34375-1.3417974-1.34375-.0058594.007812-.0078124-.007812-4.2929688 4.292969.7070312.707031 3.5917969-3.591797.6425781.642578.7070318.707031.707031-.707031 2.644531-2.644531 2.292969 2.292969.707031-.707031-2.992188-2.992188-.007812.007812z" fill="#5d656b"/></svg>