<svg viewBox="0 0 22 22" xmlns="http://www.w3.org/2000/svg"><path d="m3.7070312 3c.45337.0923.7929688.4912263.7929688.9726562 0 .2888001-.1248525.5454725-.3203125.7265626-.10939-.1295901-.1757813-.2948457-.1757813-.4785157 0-.04036.0017188-.0781865.0117188-.1171875-.30271.16985-.5078125.4882181-.5078125.8613282 0 .55029.4418975.9941406.9921875.9941406.55008 0 .9941406-.4438507.9941406-.9941406 0-1.03151-.7831193-1.8634938-1.7871094-1.9648438zm4 0c.45337.0923.7929688.4912263.7929688.9726562 0 .2888001-.1248515.5454725-.3203125.7265626-.10939-.1295901-.1757813-.2948457-.1757813-.4785157 0-.04036.0017188-.0781865.0117188-.1171875-.30271.16985-.5078125.4882181-.5078125.8613282 0 .5502899.4418965.9941406.9921875.9941406.55008 0 .9941406-.4438506.9941406-.9941406 0-1.03151-.7831193-1.8634938-1.7871094-1.9648438zm4.9999998 0c.45337.0923.792969.4912263.792969.9726562 0 .2888001-.124854.5454726-.320312.7265626-.109391-.1295901-.175782-.2948457-.175782-.4785157 0-.04036.001719-.0781865.011719-.1171875-.30271.16985-.507811.4882181-.507813.8613282 0 .55029.441898.9941406.992188.9941406.55008 0 .994141-.4438506.994141-.9941406 0-1.03151-.78312-1.8634938-1.78711-1.9648438zm4 0c.45337.0923.792969.4912263.792969.9726562 0 .2888001-.124854.5454726-.320312.7265626-.109391-.1295901-.175782-.2948457-.175782-.4785157 0-.04036.001719-.0781865.011719-.1171875-.30271.16985-.507813.4882181-.507813.8613282 0 .5502899.441898.9941406.992188.9941406.55008 0 .994141-.4438507.994141-.9941406 0-1.03151-.78312-1.8634938-1.78711-1.9648438zm-12.707031 4v2h-1v1 4 1 3 1h16v-1-3-1-4-1h-1v-2h-1v2h-3v-2h-1v2h-4v-2h-1v2h-3v-2zm0 3h14v4h-.544922c-1.35983 0-2.455078-1.095248-2.455078-2.455078v-.544922h-1v.544922c0 1.35983-1.095248 2.455078-2.455078 2.455078h-1.089844c-1.3598298 0-2.455078-1.095248-2.455078-2.455078v-.544922h-1v.544922c0 1.359831-1.0952471 2.455078-2.4550781 2.455078h-.5449219zm3.5 3.658203c.536219.809143 1.452476 1.341797 2.5 1.341797h2c1.04752 0 1.96378-.532647 2.5-1.341797.53622.80915 1.45248 1.341797 2.5 1.341797h1v1h-14v-1h1c1.047521 0 1.963781-.532654 2.5-1.341797zm-3.5 3.341797h14v1h-14z" fill="#5d656b"/></svg>