<svg height="22" width="22" xmlns="http://www.w3.org/2000/svg"><path d="m5.532 14.569c-.17.306-.306.768-.306 1.058 0 .068 0 .154.016.273l-2.132-3.67a.952.952 0 0 1 -.12-.444c0-.154.051-.341.12-.46l1.024-1.792-1.143-.649 3.72-.068 1.81 3.26-1.16-.666-1.828 3.158m1.638-10.343a1.667 1.667 0 0 1 1.502-.871c.7 0 1.246.325 1.638.99l.581.972-2.014 3.483-3.26-1.895 1.553-2.68m.238 13.296a1.784 1.784 0 0 1 -1.775-1.775c0-.273.12-.735.291-1.024l.546-.973h4.046v3.772zm3.244-13.399c-.256-.443-.597-.75-1.007-.922h4.199c.375 0 .665.154.836.445l1.041 1.775 1.127-.666-1.81 3.243-3.703-.052 1.143-.648zm6.47 9.66c.511 0 .938-.136 1.296-.408l-2.117 3.686a.945.945 0 0 1 -.835.46h-1.998v1.315l-1.911-3.192 1.911-3.192v1.332h3.654m1.637-3.073c.154.273.24.563.24.87 0 .615-.393 1.264-.939 1.57a2.146 2.146 0 0 1 -.972.224h-1.129l-2.012-3.484 3.26-1.86z" fill="#036b53"/></svg>