<svg height="22" width="22" xmlns="http://www.w3.org/2000/svg"><path d="m9 5v2h2v-2zm3 0v2h2v-2zm4.684 2.674c-.637.436-.789 1.225-.59 1.97.2.745.707 1.282 1.476 1.342a1.822 1.822 0 0 0 1.715 1.215 1.822 1.822 0 0 0 1.715-1.215 1.82 1.82 0 0 0 -1.715-1.213 1.82 1.82 0 0 0 -1.03.323c.124-.347.139-.725.044-1.08a1.821 1.821 0 0 0 -1.615-1.342zm.886 3.312h-14.57c0 4.024 3.262 6.073 7.285 6.073 4.024 0 7.285-2.05 7.285-6.073zm-12.57-2.986v2h2v-2zm3 0v2h2v-2zm3 0v2h2v-2zm3 0v2h2v-2zm-8 4a1 1 0 0 1 1 1 1 1 0 0 1 -1 1 1 1 0 0 1 -1-1 1 1 0 0 1 1-1z" fill="#22a7f0" stroke-width=".016"/></svg>