<svg viewBox="0 0 22 22" xmlns="http://www.w3.org/2000/svg"><path d="m11 3v1a7 7 0 0 1 6.308594 4h-3.609375v1h4 1v-.1132812-.8867188-4h-1v2.65625a7.999998 8 0 0 0 -6.699219-3.65625zm-7.6992188 10v.113281.886719 4h1v-2.65625a7.999998 8 0 0 0 6.6992188 3.65625v-1a7 7 0 0 1 -6.3085938-4h3.609375v-1h-4.0019531z" fill="#5d656b"/><path d="m16 12a2 2 0 0 0 -2 2 2 2 0 0 0 .679688 1.5 2 2 0 0 0 -.679688 1.5 2 2 0 0 0 2 2 2 2 0 0 0 2-2 2 2 0 0 0 -.679688-1.5 2 2 0 0 0 .679688-1.5 2 2 0 0 0 -2-2zm0 1a1 1 0 0 1 1 1 1 1 0 0 1 -1 1 1 1 0 0 1 -1-1 1 1 0 0 1 1-1zm0 3a1 1 0 0 1 1 1 1 1 0 0 1 -1 1 1 1 0 0 1 -1-1 1 1 0 0 1 1-1z" fill="#da4453"/><path d="m3 3v1h1v6h1v-7h-1zm5 0a2 1.999998 0 0 0 -2 2v3a2 1.999998 0 0 0 2 2 2 1.999998 0 0 0 2-2 2 1.999998 0 0 0 -2-2 2 1.999998 0 0 0 -1 .2695312v-1.2695312a1 1 0 0 1 1-1 1 1 0 0 1 1 1h1a2 1.999998 0 0 0 -2-2zm0 4a1 1 0 0 1 1 1 1 1 0 0 1 -1 1 1 1 0 0 1 -1-1 1 1 0 0 1 1-1z" fill="#1d99f3"/></svg>