<svg viewBox="0 0 22 22" xmlns="http://www.w3.org/2000/svg"><path d="m4 2.998047v.001953 2h2v-2h2v2h2v-2h2v2h2v-2h2v2h2v-2-.001953h-1-12zm2 3.00195v2h2v-2zm4 0v2h2v-2zm4 0v2h2v-2zm-10 3v2 8h1 7v-1h-7v-7h1v-2zm4 0v2h2v-2zm5 2c-1.662003 0-3 1.338-3 3s1.337997 3 3 3c.649392 0 1.246354-.208586 1.736328-.556641l2.556641 2.556641.707031-.707031-2.556641-2.556641c.348055-.489974.556641-1.086937.556641-1.736328 0-1.662-1.337997-3-3-3m0 1c1.108003 0 2 .892 2 2s-.891997 2-2 2-2-.892-2-2 .891997-2 2-2" fill="#5d656b"/></svg>