<svg viewBox="0 0 22 22" xmlns="http://www.w3.org/2000/svg"><path d="m3 3v1 15h1 15v-1-15zm1 1h14v14h-14zm1 1v1 1h1v-1h1v-1zm6 0c-1.385 0-2.5 1.115-2.5 2.5s1.115 2.5 2.5 2.5 2.5-1.115 2.5-2.5-1.115-2.5-2.5-2.5m4 0v1h1v1h1v-2zm-4 1c.831 0 1.5.669 1.5 1.5s-.669 1.5-1.5 1.5-1.5-.669-1.5-1.5.669-1.5 1.5-1.5m-6 3v1 1h2v-1h-1v-1zm11 0v1h-1v1h2v-1-1zm-5 2c-2.49299 0-4.5 2.00701-4.5 4.5v.5 1h.275391.724609.345703 6.308594 1.070312.275391v-1-.5c0-2.49299-2.00701-4.5-4.5-4.5m0 1c1.93899 0 3.5 1.56101 3.5 3.5v.5h-7v-.5c0-1.93899 1.56101-3.5 3.5-3.5" fill="#5d656b"/></svg>