<svg viewBox="0 0 22 22" xmlns="http://www.w3.org/2000/svg"><path d="m11.611328 3c-.181406-.0001-.597966.0177813-1.105469.1132812-1.1995241.2262001-2.8608353 1.0383126-3.3300778 2.7578126-.7257156 2.659 1.1347657 3.7324218 1.1347657 3.7324218s.6652544.3921032.9355469.4707034c.8123312.2364 1.6796872.128906 1.6796872.128906s-.34904 1.187244.341797 2.027344c.164933.2005.046875.210937.046875.210937s-3.0217289-.072034-4.4511718 1.509766c-1.429443 1.5817-.6523437 3.033203-.6523437 3.033203s.7517506 1.915519 3.9843745 2.011719c3.246984.097 5.240622-1.908775 5.416016-3.421875.08816-.7606-.007607-1.486175-.373047-2.109375-.355513-.606-.975897-1.130072-1.572265-1.638672-.370559-.316-.628803-.484216-.794922-.666016-.156938-.1716-.191099-.384881-.185547-.550781.0078-.2317.139551-.519634.529297-.9902344.711021-.8584.89267-.7363062 1.322265-1.3789062.128789-.1926.225236-.4894032.357422-.9082032.07963-.2521999.06249-.5028937.0625-.7460937.000015-.5255-.124741-1.0387375-.326172-1.4609375-.374336-.7846-1.015038-1.2915781-1.027343-1.3300781h1.121093l1.275391-.7792969-4.294922-.015625c-.000014-.0002-.03328 0-.09375 0zm-.917969.7304688c.656518.0099999 1.633593.3567781 2.22461 2.2050781 1.01421 3.1714-1.105469 3.6679687-1.105469 3.6679687s-2.4315046.3871063-2.8789062-2.4335937c-.4557542-2.8731.6555628-3.0268469 1.0898442-3.3105469 0 0 .27601-.1317062.669921-.1289062zm1.322266 9.3613282s1.950575 1.233025 2.132813 2.140625c.204178 1.0167.217796 1.753553-1.261719 2.564453-.436762.2395-1.196948.273391-1.679688.275391-1.18652.01-2.094239-.458566-2.5371091-.697266-.2301548-.1239-1.4913611-1.63025-.5449219-2.96875.2380672-.3367.5009665-.494416.7460938-.666016.5216665-.365 1.0268137-.529387 1.9921872-.617187.321089-.029.732187.00075 1.152344-.03125z" fill="#5d656b"/></svg>