<svg viewBox="0 0 22 22" xmlns="http://www.w3.org/2000/svg"><path d="m6 3-4 4v12h3v-1h-2v-10h4v-4h12v3h1v-4zm8 4-4.0019531 4.001953h-1.9960938v1h2.4101559l3.589844-3.5898436 2.123047 2.1230466.005859-.003906.003907.003906 2.828125-2.8281248c.002966.005-.707032-.7070312-.707032-.7070312l-2.125 2.125-2.126953-2.125-.001953.0019531zm-7 2v10h1 11v-.998047-.001953-1.132812l-.041016-.039063-2.828125-2.828125-.003906.003906-.005859-.003906-2.123047 2.123047-3.123047-3.123047h-1.4140625-1.4609375v-4zm1 5h2.460938l3.535156 3.535156.001953-.001953.001953.001953 2.126953-2.125 2.125 2.125.482422.464844h-10.734375z" fill="#5d656b"/></svg>