<svg viewBox="0 0 22 22" xmlns="http://www.w3.org/2000/svg"><path d="m3 3v16h1 16v-1-15h-16zm1 1h13.71875l-.46875.46875-.8125.8125-1.3125 1.3125-2.125-2.125-1.53125 1.53125-.46875.46875-.84375.8125-1.6875 1.71875h-1.46875-1-1-1zm15 .125v13.71875l-.28125-.28125-.75-.75-.84375-.8125-1.28125-1.3125-.71875-.6875-2.125 2.09375-1.3125-1.28125-.8125-.8125-2-2h-1.875-1-1-1v-2h1 1 1 1.875l2-2 .8125-.84375 1.3125-1.28125 2.125 2.125 2-2 .84375-.84375zm-15 8.875h1 1 1 1.46875l1.6875 1.6875.84375.84375.46875.46875 1.53125 1.53125.53125-.53125 1.59375-1.59375 1.3125 1.28125.5.53125.3125.3125.03125.03125.4375.4375h-13.71875z" fill="#5d656b"/></svg>