<svg viewBox="0 0 22 22" xmlns="http://www.w3.org/2000/svg"><path d="m2 3v16h1 6v-1h-1c0-.552285-.4477153-1-1-1s-1 .447715-1 1h-1v-7-7h1c0 .5522847.4477153 1 1 1s1-.4477153 1-1h4 4c0 .5522847.447715 1 1 1s1-.4477153 1-1h1v7 1h1v-9h-17zm17 8c0-3.8659932-3.134007-7-7-7-3.8659932 0-7 3.1340068-7 7 .00315 2.700827 1.5597788 5.15891 4 6.316406v-1.126953c-1.8543352-1.070599-2.9976084-3.048253-3-5.189453 0-3.3137085 2.6862915-6 6-6 3.313708 0 6 2.6862915 6 6-.002.335258-.032014.669762-.089844 1h1.011719c.049917-.331036.07603-.665227.078125-1zm-16-7h1v14h-1zm9 8-2 1.5 2 1.5v-1h5c.554 0 1 .446 1 1h1c0-1.108008-.891992-2-2-2h-5zm-2 4c0 1.10801.89199 2 2 2h5v1l2-1.5-2-1.5v1h-5c-.554 0-1-.446-1-1z" fill="#5d656b"/></svg>