<svg viewBox="0 0 22 22" xmlns="http://www.w3.org/2000/svg"><path d="m11 3c-2.9455143.0000109-5.3333226 2.3878192-5.3333335 5.3333333.00209.635161.1176187 1.2648422.3411459 1.8593747.16178.447121.4880312.942189.6927082 1.283855l4.2994794 7.523437 4.299478-7.520833c.337613-.420547.48392-.865628.695314-1.286459.222638-.5946953.337285-1.2243713.338542-1.8593747-.000011-2.9455141-2.387819-5.3333224-5.333334-5.3333333zm0 1.3333333c1.220404.0000207 2.374033.5571766 3.132811 1.5130208.166159.2089706.310978.4340514.432292.6718751.242471.4768937.386811.9975825.424481 1.53125.0068.094465.01028.1891427.01042.2838541-.000313.4008748-.06088.799425-.179688 1.1822918-.06587.2077933-.148606.409855-.247394.6041669-.01107.02442-.02232.04873-.03385.07292-.690604 1.315409-2.05339 2.13969-3.539072 2.140621-1.4856815-.000931-2.8484532-.825213-3.5390627-2.140625-.0593067-.112813-.1131876-.2283961-.1614583-.3463539l-.00781-.018229c-.0440282-.1101858-.0831294-.2222758-.11719-.3359376-.0053048-.0155927-.0105132-.031218-.015625-.046875-.0296267-.1065486-.054822-.2142801-.0755208-.3229166-.0054043-.0225239-.0106128-.0450942-.0156251-.0677084-.0204411-.1121279-.0360803-.2250782-.0468749-.3385416-.0018734-.0190846-.0036095-.0381823-.0052083-.0572918-.0096284-.1082496-.0148409-.2168466-.0156251-.3255208.0003123-.1330764.0072654-.2660542.0208334-.3984374.1074785-1.0756458.6457428-2.0619938 1.4921874-2.7343751.2089707-.1661581.4340514-.3109775.6718751-.4322916.5622741-.2860725 1.1842403-.4350944 1.8151043-.4348959z" fill="#5d656b"/></svg>