<svg viewBox="0 0 22 22" xmlns="http://www.w3.org/2000/svg"><path d="m7.0462869 4.048828a7.9949791 8 0 0 0 -4.0462869 6.951172 7.9949791 8 0 0 0 7.994979 8 7.9949791 8 0 0 0 6.93705-4.042969 7.9949791 8 0 0 0 .0098-.0059l-.737824-.738281a6.9956067 7 0 0 1 -.0039.0059 6.9956067 7 0 0 1 -3.207009.78125 6.9956067 7 0 0 1 -6.9956065-7 6.9956067 7 0 0 1 .7866151-3.212891zm-.743674 1.771485a7.9949791 8 0 0 0 -.3044957 2.179687 7.9949791 8 0 0 0 7.9949788 8 7.9949791 8 0 0 0 2.186127-.3125 6.9956067 7 0 0 1 -5.184244 2.3125 6.9956067 7 0 0 1 -6.9956066-7 6.9956067 7 0 0 1 2.3032405-5.179687zm5.4077071 3.279686h1.714714l-.03217.9h-3.3972573l1.7147203-2.699999h-1.7147263v-.9h3.4294313zm4.573173-2.399999h1.716507l-.03222.9h-3.400797l1.716511-2.7h-1.71651v-.900001h3.433014z" fill="#5d656b"/></svg>