<svg viewBox="0 0 22 22" xmlns="http://www.w3.org/2000/svg"><path d="m6.7890625 3.412109-.8671875.5 1.6464844 2.84961-2.2480469-.601563-.2597656.966797 3.2148437.861328 1.5703125 2.716797h-3.1386719l-2.3535156-2.353516-.7070312.707032 1.6464844 1.646484h-3.2929688v1h3.2929688l-1.6464844 1.646484.7070312.707032 2.3535156-2.353516h3.1328126l-1.5664063 2.712891-3.2148437.861328.2578124.966797 2.25-.603516-1.6464843 2.851563.8652343.5 1.6464844-2.851563.6035156 2.25.9648438-.259766-.8613281-3.216796 1.8554691-3.210938h.005859l1.857422 3.21875-.861328 3.214844.966797.257812.601562-2.248046 1.646485 2.851562.867187-.5-1.646484-2.851562 2.248047.601562.259765-.964844-3.214844-.861328-1.570312-2.71875h3.138672l2.353515 2.353516.707032-.707032-1.646485-1.646484h3.292969v-1h-3.292969l1.646485-1.646484-.050782-.058594h-1.302734l-1.707031 1.705078h-3.136719l.984375-1.705078h-1.140625l-.998047 1.703125h-.001953l-.0039-.002-1.8535159-3.212891.8613279-3.214843-.9667966-.259766-.6015625 2.25zm10.7140795 1.837891h1.503138l-.028216.75h-2.978064l1.503141-2.25h-1.50314v-.75h3.006276zm-4.004708 1.999999h1.501568l-.02817.75h-2.974965l1.501573-2.249999h-1.501579v-.75h3.003139z" fill="#5d656b"/></svg>