<svg viewBox="0 0 22 22" xmlns="http://www.w3.org/2000/svg"><path d="m11.38212 2.388c-1.989467 0-3.220562 1.263525-3.397744 2.799v1.018l-2.1510319-1.520183-.8489679.663037 2.5469046 1.989109.8489682.663037.848967-.663037 2.546905-1.989109-.848968-.663037-1.942777 1.520183v-1.018c0-1.035581 1.06462-1.798637 2.397544-1.799 1.332927.000363 2.621.763585 2.602456 1.799v.813h1v-.813327c0-1.545664-1.612785-2.798673-3.602253-2.798673zm2.602256 4.612c-1.10457 0-2 .895431-2 2 0 1.10457.89543 2 2 2 1.104569 0 2-.89543 2-2 0-1.104569-.895431-2-2-2zm-6.000001 2a1.999999 2 0 0 0 -2 2 1.999999 2 0 0 0 2 2 1.999999 2 0 0 0 2-2 1.999999 2 0 0 0 -2-2zm6.015625 3c-1.518796 0-2.764244 1.163057-2.978516 2.671875.582869.662142.962891 1.328125.962891 2.328125h2.015625 1.8125.601563c.393221-.54062.60674-1.198565.607421-1.875.000001-1.72589-1.35224-3.125-3.021484-3.125zm-.04883 1c1.102577 0 1.996096.839466 1.996094 1.875-.00045.405861-.14066.800628-.400391 1.125h-.398438-1.197265-1.199219-.02539c-.085645-.538511-.357189-1.019889-.742186-1.398438.141532-.90529.963596-1.601562 1.966797-1.601562zm-5.966795 1a2.9999989 3.1249983 0 0 0 -3 3.125 2.9999989 3.1249983 0 0 0 .605469 1.875h.59375 1.800781 1.800781.597657a2.9999989 3.1249983 0 0 0 .601562-1.875 2.9999989 3.1249983 0 0 0 -3-3.125zm0 1a2.0000009 2.2500008 0 0 1 2 2.25 2.0000009 2.2500008 0 0 1 -.117188.75h-3.765624a2.0000009 2.2500008 0 0 1 -.117188-.75 2.0000009 2.2500008 0 0 1 2-2.25z" fill="#5d656b"/></svg>