<svg viewBox="0 0 22 22" xmlns="http://www.w3.org/2000/svg"><path d="m3 3v16h11v-1h-10v-11h14v7h1v-11h-2v3h-2v-3h-8v3h-2v-3zm2 5v3h1v-1h4v1h1v-3h-1v1h-4v-1zm4 4v3h1v-1h4v1h1v-3h-1v1h-4v-1zm7 2v2h-2v1h2v2h1v-2h2v-1h-2v-2z" fill="#5d656b"/><path d="m433.71432 532.79071h.99995c.00001 0 .00002.00001.00002.00003v10.99994c0 .00002-.00001.00003-.00002.00003h-.99995c-.00001 0-.00003-.00001-.00003-.00003v-10.99994c0-.00002.00002-.00003.00003-.00003z" fill="#3daee9" transform="translate(-421.71429 -525.79074)"/></svg>