<svg viewBox="0 0 22 22" xmlns="http://www.w3.org/2000/svg"><path d="m3.0000001 3.0000001v4h-1v1 9.9999999c0 .554.446 1 1 1h15.9999999 1v-1-9.9999999c0-.554-.446-1-1-1h-5v-4zm1 1h8.9999999v3h-2.507812c-.470484-.6273203-1.2080451-.9975468-1.9921881-1-.786206.0006144-1.526323.3710349-1.9980467 1h-2.5019531zm-1 4h1 2.0507812 4.8945307 2.054688 1 5v2.9999999h-2-5c-1.108 0-2.0000001.892-2.0000001 2s.8920001 2 2.0000001 2h5 2v3h-15.9999999zm9.9999999 3.9999999c.552285 0 1 .447715 1 1s-.447715 1-1 1-1-.447715-1-1 .447715-1 1-1z" fill="#5d656b"/></svg>