<?xml version="1.0" encoding="UTF-8"?>
<svg id="svg14" width="24" height="24" enable-background="new" version="1.1" xmlns="http://www.w3.org/2000/svg" xmlns:cc="http://creativecommons.org/ns#" xmlns:dc="http://purl.org/dc/elements/1.1/" xmlns:rdf="http://www.w3.org/1999/02/22-rdf-syntax-ns#">
 <metadata id="metadata90">
  <rdf:RDF>
   <cc:Work rdf:about="">
    <dc:format>image/svg+xml</dc:format>
    <dc:type rdf:resource="http://purl.org/dc/dcmitype/StillImage"/>
    <dc:title/>
   </cc:Work>
  </rdf:RDF>
 </metadata>
 <g id="layer9" transform="translate(-421 231)">
  <g id="g6930" transform="matrix(1.4286 0 0 1.5 363 -644)" fill="#b3b3b3">
   <g id="g6924" fill="#b3b3b3">
    <g id="layer9-28" transform="translate(2e-4)">
     <path id="path3991-1" transform="translate(-135 61)" d="m180 219c-1.6447 0-3 1.3553-3 3v4c0 1.6447 1.3553 3 3 3h8c1.6447 0 3-1.3553 3-3v-4c0-1.6447-1.3553-3-3-3h-1v2h1c0.5713 0 1 0.4287 1 1v4c0 0.5713-0.4287 1-1 1h-8c-0.5713 0-1-0.4287-1-1v-4c0-0.5713 0.4287-1 1-1h3v-2z" color="#000000" fill="#b3b3b3"/>
    </g>
    <path id="path3764" d="m51 281-4-3v6z"/>
   </g>
  </g>
 </g>
</svg>
