<?xml version="1.0" encoding="UTF-8"?>
<!-- Created with Inkscape (http://www.inkscape.org/) -->
<svg id="svg7384" width="24" height="24" enable-background="new" version="1.1" xmlns="http://www.w3.org/2000/svg" xmlns:cc="http://creativecommons.org/ns#" xmlns:dc="http://purl.org/dc/elements/1.1/" xmlns:rdf="http://www.w3.org/1999/02/22-rdf-syntax-ns#">
 <metadata id="metadata90">
  <rdf:RDF>
   <cc:Work rdf:about="">
    <dc:format>image/svg+xml</dc:format>
    <dc:type rdf:resource="http://purl.org/dc/dcmitype/StillImage"/>
    <dc:title>Paper Symbolic Icon Theme</dc:title>
   </cc:Work>
  </rdf:RDF>
 </metadata>
 <title id="title8473">Paper Symbolic Icon Theme</title>
 <g id="g822" transform="matrix(1.2904 0 0 1.2924 1.6771 1.6606)" fill="#555" stroke="#555" stroke-width=".312">
  <rect id="rect3465" transform="scale(-1,1)" x="-23.971" y="11.729" width="3.0213" height="0" ry="0"/>
  <path id="rect2422" d="m3.452 0.4187c0.84782 0.007263 1.6868 0.33591 2.3363 0.97694 0.97865 0.96602 1.2086 2.3654 0.72996 3.5556 0.03686 0.028854 0.09553 0.062272 0.12979 0.096043l2.0928 2.0663c0.46778 0.46125 0.46778 1.2198 0 1.6815l-0.19469 0.19219c-0.46726 0.46126-1.2356 0.46126-1.7034 0l-2.1089-2.0664c-0.034262-0.033319-0.051916-0.091226-0.081511-0.12813-1.2055 0.47304-2.6229 0.24549-3.6015-0.72058-0.13239-0.13018-0.2544-0.27112-0.35719-0.41615-0.034266-0.048688-0.065935-0.094301-0.097086-0.14453-0.3899-0.81089-0.18483-0.76261 0.66507-0.54428 0.85976 0 1.5575-0.68881 1.5575-1.5375 0-0.84871-0.69778-1.5375-1.5575-1.5375-0.51918 0 0.30839-0.97309 0.94075-1.2332 0.03011-0.011571 0.051398-0.037405 0.081511-0.048068 0.010901-0.003219 0.021289 0.003219 0.03219 0 0.36446-0.12481 0.75436-0.19544 1.136-0.19219z"/>
  <path id="path2432" d="m15.259 12.477c0.44656 0.44082 0.44647 1.1691 8e-5 1.6097l-1.1794 1.1643c-0.4464 0.44066-1.1842 0.44074-1.6307-7.9e-5l-6.3981-6.3158c-0.4464-0.44066-0.4464-1.169 0-1.6097l1.1794-1.1643c0.4464-0.44066 1.1842-0.44066 1.6306 0z"/>
 </g>
</svg>
