<?xml version="1.0" encoding="UTF-8"?>
<!-- Created with Inkscape (http://www.inkscape.org/) -->
<svg id="svg7384" width="24" height="24" enable-background="new" version="1.1" xmlns="http://www.w3.org/2000/svg" xmlns:cc="http://creativecommons.org/ns#" xmlns:dc="http://purl.org/dc/elements/1.1/" xmlns:rdf="http://www.w3.org/1999/02/22-rdf-syntax-ns#">
 <metadata id="metadata90">
  <rdf:RDF>
   <cc:Work rdf:about="">
    <dc:format>image/svg+xml</dc:format>
    <dc:type rdf:resource="http://purl.org/dc/dcmitype/StillImage"/>
    <dc:title>Paper Symbolic Icon Theme</dc:title>
   </cc:Work>
  </rdf:RDF>
 </metadata>
 <title id="title8473">Paper Symbolic Icon Theme</title>
 <g id="layer12" transform="matrix(1.4414 0 0 1.4286 -698.54 -143.32)" fill="#555">
  <path id="path10500" d="m491.19 101.72-0.1543 1.8438c-0.58462 0.21656-1.1282 0.53093-1.6074 0.92969l-1.6758-0.78906-1.75 3.0312 1.5215 1.0566c-0.0542 0.30631-0.0823 0.61667-0.084 0.92773 2.1e-4 0.31226 0.027 0.62393 0.0801 0.93164l-1.5176 1.0527 1.75 3.0312 1.6719-0.7871c0.48084 0.39706 1.0257 0.70945 1.6113 0.92382l0.1543 1.8477h3.5l0.1543-1.8438c0.58462-0.21656 1.1282-0.53093 1.6074-0.92969l1.6758 0.78906 1.75-3.0312-1.5215-1.0566c0.0542-0.30631 0.0823-0.61667 0.084-0.92773-2.1e-4 -0.31226-0.027-0.62393-0.0801-0.93164l1.5176-1.0527-1.75-3.0312-1.6719 0.7871c-0.48084-0.39706-1.0257-0.70945-1.6113-0.92382l-0.1543-1.8477z" enable-background="new" fill="#555"/>
 </g>
 <path id="path5938" d="m12 7c0.37476 0 0.67857 0.29848 0.67857 0.66667-1.97e-4 0.0222-0.0014 0.044335-4e-3 0.0664 1.5541 0.30589 2.7184 1.6475 2.7183 3.2669l-9.4e-5 1.3333v1.6667l1.3571 1.3333v0.33333h-9.5001v-0.33333l1.3571-1.3333 9.6e-5 -3c5.4e-5 -1.6194 1.1642-2.961 2.7183-3.2669-0.0027-0.022065-4e-3 -0.0442-4e-3 -0.0664 0-0.36819 0.30381-0.66667 0.67857-0.66667zm1.1728 9.3333c-0.242 0.41181-0.68892 0.66583-1.1729 0.66667-0.48448-3.73e-4 -0.93201-0.25446-1.1742-0.66667z" enable-background="new" fill="#fff"/>
</svg>
