<?xml version="1.0" encoding="UTF-8"?>
<svg id="svg12" width="24" height="24" version="1" xmlns="http://www.w3.org/2000/svg" xmlns:cc="http://creativecommons.org/ns#" xmlns:dc="http://purl.org/dc/elements/1.1/" xmlns:rdf="http://www.w3.org/1999/02/22-rdf-syntax-ns#">
 <metadata id="metadata18">
  <rdf:RDF>
   <cc:Work rdf:about="">
    <dc:format>image/svg+xml</dc:format>
    <dc:type rdf:resource="http://purl.org/dc/dcmitype/StillImage"/>
    <dc:title/>
   </cc:Work>
  </rdf:RDF>
 </metadata>
 <rect id="rect2" x="1" y="1" width="22" height="22" rx="11" ry="11" fill="#555" stroke-width=".55"/>
 <path id="path10" d="m8.4729 16.358c-0.28611-0.0385-0.79507-0.20416-1.1346-0.36756-2.2119-1.0598-3.1164-3.7292-2.027-5.9777 1.2446-2.5709 4.6406-3.2262 6.6841-1.2898 0.59094 0.55908 0.85339 1.0361 1.7431 3.1514 0.92877 2.2121 1.1004 2.5599 1.4014 2.8548 0.32243 0.31366 0.6212 0.41932 1.1929 0.41932 0.93922 0 1.6099-0.58052 1.6099-1.3906 0-0.68563-0.241-0.90519-1.4702-1.3416-1.8718-0.67518-2.4782-1.2854-2.4804-2.5109 0-0.65373 0.16562-1.0896 0.58653-1.5413 0.60414-0.64488 1.6463-0.85784 2.5684-0.53762 0.39341 0.13981 1.2165 0.86834 1.2165 1.0769 0 0.10126-0.47704 0.41052-0.7417 0.48372-0.13976 0.0363-0.26026-0.011-0.42147-0.16566-0.32683-0.31366-0.54802-0.41052-0.93923-0.41052-0.67512 0-1.0938 0.40612-1.0938 1.062 0 0.65373 0.26631 0.87494 1.5967 1.324 1.8333 0.61908 2.3747 1.1782 2.3858 2.4719 0.01101 1.1176-0.49245 1.9237-1.4938 2.4008-0.45558 0.21516-0.61019 0.24272-1.3541 0.24272-1.0619 0-1.539-0.19756-2.1343-0.86834-0.40001-0.45122-0.80607-1.2981-2.1062-4.3896-0.53922-1.2811-1.2314-1.9089-2.3858-2.156-0.58488-0.1249-1.3992-0.0088-1.9302 0.27076-0.51776 0.27071-1.096 0.88154-1.3689 1.4401-0.22559 0.45342-0.24705 0.58052-0.24705 1.3691 0 0.75224 0.030261 0.93054 0.21899 1.3432 0.28611 0.63008 0.84899 1.2123 1.468 1.5259 0.44733 0.22561 0.58654 0.25372 1.3002 0.25372 0.68557 0 0.86164-0.03245 1.2705-0.22781 0.46659-0.22786 1.0938-0.78694 1.3497-1.2057l0.13315-0.21736 0.26246 0.59978c0.14636 0.33126 0.2641 0.64273 0.2641 0.69883 0 0.16566-0.59314 0.70714-1.1368 1.0444-0.82533 0.50958-1.7734 0.70048-2.7858 0.56292" fill="#fff" stroke-width=".55"/>
</svg>
