<svg enable-background="new" height="24" width="24" xmlns="http://www.w3.org/2000/svg"><g transform="matrix(.39624889 0 0 .39624889 -.679964 -.679964)"><path d="m24.395185-20.85965h41.719299v41.719299h-41.719299z" fill="#abacae" transform="matrix(.70710678 .70710678 -.70710678 .70710678 0 0)"/><path d="m30.26417-17.819092h27.152901v27.152901h-27.152901z" fill="#fafafa" transform="matrix(.70710678 .70710678 -.70710678 .70710678 0 0)"/><g fill="none" stroke-linecap="round"><path d="m3.8936737 32.125243 12.0335223-4.250488" stroke="#fafafa"/><path d="m31.999999 59.900912 1.881919-13.962907" stroke="#fafafa"/><path d="m51.695804 27.677283 7.993041 4.614952" stroke="#fafafa"/><path d="m31.932172 3.5658636 2.014003 6.3326302" stroke="#fafafa"/><path d="m24.878815-20.376019h40.752037v40.752037h-40.752037z" stroke="#000" stroke-linejoin="round" stroke-width="1.674146" transform="matrix(.70710678 .70710678 -.70710678 .70710678 0 0)"/></g><g transform="matrix(.03087631 .00860809 -.00860809 .03087631 52.684704 29.811471)"><g transform="translate(-931.98559 -252.45637)"><path d="m229.2 357.4h-229.2c12.8 162.3 142.3 291.8 304.6 304.6v-231.3c-36.4-9.2-65.2-37.3-75.4-73.3z"/><path d="m304.6 226.9v-226.9c-161.8 12.8-291 141.5-304.5 303.1h228.3c9.4-37.4 38.8-66.8 76.2-76.2z"/><path d="m432.1 303.1h229.7c-13.3-161.1-141.8-289.6-302.9-303v227.6c36 10.2 64.1 39 73.2 75.4z"/></g><path d="m425 360.39999h142.5v260.10001h-142.5z" transform="matrix(.7071 -.7071 .7071 .7071 -1133.39979 242.11173)"/></g></g></svg>