<svg viewBox="0 0 24 24" xmlns="http://www.w3.org/2000/svg"><path d="m12 4c-1.107998 0-2 .892002-2 2 0 .097284.011721.1920363.025391.2851562-2.9096474.8489951-5.025391 3.5237368-5.025391 6.7148438 0 3.878 3.122 7 7 7s7-3.122 7-7c0-1.586301-.52733-3.0415196-1.410156-4.2128906.243033-.182096.410156-.4587104.410156-.7871094 0-.554-.446-1-1-1-.328399 0-.605013.1671232-.787109.4101562-.664149-.5005489-1.418203-.885712-2.238282-1.125.01367-.0931199.025391-.1878732.025391-.2851562 0-1.107998-.892002-2-2-2zm0 1c.554004 0 1 .445996 1 1 0 .027034-.013535.0496909-.015625.0761719-.322532-.045169-.648999-.0761719-.984375-.0761719s-.661837.0310029-.984375.0761719c-.002085-.026481-.015625-.0491379-.015625-.0761719 0-.554004.445996-1 1-1zm0 2c.25958 0 .513703.0193204.763672.0527344.03476.00439.06895.010651.103516.015625.242093.036669.480551.0854805.71289.1484375 2.550944.691228 4.419922 3.0076201 4.419922 5.7832031 0 3.324-2.676 6-6 6s-6-2.676-6-6c0-2.775584 1.8689779-5.0919751 4.419922-5.7832031.23234-.062957.470797-.1117675.71289-.1484375.034571-.00497.06876-.011239.103516-.015625.249969-.033414.504092-.0527344.763672-.0527344zm0 1v4c.554 0 1 .446 1 1h4c0-2.77-2.23-5-5-5z" fill="#5d656b"/></svg>