<svg viewBox="0 0 24 24" xmlns="http://www.w3.org/2000/svg"><path d="m7.8769531 4c-1.664433.856171-3.0207801 2.2125201-3.8769531 3.8769531v.1230469l.921875.3066406c.754604-1.449895 1.9348706-2.6301616 3.3847656-3.3847656l-.3066406-.921875zm8.1289059 0-.30664.921875c1.44989.75461 2.630155 1.9348756 3.384765 3.3847656l.921875-.3066406v-.1230469c-.85617-1.66443-2.212523-3.0207801-3.876953-3.8769531zm-4.005859 2c-3.877995 0-7 3.122005-7 7s3.122005 7 7 7 7-3.122005 7-7-3.122005-7-7-7zm0 1c3.323996 0 6 2.676004 6 6s-2.676004 6-6 6-6-2.676004-6-6 2.676004-6 6-6zm-3.0019531 3.001953v6h2.0000001v-6zm4.0078121 0v6h2v-6z" fill="#5d656b"/></svg>