<svg viewBox="0 0 24 24" xmlns="http://www.w3.org/2000/svg"><path d="m11.044922 4c-1.7768301 0-2.5214845.7064456-2.5214845 2.5097656v2.4414063c0 1.1138201-.034195 2.4042971-1.015625 2.4042971h-.5078125v1.289062h.5078125c.98148 0 1.015625 1.290477 1.015625 2.404297v2.441406c0 1.80332.7446544 2.509766 2.5214845 2.509766v-1.183594c-1.1845501 0-1.201172-.478327-1.201172-2.210937v-2.015625c0-.83093-.204705-2.067378-1.203125-2.580078.99842-.51271 1.203125-1.751092 1.203125-2.5820316v-2.0332032c0-1.7325999.0165919-2.2109375 1.201172-2.2109374zm1.894531 0v1.1835938c1.18456 0 1.216797.4783375 1.216797 2.2109374v2.0332032c0 .8309396.204705 2.0693216 1.203125 2.5820316-.99842.5127-1.203125 1.749148-1.203125 2.580078v2.015625c0 1.73261-.032187 2.210937-1.216797 2.210937v1.183594c1.77684 0 2.53711-.706446 2.537109-2.509766v-2.441406c0-1.11382.068644-2.404297 1.033204-2.404297h.490234v-1.289062h-.490234c-.96457 0-1.033204-1.290477-1.033204-2.4042971v-2.4414063c0-1.80332-.760269-2.5097656-2.537109-2.5097656z" fill="#5d656b"/></svg>