<svg viewBox="0 0 24 24" xmlns="http://www.w3.org/2000/svg"><path d="m11.912109 4a8 6.00001 0 0 0 -2.4179684.3027344l.8378904.8417968a7 5 0 0 1 1.667969-.1484374 7 5 0 0 1 .527344.0195312zm1.207032.0625.669921 1.1054688a7 5 0 0 1 2.742188 1.0175781l.8125-.6445313a8 6.00001 0 0 0 -4.224609-1.4785156zm-4.7011722.5761719a8 6.00001 0 0 0 -1.859375.96875l.9726562.546875a7 5 0 0 1 1.6640625-.7324219zm9.7402342 1.53125-.789062.6269531a7 5 0 0 1 .794921.8378906l1-.2929687a8 6.00001 0 0 0 -1.005859-1.171875zm-12.439453.1113281a8 6.00001 0 0 0 -1.0332031 1.3046875l.9316406.3671875a7 5 0 0 1 1.0117187-1.1601562zm13.929688 1.9609375-.966797.2832031a7 5 0 0 1 .296875 1.0898438l1.005859.1367187a8 6.00001 0 0 0 -.335937-1.5097656zm-15.3867192.25a8 6.00001 0 0 0 -.2578126 1.4257813l1.0039063-.0449219a7 5 0 0 1 .1816406-1.0136719zm14.6777342 2.1269535a7 5 0 0 1 -.587891 1.466797l.990235.27539a8 6.00001 0 0 0 .583984-1.607422zm-13.830078.25-1.0058594.044921a8 6.00001 0 0 0 .5625 1.472657l.9101563-.417969a7 5 0 0 1 -.4667969-1.099609zm1.0878906 1.916015-.9394531.429688a8 6.00001 0 0 0 1.7714844 1.466797c.636032 2.375609-1.8404509 4.501349-1.0292969 5.3125 1.134713.108119 1.8091632-1.566816 2.0820312-3.189453.102073-.13893.4709962-.666928.7675782-1.296876a8 6.00001 0 0 0 3.1406246.488282l-1.066406-1.066406a7 5 0 0 1 -1.7871092-.384766c.0079229-.444052-.2657667-.723596-1.1347657-.544922-.00104-.001377-.0008931-.004509-.0019531-.005859-.079193 0-.1576321-.015794-.2363281-.027344a7 5 0 0 1 -1.5664063-1.181641zm11.4609374.146485a7 5 0 0 1 -1.673828 1.167968l.976563.595703a8 6.00001 0 0 0 1.777343-1.46289zm-2.833984 1.632812a7 5 0 0 1 -2.429688.421875l.921875.921875a8 6.00001 0 0 0 2.59375-.681641z" fill="#5d656b"/></svg>