<svg viewBox="0 0 24 24" xmlns="http://www.w3.org/2000/svg"><path d="m12.996094 4.0019531-7.3261721 7.3261719-.0019531-.003906-1.4140626 1.414062.0019532.003907-.25.25h-.0058594v4.007812h1 2 1.0078125l.2519531-.251953.3535156-.353516.7070313-.707031.3554687-.353516 7.3222658-7.3300778-3.998047-4zm-.583985 1.9960938 2.587891 2.5898437-4.267578 4.2675784-2.5878908-2.589844zm-4.974609 4.9746091 2.587891 2.589844-.7070316.707031-2.5898438-2.589843.2734375-.271485zm-1.4160156 1.414063 2.5898437 2.589843.0039063.001954-.7070313.707031-.0039062-.001953-2.5898438-2.589844zm-2.0214844 6.613281v1h16v-1z" fill="#5d656b"/></svg>