<svg viewBox="0 0 24 24" xmlns="http://www.w3.org/2000/svg"><path d="m3 4v16h14l4-8-4-8zm5.4277344 4v.5917969c-.7107 0-.7207032.2391587-.7207032 1.1054687v1.0175784c0 .41547-.1236162 1.032712-.7226562 1.289062.59904.25635.7226563.875556.7226562 1.291016v1.007812c0 .86631.0099802 1.105469.7207032 1.105469v.591797c-1.06609 0-1.5136719-.352246-1.5136719-1.253906v-1.222656c0-.556911-.020485-1.201172-.609375-1.201172h-.3046875v-.644532h.3046875c.58887 0 .609375-.644262.609375-1.201172v-1.2226558c0-.9016599.4475819-1.2539062 1.5136719-1.2539062zm3.1367186 0c1.0661 0 1.521484.3522463 1.521485 1.2539062v1.2226558c-.00001.556911.0404 1.201172.61914 1.201172h.294922v.644532h-.294922c-.57874 0-.619141.644261-.61914 1.201172v1.222656c-.00001.90166-.455385 1.253906-1.521485 1.253906v-.591797c.71082 0 .728516-.239159.728516-1.105469v-1.007812c0-.41546.123606-1.034666.722656-1.291016-.59905-.25635-.722656-.873592-.722656-1.289062v-1.0175784c0-.86631-.01779-1.1054687-.728516-1.1054687z" fill="#5d656b"/></svg>