<svg viewBox="0 0 24 24" xmlns="http://www.w3.org/2000/svg"><path d="m7 4-4 8 4 8h14v-16zm5.435547 4v.5917969c-.71072 0-.728516.2391587-.728516 1.1054687v1.0175784c0 .41547-.123616 1.032712-.722656 1.289062.59904.25635.722656.875556.722656 1.291016v1.007812c0 .86631.017696 1.105469.728516 1.105469v.591797c-1.0661 0-1.521474-.352246-1.521485-1.253906v-1.222656c.000001-.556911-.0404-1.201172-.61914-1.201172h-.294922v-.644532h.294922c.57874 0 .61915-.644261.61914-1.201172v-1.2226558c.000001-.90166.455385-1.2539062 1.521485-1.2539062zm3.136719 0c1.06609 0 1.513672.3522462 1.513672 1.2539062v1.2226558c0 .55691.020504 1.201172.609374 1.201172h.304688v.644532h-.304688c-.58887 0-.609374.644261-.609374 1.201172v1.222656c-.000001.90166-.447582 1.253906-1.513672 1.253906v-.591797c.7197 0 .720703-.239159.720703-1.105469v-1.007812c0-.41546.123616-1.034666.722656-1.291016-.59904-.25635-.722656-.873592-.722656-1.289062v-1.0175784c0-.86631-.010003-1.1054687-.720703-1.1054687z" fill="#5d656b"/></svg>