<svg viewBox="0 0 24 24" xmlns="http://www.w3.org/2000/svg"><path d="m12 4c-4.4181661 0-8.000001 2.6864-8 6 0 3.2629 3.4761023 5.911687 7.800781 5.992188v4.007812c8.216421-4.7437 8.199219-7.7342 8.199219-10 0-3.3136-3.581835-6-8-6zm-3.7402344 3.0644531h3.0820314v3.0839849h-.009766c.0065.073.009766.146403.009766.220703 0 1.2634-.966715 2.298856-2.201172 2.410156v-.892578c.745998-.1077 1.320312-.741778 1.320313-1.517578 0-.075-.009102-.148503-.019532-.220703h-2.1816404zm4.3984374 0h3.082031v3.0839849h-.009765c.0065.073.009765.146403.009765.220703 0 1.2634-.966713 2.298856-2.201172 2.410156v-.892578c.745999-.1077 1.320313-.741778 1.320313-1.517578 0-.075-.007098-.148503-.017578-.220703h-2.183594z" fill="#5d656b"/></svg>