<svg viewBox="0 0 24 24" xmlns="http://www.w3.org/2000/svg"><path d="m11 4v2.0898438c-.913243.1522825-1.7540369.5060131-2.4765625 1.0195312l-1.4726563-1.4726562-1.4140624 1.4140624 1.4726562 1.4726563c-.5135181.7225256-.8672486 1.5633195-1.0195312 2.4765625h-2.0898438v2h2.0898438c.1522826.913243.5060131 1.754038 1.0195312 2.476562l-1.4726562 1.472657 1.4140624 1.414062 1.4726563-1.472656c.7225256.513518 1.5633195.867249 2.4765625 1.019531v2.089844h2v-2.089844c.913243-.152282 1.754038-.506013 2.476562-1.019531l1.472657 1.472656 1.414062-1.414062-1.472656-1.472657c.513518-.722523.867249-1.563319 1.019531-2.476562h2.089844v-2h-2.089844c-.152282-.913243-.506013-1.7540369-1.019531-2.4765625l1.472656-1.4726563-1.414062-1.4140624-1.472657 1.4726562c-.722523-.5135181-1.563319-.8672486-2.476562-1.0195312v-2.0898438zm1 3c1.363958 0 2.593808.5442179 3.494141 1.4238281l.082031.0820313c.879611.9003329 1.423828 2.1301826 1.423828 3.4941406s-.544218 2.593808-1.423828 3.494141l-.082031.082031c-.900334.879611-2.130183 1.423828-3.494141 1.423828s-2.593808-.544218-3.4941406-1.423828l-.0820313-.082031c-.8796105-.900334-1.4238281-2.130183-1.4238281-3.494141s.5442179-2.593808 1.4238281-3.4941406l.0820313-.0820313c.9003329-.8796105 2.1301826-1.4238281 3.4941406-1.4238281zm-2 3c-.554 0-1 .446-1 1s.446 1 1 1 1-.446 1-1-.446-1-1-1zm4 0c-.554 0-1 .446-1 1s.446 1 1 1 1-.446 1-1-.446-1-1-1zm-4.9082031 2.726562-.9667969.242188a4 4 0 0 0 3.875 3.03125 4 4 0 0 0 3.876953-3.03125l-.970703-.242188a3 3 0 0 1 -2.90625 2.273438 3 3 0 0 1 -2.9082031-2.273438z" fill="#5d656b"/></svg>