<svg viewBox="0 0 24 24" xmlns="http://www.w3.org/2000/svg"><path d="m12 4a1.9999995 3 0 0 0 -2 3 1.9999995 3 0 0 0 .005859.1855469 3 1.9999995 45 0 0 -.1269528-.1347657 3 1.9999995 45 0 0 -3.5351562-.7070312 3 1.9999995 45 0 0 .7070312 3.5351562 3 1.9999995 45 0 0 .1328126.1269528 3 1.9999995 0 0 0 -.1835938-.005859 3 1.9999995 0 0 0 -3 2 3 1.9999995 0 0 0 3 2 3 1.9999995 0 0 0 .1855469-.005859 1.9999995 3 45 0 0 -.1347657.126953 1.9999995 3 45 0 0 -.7070312 3.535156 1.9999995 3 45 0 0 3.5351562-.707031 1.9999995 3 45 0 0 .1269528-.132813 1.9999995 3 0 0 0 -.005859.183594 1.9999995 3 0 0 0 2 3 1.9999995 3 0 0 0 2-3 1.9999995 3 0 0 0 -.005859-.185547 3 1.9999995 45 0 0 .126953.134766 3 1.9999995 45 0 0 3.535156.707031 3 1.9999995 45 0 0 -.707031-3.535156 3 1.9999995 45 0 0 -.132813-.126953 3 1.9999995 0 0 0 .183594.005859 3 1.9999995 0 0 0 3-2 3 1.9999995 0 0 0 -3-2 3 1.9999995 0 0 0 -.185547.005859 1.9999995 3 45 0 0 .134766-.1269528 1.9999995 3 45 0 0 .707031-3.5351562 1.9999995 3 45 0 0 -3.535156.7070312 1.9999995 3 45 0 0 -.126953.1328126 1.9999995 3 0 0 0 .005859-.1835938 1.9999995 3 0 0 0 -2-3zm.994141 5.5976562a1.9999995 3 45 0 0 .419921.9882818 1.9999995 3 45 0 0 .986329.419921 3 1.9999995 0 0 0 -.400391.994141 3 1.9999995 0 0 0 .402344.994141 3 1.9999995 45 0 0 -.988282.419921 3 1.9999995 45 0 0 -.419921.986329 1.9999995 3 0 0 0 -.994141-.400391 1.9999995 3 0 0 0 -.994141.400391 1.9999995 3 45 0 0 -.419921-.986329 1.9999995 3 45 0 0 -.9863286-.419921 3 1.9999995 0 0 0 .4003906-.994141 3 1.9999995 0 0 0 -.4003906-.994141 3 1.9999995 45 0 0 .9863286-.419921 3 1.9999995 45 0 0 .419921-.9863286 1.9999995 3 0 0 0 .994141.4003906 1.9999995 3 0 0 0 .994141-.4023438zm-.994141 1.4023438c-.554 0-1 .446-1 1s.446 1 1 1 1-.446 1-1-.446-1-1-1z" fill="#5d656b"/></svg>