<svg viewBox="0 0 24 24" xmlns="http://www.w3.org/2000/svg"><path d="m12 4a3.99999 4.00003 0 0 0 -4 4 3.99999 4.00003 0 0 0 4 4 3.99999 4.00003 0 0 0 4-4 3.99999 4.00003 0 0 0 -4-4zm0 1a3 3.00003 0 0 1 3 3 3 3.00003 0 0 1 -3 3 3 3.00003 0 0 1 -3-3 3 3.00003 0 0 1 3-3zm0 8a7.99995 8.00003 0 0 0 -7.9277344 7h1.0078125a6.99996 7.00003 0 0 1 6.9199219-6 6.99996 7.00003 0 0 1 1 .080078v-1.009766a7.99995 8.00003 0 0 0 -1-.070312zm4.5 0a3.5 3.5 0 0 0 -3.5 3.5 3.5 3.5 0 0 0 3.5 3.5 3.5 3.5 0 0 0 3.5-3.5 3.5 3.5 0 0 0 -3.5-3.5zm-.5 1h1v2h1v1h-1-1v-1z" fill="#f47750"/><path d="m16 14v3h1 1v-1h-1v-2z" fill="#fff"/></svg>