<svg viewBox="0 0 24 24" xmlns="http://www.w3.org/2000/svg"><path d="m4 4v1 1 1l-2 3v1 1.400391.599609 1h1v-1-1-.599609-.400391h.4003906.5996094 1.078125l6.921875 3.996094 6.921875-3.996094h.078125 1 1v.400391.599609 1h1v-.599609-1.414063-.986328l-2-3v-3h-15zm1 1h14v1 3.7988281l-7 4.0410159-7-4.0410159v-3.7988281zm1 1v.9863281l-.0136719.0136719h.0136719 12 .013672l-.013672-.0136719v-.9863281zm0 2v1h7v-1zm12.707031 5-.707031.707031 2.292969 2.292969h-4.292969v1h4.292969l-2.292969 2.292969.707031.707031 3.292969-3.292969.207031-.207031-.207031-.207031zm-13.707031 1-3 3 3 3v-2h1 1v-2h-1-1zm3 5v1h1 6v-1z" fill="#5d656b"/></svg>