<svg viewBox="0 0 24 24" xmlns="http://www.w3.org/2000/svg"><path d="m2 4v1 8 6 .414062.585938h1 6 3v-1h-3-6v-.585938l.4628906-.46289 6.2675782-6.267578 1.4531252 1.451172.814453.814453h.001953l.816406-.814453 1.453125-1.451172 1.316407 1.316406h1.414062l-2.023438-2.023438 5.751954-5.7539058.222656-.2226562h.048828v.2226562 5.7773438h1v-7h-.048828-.951172-.462891-17.0742184-.4628906zm1 1h.0488281l.2226563.2226562 5.7519531 5.7539058-6.0234375 6.023438v-4-7.7773438zm1.4628906 0h15.0742184l-7.537109 7.537109z" fill="#5d656b"/><path d="m20 12-.996094.994141-.003906-.003907-5 4.998047.007812.007813-.003906 1.003906h-.003906v.990234.009766h2l.005859-.005859.003907-.003907c.004-.00002.005765.001953.009765.001954l-.005859-.00586.986328-.986328 4-3.996094-.705078-.708984-4.990234 4.986328-.59375-.591797 4.992187-4.988281.591797.59375.705078.703125 1-1z" fill="#27ae60"/></svg>