<svg viewBox="0 0 24 24" xmlns="http://www.w3.org/2000/svg"><path d="m12 4c-4.432 0-8 3.568-8 8s3.568 8 8 8 8-3.568 8-8-3.568-8-8-8zm0 1c1.365929 0 2.634027.3931964 3.708984 1.0644531l-2.65039 4.2421879c.519459.324855.870291.881266.923828 1.527343l4.988281-.416015c.015774.192614.029297.385213.029297.582031 0 3.878-3.122 7-7 7s-7-3.122-7-7 3.122-7 7-7zm0 1c-1.901441 0-3.5877931.8783098-4.6855469 2.25l3.1289059 2.503906c.365933-.45681.923165-.753906 1.556641-.753906v-.5-2zm-1.416016 7.416016-2.1230465 2.123046c.90375.903751 2.1540625 1.460938 3.5390625 1.460938v-1.5-1.5c-.554 0-1.054516-.222484-1.416016-.583984z" fill="#5d656b"/></svg>