<svg enable-background="new" height="24" width="24" xmlns="http://www.w3.org/2000/svg"><g fill="#1a1a1a" transform="matrix(.35750002 0 0 .35750002 .56 .962399)"><rect height="30" rx="2" ry="1.363636" stroke-width=".825723" transform="matrix(0 -1 -1 0 0 0)" width="4" x="-55" y="-47"/><rect height="40" rx="2.727273" ry="2.857143" width="54.545452" x="4.727274" y="9"/><rect height="6" rx=".5" ry=".428571" width="10" x="27" y="46"/></g><path d="m3.7125 5.712043h16.575001v11.235716h-16.575001z" fill="#fafafa" stroke-width=".498972"/><path d="m4.135 6.324995h12.512501v1.0725h-12.512501z" fill="#263238"/><g fill="#b71c1c"><path d="m4.1349992 7.75499438h7.1500004v1.07250006h-7.1500004z"/><path d="m4.1349992 9.33652799348h7.1500004v1.07250006h-7.1500004z"/><path d="m4.1349995575 10.97249456h7.1500004v1.07250006h-7.1500004z"/></g><g transform="rotate(90)"><path d="m7.754995-19.5075h8.9375v1.0725h-8.9375z" fill="#01579b"/><path d="m11.329995-18.077499h5.3625v1.0725h-5.3625z" fill="#0277bd"/><path d="m9.542495-16.495966h7.15v1.0725h-7.15z" fill="#01579b"/><path d="m13.117495-14.86h3.575v1.0725h-3.575z" fill="#0277bd"/></g><circle cx="4.492499" cy="13.474995" fill="#263238" r=".199367" stroke="#263238" stroke-linecap="round" stroke-linejoin="round" stroke-width=".316265"/><circle cx="4.492499" cy="14.547495" fill="#263238" r=".199367" stroke="#263238" stroke-linecap="round" stroke-linejoin="round" stroke-width=".316265"/><circle cx="4.492499" cy="15.619995" fill="#263238" r=".199367" stroke="#263238" stroke-linecap="round" stroke-linejoin="round" stroke-width=".316265"/><path d="m5.2075 13.117495h5.3625v.715h-5.3625z" fill="#b71c1c"/><path d="m5.2075 14.189995h5.3625v.715h-5.3625z" fill="#b71c1c"/><path d="m5.2075 15.262495h5.3625v.715h-5.3625z" fill="#b71c1c"/></svg>