<svg enable-background="new" height="24" width="24" xmlns="http://www.w3.org/2000/svg"><g stroke-width=".303249"><path d="m7.6338482 21.522652c-.3006432-.301576-.3024103-.785351-.0039624-1.084725l3.0166952-3.026051c.298449-.299374.780729-.297602 1.081372.004.300643.301576.30241.785351.004 1.084725l-3.0167331 3.026025c-.2984487.299374-.7807281.297601-1.0813717-.003974z" fill="#ff9800"/><path d="m2.4766456 16.349456c-.3006435-.301576-.3024104-.785351-.0039618-1.084725l3.0166959-3.026051c.2984483-.299374.7807282-.297601 1.0813714.004.3006436.301576.3024103.785351.00396 1.084725l-3.0166937 3.026025c-.2984485.299374-.780728.297602-1.0813718-.004z" fill="#ff9800"/><path d="m8.7560806 10.485959 5.3830104-2.0894622-3.486512-2.0453241 11.072206-4.1011727-5.067406 4.7751898 5.092621 2.1280252-10.496254 4.755086-2.4975352-3.42234z"/><path d="m13.244889 20.235384c2.384181-2.67153 2.282081-6.791563-.29523-9.376867-2.577098-2.5850893-6.6911193-2.6942952-9.3545405-.302829l9.6495555 9.67948z" fill="#1a1a1a"/></g></svg>