<svg enable-background="new" height="24" width="24" xmlns="http://www.w3.org/2000/svg"><path d="m3.975 1.5v1.473215h-3.6v1.473213 16.205357c0 .81616.5352 1.473215 1.2 1.473215h9.6c.6648 0 1.2-.657055 1.2-1.473215v-16.205357-1.473213h-3.6v-1.473215z" fill="#8bc34a" stroke-width="1.329608"/><path d="m.375 8.866072v11.785713c0 .81616.5352 1.473215 1.2 1.473215h9.6c.6648 0 1.2-.657055 1.2-1.473215v-11.785713z" fill="#263238" stroke-width="1.329608"/><path d="m6.375 5.625v4.640625h3.75l-3.75 7.734375v-4.640625h-3.75z" fill="#f9ce1d" stroke-width="1.390537"/><path d="m23.625 13.125v3h-15v-3zm-9-6h3v15h-3z" fill="#1b5e20"/></svg>