<svg viewBox="0 0 24 24" xmlns="http://www.w3.org/2000/svg"><path d="m5 7v.5.5h-1v.9082031 1.0917969 5 .091797.908203h.5.5v1h.9082031 1.0917969 10 .091797 1 .908203v-1h.5.5v-.908203-1.091797-4-1.0917969-.9082031h-1v-.5-.5h-.908203-1-11.1835939zm.9082031 1h11.1835939 1c.15034.4247.483503.7578631.908203.9082031v1.0917969 4 1.091797c-.4247.15034-.757863.483503-.908203.908203h-1-.091797-10-1.0917969c-.15034-.4247-.4835031-.757863-.9082031-.908203v-1.091797-4-1.0917969c.4247013-.150348.7578551-.4835018.9082031-.9082031zm6.0917969 1c-1.662 0-3 1.338-3 3s1.338 3 3 3 3-1.338 3-3-1.338-3-3-3zm0 1c1.108 0 2 .892 2 2s-.892 2-2 2-2-.892-2-2 .892-2 2-2z" fill="#5d656b"/></svg>