<svg viewBox="0 0 24 24" xmlns="http://www.w3.org/2000/svg"><path d="m7 4s-1-.00003-1 1h-2v3 11 1h16v-1-11-3h-2c0-1.00003-1-1-1-1h-3s-1-.00003-1 1h-2c0-1.00003-1-1-1-1zm0 1h3v1h-3zm7 0h3v1h-3zm-9 3h14v11h-14zm5.5 2c-1.939 0-3.5 1.561-3.5 3.5s1.561 3.5 3.5 3.5c.539612 0 1.044436-.129409 1.5-.345703.455564.216294.960388.345703 1.5.345703 1.939 0 3.5-1.561 3.5-3.5s-1.561-3.5-3.5-3.5c-.539612 0-1.044436.129409-1.5.345703-.455564-.216294-.960388-.345703-1.5-.345703zm0 1c.171802 0 .340074.018081.501953.050781-.618219.630608-1.001953 1.492268-1.001953 2.449219s.383734 1.818613 1.001953 2.449219c-.161879.0327-.330151.050781-.501953.050781-1.385 0-2.5-1.115-2.5-2.5s1.115-2.5 2.5-2.5zm3 0c1.385 0 2.5 1.115 2.5 2.5s-1.115 2.5-2.5 2.5c-.171801 0-.340073-.018081-.501953-.050781.618219-.630608 1.001953-1.492268 1.001953-2.449219s-.383734-1.818613-1.001953-2.449219c.16188-.0327.330152-.050781.501953-.050781zm-1.5.507812c.604994.455455 1 1.173236 1 1.992188s-.395006 1.536735-1 1.992188c-.604994-.455456-1-1.173236-1-1.992188s.395006-1.536735 1-1.992188z" fill="#5d656b"/></svg>