<svg viewBox="0 0 24 24" xmlns="http://www.w3.org/2000/svg"><path d="m6.1113281 4v.8144531h2.0722657l-2.1835938 3.2539063v.7324218h3.828125v-.8515624h-2.2460938l2.1738282-3.2929688v-.65625zm7.8886719 5.9921875v8.2929685l-2.292969-2.292968-.707031.707031 3.292969 3.292969.207031.207031.207031-.207031 3.292969-3.292969-.707031-.707031-2.292969 2.292968v-8.2929685zm-5.9042969.0078125c-.78324.0182-1.3851056.155109-1.8222656.355469l.2460937.90039c.20947-.0729 1.0023199-.326172 1.4667969-.326171h.0625c.64663.0273.6933594.262809.6933594.818359v.21875l-.3378906.054687c-1.56649.227687-2.4042969.418904-2.4042969 1.621094 0 .83789.6107106 1.357422 1.4941406 1.357422.6102 0 1.0100899-.255484 1.4199219-.601562l.1269531.509765h.9667964v-3.369141c0-1.029139-.711786-1.539062-1.804687-1.539062zm.6464844 2.677734v1.119141c-.33697.22769-.5921369.392578-1.0292969.392578-.39162 0-.5839844-.245717-.5839844-.591797 0-.65574.5741107-.765054 1.2753907-.865234z" fill="#5d656b"/></svg>